G75*
%MOIN*%
%OFA0B0*%
%FSLAX25Y25*%
%IPPOS*%
%LPD*%
%AMOC8*
5,1,8,0,0,1.08239X$1,22.5*
%
%ADD10R,0.06600X0.06600*%
%ADD11OC8,0.06600*%
%ADD12R,0.12268X0.12268*%
%ADD13C,0.06496*%
%ADD14OC8,0.05200*%
%ADD15C,0.05200*%
%ADD16R,0.05937X0.05937*%
%ADD17R,0.05200X0.05200*%
%ADD18R,0.05543X0.05543*%
%ADD19C,0.04756*%
%ADD20C,0.07400*%
%ADD21C,0.00800*%
%ADD22C,0.02500*%
D10*
X0317378Y0064425D03*
X0427378Y0064425D03*
D11*
X0427378Y0054582D03*
X0427378Y0044740D03*
X0317378Y0044740D03*
X0317378Y0054582D03*
D12*
X0344937Y0036866D03*
X0454937Y0036866D03*
X0454937Y0072299D03*
X0344937Y0072299D03*
D13*
X0085252Y0034582D03*
X0118717Y0034582D03*
X0130528Y0034582D03*
X0142752Y0034582D03*
X0176217Y0034582D03*
X0188028Y0034582D03*
X0188028Y0074582D03*
X0176217Y0074582D03*
X0142752Y0074582D03*
X0130528Y0074582D03*
X0118717Y0074582D03*
X0085252Y0074582D03*
D14*
X0197437Y0069582D03*
X0207437Y0069582D03*
X0284937Y0077082D03*
X0294937Y0077082D03*
X0372437Y0072082D03*
X0382437Y0069582D03*
X0392437Y0069582D03*
X0404937Y0069582D03*
X0417437Y0069582D03*
X0417437Y0059582D03*
X0404937Y0059582D03*
X0392437Y0059582D03*
X0382437Y0059582D03*
X0372437Y0042082D03*
X0294937Y0047082D03*
X0284937Y0047082D03*
X0207437Y0039582D03*
X0197437Y0039582D03*
X0192437Y0024582D03*
X0222437Y0024582D03*
X0282437Y0029582D03*
X0442437Y0024582D03*
X0472437Y0024582D03*
X0493937Y0023582D03*
X0482437Y0039582D03*
X0493937Y0041082D03*
X0493937Y0068582D03*
X0482437Y0069582D03*
X0479937Y0084582D03*
X0493937Y0086082D03*
X0449937Y0084582D03*
D15*
X0224937Y0072182D02*
X0224937Y0066982D01*
X0217437Y0066982D02*
X0217437Y0072182D01*
X0217437Y0042182D02*
X0217437Y0036982D01*
X0224937Y0036982D02*
X0224937Y0042182D01*
D16*
X0245094Y0051925D03*
X0264780Y0051925D03*
X0264780Y0032240D03*
X0245094Y0032240D03*
D17*
X0292437Y0029582D03*
X0493937Y0033582D03*
X0493937Y0051082D03*
X0493937Y0058582D03*
X0493937Y0076082D03*
D18*
X0271866Y0069602D03*
X0238008Y0069602D03*
D19*
X0239780Y0082082D03*
X0248441Y0082082D03*
X0257102Y0082082D03*
X0265764Y0082082D03*
X0270094Y0086413D03*
X0261433Y0086413D03*
X0252772Y0086413D03*
X0244110Y0086413D03*
D20*
X0304937Y0084582D03*
X0314937Y0084582D03*
X0324937Y0084582D03*
X0334937Y0084582D03*
X0344937Y0084582D03*
X0354937Y0084582D03*
X0364937Y0084582D03*
X0374937Y0084582D03*
X0384937Y0084582D03*
X0394937Y0084582D03*
X0404937Y0084582D03*
X0364937Y0022082D03*
X0354937Y0022082D03*
X0344937Y0022082D03*
X0334937Y0022082D03*
X0324937Y0022082D03*
X0314937Y0022082D03*
X0304937Y0022082D03*
D21*
X0312437Y0029582D01*
X0352437Y0029582D01*
X0372437Y0049582D01*
X0414937Y0049582D01*
X0424937Y0039582D01*
X0429937Y0039582D01*
X0432437Y0042082D01*
X0432437Y0049523D01*
X0427378Y0054582D01*
X0417437Y0054582D02*
X0427437Y0044582D01*
X0427535Y0044582D01*
X0427378Y0044740D01*
X0442437Y0059582D02*
X0457437Y0044582D01*
X0490437Y0044582D01*
X0493937Y0041082D01*
X0498937Y0043082D02*
X0498937Y0038582D01*
X0493937Y0033582D01*
X0492937Y0024582D02*
X0472437Y0024582D01*
X0492937Y0024582D02*
X0493937Y0023582D01*
X0498937Y0043082D02*
X0494937Y0047082D01*
X0459937Y0047082D01*
X0429937Y0077082D01*
X0379937Y0077082D01*
X0377437Y0079582D01*
X0369937Y0079582D01*
X0364937Y0084582D01*
X0354937Y0084582D02*
X0347437Y0092082D01*
X0242437Y0092082D01*
X0234937Y0084582D01*
X0234937Y0079582D01*
X0237437Y0077082D01*
X0243441Y0077082D01*
X0248441Y0082082D01*
X0244268Y0086413D02*
X0247937Y0090082D01*
X0319437Y0090082D01*
X0324937Y0084582D01*
X0324937Y0074582D02*
X0334937Y0084582D01*
X0342437Y0084582D02*
X0329937Y0072082D01*
X0309937Y0072082D01*
X0302437Y0064582D01*
X0259937Y0064582D01*
X0274937Y0074582D02*
X0282437Y0067082D01*
X0299937Y0067082D01*
X0307437Y0074582D01*
X0324937Y0074582D01*
X0304937Y0077082D02*
X0304937Y0084582D01*
X0342437Y0084582D02*
X0344937Y0084582D01*
X0374937Y0084582D02*
X0377437Y0084582D01*
X0382437Y0079582D01*
X0431937Y0079582D01*
X0460437Y0051082D01*
X0493937Y0051082D01*
X0493937Y0058582D02*
X0498437Y0063082D01*
X0498437Y0088582D01*
X0494937Y0092082D01*
X0392437Y0092082D01*
X0384937Y0084582D01*
X0394937Y0084582D02*
X0399937Y0089582D01*
X0467437Y0089582D01*
X0480937Y0076082D01*
X0493937Y0076082D01*
X0483437Y0068582D02*
X0482437Y0069582D01*
X0483437Y0068582D02*
X0493937Y0068582D01*
X0442437Y0059582D02*
X0417437Y0059582D01*
X0404937Y0059582D02*
X0392437Y0059582D01*
X0382437Y0069582D02*
X0369937Y0057082D01*
X0329937Y0057082D01*
X0322437Y0049582D01*
X0312437Y0049582D01*
X0304937Y0057082D01*
X0164937Y0057082D01*
X0142752Y0034897D01*
X0142752Y0034582D01*
X0109437Y0059082D02*
X0085252Y0034897D01*
X0085252Y0034582D01*
X0197437Y0039582D02*
X0207437Y0039582D01*
X0224937Y0039582D02*
X0237437Y0052082D01*
X0244937Y0052082D01*
X0245094Y0051925D01*
X0264780Y0051925D01*
X0267280Y0051925D01*
X0269937Y0054582D01*
X0302437Y0054582D01*
X0312437Y0044582D01*
X0317437Y0044582D01*
X0324937Y0044582D01*
X0334937Y0054582D01*
X0417437Y0054582D01*
X0372437Y0042082D02*
X0357437Y0027082D01*
X0349937Y0027082D01*
X0344937Y0022082D01*
X0324937Y0037082D02*
X0257437Y0037082D01*
X0264780Y0032240D02*
X0245094Y0032240D01*
X0244937Y0032082D01*
X0229937Y0032082D01*
X0222437Y0024582D01*
X0294937Y0047082D02*
X0302437Y0039582D01*
X0327437Y0039582D01*
X0339937Y0052082D01*
X0354937Y0052082D01*
X0359437Y0059082D02*
X0372437Y0072082D01*
X0376437Y0078082D02*
X0379937Y0074582D01*
X0399937Y0074582D01*
X0404937Y0069582D01*
X0376437Y0078082D02*
X0368437Y0078082D01*
X0352437Y0062082D01*
X0339937Y0062082D01*
X0332437Y0069582D01*
X0312437Y0069582D01*
X0304937Y0062082D01*
X0154937Y0062082D01*
X0142752Y0074267D01*
X0142752Y0074582D01*
X0192437Y0079582D02*
X0089937Y0079582D01*
X0085252Y0074897D01*
X0085252Y0074582D01*
X0109437Y0059082D02*
X0359437Y0059082D01*
X0304937Y0077082D02*
X0297437Y0069582D01*
X0284937Y0069582D01*
X0277437Y0077082D01*
X0268687Y0077082D01*
X0265764Y0081256D01*
X0265764Y0082082D01*
X0244268Y0086413D02*
X0244110Y0086413D01*
X0229937Y0074582D02*
X0274937Y0074582D01*
X0229937Y0074582D02*
X0224937Y0069582D01*
X0217437Y0069582D01*
X0197437Y0069582D02*
X0197437Y0074582D01*
X0192437Y0079582D01*
X0317378Y0044740D02*
X0317437Y0044582D01*
X0479937Y0084582D02*
X0492437Y0084582D01*
X0493937Y0086082D01*
D22*
X0334937Y0054582D03*
X0354937Y0052082D03*
X0324937Y0037082D03*
X0257437Y0037082D03*
X0259937Y0064582D03*
M02*
