G75*
%MOIN*%
%OFA0B0*%
%FSLAX25Y25*%
%IPPOS*%
%LPD*%
%AMOC8*
5,1,8,0,0,1.08239X$1,22.5*
%
%ADD10C,0.00100*%
%ADD11C,0.00300*%
%ADD12C,0.00400*%
%ADD13C,0.00800*%
%ADD14R,0.01824X0.00076*%
%ADD15R,0.01216X0.00076*%
%ADD16R,0.03116X0.00076*%
%ADD17R,0.02052X0.00076*%
%ADD18R,0.03952X0.00076*%
%ADD19R,0.02584X0.00076*%
%ADD20R,0.01292X0.00076*%
%ADD21R,0.01368X0.00076*%
%ADD22R,0.04560X0.00076*%
%ADD23R,0.03040X0.00076*%
%ADD24R,0.02204X0.00076*%
%ADD25R,0.02280X0.00076*%
%ADD26R,0.05092X0.00076*%
%ADD27R,0.03420X0.00076*%
%ADD28R,0.02736X0.00076*%
%ADD29R,0.02964X0.00076*%
%ADD30R,0.05548X0.00076*%
%ADD31R,0.03724X0.00076*%
%ADD32R,0.03192X0.00076*%
%ADD33R,0.03420X0.00076*%
%ADD34R,0.05016X0.00076*%
%ADD35R,0.04104X0.00076*%
%ADD36R,0.05928X0.00076*%
%ADD37R,0.04028X0.00076*%
%ADD38R,0.04408X0.00076*%
%ADD39R,0.03572X0.00076*%
%ADD40R,0.04484X0.00076*%
%ADD41R,0.04788X0.00076*%
%ADD42R,0.03876X0.00076*%
%ADD43R,0.05016X0.00076*%
%ADD44R,0.05016X0.00076*%
%ADD45R,0.04104X0.00076*%
%ADD46R,0.06308X0.00076*%
%ADD47R,0.04332X0.00076*%
%ADD48R,0.04408X0.00076*%
%ADD49R,0.03876X0.00076*%
%ADD50R,0.04484X0.00076*%
%ADD51R,0.04788X0.00076*%
%ADD52R,0.04256X0.00076*%
%ADD53R,0.04940X0.00076*%
%ADD54R,0.06688X0.00076*%
%ADD55R,0.04636X0.00076*%
%ADD56R,0.04180X0.00076*%
%ADD57R,0.04256X0.00076*%
%ADD58R,0.06916X0.00076*%
%ADD59R,0.04484X0.00076*%
%ADD60R,0.04864X0.00076*%
%ADD61R,0.04940X0.00076*%
%ADD62R,0.07220X0.00076*%
%ADD63R,0.04712X0.00076*%
%ADD64R,0.07448X0.00076*%
%ADD65R,0.05244X0.00076*%
%ADD66R,0.04864X0.00076*%
%ADD67R,0.05396X0.00076*%
%ADD68R,0.07752X0.00076*%
%ADD69R,0.05092X0.00076*%
%ADD70R,0.04864X0.00076*%
%ADD71R,0.07904X0.00076*%
%ADD72R,0.05548X0.00076*%
%ADD73R,0.05320X0.00076*%
%ADD74R,0.05852X0.00076*%
%ADD75R,0.04864X0.00076*%
%ADD76R,0.08132X0.00076*%
%ADD77R,0.05776X0.00076*%
%ADD78R,0.05472X0.00076*%
%ADD79R,0.06080X0.00076*%
%ADD80R,0.08360X0.00076*%
%ADD81R,0.05928X0.00076*%
%ADD82R,0.05548X0.00076*%
%ADD83R,0.06232X0.00076*%
%ADD84R,0.08512X0.00076*%
%ADD85R,0.06080X0.00076*%
%ADD86R,0.05776X0.00076*%
%ADD87R,0.06460X0.00076*%
%ADD88R,0.08664X0.00076*%
%ADD89R,0.06612X0.00076*%
%ADD90R,0.04560X0.00076*%
%ADD91R,0.08816X0.00076*%
%ADD92R,0.06384X0.00076*%
%ADD93R,0.06080X0.00076*%
%ADD94R,0.06764X0.00076*%
%ADD95R,0.08968X0.00076*%
%ADD96R,0.06460X0.00076*%
%ADD97R,0.06916X0.00076*%
%ADD98R,0.04560X0.00076*%
%ADD99R,0.09120X0.00076*%
%ADD100R,0.06536X0.00076*%
%ADD101R,0.06308X0.00076*%
%ADD102R,0.07144X0.00076*%
%ADD103R,0.09272X0.00076*%
%ADD104R,0.06688X0.00076*%
%ADD105R,0.07296X0.00076*%
%ADD106R,0.09424X0.00076*%
%ADD107R,0.06840X0.00076*%
%ADD108R,0.06536X0.00076*%
%ADD109R,0.07372X0.00076*%
%ADD110R,0.04712X0.00076*%
%ADD111R,0.09576X0.00076*%
%ADD112R,0.06916X0.00076*%
%ADD113R,0.06612X0.00076*%
%ADD114R,0.07524X0.00076*%
%ADD115R,0.09728X0.00076*%
%ADD116R,0.06992X0.00076*%
%ADD117R,0.07676X0.00076*%
%ADD118R,0.09804X0.00076*%
%ADD119R,0.07144X0.00076*%
%ADD120R,0.07828X0.00076*%
%ADD121R,0.09880X0.00076*%
%ADD122R,0.07220X0.00076*%
%ADD123R,0.06992X0.00076*%
%ADD124R,0.12768X0.00076*%
%ADD125R,0.10032X0.00076*%
%ADD126R,0.07372X0.00076*%
%ADD127R,0.07068X0.00076*%
%ADD128R,0.12844X0.00076*%
%ADD129R,0.10108X0.00076*%
%ADD130R,0.07144X0.00076*%
%ADD131R,0.12844X0.00076*%
%ADD132R,0.10184X0.00076*%
%ADD133R,0.07448X0.00076*%
%ADD134R,0.12920X0.00076*%
%ADD135R,0.10336X0.00076*%
%ADD136R,0.07524X0.00076*%
%ADD137R,0.10336X0.00076*%
%ADD138R,0.12008X0.00076*%
%ADD139R,0.07372X0.00076*%
%ADD140R,0.12996X0.00076*%
%ADD141R,0.10488X0.00076*%
%ADD142R,0.12084X0.00076*%
%ADD143R,0.12920X0.00076*%
%ADD144R,0.05016X0.00076*%
%ADD145R,0.10564X0.00076*%
%ADD146R,0.12996X0.00076*%
%ADD147R,0.10640X0.00076*%
%ADD148R,0.12084X0.00076*%
%ADD149R,0.10716X0.00076*%
%ADD150R,0.12160X0.00076*%
%ADD151R,0.13072X0.00076*%
%ADD152R,0.10792X0.00076*%
%ADD153R,0.05168X0.00076*%
%ADD154R,0.10868X0.00076*%
%ADD155R,0.12160X0.00076*%
%ADD156R,0.13148X0.00076*%
%ADD157R,0.05168X0.00076*%
%ADD158R,0.10944X0.00076*%
%ADD159R,0.12236X0.00076*%
%ADD160R,0.12160X0.00076*%
%ADD161R,0.13148X0.00076*%
%ADD162R,0.10944X0.00076*%
%ADD163R,0.12236X0.00076*%
%ADD164R,0.11096X0.00076*%
%ADD165R,0.13224X0.00076*%
%ADD166R,0.11096X0.00076*%
%ADD167R,0.12312X0.00076*%
%ADD168R,0.13224X0.00076*%
%ADD169R,0.05320X0.00076*%
%ADD170R,0.11172X0.00076*%
%ADD171R,0.12312X0.00076*%
%ADD172R,0.11248X0.00076*%
%ADD173R,0.13300X0.00076*%
%ADD174R,0.11400X0.00076*%
%ADD175R,0.13224X0.00076*%
%ADD176R,0.11400X0.00076*%
%ADD177R,0.12388X0.00076*%
%ADD178R,0.13224X0.00076*%
%ADD179R,0.05472X0.00076*%
%ADD180R,0.05244X0.00076*%
%ADD181R,0.05244X0.00076*%
%ADD182R,0.12388X0.00076*%
%ADD183R,0.13300X0.00076*%
%ADD184R,0.05624X0.00076*%
%ADD185R,0.05624X0.00076*%
%ADD186R,0.06004X0.00076*%
%ADD187R,0.05396X0.00076*%
%ADD188R,0.05624X0.00076*%
%ADD189R,0.06156X0.00076*%
%ADD190R,0.05852X0.00076*%
%ADD191R,0.04788X0.00076*%
%ADD192R,0.05472X0.00076*%
%ADD193R,0.05396X0.00076*%
%ADD194R,0.05168X0.00076*%
%ADD195R,0.05700X0.00076*%
%ADD196R,0.04788X0.00076*%
%ADD197R,0.05168X0.00076*%
%ADD198R,0.05624X0.00076*%
%ADD199R,0.05776X0.00076*%
%ADD200R,0.05244X0.00076*%
%ADD201R,0.04712X0.00076*%
%ADD202R,0.05320X0.00076*%
%ADD203R,0.04712X0.00076*%
%ADD204R,0.05092X0.00076*%
%ADD205R,0.05092X0.00076*%
%ADD206R,0.06232X0.00076*%
%ADD207R,0.06232X0.00076*%
%ADD208R,0.06384X0.00076*%
%ADD209R,0.06688X0.00076*%
%ADD210R,0.06840X0.00076*%
%ADD211R,0.06840X0.00076*%
%ADD212R,0.04940X0.00076*%
%ADD213R,0.06992X0.00076*%
%ADD214R,0.05396X0.00076*%
%ADD215R,0.07296X0.00076*%
%ADD216R,0.07296X0.00076*%
%ADD217R,0.05700X0.00076*%
%ADD218R,0.06004X0.00076*%
%ADD219R,0.03648X0.00076*%
%ADD220R,0.03648X0.00076*%
%ADD221R,0.06688X0.00076*%
%ADD222R,0.11856X0.00076*%
%ADD223R,0.11780X0.00076*%
%ADD224R,0.03724X0.00076*%
%ADD225R,0.11628X0.00076*%
%ADD226R,0.11552X0.00076*%
%ADD227R,0.11476X0.00076*%
%ADD228R,0.03648X0.00076*%
%ADD229R,0.03724X0.00076*%
%ADD230R,0.11248X0.00076*%
%ADD231R,0.03724X0.00076*%
%ADD232R,0.11020X0.00076*%
%ADD233R,0.03800X0.00076*%
%ADD234R,0.10412X0.00076*%
%ADD235R,0.10260X0.00076*%
%ADD236R,0.09956X0.00076*%
%ADD237R,0.03800X0.00076*%
%ADD238R,0.09804X0.00076*%
%ADD239R,0.09652X0.00076*%
%ADD240R,0.09500X0.00076*%
%ADD241R,0.09272X0.00076*%
%ADD242R,0.09120X0.00076*%
%ADD243R,0.08892X0.00076*%
%ADD244R,0.08284X0.00076*%
%ADD245R,0.08056X0.00076*%
%ADD246R,0.07828X0.00076*%
%ADD247R,0.03876X0.00076*%
%ADD248R,0.03876X0.00076*%
%ADD249R,0.06384X0.00076*%
%ADD250R,0.06156X0.00076*%
%ADD251R,0.03952X0.00076*%
%ADD252R,0.03952X0.00076*%
%ADD253R,0.04940X0.00076*%
%ADD254R,0.05776X0.00076*%
%ADD255R,0.00228X0.00076*%
%ADD256R,0.06384X0.00076*%
%ADD257R,0.00760X0.00076*%
%ADD258R,0.04028X0.00076*%
%ADD259R,0.03952X0.00076*%
%ADD260R,0.08284X0.00076*%
%ADD261R,0.04028X0.00076*%
%ADD262R,0.04028X0.00076*%
%ADD263R,0.04636X0.00076*%
%ADD264R,0.05548X0.00076*%
%ADD265R,0.05852X0.00076*%
%ADD266R,0.05320X0.00076*%
%ADD267R,0.12160X0.00076*%
%ADD268R,0.11324X0.00076*%
%ADD269R,0.11172X0.00076*%
%ADD270R,0.12008X0.00076*%
%ADD271R,0.12084X0.00076*%
%ADD272R,0.12008X0.00076*%
%ADD273R,0.11932X0.00076*%
%ADD274R,0.11932X0.00076*%
%ADD275R,0.11856X0.00076*%
%ADD276R,0.10640X0.00076*%
%ADD277R,0.11856X0.00076*%
%ADD278R,0.11628X0.00076*%
%ADD279R,0.11552X0.00076*%
%ADD280R,0.03496X0.00076*%
%ADD281R,0.10108X0.00076*%
%ADD282R,0.11780X0.00076*%
%ADD283R,0.11248X0.00076*%
%ADD284R,0.03420X0.00076*%
%ADD285R,0.10032X0.00076*%
%ADD286R,0.11704X0.00076*%
%ADD287R,0.03344X0.00076*%
%ADD288R,0.03268X0.00076*%
%ADD289R,0.06764X0.00076*%
%ADD290R,0.09728X0.00076*%
%ADD291R,0.10792X0.00076*%
%ADD292R,0.03116X0.00076*%
%ADD293R,0.09576X0.00076*%
%ADD294R,0.10412X0.00076*%
%ADD295R,0.02964X0.00076*%
%ADD296R,0.09120X0.00076*%
%ADD297R,0.02888X0.00076*%
%ADD298R,0.02812X0.00076*%
%ADD299R,0.09880X0.00076*%
%ADD300R,0.04560X0.00076*%
%ADD301R,0.08664X0.00076*%
%ADD302R,0.02660X0.00076*%
%ADD303R,0.08512X0.00076*%
%ADD304R,0.02584X0.00076*%
%ADD305R,0.09348X0.00076*%
%ADD306R,0.02432X0.00076*%
%ADD307R,0.08056X0.00076*%
%ADD308R,0.09120X0.00076*%
%ADD309R,0.02356X0.00076*%
%ADD310R,0.07904X0.00076*%
%ADD311R,0.08588X0.00076*%
%ADD312R,0.02128X0.00076*%
%ADD313R,0.08436X0.00076*%
%ADD314R,0.08132X0.00076*%
%ADD315R,0.01900X0.00076*%
%ADD316R,0.06916X0.00076*%
%ADD317R,0.07828X0.00076*%
%ADD318R,0.01824X0.00076*%
%ADD319R,0.01672X0.00076*%
%ADD320R,0.04104X0.00076*%
%ADD321R,0.07068X0.00076*%
%ADD322R,0.01520X0.00076*%
%ADD323R,0.01368X0.00076*%
%ADD324R,0.03496X0.00076*%
%ADD325R,0.01140X0.00076*%
%ADD326R,0.03192X0.00076*%
%ADD327R,0.00912X0.00076*%
%ADD328R,0.02660X0.00076*%
%ADD329R,0.00684X0.00076*%
%ADD330R,0.02128X0.00076*%
%ADD331R,0.04408X0.00076*%
%ADD332R,0.00304X0.00076*%
%ADD333R,0.08588X0.00076*%
%ADD334R,0.08512X0.00076*%
%ADD335R,0.01292X0.00076*%
%ADD336R,0.08588X0.00076*%
%ADD337R,0.08512X0.00076*%
%ADD338R,0.08436X0.00076*%
%ADD339R,0.08360X0.00076*%
%ADD340R,0.08284X0.00076*%
%ADD341R,0.08284X0.00076*%
%ADD342R,0.08208X0.00076*%
%ADD343R,0.08208X0.00076*%
%ADD344R,0.01976X0.00076*%
%ADD345R,0.07980X0.00076*%
%ADD346R,0.07980X0.00076*%
%ADD347R,0.07752X0.00076*%
%ADD348R,0.08740X0.00076*%
%ADD349R,0.09196X0.00076*%
%ADD350R,0.09348X0.00076*%
%ADD351R,0.09652X0.00076*%
%ADD352R,0.09804X0.00076*%
%ADD353R,0.09956X0.00076*%
%ADD354R,0.07752X0.00076*%
%ADD355R,0.10336X0.00076*%
%ADD356R,0.10792X0.00076*%
%ADD357R,0.07676X0.00076*%
%ADD358R,0.10868X0.00076*%
%ADD359R,0.10944X0.00076*%
%ADD360R,0.07600X0.00076*%
%ADD361R,0.11324X0.00076*%
%ADD362R,0.07600X0.00076*%
%ADD363R,0.11476X0.00076*%
%ADD364R,0.11704X0.00076*%
%ADD365R,0.11780X0.00076*%
%ADD366R,0.07448X0.00076*%
%ADD367R,0.05472X0.00076*%
%ADD368R,0.01064X0.00076*%
%ADD369R,0.01976X0.00076*%
%ADD370R,0.02888X0.00076*%
%ADD371R,0.03268X0.00076*%
%ADD372R,0.03572X0.00076*%
%ADD373R,0.04180X0.00076*%
%ADD374R,0.04332X0.00076*%
%ADD375R,0.05852X0.00076*%
%ADD376R,0.06612X0.00076*%
%ADD377R,0.11552X0.00076*%
%ADD378R,0.11704X0.00076*%
%ADD379R,0.11780X0.00076*%
%ADD380R,0.11856X0.00076*%
%ADD381R,0.12008X0.00076*%
%ADD382R,0.12236X0.00076*%
%ADD383R,0.12236X0.00076*%
%ADD384R,0.12312X0.00076*%
%ADD385R,0.12312X0.00076*%
%ADD386R,0.12388X0.00076*%
%ADD387R,0.06004X0.00076*%
%ADD388R,0.12388X0.00076*%
%ADD389R,0.12084X0.00076*%
%ADD390R,0.07372X0.00076*%
%ADD391R,0.07524X0.00076*%
%ADD392R,0.07296X0.00076*%
%ADD393R,0.06992X0.00076*%
%ADD394R,0.06612X0.00076*%
%ADD395R,0.06156X0.00076*%
%ADD396R,0.06232X0.00076*%
%ADD397R,0.04180X0.00076*%
%ADD398R,0.04104X0.00076*%
%ADD399R,0.02736X0.00076*%
%ADD400R,0.02888X0.00076*%
%ADD401R,0.02204X0.00076*%
%ADD402R,0.02508X0.00076*%
%ADD403R,0.01292X0.00076*%
%ADD404R,0.01900X0.00076*%
%ADD405R,0.01140X0.00076*%
%ADD406R,0.14136X0.00076*%
%ADD407R,0.14136X0.00076*%
%ADD408R,0.02204X0.00076*%
%ADD409R,0.03572X0.00076*%
%ADD410R,0.07220X0.00076*%
%ADD411R,0.08816X0.00076*%
%ADD412R,0.09044X0.00076*%
%ADD413R,0.06460X0.00076*%
%ADD414R,0.06764X0.00076*%
%ADD415R,0.10260X0.00076*%
%ADD416R,0.10184X0.00076*%
%ADD417R,0.10184X0.00076*%
%ADD418R,0.10412X0.00076*%
%ADD419R,0.10564X0.00076*%
%ADD420R,0.10488X0.00076*%
%ADD421R,0.11020X0.00076*%
%ADD422R,0.11020X0.00076*%
%ADD423R,0.11172X0.00076*%
%ADD424R,0.11324X0.00076*%
%ADD425R,0.11248X0.00076*%
%ADD426R,0.06156X0.00076*%
%ADD427R,0.05928X0.00076*%
%ADD428R,0.04484X0.00076*%
%ADD429R,0.04256X0.00076*%
%ADD430R,0.04408X0.00076*%
%ADD431R,0.04256X0.00076*%
%ADD432R,0.07144X0.00076*%
%ADD433R,0.07524X0.00076*%
%ADD434R,0.07752X0.00076*%
%ADD435R,0.08892X0.00076*%
%ADD436R,0.08816X0.00076*%
%ADD437R,0.08740X0.00076*%
%ADD438R,0.08664X0.00076*%
%ADD439R,0.07980X0.00076*%
%ADD440R,0.06536X0.00076*%
%ADD441R,0.06080X0.00076*%
%ADD442R,0.04180X0.00076*%
%ADD443R,0.04332X0.00076*%
%ADD444R,0.04332X0.00076*%
%ADD445R,0.04636X0.00076*%
%ADD446R,0.10944X0.00076*%
%ADD447R,0.10336X0.00076*%
%ADD448R,0.09728X0.00076*%
%ADD449R,0.09652X0.00076*%
%ADD450R,0.09044X0.00076*%
%ADD451R,0.08208X0.00076*%
%ADD452R,0.07980X0.00076*%
D10*
X0079937Y0048067D02*
X0501197Y0048067D01*
X0501197Y0122870D01*
X0079937Y0122870D01*
X0079937Y0048067D01*
D11*
X0130055Y0070717D02*
X0131906Y0071951D01*
X0130055Y0073186D01*
X0131906Y0074420D02*
X0131906Y0070717D01*
X0133121Y0070717D02*
X0133121Y0073186D01*
X0135589Y0073186D02*
X0135589Y0071334D01*
X0134972Y0070717D01*
X0133121Y0070717D01*
X0136814Y0070717D02*
X0137431Y0070717D01*
X0137431Y0071334D01*
X0136814Y0071334D01*
X0136814Y0070717D01*
X0138645Y0071334D02*
X0138645Y0072569D01*
X0139262Y0073186D01*
X0140497Y0073186D01*
X0141114Y0072569D01*
X0141114Y0071334D01*
X0140497Y0070717D01*
X0139262Y0070717D01*
X0138645Y0071334D01*
X0142328Y0070717D02*
X0144180Y0070717D01*
X0144797Y0071334D01*
X0144797Y0072569D01*
X0144180Y0073186D01*
X0142328Y0073186D01*
X0146022Y0071334D02*
X0146022Y0070717D01*
X0146639Y0070717D01*
X0146639Y0071334D01*
X0146022Y0071334D01*
X0147853Y0070717D02*
X0149705Y0070717D01*
X0150322Y0071334D01*
X0150322Y0072569D01*
X0149705Y0073186D01*
X0147853Y0073186D01*
X0147853Y0070100D01*
X0148470Y0069483D01*
X0149087Y0069483D01*
X0151536Y0070717D02*
X0151536Y0072569D01*
X0152153Y0073186D01*
X0154005Y0073186D01*
X0154005Y0070717D01*
X0155226Y0070717D02*
X0156460Y0070717D01*
X0155843Y0070717D02*
X0155843Y0073186D01*
X0156460Y0073186D01*
X0157675Y0072569D02*
X0157675Y0070717D01*
X0160144Y0070717D02*
X0160144Y0074420D01*
X0159526Y0073186D02*
X0158292Y0073186D01*
X0157675Y0072569D01*
X0159526Y0073186D02*
X0160144Y0072569D01*
X0161365Y0073186D02*
X0162599Y0073186D01*
X0161982Y0073803D02*
X0161982Y0071334D01*
X0161365Y0070717D01*
X0163813Y0070717D02*
X0165665Y0070717D01*
X0166282Y0071334D01*
X0166282Y0072569D01*
X0165665Y0073186D01*
X0163813Y0073186D01*
X0168120Y0073186D02*
X0168120Y0070717D01*
X0167503Y0070717D02*
X0168738Y0070717D01*
X0169952Y0071334D02*
X0170569Y0070717D01*
X0172421Y0070717D01*
X0173635Y0070717D02*
X0173635Y0073186D01*
X0172421Y0072569D02*
X0171804Y0073186D01*
X0169952Y0073186D01*
X0168738Y0073186D02*
X0168120Y0073186D01*
X0168120Y0074420D02*
X0168120Y0075037D01*
X0168738Y0076717D02*
X0168738Y0079186D01*
X0168738Y0077951D02*
X0167503Y0079186D01*
X0166886Y0079186D01*
X0165668Y0079186D02*
X0165668Y0077334D01*
X0165051Y0076717D01*
X0163200Y0076717D01*
X0163200Y0079186D01*
X0161368Y0079186D02*
X0160134Y0079186D01*
X0159516Y0078569D01*
X0159516Y0076717D01*
X0161368Y0076717D01*
X0161985Y0077334D01*
X0161368Y0077951D01*
X0159516Y0077951D01*
X0158302Y0077951D02*
X0157068Y0079186D01*
X0156450Y0079186D01*
X0155233Y0079186D02*
X0155233Y0077334D01*
X0154616Y0076717D01*
X0152764Y0076717D01*
X0152764Y0076100D02*
X0153381Y0075483D01*
X0153998Y0075483D01*
X0152764Y0076100D02*
X0152764Y0079186D01*
X0149087Y0081483D02*
X0148470Y0081483D01*
X0147853Y0082100D01*
X0147853Y0085186D01*
X0150322Y0085186D02*
X0150322Y0083334D01*
X0149705Y0082717D01*
X0147853Y0082717D01*
X0151536Y0083334D02*
X0151536Y0084569D01*
X0152153Y0085186D01*
X0154005Y0085186D01*
X0154005Y0086420D02*
X0154005Y0082717D01*
X0152153Y0082717D01*
X0151536Y0083334D01*
X0158903Y0082717D02*
X0158903Y0084569D01*
X0159520Y0085186D01*
X0161371Y0085186D01*
X0161371Y0082717D01*
X0162586Y0083334D02*
X0162586Y0084569D01*
X0163203Y0085186D01*
X0164437Y0085186D01*
X0165054Y0084569D01*
X0165054Y0083334D01*
X0164437Y0082717D01*
X0163203Y0082717D01*
X0162586Y0083334D01*
X0166269Y0082717D02*
X0168120Y0082717D01*
X0168738Y0083334D01*
X0168738Y0084569D01*
X0168120Y0085186D01*
X0166269Y0085186D01*
X0166269Y0086420D02*
X0166269Y0082717D01*
X0169952Y0082717D02*
X0169952Y0084569D01*
X0170569Y0085186D01*
X0172421Y0085186D01*
X0172421Y0082717D01*
X0173635Y0083334D02*
X0173635Y0084569D01*
X0174252Y0085186D01*
X0175487Y0085186D01*
X0176104Y0084569D01*
X0176104Y0083334D01*
X0175487Y0082717D01*
X0174252Y0082717D01*
X0173635Y0083334D01*
X0177318Y0082717D02*
X0179787Y0082717D01*
X0179787Y0086420D01*
X0179787Y0088717D02*
X0177935Y0088717D01*
X0177318Y0089334D01*
X0177318Y0091803D01*
X0177935Y0092420D01*
X0179787Y0092420D01*
X0179787Y0088717D01*
X0176104Y0089334D02*
X0176104Y0090569D01*
X0175487Y0091186D01*
X0174252Y0091186D01*
X0173635Y0090569D01*
X0173635Y0089951D01*
X0176104Y0089951D01*
X0176104Y0089334D02*
X0175487Y0088717D01*
X0174252Y0088717D01*
X0172421Y0088717D02*
X0170569Y0088717D01*
X0169952Y0089334D01*
X0170569Y0089951D01*
X0171804Y0089951D01*
X0172421Y0090569D01*
X0171804Y0091186D01*
X0169952Y0091186D01*
X0168738Y0091186D02*
X0168120Y0091186D01*
X0168120Y0088717D01*
X0167503Y0088717D02*
X0168738Y0088717D01*
X0166282Y0089334D02*
X0165665Y0088717D01*
X0163813Y0088717D01*
X0163813Y0088100D02*
X0163813Y0091186D01*
X0165665Y0091186D01*
X0166282Y0090569D01*
X0166282Y0089334D01*
X0165048Y0087483D02*
X0164431Y0087483D01*
X0163813Y0088100D01*
X0162599Y0088717D02*
X0162599Y0091186D01*
X0160747Y0091186D01*
X0160130Y0090569D01*
X0160130Y0088717D01*
X0158916Y0089334D02*
X0158299Y0088717D01*
X0157064Y0088717D01*
X0156447Y0089951D02*
X0158916Y0089951D01*
X0158916Y0089334D02*
X0158916Y0090569D01*
X0158299Y0091186D01*
X0157064Y0091186D01*
X0156447Y0090569D01*
X0156447Y0089951D01*
X0155233Y0089334D02*
X0155233Y0090569D01*
X0154616Y0091186D01*
X0152764Y0091186D01*
X0152764Y0092420D02*
X0152764Y0088717D01*
X0154616Y0088717D01*
X0155233Y0089334D01*
X0147866Y0088717D02*
X0146632Y0088717D01*
X0147249Y0088717D02*
X0147249Y0091186D01*
X0147866Y0091186D01*
X0147249Y0092420D02*
X0147249Y0093037D01*
X0147249Y0094717D02*
X0147249Y0097186D01*
X0147866Y0097186D01*
X0149081Y0097186D02*
X0150932Y0097186D01*
X0151550Y0096569D01*
X0150932Y0095951D01*
X0149698Y0095951D01*
X0149081Y0095334D01*
X0149698Y0094717D01*
X0151550Y0094717D01*
X0152764Y0094717D02*
X0152764Y0097186D01*
X0155233Y0097186D02*
X0155233Y0095334D01*
X0154616Y0094717D01*
X0152764Y0094717D01*
X0156447Y0094717D02*
X0156447Y0098420D01*
X0157681Y0097186D01*
X0158916Y0098420D01*
X0158916Y0094717D01*
X0163813Y0095334D02*
X0163813Y0096569D01*
X0164431Y0097186D01*
X0165665Y0097186D01*
X0166282Y0096569D01*
X0166282Y0095334D01*
X0165665Y0094717D01*
X0164431Y0094717D01*
X0163813Y0095334D01*
X0167503Y0094717D02*
X0168738Y0094717D01*
X0168120Y0094717D02*
X0168120Y0097186D01*
X0168738Y0097186D01*
X0169952Y0097186D02*
X0171804Y0097186D01*
X0172421Y0096569D01*
X0172421Y0095334D01*
X0171804Y0094717D01*
X0169952Y0094717D01*
X0169952Y0098420D01*
X0168120Y0098420D02*
X0168120Y0099037D01*
X0173635Y0096569D02*
X0173635Y0094717D01*
X0175487Y0094717D01*
X0176104Y0095334D01*
X0175487Y0095951D01*
X0173635Y0095951D01*
X0173635Y0096569D02*
X0174252Y0097186D01*
X0175487Y0097186D01*
X0177318Y0097803D02*
X0177318Y0096569D01*
X0177935Y0095951D01*
X0179787Y0095951D01*
X0179787Y0094717D02*
X0179787Y0098420D01*
X0177935Y0098420D01*
X0177318Y0097803D01*
X0178553Y0095951D02*
X0177318Y0094717D01*
X0168120Y0093037D02*
X0168120Y0092420D01*
X0147866Y0094717D02*
X0146632Y0094717D01*
X0145411Y0095334D02*
X0144794Y0094717D01*
X0142942Y0094717D01*
X0142942Y0097186D02*
X0144794Y0097186D01*
X0145411Y0096569D01*
X0145411Y0095334D01*
X0147249Y0098420D02*
X0147249Y0099037D01*
X0138045Y0098420D02*
X0135576Y0098420D01*
X0134362Y0097186D02*
X0134362Y0094717D01*
X0134362Y0095951D02*
X0133127Y0097186D01*
X0132510Y0097186D01*
X0131292Y0096569D02*
X0131292Y0095334D01*
X0130675Y0094717D01*
X0129441Y0094717D01*
X0128824Y0095334D01*
X0128824Y0096569D01*
X0129441Y0097186D01*
X0130675Y0097186D01*
X0131292Y0096569D01*
X0127609Y0097186D02*
X0125758Y0097186D01*
X0125140Y0096569D01*
X0125140Y0094717D01*
X0123309Y0095334D02*
X0122692Y0094717D01*
X0123309Y0095334D02*
X0123309Y0097803D01*
X0123926Y0097186D02*
X0122692Y0097186D01*
X0127609Y0097186D02*
X0127609Y0094717D01*
X0135576Y0092420D02*
X0135576Y0088717D01*
X0134362Y0089334D02*
X0133744Y0088717D01*
X0132510Y0088717D01*
X0131893Y0089951D02*
X0134362Y0089951D01*
X0134362Y0089334D02*
X0134362Y0090569D01*
X0133744Y0091186D01*
X0132510Y0091186D01*
X0131893Y0090569D01*
X0131893Y0089951D01*
X0130678Y0089951D02*
X0129444Y0091186D01*
X0128827Y0091186D01*
X0127609Y0091186D02*
X0125758Y0091186D01*
X0125140Y0090569D01*
X0125140Y0088717D01*
X0123926Y0089334D02*
X0123309Y0088717D01*
X0122074Y0088717D01*
X0121457Y0089951D02*
X0123926Y0089951D01*
X0123926Y0089334D02*
X0123926Y0090569D01*
X0123309Y0091186D01*
X0122074Y0091186D01*
X0121457Y0090569D01*
X0121457Y0089951D01*
X0116560Y0090569D02*
X0114091Y0090569D01*
X0112877Y0091186D02*
X0112259Y0091186D01*
X0112259Y0088717D01*
X0111642Y0088717D02*
X0112877Y0088717D01*
X0114091Y0088717D02*
X0114091Y0092420D01*
X0112259Y0092420D02*
X0112259Y0093037D01*
X0112253Y0094717D02*
X0111636Y0095334D01*
X0112253Y0094717D02*
X0113487Y0094717D01*
X0114104Y0095334D01*
X0114104Y0097803D01*
X0113487Y0098420D01*
X0112253Y0098420D01*
X0111636Y0097803D01*
X0110421Y0098420D02*
X0108570Y0098420D01*
X0107952Y0097803D01*
X0107952Y0097186D01*
X0108570Y0096569D01*
X0110421Y0096569D01*
X0110421Y0098420D02*
X0110421Y0094717D01*
X0108570Y0094717D01*
X0107952Y0095334D01*
X0107952Y0095951D01*
X0108570Y0096569D01*
X0103055Y0097186D02*
X0103055Y0094717D01*
X0103055Y0095951D02*
X0101820Y0097186D01*
X0101203Y0097186D01*
X0099986Y0096569D02*
X0099368Y0097186D01*
X0098134Y0097186D01*
X0097517Y0096569D01*
X0097517Y0095951D01*
X0099986Y0095951D01*
X0099986Y0095334D02*
X0099986Y0096569D01*
X0099986Y0095334D02*
X0099368Y0094717D01*
X0098134Y0094717D01*
X0095068Y0094717D02*
X0093834Y0097186D01*
X0096302Y0097186D02*
X0095068Y0094717D01*
X0088936Y0094717D02*
X0086467Y0097186D01*
X0086467Y0097803D01*
X0087085Y0098420D01*
X0088319Y0098420D01*
X0088936Y0097803D01*
X0083411Y0097186D02*
X0082177Y0098420D01*
X0082177Y0094717D01*
X0083411Y0094717D02*
X0080943Y0094717D01*
X0084636Y0094717D02*
X0085253Y0094717D01*
X0085253Y0095334D01*
X0084636Y0095334D01*
X0084636Y0094717D01*
X0086467Y0094717D02*
X0088936Y0094717D01*
X0104276Y0089334D02*
X0104893Y0089334D01*
X0104893Y0088717D01*
X0104276Y0088717D01*
X0104276Y0089334D01*
X0104276Y0088717D02*
X0105510Y0087483D01*
X0105507Y0086420D02*
X0105507Y0082717D01*
X0106124Y0082717D02*
X0104890Y0082717D01*
X0107345Y0082717D02*
X0108580Y0082717D01*
X0107962Y0082717D02*
X0107962Y0086420D01*
X0108580Y0086420D01*
X0110411Y0085186D02*
X0109794Y0084569D01*
X0109794Y0083951D01*
X0112263Y0083951D01*
X0112263Y0083334D02*
X0112263Y0084569D01*
X0111646Y0085186D01*
X0110411Y0085186D01*
X0110411Y0082717D02*
X0111646Y0082717D01*
X0112263Y0083334D01*
X0113477Y0083334D02*
X0113477Y0085186D01*
X0113477Y0083334D02*
X0114094Y0082717D01*
X0114711Y0083334D01*
X0115329Y0082717D01*
X0115946Y0083334D01*
X0115946Y0085186D01*
X0117167Y0085186D02*
X0118401Y0085186D01*
X0117784Y0085803D02*
X0117784Y0083334D01*
X0117167Y0082717D01*
X0119622Y0082717D02*
X0120857Y0082717D01*
X0120240Y0082717D02*
X0120240Y0085186D01*
X0120857Y0085186D01*
X0122071Y0084569D02*
X0122071Y0082717D01*
X0122071Y0084569D02*
X0122688Y0085186D01*
X0123923Y0085186D01*
X0124540Y0084569D01*
X0124540Y0086420D02*
X0124540Y0082717D01*
X0125754Y0082717D02*
X0125754Y0086420D01*
X0128223Y0086420D02*
X0128223Y0082717D01*
X0126989Y0083951D01*
X0125754Y0082717D01*
X0125150Y0080420D02*
X0125768Y0079803D01*
X0125768Y0077334D01*
X0125150Y0076717D01*
X0123916Y0076717D01*
X0123299Y0077334D01*
X0122084Y0078569D02*
X0119616Y0078569D01*
X0118401Y0078569D02*
X0116550Y0078569D01*
X0115933Y0077951D01*
X0115933Y0077334D01*
X0116550Y0076717D01*
X0118401Y0076717D01*
X0118401Y0080420D01*
X0116550Y0080420D01*
X0115933Y0079803D01*
X0115933Y0079186D01*
X0116550Y0078569D01*
X0114718Y0079803D02*
X0113484Y0078569D01*
X0113484Y0076717D01*
X0113484Y0078569D02*
X0112249Y0079803D01*
X0112249Y0080420D01*
X0111035Y0078569D02*
X0108566Y0078569D01*
X0107352Y0079186D02*
X0106735Y0078569D01*
X0105500Y0078569D01*
X0104883Y0077951D01*
X0104883Y0077334D01*
X0105500Y0076717D01*
X0106735Y0076717D01*
X0107352Y0077334D01*
X0103669Y0076717D02*
X0103669Y0079186D01*
X0102434Y0080420D01*
X0101200Y0079186D01*
X0101200Y0076717D01*
X0101200Y0078569D02*
X0103669Y0078569D01*
X0104883Y0079803D02*
X0105500Y0080420D01*
X0106735Y0080420D01*
X0107352Y0079803D01*
X0107352Y0079186D01*
X0114718Y0079803D02*
X0114718Y0080420D01*
X0123299Y0079803D02*
X0123916Y0080420D01*
X0125150Y0080420D01*
X0126982Y0079803D02*
X0127599Y0080420D01*
X0128834Y0080420D01*
X0129451Y0079803D01*
X0129451Y0077334D01*
X0128834Y0076717D01*
X0127599Y0076717D01*
X0126982Y0077334D01*
X0134348Y0077334D02*
X0134965Y0076717D01*
X0136200Y0076717D01*
X0136817Y0077334D01*
X0136817Y0078569D02*
X0135583Y0079186D01*
X0134965Y0079186D01*
X0134348Y0078569D01*
X0134348Y0077334D01*
X0136817Y0078569D02*
X0136817Y0080420D01*
X0134348Y0080420D01*
X0139266Y0080420D02*
X0139266Y0076717D01*
X0140500Y0076717D02*
X0138031Y0076717D01*
X0141715Y0077334D02*
X0142332Y0076717D01*
X0143566Y0076717D01*
X0144183Y0077334D01*
X0141715Y0079803D01*
X0141715Y0077334D01*
X0144183Y0077334D02*
X0144183Y0079803D01*
X0143566Y0080420D01*
X0142332Y0080420D01*
X0141715Y0079803D01*
X0140500Y0079186D02*
X0139266Y0080420D01*
X0145398Y0079803D02*
X0146015Y0080420D01*
X0147249Y0080420D01*
X0147866Y0079803D01*
X0145398Y0079803D02*
X0145398Y0079186D01*
X0147866Y0076717D01*
X0145398Y0076717D01*
X0155843Y0075037D02*
X0155843Y0074420D01*
X0158302Y0076717D02*
X0158302Y0079186D01*
X0169952Y0078569D02*
X0169952Y0077334D01*
X0170569Y0076717D01*
X0172421Y0076717D01*
X0172421Y0080420D01*
X0172421Y0079186D02*
X0170569Y0079186D01*
X0169952Y0078569D01*
X0173635Y0078569D02*
X0174252Y0079186D01*
X0175487Y0079186D01*
X0176104Y0078569D01*
X0176104Y0077334D01*
X0175487Y0076717D01*
X0174252Y0076717D01*
X0173635Y0077951D02*
X0176104Y0077951D01*
X0173635Y0077951D02*
X0173635Y0078569D01*
X0177318Y0080420D02*
X0179787Y0080420D01*
X0179787Y0076717D01*
X0179787Y0078569D02*
X0178553Y0078569D01*
X0179170Y0073186D02*
X0178553Y0072569D01*
X0177935Y0073186D01*
X0177318Y0072569D01*
X0177318Y0070717D01*
X0178553Y0070717D02*
X0178553Y0072569D01*
X0179170Y0073186D02*
X0179787Y0073186D01*
X0179787Y0070717D01*
X0176104Y0071334D02*
X0175487Y0070717D01*
X0173635Y0070717D01*
X0171804Y0071951D02*
X0170569Y0071951D01*
X0169952Y0071334D01*
X0171804Y0071951D02*
X0172421Y0072569D01*
X0176104Y0073186D02*
X0176104Y0071334D01*
X0141721Y0082717D02*
X0141721Y0086420D01*
X0140487Y0086420D02*
X0142956Y0086420D01*
X0142942Y0088717D02*
X0142942Y0090569D01*
X0143559Y0091186D01*
X0145411Y0091186D01*
X0145411Y0088717D01*
X0138045Y0088717D02*
X0138045Y0092420D01*
X0138045Y0094717D02*
X0138045Y0098420D01*
X0138045Y0096569D02*
X0136810Y0096569D01*
X0130678Y0091186D02*
X0130678Y0088717D01*
X0127609Y0088717D02*
X0127609Y0091186D01*
X0135576Y0090569D02*
X0138045Y0090569D01*
X0138655Y0085186D02*
X0137421Y0085186D01*
X0136804Y0084569D01*
X0136804Y0083334D01*
X0137421Y0082717D01*
X0138655Y0082717D01*
X0139272Y0083334D01*
X0139272Y0084569D01*
X0138655Y0085186D01*
X0135589Y0085186D02*
X0135589Y0082717D01*
X0134355Y0082717D02*
X0134355Y0084569D01*
X0133738Y0085186D01*
X0133120Y0084569D01*
X0133120Y0082717D01*
X0134355Y0084569D02*
X0134972Y0085186D01*
X0135589Y0085186D01*
X0120240Y0086420D02*
X0120240Y0087037D01*
X0116560Y0088717D02*
X0116560Y0092420D01*
X0117787Y0094717D02*
X0117787Y0098420D01*
X0115936Y0098420D01*
X0115319Y0097803D01*
X0115319Y0096569D01*
X0115936Y0095951D01*
X0117787Y0095951D01*
X0110421Y0092420D02*
X0109804Y0092420D01*
X0109804Y0088717D01*
X0110421Y0088717D02*
X0109187Y0088717D01*
X0107966Y0088717D02*
X0106731Y0088717D01*
X0107349Y0088717D02*
X0107349Y0092420D01*
X0107966Y0092420D01*
X0106124Y0086420D02*
X0105507Y0086420D01*
D12*
X0327930Y0086534D02*
X0328698Y0087302D01*
X0330232Y0087302D01*
X0331000Y0088069D01*
X0330232Y0088836D01*
X0327930Y0088836D01*
X0327930Y0086534D02*
X0328698Y0085767D01*
X0331000Y0085767D01*
X0332534Y0085767D02*
X0332534Y0088069D01*
X0333302Y0088836D01*
X0335604Y0088836D01*
X0335604Y0085767D01*
X0337138Y0085767D02*
X0338673Y0085767D01*
X0337906Y0085767D02*
X0337906Y0088836D01*
X0338673Y0088836D01*
X0340208Y0088069D02*
X0340975Y0087302D01*
X0343277Y0087302D01*
X0343277Y0085767D02*
X0343277Y0090371D01*
X0340975Y0090371D01*
X0340208Y0089604D01*
X0340208Y0088069D01*
X0337906Y0090371D02*
X0337906Y0091138D01*
X0349415Y0088836D02*
X0350183Y0088836D01*
X0351717Y0087302D01*
X0351717Y0088836D02*
X0351717Y0085767D01*
X0353252Y0087302D02*
X0356321Y0087302D01*
X0356321Y0088069D02*
X0356321Y0086534D01*
X0355554Y0085767D01*
X0354019Y0085767D01*
X0353252Y0087302D02*
X0353252Y0088069D01*
X0354019Y0088836D01*
X0355554Y0088836D01*
X0356321Y0088069D01*
X0357856Y0088836D02*
X0360158Y0088836D01*
X0360925Y0088069D01*
X0360925Y0086534D01*
X0360158Y0085767D01*
X0357856Y0085767D01*
X0357856Y0090371D01*
X0362460Y0088069D02*
X0362460Y0085767D01*
X0364762Y0085767D01*
X0365529Y0086534D01*
X0364762Y0087302D01*
X0362460Y0087302D01*
X0362460Y0088069D02*
X0363227Y0088836D01*
X0364762Y0088836D01*
X0367064Y0088069D02*
X0367064Y0087302D01*
X0370133Y0087302D01*
X0370133Y0088069D02*
X0370133Y0086534D01*
X0369366Y0085767D01*
X0367831Y0085767D01*
X0367064Y0088069D02*
X0367831Y0088836D01*
X0369366Y0088836D01*
X0370133Y0088069D01*
X0371668Y0088069D02*
X0374737Y0088069D01*
X0374737Y0085767D02*
X0374737Y0090371D01*
X0371668Y0090371D02*
X0371668Y0085767D01*
X0371668Y0082871D02*
X0374737Y0082871D01*
X0373202Y0082871D02*
X0373202Y0078267D01*
X0370133Y0078267D02*
X0370133Y0082871D01*
X0367064Y0082871D02*
X0367064Y0078267D01*
X0365529Y0078267D02*
X0363995Y0078267D01*
X0364762Y0078267D02*
X0364762Y0082871D01*
X0365529Y0082871D02*
X0363995Y0082871D01*
X0362460Y0082104D02*
X0361693Y0082871D01*
X0360158Y0082871D01*
X0359391Y0082104D01*
X0360158Y0080569D02*
X0359391Y0079802D01*
X0359391Y0079034D01*
X0360158Y0078267D01*
X0361693Y0078267D01*
X0362460Y0079034D01*
X0361693Y0080569D02*
X0360158Y0080569D01*
X0361693Y0080569D02*
X0362460Y0081336D01*
X0362460Y0082104D01*
X0367064Y0080569D02*
X0370133Y0080569D01*
X0359935Y0075367D02*
X0359935Y0072298D01*
X0359935Y0070763D02*
X0359935Y0067694D01*
X0357633Y0066159D02*
X0359935Y0063090D01*
X0362237Y0066159D01*
X0352485Y0078267D02*
X0353252Y0079034D01*
X0352485Y0078267D02*
X0350950Y0078267D01*
X0350183Y0079034D01*
X0350183Y0079802D01*
X0350950Y0080569D01*
X0352485Y0080569D01*
X0353252Y0081336D01*
X0353252Y0082104D01*
X0352485Y0082871D01*
X0350950Y0082871D01*
X0350183Y0082104D01*
X0348648Y0082871D02*
X0347113Y0082871D01*
X0347881Y0082871D02*
X0347881Y0078267D01*
X0348648Y0078267D02*
X0347113Y0078267D01*
X0345579Y0078267D02*
X0343277Y0078267D01*
X0342510Y0079034D01*
X0342510Y0082104D01*
X0343277Y0082871D01*
X0345579Y0082871D01*
X0345579Y0078267D01*
X0340975Y0078267D02*
X0337906Y0078267D01*
X0339440Y0080569D02*
X0340975Y0080569D01*
X0340975Y0082871D02*
X0340975Y0078267D01*
X0340975Y0082871D02*
X0337906Y0082871D01*
X0359939Y0093267D02*
X0359939Y0096336D01*
X0359939Y0097871D02*
X0359939Y0100940D01*
X0362241Y0102475D02*
X0359939Y0105544D01*
X0357637Y0102475D01*
D13*
X0357437Y0110567D02*
X0352437Y0110567D01*
X0349937Y0113067D01*
X0347437Y0110567D01*
X0342437Y0110567D01*
X0339937Y0113067D01*
X0337437Y0110567D01*
X0332437Y0110567D01*
X0329937Y0113067D01*
X0327437Y0110567D01*
X0322437Y0110567D01*
X0319937Y0113067D01*
X0317437Y0110567D01*
X0312437Y0110567D01*
X0309937Y0113067D01*
X0307437Y0110567D01*
X0302437Y0110567D01*
X0299937Y0113067D01*
X0299937Y0118067D01*
X0302437Y0120567D01*
X0307437Y0120567D01*
X0309937Y0118067D01*
X0312437Y0120567D01*
X0317437Y0120567D01*
X0319937Y0118067D01*
X0322437Y0120567D01*
X0327437Y0120567D01*
X0329937Y0118067D01*
X0332437Y0120567D01*
X0337437Y0120567D01*
X0339937Y0118067D01*
X0342437Y0120567D01*
X0347437Y0120567D01*
X0349937Y0118067D01*
X0352437Y0120567D01*
X0357437Y0120567D01*
X0359937Y0118067D01*
X0362437Y0120567D01*
X0367437Y0120567D01*
X0369937Y0118067D01*
X0372437Y0120567D01*
X0377437Y0120567D01*
X0379937Y0118067D01*
X0382437Y0120567D01*
X0387437Y0120567D01*
X0389937Y0118067D01*
X0392437Y0120567D01*
X0397437Y0120567D01*
X0399937Y0118067D01*
X0402437Y0120567D01*
X0407437Y0120567D01*
X0409937Y0118067D01*
X0409937Y0113067D01*
X0407437Y0110567D01*
X0402437Y0110567D01*
X0399937Y0113067D01*
X0397437Y0110567D01*
X0392437Y0110567D01*
X0389937Y0113067D01*
X0387437Y0110567D01*
X0382437Y0110567D01*
X0379937Y0113067D01*
X0377437Y0110567D01*
X0372437Y0110567D01*
X0369937Y0113067D01*
X0367437Y0110567D01*
X0362437Y0110567D01*
X0359937Y0113067D01*
X0357437Y0110567D01*
X0357437Y0058067D02*
X0359937Y0055567D01*
X0362437Y0058067D01*
X0367437Y0058067D02*
X0369937Y0055567D01*
X0369937Y0050567D02*
X0367437Y0048067D01*
X0362437Y0048067D02*
X0359937Y0050567D01*
X0357437Y0048067D01*
X0352437Y0048067D02*
X0349937Y0050567D01*
X0347437Y0048067D01*
X0342437Y0048067D02*
X0339937Y0050567D01*
X0337437Y0048067D01*
X0332437Y0048067D02*
X0329937Y0050567D01*
X0327437Y0048067D01*
X0322437Y0048067D02*
X0319937Y0050567D01*
X0317437Y0048067D01*
X0312437Y0048067D02*
X0309937Y0050567D01*
X0307437Y0048067D01*
X0302437Y0048067D02*
X0299937Y0050567D01*
X0299937Y0055567D02*
X0302437Y0058067D01*
X0307437Y0058067D02*
X0309937Y0055567D01*
X0312437Y0058067D01*
X0317437Y0058067D02*
X0319937Y0055567D01*
X0322437Y0058067D01*
X0327437Y0058067D02*
X0329937Y0055567D01*
X0332437Y0058067D01*
X0337437Y0058067D02*
X0339937Y0055567D01*
X0342437Y0058067D01*
X0347437Y0058067D02*
X0349937Y0055567D01*
X0352437Y0058067D01*
D14*
X0270031Y0049215D03*
X0270031Y0067227D03*
X0235527Y0099375D03*
X0235527Y0117387D03*
X0255971Y0117387D03*
D15*
X0258859Y0049215D03*
D16*
X0270069Y0049291D03*
X0207597Y0065479D03*
X0235565Y0099451D03*
X0235565Y0117311D03*
D17*
X0207065Y0066391D03*
X0258897Y0049291D03*
D18*
X0270031Y0049367D03*
X0285003Y0061603D03*
X0284775Y0062971D03*
X0284699Y0063199D03*
X0284471Y0064263D03*
X0284395Y0064567D03*
X0284395Y0064871D03*
X0284243Y0065403D03*
X0284167Y0065935D03*
X0283939Y0066771D03*
X0283939Y0066999D03*
X0290931Y0065631D03*
X0290171Y0061831D03*
X0290171Y0061603D03*
X0290095Y0061299D03*
X0290095Y0111535D03*
X0290171Y0111763D03*
X0290171Y0112067D03*
X0285003Y0111763D03*
X0284775Y0112903D03*
X0284775Y0113131D03*
X0284699Y0113435D03*
X0284471Y0114499D03*
X0284395Y0114803D03*
X0284395Y0115031D03*
X0284243Y0115563D03*
X0284167Y0115867D03*
X0283939Y0116931D03*
X0291007Y0116171D03*
X0291235Y0117235D03*
D19*
X0258859Y0049367D03*
D20*
X0245673Y0049367D03*
D21*
X0224887Y0049367D03*
D22*
X0224811Y0049823D03*
X0270031Y0049443D03*
X0279607Y0065859D03*
X0279607Y0066011D03*
X0279607Y0066087D03*
X0279607Y0066239D03*
X0279607Y0066315D03*
X0279607Y0066391D03*
X0279607Y0066543D03*
X0279607Y0066619D03*
X0279607Y0066695D03*
X0279607Y0066847D03*
X0279607Y0066923D03*
X0279607Y0067075D03*
X0295567Y0067075D03*
X0295567Y0066923D03*
X0295567Y0066847D03*
X0295567Y0066695D03*
X0295567Y0066619D03*
X0295567Y0066543D03*
X0295567Y0066391D03*
X0295567Y0066315D03*
X0295567Y0066239D03*
X0295567Y0066087D03*
X0295567Y0066011D03*
X0295567Y0065859D03*
X0258859Y0066543D03*
X0259695Y0103555D03*
X0252399Y0103175D03*
X0252247Y0105075D03*
X0231803Y0111915D03*
X0235527Y0117159D03*
X0259391Y0113891D03*
X0279607Y0116019D03*
X0279607Y0116095D03*
X0279607Y0116247D03*
X0279607Y0116323D03*
X0279607Y0116475D03*
X0279607Y0116551D03*
X0279607Y0116627D03*
X0279607Y0116779D03*
X0279607Y0116855D03*
X0279607Y0117007D03*
X0279607Y0117083D03*
X0279607Y0117159D03*
X0295567Y0117159D03*
X0295567Y0117083D03*
X0295567Y0117007D03*
X0295567Y0116855D03*
X0295567Y0116779D03*
X0295567Y0116627D03*
X0295567Y0116551D03*
X0295567Y0116475D03*
X0295567Y0116323D03*
X0295567Y0116247D03*
X0295567Y0116095D03*
X0295567Y0116019D03*
D23*
X0256047Y0099451D03*
X0270031Y0067151D03*
X0258859Y0049443D03*
X0207559Y0065555D03*
D24*
X0245673Y0049443D03*
X0275617Y0092079D03*
D25*
X0207179Y0066239D03*
X0224887Y0049443D03*
D26*
X0224773Y0049975D03*
X0226749Y0053547D03*
X0218465Y0054611D03*
X0218465Y0054687D03*
X0218465Y0054839D03*
X0218465Y0054915D03*
X0218465Y0054991D03*
X0211777Y0060615D03*
X0211777Y0060691D03*
X0218465Y0061679D03*
X0226065Y0063351D03*
X0226141Y0063275D03*
X0239137Y0072319D03*
X0238681Y0079995D03*
X0238681Y0087443D03*
X0238681Y0087519D03*
X0245977Y0087823D03*
X0274401Y0088051D03*
X0281697Y0087291D03*
X0272045Y0100287D03*
X0273413Y0103707D03*
X0259201Y0102795D03*
X0235565Y0099679D03*
X0232297Y0103023D03*
X0232373Y0113739D03*
X0235565Y0117083D03*
X0239593Y0054307D03*
X0258897Y0049975D03*
X0260493Y0053775D03*
X0260493Y0053851D03*
X0260569Y0053927D03*
X0266801Y0052939D03*
X0273261Y0052939D03*
X0270069Y0049519D03*
D27*
X0258897Y0049519D03*
D28*
X0245635Y0049519D03*
X0207407Y0065859D03*
X0272159Y0099679D03*
D29*
X0255933Y0117311D03*
X0224849Y0049519D03*
D30*
X0224773Y0050127D03*
X0270069Y0049595D03*
X0238909Y0079387D03*
X0238909Y0088051D03*
X0235565Y0099755D03*
X0281469Y0088051D03*
D31*
X0285649Y0108115D03*
X0285649Y0108191D03*
X0285649Y0108343D03*
X0285497Y0108875D03*
X0285497Y0108951D03*
X0285497Y0109027D03*
X0285497Y0109179D03*
X0285421Y0109407D03*
X0285421Y0109483D03*
X0289525Y0108343D03*
X0289525Y0108191D03*
X0289525Y0108115D03*
X0289677Y0108951D03*
X0289677Y0109027D03*
X0289677Y0109179D03*
X0289753Y0109483D03*
X0289753Y0059323D03*
X0289677Y0059019D03*
X0289677Y0058943D03*
X0289677Y0058791D03*
X0289525Y0058183D03*
X0289525Y0058107D03*
X0289525Y0057955D03*
X0285649Y0057955D03*
X0285649Y0058107D03*
X0285649Y0058183D03*
X0285497Y0058715D03*
X0285497Y0058791D03*
X0285497Y0058943D03*
X0285497Y0059019D03*
X0285421Y0059247D03*
X0285421Y0059323D03*
X0258897Y0049595D03*
D32*
X0245635Y0049595D03*
X0207635Y0065327D03*
D33*
X0207749Y0065023D03*
X0224849Y0049595D03*
D34*
X0226331Y0056435D03*
X0260607Y0054231D03*
X0279835Y0050963D03*
X0279835Y0050735D03*
X0279835Y0050431D03*
X0279835Y0050203D03*
X0279835Y0049899D03*
X0279835Y0049671D03*
X0295339Y0049671D03*
X0295339Y0049899D03*
X0295339Y0050203D03*
X0295339Y0050431D03*
X0295339Y0050735D03*
X0295339Y0050963D03*
X0246167Y0080071D03*
X0238643Y0080299D03*
X0238643Y0087063D03*
X0274363Y0087899D03*
X0281735Y0087063D03*
X0279835Y0099831D03*
X0279835Y0100135D03*
X0279835Y0100363D03*
X0279835Y0100667D03*
X0279835Y0100971D03*
X0279835Y0101199D03*
X0295339Y0101199D03*
X0295339Y0100971D03*
X0295339Y0100667D03*
X0295339Y0100363D03*
X0295339Y0100135D03*
X0295339Y0099831D03*
D35*
X0287587Y0099831D03*
X0287587Y0049671D03*
D36*
X0287587Y0054003D03*
X0287587Y0054231D03*
X0270031Y0049671D03*
X0258859Y0065935D03*
X0270031Y0066771D03*
X0218883Y0053167D03*
X0239099Y0088203D03*
X0235527Y0099831D03*
X0256047Y0099831D03*
X0272007Y0100667D03*
X0287587Y0104163D03*
X0235527Y0116931D03*
D37*
X0290361Y0113131D03*
X0290361Y0112903D03*
X0290437Y0113435D03*
X0290513Y0113663D03*
X0290665Y0114499D03*
X0290741Y0114803D03*
X0290741Y0115031D03*
X0290817Y0115335D03*
X0290893Y0115563D03*
X0290969Y0115867D03*
X0291045Y0116399D03*
X0291197Y0116931D03*
X0291197Y0066999D03*
X0291197Y0066771D03*
X0291045Y0066163D03*
X0290969Y0065935D03*
X0290893Y0065403D03*
X0290817Y0065099D03*
X0290741Y0064871D03*
X0290741Y0064567D03*
X0290665Y0064263D03*
X0290513Y0063731D03*
X0290513Y0063503D03*
X0290437Y0063199D03*
X0290361Y0062971D03*
X0290209Y0062135D03*
X0258897Y0049671D03*
D38*
X0252779Y0049671D03*
X0252779Y0049899D03*
X0252779Y0050203D03*
X0252779Y0050431D03*
X0252779Y0050735D03*
X0252779Y0050963D03*
X0252779Y0051267D03*
X0287587Y0050431D03*
X0287587Y0050203D03*
X0212119Y0064567D03*
X0212119Y0064871D03*
X0212119Y0065099D03*
X0212119Y0065403D03*
X0212119Y0065631D03*
X0212119Y0065935D03*
X0212119Y0066163D03*
X0212119Y0066467D03*
X0212119Y0066771D03*
X0287587Y0100363D03*
X0287587Y0100667D03*
X0259847Y0104163D03*
X0252323Y0103403D03*
X0259695Y0112903D03*
X0259619Y0113435D03*
D39*
X0207825Y0064871D03*
X0245597Y0049671D03*
D40*
X0239289Y0049671D03*
X0239289Y0049899D03*
X0239289Y0050203D03*
X0239289Y0050431D03*
X0239289Y0050735D03*
X0239289Y0050963D03*
X0239289Y0051267D03*
X0239289Y0051571D03*
X0260189Y0090103D03*
X0260189Y0090331D03*
X0260189Y0090635D03*
X0260189Y0090863D03*
X0260189Y0091167D03*
X0260189Y0091471D03*
X0260189Y0091699D03*
X0256085Y0099603D03*
X0265813Y0099831D03*
X0265813Y0100135D03*
X0265813Y0100363D03*
X0265813Y0100667D03*
X0265813Y0100971D03*
X0265813Y0101199D03*
X0265813Y0101503D03*
X0265813Y0101731D03*
X0259657Y0112599D03*
X0252589Y0113967D03*
D41*
X0239289Y0112067D03*
X0239061Y0113131D03*
X0232145Y0113435D03*
X0231917Y0103935D03*
X0231993Y0103631D03*
X0239061Y0103631D03*
X0239289Y0104771D03*
X0239289Y0104999D03*
X0252361Y0105303D03*
X0267257Y0097703D03*
X0267257Y0097399D03*
X0267257Y0097171D03*
X0267257Y0096867D03*
X0267257Y0096563D03*
X0267257Y0096335D03*
X0267257Y0096031D03*
X0267257Y0095803D03*
X0267257Y0095499D03*
X0267257Y0095271D03*
X0267257Y0094967D03*
X0267257Y0094663D03*
X0267257Y0094435D03*
X0267257Y0094131D03*
X0267257Y0093903D03*
X0267257Y0093599D03*
X0267257Y0091699D03*
X0267257Y0091471D03*
X0267257Y0091167D03*
X0267257Y0090863D03*
X0267257Y0090635D03*
X0267257Y0090331D03*
X0267257Y0090103D03*
X0267257Y0089799D03*
X0267257Y0089571D03*
X0267257Y0089267D03*
X0267257Y0088963D03*
X0267257Y0088735D03*
X0267257Y0088431D03*
X0267257Y0088203D03*
X0267257Y0087899D03*
X0267257Y0087671D03*
X0267257Y0087367D03*
X0267257Y0087063D03*
X0267257Y0086835D03*
X0267257Y0086531D03*
X0267257Y0086303D03*
X0267257Y0085999D03*
X0267257Y0085771D03*
X0267257Y0085467D03*
X0267257Y0085163D03*
X0267257Y0084935D03*
X0267257Y0084631D03*
X0267257Y0084403D03*
X0267257Y0084099D03*
X0267257Y0083871D03*
X0267257Y0083567D03*
X0267257Y0083263D03*
X0267257Y0083035D03*
X0267257Y0082731D03*
X0267257Y0082503D03*
X0267257Y0082199D03*
X0267257Y0081971D03*
X0267257Y0081667D03*
X0267257Y0081363D03*
X0267257Y0081135D03*
X0267257Y0080831D03*
X0267257Y0080603D03*
X0267257Y0080299D03*
X0267257Y0080071D03*
X0267257Y0079767D03*
X0267257Y0079463D03*
X0267257Y0079235D03*
X0267257Y0078931D03*
X0267257Y0078703D03*
X0267257Y0078399D03*
X0267257Y0078171D03*
X0267257Y0077867D03*
X0267257Y0077563D03*
X0267257Y0077335D03*
X0267257Y0077031D03*
X0267257Y0076803D03*
X0267257Y0076499D03*
X0267257Y0076271D03*
X0267257Y0075967D03*
X0267257Y0075663D03*
X0267257Y0075435D03*
X0267257Y0075131D03*
X0267257Y0074903D03*
X0281849Y0074903D03*
X0281849Y0075131D03*
X0281849Y0075435D03*
X0281849Y0075663D03*
X0281849Y0075967D03*
X0281849Y0076271D03*
X0281849Y0076499D03*
X0281849Y0076803D03*
X0281849Y0077031D03*
X0281849Y0077335D03*
X0281849Y0077563D03*
X0281849Y0077867D03*
X0281849Y0078171D03*
X0281849Y0078399D03*
X0281849Y0078703D03*
X0281849Y0078931D03*
X0281849Y0079235D03*
X0281849Y0079463D03*
X0281849Y0079767D03*
X0281849Y0080071D03*
X0281849Y0080299D03*
X0281849Y0080603D03*
X0281849Y0080831D03*
X0281849Y0081135D03*
X0281849Y0081363D03*
X0281849Y0081667D03*
X0281849Y0081971D03*
X0281849Y0082199D03*
X0281849Y0082503D03*
X0281849Y0082731D03*
X0281849Y0083035D03*
X0281849Y0083263D03*
X0281849Y0083567D03*
X0281849Y0083871D03*
X0281849Y0084099D03*
X0281849Y0084403D03*
X0281849Y0084631D03*
X0281849Y0084935D03*
X0281849Y0085163D03*
X0281849Y0085467D03*
X0281849Y0085771D03*
X0281849Y0085999D03*
X0281849Y0090331D03*
X0281849Y0090635D03*
X0281849Y0090863D03*
X0281849Y0091167D03*
X0281849Y0091471D03*
X0281849Y0091699D03*
X0281849Y0092003D03*
X0281849Y0092231D03*
X0281849Y0092535D03*
X0281849Y0092763D03*
X0281849Y0093067D03*
X0281849Y0093371D03*
X0281849Y0093599D03*
X0281849Y0093903D03*
X0281849Y0094131D03*
X0281849Y0094435D03*
X0281849Y0094663D03*
X0281849Y0094967D03*
X0281849Y0095271D03*
X0281849Y0095499D03*
X0281849Y0095803D03*
X0281849Y0096031D03*
X0281849Y0096335D03*
X0281849Y0096563D03*
X0281849Y0096867D03*
X0281849Y0097171D03*
X0281849Y0097399D03*
X0279721Y0107203D03*
X0279721Y0107431D03*
X0279721Y0107735D03*
X0279721Y0107963D03*
X0279721Y0108267D03*
X0279721Y0108571D03*
X0279721Y0108799D03*
X0279721Y0109103D03*
X0279721Y0109331D03*
X0279721Y0109635D03*
X0279721Y0109863D03*
X0295453Y0109863D03*
X0295453Y0109635D03*
X0295453Y0109331D03*
X0295453Y0109103D03*
X0295453Y0108799D03*
X0295453Y0108571D03*
X0295453Y0108267D03*
X0295453Y0107963D03*
X0295453Y0107735D03*
X0295453Y0107431D03*
X0295453Y0107203D03*
X0244457Y0091471D03*
X0246281Y0086531D03*
X0246357Y0085163D03*
X0246357Y0084935D03*
X0246357Y0084631D03*
X0246357Y0084403D03*
X0246357Y0084099D03*
X0246357Y0083871D03*
X0246357Y0083567D03*
X0246357Y0083263D03*
X0246357Y0083035D03*
X0246357Y0082731D03*
X0246357Y0082503D03*
X0252361Y0082503D03*
X0252361Y0082731D03*
X0252361Y0083035D03*
X0252361Y0083263D03*
X0252361Y0083567D03*
X0252361Y0083871D03*
X0252361Y0084099D03*
X0252361Y0084403D03*
X0252361Y0084631D03*
X0252361Y0084935D03*
X0252361Y0085163D03*
X0252361Y0085467D03*
X0252361Y0085771D03*
X0252361Y0085999D03*
X0252361Y0086303D03*
X0252361Y0086531D03*
X0238529Y0085467D03*
X0238529Y0085163D03*
X0238529Y0084935D03*
X0238529Y0084631D03*
X0238529Y0084403D03*
X0238529Y0084099D03*
X0238529Y0083871D03*
X0238529Y0083567D03*
X0238529Y0083263D03*
X0238529Y0083035D03*
X0238529Y0082731D03*
X0238529Y0082503D03*
X0238529Y0082199D03*
X0238529Y0081971D03*
X0252361Y0081971D03*
X0252361Y0082199D03*
X0252361Y0081667D03*
X0252361Y0081363D03*
X0252361Y0081135D03*
X0252361Y0080831D03*
X0252361Y0080603D03*
X0252361Y0080299D03*
X0252361Y0080071D03*
X0252361Y0079767D03*
X0252361Y0079463D03*
X0252361Y0079235D03*
X0252361Y0078931D03*
X0252361Y0078703D03*
X0252361Y0078399D03*
X0252361Y0078171D03*
X0252361Y0077867D03*
X0252361Y0077563D03*
X0252361Y0077335D03*
X0252361Y0077031D03*
X0252361Y0076803D03*
X0252361Y0076499D03*
X0252361Y0076271D03*
X0252361Y0075967D03*
X0252361Y0075663D03*
X0252361Y0075435D03*
X0252361Y0075131D03*
X0252361Y0074903D03*
X0246357Y0073231D03*
X0246281Y0073003D03*
X0238757Y0073003D03*
X0238529Y0074903D03*
X0238529Y0075131D03*
X0238529Y0075435D03*
X0238529Y0075663D03*
X0238529Y0075967D03*
X0238529Y0076271D03*
X0238529Y0076499D03*
X0238529Y0076803D03*
X0232753Y0072471D03*
X0232753Y0072167D03*
X0232753Y0071863D03*
X0232753Y0071635D03*
X0232753Y0071331D03*
X0232753Y0071103D03*
X0232753Y0070799D03*
X0232753Y0070571D03*
X0232753Y0070267D03*
X0232753Y0069963D03*
X0232753Y0069735D03*
X0232753Y0069431D03*
X0232753Y0069203D03*
X0232753Y0068899D03*
X0232753Y0068671D03*
X0232753Y0068367D03*
X0232753Y0068063D03*
X0232753Y0067835D03*
X0232753Y0067531D03*
X0232753Y0067303D03*
X0232753Y0066999D03*
X0232753Y0066771D03*
X0232753Y0066467D03*
X0232753Y0066163D03*
X0232753Y0065935D03*
X0232753Y0065631D03*
X0232753Y0065403D03*
X0232753Y0065099D03*
X0232753Y0064871D03*
X0232753Y0064567D03*
X0232753Y0064263D03*
X0232753Y0064035D03*
X0232753Y0063731D03*
X0232753Y0063503D03*
X0232753Y0063199D03*
X0232753Y0062971D03*
X0232753Y0062667D03*
X0232753Y0062363D03*
X0232753Y0062135D03*
X0232753Y0061831D03*
X0232753Y0061603D03*
X0232753Y0061299D03*
X0232753Y0061071D03*
X0232753Y0060767D03*
X0232753Y0060463D03*
X0232753Y0060235D03*
X0232753Y0059931D03*
X0232753Y0059703D03*
X0232753Y0059399D03*
X0232753Y0059171D03*
X0232753Y0058867D03*
X0232753Y0058563D03*
X0232753Y0058335D03*
X0232753Y0058031D03*
X0232753Y0057803D03*
X0232753Y0057499D03*
X0232753Y0057271D03*
X0232753Y0056967D03*
X0232753Y0056663D03*
X0232753Y0056435D03*
X0232753Y0056131D03*
X0232753Y0055903D03*
X0232753Y0055599D03*
X0232753Y0055371D03*
X0232753Y0055067D03*
X0232753Y0054763D03*
X0232753Y0054535D03*
X0232753Y0054231D03*
X0232753Y0054003D03*
X0232753Y0053699D03*
X0232753Y0053471D03*
X0232753Y0053167D03*
X0232753Y0052863D03*
X0232753Y0052635D03*
X0232753Y0052331D03*
X0232753Y0052103D03*
X0232753Y0051799D03*
X0232753Y0051571D03*
X0232753Y0051267D03*
X0232753Y0050963D03*
X0232753Y0050735D03*
X0232753Y0050431D03*
X0232753Y0050203D03*
X0232753Y0049899D03*
X0232753Y0049671D03*
X0226749Y0055599D03*
X0211929Y0055599D03*
X0211929Y0055371D03*
X0211929Y0055067D03*
X0211929Y0054763D03*
X0211929Y0054535D03*
X0211929Y0054231D03*
X0211929Y0054003D03*
X0211929Y0053699D03*
X0211929Y0053471D03*
X0211929Y0053167D03*
X0211929Y0052863D03*
X0211929Y0052635D03*
X0211929Y0052331D03*
X0211929Y0052103D03*
X0211929Y0051799D03*
X0211929Y0051571D03*
X0211929Y0051267D03*
X0211929Y0050963D03*
X0211929Y0050735D03*
X0211929Y0050431D03*
X0211929Y0050203D03*
X0211929Y0049899D03*
X0211929Y0049671D03*
X0211929Y0055903D03*
X0211929Y0056131D03*
X0211929Y0056435D03*
X0211929Y0056663D03*
X0211929Y0056967D03*
X0211929Y0057271D03*
X0211929Y0057499D03*
X0211929Y0057803D03*
X0211929Y0058031D03*
X0211929Y0058335D03*
X0211929Y0058563D03*
X0211929Y0058867D03*
X0226445Y0061603D03*
X0226445Y0061831D03*
X0226445Y0062135D03*
X0247117Y0062135D03*
X0247117Y0062363D03*
X0247117Y0062667D03*
X0247117Y0062971D03*
X0247117Y0063199D03*
X0247117Y0063503D03*
X0247117Y0063731D03*
X0247117Y0064035D03*
X0247117Y0064263D03*
X0247117Y0064567D03*
X0247117Y0064871D03*
X0247117Y0065099D03*
X0247117Y0065403D03*
X0247117Y0065631D03*
X0247117Y0065935D03*
X0247117Y0066163D03*
X0247117Y0066467D03*
X0247117Y0066771D03*
X0258897Y0066467D03*
X0266497Y0062971D03*
X0266421Y0062667D03*
X0266345Y0062363D03*
X0266193Y0061299D03*
X0266193Y0061071D03*
X0266117Y0060235D03*
X0266117Y0059931D03*
X0260721Y0059931D03*
X0266117Y0056663D03*
X0266117Y0056435D03*
X0266117Y0056131D03*
X0266193Y0055599D03*
X0266193Y0055371D03*
X0266193Y0055067D03*
X0266421Y0053699D03*
X0266497Y0053471D03*
X0273793Y0054535D03*
X0273793Y0054763D03*
X0273945Y0056131D03*
X0273945Y0056435D03*
X0279721Y0057271D03*
X0279721Y0057499D03*
X0279721Y0057803D03*
X0279721Y0058031D03*
X0279721Y0058335D03*
X0279721Y0058563D03*
X0279721Y0058867D03*
X0279721Y0059171D03*
X0279721Y0059399D03*
X0279721Y0059703D03*
X0273945Y0059931D03*
X0273945Y0060235D03*
X0273793Y0061603D03*
X0273793Y0061831D03*
X0273717Y0062363D03*
X0295453Y0059703D03*
X0295453Y0059399D03*
X0295453Y0059171D03*
X0295453Y0058867D03*
X0295453Y0058563D03*
X0295453Y0058335D03*
X0295453Y0058031D03*
X0295453Y0057803D03*
X0295453Y0057499D03*
X0295453Y0057271D03*
X0258897Y0049899D03*
X0247117Y0055067D03*
X0247117Y0055371D03*
X0247117Y0055599D03*
X0247117Y0055903D03*
X0247117Y0056131D03*
X0247117Y0056435D03*
X0247117Y0056663D03*
X0247117Y0056967D03*
X0247117Y0057271D03*
X0247117Y0057499D03*
X0247117Y0057803D03*
X0247117Y0058031D03*
X0247117Y0058335D03*
X0247117Y0058563D03*
X0247117Y0058867D03*
X0247117Y0059171D03*
X0247117Y0059399D03*
X0247117Y0059703D03*
X0247117Y0059931D03*
X0247117Y0060235D03*
X0247117Y0060463D03*
X0247117Y0060767D03*
X0247117Y0061071D03*
X0247117Y0061299D03*
X0247117Y0061603D03*
X0247117Y0061831D03*
D42*
X0224849Y0049671D03*
X0284965Y0061831D03*
X0285117Y0061071D03*
X0289981Y0060767D03*
X0290057Y0061071D03*
X0289981Y0110699D03*
X0289981Y0111003D03*
X0290057Y0111231D03*
X0285193Y0110699D03*
X0285117Y0111231D03*
X0284965Y0112067D03*
X0284129Y0116171D03*
D43*
X0259391Y0111763D03*
X0238795Y0103099D03*
X0232259Y0103099D03*
X0253919Y0091471D03*
X0252551Y0087899D03*
X0246091Y0087671D03*
X0259923Y0087063D03*
X0246091Y0072471D03*
X0226179Y0063199D03*
X0218427Y0061831D03*
X0211815Y0060463D03*
X0218427Y0057803D03*
X0218427Y0057499D03*
X0218427Y0057271D03*
X0218427Y0056967D03*
X0218427Y0056663D03*
X0218427Y0056435D03*
X0218427Y0056131D03*
X0218427Y0055903D03*
X0218427Y0055599D03*
X0218427Y0055371D03*
X0226787Y0053699D03*
X0217819Y0049671D03*
X0239555Y0054535D03*
X0253083Y0054231D03*
X0260455Y0062363D03*
X0287587Y0051799D03*
X0287587Y0102035D03*
D44*
X0279835Y0101123D03*
X0279835Y0101047D03*
X0279835Y0100895D03*
X0279835Y0100819D03*
X0279835Y0100743D03*
X0279835Y0100591D03*
X0279835Y0100515D03*
X0279835Y0100439D03*
X0279835Y0100287D03*
X0279835Y0100211D03*
X0279835Y0100059D03*
X0279835Y0099983D03*
X0279835Y0099907D03*
X0295339Y0099907D03*
X0295339Y0099983D03*
X0295339Y0100059D03*
X0295339Y0100211D03*
X0295339Y0100287D03*
X0295339Y0100439D03*
X0295339Y0100515D03*
X0295339Y0100591D03*
X0295339Y0100743D03*
X0295339Y0100819D03*
X0295339Y0100895D03*
X0295339Y0101047D03*
X0295339Y0101123D03*
X0274363Y0087975D03*
X0281735Y0087215D03*
X0281735Y0087139D03*
X0252475Y0087747D03*
X0238643Y0087291D03*
X0238643Y0087215D03*
X0238643Y0087139D03*
X0238643Y0080375D03*
X0238643Y0080223D03*
X0238643Y0080147D03*
X0246167Y0080147D03*
X0246167Y0080223D03*
X0239099Y0072395D03*
X0218503Y0063123D03*
X0218503Y0063047D03*
X0247003Y0053851D03*
X0260607Y0054079D03*
X0260607Y0054155D03*
X0260607Y0054307D03*
X0260607Y0054383D03*
X0273299Y0053015D03*
X0273375Y0053091D03*
X0279835Y0051039D03*
X0279835Y0050887D03*
X0279835Y0050811D03*
X0279835Y0050659D03*
X0279835Y0050583D03*
X0279835Y0050507D03*
X0279835Y0050355D03*
X0279835Y0050279D03*
X0279835Y0050127D03*
X0279835Y0050051D03*
X0279835Y0049975D03*
X0279835Y0049823D03*
X0279835Y0049747D03*
X0295339Y0049747D03*
X0295339Y0049823D03*
X0295339Y0049975D03*
X0295339Y0050051D03*
X0295339Y0050127D03*
X0295339Y0050279D03*
X0295339Y0050355D03*
X0295339Y0050507D03*
X0295339Y0050583D03*
X0295339Y0050659D03*
X0295339Y0050811D03*
X0295339Y0050887D03*
X0295339Y0051039D03*
X0260531Y0061983D03*
X0260531Y0062059D03*
X0266763Y0063427D03*
X0273299Y0063427D03*
X0270031Y0066923D03*
X0252475Y0105455D03*
D45*
X0287587Y0099907D03*
X0287587Y0049747D03*
D46*
X0270069Y0049747D03*
X0224849Y0057651D03*
X0219073Y0060615D03*
X0219073Y0053015D03*
X0244381Y0090787D03*
X0235565Y0099907D03*
X0271969Y0100895D03*
X0275769Y0090787D03*
X0235565Y0116855D03*
D47*
X0252361Y0113511D03*
X0252361Y0113359D03*
X0259657Y0113207D03*
X0259657Y0113055D03*
X0259885Y0104695D03*
X0259885Y0104619D03*
X0259885Y0104543D03*
X0259885Y0104391D03*
X0252285Y0103479D03*
X0252209Y0103707D03*
X0252209Y0103783D03*
X0252133Y0104087D03*
X0252133Y0104239D03*
X0252133Y0104315D03*
X0252133Y0104391D03*
X0252133Y0104543D03*
X0244457Y0091623D03*
X0238301Y0091623D03*
X0238301Y0091547D03*
X0238301Y0091395D03*
X0238301Y0091319D03*
X0238301Y0091243D03*
X0238301Y0091091D03*
X0238301Y0091015D03*
X0238301Y0090939D03*
X0238301Y0090787D03*
X0238301Y0090711D03*
X0238301Y0090559D03*
X0238301Y0090483D03*
X0238301Y0090407D03*
X0238301Y0090255D03*
X0238301Y0090179D03*
X0238301Y0090027D03*
X0238301Y0091775D03*
X0238301Y0091851D03*
X0258897Y0049747D03*
D48*
X0252779Y0049747D03*
X0252779Y0049823D03*
X0252779Y0049975D03*
X0252779Y0050051D03*
X0252779Y0050127D03*
X0252779Y0050279D03*
X0252779Y0050355D03*
X0252779Y0050507D03*
X0252779Y0050583D03*
X0252779Y0050659D03*
X0252779Y0050811D03*
X0252779Y0050887D03*
X0252779Y0051039D03*
X0252779Y0051115D03*
X0252779Y0051191D03*
X0252779Y0051343D03*
X0252779Y0051419D03*
X0252779Y0051495D03*
X0287587Y0050507D03*
X0287587Y0050355D03*
X0287587Y0050279D03*
X0258859Y0066619D03*
X0212119Y0066619D03*
X0212119Y0066695D03*
X0212119Y0066543D03*
X0212119Y0066391D03*
X0212119Y0066315D03*
X0212119Y0066239D03*
X0212119Y0066087D03*
X0212119Y0066011D03*
X0212119Y0065859D03*
X0212119Y0065783D03*
X0212119Y0065707D03*
X0212119Y0065555D03*
X0212119Y0065479D03*
X0212119Y0065327D03*
X0212119Y0065251D03*
X0212119Y0065175D03*
X0212119Y0065023D03*
X0212119Y0064947D03*
X0212119Y0064795D03*
X0212119Y0064719D03*
X0212119Y0064643D03*
X0212119Y0064491D03*
X0287587Y0100439D03*
X0287587Y0100515D03*
X0287587Y0100591D03*
X0259847Y0104087D03*
X0259847Y0104239D03*
X0259847Y0104315D03*
X0252323Y0103327D03*
X0252247Y0103555D03*
X0252475Y0113739D03*
X0252551Y0113891D03*
X0259543Y0113587D03*
X0259543Y0113511D03*
X0259619Y0113359D03*
X0259619Y0113283D03*
X0259695Y0112979D03*
X0259695Y0112827D03*
X0259695Y0112751D03*
X0259695Y0112675D03*
D49*
X0283977Y0116855D03*
X0284889Y0112447D03*
X0284965Y0111991D03*
X0284965Y0111915D03*
X0285117Y0111383D03*
X0285117Y0111307D03*
X0285117Y0111155D03*
X0285117Y0111079D03*
X0285193Y0110851D03*
X0285193Y0110775D03*
X0289829Y0110015D03*
X0289829Y0109939D03*
X0289981Y0110775D03*
X0289981Y0110851D03*
X0289981Y0110927D03*
X0290057Y0111307D03*
X0290057Y0111383D03*
X0272121Y0099907D03*
X0256085Y0099527D03*
X0235565Y0099527D03*
X0244457Y0091775D03*
X0244457Y0075815D03*
X0283977Y0066695D03*
X0284129Y0066011D03*
X0284889Y0062287D03*
X0284965Y0061907D03*
X0284965Y0061755D03*
X0285117Y0061223D03*
X0285117Y0061147D03*
X0285117Y0060995D03*
X0285117Y0060919D03*
X0285193Y0060691D03*
X0285193Y0060615D03*
X0285193Y0060539D03*
X0289829Y0059855D03*
X0289829Y0059779D03*
X0289981Y0060539D03*
X0289981Y0060615D03*
X0289981Y0060691D03*
X0289981Y0060843D03*
X0290057Y0061147D03*
X0290057Y0061223D03*
X0245597Y0049747D03*
D50*
X0239289Y0049747D03*
X0239289Y0049823D03*
X0239289Y0049975D03*
X0239289Y0050051D03*
X0239289Y0050127D03*
X0239289Y0050279D03*
X0239289Y0050355D03*
X0239289Y0050507D03*
X0239289Y0050583D03*
X0239289Y0050659D03*
X0239289Y0050811D03*
X0239289Y0050887D03*
X0239289Y0051039D03*
X0239289Y0051115D03*
X0239289Y0051191D03*
X0239289Y0051343D03*
X0239289Y0051419D03*
X0239289Y0051495D03*
X0239289Y0051647D03*
X0260189Y0089951D03*
X0260189Y0090027D03*
X0260189Y0090179D03*
X0260189Y0090255D03*
X0260189Y0090407D03*
X0260189Y0090483D03*
X0260189Y0090559D03*
X0260189Y0090711D03*
X0260189Y0090787D03*
X0260189Y0090939D03*
X0260189Y0091015D03*
X0260189Y0091091D03*
X0260189Y0091243D03*
X0260189Y0091319D03*
X0260189Y0091395D03*
X0260189Y0091547D03*
X0260189Y0091623D03*
X0260189Y0091775D03*
X0260189Y0091851D03*
X0253881Y0091623D03*
X0275693Y0091623D03*
X0272121Y0100059D03*
X0265813Y0100059D03*
X0265813Y0099983D03*
X0265813Y0099907D03*
X0265813Y0100211D03*
X0265813Y0100287D03*
X0265813Y0100439D03*
X0265813Y0100515D03*
X0265813Y0100591D03*
X0265813Y0100743D03*
X0265813Y0100819D03*
X0265813Y0100895D03*
X0265813Y0101047D03*
X0265813Y0101123D03*
X0265813Y0101275D03*
X0265813Y0101351D03*
X0265813Y0101427D03*
X0265813Y0101579D03*
X0265813Y0101655D03*
X0265813Y0101807D03*
X0259657Y0103479D03*
X0252361Y0103251D03*
X0259657Y0112447D03*
X0259657Y0112523D03*
X0252513Y0113815D03*
D51*
X0252817Y0114195D03*
X0259277Y0114043D03*
X0239289Y0112143D03*
X0239289Y0111991D03*
X0239289Y0111915D03*
X0239289Y0111839D03*
X0239213Y0112447D03*
X0239213Y0112523D03*
X0239061Y0113055D03*
X0238985Y0113283D03*
X0239289Y0104923D03*
X0239289Y0104847D03*
X0239289Y0104695D03*
X0239289Y0104619D03*
X0239213Y0104315D03*
X0239213Y0104239D03*
X0239061Y0103707D03*
X0238985Y0103479D03*
X0231993Y0103555D03*
X0231993Y0103707D03*
X0231917Y0103783D03*
X0231917Y0103859D03*
X0252589Y0102947D03*
X0259429Y0103023D03*
X0267257Y0097627D03*
X0267257Y0097551D03*
X0267257Y0097475D03*
X0267257Y0097323D03*
X0267257Y0097247D03*
X0267257Y0097095D03*
X0267257Y0097019D03*
X0267257Y0096943D03*
X0267257Y0096791D03*
X0267257Y0096715D03*
X0267257Y0096639D03*
X0267257Y0096487D03*
X0267257Y0096411D03*
X0267257Y0096259D03*
X0267257Y0096183D03*
X0267257Y0096107D03*
X0267257Y0095955D03*
X0267257Y0095879D03*
X0267257Y0095727D03*
X0267257Y0095651D03*
X0267257Y0095575D03*
X0267257Y0095423D03*
X0267257Y0095347D03*
X0267257Y0095195D03*
X0267257Y0095119D03*
X0267257Y0095043D03*
X0267257Y0094891D03*
X0267257Y0094815D03*
X0267257Y0094739D03*
X0267257Y0094587D03*
X0267257Y0094511D03*
X0267257Y0094359D03*
X0267257Y0094283D03*
X0267257Y0094207D03*
X0267257Y0094055D03*
X0267257Y0093979D03*
X0267257Y0093827D03*
X0267257Y0093751D03*
X0267257Y0093675D03*
X0267257Y0091851D03*
X0267257Y0091775D03*
X0267257Y0091623D03*
X0267257Y0091547D03*
X0267257Y0091395D03*
X0267257Y0091319D03*
X0267257Y0091243D03*
X0267257Y0091091D03*
X0267257Y0091015D03*
X0267257Y0090939D03*
X0267257Y0090787D03*
X0267257Y0090711D03*
X0267257Y0090559D03*
X0267257Y0090483D03*
X0267257Y0090407D03*
X0267257Y0090255D03*
X0267257Y0090179D03*
X0267257Y0090027D03*
X0267257Y0089951D03*
X0267257Y0089875D03*
X0267257Y0089723D03*
X0267257Y0089647D03*
X0267257Y0089495D03*
X0267257Y0089419D03*
X0267257Y0089343D03*
X0267257Y0089191D03*
X0267257Y0089115D03*
X0267257Y0089039D03*
X0267257Y0088887D03*
X0267257Y0088811D03*
X0267257Y0088659D03*
X0267257Y0088583D03*
X0267257Y0088507D03*
X0267257Y0088355D03*
X0267257Y0088279D03*
X0267257Y0088127D03*
X0267257Y0088051D03*
X0267257Y0087975D03*
X0267257Y0087823D03*
X0267257Y0087747D03*
X0267257Y0087595D03*
X0267257Y0087519D03*
X0267257Y0087443D03*
X0267257Y0087291D03*
X0267257Y0087215D03*
X0267257Y0087139D03*
X0267257Y0086987D03*
X0267257Y0086911D03*
X0267257Y0086759D03*
X0267257Y0086683D03*
X0267257Y0086607D03*
X0267257Y0086455D03*
X0267257Y0086379D03*
X0267257Y0086227D03*
X0267257Y0086151D03*
X0267257Y0086075D03*
X0267257Y0085923D03*
X0267257Y0085847D03*
X0267257Y0085695D03*
X0267257Y0085619D03*
X0267257Y0085543D03*
X0267257Y0085391D03*
X0267257Y0085315D03*
X0267257Y0085239D03*
X0267257Y0085087D03*
X0267257Y0085011D03*
X0267257Y0084859D03*
X0267257Y0084783D03*
X0267257Y0084707D03*
X0267257Y0084555D03*
X0267257Y0084479D03*
X0267257Y0084327D03*
X0267257Y0084251D03*
X0267257Y0084175D03*
X0267257Y0084023D03*
X0267257Y0083947D03*
X0267257Y0083795D03*
X0267257Y0083719D03*
X0267257Y0083643D03*
X0267257Y0083491D03*
X0267257Y0083415D03*
X0267257Y0083339D03*
X0267257Y0083187D03*
X0267257Y0083111D03*
X0267257Y0082959D03*
X0267257Y0082883D03*
X0267257Y0082807D03*
X0267257Y0082655D03*
X0267257Y0082579D03*
X0267257Y0082427D03*
X0267257Y0082351D03*
X0267257Y0082275D03*
X0267257Y0082123D03*
X0267257Y0082047D03*
X0267257Y0081895D03*
X0267257Y0081819D03*
X0267257Y0081743D03*
X0267257Y0081591D03*
X0267257Y0081515D03*
X0267257Y0081439D03*
X0267257Y0081287D03*
X0267257Y0081211D03*
X0267257Y0081059D03*
X0267257Y0080983D03*
X0267257Y0080907D03*
X0267257Y0080755D03*
X0267257Y0080679D03*
X0267257Y0080527D03*
X0267257Y0080451D03*
X0267257Y0080375D03*
X0267257Y0080223D03*
X0267257Y0080147D03*
X0267257Y0079995D03*
X0267257Y0079919D03*
X0267257Y0079843D03*
X0267257Y0079691D03*
X0267257Y0079615D03*
X0267257Y0079539D03*
X0267257Y0079387D03*
X0267257Y0079311D03*
X0267257Y0079159D03*
X0267257Y0079083D03*
X0267257Y0079007D03*
X0267257Y0078855D03*
X0267257Y0078779D03*
X0267257Y0078627D03*
X0267257Y0078551D03*
X0267257Y0078475D03*
X0267257Y0078323D03*
X0267257Y0078247D03*
X0267257Y0078095D03*
X0267257Y0078019D03*
X0267257Y0077943D03*
X0267257Y0077791D03*
X0267257Y0077715D03*
X0267257Y0077639D03*
X0267257Y0077487D03*
X0267257Y0077411D03*
X0267257Y0077259D03*
X0267257Y0077183D03*
X0267257Y0077107D03*
X0267257Y0076955D03*
X0267257Y0076879D03*
X0267257Y0076727D03*
X0267257Y0076651D03*
X0267257Y0076575D03*
X0267257Y0076423D03*
X0267257Y0076347D03*
X0267257Y0076195D03*
X0267257Y0076119D03*
X0267257Y0076043D03*
X0267257Y0075891D03*
X0267257Y0075815D03*
X0267257Y0075739D03*
X0267257Y0075587D03*
X0267257Y0075511D03*
X0267257Y0075359D03*
X0267257Y0075283D03*
X0267257Y0075207D03*
X0267257Y0075055D03*
X0267257Y0074979D03*
X0267257Y0074827D03*
X0267257Y0074751D03*
X0281849Y0074751D03*
X0281849Y0074827D03*
X0281849Y0074979D03*
X0281849Y0075055D03*
X0281849Y0075207D03*
X0281849Y0075283D03*
X0281849Y0075359D03*
X0281849Y0075511D03*
X0281849Y0075587D03*
X0281849Y0075739D03*
X0281849Y0075815D03*
X0281849Y0075891D03*
X0281849Y0076043D03*
X0281849Y0076119D03*
X0281849Y0076195D03*
X0281849Y0076347D03*
X0281849Y0076423D03*
X0281849Y0076575D03*
X0281849Y0076651D03*
X0281849Y0076727D03*
X0281849Y0076879D03*
X0281849Y0076955D03*
X0281849Y0077107D03*
X0281849Y0077183D03*
X0281849Y0077259D03*
X0281849Y0077411D03*
X0281849Y0077487D03*
X0281849Y0077639D03*
X0281849Y0077715D03*
X0281849Y0077791D03*
X0281849Y0077943D03*
X0281849Y0078019D03*
X0281849Y0078095D03*
X0281849Y0078247D03*
X0281849Y0078323D03*
X0281849Y0078475D03*
X0281849Y0078551D03*
X0281849Y0078627D03*
X0281849Y0078779D03*
X0281849Y0078855D03*
X0281849Y0079007D03*
X0281849Y0079083D03*
X0281849Y0079159D03*
X0281849Y0079311D03*
X0281849Y0079387D03*
X0281849Y0079539D03*
X0281849Y0079615D03*
X0281849Y0079691D03*
X0281849Y0079843D03*
X0281849Y0079919D03*
X0281849Y0079995D03*
X0281849Y0080147D03*
X0281849Y0080223D03*
X0281849Y0080375D03*
X0281849Y0080451D03*
X0281849Y0080527D03*
X0281849Y0080679D03*
X0281849Y0080755D03*
X0281849Y0080907D03*
X0281849Y0080983D03*
X0281849Y0081059D03*
X0281849Y0081211D03*
X0281849Y0081287D03*
X0281849Y0081439D03*
X0281849Y0081515D03*
X0281849Y0081591D03*
X0281849Y0081743D03*
X0281849Y0081819D03*
X0281849Y0081895D03*
X0281849Y0082047D03*
X0281849Y0082123D03*
X0281849Y0082275D03*
X0281849Y0082351D03*
X0281849Y0082427D03*
X0281849Y0082579D03*
X0281849Y0082655D03*
X0281849Y0082807D03*
X0281849Y0082883D03*
X0281849Y0082959D03*
X0281849Y0083111D03*
X0281849Y0083187D03*
X0281849Y0083339D03*
X0281849Y0083415D03*
X0281849Y0083491D03*
X0281849Y0083643D03*
X0281849Y0083719D03*
X0281849Y0083795D03*
X0281849Y0083947D03*
X0281849Y0084023D03*
X0281849Y0084175D03*
X0281849Y0084251D03*
X0281849Y0084327D03*
X0281849Y0084479D03*
X0281849Y0084555D03*
X0281849Y0084707D03*
X0281849Y0084783D03*
X0281849Y0084859D03*
X0281849Y0085011D03*
X0281849Y0085087D03*
X0281849Y0085239D03*
X0281849Y0085315D03*
X0281849Y0085391D03*
X0281849Y0085543D03*
X0281849Y0085619D03*
X0281849Y0085695D03*
X0281849Y0085847D03*
X0281849Y0085923D03*
X0281849Y0086075D03*
X0281849Y0086151D03*
X0281849Y0090179D03*
X0281849Y0090255D03*
X0281849Y0090407D03*
X0281849Y0090483D03*
X0281849Y0090559D03*
X0281849Y0090711D03*
X0281849Y0090787D03*
X0281849Y0090939D03*
X0281849Y0091015D03*
X0281849Y0091091D03*
X0281849Y0091243D03*
X0281849Y0091319D03*
X0281849Y0091395D03*
X0281849Y0091547D03*
X0281849Y0091623D03*
X0281849Y0091775D03*
X0281849Y0091851D03*
X0281849Y0091927D03*
X0281849Y0092079D03*
X0281849Y0092155D03*
X0281849Y0092307D03*
X0281849Y0092383D03*
X0281849Y0092459D03*
X0281849Y0092611D03*
X0281849Y0092687D03*
X0281849Y0092839D03*
X0281849Y0092915D03*
X0281849Y0092991D03*
X0281849Y0093143D03*
X0281849Y0093219D03*
X0281849Y0093295D03*
X0281849Y0093447D03*
X0281849Y0093523D03*
X0281849Y0093675D03*
X0281849Y0093751D03*
X0281849Y0093827D03*
X0281849Y0093979D03*
X0281849Y0094055D03*
X0281849Y0094207D03*
X0281849Y0094283D03*
X0281849Y0094359D03*
X0281849Y0094511D03*
X0281849Y0094587D03*
X0281849Y0094739D03*
X0281849Y0094815D03*
X0281849Y0094891D03*
X0281849Y0095043D03*
X0281849Y0095119D03*
X0281849Y0095195D03*
X0281849Y0095347D03*
X0281849Y0095423D03*
X0281849Y0095575D03*
X0281849Y0095651D03*
X0281849Y0095727D03*
X0281849Y0095879D03*
X0281849Y0095955D03*
X0281849Y0096107D03*
X0281849Y0096183D03*
X0281849Y0096259D03*
X0281849Y0096411D03*
X0281849Y0096487D03*
X0281849Y0096639D03*
X0281849Y0096715D03*
X0281849Y0096791D03*
X0281849Y0096943D03*
X0281849Y0097019D03*
X0281849Y0097095D03*
X0281849Y0097247D03*
X0281849Y0097323D03*
X0281849Y0097475D03*
X0281849Y0097551D03*
X0279721Y0107279D03*
X0279721Y0107355D03*
X0279721Y0107507D03*
X0279721Y0107583D03*
X0279721Y0107659D03*
X0279721Y0107811D03*
X0279721Y0107887D03*
X0279721Y0108039D03*
X0279721Y0108115D03*
X0279721Y0108191D03*
X0279721Y0108343D03*
X0279721Y0108419D03*
X0279721Y0108495D03*
X0279721Y0108647D03*
X0279721Y0108723D03*
X0279721Y0108875D03*
X0279721Y0108951D03*
X0279721Y0109027D03*
X0279721Y0109179D03*
X0279721Y0109255D03*
X0279721Y0109407D03*
X0279721Y0109483D03*
X0279721Y0109559D03*
X0279721Y0109711D03*
X0279721Y0109787D03*
X0279721Y0109939D03*
X0279721Y0110015D03*
X0295453Y0110015D03*
X0295453Y0109939D03*
X0295453Y0109787D03*
X0295453Y0109711D03*
X0295453Y0109559D03*
X0295453Y0109483D03*
X0295453Y0109407D03*
X0295453Y0109255D03*
X0295453Y0109179D03*
X0295453Y0109027D03*
X0295453Y0108951D03*
X0295453Y0108875D03*
X0295453Y0108723D03*
X0295453Y0108647D03*
X0295453Y0108495D03*
X0295453Y0108419D03*
X0295453Y0108343D03*
X0295453Y0108191D03*
X0295453Y0108115D03*
X0295453Y0108039D03*
X0295453Y0107887D03*
X0295453Y0107811D03*
X0295453Y0107659D03*
X0295453Y0107583D03*
X0295453Y0107507D03*
X0295453Y0107355D03*
X0295453Y0107279D03*
X0252361Y0086607D03*
X0252361Y0086455D03*
X0252361Y0086379D03*
X0252361Y0086227D03*
X0252361Y0086151D03*
X0252361Y0086075D03*
X0252361Y0085923D03*
X0252361Y0085847D03*
X0252361Y0085695D03*
X0252361Y0085619D03*
X0252361Y0085543D03*
X0252361Y0085391D03*
X0252361Y0085315D03*
X0252361Y0085239D03*
X0252361Y0085087D03*
X0252361Y0085011D03*
X0252361Y0084859D03*
X0252361Y0084783D03*
X0252361Y0084707D03*
X0252361Y0084555D03*
X0252361Y0084479D03*
X0252361Y0084327D03*
X0252361Y0084251D03*
X0252361Y0084175D03*
X0252361Y0084023D03*
X0252361Y0083947D03*
X0252361Y0083795D03*
X0252361Y0083719D03*
X0252361Y0083643D03*
X0252361Y0083491D03*
X0252361Y0083415D03*
X0252361Y0083339D03*
X0252361Y0083187D03*
X0252361Y0083111D03*
X0252361Y0082959D03*
X0252361Y0082883D03*
X0252361Y0082807D03*
X0252361Y0082655D03*
X0252361Y0082579D03*
X0252361Y0082427D03*
X0252361Y0082351D03*
X0252361Y0082275D03*
X0252361Y0082123D03*
X0252361Y0082047D03*
X0252361Y0081895D03*
X0252361Y0081819D03*
X0252361Y0081743D03*
X0252361Y0081591D03*
X0252361Y0081515D03*
X0252361Y0081439D03*
X0252361Y0081287D03*
X0252361Y0081211D03*
X0252361Y0081059D03*
X0252361Y0080983D03*
X0252361Y0080907D03*
X0252361Y0080755D03*
X0252361Y0080679D03*
X0252361Y0080527D03*
X0252361Y0080451D03*
X0252361Y0080375D03*
X0252361Y0080223D03*
X0252361Y0080147D03*
X0252361Y0079995D03*
X0252361Y0079919D03*
X0252361Y0079843D03*
X0252361Y0079691D03*
X0252361Y0079615D03*
X0252361Y0079539D03*
X0252361Y0079387D03*
X0252361Y0079311D03*
X0252361Y0079159D03*
X0252361Y0079083D03*
X0252361Y0079007D03*
X0252361Y0078855D03*
X0252361Y0078779D03*
X0252361Y0078627D03*
X0252361Y0078551D03*
X0252361Y0078475D03*
X0252361Y0078323D03*
X0252361Y0078247D03*
X0252361Y0078095D03*
X0252361Y0078019D03*
X0252361Y0077943D03*
X0252361Y0077791D03*
X0252361Y0077715D03*
X0252361Y0077639D03*
X0252361Y0077487D03*
X0252361Y0077411D03*
X0252361Y0077259D03*
X0252361Y0077183D03*
X0252361Y0077107D03*
X0252361Y0076955D03*
X0252361Y0076879D03*
X0252361Y0076727D03*
X0252361Y0076651D03*
X0252361Y0076575D03*
X0252361Y0076423D03*
X0252361Y0076347D03*
X0252361Y0076195D03*
X0252361Y0076119D03*
X0252361Y0076043D03*
X0252361Y0075891D03*
X0252361Y0075815D03*
X0252361Y0075739D03*
X0252361Y0075587D03*
X0252361Y0075511D03*
X0252361Y0075359D03*
X0252361Y0075283D03*
X0252361Y0075207D03*
X0252361Y0075055D03*
X0252361Y0074979D03*
X0252361Y0074827D03*
X0252361Y0074751D03*
X0246357Y0073307D03*
X0246281Y0072927D03*
X0246281Y0072851D03*
X0238757Y0073079D03*
X0238681Y0073383D03*
X0238529Y0074979D03*
X0238529Y0075055D03*
X0238529Y0075207D03*
X0238529Y0075283D03*
X0238529Y0075359D03*
X0238529Y0075511D03*
X0238529Y0075587D03*
X0238529Y0075739D03*
X0238529Y0075815D03*
X0238529Y0075891D03*
X0238529Y0076043D03*
X0238529Y0076119D03*
X0238529Y0076195D03*
X0238529Y0076347D03*
X0238529Y0076423D03*
X0238529Y0076575D03*
X0238529Y0076651D03*
X0238529Y0076727D03*
X0238529Y0076879D03*
X0238529Y0081819D03*
X0238529Y0081895D03*
X0238529Y0082047D03*
X0238529Y0082123D03*
X0238529Y0082275D03*
X0238529Y0082351D03*
X0238529Y0082427D03*
X0238529Y0082579D03*
X0238529Y0082655D03*
X0238529Y0082807D03*
X0238529Y0082883D03*
X0238529Y0082959D03*
X0238529Y0083111D03*
X0238529Y0083187D03*
X0238529Y0083339D03*
X0238529Y0083415D03*
X0238529Y0083491D03*
X0238529Y0083643D03*
X0238529Y0083719D03*
X0238529Y0083795D03*
X0238529Y0083947D03*
X0238529Y0084023D03*
X0238529Y0084175D03*
X0238529Y0084251D03*
X0238529Y0084327D03*
X0238529Y0084479D03*
X0238529Y0084555D03*
X0238529Y0084707D03*
X0238529Y0084783D03*
X0238529Y0084859D03*
X0238529Y0085011D03*
X0238529Y0085087D03*
X0238529Y0085239D03*
X0238529Y0085315D03*
X0238529Y0085391D03*
X0238529Y0085543D03*
X0238529Y0085619D03*
X0246281Y0086379D03*
X0246281Y0086455D03*
X0246281Y0086607D03*
X0246281Y0086683D03*
X0246281Y0086759D03*
X0246357Y0085315D03*
X0246357Y0085239D03*
X0246357Y0085087D03*
X0246357Y0085011D03*
X0246357Y0084859D03*
X0246357Y0084783D03*
X0246357Y0084707D03*
X0246357Y0084555D03*
X0246357Y0084479D03*
X0246357Y0084327D03*
X0246357Y0084251D03*
X0246357Y0084175D03*
X0246357Y0084023D03*
X0246357Y0083947D03*
X0246357Y0083795D03*
X0246357Y0083719D03*
X0246357Y0083643D03*
X0246357Y0083491D03*
X0246357Y0083415D03*
X0246357Y0083339D03*
X0246357Y0083187D03*
X0246357Y0083111D03*
X0246357Y0082959D03*
X0246357Y0082883D03*
X0246357Y0082807D03*
X0246357Y0082655D03*
X0246357Y0082579D03*
X0246357Y0082427D03*
X0246357Y0082351D03*
X0246357Y0082275D03*
X0232753Y0072395D03*
X0232753Y0072319D03*
X0232753Y0072243D03*
X0232753Y0072091D03*
X0232753Y0072015D03*
X0232753Y0071939D03*
X0232753Y0071787D03*
X0232753Y0071711D03*
X0232753Y0071559D03*
X0232753Y0071483D03*
X0232753Y0071407D03*
X0232753Y0071255D03*
X0232753Y0071179D03*
X0232753Y0071027D03*
X0232753Y0070951D03*
X0232753Y0070875D03*
X0232753Y0070723D03*
X0232753Y0070647D03*
X0232753Y0070495D03*
X0232753Y0070419D03*
X0232753Y0070343D03*
X0232753Y0070191D03*
X0232753Y0070115D03*
X0232753Y0070039D03*
X0232753Y0069887D03*
X0232753Y0069811D03*
X0232753Y0069659D03*
X0232753Y0069583D03*
X0232753Y0069507D03*
X0232753Y0069355D03*
X0232753Y0069279D03*
X0232753Y0069127D03*
X0232753Y0069051D03*
X0232753Y0068975D03*
X0232753Y0068823D03*
X0232753Y0068747D03*
X0232753Y0068595D03*
X0232753Y0068519D03*
X0232753Y0068443D03*
X0232753Y0068291D03*
X0232753Y0068215D03*
X0232753Y0068139D03*
X0232753Y0067987D03*
X0232753Y0067911D03*
X0232753Y0067759D03*
X0232753Y0067683D03*
X0232753Y0067607D03*
X0232753Y0067455D03*
X0232753Y0067379D03*
X0232753Y0067227D03*
X0232753Y0067151D03*
X0232753Y0067075D03*
X0232753Y0066923D03*
X0232753Y0066847D03*
X0232753Y0066695D03*
X0232753Y0066619D03*
X0232753Y0066543D03*
X0232753Y0066391D03*
X0232753Y0066315D03*
X0232753Y0066239D03*
X0232753Y0066087D03*
X0232753Y0066011D03*
X0232753Y0065859D03*
X0232753Y0065783D03*
X0232753Y0065707D03*
X0232753Y0065555D03*
X0232753Y0065479D03*
X0232753Y0065327D03*
X0232753Y0065251D03*
X0232753Y0065175D03*
X0232753Y0065023D03*
X0232753Y0064947D03*
X0232753Y0064795D03*
X0232753Y0064719D03*
X0232753Y0064643D03*
X0232753Y0064491D03*
X0232753Y0064415D03*
X0232753Y0064339D03*
X0232753Y0064187D03*
X0232753Y0064111D03*
X0232753Y0063959D03*
X0232753Y0063883D03*
X0232753Y0063807D03*
X0232753Y0063655D03*
X0232753Y0063579D03*
X0232753Y0063427D03*
X0232753Y0063351D03*
X0232753Y0063275D03*
X0232753Y0063123D03*
X0232753Y0063047D03*
X0232753Y0062895D03*
X0232753Y0062819D03*
X0232753Y0062743D03*
X0232753Y0062591D03*
X0232753Y0062515D03*
X0232753Y0062439D03*
X0232753Y0062287D03*
X0232753Y0062211D03*
X0232753Y0062059D03*
X0232753Y0061983D03*
X0232753Y0061907D03*
X0232753Y0061755D03*
X0232753Y0061679D03*
X0232753Y0061527D03*
X0232753Y0061451D03*
X0232753Y0061375D03*
X0232753Y0061223D03*
X0232753Y0061147D03*
X0232753Y0060995D03*
X0232753Y0060919D03*
X0232753Y0060843D03*
X0232753Y0060691D03*
X0232753Y0060615D03*
X0232753Y0060539D03*
X0232753Y0060387D03*
X0232753Y0060311D03*
X0232753Y0060159D03*
X0232753Y0060083D03*
X0232753Y0060007D03*
X0232753Y0059855D03*
X0232753Y0059779D03*
X0232753Y0059627D03*
X0232753Y0059551D03*
X0232753Y0059475D03*
X0232753Y0059323D03*
X0232753Y0059247D03*
X0232753Y0059095D03*
X0232753Y0059019D03*
X0232753Y0058943D03*
X0232753Y0058791D03*
X0232753Y0058715D03*
X0232753Y0058639D03*
X0232753Y0058487D03*
X0232753Y0058411D03*
X0232753Y0058259D03*
X0232753Y0058183D03*
X0232753Y0058107D03*
X0232753Y0057955D03*
X0232753Y0057879D03*
X0232753Y0057727D03*
X0232753Y0057651D03*
X0232753Y0057575D03*
X0232753Y0057423D03*
X0232753Y0057347D03*
X0232753Y0057195D03*
X0232753Y0057119D03*
X0232753Y0057043D03*
X0232753Y0056891D03*
X0232753Y0056815D03*
X0232753Y0056739D03*
X0232753Y0056587D03*
X0232753Y0056511D03*
X0232753Y0056359D03*
X0232753Y0056283D03*
X0232753Y0056207D03*
X0232753Y0056055D03*
X0232753Y0055979D03*
X0232753Y0055827D03*
X0232753Y0055751D03*
X0232753Y0055675D03*
X0232753Y0055523D03*
X0232753Y0055447D03*
X0232753Y0055295D03*
X0232753Y0055219D03*
X0232753Y0055143D03*
X0232753Y0054991D03*
X0232753Y0054915D03*
X0232753Y0054839D03*
X0232753Y0054687D03*
X0232753Y0054611D03*
X0232753Y0054459D03*
X0232753Y0054383D03*
X0232753Y0054307D03*
X0232753Y0054155D03*
X0232753Y0054079D03*
X0232753Y0053927D03*
X0232753Y0053851D03*
X0232753Y0053775D03*
X0232753Y0053623D03*
X0232753Y0053547D03*
X0232753Y0053395D03*
X0232753Y0053319D03*
X0232753Y0053243D03*
X0232753Y0053091D03*
X0232753Y0053015D03*
X0232753Y0052939D03*
X0232753Y0052787D03*
X0232753Y0052711D03*
X0232753Y0052559D03*
X0232753Y0052483D03*
X0232753Y0052407D03*
X0232753Y0052255D03*
X0232753Y0052179D03*
X0232753Y0052027D03*
X0232753Y0051951D03*
X0232753Y0051875D03*
X0232753Y0051723D03*
X0232753Y0051647D03*
X0232753Y0051495D03*
X0232753Y0051419D03*
X0232753Y0051343D03*
X0232753Y0051191D03*
X0232753Y0051115D03*
X0232753Y0051039D03*
X0232753Y0050887D03*
X0232753Y0050811D03*
X0232753Y0050659D03*
X0232753Y0050583D03*
X0232753Y0050507D03*
X0232753Y0050355D03*
X0232753Y0050279D03*
X0232753Y0050127D03*
X0232753Y0050051D03*
X0232753Y0049975D03*
X0232753Y0049823D03*
X0232753Y0049747D03*
X0226825Y0055219D03*
X0226825Y0055295D03*
X0226749Y0055523D03*
X0226749Y0055675D03*
X0218161Y0051115D03*
X0218161Y0051039D03*
X0218085Y0050659D03*
X0211929Y0050659D03*
X0211929Y0050583D03*
X0211929Y0050507D03*
X0211929Y0050355D03*
X0211929Y0050279D03*
X0211929Y0050127D03*
X0211929Y0050051D03*
X0211929Y0049975D03*
X0211929Y0049823D03*
X0211929Y0049747D03*
X0211929Y0050811D03*
X0211929Y0050887D03*
X0211929Y0051039D03*
X0211929Y0051115D03*
X0211929Y0051191D03*
X0211929Y0051343D03*
X0211929Y0051419D03*
X0211929Y0051495D03*
X0211929Y0051647D03*
X0211929Y0051723D03*
X0211929Y0051875D03*
X0211929Y0051951D03*
X0211929Y0052027D03*
X0211929Y0052179D03*
X0211929Y0052255D03*
X0211929Y0052407D03*
X0211929Y0052483D03*
X0211929Y0052559D03*
X0211929Y0052711D03*
X0211929Y0052787D03*
X0211929Y0052939D03*
X0211929Y0053015D03*
X0211929Y0053091D03*
X0211929Y0053243D03*
X0211929Y0053319D03*
X0211929Y0053395D03*
X0211929Y0053547D03*
X0211929Y0053623D03*
X0211929Y0053775D03*
X0211929Y0053851D03*
X0211929Y0053927D03*
X0211929Y0054079D03*
X0211929Y0054155D03*
X0211929Y0054307D03*
X0211929Y0054383D03*
X0211929Y0054459D03*
X0211929Y0054611D03*
X0211929Y0054687D03*
X0211929Y0054839D03*
X0211929Y0054915D03*
X0211929Y0054991D03*
X0211929Y0055143D03*
X0211929Y0055219D03*
X0211929Y0055295D03*
X0211929Y0055447D03*
X0211929Y0055523D03*
X0211929Y0055675D03*
X0211929Y0055751D03*
X0211929Y0055827D03*
X0211929Y0055979D03*
X0211929Y0056055D03*
X0211929Y0056207D03*
X0211929Y0056283D03*
X0211929Y0056359D03*
X0211929Y0056511D03*
X0211929Y0056587D03*
X0211929Y0056739D03*
X0211929Y0056815D03*
X0211929Y0056891D03*
X0211929Y0057043D03*
X0211929Y0057119D03*
X0211929Y0057195D03*
X0211929Y0057347D03*
X0211929Y0057423D03*
X0211929Y0057575D03*
X0211929Y0057651D03*
X0211929Y0057727D03*
X0211929Y0057879D03*
X0211929Y0057955D03*
X0211929Y0058107D03*
X0211929Y0058183D03*
X0211929Y0058259D03*
X0211929Y0058411D03*
X0211929Y0058487D03*
X0211929Y0058639D03*
X0211929Y0058715D03*
X0211929Y0058791D03*
X0211929Y0058943D03*
X0211929Y0059019D03*
X0211929Y0059095D03*
X0226445Y0061527D03*
X0226445Y0061679D03*
X0226445Y0061755D03*
X0226445Y0061907D03*
X0226445Y0061983D03*
X0226445Y0062059D03*
X0226445Y0062211D03*
X0247117Y0062211D03*
X0247117Y0062287D03*
X0247117Y0062439D03*
X0247117Y0062515D03*
X0247117Y0062591D03*
X0247117Y0062743D03*
X0247117Y0062819D03*
X0247117Y0062895D03*
X0247117Y0063047D03*
X0247117Y0063123D03*
X0247117Y0063275D03*
X0247117Y0063351D03*
X0247117Y0063427D03*
X0247117Y0063579D03*
X0247117Y0063655D03*
X0247117Y0063807D03*
X0247117Y0063883D03*
X0247117Y0063959D03*
X0247117Y0064111D03*
X0247117Y0064187D03*
X0247117Y0064339D03*
X0247117Y0064415D03*
X0247117Y0064491D03*
X0247117Y0064643D03*
X0247117Y0064719D03*
X0247117Y0064795D03*
X0247117Y0064947D03*
X0247117Y0065023D03*
X0247117Y0065175D03*
X0247117Y0065251D03*
X0247117Y0065327D03*
X0247117Y0065479D03*
X0247117Y0065555D03*
X0247117Y0065707D03*
X0247117Y0065783D03*
X0247117Y0065859D03*
X0247117Y0066011D03*
X0247117Y0066087D03*
X0247117Y0066239D03*
X0247117Y0066315D03*
X0247117Y0066391D03*
X0247117Y0066543D03*
X0247117Y0066619D03*
X0247117Y0066695D03*
X0247117Y0062059D03*
X0247117Y0061983D03*
X0247117Y0061907D03*
X0247117Y0061755D03*
X0247117Y0061679D03*
X0247117Y0061527D03*
X0247117Y0061451D03*
X0247117Y0061375D03*
X0247117Y0061223D03*
X0247117Y0061147D03*
X0247117Y0060995D03*
X0247117Y0060919D03*
X0247117Y0060843D03*
X0247117Y0060691D03*
X0247117Y0060615D03*
X0247117Y0060539D03*
X0247117Y0060387D03*
X0247117Y0060311D03*
X0247117Y0060159D03*
X0247117Y0060083D03*
X0247117Y0060007D03*
X0247117Y0059855D03*
X0247117Y0059779D03*
X0247117Y0059627D03*
X0247117Y0059551D03*
X0247117Y0059475D03*
X0247117Y0059323D03*
X0247117Y0059247D03*
X0247117Y0059095D03*
X0247117Y0059019D03*
X0247117Y0058943D03*
X0247117Y0058791D03*
X0247117Y0058715D03*
X0247117Y0058639D03*
X0247117Y0058487D03*
X0247117Y0058411D03*
X0247117Y0058259D03*
X0247117Y0058183D03*
X0247117Y0058107D03*
X0247117Y0057955D03*
X0247117Y0057879D03*
X0247117Y0057727D03*
X0247117Y0057651D03*
X0247117Y0057575D03*
X0247117Y0057423D03*
X0247117Y0057347D03*
X0247117Y0057195D03*
X0247117Y0057119D03*
X0247117Y0057043D03*
X0247117Y0056891D03*
X0247117Y0056815D03*
X0247117Y0056739D03*
X0247117Y0056587D03*
X0247117Y0056511D03*
X0247117Y0056359D03*
X0247117Y0056283D03*
X0247117Y0056207D03*
X0247117Y0056055D03*
X0247117Y0055979D03*
X0247117Y0055827D03*
X0247117Y0055751D03*
X0247117Y0055675D03*
X0247117Y0055523D03*
X0247117Y0055447D03*
X0247117Y0055295D03*
X0247117Y0055219D03*
X0247117Y0055143D03*
X0247117Y0054991D03*
X0247117Y0054915D03*
X0266117Y0056055D03*
X0266117Y0056207D03*
X0266117Y0056283D03*
X0266117Y0056359D03*
X0266117Y0056511D03*
X0266117Y0056587D03*
X0266193Y0055523D03*
X0266193Y0055447D03*
X0266193Y0055295D03*
X0266193Y0055219D03*
X0266193Y0055143D03*
X0266193Y0054991D03*
X0266345Y0054155D03*
X0266345Y0054079D03*
X0266421Y0053775D03*
X0266497Y0053547D03*
X0273489Y0053319D03*
X0273717Y0054079D03*
X0273717Y0054155D03*
X0273793Y0054459D03*
X0273793Y0054611D03*
X0273793Y0054687D03*
X0273793Y0054839D03*
X0273945Y0056055D03*
X0273945Y0056207D03*
X0273945Y0056283D03*
X0273945Y0056359D03*
X0273945Y0056511D03*
X0273945Y0056587D03*
X0279721Y0057043D03*
X0279721Y0057119D03*
X0279721Y0057195D03*
X0279721Y0057347D03*
X0279721Y0057423D03*
X0279721Y0057575D03*
X0279721Y0057651D03*
X0279721Y0057727D03*
X0279721Y0057879D03*
X0279721Y0057955D03*
X0279721Y0058107D03*
X0279721Y0058183D03*
X0279721Y0058259D03*
X0279721Y0058411D03*
X0279721Y0058487D03*
X0279721Y0058639D03*
X0279721Y0058715D03*
X0279721Y0058791D03*
X0279721Y0058943D03*
X0279721Y0059019D03*
X0279721Y0059095D03*
X0279721Y0059247D03*
X0279721Y0059323D03*
X0279721Y0059475D03*
X0279721Y0059551D03*
X0279721Y0059627D03*
X0279721Y0059779D03*
X0279721Y0059855D03*
X0273945Y0059855D03*
X0273945Y0059779D03*
X0273945Y0060007D03*
X0273945Y0060083D03*
X0273945Y0060159D03*
X0273945Y0060311D03*
X0273793Y0061679D03*
X0273793Y0061755D03*
X0273793Y0061907D03*
X0273717Y0062211D03*
X0273717Y0062287D03*
X0273489Y0063123D03*
X0266497Y0062895D03*
X0266421Y0062743D03*
X0266345Y0062287D03*
X0266193Y0061451D03*
X0266193Y0061375D03*
X0266193Y0061223D03*
X0266193Y0061147D03*
X0266193Y0060995D03*
X0266193Y0060919D03*
X0266193Y0060843D03*
X0266117Y0060387D03*
X0266117Y0060311D03*
X0266117Y0060159D03*
X0266117Y0060083D03*
X0266117Y0060007D03*
X0266117Y0059855D03*
X0266117Y0059779D03*
X0295453Y0059779D03*
X0295453Y0059855D03*
X0295453Y0059627D03*
X0295453Y0059551D03*
X0295453Y0059475D03*
X0295453Y0059323D03*
X0295453Y0059247D03*
X0295453Y0059095D03*
X0295453Y0059019D03*
X0295453Y0058943D03*
X0295453Y0058791D03*
X0295453Y0058715D03*
X0295453Y0058639D03*
X0295453Y0058487D03*
X0295453Y0058411D03*
X0295453Y0058259D03*
X0295453Y0058183D03*
X0295453Y0058107D03*
X0295453Y0057955D03*
X0295453Y0057879D03*
X0295453Y0057727D03*
X0295453Y0057651D03*
X0295453Y0057575D03*
X0295453Y0057423D03*
X0295453Y0057347D03*
X0295453Y0057195D03*
X0295453Y0057119D03*
X0295453Y0057043D03*
D52*
X0287587Y0050127D03*
X0287587Y0050051D03*
X0287587Y0049975D03*
X0287587Y0049823D03*
X0242823Y0069127D03*
X0224811Y0049747D03*
X0287587Y0099983D03*
X0287587Y0100059D03*
X0287587Y0100211D03*
X0287587Y0100287D03*
X0259923Y0104847D03*
X0259923Y0104923D03*
X0259923Y0105075D03*
X0259923Y0105151D03*
X0259923Y0105227D03*
X0252247Y0112675D03*
X0252247Y0112751D03*
X0252247Y0112827D03*
X0252247Y0112979D03*
X0252323Y0113055D03*
X0252323Y0113207D03*
X0252323Y0113283D03*
D53*
X0259429Y0111839D03*
X0238909Y0113511D03*
X0238833Y0113587D03*
X0232221Y0113587D03*
X0255933Y0117083D03*
X0266041Y0104923D03*
X0266041Y0104847D03*
X0273489Y0103859D03*
X0273565Y0104087D03*
X0273565Y0104239D03*
X0273565Y0104315D03*
X0279797Y0104087D03*
X0279797Y0104011D03*
X0279797Y0103859D03*
X0279797Y0103783D03*
X0279797Y0103707D03*
X0279797Y0103555D03*
X0279797Y0103479D03*
X0279797Y0103327D03*
X0279797Y0103251D03*
X0279797Y0103175D03*
X0279797Y0103023D03*
X0279797Y0102947D03*
X0279797Y0102795D03*
X0279797Y0102719D03*
X0279797Y0102643D03*
X0279797Y0102491D03*
X0279797Y0102415D03*
X0279797Y0102339D03*
X0279797Y0102187D03*
X0279797Y0102111D03*
X0279797Y0101959D03*
X0279797Y0101883D03*
X0279797Y0101807D03*
X0279797Y0101655D03*
X0279797Y0101579D03*
X0279797Y0101427D03*
X0279797Y0101351D03*
X0279797Y0101275D03*
X0295377Y0101275D03*
X0295377Y0101351D03*
X0295377Y0101427D03*
X0295377Y0101579D03*
X0295377Y0101655D03*
X0295377Y0101807D03*
X0295377Y0101883D03*
X0295377Y0101959D03*
X0295377Y0102111D03*
X0295377Y0102187D03*
X0295377Y0102339D03*
X0295377Y0102415D03*
X0295377Y0102491D03*
X0295377Y0102643D03*
X0295377Y0102719D03*
X0295377Y0102795D03*
X0295377Y0102947D03*
X0295377Y0103023D03*
X0295377Y0103175D03*
X0295377Y0103251D03*
X0295377Y0103327D03*
X0295377Y0103479D03*
X0295377Y0103555D03*
X0295377Y0103707D03*
X0295377Y0103783D03*
X0295377Y0103859D03*
X0295377Y0104011D03*
X0295377Y0104087D03*
X0259353Y0102947D03*
X0238909Y0103251D03*
X0238833Y0103175D03*
X0232145Y0103251D03*
X0246129Y0087519D03*
X0246129Y0087443D03*
X0252513Y0087823D03*
X0259961Y0086987D03*
X0259961Y0086911D03*
X0259961Y0086759D03*
X0274249Y0087443D03*
X0274249Y0087519D03*
X0274249Y0087595D03*
X0274325Y0087823D03*
X0246129Y0079995D03*
X0246129Y0072547D03*
X0226217Y0063123D03*
X0226217Y0063047D03*
X0226293Y0062895D03*
X0218465Y0062895D03*
X0218465Y0062819D03*
X0218465Y0062743D03*
X0218389Y0062287D03*
X0218389Y0062211D03*
X0218389Y0062059D03*
X0218389Y0061983D03*
X0211853Y0060159D03*
X0211853Y0060083D03*
X0211853Y0060007D03*
X0226445Y0056283D03*
X0226445Y0056207D03*
X0226825Y0053927D03*
X0226825Y0053851D03*
X0226825Y0053775D03*
X0218009Y0050279D03*
X0217933Y0050051D03*
X0217933Y0049975D03*
X0217857Y0049823D03*
X0217857Y0049747D03*
X0239517Y0054611D03*
X0239517Y0054687D03*
X0239517Y0054839D03*
X0246965Y0053775D03*
X0247041Y0053927D03*
X0247041Y0054079D03*
X0247041Y0054155D03*
X0253045Y0054383D03*
X0253045Y0054459D03*
X0253045Y0054611D03*
X0253045Y0054687D03*
X0260645Y0054687D03*
X0260645Y0054611D03*
X0260645Y0054459D03*
X0260645Y0054839D03*
X0260645Y0054915D03*
X0260721Y0055295D03*
X0260721Y0055447D03*
X0260721Y0055523D03*
X0260721Y0055675D03*
X0260721Y0055751D03*
X0260721Y0055827D03*
X0260721Y0055979D03*
X0266725Y0053015D03*
X0279797Y0053015D03*
X0279797Y0053091D03*
X0279797Y0053243D03*
X0279797Y0053319D03*
X0279797Y0053395D03*
X0279797Y0053547D03*
X0279797Y0053623D03*
X0279797Y0053775D03*
X0279797Y0053851D03*
X0279797Y0053927D03*
X0279797Y0052939D03*
X0279797Y0052787D03*
X0279797Y0052711D03*
X0279797Y0052559D03*
X0279797Y0052483D03*
X0279797Y0052407D03*
X0279797Y0052255D03*
X0279797Y0052179D03*
X0279797Y0052027D03*
X0279797Y0051951D03*
X0279797Y0051875D03*
X0279797Y0051723D03*
X0279797Y0051647D03*
X0279797Y0051495D03*
X0279797Y0051419D03*
X0279797Y0051343D03*
X0279797Y0051191D03*
X0279797Y0051115D03*
X0295377Y0051115D03*
X0295377Y0051191D03*
X0295377Y0051343D03*
X0295377Y0051419D03*
X0295377Y0051495D03*
X0295377Y0051647D03*
X0295377Y0051723D03*
X0295377Y0051875D03*
X0295377Y0051951D03*
X0295377Y0052027D03*
X0295377Y0052179D03*
X0295377Y0052255D03*
X0295377Y0052407D03*
X0295377Y0052483D03*
X0295377Y0052559D03*
X0295377Y0052711D03*
X0295377Y0052787D03*
X0295377Y0052939D03*
X0295377Y0053015D03*
X0295377Y0053091D03*
X0295377Y0053243D03*
X0295377Y0053319D03*
X0295377Y0053395D03*
X0295377Y0053547D03*
X0295377Y0053623D03*
X0295377Y0053775D03*
X0295377Y0053851D03*
X0295377Y0053927D03*
X0273413Y0063275D03*
X0266649Y0063275D03*
X0266649Y0063351D03*
X0260645Y0061223D03*
X0260645Y0061147D03*
X0253045Y0061907D03*
X0253045Y0061983D03*
X0253045Y0062059D03*
D54*
X0270031Y0049823D03*
X0275807Y0090483D03*
X0254071Y0090559D03*
X0253539Y0106443D03*
D55*
X0252285Y0105151D03*
X0252513Y0103023D03*
X0259581Y0103251D03*
X0259581Y0103327D03*
X0231765Y0104847D03*
X0231765Y0110547D03*
X0231765Y0110623D03*
X0231765Y0110775D03*
X0231765Y0110851D03*
X0231765Y0110927D03*
X0231765Y0111079D03*
X0231765Y0111155D03*
X0231765Y0111307D03*
X0231765Y0111383D03*
X0231765Y0111459D03*
X0231765Y0111611D03*
X0231765Y0111687D03*
X0231765Y0111839D03*
X0231841Y0111991D03*
X0231841Y0112143D03*
X0231841Y0112219D03*
X0231841Y0112295D03*
X0231841Y0112447D03*
X0231917Y0112675D03*
X0231917Y0112751D03*
X0231917Y0112827D03*
X0231993Y0113055D03*
X0252665Y0114043D03*
X0259581Y0112219D03*
X0279645Y0113055D03*
X0279645Y0113207D03*
X0279645Y0113283D03*
X0279645Y0113359D03*
X0279645Y0113511D03*
X0279645Y0113587D03*
X0279645Y0113739D03*
X0279645Y0113815D03*
X0279645Y0113891D03*
X0279645Y0114043D03*
X0279645Y0114119D03*
X0279645Y0114195D03*
X0279645Y0114347D03*
X0279645Y0114423D03*
X0279645Y0114575D03*
X0279645Y0114651D03*
X0279645Y0114727D03*
X0279645Y0114879D03*
X0279645Y0114955D03*
X0279645Y0115107D03*
X0279645Y0115183D03*
X0279645Y0115259D03*
X0279645Y0115411D03*
X0279645Y0115487D03*
X0279645Y0115639D03*
X0279645Y0115715D03*
X0279645Y0115791D03*
X0279645Y0115943D03*
X0295529Y0115943D03*
X0295529Y0115791D03*
X0295529Y0115715D03*
X0295529Y0115639D03*
X0295529Y0115487D03*
X0295529Y0115411D03*
X0295529Y0115259D03*
X0295529Y0115183D03*
X0295529Y0115107D03*
X0295529Y0114955D03*
X0295529Y0114879D03*
X0295529Y0114727D03*
X0295529Y0114651D03*
X0295529Y0114575D03*
X0295529Y0114423D03*
X0295529Y0114347D03*
X0295529Y0114195D03*
X0295529Y0114119D03*
X0295529Y0114043D03*
X0295529Y0113891D03*
X0295529Y0113815D03*
X0295529Y0113739D03*
X0295529Y0113587D03*
X0295529Y0113511D03*
X0295529Y0113359D03*
X0295529Y0113283D03*
X0295529Y0113207D03*
X0295529Y0113055D03*
X0244457Y0091547D03*
X0244457Y0076043D03*
X0279645Y0065783D03*
X0279645Y0065707D03*
X0279645Y0065555D03*
X0279645Y0065479D03*
X0279645Y0065327D03*
X0279645Y0065251D03*
X0279645Y0065175D03*
X0279645Y0065023D03*
X0279645Y0064947D03*
X0279645Y0064795D03*
X0279645Y0064719D03*
X0279645Y0064643D03*
X0279645Y0064491D03*
X0279645Y0064415D03*
X0279645Y0064339D03*
X0279645Y0064187D03*
X0279645Y0064111D03*
X0279645Y0063959D03*
X0279645Y0063883D03*
X0279645Y0063807D03*
X0279645Y0063655D03*
X0279645Y0063579D03*
X0279645Y0063427D03*
X0279645Y0063351D03*
X0279645Y0063275D03*
X0279645Y0063123D03*
X0279645Y0063047D03*
X0279645Y0062895D03*
X0295529Y0062895D03*
X0295529Y0063047D03*
X0295529Y0063123D03*
X0295529Y0063275D03*
X0295529Y0063351D03*
X0295529Y0063427D03*
X0295529Y0063579D03*
X0295529Y0063655D03*
X0295529Y0063807D03*
X0295529Y0063883D03*
X0295529Y0063959D03*
X0295529Y0064111D03*
X0295529Y0064187D03*
X0295529Y0064339D03*
X0295529Y0064415D03*
X0295529Y0064491D03*
X0295529Y0064643D03*
X0295529Y0064719D03*
X0295529Y0064795D03*
X0295529Y0064947D03*
X0295529Y0065023D03*
X0295529Y0065175D03*
X0295529Y0065251D03*
X0295529Y0065327D03*
X0295529Y0065479D03*
X0295529Y0065555D03*
X0295529Y0065707D03*
X0295529Y0065783D03*
X0258897Y0049823D03*
D56*
X0245597Y0049823D03*
X0252209Y0111991D03*
X0252209Y0112143D03*
X0252209Y0112219D03*
X0252209Y0112295D03*
X0252209Y0112447D03*
X0252209Y0112523D03*
D57*
X0252247Y0112599D03*
X0252247Y0112903D03*
X0252323Y0113131D03*
X0259923Y0104999D03*
X0287587Y0100135D03*
X0287587Y0049899D03*
D58*
X0270069Y0049899D03*
X0275845Y0090331D03*
X0235565Y0116703D03*
D59*
X0259505Y0113663D03*
X0259733Y0103631D03*
X0245597Y0049899D03*
D60*
X0247079Y0054231D03*
X0247079Y0054535D03*
X0247079Y0054763D03*
X0253007Y0054763D03*
X0253007Y0055067D03*
X0260683Y0055067D03*
X0260759Y0056131D03*
X0260759Y0056435D03*
X0260759Y0056663D03*
X0260759Y0056967D03*
X0260759Y0057271D03*
X0260759Y0057499D03*
X0260759Y0057803D03*
X0260759Y0058031D03*
X0260759Y0058335D03*
X0260759Y0058563D03*
X0260759Y0058867D03*
X0260759Y0059171D03*
X0260759Y0059399D03*
X0260759Y0059703D03*
X0260683Y0060235D03*
X0260683Y0060463D03*
X0260683Y0060767D03*
X0260607Y0061299D03*
X0266155Y0060767D03*
X0266155Y0060463D03*
X0266079Y0059703D03*
X0266079Y0059399D03*
X0266079Y0059171D03*
X0266079Y0058867D03*
X0266079Y0058563D03*
X0266079Y0058335D03*
X0266079Y0058031D03*
X0266079Y0057803D03*
X0266079Y0057499D03*
X0266079Y0057271D03*
X0266079Y0056967D03*
X0266155Y0055903D03*
X0273907Y0055903D03*
X0273983Y0056663D03*
X0273983Y0056967D03*
X0273983Y0057271D03*
X0273983Y0057499D03*
X0273983Y0057803D03*
X0273983Y0058031D03*
X0273983Y0058335D03*
X0273983Y0058563D03*
X0273983Y0058867D03*
X0273983Y0059171D03*
X0273983Y0059399D03*
X0273983Y0059703D03*
X0273907Y0060463D03*
X0273907Y0060767D03*
X0273451Y0063199D03*
X0266611Y0063199D03*
X0253007Y0061831D03*
X0253007Y0061603D03*
X0239479Y0055371D03*
X0239479Y0055067D03*
X0226863Y0054003D03*
X0226635Y0055903D03*
X0211891Y0059171D03*
X0211891Y0059399D03*
X0211891Y0059703D03*
X0218427Y0062667D03*
X0226255Y0062971D03*
X0226331Y0062667D03*
X0246243Y0072699D03*
X0246243Y0080603D03*
X0246243Y0080831D03*
X0246243Y0081135D03*
X0246319Y0081363D03*
X0246319Y0081667D03*
X0246319Y0081971D03*
X0246319Y0082199D03*
X0238567Y0081667D03*
X0238567Y0081363D03*
X0238567Y0081135D03*
X0238567Y0085771D03*
X0238567Y0085999D03*
X0238567Y0086303D03*
X0238567Y0086531D03*
X0246167Y0087367D03*
X0252399Y0087063D03*
X0252399Y0086835D03*
X0259999Y0086531D03*
X0259999Y0086303D03*
X0274211Y0086835D03*
X0274211Y0087063D03*
X0281811Y0086531D03*
X0281811Y0086303D03*
X0287587Y0101503D03*
X0287587Y0101731D03*
X0279759Y0104467D03*
X0279759Y0104771D03*
X0279759Y0104999D03*
X0279759Y0105303D03*
X0279759Y0105531D03*
X0279759Y0105835D03*
X0279759Y0106063D03*
X0279759Y0106367D03*
X0279759Y0106671D03*
X0279759Y0106899D03*
X0295415Y0106899D03*
X0295415Y0106671D03*
X0295415Y0106367D03*
X0295415Y0106063D03*
X0295415Y0105835D03*
X0295415Y0105531D03*
X0295415Y0105303D03*
X0295415Y0104999D03*
X0295415Y0104771D03*
X0295415Y0104467D03*
X0239479Y0106899D03*
X0239479Y0107203D03*
X0239479Y0107431D03*
X0239479Y0107735D03*
X0239479Y0107963D03*
X0239479Y0108267D03*
X0239479Y0108571D03*
X0239479Y0108799D03*
X0239479Y0109103D03*
X0239479Y0109331D03*
X0239479Y0109635D03*
X0239479Y0109863D03*
X0238947Y0113435D03*
X0238947Y0103403D03*
X0232107Y0103403D03*
X0279759Y0056967D03*
X0279759Y0056663D03*
X0279759Y0056435D03*
X0279759Y0056131D03*
X0279759Y0055903D03*
X0279759Y0055599D03*
X0279759Y0055371D03*
X0279759Y0055067D03*
X0279759Y0054763D03*
X0279759Y0054535D03*
X0279759Y0054231D03*
X0287587Y0051571D03*
X0295415Y0054231D03*
X0295415Y0054535D03*
X0295415Y0054763D03*
X0295415Y0055067D03*
X0295415Y0055371D03*
X0295415Y0055599D03*
X0295415Y0055903D03*
X0295415Y0056131D03*
X0295415Y0056435D03*
X0295415Y0056663D03*
X0295415Y0056967D03*
X0224811Y0049899D03*
X0218123Y0050735D03*
X0218123Y0050963D03*
X0218047Y0050431D03*
D61*
X0217933Y0049899D03*
X0226521Y0056131D03*
X0211853Y0059931D03*
X0211853Y0060235D03*
X0218389Y0062135D03*
X0218389Y0062363D03*
X0218465Y0062971D03*
X0242785Y0069203D03*
X0238985Y0072471D03*
X0253045Y0062135D03*
X0260493Y0062135D03*
X0260645Y0061071D03*
X0260721Y0055903D03*
X0260721Y0055599D03*
X0260721Y0055371D03*
X0260645Y0054763D03*
X0260645Y0054535D03*
X0266649Y0053167D03*
X0273413Y0053167D03*
X0279797Y0053167D03*
X0279797Y0053471D03*
X0279797Y0053699D03*
X0279797Y0054003D03*
X0279797Y0052863D03*
X0279797Y0052635D03*
X0279797Y0052331D03*
X0279797Y0052103D03*
X0279797Y0051799D03*
X0279797Y0051571D03*
X0279797Y0051267D03*
X0295377Y0051267D03*
X0295377Y0051571D03*
X0295377Y0051799D03*
X0295377Y0052103D03*
X0295377Y0052331D03*
X0295377Y0052635D03*
X0295377Y0052863D03*
X0295377Y0053167D03*
X0295377Y0053471D03*
X0295377Y0053699D03*
X0295377Y0054003D03*
X0253045Y0054535D03*
X0247041Y0054003D03*
X0246965Y0053699D03*
X0239517Y0054763D03*
X0259961Y0086835D03*
X0274249Y0087367D03*
X0274249Y0087671D03*
X0275693Y0091471D03*
X0279797Y0101503D03*
X0279797Y0101731D03*
X0279797Y0102035D03*
X0279797Y0102263D03*
X0279797Y0102567D03*
X0279797Y0102871D03*
X0279797Y0103099D03*
X0279797Y0103403D03*
X0279797Y0103631D03*
X0279797Y0103935D03*
X0279797Y0104163D03*
X0273565Y0104163D03*
X0273489Y0103935D03*
X0266041Y0104771D03*
X0266041Y0104999D03*
X0259277Y0102871D03*
X0295377Y0102871D03*
X0295377Y0103099D03*
X0295377Y0103403D03*
X0295377Y0103631D03*
X0295377Y0103935D03*
X0295377Y0104163D03*
X0295377Y0102567D03*
X0295377Y0102263D03*
X0295377Y0102035D03*
X0295377Y0101731D03*
X0295377Y0101503D03*
D62*
X0257909Y0110395D03*
X0254109Y0090179D03*
X0219529Y0060159D03*
X0245369Y0051419D03*
X0270069Y0049975D03*
D63*
X0266459Y0053623D03*
X0266383Y0053851D03*
X0266383Y0053927D03*
X0273755Y0054307D03*
X0273755Y0054383D03*
X0287587Y0051191D03*
X0287587Y0051115D03*
X0287587Y0051039D03*
X0279683Y0060007D03*
X0279683Y0060083D03*
X0279683Y0060159D03*
X0279683Y0060311D03*
X0279683Y0060387D03*
X0279683Y0060539D03*
X0279683Y0060615D03*
X0279683Y0060691D03*
X0279683Y0060843D03*
X0279683Y0060919D03*
X0279683Y0060995D03*
X0279683Y0061147D03*
X0279683Y0061223D03*
X0279683Y0061375D03*
X0279683Y0061451D03*
X0279683Y0061527D03*
X0279683Y0061679D03*
X0279683Y0061755D03*
X0279683Y0061907D03*
X0279683Y0061983D03*
X0279683Y0062059D03*
X0279683Y0062211D03*
X0279683Y0062287D03*
X0279683Y0062439D03*
X0279683Y0062515D03*
X0279683Y0062591D03*
X0279683Y0062743D03*
X0279683Y0062819D03*
X0273755Y0062059D03*
X0273755Y0061983D03*
X0266459Y0062819D03*
X0266383Y0062591D03*
X0266383Y0062515D03*
X0266383Y0062439D03*
X0295491Y0062439D03*
X0295491Y0062515D03*
X0295491Y0062591D03*
X0295491Y0062743D03*
X0295491Y0062819D03*
X0295491Y0062287D03*
X0295491Y0062211D03*
X0295491Y0062059D03*
X0295491Y0061983D03*
X0295491Y0061907D03*
X0295491Y0061755D03*
X0295491Y0061679D03*
X0295491Y0061527D03*
X0295491Y0061451D03*
X0295491Y0061375D03*
X0295491Y0061223D03*
X0295491Y0061147D03*
X0295491Y0060995D03*
X0295491Y0060919D03*
X0295491Y0060843D03*
X0295491Y0060691D03*
X0295491Y0060615D03*
X0295491Y0060539D03*
X0295491Y0060387D03*
X0295491Y0060311D03*
X0295491Y0060159D03*
X0295491Y0060083D03*
X0295491Y0060007D03*
X0246319Y0073079D03*
X0246319Y0073155D03*
X0238719Y0073155D03*
X0238719Y0073307D03*
X0246319Y0085391D03*
X0246319Y0085543D03*
X0246319Y0085619D03*
X0246319Y0085695D03*
X0246319Y0085847D03*
X0246319Y0085923D03*
X0246319Y0086075D03*
X0246319Y0086151D03*
X0246319Y0086227D03*
X0253919Y0091547D03*
X0287587Y0101123D03*
X0287587Y0101275D03*
X0287587Y0101351D03*
X0287587Y0101427D03*
X0279683Y0110091D03*
X0279683Y0110243D03*
X0279683Y0110319D03*
X0279683Y0110395D03*
X0279683Y0110547D03*
X0279683Y0110623D03*
X0279683Y0110775D03*
X0279683Y0110851D03*
X0279683Y0110927D03*
X0279683Y0111079D03*
X0279683Y0111155D03*
X0279683Y0111307D03*
X0279683Y0111383D03*
X0279683Y0111459D03*
X0279683Y0111611D03*
X0279683Y0111687D03*
X0279683Y0111839D03*
X0279683Y0111915D03*
X0279683Y0111991D03*
X0279683Y0112143D03*
X0279683Y0112219D03*
X0279683Y0112295D03*
X0279683Y0112447D03*
X0279683Y0112523D03*
X0279683Y0112675D03*
X0279683Y0112751D03*
X0279683Y0112827D03*
X0279683Y0112979D03*
X0295491Y0112979D03*
X0295491Y0112827D03*
X0295491Y0112751D03*
X0295491Y0112675D03*
X0295491Y0112523D03*
X0295491Y0112447D03*
X0295491Y0112295D03*
X0295491Y0112219D03*
X0295491Y0112143D03*
X0295491Y0111991D03*
X0295491Y0111915D03*
X0295491Y0111839D03*
X0295491Y0111687D03*
X0295491Y0111611D03*
X0295491Y0111459D03*
X0295491Y0111383D03*
X0295491Y0111307D03*
X0295491Y0111155D03*
X0295491Y0111079D03*
X0295491Y0110927D03*
X0295491Y0110851D03*
X0295491Y0110775D03*
X0295491Y0110623D03*
X0295491Y0110547D03*
X0295491Y0110395D03*
X0295491Y0110319D03*
X0295491Y0110243D03*
X0295491Y0110091D03*
X0252323Y0105227D03*
X0239251Y0104543D03*
X0239251Y0104391D03*
X0239251Y0112219D03*
X0239251Y0112295D03*
X0231955Y0112979D03*
X0226787Y0055447D03*
X0245559Y0049975D03*
D64*
X0245331Y0051647D03*
X0270031Y0050051D03*
X0219643Y0060083D03*
X0222303Y0066619D03*
X0270031Y0066391D03*
D65*
X0266877Y0063579D03*
X0260265Y0062743D03*
X0245901Y0072243D03*
X0239213Y0072243D03*
X0245977Y0079539D03*
X0245901Y0087975D03*
X0259809Y0087595D03*
X0252893Y0102719D03*
X0252665Y0105683D03*
X0266193Y0104087D03*
X0273337Y0103555D03*
X0238681Y0113739D03*
X0232373Y0102947D03*
X0218693Y0063427D03*
X0218541Y0061451D03*
X0218541Y0061375D03*
X0211701Y0060995D03*
X0218541Y0054155D03*
X0218541Y0054079D03*
X0226597Y0053243D03*
X0226673Y0053395D03*
X0239669Y0053927D03*
X0246813Y0053395D03*
X0258897Y0050051D03*
D66*
X0266535Y0053395D03*
X0266611Y0053243D03*
X0266687Y0053091D03*
X0266155Y0055675D03*
X0266155Y0055751D03*
X0266155Y0055827D03*
X0266155Y0055979D03*
X0266079Y0056739D03*
X0266079Y0056815D03*
X0266079Y0056891D03*
X0266079Y0057043D03*
X0266079Y0057119D03*
X0266079Y0057195D03*
X0266079Y0057347D03*
X0266079Y0057423D03*
X0266079Y0057575D03*
X0266079Y0057651D03*
X0266079Y0057727D03*
X0266079Y0057879D03*
X0266079Y0057955D03*
X0266079Y0058107D03*
X0266079Y0058183D03*
X0266079Y0058259D03*
X0266079Y0058411D03*
X0266079Y0058487D03*
X0266079Y0058639D03*
X0266079Y0058715D03*
X0266079Y0058791D03*
X0266079Y0058943D03*
X0266079Y0059019D03*
X0266079Y0059095D03*
X0266079Y0059247D03*
X0266079Y0059323D03*
X0266079Y0059475D03*
X0266079Y0059551D03*
X0266079Y0059627D03*
X0266155Y0060539D03*
X0266155Y0060615D03*
X0266155Y0060691D03*
X0260759Y0059855D03*
X0260759Y0059779D03*
X0260759Y0059627D03*
X0260759Y0059551D03*
X0260759Y0059475D03*
X0260759Y0059323D03*
X0260759Y0059247D03*
X0260759Y0059095D03*
X0260759Y0059019D03*
X0260759Y0058943D03*
X0260759Y0058791D03*
X0260759Y0058715D03*
X0260759Y0058639D03*
X0260759Y0058487D03*
X0260759Y0058411D03*
X0260759Y0058259D03*
X0260759Y0058183D03*
X0260759Y0058107D03*
X0260759Y0057955D03*
X0260759Y0057879D03*
X0260759Y0057727D03*
X0260759Y0057651D03*
X0260759Y0057575D03*
X0260759Y0057423D03*
X0260759Y0057347D03*
X0260759Y0057195D03*
X0260759Y0057119D03*
X0260759Y0057043D03*
X0260759Y0056891D03*
X0260759Y0056815D03*
X0260759Y0056739D03*
X0260759Y0056587D03*
X0260759Y0056511D03*
X0260759Y0056359D03*
X0260759Y0056283D03*
X0260759Y0056207D03*
X0260759Y0056055D03*
X0260683Y0055219D03*
X0260683Y0055143D03*
X0260683Y0054991D03*
X0253007Y0054991D03*
X0253007Y0054915D03*
X0253007Y0054839D03*
X0253007Y0055143D03*
X0253007Y0055219D03*
X0247079Y0054839D03*
X0247079Y0054687D03*
X0247079Y0054611D03*
X0247079Y0054459D03*
X0247079Y0054383D03*
X0247079Y0054307D03*
X0239479Y0054915D03*
X0239479Y0054991D03*
X0239479Y0055143D03*
X0239479Y0055219D03*
X0239479Y0055295D03*
X0245559Y0050051D03*
X0226863Y0054079D03*
X0226863Y0054155D03*
X0226559Y0055979D03*
X0226559Y0056055D03*
X0211891Y0059247D03*
X0211891Y0059323D03*
X0211891Y0059475D03*
X0211891Y0059551D03*
X0211891Y0059627D03*
X0211891Y0059779D03*
X0211891Y0059855D03*
X0218427Y0062439D03*
X0218427Y0062515D03*
X0218427Y0062591D03*
X0226331Y0062743D03*
X0226331Y0062819D03*
X0226407Y0062287D03*
X0253007Y0061755D03*
X0253007Y0061679D03*
X0253007Y0061527D03*
X0260607Y0061527D03*
X0260607Y0061451D03*
X0260607Y0061375D03*
X0260683Y0060995D03*
X0260683Y0060919D03*
X0260683Y0060843D03*
X0260683Y0060691D03*
X0260683Y0060615D03*
X0260683Y0060539D03*
X0260683Y0060387D03*
X0260683Y0060311D03*
X0260683Y0060159D03*
X0260683Y0060083D03*
X0260683Y0060007D03*
X0266535Y0063047D03*
X0273527Y0063047D03*
X0273907Y0060691D03*
X0273907Y0060615D03*
X0273907Y0060539D03*
X0273907Y0060387D03*
X0273983Y0059627D03*
X0273983Y0059551D03*
X0273983Y0059475D03*
X0273983Y0059323D03*
X0273983Y0059247D03*
X0273983Y0059095D03*
X0273983Y0059019D03*
X0273983Y0058943D03*
X0273983Y0058791D03*
X0273983Y0058715D03*
X0273983Y0058639D03*
X0273983Y0058487D03*
X0273983Y0058411D03*
X0273983Y0058259D03*
X0273983Y0058183D03*
X0273983Y0058107D03*
X0273983Y0057955D03*
X0273983Y0057879D03*
X0273983Y0057727D03*
X0273983Y0057651D03*
X0273983Y0057575D03*
X0273983Y0057423D03*
X0273983Y0057347D03*
X0273983Y0057195D03*
X0273983Y0057119D03*
X0273983Y0057043D03*
X0273983Y0056891D03*
X0273983Y0056815D03*
X0273983Y0056739D03*
X0273907Y0055979D03*
X0273907Y0055827D03*
X0273907Y0055751D03*
X0273907Y0055675D03*
X0273527Y0053395D03*
X0273451Y0053243D03*
X0279759Y0054079D03*
X0279759Y0054155D03*
X0279759Y0054307D03*
X0279759Y0054383D03*
X0279759Y0054459D03*
X0279759Y0054611D03*
X0279759Y0054687D03*
X0279759Y0054839D03*
X0279759Y0054915D03*
X0279759Y0054991D03*
X0279759Y0055143D03*
X0279759Y0055219D03*
X0279759Y0055295D03*
X0279759Y0055447D03*
X0279759Y0055523D03*
X0279759Y0055675D03*
X0279759Y0055751D03*
X0279759Y0055827D03*
X0279759Y0055979D03*
X0279759Y0056055D03*
X0279759Y0056207D03*
X0279759Y0056283D03*
X0279759Y0056359D03*
X0279759Y0056511D03*
X0279759Y0056587D03*
X0279759Y0056739D03*
X0279759Y0056815D03*
X0279759Y0056891D03*
X0287587Y0051647D03*
X0287587Y0051495D03*
X0287587Y0051419D03*
X0287587Y0051343D03*
X0295415Y0054079D03*
X0295415Y0054155D03*
X0295415Y0054307D03*
X0295415Y0054383D03*
X0295415Y0054459D03*
X0295415Y0054611D03*
X0295415Y0054687D03*
X0295415Y0054839D03*
X0295415Y0054915D03*
X0295415Y0054991D03*
X0295415Y0055143D03*
X0295415Y0055219D03*
X0295415Y0055295D03*
X0295415Y0055447D03*
X0295415Y0055523D03*
X0295415Y0055675D03*
X0295415Y0055751D03*
X0295415Y0055827D03*
X0295415Y0055979D03*
X0295415Y0056055D03*
X0295415Y0056207D03*
X0295415Y0056283D03*
X0295415Y0056359D03*
X0295415Y0056511D03*
X0295415Y0056587D03*
X0295415Y0056739D03*
X0295415Y0056815D03*
X0295415Y0056891D03*
X0246243Y0072775D03*
X0246167Y0072623D03*
X0238947Y0072623D03*
X0238947Y0072547D03*
X0244419Y0076119D03*
X0246243Y0080679D03*
X0246243Y0080755D03*
X0246243Y0080907D03*
X0246243Y0080983D03*
X0246243Y0081059D03*
X0246319Y0081211D03*
X0246319Y0081287D03*
X0246319Y0081439D03*
X0246319Y0081515D03*
X0246319Y0081591D03*
X0246319Y0081743D03*
X0246319Y0081819D03*
X0246319Y0081895D03*
X0246319Y0082047D03*
X0246319Y0082123D03*
X0238567Y0081743D03*
X0238567Y0081591D03*
X0238567Y0081515D03*
X0238567Y0081439D03*
X0238567Y0081287D03*
X0238567Y0081211D03*
X0238567Y0081059D03*
X0238567Y0080983D03*
X0238567Y0085695D03*
X0238567Y0085847D03*
X0238567Y0085923D03*
X0238567Y0086075D03*
X0238567Y0086151D03*
X0238567Y0086227D03*
X0238567Y0086379D03*
X0238567Y0086455D03*
X0246167Y0087215D03*
X0246167Y0087291D03*
X0252399Y0087291D03*
X0252399Y0087215D03*
X0252399Y0087139D03*
X0252399Y0086987D03*
X0252399Y0086911D03*
X0252399Y0086759D03*
X0252399Y0086683D03*
X0259999Y0086683D03*
X0259999Y0086607D03*
X0259999Y0086455D03*
X0259999Y0086379D03*
X0259999Y0086227D03*
X0274211Y0086683D03*
X0274211Y0086759D03*
X0274211Y0086911D03*
X0274211Y0086987D03*
X0274211Y0087139D03*
X0274211Y0087215D03*
X0274211Y0087291D03*
X0281811Y0086683D03*
X0281811Y0086607D03*
X0281811Y0086455D03*
X0281811Y0086379D03*
X0281811Y0086227D03*
X0272083Y0100211D03*
X0287587Y0101579D03*
X0287587Y0101655D03*
X0287587Y0101807D03*
X0279759Y0104239D03*
X0279759Y0104315D03*
X0279759Y0104391D03*
X0279759Y0104543D03*
X0279759Y0104619D03*
X0279759Y0104695D03*
X0279759Y0104847D03*
X0279759Y0104923D03*
X0279759Y0105075D03*
X0279759Y0105151D03*
X0279759Y0105227D03*
X0279759Y0105379D03*
X0279759Y0105455D03*
X0279759Y0105607D03*
X0279759Y0105683D03*
X0279759Y0105759D03*
X0279759Y0105911D03*
X0279759Y0105987D03*
X0279759Y0106139D03*
X0279759Y0106215D03*
X0279759Y0106291D03*
X0279759Y0106443D03*
X0279759Y0106519D03*
X0279759Y0106595D03*
X0279759Y0106747D03*
X0279759Y0106823D03*
X0279759Y0106975D03*
X0279759Y0107051D03*
X0279759Y0107127D03*
X0295415Y0107127D03*
X0295415Y0107051D03*
X0295415Y0106975D03*
X0295415Y0106823D03*
X0295415Y0106747D03*
X0295415Y0106595D03*
X0295415Y0106519D03*
X0295415Y0106443D03*
X0295415Y0106291D03*
X0295415Y0106215D03*
X0295415Y0106139D03*
X0295415Y0105987D03*
X0295415Y0105911D03*
X0295415Y0105759D03*
X0295415Y0105683D03*
X0295415Y0105607D03*
X0295415Y0105455D03*
X0295415Y0105379D03*
X0295415Y0105227D03*
X0295415Y0105151D03*
X0295415Y0105075D03*
X0295415Y0104923D03*
X0295415Y0104847D03*
X0295415Y0104695D03*
X0295415Y0104619D03*
X0295415Y0104543D03*
X0295415Y0104391D03*
X0295415Y0104315D03*
X0295415Y0104239D03*
X0259467Y0111915D03*
X0259163Y0114119D03*
X0239479Y0109939D03*
X0239479Y0109787D03*
X0239479Y0109711D03*
X0239479Y0109559D03*
X0239479Y0109483D03*
X0239479Y0109407D03*
X0239479Y0109255D03*
X0239479Y0109179D03*
X0239479Y0109027D03*
X0239479Y0108951D03*
X0239479Y0108875D03*
X0239479Y0108723D03*
X0239479Y0108647D03*
X0239479Y0108495D03*
X0239479Y0108419D03*
X0239479Y0108343D03*
X0239479Y0108191D03*
X0239479Y0108115D03*
X0239479Y0108039D03*
X0239479Y0107887D03*
X0239479Y0107811D03*
X0239479Y0107659D03*
X0239479Y0107583D03*
X0239479Y0107507D03*
X0239479Y0107355D03*
X0239479Y0107279D03*
X0239479Y0107127D03*
X0239479Y0107051D03*
X0239479Y0106975D03*
X0239479Y0106823D03*
X0239023Y0103555D03*
X0238947Y0103327D03*
X0232107Y0103327D03*
X0232031Y0103479D03*
X0252399Y0105379D03*
X0239023Y0113207D03*
X0238947Y0113359D03*
X0232183Y0113511D03*
X0232107Y0113359D03*
X0218123Y0050887D03*
X0218123Y0050811D03*
X0218047Y0050583D03*
X0218047Y0050507D03*
X0218047Y0050355D03*
D67*
X0224773Y0050051D03*
X0218617Y0053775D03*
X0225761Y0057043D03*
X0218617Y0061223D03*
X0225913Y0063579D03*
X0253273Y0062819D03*
X0260189Y0062895D03*
X0267029Y0063655D03*
X0273033Y0063655D03*
X0273033Y0052787D03*
X0267029Y0052787D03*
X0260341Y0053395D03*
X0258897Y0050127D03*
X0253273Y0053547D03*
X0239745Y0053775D03*
X0238833Y0079539D03*
X0245825Y0079311D03*
X0252741Y0088279D03*
X0259733Y0087823D03*
X0244457Y0091243D03*
X0274553Y0088279D03*
X0281545Y0087823D03*
X0273261Y0103479D03*
X0259049Y0102719D03*
X0252741Y0105759D03*
X0238529Y0113815D03*
X0255933Y0117007D03*
D68*
X0257567Y0110091D03*
X0254299Y0107127D03*
X0281203Y0120883D03*
X0281203Y0120959D03*
X0281203Y0121111D03*
X0293971Y0121187D03*
X0293971Y0121339D03*
X0293971Y0121415D03*
X0293971Y0121491D03*
X0293971Y0071255D03*
X0293971Y0071179D03*
X0293971Y0071027D03*
X0281203Y0070951D03*
X0281203Y0070875D03*
X0281203Y0070723D03*
X0270031Y0050127D03*
D69*
X0253121Y0053927D03*
X0246889Y0053547D03*
X0245521Y0050127D03*
X0226217Y0056587D03*
X0218617Y0063275D03*
X0246053Y0072395D03*
X0246053Y0079691D03*
X0259885Y0087291D03*
X0252589Y0088051D03*
X0238757Y0103023D03*
X0259353Y0111687D03*
X0266117Y0104391D03*
X0260417Y0062439D03*
X0253121Y0062439D03*
D70*
X0217971Y0050127D03*
X0266003Y0105075D03*
X0266003Y0105151D03*
X0266003Y0105227D03*
X0266003Y0105379D03*
X0266003Y0105455D03*
X0273603Y0104923D03*
X0273603Y0104847D03*
X0273603Y0104695D03*
X0273603Y0104619D03*
X0273603Y0104543D03*
X0273603Y0104391D03*
X0239403Y0105911D03*
X0239403Y0105987D03*
X0239403Y0106139D03*
X0239403Y0106215D03*
X0239403Y0110623D03*
X0239403Y0110775D03*
X0239403Y0110851D03*
X0239403Y0110927D03*
D71*
X0254375Y0107203D03*
X0256047Y0100363D03*
X0235527Y0100363D03*
X0235527Y0116399D03*
X0281279Y0120199D03*
X0293895Y0120503D03*
X0293895Y0120731D03*
X0293895Y0070571D03*
X0281279Y0070267D03*
X0281279Y0069963D03*
X0270031Y0050203D03*
D72*
X0258897Y0050203D03*
D73*
X0260379Y0053471D03*
X0245559Y0050203D03*
X0218579Y0054003D03*
X0218579Y0061299D03*
X0244419Y0076271D03*
X0272083Y0100363D03*
X0287587Y0102567D03*
X0287587Y0102871D03*
X0287587Y0052635D03*
D74*
X0224773Y0050203D03*
X0218997Y0063731D03*
X0255933Y0116931D03*
D75*
X0239403Y0110699D03*
X0239403Y0106063D03*
X0239403Y0105835D03*
X0266003Y0105531D03*
X0266003Y0105303D03*
X0273603Y0104999D03*
X0273603Y0104771D03*
X0273603Y0104467D03*
X0238871Y0072699D03*
X0217971Y0050203D03*
D76*
X0270069Y0050279D03*
X0281393Y0068975D03*
X0281393Y0069051D03*
X0281393Y0069127D03*
X0293781Y0069279D03*
X0293781Y0069355D03*
X0293781Y0069507D03*
X0256009Y0100439D03*
X0235565Y0100439D03*
X0254565Y0107355D03*
X0257225Y0109787D03*
X0235565Y0116323D03*
X0281393Y0119059D03*
X0281393Y0119211D03*
X0281393Y0119287D03*
X0293781Y0119439D03*
X0293781Y0119515D03*
X0293781Y0119591D03*
D77*
X0258859Y0111155D03*
X0266459Y0103555D03*
X0272007Y0100591D03*
X0275731Y0091091D03*
X0258859Y0066011D03*
X0259999Y0063047D03*
X0253463Y0053243D03*
X0258859Y0050279D03*
X0239935Y0053395D03*
X0225343Y0057347D03*
X0218807Y0060919D03*
X0218807Y0053319D03*
D78*
X0218655Y0053623D03*
X0226483Y0053091D03*
X0239783Y0053623D03*
X0245559Y0050279D03*
X0218655Y0061147D03*
X0211587Y0061375D03*
X0225799Y0063655D03*
X0244419Y0076347D03*
X0270031Y0066847D03*
X0287587Y0053091D03*
X0287587Y0053015D03*
X0287587Y0052939D03*
X0287587Y0052787D03*
X0281507Y0087975D03*
X0275731Y0091243D03*
X0259695Y0087975D03*
X0245787Y0088127D03*
X0256047Y0099755D03*
X0266307Y0103783D03*
X0272083Y0100439D03*
X0287587Y0102947D03*
X0287587Y0103023D03*
X0287587Y0103175D03*
X0287587Y0103251D03*
X0259087Y0111383D03*
X0235527Y0117007D03*
D79*
X0272007Y0100743D03*
X0244343Y0076651D03*
X0224735Y0050279D03*
D80*
X0270031Y0050355D03*
X0270031Y0066087D03*
X0281507Y0067911D03*
X0281507Y0067987D03*
X0293667Y0068139D03*
X0293667Y0068215D03*
X0293667Y0068291D03*
X0293667Y0068443D03*
X0242747Y0069887D03*
X0254831Y0107583D03*
X0256959Y0109559D03*
X0281507Y0117995D03*
X0281507Y0118147D03*
X0281507Y0118223D03*
X0293667Y0118375D03*
X0293667Y0118451D03*
X0293667Y0118527D03*
D81*
X0258783Y0111079D03*
X0287587Y0104391D03*
X0287587Y0104315D03*
X0287587Y0104239D03*
X0287587Y0104087D03*
X0275731Y0091015D03*
X0281279Y0088279D03*
X0259467Y0088279D03*
X0244419Y0091015D03*
X0211359Y0061679D03*
X0218883Y0060843D03*
X0226255Y0052939D03*
X0240011Y0053319D03*
X0245483Y0050507D03*
X0258859Y0050355D03*
X0287587Y0053927D03*
X0287587Y0054079D03*
X0287587Y0054155D03*
D82*
X0253349Y0053395D03*
X0246661Y0053243D03*
X0239821Y0053547D03*
X0245521Y0050355D03*
X0225685Y0057119D03*
X0218693Y0053547D03*
X0211549Y0061451D03*
X0218845Y0063655D03*
X0242785Y0069279D03*
X0253349Y0062895D03*
X0252817Y0088355D03*
X0259657Y0088051D03*
X0253957Y0091243D03*
X0274629Y0088355D03*
X0272045Y0100515D03*
X0266345Y0103707D03*
D83*
X0272007Y0100819D03*
X0256047Y0099907D03*
X0253235Y0106215D03*
X0258631Y0110927D03*
X0244343Y0076727D03*
X0222303Y0066847D03*
X0224963Y0057575D03*
X0224735Y0050355D03*
X0245483Y0050659D03*
X0258859Y0050507D03*
X0258859Y0065707D03*
X0270031Y0066695D03*
D84*
X0242747Y0069963D03*
X0220175Y0059703D03*
X0270031Y0050431D03*
X0235527Y0116171D03*
D85*
X0287587Y0104467D03*
X0225115Y0057499D03*
X0258859Y0050431D03*
X0287587Y0054535D03*
D86*
X0287587Y0053699D03*
X0260151Y0053167D03*
X0245483Y0050431D03*
X0239023Y0079235D03*
X0281355Y0088203D03*
X0287587Y0103935D03*
D87*
X0242785Y0069431D03*
X0224697Y0050431D03*
D88*
X0220251Y0059627D03*
X0270031Y0050507D03*
X0255135Y0107887D03*
X0235527Y0116095D03*
D89*
X0275845Y0090559D03*
X0269993Y0066619D03*
X0258821Y0065479D03*
X0224697Y0050507D03*
D90*
X0287587Y0050583D03*
X0287587Y0050659D03*
X0287587Y0050811D03*
X0287587Y0050887D03*
X0287587Y0100743D03*
X0287587Y0100819D03*
X0287587Y0100895D03*
X0287587Y0101047D03*
X0259619Y0112295D03*
D91*
X0256275Y0108951D03*
X0256199Y0108875D03*
X0255439Y0108191D03*
X0255363Y0108115D03*
X0270031Y0065859D03*
X0270031Y0050583D03*
D92*
X0258859Y0050583D03*
X0287587Y0054991D03*
X0287587Y0055143D03*
X0287587Y0055219D03*
X0287587Y0055295D03*
X0253995Y0090787D03*
X0287587Y0105151D03*
X0287587Y0105227D03*
X0287587Y0105379D03*
X0287587Y0105455D03*
X0258479Y0110851D03*
D93*
X0253159Y0106139D03*
X0287587Y0104695D03*
X0287587Y0104619D03*
X0287587Y0104543D03*
X0253995Y0090939D03*
X0244419Y0090939D03*
X0258859Y0065859D03*
X0287587Y0054459D03*
X0287587Y0054383D03*
X0287587Y0054307D03*
X0245483Y0050583D03*
X0218959Y0053091D03*
X0211283Y0061755D03*
D94*
X0219301Y0060387D03*
X0224697Y0050583D03*
X0245445Y0051039D03*
X0242785Y0069507D03*
X0244381Y0090559D03*
X0275845Y0090407D03*
X0258213Y0110623D03*
D95*
X0235527Y0115943D03*
X0235527Y0100819D03*
X0242747Y0070115D03*
X0270031Y0065783D03*
X0270031Y0050659D03*
D96*
X0258897Y0050659D03*
X0245445Y0050811D03*
X0224697Y0057727D03*
X0244381Y0090711D03*
X0254033Y0090711D03*
X0255933Y0116779D03*
D97*
X0235565Y0100059D03*
X0254109Y0090407D03*
X0275845Y0090255D03*
X0219377Y0060311D03*
X0224697Y0050659D03*
D98*
X0287587Y0050735D03*
X0287587Y0100971D03*
X0259619Y0103403D03*
X0259619Y0112371D03*
D99*
X0270031Y0050735D03*
D100*
X0258859Y0050735D03*
X0287587Y0055371D03*
X0287587Y0055599D03*
X0219187Y0060463D03*
X0275807Y0090635D03*
X0287587Y0105531D03*
X0287587Y0105835D03*
X0253387Y0106367D03*
D101*
X0245445Y0050735D03*
D102*
X0224659Y0050735D03*
X0270031Y0066467D03*
X0287587Y0056967D03*
X0256047Y0100135D03*
X0271931Y0101503D03*
X0287587Y0107203D03*
X0258023Y0110471D03*
D103*
X0235527Y0115791D03*
X0270031Y0050811D03*
D104*
X0258859Y0050811D03*
X0287587Y0055751D03*
X0287587Y0055827D03*
X0287587Y0055979D03*
X0287587Y0056055D03*
X0287587Y0105911D03*
X0287587Y0105987D03*
X0287587Y0106139D03*
X0287587Y0106215D03*
D105*
X0244343Y0090179D03*
X0245331Y0051495D03*
X0224659Y0050811D03*
D106*
X0270031Y0050887D03*
X0270031Y0065555D03*
X0235527Y0101047D03*
X0235527Y0115715D03*
D107*
X0253615Y0106519D03*
X0256047Y0100059D03*
X0271931Y0101275D03*
X0254071Y0090483D03*
X0244343Y0090483D03*
X0245407Y0051115D03*
X0258859Y0050887D03*
D108*
X0245483Y0050887D03*
X0219187Y0052939D03*
X0258859Y0065555D03*
X0287587Y0055675D03*
X0287587Y0055523D03*
X0287587Y0055447D03*
X0256047Y0099983D03*
X0272007Y0101047D03*
X0287587Y0105607D03*
X0287587Y0105683D03*
X0287587Y0105759D03*
D109*
X0258821Y0051343D03*
X0224621Y0050887D03*
D110*
X0226787Y0055371D03*
X0266383Y0054003D03*
X0273755Y0054231D03*
X0287587Y0051267D03*
X0287587Y0050963D03*
X0279683Y0059931D03*
X0279683Y0060235D03*
X0279683Y0060463D03*
X0279683Y0060767D03*
X0279683Y0061071D03*
X0279683Y0061299D03*
X0279683Y0061603D03*
X0279683Y0061831D03*
X0279683Y0062135D03*
X0279683Y0062363D03*
X0279683Y0062667D03*
X0273755Y0062135D03*
X0295491Y0062135D03*
X0295491Y0062363D03*
X0295491Y0062667D03*
X0295491Y0061831D03*
X0295491Y0061603D03*
X0295491Y0061299D03*
X0295491Y0061071D03*
X0295491Y0060767D03*
X0295491Y0060463D03*
X0295491Y0060235D03*
X0295491Y0059931D03*
X0238719Y0073231D03*
X0246319Y0085467D03*
X0246319Y0085771D03*
X0246319Y0085999D03*
X0246319Y0086303D03*
X0272083Y0100135D03*
X0287587Y0101199D03*
X0279683Y0110167D03*
X0279683Y0110471D03*
X0279683Y0110699D03*
X0279683Y0111003D03*
X0279683Y0111231D03*
X0279683Y0111535D03*
X0279683Y0111763D03*
X0279683Y0112067D03*
X0279683Y0112371D03*
X0279683Y0112599D03*
X0279683Y0112903D03*
X0295491Y0112903D03*
X0295491Y0112599D03*
X0295491Y0112371D03*
X0295491Y0112067D03*
X0295491Y0111763D03*
X0295491Y0111535D03*
X0295491Y0111231D03*
X0295491Y0111003D03*
X0295491Y0110699D03*
X0295491Y0110471D03*
X0295491Y0110167D03*
X0239251Y0112371D03*
X0231955Y0112903D03*
X0239251Y0104467D03*
D111*
X0270031Y0050963D03*
D112*
X0258821Y0050963D03*
D113*
X0245445Y0050963D03*
X0244381Y0090635D03*
D114*
X0281089Y0071863D03*
X0294085Y0072167D03*
X0224621Y0050963D03*
X0281089Y0122099D03*
X0294085Y0122403D03*
D115*
X0235527Y0115487D03*
X0270031Y0065327D03*
X0270031Y0051039D03*
D116*
X0258859Y0051039D03*
X0287587Y0056511D03*
X0287587Y0056587D03*
X0287587Y0056739D03*
X0244343Y0090407D03*
X0271931Y0101351D03*
X0287587Y0106747D03*
X0287587Y0106823D03*
X0258099Y0110547D03*
X0253691Y0106595D03*
D117*
X0256009Y0100287D03*
X0235565Y0100287D03*
X0235565Y0116475D03*
X0281165Y0121187D03*
X0281165Y0121339D03*
X0281165Y0121415D03*
X0281165Y0121491D03*
X0294009Y0121643D03*
X0294009Y0121719D03*
X0294009Y0121795D03*
X0294009Y0071711D03*
X0294009Y0071559D03*
X0294009Y0071483D03*
X0294009Y0071407D03*
X0281165Y0071255D03*
X0281165Y0071179D03*
X0281165Y0071027D03*
X0269993Y0066315D03*
X0219757Y0060007D03*
X0224621Y0051039D03*
D118*
X0270069Y0051115D03*
D119*
X0258859Y0051115D03*
X0287587Y0056815D03*
X0287587Y0056891D03*
X0287587Y0057043D03*
X0287587Y0057119D03*
X0242747Y0069583D03*
X0244343Y0090255D03*
X0287587Y0106975D03*
X0287587Y0107051D03*
X0287587Y0107127D03*
X0287587Y0107279D03*
X0235527Y0116627D03*
D120*
X0257453Y0110015D03*
X0224621Y0051115D03*
D121*
X0270031Y0051191D03*
X0270031Y0065251D03*
X0255971Y0115411D03*
D122*
X0253881Y0106747D03*
X0271893Y0101579D03*
X0258821Y0051191D03*
D123*
X0245407Y0051191D03*
D124*
X0222151Y0051191D03*
D125*
X0270031Y0051267D03*
X0255971Y0115335D03*
X0235527Y0115335D03*
D126*
X0258821Y0051267D03*
D127*
X0245369Y0051267D03*
X0219453Y0060235D03*
X0244381Y0090331D03*
D128*
X0222189Y0051267D03*
D129*
X0220973Y0059019D03*
X0222265Y0065783D03*
X0242709Y0070647D03*
X0270069Y0051343D03*
X0256009Y0101427D03*
X0255933Y0115259D03*
X0235565Y0115259D03*
D130*
X0245407Y0051343D03*
D131*
X0222189Y0051343D03*
D132*
X0270031Y0051419D03*
X0270031Y0065023D03*
X0255971Y0115183D03*
D133*
X0235527Y0116551D03*
X0281051Y0122327D03*
X0281051Y0122479D03*
X0281051Y0122555D03*
X0287587Y0107811D03*
X0271855Y0101807D03*
X0256047Y0100211D03*
X0235527Y0100211D03*
X0254147Y0089951D03*
X0281051Y0072395D03*
X0281051Y0072319D03*
X0281051Y0072243D03*
X0242747Y0069659D03*
X0287587Y0057651D03*
X0287587Y0057575D03*
X0258783Y0051419D03*
D134*
X0222227Y0051419D03*
X0222227Y0051495D03*
D135*
X0270031Y0051495D03*
X0270031Y0064947D03*
X0235527Y0101655D03*
X0235527Y0115107D03*
D136*
X0257757Y0110243D03*
X0281089Y0121947D03*
X0281089Y0122023D03*
X0281089Y0122175D03*
X0281089Y0122251D03*
X0294085Y0122327D03*
X0294085Y0122479D03*
X0294085Y0122555D03*
X0294085Y0072395D03*
X0294085Y0072319D03*
X0294085Y0072243D03*
X0281089Y0072091D03*
X0281089Y0072015D03*
X0281089Y0071939D03*
X0281089Y0071787D03*
X0258821Y0051495D03*
D137*
X0270031Y0051571D03*
X0270031Y0064871D03*
X0235527Y0115031D03*
D138*
X0256579Y0051571D03*
D139*
X0245369Y0051571D03*
X0281013Y0072471D03*
X0244305Y0090103D03*
X0271893Y0101731D03*
X0281013Y0122631D03*
D140*
X0222341Y0051799D03*
X0222265Y0051571D03*
D141*
X0270031Y0051647D03*
X0270031Y0064719D03*
X0270031Y0064795D03*
X0242671Y0070875D03*
X0235527Y0101807D03*
X0235527Y0114955D03*
X0255971Y0114955D03*
D142*
X0269613Y0102111D03*
X0269613Y0101959D03*
X0269613Y0101883D03*
X0256389Y0089723D03*
X0256389Y0089647D03*
X0256617Y0064187D03*
X0256617Y0064111D03*
X0256617Y0051723D03*
X0256617Y0051647D03*
X0243089Y0051723D03*
X0243089Y0051875D03*
X0243089Y0051951D03*
D143*
X0222303Y0051647D03*
D144*
X0226787Y0053623D03*
X0218427Y0055143D03*
X0218427Y0055219D03*
X0218427Y0055295D03*
X0218427Y0055447D03*
X0218427Y0055523D03*
X0218427Y0055675D03*
X0218427Y0055751D03*
X0218427Y0055827D03*
X0218427Y0055979D03*
X0218427Y0056055D03*
X0218427Y0056207D03*
X0218427Y0056283D03*
X0218427Y0056359D03*
X0218427Y0056511D03*
X0218427Y0056587D03*
X0218427Y0056739D03*
X0218427Y0056815D03*
X0218427Y0056891D03*
X0218427Y0057043D03*
X0218427Y0057119D03*
X0218427Y0057195D03*
X0218427Y0057347D03*
X0218427Y0057423D03*
X0218427Y0057575D03*
X0218427Y0057651D03*
X0218427Y0057727D03*
X0211815Y0060311D03*
X0211815Y0060387D03*
X0211815Y0060539D03*
X0218427Y0061755D03*
X0218427Y0061907D03*
X0226255Y0056511D03*
X0239555Y0054459D03*
X0239555Y0054383D03*
X0246927Y0053623D03*
X0253083Y0054079D03*
X0253083Y0054155D03*
X0253083Y0054307D03*
X0253083Y0062211D03*
X0253083Y0062287D03*
X0260455Y0062287D03*
X0260455Y0062211D03*
X0258859Y0066391D03*
X0244419Y0076195D03*
X0246091Y0079843D03*
X0246091Y0079919D03*
X0259923Y0087139D03*
X0259923Y0087215D03*
X0252551Y0087975D03*
X0246091Y0087595D03*
X0246015Y0087747D03*
X0244419Y0091395D03*
X0256047Y0099679D03*
X0252779Y0102795D03*
X0266079Y0104543D03*
X0266079Y0104619D03*
X0266079Y0104695D03*
X0273451Y0103783D03*
X0273527Y0104011D03*
X0287587Y0102111D03*
X0287587Y0101959D03*
X0287587Y0101883D03*
X0274287Y0087747D03*
X0232183Y0103175D03*
X0259087Y0114195D03*
X0287587Y0051951D03*
X0287587Y0051875D03*
X0287587Y0051723D03*
D145*
X0270069Y0051723D03*
X0222265Y0065555D03*
X0221201Y0058791D03*
X0256009Y0101807D03*
X0256009Y0114879D03*
X0235565Y0114879D03*
D146*
X0222341Y0051723D03*
D147*
X0270031Y0051799D03*
X0270031Y0064567D03*
X0255971Y0114803D03*
X0235527Y0114803D03*
D148*
X0269613Y0102035D03*
X0256389Y0089799D03*
X0256617Y0064263D03*
X0256617Y0064035D03*
X0256617Y0051799D03*
X0243089Y0051799D03*
D149*
X0221277Y0058715D03*
X0222265Y0065479D03*
X0270069Y0051875D03*
X0256009Y0101883D03*
X0256009Y0114727D03*
X0235565Y0114727D03*
D150*
X0269651Y0102339D03*
X0269651Y0102187D03*
X0256351Y0089495D03*
X0256351Y0089419D03*
X0256351Y0089343D03*
X0256655Y0063959D03*
X0256655Y0063883D03*
X0256655Y0063807D03*
X0256655Y0063655D03*
X0256655Y0052027D03*
X0256655Y0051951D03*
X0256655Y0051875D03*
D151*
X0222379Y0051875D03*
X0222379Y0051951D03*
D152*
X0221315Y0058639D03*
X0270031Y0064415D03*
X0270031Y0064491D03*
X0270031Y0051951D03*
X0256047Y0101959D03*
X0235527Y0102111D03*
X0235527Y0114575D03*
X0235527Y0114651D03*
D153*
X0287587Y0102491D03*
X0287587Y0102415D03*
X0287587Y0102339D03*
X0287587Y0102187D03*
X0287587Y0052255D03*
X0287587Y0052179D03*
X0287587Y0052027D03*
D154*
X0270069Y0052027D03*
X0222265Y0065327D03*
X0256009Y0114575D03*
D155*
X0242215Y0089419D03*
X0242215Y0089343D03*
X0242215Y0078247D03*
X0242215Y0078095D03*
X0278163Y0089343D03*
X0278163Y0089419D03*
X0278163Y0089495D03*
X0222303Y0064187D03*
X0222303Y0064111D03*
X0243127Y0052179D03*
X0243127Y0052027D03*
D156*
X0222417Y0052027D03*
X0222417Y0052179D03*
D157*
X0287587Y0052103D03*
X0287587Y0052331D03*
X0287587Y0102263D03*
D158*
X0235527Y0102263D03*
X0235527Y0114499D03*
X0270031Y0064263D03*
X0270031Y0052103D03*
X0221391Y0058563D03*
D159*
X0243165Y0052331D03*
X0256693Y0052103D03*
X0256693Y0063503D03*
X0256313Y0089267D03*
X0278125Y0089267D03*
X0269689Y0102567D03*
D160*
X0278163Y0089571D03*
X0242215Y0089267D03*
X0242215Y0078171D03*
X0222303Y0064263D03*
X0243127Y0052103D03*
D161*
X0222417Y0052103D03*
D162*
X0270031Y0052179D03*
X0270031Y0064339D03*
X0235527Y0102187D03*
X0235527Y0114423D03*
D163*
X0269689Y0102719D03*
X0269689Y0102643D03*
X0269689Y0102491D03*
X0269689Y0102415D03*
X0278125Y0089191D03*
X0278125Y0089115D03*
X0278125Y0089039D03*
X0256313Y0089039D03*
X0256313Y0089115D03*
X0256313Y0089191D03*
X0256693Y0063579D03*
X0256693Y0063427D03*
X0256693Y0063351D03*
X0256693Y0063275D03*
X0256693Y0052255D03*
X0256693Y0052179D03*
X0243165Y0052255D03*
X0243165Y0052407D03*
X0243165Y0052483D03*
X0243165Y0052559D03*
D164*
X0270031Y0052255D03*
X0270031Y0064111D03*
X0270031Y0064187D03*
X0235527Y0102415D03*
X0255971Y0114347D03*
D165*
X0222455Y0052483D03*
X0222455Y0052407D03*
X0222455Y0052255D03*
D166*
X0270031Y0052331D03*
X0235527Y0114271D03*
D167*
X0269727Y0103099D03*
X0269727Y0102871D03*
X0256275Y0088963D03*
X0256275Y0088735D03*
X0256731Y0063199D03*
X0243203Y0052863D03*
X0243203Y0052635D03*
X0256731Y0052635D03*
X0256731Y0052331D03*
X0222303Y0064035D03*
D168*
X0222455Y0052331D03*
D169*
X0218579Y0053851D03*
X0218579Y0053927D03*
X0225951Y0056891D03*
X0211663Y0061147D03*
X0211663Y0061223D03*
X0258859Y0066239D03*
X0260227Y0062819D03*
X0287587Y0052711D03*
X0287587Y0052559D03*
X0287587Y0052483D03*
X0287587Y0052407D03*
X0245863Y0079387D03*
X0238795Y0079615D03*
X0238795Y0087823D03*
X0245863Y0088051D03*
X0253919Y0091319D03*
X0281583Y0087747D03*
X0287587Y0102643D03*
X0287587Y0102719D03*
X0287587Y0102795D03*
X0259163Y0111459D03*
X0232487Y0113815D03*
D170*
X0235565Y0114195D03*
X0256009Y0102415D03*
X0256009Y0102339D03*
X0242633Y0071407D03*
X0222265Y0065175D03*
X0221505Y0058411D03*
X0270069Y0052407D03*
D171*
X0256731Y0052407D03*
X0256731Y0052483D03*
X0256731Y0052559D03*
X0243203Y0052711D03*
X0243203Y0052787D03*
X0243203Y0052939D03*
X0243203Y0053015D03*
X0256731Y0063123D03*
X0222303Y0063883D03*
X0222303Y0063959D03*
X0256275Y0088583D03*
X0256275Y0088659D03*
X0256275Y0088811D03*
X0256275Y0088887D03*
X0269727Y0102795D03*
X0269727Y0102947D03*
X0269727Y0103023D03*
X0269727Y0103175D03*
D172*
X0270031Y0063959D03*
X0270031Y0063883D03*
X0270031Y0052559D03*
X0270031Y0052483D03*
D173*
X0222493Y0052559D03*
D174*
X0270031Y0052635D03*
X0270031Y0063731D03*
D175*
X0222531Y0052635D03*
D176*
X0221619Y0058259D03*
X0242595Y0071559D03*
X0270031Y0052711D03*
X0235527Y0102795D03*
X0235527Y0113891D03*
D177*
X0269765Y0103327D03*
X0269765Y0103251D03*
X0256237Y0088507D03*
X0222341Y0063807D03*
X0243241Y0053091D03*
X0256769Y0053091D03*
X0256769Y0053015D03*
X0256769Y0052939D03*
X0256769Y0052787D03*
X0256769Y0052711D03*
D178*
X0222531Y0052711D03*
X0222531Y0052787D03*
D179*
X0218655Y0053699D03*
X0258859Y0066163D03*
X0287587Y0052863D03*
X0287587Y0103099D03*
D180*
X0281621Y0087671D03*
X0225989Y0063503D03*
X0273185Y0052863D03*
D181*
X0266877Y0052863D03*
X0253197Y0053699D03*
X0239669Y0054003D03*
X0218541Y0054231D03*
X0211701Y0061071D03*
X0253197Y0062667D03*
X0260341Y0062667D03*
X0259809Y0087671D03*
X0252665Y0088203D03*
X0274477Y0088203D03*
X0266193Y0104163D03*
X0259201Y0111535D03*
D182*
X0256237Y0088431D03*
X0256769Y0052863D03*
X0243241Y0053167D03*
D183*
X0222569Y0052863D03*
D184*
X0226407Y0053015D03*
X0225571Y0057195D03*
X0211511Y0061527D03*
X0258859Y0066087D03*
X0260227Y0053243D03*
X0238947Y0079311D03*
X0259011Y0111307D03*
D185*
X0266383Y0103631D03*
X0287587Y0103631D03*
X0287587Y0103403D03*
X0253387Y0062971D03*
X0287587Y0053471D03*
X0287587Y0053167D03*
D186*
X0253577Y0053167D03*
X0218921Y0060767D03*
X0253045Y0106063D03*
D187*
X0238529Y0102871D03*
X0232525Y0102871D03*
X0238833Y0087899D03*
X0259733Y0087899D03*
X0281545Y0087899D03*
X0238833Y0079463D03*
X0211625Y0061299D03*
X0226521Y0053167D03*
X0239745Y0053699D03*
X0253273Y0053471D03*
D188*
X0253387Y0053319D03*
X0287587Y0053319D03*
X0287587Y0053395D03*
X0287587Y0053243D03*
X0244419Y0076423D03*
X0287587Y0103327D03*
X0287587Y0103479D03*
X0287587Y0103555D03*
D189*
X0259353Y0088355D03*
X0240125Y0053243D03*
D190*
X0218845Y0053243D03*
X0253957Y0091091D03*
D191*
X0260037Y0086151D03*
X0260037Y0086075D03*
X0260037Y0085923D03*
X0260037Y0085847D03*
X0260037Y0085695D03*
X0260037Y0085619D03*
X0260037Y0085543D03*
X0260037Y0085391D03*
X0260037Y0085315D03*
X0260037Y0085239D03*
X0260037Y0085087D03*
X0260037Y0085011D03*
X0260037Y0084859D03*
X0260037Y0084783D03*
X0260037Y0084707D03*
X0260037Y0084555D03*
X0260037Y0084479D03*
X0260037Y0084327D03*
X0260037Y0084251D03*
X0260037Y0084175D03*
X0260037Y0084023D03*
X0260037Y0083947D03*
X0260037Y0083795D03*
X0260037Y0083719D03*
X0260037Y0083643D03*
X0260037Y0083491D03*
X0260037Y0083415D03*
X0260037Y0083339D03*
X0260037Y0083187D03*
X0260037Y0083111D03*
X0260037Y0082959D03*
X0260037Y0082883D03*
X0260037Y0082807D03*
X0260037Y0082655D03*
X0260037Y0082579D03*
X0260037Y0082427D03*
X0260037Y0082351D03*
X0260037Y0082275D03*
X0260037Y0082123D03*
X0260037Y0082047D03*
X0260037Y0081895D03*
X0260037Y0081819D03*
X0260037Y0081743D03*
X0260037Y0081591D03*
X0260037Y0081515D03*
X0260037Y0081439D03*
X0260037Y0081287D03*
X0260037Y0081211D03*
X0260037Y0081059D03*
X0260037Y0080983D03*
X0260037Y0080907D03*
X0260037Y0080755D03*
X0260037Y0080679D03*
X0260037Y0080527D03*
X0260037Y0080451D03*
X0260037Y0080375D03*
X0260037Y0080223D03*
X0260037Y0080147D03*
X0260037Y0079995D03*
X0260037Y0079919D03*
X0260037Y0079843D03*
X0260037Y0079691D03*
X0260037Y0079615D03*
X0260037Y0079539D03*
X0260037Y0079387D03*
X0260037Y0079311D03*
X0260037Y0079159D03*
X0260037Y0079083D03*
X0260037Y0079007D03*
X0260037Y0078855D03*
X0260037Y0078779D03*
X0260037Y0078627D03*
X0260037Y0078551D03*
X0260037Y0078475D03*
X0260037Y0078323D03*
X0260037Y0078247D03*
X0260037Y0078095D03*
X0260037Y0078019D03*
X0260037Y0077943D03*
X0260037Y0077791D03*
X0260037Y0077715D03*
X0260037Y0077639D03*
X0260037Y0077487D03*
X0260037Y0077411D03*
X0260037Y0077259D03*
X0260037Y0077183D03*
X0260037Y0077107D03*
X0260037Y0076955D03*
X0260037Y0076879D03*
X0260037Y0076727D03*
X0260037Y0076651D03*
X0260037Y0076575D03*
X0260037Y0076423D03*
X0260037Y0076347D03*
X0260037Y0076195D03*
X0260037Y0076119D03*
X0260037Y0076043D03*
X0260037Y0075891D03*
X0260037Y0075815D03*
X0260037Y0075739D03*
X0260037Y0075587D03*
X0260037Y0075511D03*
X0260037Y0075359D03*
X0260037Y0075283D03*
X0260037Y0075207D03*
X0260037Y0075055D03*
X0260037Y0074979D03*
X0260037Y0074827D03*
X0260037Y0074751D03*
X0252969Y0072395D03*
X0252969Y0072319D03*
X0252969Y0072243D03*
X0252969Y0072091D03*
X0252969Y0072015D03*
X0252969Y0071939D03*
X0252969Y0071787D03*
X0252969Y0071711D03*
X0252969Y0071559D03*
X0252969Y0071483D03*
X0252969Y0071407D03*
X0252969Y0071255D03*
X0252969Y0071179D03*
X0252969Y0071027D03*
X0252969Y0070951D03*
X0252969Y0070875D03*
X0252969Y0070723D03*
X0252969Y0070647D03*
X0252969Y0070495D03*
X0252969Y0070419D03*
X0252969Y0070343D03*
X0252969Y0070191D03*
X0252969Y0070115D03*
X0252969Y0070039D03*
X0252969Y0069887D03*
X0252969Y0069811D03*
X0252969Y0069659D03*
X0252969Y0069583D03*
X0252969Y0069507D03*
X0252969Y0069355D03*
X0252969Y0069279D03*
X0252969Y0069127D03*
X0252969Y0069051D03*
X0252969Y0068975D03*
X0252969Y0068823D03*
X0252969Y0068747D03*
X0252969Y0068595D03*
X0252969Y0068519D03*
X0252969Y0068443D03*
X0252969Y0068291D03*
X0252969Y0068215D03*
X0252969Y0068139D03*
X0252969Y0067987D03*
X0252969Y0067911D03*
X0252969Y0067759D03*
X0252969Y0067683D03*
X0252969Y0067607D03*
X0252969Y0067455D03*
X0252969Y0067379D03*
X0252969Y0067227D03*
X0252969Y0067151D03*
X0252969Y0067075D03*
X0252969Y0066923D03*
X0252969Y0066847D03*
X0252969Y0066695D03*
X0252969Y0066619D03*
X0252969Y0066543D03*
X0252969Y0066391D03*
X0252969Y0066315D03*
X0252969Y0066239D03*
X0252969Y0066087D03*
X0252969Y0066011D03*
X0252969Y0065859D03*
X0252969Y0065783D03*
X0252969Y0065707D03*
X0252969Y0065555D03*
X0252969Y0065479D03*
X0252969Y0065327D03*
X0252969Y0061451D03*
X0252969Y0061375D03*
X0252969Y0061223D03*
X0252969Y0061147D03*
X0252969Y0060995D03*
X0252969Y0056283D03*
X0252969Y0056207D03*
X0252969Y0056055D03*
X0252969Y0055979D03*
X0252969Y0055827D03*
X0252969Y0055751D03*
X0252969Y0055675D03*
X0252969Y0055523D03*
X0252969Y0055447D03*
X0252969Y0055295D03*
X0239441Y0055447D03*
X0239441Y0055523D03*
X0239441Y0055675D03*
X0239441Y0055751D03*
X0239441Y0055827D03*
X0239441Y0055979D03*
X0239441Y0056055D03*
X0239441Y0056207D03*
X0239441Y0056283D03*
X0239441Y0056359D03*
X0239441Y0056511D03*
X0239441Y0056587D03*
X0239441Y0056739D03*
X0239441Y0056815D03*
X0239441Y0056891D03*
X0239441Y0057043D03*
X0239441Y0057119D03*
X0239441Y0057195D03*
X0239441Y0057347D03*
X0239441Y0057423D03*
X0239441Y0057575D03*
X0239441Y0057651D03*
X0239441Y0057727D03*
X0239441Y0057879D03*
X0239441Y0057955D03*
X0239441Y0058107D03*
X0239441Y0058183D03*
X0239441Y0058259D03*
X0239441Y0058411D03*
X0239441Y0058487D03*
X0239441Y0058639D03*
X0239441Y0058715D03*
X0239441Y0058791D03*
X0239441Y0058943D03*
X0239441Y0059019D03*
X0239441Y0059095D03*
X0239441Y0059247D03*
X0239441Y0059323D03*
X0239441Y0059475D03*
X0239441Y0059551D03*
X0239441Y0059627D03*
X0239441Y0059779D03*
X0239441Y0059855D03*
X0239441Y0060007D03*
X0239441Y0060083D03*
X0239441Y0060159D03*
X0239441Y0060311D03*
X0239441Y0060387D03*
X0239441Y0060539D03*
X0239441Y0060615D03*
X0239441Y0060691D03*
X0239441Y0060843D03*
X0239441Y0060919D03*
X0239441Y0060995D03*
X0239441Y0061147D03*
X0239441Y0061223D03*
X0239441Y0061375D03*
X0239441Y0061451D03*
X0239441Y0061527D03*
X0239441Y0061679D03*
X0239441Y0061755D03*
X0239441Y0061907D03*
X0239441Y0061983D03*
X0239441Y0062059D03*
X0239441Y0062211D03*
X0239441Y0062287D03*
X0239441Y0062439D03*
X0239441Y0062515D03*
X0239441Y0062591D03*
X0239441Y0062743D03*
X0239441Y0062819D03*
X0239441Y0062895D03*
X0239441Y0063047D03*
X0239441Y0063123D03*
X0239441Y0063275D03*
X0239441Y0063351D03*
X0239441Y0063427D03*
X0239441Y0063579D03*
X0239441Y0063655D03*
X0239441Y0063807D03*
X0239441Y0063883D03*
X0239441Y0063959D03*
X0239441Y0064111D03*
X0239441Y0064187D03*
X0239441Y0064339D03*
X0239441Y0064415D03*
X0239441Y0064491D03*
X0239441Y0064643D03*
X0239441Y0064719D03*
X0239441Y0064795D03*
X0239441Y0064947D03*
X0239441Y0065023D03*
X0239441Y0065175D03*
X0239441Y0065251D03*
X0239441Y0065327D03*
X0239441Y0065479D03*
X0239441Y0065555D03*
X0239441Y0065707D03*
X0239441Y0065783D03*
X0239441Y0065859D03*
X0239441Y0066011D03*
X0239441Y0066087D03*
X0239441Y0066239D03*
X0239441Y0066315D03*
X0239441Y0066391D03*
X0239441Y0066543D03*
X0239441Y0066619D03*
X0239441Y0066695D03*
X0226369Y0062591D03*
X0226369Y0062515D03*
X0226369Y0062439D03*
X0226673Y0055827D03*
X0226673Y0055751D03*
X0226901Y0054839D03*
X0226901Y0054687D03*
X0226901Y0054611D03*
X0226901Y0054459D03*
X0226901Y0054383D03*
X0226901Y0054307D03*
X0266269Y0054459D03*
X0266269Y0054611D03*
X0266269Y0054687D03*
X0266573Y0053319D03*
X0273565Y0053547D03*
X0273641Y0053775D03*
X0273869Y0054991D03*
X0273869Y0055143D03*
X0273869Y0055219D03*
X0273869Y0055295D03*
X0273869Y0055447D03*
X0273869Y0055523D03*
X0273869Y0060843D03*
X0273869Y0060919D03*
X0273869Y0060995D03*
X0273869Y0061147D03*
X0273869Y0061223D03*
X0273869Y0061375D03*
X0273869Y0061451D03*
X0273641Y0062591D03*
X0273565Y0062895D03*
X0266573Y0063123D03*
X0266269Y0061983D03*
X0266269Y0061907D03*
X0266269Y0061755D03*
X0266269Y0061679D03*
X0238833Y0072775D03*
X0238833Y0072851D03*
X0238605Y0073915D03*
X0274173Y0074751D03*
X0274173Y0074827D03*
X0274173Y0074979D03*
X0274173Y0075055D03*
X0274173Y0075207D03*
X0274173Y0075283D03*
X0274173Y0075359D03*
X0274173Y0075511D03*
X0274173Y0075587D03*
X0274173Y0075739D03*
X0274173Y0075815D03*
X0274173Y0075891D03*
X0274173Y0076043D03*
X0274173Y0076119D03*
X0274173Y0076195D03*
X0274173Y0076347D03*
X0274173Y0076423D03*
X0274173Y0076575D03*
X0274173Y0076651D03*
X0274173Y0076727D03*
X0274173Y0076879D03*
X0274173Y0076955D03*
X0274173Y0077107D03*
X0274173Y0077183D03*
X0274173Y0077259D03*
X0274173Y0077411D03*
X0274173Y0077487D03*
X0274173Y0077639D03*
X0274173Y0077715D03*
X0274173Y0077791D03*
X0274173Y0077943D03*
X0274173Y0078019D03*
X0274173Y0078095D03*
X0274173Y0078247D03*
X0274173Y0078323D03*
X0274173Y0078475D03*
X0274173Y0078551D03*
X0274173Y0078627D03*
X0274173Y0078779D03*
X0274173Y0078855D03*
X0274173Y0079007D03*
X0274173Y0079083D03*
X0274173Y0079159D03*
X0274173Y0079311D03*
X0274173Y0079387D03*
X0274173Y0079539D03*
X0274173Y0079615D03*
X0274173Y0079691D03*
X0274173Y0079843D03*
X0274173Y0079919D03*
X0274173Y0079995D03*
X0274173Y0080147D03*
X0274173Y0080223D03*
X0274173Y0080375D03*
X0274173Y0080451D03*
X0274173Y0080527D03*
X0274173Y0080679D03*
X0274173Y0080755D03*
X0274173Y0080907D03*
X0274173Y0080983D03*
X0274173Y0081059D03*
X0274173Y0081211D03*
X0274173Y0081287D03*
X0274173Y0081439D03*
X0274173Y0081515D03*
X0274173Y0081591D03*
X0274173Y0081743D03*
X0274173Y0081819D03*
X0274173Y0081895D03*
X0274173Y0082047D03*
X0274173Y0082123D03*
X0274173Y0082275D03*
X0274173Y0082351D03*
X0274173Y0082427D03*
X0274173Y0082579D03*
X0274173Y0082655D03*
X0274173Y0082807D03*
X0274173Y0082883D03*
X0274173Y0082959D03*
X0274173Y0083111D03*
X0274173Y0083187D03*
X0274173Y0083339D03*
X0274173Y0083415D03*
X0274173Y0083491D03*
X0274173Y0083643D03*
X0274173Y0083719D03*
X0274173Y0083795D03*
X0274173Y0083947D03*
X0274173Y0084023D03*
X0274173Y0084175D03*
X0274173Y0084251D03*
X0274173Y0084327D03*
X0274173Y0084479D03*
X0274173Y0084555D03*
X0274173Y0084707D03*
X0274173Y0084783D03*
X0274173Y0084859D03*
X0274173Y0085011D03*
X0274173Y0085087D03*
X0274173Y0085239D03*
X0274173Y0085315D03*
X0274173Y0085391D03*
X0274173Y0085543D03*
X0274173Y0085619D03*
X0274173Y0085695D03*
X0274173Y0085847D03*
X0274173Y0085923D03*
X0274173Y0086075D03*
X0274173Y0086151D03*
X0274173Y0086227D03*
X0274173Y0086379D03*
X0274173Y0086455D03*
X0274173Y0086607D03*
X0246205Y0086911D03*
X0246205Y0086987D03*
X0246205Y0087139D03*
X0246205Y0099907D03*
X0246205Y0099983D03*
X0246205Y0100059D03*
X0246205Y0100211D03*
X0246205Y0100287D03*
X0246205Y0100439D03*
X0246205Y0100515D03*
X0246205Y0100591D03*
X0246205Y0100743D03*
X0246205Y0100819D03*
X0246205Y0100895D03*
X0246205Y0101047D03*
X0246205Y0101123D03*
X0246205Y0101275D03*
X0246205Y0101351D03*
X0246205Y0101427D03*
X0246205Y0101579D03*
X0246205Y0101655D03*
X0246205Y0101807D03*
X0246205Y0101883D03*
X0246205Y0101959D03*
X0246205Y0102111D03*
X0246205Y0102187D03*
X0246205Y0102339D03*
X0246205Y0102415D03*
X0246205Y0102491D03*
X0246205Y0102643D03*
X0246205Y0102719D03*
X0246205Y0102795D03*
X0246205Y0102947D03*
X0246205Y0103023D03*
X0246205Y0103175D03*
X0246205Y0103251D03*
X0246205Y0103327D03*
X0246205Y0103479D03*
X0246205Y0103555D03*
X0246205Y0103707D03*
X0246205Y0103783D03*
X0246205Y0103859D03*
X0246205Y0104011D03*
X0246205Y0104087D03*
X0246205Y0104239D03*
X0246205Y0104315D03*
X0246205Y0104391D03*
X0246205Y0104543D03*
X0246205Y0104619D03*
X0246205Y0104695D03*
X0246205Y0104847D03*
X0246205Y0104923D03*
X0246205Y0105075D03*
X0246205Y0105151D03*
X0246205Y0105227D03*
X0246205Y0105379D03*
X0246205Y0105455D03*
X0246205Y0105607D03*
X0246205Y0105683D03*
X0246205Y0105759D03*
X0246205Y0105911D03*
X0246205Y0105987D03*
X0246205Y0106139D03*
X0246205Y0106215D03*
X0246205Y0106291D03*
X0246205Y0106443D03*
X0246205Y0106519D03*
X0246205Y0106595D03*
X0246205Y0106747D03*
X0246205Y0106823D03*
X0246205Y0106975D03*
X0246205Y0107051D03*
X0246205Y0107127D03*
X0246205Y0107279D03*
X0246205Y0107355D03*
X0246205Y0107507D03*
X0246205Y0107583D03*
X0246205Y0107659D03*
X0246205Y0107811D03*
X0246205Y0107887D03*
X0246205Y0108039D03*
X0246205Y0108115D03*
X0246205Y0108191D03*
X0246205Y0108343D03*
X0246205Y0108419D03*
X0246205Y0108495D03*
X0246205Y0108647D03*
X0246205Y0108723D03*
X0246205Y0108875D03*
X0246205Y0108951D03*
X0246205Y0109027D03*
X0246205Y0109179D03*
X0246205Y0109255D03*
X0246205Y0109407D03*
X0246205Y0109483D03*
X0246205Y0109559D03*
X0246205Y0109711D03*
X0246205Y0109787D03*
X0246205Y0109939D03*
X0246205Y0110015D03*
X0246205Y0110091D03*
X0246205Y0110243D03*
X0246205Y0110319D03*
X0246205Y0110395D03*
X0246205Y0110547D03*
X0246205Y0110623D03*
X0246205Y0110775D03*
X0246205Y0110851D03*
X0246205Y0110927D03*
X0246205Y0111079D03*
X0246205Y0111155D03*
X0246205Y0111307D03*
X0246205Y0111383D03*
X0246205Y0111459D03*
X0246205Y0111611D03*
X0246205Y0111687D03*
X0246205Y0111839D03*
X0246205Y0111915D03*
X0246205Y0111991D03*
X0246205Y0112143D03*
X0246205Y0112219D03*
X0246205Y0112295D03*
X0246205Y0112447D03*
X0246205Y0112523D03*
X0246205Y0112675D03*
X0246205Y0112751D03*
X0246205Y0112827D03*
X0246205Y0112979D03*
X0246205Y0113055D03*
X0246205Y0113207D03*
X0246205Y0113283D03*
X0246205Y0113359D03*
X0246205Y0113511D03*
X0246205Y0113587D03*
X0246205Y0113739D03*
X0246205Y0113815D03*
X0246205Y0113891D03*
X0246205Y0114043D03*
X0246205Y0114119D03*
X0246205Y0114195D03*
X0246205Y0114347D03*
X0246205Y0114423D03*
X0246205Y0114575D03*
X0246205Y0114651D03*
X0246205Y0114727D03*
X0246205Y0114879D03*
X0246205Y0114955D03*
X0246205Y0115107D03*
X0246205Y0115183D03*
X0246205Y0115259D03*
X0246205Y0115411D03*
X0246205Y0115487D03*
X0246205Y0115639D03*
X0246205Y0115715D03*
X0246205Y0115791D03*
X0246205Y0115943D03*
X0246205Y0116019D03*
X0246205Y0116095D03*
X0246205Y0116247D03*
X0246205Y0116323D03*
X0246205Y0116475D03*
X0246205Y0116551D03*
X0246205Y0116627D03*
X0246205Y0116779D03*
X0246205Y0116855D03*
X0246205Y0118679D03*
X0246205Y0118755D03*
X0246205Y0118907D03*
X0246205Y0118983D03*
X0246205Y0119059D03*
X0246205Y0119211D03*
X0246205Y0119287D03*
X0246205Y0119439D03*
X0246205Y0119515D03*
X0246205Y0119591D03*
X0246205Y0119743D03*
X0246205Y0119819D03*
X0246205Y0119895D03*
X0246205Y0120047D03*
X0246205Y0120123D03*
X0246205Y0120275D03*
X0246205Y0120351D03*
X0246205Y0120427D03*
X0246205Y0120579D03*
X0246205Y0120655D03*
X0246205Y0120807D03*
X0246205Y0120883D03*
X0246205Y0120959D03*
X0246205Y0121111D03*
X0246205Y0121187D03*
X0246205Y0121339D03*
X0246205Y0121415D03*
X0246205Y0121491D03*
X0246205Y0121643D03*
X0246205Y0121719D03*
X0246205Y0121795D03*
X0246205Y0121947D03*
X0246205Y0122023D03*
X0246205Y0122175D03*
X0246205Y0122251D03*
X0246205Y0122327D03*
X0246205Y0122479D03*
X0246205Y0122555D03*
X0246205Y0122707D03*
X0246205Y0122783D03*
X0265965Y0116855D03*
X0265965Y0116779D03*
X0265965Y0116627D03*
X0265965Y0116551D03*
X0265965Y0116475D03*
X0265965Y0116323D03*
X0265965Y0116247D03*
X0265965Y0116095D03*
X0265965Y0116019D03*
X0265965Y0115943D03*
X0265965Y0115791D03*
X0265965Y0115715D03*
X0265965Y0115639D03*
X0265965Y0115487D03*
X0265965Y0115411D03*
X0265965Y0115259D03*
X0265965Y0115183D03*
X0265965Y0115107D03*
X0265965Y0114955D03*
X0265965Y0114879D03*
X0265965Y0114727D03*
X0265965Y0114651D03*
X0265965Y0114575D03*
X0265965Y0114423D03*
X0265965Y0114347D03*
X0265965Y0114195D03*
X0265965Y0114119D03*
X0265965Y0114043D03*
X0265965Y0113891D03*
X0265965Y0113815D03*
X0265965Y0113739D03*
X0265965Y0113587D03*
X0265965Y0113511D03*
X0265965Y0113359D03*
X0265965Y0113283D03*
X0265965Y0113207D03*
X0265965Y0113055D03*
X0265965Y0112979D03*
X0265965Y0112827D03*
X0265965Y0112751D03*
X0265965Y0112675D03*
X0265965Y0112523D03*
X0265965Y0112447D03*
X0265965Y0112295D03*
X0265965Y0112219D03*
X0265965Y0112143D03*
X0265965Y0111991D03*
X0265965Y0111915D03*
X0265965Y0111839D03*
X0265965Y0111687D03*
X0265965Y0111611D03*
X0265965Y0111459D03*
X0265965Y0111383D03*
X0265965Y0111307D03*
X0265965Y0111155D03*
X0265965Y0111079D03*
X0265965Y0110927D03*
X0265965Y0110851D03*
X0265965Y0110775D03*
X0265965Y0110623D03*
X0265965Y0110547D03*
X0265965Y0110395D03*
X0265965Y0110319D03*
X0265965Y0110243D03*
X0265965Y0110091D03*
X0265965Y0110015D03*
X0265965Y0109939D03*
X0265965Y0109787D03*
X0265965Y0109711D03*
X0265965Y0109559D03*
X0265965Y0109483D03*
X0265965Y0109407D03*
X0265965Y0109255D03*
X0265965Y0109179D03*
X0265965Y0109027D03*
X0265965Y0108951D03*
X0265965Y0108875D03*
X0265965Y0108723D03*
X0265965Y0108647D03*
X0265965Y0108495D03*
X0265965Y0108419D03*
X0265965Y0108343D03*
X0265965Y0108191D03*
X0265965Y0108115D03*
X0265965Y0108039D03*
X0265965Y0107887D03*
X0265965Y0107811D03*
X0265965Y0107659D03*
X0265965Y0107583D03*
X0265965Y0107507D03*
X0265965Y0107355D03*
X0265965Y0107279D03*
X0265965Y0107127D03*
X0265965Y0107051D03*
X0265965Y0106975D03*
X0265965Y0106823D03*
X0265965Y0106747D03*
X0265965Y0106595D03*
X0265965Y0106519D03*
X0265965Y0106443D03*
X0265965Y0106291D03*
X0265965Y0106215D03*
X0265965Y0106139D03*
X0265965Y0105987D03*
X0265965Y0105911D03*
X0265965Y0105759D03*
X0265965Y0105683D03*
X0265965Y0105607D03*
X0273641Y0105607D03*
X0273641Y0105683D03*
X0273641Y0105759D03*
X0273641Y0105911D03*
X0273641Y0105987D03*
X0273641Y0106139D03*
X0273641Y0106215D03*
X0273641Y0106291D03*
X0273641Y0106443D03*
X0273641Y0106519D03*
X0273641Y0106595D03*
X0273641Y0106747D03*
X0273641Y0106823D03*
X0273641Y0106975D03*
X0273641Y0107051D03*
X0273641Y0107127D03*
X0273641Y0107279D03*
X0273641Y0107355D03*
X0273641Y0107507D03*
X0273641Y0107583D03*
X0273641Y0107659D03*
X0273641Y0107811D03*
X0273641Y0107887D03*
X0273641Y0108039D03*
X0273641Y0108115D03*
X0273641Y0108191D03*
X0273641Y0108343D03*
X0273641Y0108419D03*
X0273641Y0108495D03*
X0273641Y0108647D03*
X0273641Y0108723D03*
X0273641Y0108875D03*
X0273641Y0108951D03*
X0273641Y0109027D03*
X0273641Y0109179D03*
X0273641Y0109255D03*
X0273641Y0109407D03*
X0273641Y0109483D03*
X0273641Y0109559D03*
X0273641Y0109711D03*
X0273641Y0109787D03*
X0273641Y0109939D03*
X0273641Y0110015D03*
X0273641Y0110091D03*
X0273641Y0110243D03*
X0273641Y0110319D03*
X0273641Y0110395D03*
X0273641Y0110547D03*
X0273641Y0110623D03*
X0273641Y0110775D03*
X0273641Y0110851D03*
X0273641Y0110927D03*
X0273641Y0111079D03*
X0273641Y0111155D03*
X0273641Y0111307D03*
X0273641Y0111383D03*
X0273641Y0111459D03*
X0273641Y0111611D03*
X0273641Y0111687D03*
X0273641Y0111839D03*
X0273641Y0111915D03*
X0273641Y0111991D03*
X0273641Y0112143D03*
X0273641Y0112219D03*
X0273641Y0112295D03*
X0273641Y0112447D03*
X0273641Y0112523D03*
X0273641Y0112675D03*
X0273641Y0112751D03*
X0273641Y0112827D03*
X0273641Y0112979D03*
X0273641Y0113055D03*
X0273641Y0113207D03*
X0273641Y0113283D03*
X0273641Y0113359D03*
X0273641Y0113511D03*
X0273641Y0113587D03*
X0273641Y0113739D03*
X0273641Y0113815D03*
X0273641Y0113891D03*
X0273641Y0114043D03*
X0273641Y0114119D03*
X0273641Y0114195D03*
X0273641Y0114347D03*
X0273641Y0114423D03*
X0273641Y0114575D03*
X0273641Y0114651D03*
X0273641Y0114727D03*
X0273641Y0114879D03*
X0273641Y0114955D03*
X0273641Y0115107D03*
X0273641Y0115183D03*
X0273641Y0115259D03*
X0273641Y0115411D03*
X0273641Y0115487D03*
X0273641Y0115639D03*
X0273641Y0115715D03*
X0273641Y0115791D03*
X0273641Y0115943D03*
X0273641Y0116019D03*
X0273641Y0116095D03*
X0273641Y0116247D03*
X0273641Y0116323D03*
X0273641Y0116475D03*
X0273641Y0116551D03*
X0273641Y0116627D03*
X0273641Y0116779D03*
X0273641Y0116855D03*
X0259505Y0111991D03*
X0239441Y0110547D03*
X0239441Y0110395D03*
X0239441Y0110319D03*
X0239441Y0110243D03*
X0239441Y0110091D03*
X0239441Y0110015D03*
X0239365Y0111079D03*
X0239365Y0111155D03*
X0239365Y0111307D03*
X0239365Y0111383D03*
X0239365Y0111459D03*
X0239365Y0111611D03*
X0239137Y0112827D03*
X0232069Y0113283D03*
X0239441Y0106747D03*
X0239441Y0106595D03*
X0239441Y0106519D03*
X0239441Y0106443D03*
X0239441Y0106291D03*
X0239365Y0105759D03*
X0239365Y0105683D03*
X0239365Y0105607D03*
X0239365Y0105455D03*
X0239365Y0105379D03*
X0239365Y0105227D03*
X0239365Y0105151D03*
X0239137Y0103859D03*
X0231841Y0104239D03*
X0273641Y0105075D03*
X0273641Y0105151D03*
X0273641Y0105227D03*
X0273641Y0105379D03*
X0273641Y0105455D03*
D192*
X0238871Y0087975D03*
X0260303Y0053319D03*
D193*
X0246737Y0053319D03*
X0218769Y0063579D03*
X0292337Y0074751D03*
X0292337Y0074827D03*
X0292337Y0074979D03*
X0292337Y0075055D03*
X0292337Y0075207D03*
X0292337Y0075283D03*
X0292337Y0075359D03*
X0292337Y0075511D03*
X0292337Y0075587D03*
X0292337Y0075739D03*
X0292337Y0075815D03*
X0292337Y0075891D03*
X0292337Y0076043D03*
X0292337Y0076119D03*
X0292337Y0076195D03*
X0292337Y0076347D03*
X0292337Y0076423D03*
X0292337Y0076575D03*
X0292337Y0076651D03*
X0292337Y0076727D03*
X0292337Y0076879D03*
X0292337Y0076955D03*
X0292337Y0077107D03*
X0292337Y0077183D03*
X0292337Y0077259D03*
X0292337Y0077411D03*
X0292337Y0077487D03*
X0292337Y0077639D03*
X0292337Y0077715D03*
X0292337Y0077791D03*
X0292337Y0077943D03*
X0292337Y0078019D03*
X0292337Y0078095D03*
X0292337Y0078247D03*
X0292337Y0078323D03*
X0292337Y0078475D03*
X0292337Y0078551D03*
X0292337Y0078627D03*
X0292337Y0078779D03*
X0292337Y0078855D03*
X0292337Y0079007D03*
X0292337Y0079083D03*
X0292337Y0079159D03*
X0292337Y0079311D03*
X0292337Y0079387D03*
X0292337Y0079539D03*
X0292337Y0079615D03*
X0292337Y0079691D03*
X0292337Y0079843D03*
X0292337Y0079919D03*
X0292337Y0079995D03*
X0292337Y0080147D03*
X0292337Y0080223D03*
X0292337Y0080375D03*
X0292337Y0080451D03*
X0292337Y0080527D03*
X0292337Y0080679D03*
X0292337Y0080755D03*
X0292337Y0080907D03*
X0292337Y0080983D03*
X0292337Y0081059D03*
X0292337Y0081211D03*
X0292337Y0081287D03*
X0292337Y0081439D03*
X0292337Y0081515D03*
X0292337Y0081591D03*
X0292337Y0081743D03*
X0292337Y0081819D03*
X0292337Y0081895D03*
X0292337Y0082047D03*
X0292337Y0082123D03*
X0292337Y0082275D03*
X0292337Y0082351D03*
X0292337Y0082427D03*
X0292337Y0082579D03*
X0292337Y0082655D03*
X0292337Y0082807D03*
X0292337Y0082883D03*
X0292337Y0082959D03*
X0292337Y0083111D03*
X0292337Y0083187D03*
X0292337Y0083339D03*
X0292337Y0083415D03*
X0292337Y0083491D03*
X0292337Y0083643D03*
X0292337Y0083719D03*
X0292337Y0083795D03*
X0292337Y0083947D03*
X0292337Y0084023D03*
X0292337Y0084175D03*
X0292337Y0084251D03*
X0292337Y0084327D03*
X0292337Y0084479D03*
X0292337Y0084555D03*
X0292337Y0084707D03*
X0292337Y0084783D03*
X0292337Y0084859D03*
X0292337Y0085011D03*
X0292337Y0085087D03*
X0292337Y0085239D03*
X0292337Y0085315D03*
X0292337Y0085391D03*
X0292337Y0085543D03*
X0292337Y0085619D03*
X0292337Y0085695D03*
X0292337Y0085847D03*
X0292337Y0085923D03*
X0292337Y0086075D03*
X0292337Y0086151D03*
X0292337Y0086227D03*
X0292337Y0086379D03*
X0292337Y0086455D03*
X0292337Y0086607D03*
X0292337Y0086683D03*
X0292337Y0086759D03*
X0292337Y0086911D03*
X0292337Y0086987D03*
X0292337Y0087139D03*
X0292337Y0087215D03*
X0292337Y0087291D03*
X0292337Y0087443D03*
X0292337Y0087519D03*
X0292337Y0087595D03*
X0292337Y0087747D03*
X0292337Y0087823D03*
X0292337Y0087975D03*
X0292337Y0088051D03*
X0292337Y0088127D03*
X0292337Y0088279D03*
X0292337Y0088355D03*
X0292337Y0088507D03*
X0292337Y0088583D03*
X0292337Y0088659D03*
X0292337Y0088811D03*
X0292337Y0088887D03*
X0292337Y0089039D03*
X0292337Y0089115D03*
X0292337Y0089191D03*
X0292337Y0089343D03*
X0292337Y0089419D03*
X0292337Y0089495D03*
X0292337Y0089647D03*
X0292337Y0089723D03*
X0292337Y0089875D03*
X0292337Y0089951D03*
X0292337Y0090027D03*
X0292337Y0090179D03*
X0292337Y0090255D03*
X0292337Y0090407D03*
X0292337Y0090483D03*
X0292337Y0090559D03*
X0292337Y0090711D03*
X0292337Y0090787D03*
X0292337Y0090939D03*
X0292337Y0091015D03*
X0292337Y0091091D03*
X0292337Y0091243D03*
X0292337Y0091319D03*
X0292337Y0091395D03*
X0292337Y0091547D03*
X0292337Y0091623D03*
X0292337Y0091775D03*
X0292337Y0091851D03*
X0292337Y0091927D03*
X0292337Y0092079D03*
X0292337Y0092155D03*
X0292337Y0092307D03*
X0292337Y0092383D03*
X0292337Y0092459D03*
X0292337Y0092611D03*
X0292337Y0092687D03*
X0292337Y0092839D03*
X0292337Y0092915D03*
X0292337Y0092991D03*
X0292337Y0093143D03*
X0266269Y0103859D03*
D194*
X0266155Y0104239D03*
X0266155Y0104315D03*
X0252627Y0105607D03*
X0238643Y0102947D03*
X0259239Y0111611D03*
X0253919Y0091395D03*
X0252627Y0088127D03*
X0259847Y0087519D03*
X0259847Y0087443D03*
X0274439Y0088127D03*
X0281659Y0087519D03*
X0281659Y0087443D03*
X0275731Y0091395D03*
X0238719Y0087595D03*
X0238719Y0079919D03*
X0238719Y0079843D03*
X0246015Y0079615D03*
X0246015Y0072319D03*
X0258859Y0066315D03*
X0260379Y0062591D03*
X0260379Y0062515D03*
X0253159Y0062515D03*
X0253159Y0062591D03*
X0253159Y0053851D03*
X0253159Y0053775D03*
X0260455Y0053623D03*
X0239631Y0054079D03*
X0239631Y0054155D03*
X0226635Y0053319D03*
X0218503Y0054307D03*
X0218503Y0054383D03*
X0218503Y0054459D03*
X0226103Y0056739D03*
X0211739Y0060843D03*
X0211739Y0060919D03*
X0218503Y0061527D03*
X0218655Y0063351D03*
X0226027Y0063427D03*
D195*
X0222265Y0066923D03*
X0218769Y0060995D03*
X0218769Y0053395D03*
X0245673Y0079159D03*
X0238985Y0088127D03*
X0244457Y0091091D03*
X0259581Y0088127D03*
X0281393Y0088127D03*
X0252893Y0105911D03*
D196*
X0246205Y0105835D03*
X0246205Y0106063D03*
X0246205Y0106367D03*
X0246205Y0106671D03*
X0246205Y0106899D03*
X0246205Y0107203D03*
X0246205Y0107431D03*
X0246205Y0107735D03*
X0246205Y0107963D03*
X0246205Y0108267D03*
X0246205Y0108571D03*
X0246205Y0108799D03*
X0246205Y0109103D03*
X0246205Y0109331D03*
X0246205Y0109635D03*
X0246205Y0109863D03*
X0246205Y0110167D03*
X0246205Y0110471D03*
X0246205Y0110699D03*
X0246205Y0111003D03*
X0246205Y0111231D03*
X0246205Y0111535D03*
X0246205Y0111763D03*
X0246205Y0112067D03*
X0246205Y0112371D03*
X0246205Y0112599D03*
X0246205Y0112903D03*
X0246205Y0113131D03*
X0246205Y0113435D03*
X0246205Y0113663D03*
X0246205Y0113967D03*
X0246205Y0114271D03*
X0246205Y0114499D03*
X0246205Y0114803D03*
X0246205Y0115031D03*
X0246205Y0115335D03*
X0246205Y0115563D03*
X0246205Y0115867D03*
X0246205Y0116171D03*
X0246205Y0116399D03*
X0246205Y0116703D03*
X0246205Y0116931D03*
X0246205Y0118831D03*
X0246205Y0119135D03*
X0246205Y0119363D03*
X0246205Y0119667D03*
X0246205Y0119971D03*
X0246205Y0120199D03*
X0246205Y0120503D03*
X0246205Y0120731D03*
X0246205Y0121035D03*
X0246205Y0121263D03*
X0246205Y0121567D03*
X0246205Y0121871D03*
X0246205Y0122099D03*
X0246205Y0122403D03*
X0246205Y0122631D03*
X0265965Y0116931D03*
X0265965Y0116703D03*
X0265965Y0116399D03*
X0265965Y0116171D03*
X0265965Y0115867D03*
X0265965Y0115563D03*
X0265965Y0115335D03*
X0265965Y0115031D03*
X0265965Y0114803D03*
X0265965Y0114499D03*
X0265965Y0114271D03*
X0265965Y0113967D03*
X0265965Y0113663D03*
X0265965Y0113435D03*
X0265965Y0113131D03*
X0265965Y0112903D03*
X0265965Y0112599D03*
X0265965Y0112371D03*
X0265965Y0112067D03*
X0265965Y0111763D03*
X0265965Y0111535D03*
X0265965Y0111231D03*
X0265965Y0111003D03*
X0265965Y0110699D03*
X0265965Y0110471D03*
X0265965Y0110167D03*
X0265965Y0109863D03*
X0265965Y0109635D03*
X0265965Y0109331D03*
X0265965Y0109103D03*
X0265965Y0108799D03*
X0265965Y0108571D03*
X0265965Y0108267D03*
X0265965Y0107963D03*
X0265965Y0107735D03*
X0265965Y0107431D03*
X0265965Y0107203D03*
X0265965Y0106899D03*
X0265965Y0106671D03*
X0265965Y0106367D03*
X0265965Y0106063D03*
X0265965Y0105835D03*
X0273641Y0105835D03*
X0273641Y0106063D03*
X0273641Y0106367D03*
X0273641Y0106671D03*
X0273641Y0106899D03*
X0273641Y0107203D03*
X0273641Y0107431D03*
X0273641Y0107735D03*
X0273641Y0107963D03*
X0273641Y0108267D03*
X0273641Y0108571D03*
X0273641Y0108799D03*
X0273641Y0109103D03*
X0273641Y0109331D03*
X0273641Y0109635D03*
X0273641Y0109863D03*
X0273641Y0110167D03*
X0273641Y0110471D03*
X0273641Y0110699D03*
X0273641Y0111003D03*
X0273641Y0111231D03*
X0273641Y0111535D03*
X0273641Y0111763D03*
X0273641Y0112067D03*
X0273641Y0112371D03*
X0273641Y0112599D03*
X0273641Y0112903D03*
X0273641Y0113131D03*
X0273641Y0113435D03*
X0273641Y0113663D03*
X0273641Y0113967D03*
X0273641Y0114271D03*
X0273641Y0114499D03*
X0273641Y0114803D03*
X0273641Y0115031D03*
X0273641Y0115335D03*
X0273641Y0115563D03*
X0273641Y0115867D03*
X0273641Y0116171D03*
X0273641Y0116399D03*
X0273641Y0116703D03*
X0273641Y0116931D03*
X0273641Y0105531D03*
X0273641Y0105303D03*
X0252665Y0102871D03*
X0246205Y0102871D03*
X0246205Y0103099D03*
X0246205Y0103403D03*
X0246205Y0103631D03*
X0246205Y0103935D03*
X0246205Y0104163D03*
X0246205Y0104467D03*
X0246205Y0104771D03*
X0246205Y0104999D03*
X0246205Y0105303D03*
X0246205Y0105531D03*
X0239441Y0106367D03*
X0239441Y0106671D03*
X0239365Y0105531D03*
X0239365Y0105303D03*
X0239137Y0103935D03*
X0246205Y0102567D03*
X0246205Y0102263D03*
X0246205Y0102035D03*
X0246205Y0101731D03*
X0246205Y0101503D03*
X0246205Y0101199D03*
X0246205Y0100971D03*
X0246205Y0100667D03*
X0246205Y0100363D03*
X0246205Y0100135D03*
X0246205Y0099831D03*
X0239441Y0110167D03*
X0239441Y0110471D03*
X0239365Y0111003D03*
X0239365Y0111231D03*
X0239365Y0111535D03*
X0239137Y0112903D03*
X0246205Y0087063D03*
X0260037Y0085999D03*
X0260037Y0085771D03*
X0260037Y0085467D03*
X0260037Y0085163D03*
X0260037Y0084935D03*
X0260037Y0084631D03*
X0260037Y0084403D03*
X0260037Y0084099D03*
X0260037Y0083871D03*
X0260037Y0083567D03*
X0260037Y0083263D03*
X0260037Y0083035D03*
X0260037Y0082731D03*
X0260037Y0082503D03*
X0260037Y0082199D03*
X0260037Y0081971D03*
X0260037Y0081667D03*
X0260037Y0081363D03*
X0260037Y0081135D03*
X0260037Y0080831D03*
X0260037Y0080603D03*
X0260037Y0080299D03*
X0260037Y0080071D03*
X0260037Y0079767D03*
X0260037Y0079463D03*
X0260037Y0079235D03*
X0260037Y0078931D03*
X0260037Y0078703D03*
X0260037Y0078399D03*
X0260037Y0078171D03*
X0260037Y0077867D03*
X0260037Y0077563D03*
X0260037Y0077335D03*
X0260037Y0077031D03*
X0260037Y0076803D03*
X0260037Y0076499D03*
X0260037Y0076271D03*
X0260037Y0075967D03*
X0260037Y0075663D03*
X0260037Y0075435D03*
X0260037Y0075131D03*
X0260037Y0074903D03*
X0252969Y0072471D03*
X0252969Y0072167D03*
X0252969Y0071863D03*
X0252969Y0071635D03*
X0252969Y0071331D03*
X0252969Y0071103D03*
X0252969Y0070799D03*
X0252969Y0070571D03*
X0252969Y0070267D03*
X0252969Y0069963D03*
X0252969Y0069735D03*
X0252969Y0069431D03*
X0252969Y0069203D03*
X0252969Y0068899D03*
X0252969Y0068671D03*
X0252969Y0068367D03*
X0252969Y0068063D03*
X0252969Y0067835D03*
X0252969Y0067531D03*
X0252969Y0067303D03*
X0252969Y0066999D03*
X0252969Y0066771D03*
X0252969Y0066467D03*
X0252969Y0066163D03*
X0252969Y0065935D03*
X0252969Y0065631D03*
X0252969Y0065403D03*
X0252969Y0061299D03*
X0252969Y0061071D03*
X0239441Y0061071D03*
X0239441Y0061299D03*
X0239441Y0061603D03*
X0239441Y0061831D03*
X0239441Y0062135D03*
X0239441Y0062363D03*
X0239441Y0062667D03*
X0239441Y0062971D03*
X0239441Y0063199D03*
X0239441Y0063503D03*
X0239441Y0063731D03*
X0239441Y0064035D03*
X0239441Y0064263D03*
X0239441Y0064567D03*
X0239441Y0064871D03*
X0239441Y0065099D03*
X0239441Y0065403D03*
X0239441Y0065631D03*
X0239441Y0065935D03*
X0239441Y0066163D03*
X0239441Y0066467D03*
X0239441Y0066771D03*
X0226369Y0062363D03*
X0239441Y0060767D03*
X0239441Y0060463D03*
X0239441Y0060235D03*
X0239441Y0059931D03*
X0239441Y0059703D03*
X0239441Y0059399D03*
X0239441Y0059171D03*
X0239441Y0058867D03*
X0239441Y0058563D03*
X0239441Y0058335D03*
X0239441Y0058031D03*
X0239441Y0057803D03*
X0239441Y0057499D03*
X0239441Y0057271D03*
X0239441Y0056967D03*
X0239441Y0056663D03*
X0239441Y0056435D03*
X0239441Y0056131D03*
X0239441Y0055903D03*
X0239441Y0055599D03*
X0252969Y0055599D03*
X0252969Y0055371D03*
X0252969Y0055903D03*
X0252969Y0056131D03*
X0266269Y0054763D03*
X0266269Y0054535D03*
X0273565Y0053471D03*
X0273641Y0053699D03*
X0273869Y0055067D03*
X0273869Y0055371D03*
X0273869Y0055599D03*
X0273869Y0061071D03*
X0273869Y0061299D03*
X0273641Y0062667D03*
X0273565Y0062971D03*
X0266269Y0061831D03*
X0274173Y0074903D03*
X0274173Y0075131D03*
X0274173Y0075435D03*
X0274173Y0075663D03*
X0274173Y0075967D03*
X0274173Y0076271D03*
X0274173Y0076499D03*
X0274173Y0076803D03*
X0274173Y0077031D03*
X0274173Y0077335D03*
X0274173Y0077563D03*
X0274173Y0077867D03*
X0274173Y0078171D03*
X0274173Y0078399D03*
X0274173Y0078703D03*
X0274173Y0078931D03*
X0274173Y0079235D03*
X0274173Y0079463D03*
X0274173Y0079767D03*
X0274173Y0080071D03*
X0274173Y0080299D03*
X0274173Y0080603D03*
X0274173Y0080831D03*
X0274173Y0081135D03*
X0274173Y0081363D03*
X0274173Y0081667D03*
X0274173Y0081971D03*
X0274173Y0082199D03*
X0274173Y0082503D03*
X0274173Y0082731D03*
X0274173Y0083035D03*
X0274173Y0083263D03*
X0274173Y0083567D03*
X0274173Y0083871D03*
X0274173Y0084099D03*
X0274173Y0084403D03*
X0274173Y0084631D03*
X0274173Y0084935D03*
X0274173Y0085163D03*
X0274173Y0085467D03*
X0274173Y0085771D03*
X0274173Y0085999D03*
X0274173Y0086303D03*
X0274173Y0086531D03*
X0226901Y0054763D03*
X0226901Y0054535D03*
X0226901Y0054231D03*
D197*
X0226711Y0053471D03*
X0218503Y0054535D03*
X0246851Y0053471D03*
X0260455Y0053699D03*
X0222303Y0066999D03*
X0238719Y0079767D03*
X0238719Y0087671D03*
X0245939Y0087899D03*
X0273375Y0103631D03*
X0258935Y0114271D03*
D198*
X0275731Y0091167D03*
X0218731Y0061071D03*
X0218731Y0053471D03*
X0239859Y0053471D03*
D199*
X0287587Y0053547D03*
X0287587Y0053623D03*
X0287587Y0053775D03*
X0287587Y0053851D03*
X0287587Y0103707D03*
X0287587Y0103783D03*
X0287587Y0103859D03*
X0287587Y0104011D03*
D200*
X0244457Y0091319D03*
X0238757Y0087747D03*
X0238757Y0079691D03*
X0281621Y0087595D03*
X0273185Y0063579D03*
X0260417Y0053547D03*
X0225989Y0056815D03*
D201*
X0226863Y0055143D03*
X0226863Y0054991D03*
X0226863Y0054915D03*
X0252931Y0056359D03*
X0252931Y0056511D03*
X0252931Y0056587D03*
X0252931Y0056739D03*
X0252931Y0056815D03*
X0252931Y0056891D03*
X0252931Y0057043D03*
X0252931Y0057119D03*
X0252931Y0057195D03*
X0252931Y0057347D03*
X0252931Y0057423D03*
X0252931Y0057575D03*
X0252931Y0057651D03*
X0252931Y0057727D03*
X0252931Y0057879D03*
X0252931Y0057955D03*
X0252931Y0058107D03*
X0252931Y0058183D03*
X0252931Y0058259D03*
X0252931Y0058411D03*
X0252931Y0058487D03*
X0252931Y0058639D03*
X0252931Y0058715D03*
X0252931Y0058791D03*
X0252931Y0058943D03*
X0252931Y0059019D03*
X0252931Y0059095D03*
X0252931Y0059247D03*
X0252931Y0059323D03*
X0252931Y0059475D03*
X0252931Y0059551D03*
X0252931Y0059627D03*
X0252931Y0059779D03*
X0252931Y0059855D03*
X0252931Y0060007D03*
X0252931Y0060083D03*
X0252931Y0060159D03*
X0252931Y0060311D03*
X0252931Y0060387D03*
X0252931Y0060539D03*
X0252931Y0060615D03*
X0252931Y0060691D03*
X0252931Y0060843D03*
X0252931Y0060919D03*
X0266231Y0061527D03*
X0266307Y0062059D03*
X0266307Y0062211D03*
X0273603Y0062743D03*
X0273603Y0062819D03*
X0273679Y0062515D03*
X0273679Y0062439D03*
X0273831Y0061527D03*
X0273831Y0054915D03*
X0273679Y0053927D03*
X0273679Y0053851D03*
X0273603Y0053623D03*
X0266307Y0054307D03*
X0266307Y0054383D03*
X0266231Y0054839D03*
X0266231Y0054915D03*
X0246395Y0073383D03*
X0246395Y0073459D03*
X0246395Y0073611D03*
X0246395Y0073687D03*
X0246395Y0073839D03*
X0246395Y0073915D03*
X0238795Y0072927D03*
X0238643Y0073459D03*
X0238643Y0073611D03*
X0238643Y0073687D03*
X0238643Y0073839D03*
X0238567Y0073991D03*
X0238567Y0074143D03*
X0238567Y0074219D03*
X0238567Y0074295D03*
X0238567Y0074447D03*
X0238567Y0074523D03*
X0238567Y0074675D03*
X0238567Y0074751D03*
X0238567Y0074827D03*
X0275731Y0091547D03*
X0259543Y0103175D03*
X0239327Y0105075D03*
X0239175Y0104087D03*
X0239175Y0104011D03*
X0239099Y0103783D03*
X0231879Y0104011D03*
X0231879Y0104087D03*
X0231803Y0104315D03*
X0231803Y0104391D03*
X0231803Y0104543D03*
X0231803Y0104619D03*
X0231803Y0104695D03*
X0231727Y0104923D03*
X0231727Y0105075D03*
X0231727Y0105151D03*
X0231727Y0105227D03*
X0231727Y0105379D03*
X0231727Y0105455D03*
X0231727Y0105607D03*
X0231727Y0105683D03*
X0231727Y0105759D03*
X0231727Y0105911D03*
X0231727Y0105987D03*
X0231727Y0106139D03*
X0231727Y0106215D03*
X0231727Y0106291D03*
X0231727Y0106443D03*
X0231727Y0106519D03*
X0239327Y0111687D03*
X0239175Y0112675D03*
X0239175Y0112751D03*
X0239099Y0112979D03*
X0232031Y0113207D03*
X0231879Y0112523D03*
X0252703Y0114119D03*
X0259543Y0112143D03*
D202*
X0266231Y0104011D03*
X0275731Y0091319D03*
X0259771Y0087747D03*
X0253235Y0062743D03*
X0253235Y0053623D03*
X0239707Y0053851D03*
D203*
X0252931Y0056435D03*
X0252931Y0056663D03*
X0252931Y0056967D03*
X0252931Y0057271D03*
X0252931Y0057499D03*
X0252931Y0057803D03*
X0252931Y0058031D03*
X0252931Y0058335D03*
X0252931Y0058563D03*
X0252931Y0058867D03*
X0252931Y0059171D03*
X0252931Y0059399D03*
X0252931Y0059703D03*
X0252931Y0059931D03*
X0252931Y0060235D03*
X0252931Y0060463D03*
X0252931Y0060767D03*
X0266231Y0061603D03*
X0266307Y0062135D03*
X0266307Y0054231D03*
X0273679Y0054003D03*
X0226863Y0055067D03*
X0238643Y0073535D03*
X0238643Y0073763D03*
X0238567Y0074067D03*
X0238567Y0074371D03*
X0238567Y0074599D03*
X0246395Y0073763D03*
X0246395Y0073535D03*
X0246243Y0086835D03*
X0259467Y0103099D03*
X0239175Y0104163D03*
X0231879Y0104163D03*
X0231803Y0104467D03*
X0231803Y0104771D03*
X0231727Y0104999D03*
X0231727Y0105303D03*
X0231727Y0105531D03*
X0231727Y0105835D03*
X0231727Y0106063D03*
X0231727Y0106367D03*
X0239327Y0111763D03*
X0239175Y0112599D03*
X0232031Y0113131D03*
X0259543Y0112067D03*
D204*
X0252969Y0114271D03*
X0232297Y0113663D03*
X0252513Y0105531D03*
X0238681Y0087367D03*
X0238681Y0080071D03*
X0281697Y0087367D03*
X0273261Y0063503D03*
X0266801Y0063503D03*
X0260569Y0054003D03*
X0239593Y0054231D03*
X0226141Y0056663D03*
X0218465Y0055067D03*
X0218465Y0054763D03*
X0211777Y0060767D03*
X0218465Y0061603D03*
X0218541Y0063199D03*
D205*
X0253121Y0062363D03*
X0253121Y0054003D03*
X0246053Y0079767D03*
X0259885Y0087367D03*
X0266117Y0104467D03*
X0238757Y0113663D03*
D206*
X0287587Y0105075D03*
X0287587Y0104923D03*
X0287587Y0104847D03*
X0287587Y0054915D03*
X0287587Y0054839D03*
X0287587Y0054687D03*
X0287587Y0054611D03*
D207*
X0287587Y0054763D03*
X0287587Y0104771D03*
X0287587Y0104999D03*
D208*
X0287587Y0105303D03*
X0258859Y0065631D03*
X0287587Y0055067D03*
D209*
X0287587Y0055903D03*
X0258859Y0065403D03*
X0287587Y0106063D03*
D210*
X0287587Y0106367D03*
X0287587Y0056435D03*
X0287587Y0056131D03*
D211*
X0287587Y0056207D03*
X0287587Y0056283D03*
X0287587Y0056359D03*
X0287587Y0106291D03*
X0287587Y0106443D03*
X0287587Y0106519D03*
X0287587Y0106595D03*
D212*
X0252437Y0087595D03*
X0252437Y0087519D03*
X0252437Y0087443D03*
X0238605Y0086987D03*
X0238605Y0086911D03*
X0238605Y0086759D03*
X0238605Y0086683D03*
X0238605Y0086607D03*
X0238605Y0080907D03*
X0238605Y0080755D03*
X0238605Y0080679D03*
X0238605Y0080527D03*
X0238605Y0080451D03*
X0246205Y0080451D03*
X0246205Y0080527D03*
X0246205Y0080375D03*
X0281773Y0086759D03*
X0281773Y0086911D03*
X0281773Y0086987D03*
X0273337Y0063351D03*
X0260569Y0061907D03*
X0260569Y0061755D03*
X0260569Y0061679D03*
X0226369Y0056359D03*
D213*
X0287587Y0056663D03*
X0287587Y0106671D03*
X0287587Y0106899D03*
D214*
X0266269Y0103935D03*
X0292337Y0093067D03*
X0292337Y0092763D03*
X0292337Y0092535D03*
X0292337Y0092231D03*
X0292337Y0092003D03*
X0292337Y0091699D03*
X0292337Y0091471D03*
X0292337Y0091167D03*
X0292337Y0090863D03*
X0292337Y0090635D03*
X0292337Y0090331D03*
X0292337Y0090103D03*
X0292337Y0089799D03*
X0292337Y0089571D03*
X0292337Y0089267D03*
X0292337Y0088963D03*
X0292337Y0088735D03*
X0292337Y0088431D03*
X0292337Y0088203D03*
X0292337Y0087899D03*
X0292337Y0087671D03*
X0292337Y0087367D03*
X0292337Y0087063D03*
X0292337Y0086835D03*
X0292337Y0086531D03*
X0292337Y0086303D03*
X0292337Y0085999D03*
X0292337Y0085771D03*
X0292337Y0085467D03*
X0292337Y0085163D03*
X0292337Y0084935D03*
X0292337Y0084631D03*
X0292337Y0084403D03*
X0292337Y0084099D03*
X0292337Y0083871D03*
X0292337Y0083567D03*
X0292337Y0083263D03*
X0292337Y0083035D03*
X0292337Y0082731D03*
X0292337Y0082503D03*
X0292337Y0082199D03*
X0292337Y0081971D03*
X0292337Y0081667D03*
X0292337Y0081363D03*
X0292337Y0081135D03*
X0292337Y0080831D03*
X0292337Y0080603D03*
X0292337Y0080299D03*
X0292337Y0080071D03*
X0292337Y0079767D03*
X0292337Y0079463D03*
X0292337Y0079235D03*
X0292337Y0078931D03*
X0292337Y0078703D03*
X0292337Y0078399D03*
X0292337Y0078171D03*
X0292337Y0077867D03*
X0292337Y0077563D03*
X0292337Y0077335D03*
X0292337Y0077031D03*
X0292337Y0076803D03*
X0292337Y0076499D03*
X0292337Y0076271D03*
X0292337Y0075967D03*
X0292337Y0075663D03*
X0292337Y0075435D03*
X0292337Y0075131D03*
X0292337Y0074903D03*
X0225837Y0056967D03*
D215*
X0287587Y0057195D03*
X0287587Y0057347D03*
X0287587Y0057423D03*
X0271855Y0101655D03*
X0287587Y0107355D03*
X0287587Y0107507D03*
X0287587Y0107583D03*
X0287587Y0107659D03*
D216*
X0287587Y0107431D03*
X0287587Y0057499D03*
X0287587Y0057271D03*
D217*
X0225457Y0057271D03*
X0245673Y0088203D03*
X0253957Y0091167D03*
X0258973Y0111231D03*
D218*
X0253957Y0091015D03*
X0244381Y0076575D03*
X0242785Y0069355D03*
X0225229Y0057423D03*
D219*
X0285687Y0057727D03*
X0285687Y0057879D03*
X0289487Y0057879D03*
X0289487Y0057727D03*
X0275655Y0091851D03*
X0285687Y0107887D03*
X0285687Y0108039D03*
X0289487Y0108039D03*
X0289487Y0107887D03*
D220*
X0289487Y0107963D03*
X0285687Y0107963D03*
X0285687Y0057803D03*
X0289487Y0057803D03*
D221*
X0224507Y0057803D03*
X0222303Y0066771D03*
X0258327Y0110699D03*
D222*
X0242063Y0077487D03*
X0242595Y0072091D03*
X0221847Y0057879D03*
D223*
X0221809Y0057955D03*
X0222265Y0064643D03*
X0222265Y0064719D03*
X0256465Y0065023D03*
D224*
X0285497Y0058867D03*
X0285649Y0058031D03*
X0289525Y0058031D03*
X0289677Y0058867D03*
X0289525Y0108267D03*
X0289677Y0109103D03*
X0285649Y0108267D03*
X0285497Y0109103D03*
D225*
X0221733Y0058031D03*
D226*
X0221695Y0058107D03*
X0242595Y0071711D03*
X0242595Y0071787D03*
X0241911Y0076955D03*
D227*
X0222265Y0064947D03*
X0221657Y0058183D03*
D228*
X0207863Y0064719D03*
X0207863Y0064795D03*
X0285611Y0058259D03*
X0289563Y0058259D03*
X0253843Y0091851D03*
X0285611Y0108419D03*
X0289563Y0108419D03*
D229*
X0289601Y0108571D03*
X0289601Y0108799D03*
X0285573Y0108799D03*
X0285573Y0108571D03*
X0285573Y0058563D03*
X0285573Y0058335D03*
X0289601Y0058335D03*
X0289601Y0058563D03*
D230*
X0221543Y0058335D03*
D231*
X0207901Y0064643D03*
X0285573Y0058639D03*
X0285573Y0058487D03*
X0285573Y0058411D03*
X0289601Y0058411D03*
X0289601Y0058487D03*
X0289601Y0058639D03*
X0289601Y0108495D03*
X0289601Y0108647D03*
X0289601Y0108723D03*
X0285573Y0108723D03*
X0285573Y0108647D03*
X0285573Y0108495D03*
D232*
X0256009Y0114423D03*
X0235565Y0114347D03*
X0256009Y0102187D03*
X0256009Y0102111D03*
X0242633Y0071255D03*
X0222265Y0065251D03*
X0221429Y0058487D03*
D233*
X0207939Y0064491D03*
X0285155Y0060843D03*
X0285231Y0060387D03*
X0285231Y0060311D03*
X0285307Y0060083D03*
X0285307Y0060007D03*
X0285307Y0059855D03*
X0285307Y0059779D03*
X0285383Y0059627D03*
X0285383Y0059551D03*
X0285383Y0059475D03*
X0285459Y0059095D03*
X0289639Y0058715D03*
X0289715Y0059095D03*
X0289715Y0059247D03*
X0289791Y0059475D03*
X0289791Y0059551D03*
X0289791Y0059627D03*
X0289867Y0060007D03*
X0289867Y0060083D03*
X0289639Y0108875D03*
X0289715Y0109255D03*
X0289715Y0109407D03*
X0289791Y0109559D03*
X0289791Y0109711D03*
X0289791Y0109787D03*
X0289867Y0110091D03*
X0289867Y0110243D03*
X0289943Y0110623D03*
X0285383Y0109787D03*
X0285383Y0109711D03*
X0285383Y0109559D03*
X0285459Y0109255D03*
X0285307Y0109939D03*
X0285307Y0110015D03*
X0285307Y0110091D03*
X0285307Y0110243D03*
X0285231Y0110395D03*
X0285231Y0110547D03*
X0285231Y0110623D03*
X0285155Y0110927D03*
D234*
X0221125Y0058867D03*
D235*
X0221049Y0058943D03*
X0222265Y0065707D03*
X0242709Y0070723D03*
X0256009Y0101579D03*
D236*
X0256009Y0101351D03*
X0220897Y0059095D03*
D237*
X0207939Y0064567D03*
X0258859Y0066771D03*
X0285155Y0060767D03*
X0285231Y0060463D03*
X0285231Y0060235D03*
X0285307Y0059931D03*
X0285383Y0059703D03*
X0285383Y0059399D03*
X0285459Y0059171D03*
X0289715Y0059171D03*
X0289791Y0059399D03*
X0289791Y0059703D03*
X0289867Y0059931D03*
X0289943Y0060463D03*
X0289715Y0109331D03*
X0289791Y0109635D03*
X0289791Y0109863D03*
X0289867Y0110167D03*
X0285459Y0109331D03*
X0285383Y0109635D03*
X0285383Y0109863D03*
X0285307Y0110167D03*
X0285231Y0110471D03*
X0285155Y0111003D03*
X0255971Y0117235D03*
D238*
X0256009Y0101199D03*
X0220821Y0059171D03*
D239*
X0220745Y0059247D03*
D240*
X0220669Y0059323D03*
X0222265Y0066011D03*
X0242709Y0070343D03*
X0256009Y0101047D03*
X0255933Y0115639D03*
D241*
X0235527Y0100971D03*
X0270031Y0065631D03*
X0220555Y0059399D03*
D242*
X0220479Y0059475D03*
X0235527Y0100895D03*
D243*
X0256009Y0100743D03*
X0255629Y0108343D03*
X0255705Y0108419D03*
X0255781Y0108495D03*
X0255933Y0108647D03*
X0256009Y0108723D03*
X0255933Y0115943D03*
X0222265Y0066239D03*
X0220365Y0059551D03*
D244*
X0220061Y0059779D03*
X0210181Y0061907D03*
X0210181Y0061983D03*
X0210181Y0062059D03*
X0210181Y0062211D03*
X0210181Y0062287D03*
X0210181Y0062439D03*
X0210181Y0062515D03*
X0210181Y0062591D03*
X0210181Y0062743D03*
X0210181Y0062819D03*
X0210181Y0062895D03*
X0210181Y0063047D03*
X0210181Y0063123D03*
X0210181Y0063275D03*
X0210181Y0063351D03*
X0210181Y0063427D03*
X0210181Y0063579D03*
X0210181Y0063655D03*
X0210181Y0063807D03*
X0210181Y0063883D03*
X0210181Y0063959D03*
X0210181Y0064111D03*
X0210181Y0064187D03*
X0210181Y0064339D03*
X0210181Y0064415D03*
X0254717Y0107507D03*
D245*
X0281355Y0119439D03*
X0281355Y0119515D03*
X0281355Y0119591D03*
X0293819Y0119743D03*
X0293819Y0119819D03*
X0293819Y0119895D03*
X0293819Y0120047D03*
X0293819Y0069887D03*
X0293819Y0069811D03*
X0293819Y0069659D03*
X0293819Y0069583D03*
X0281355Y0069507D03*
X0281355Y0069355D03*
X0281355Y0069279D03*
X0242747Y0069811D03*
X0219947Y0059855D03*
D246*
X0219833Y0059931D03*
X0281241Y0070571D03*
X0293933Y0070799D03*
X0255933Y0116399D03*
X0281241Y0120503D03*
X0281241Y0120731D03*
X0293933Y0121035D03*
D247*
X0284205Y0115791D03*
X0285041Y0111687D03*
X0285041Y0111611D03*
X0285041Y0111459D03*
X0285269Y0110319D03*
X0289905Y0110319D03*
X0289905Y0110395D03*
X0289905Y0110547D03*
X0283901Y0067075D03*
X0285041Y0061527D03*
X0285041Y0061451D03*
X0285041Y0061375D03*
X0285269Y0060159D03*
X0289905Y0060159D03*
X0289905Y0060311D03*
X0289905Y0060387D03*
D248*
X0289905Y0060235D03*
X0285041Y0061299D03*
X0284205Y0065631D03*
X0289905Y0110471D03*
X0285041Y0111535D03*
X0283901Y0117235D03*
D249*
X0253311Y0106291D03*
X0275807Y0090711D03*
X0219111Y0060539D03*
D250*
X0218997Y0060691D03*
X0258897Y0065783D03*
X0281165Y0088355D03*
X0255933Y0116855D03*
D251*
X0284015Y0116779D03*
X0284015Y0116627D03*
X0284015Y0116551D03*
X0284091Y0116475D03*
X0284091Y0116323D03*
X0284091Y0116247D03*
X0284319Y0115411D03*
X0284319Y0115259D03*
X0284319Y0115183D03*
X0284319Y0115107D03*
X0284547Y0114195D03*
X0284547Y0114119D03*
X0284547Y0114043D03*
X0284623Y0113891D03*
X0284623Y0113815D03*
X0284623Y0113739D03*
X0284851Y0112827D03*
X0284851Y0112751D03*
X0284851Y0112675D03*
X0284851Y0112523D03*
X0284927Y0112295D03*
X0284927Y0112219D03*
X0284927Y0112143D03*
X0290019Y0111155D03*
X0290019Y0111079D03*
X0290247Y0112447D03*
X0290855Y0115411D03*
X0291159Y0116855D03*
X0275655Y0091775D03*
X0284015Y0066619D03*
X0284015Y0066543D03*
X0284015Y0066391D03*
X0284091Y0066315D03*
X0284091Y0066239D03*
X0284091Y0066087D03*
X0284319Y0065251D03*
X0284319Y0065175D03*
X0284319Y0065023D03*
X0284319Y0064947D03*
X0284547Y0064111D03*
X0284547Y0063959D03*
X0284547Y0063883D03*
X0284623Y0063655D03*
X0284623Y0063579D03*
X0284851Y0062591D03*
X0284851Y0062515D03*
X0284851Y0062439D03*
X0284927Y0062211D03*
X0284927Y0062059D03*
X0284927Y0061983D03*
X0290019Y0060995D03*
X0290019Y0060919D03*
X0290247Y0062211D03*
X0290247Y0062287D03*
X0290855Y0065251D03*
X0291159Y0066695D03*
D252*
X0291235Y0067075D03*
X0291007Y0066011D03*
X0284471Y0064491D03*
X0284471Y0064415D03*
X0284471Y0064339D03*
X0284471Y0064187D03*
X0284395Y0064643D03*
X0284395Y0064719D03*
X0284395Y0064795D03*
X0284243Y0065327D03*
X0284243Y0065479D03*
X0284243Y0065555D03*
X0284167Y0065707D03*
X0284167Y0065783D03*
X0284167Y0065859D03*
X0283939Y0066847D03*
X0283939Y0066923D03*
X0284699Y0063427D03*
X0284699Y0063351D03*
X0284699Y0063275D03*
X0284699Y0063123D03*
X0284775Y0063047D03*
X0284775Y0062895D03*
X0284775Y0062819D03*
X0284775Y0062743D03*
X0285003Y0061679D03*
X0290095Y0061527D03*
X0290095Y0061451D03*
X0290095Y0061375D03*
X0290171Y0061679D03*
X0290171Y0061755D03*
X0290171Y0061907D03*
X0270031Y0067075D03*
X0253843Y0091775D03*
X0285003Y0111839D03*
X0284775Y0112979D03*
X0284775Y0113055D03*
X0284775Y0113207D03*
X0284699Y0113283D03*
X0284699Y0113359D03*
X0284699Y0113511D03*
X0284699Y0113587D03*
X0284471Y0114347D03*
X0284471Y0114423D03*
X0284471Y0114575D03*
X0284471Y0114651D03*
X0284395Y0114727D03*
X0284395Y0114879D03*
X0284395Y0114955D03*
X0284243Y0115487D03*
X0284243Y0115639D03*
X0284243Y0115715D03*
X0284167Y0115943D03*
X0284167Y0116019D03*
X0284167Y0116095D03*
X0283939Y0117007D03*
X0283939Y0117083D03*
X0283939Y0117159D03*
X0290931Y0115791D03*
X0290171Y0111991D03*
X0290171Y0111915D03*
X0290171Y0111839D03*
X0290095Y0111687D03*
X0290095Y0111611D03*
X0290095Y0111459D03*
D253*
X0252437Y0087671D03*
X0252437Y0087367D03*
X0238605Y0086835D03*
X0238605Y0080831D03*
X0238605Y0080603D03*
X0246205Y0080299D03*
X0281773Y0086835D03*
X0260569Y0061831D03*
X0260569Y0061603D03*
D254*
X0225647Y0063731D03*
X0211435Y0061603D03*
X0259543Y0088203D03*
D255*
X0206153Y0061755D03*
D256*
X0211131Y0061831D03*
X0244343Y0076803D03*
D257*
X0206419Y0061831D03*
D258*
X0290209Y0061983D03*
X0290209Y0062059D03*
X0290361Y0062743D03*
X0290361Y0062819D03*
X0290361Y0062895D03*
X0290361Y0063047D03*
X0290437Y0063123D03*
X0290437Y0063275D03*
X0290437Y0063351D03*
X0290437Y0063427D03*
X0290513Y0063579D03*
X0290513Y0063655D03*
X0290665Y0064187D03*
X0290665Y0064339D03*
X0290665Y0064415D03*
X0290665Y0064491D03*
X0290741Y0064643D03*
X0290741Y0064719D03*
X0290741Y0064795D03*
X0290817Y0064947D03*
X0290817Y0065023D03*
X0290817Y0065175D03*
X0290893Y0065327D03*
X0290893Y0065479D03*
X0290893Y0065555D03*
X0290969Y0065707D03*
X0290969Y0065783D03*
X0290969Y0065859D03*
X0291045Y0066087D03*
X0291045Y0066239D03*
X0291045Y0066315D03*
X0291197Y0066847D03*
X0291197Y0066923D03*
X0290209Y0112143D03*
X0290209Y0112219D03*
X0290209Y0112295D03*
X0290361Y0112979D03*
X0290361Y0113055D03*
X0290361Y0113207D03*
X0290437Y0113283D03*
X0290437Y0113359D03*
X0290437Y0113511D03*
X0290437Y0113587D03*
X0290513Y0113739D03*
X0290513Y0113815D03*
X0290513Y0113891D03*
X0290665Y0114347D03*
X0290665Y0114423D03*
X0290665Y0114575D03*
X0290665Y0114651D03*
X0290741Y0114727D03*
X0290741Y0114879D03*
X0290741Y0114955D03*
X0290817Y0115107D03*
X0290817Y0115183D03*
X0290817Y0115259D03*
X0290893Y0115487D03*
X0290893Y0115639D03*
X0290893Y0115715D03*
X0290969Y0115943D03*
X0290969Y0116019D03*
X0290969Y0116095D03*
X0291045Y0116247D03*
X0291045Y0116323D03*
X0291045Y0116475D03*
X0291197Y0117007D03*
X0291197Y0117083D03*
X0291197Y0117159D03*
D259*
X0284091Y0116399D03*
X0284015Y0116703D03*
X0284319Y0115335D03*
X0284547Y0114271D03*
X0284623Y0113663D03*
X0284851Y0112599D03*
X0284927Y0112371D03*
X0290247Y0112371D03*
X0235527Y0117235D03*
X0284015Y0066467D03*
X0284091Y0066163D03*
X0284319Y0065099D03*
X0284547Y0064035D03*
X0284623Y0063731D03*
X0284623Y0063503D03*
X0284851Y0062667D03*
X0284851Y0062363D03*
X0284927Y0062135D03*
D260*
X0210181Y0062135D03*
X0210181Y0062363D03*
X0210181Y0062667D03*
X0210181Y0062971D03*
X0210181Y0063199D03*
X0210181Y0063503D03*
X0210181Y0063731D03*
X0210181Y0064035D03*
X0210181Y0064263D03*
D261*
X0290285Y0062667D03*
X0290285Y0062363D03*
X0290589Y0064035D03*
X0291121Y0066467D03*
X0290285Y0112599D03*
X0290589Y0113967D03*
X0290589Y0114271D03*
X0291121Y0116703D03*
X0284585Y0113967D03*
D262*
X0290285Y0112827D03*
X0290285Y0112751D03*
X0290285Y0112675D03*
X0290285Y0112523D03*
X0290589Y0114043D03*
X0290589Y0114119D03*
X0290589Y0114195D03*
X0291121Y0116551D03*
X0291121Y0116627D03*
X0291121Y0116779D03*
X0291121Y0066619D03*
X0291121Y0066543D03*
X0291121Y0066391D03*
X0290589Y0064111D03*
X0290589Y0063959D03*
X0290589Y0063883D03*
X0290589Y0063807D03*
X0290285Y0062591D03*
X0290285Y0062515D03*
X0290285Y0062439D03*
X0284585Y0063807D03*
D263*
X0279645Y0063731D03*
X0279645Y0063503D03*
X0279645Y0063199D03*
X0279645Y0062971D03*
X0279645Y0064035D03*
X0279645Y0064263D03*
X0279645Y0064567D03*
X0279645Y0064871D03*
X0279645Y0065099D03*
X0279645Y0065403D03*
X0279645Y0065631D03*
X0295529Y0065631D03*
X0295529Y0065403D03*
X0295529Y0065099D03*
X0295529Y0064871D03*
X0295529Y0064567D03*
X0295529Y0064263D03*
X0295529Y0064035D03*
X0295529Y0063731D03*
X0295529Y0063503D03*
X0295529Y0063199D03*
X0295529Y0062971D03*
X0231765Y0110699D03*
X0231765Y0111003D03*
X0231765Y0111231D03*
X0231765Y0111535D03*
X0231765Y0111763D03*
X0231841Y0112067D03*
X0231841Y0112371D03*
X0231917Y0112599D03*
X0279645Y0113131D03*
X0279645Y0113435D03*
X0279645Y0113663D03*
X0279645Y0113967D03*
X0279645Y0114271D03*
X0279645Y0114499D03*
X0279645Y0114803D03*
X0279645Y0115031D03*
X0279645Y0115335D03*
X0279645Y0115563D03*
X0279645Y0115867D03*
X0295529Y0115867D03*
X0295529Y0115563D03*
X0295529Y0115335D03*
X0295529Y0115031D03*
X0295529Y0114803D03*
X0295529Y0114499D03*
X0295529Y0114271D03*
X0295529Y0113967D03*
X0295529Y0113663D03*
X0295529Y0113435D03*
X0295529Y0113131D03*
D264*
X0273185Y0103403D03*
X0252817Y0105835D03*
X0244457Y0091167D03*
X0245749Y0079235D03*
X0245749Y0072167D03*
X0260113Y0062971D03*
D265*
X0253501Y0063047D03*
X0252969Y0105987D03*
D266*
X0245939Y0079463D03*
X0218731Y0063503D03*
D267*
X0256655Y0063731D03*
X0256351Y0089571D03*
X0269651Y0102263D03*
D268*
X0256009Y0102491D03*
X0256009Y0102643D03*
X0235489Y0102719D03*
X0222265Y0065023D03*
X0269993Y0063807D03*
D269*
X0269993Y0064035D03*
X0242633Y0071331D03*
D270*
X0256579Y0064491D03*
X0256579Y0064415D03*
X0256579Y0064339D03*
X0256427Y0089875D03*
D271*
X0242177Y0089647D03*
X0242177Y0089495D03*
X0242177Y0078019D03*
X0242177Y0077943D03*
X0278201Y0089647D03*
X0278201Y0089723D03*
X0222265Y0064339D03*
D272*
X0222303Y0064415D03*
X0242139Y0077791D03*
X0242139Y0089723D03*
X0242139Y0089875D03*
X0278239Y0089875D03*
X0278239Y0089951D03*
X0278239Y0090027D03*
D273*
X0242101Y0089951D03*
X0242101Y0077715D03*
X0242101Y0077639D03*
X0256541Y0064719D03*
X0256541Y0064643D03*
X0222265Y0064491D03*
D274*
X0256541Y0064567D03*
X0278277Y0090103D03*
D275*
X0256503Y0064871D03*
X0222303Y0064567D03*
D276*
X0242671Y0070951D03*
X0270031Y0064643D03*
X0235527Y0101883D03*
X0235527Y0101959D03*
D277*
X0256503Y0064947D03*
X0256503Y0064795D03*
D278*
X0222265Y0064795D03*
X0241949Y0077107D03*
D279*
X0222227Y0064871D03*
D280*
X0207787Y0064947D03*
D281*
X0269993Y0065099D03*
D282*
X0256465Y0065099D03*
D283*
X0222227Y0065099D03*
X0235527Y0102567D03*
D284*
X0207749Y0065099D03*
D285*
X0270031Y0065175D03*
X0235527Y0101427D03*
D286*
X0242595Y0071939D03*
X0256427Y0065251D03*
X0256427Y0065175D03*
D287*
X0242823Y0069051D03*
X0207711Y0065175D03*
D288*
X0207673Y0065251D03*
X0275693Y0091927D03*
D289*
X0258821Y0065327D03*
D290*
X0270031Y0065403D03*
X0222227Y0065935D03*
X0235527Y0101199D03*
D291*
X0235527Y0102035D03*
X0222227Y0065403D03*
D292*
X0207597Y0065403D03*
D293*
X0270031Y0065479D03*
X0235527Y0101123D03*
X0235527Y0115639D03*
D294*
X0222265Y0065631D03*
D295*
X0207521Y0065631D03*
D296*
X0270031Y0065707D03*
D297*
X0207483Y0065707D03*
D298*
X0207445Y0065783D03*
D299*
X0222227Y0065859D03*
X0235527Y0101351D03*
X0256047Y0101275D03*
X0235527Y0115411D03*
D300*
X0252247Y0104999D03*
X0252475Y0103099D03*
X0235527Y0099603D03*
X0279607Y0116171D03*
X0279607Y0116399D03*
X0279607Y0116703D03*
X0279607Y0116931D03*
X0279607Y0117235D03*
X0295567Y0117235D03*
X0295567Y0116931D03*
X0295567Y0116703D03*
X0295567Y0116399D03*
X0295567Y0116171D03*
X0295567Y0066999D03*
X0295567Y0066771D03*
X0295567Y0066467D03*
X0295567Y0066163D03*
X0295567Y0065935D03*
X0279607Y0065935D03*
X0279607Y0066163D03*
X0279607Y0066467D03*
X0279607Y0066771D03*
X0279607Y0066999D03*
X0270031Y0066999D03*
D301*
X0270031Y0065935D03*
X0256047Y0100667D03*
X0255211Y0107963D03*
X0235527Y0100667D03*
D302*
X0207369Y0065935D03*
D303*
X0270031Y0066011D03*
X0256047Y0100591D03*
X0235527Y0100591D03*
D304*
X0207331Y0066011D03*
D305*
X0222265Y0066087D03*
X0255933Y0115715D03*
D306*
X0244495Y0075511D03*
X0207255Y0066087D03*
D307*
X0270031Y0066163D03*
X0281355Y0069431D03*
X0293819Y0069735D03*
X0293819Y0119971D03*
X0281355Y0119667D03*
D308*
X0235527Y0115867D03*
X0222227Y0066163D03*
D309*
X0207217Y0066163D03*
D310*
X0270031Y0066239D03*
X0281279Y0070039D03*
X0281279Y0070115D03*
X0281279Y0070191D03*
X0293895Y0070343D03*
X0293895Y0070419D03*
X0293895Y0070495D03*
X0293895Y0070647D03*
X0257415Y0109939D03*
X0281279Y0120123D03*
X0281279Y0120275D03*
X0281279Y0120351D03*
X0281279Y0120427D03*
X0293895Y0120579D03*
X0293895Y0120655D03*
X0293895Y0120807D03*
D311*
X0255933Y0116095D03*
X0222265Y0066315D03*
D312*
X0222303Y0067227D03*
X0207103Y0066315D03*
D313*
X0222265Y0066391D03*
X0281545Y0067455D03*
X0281545Y0067607D03*
X0281545Y0067683D03*
X0281545Y0067759D03*
X0293629Y0067911D03*
X0293629Y0067987D03*
X0254869Y0107659D03*
X0256769Y0109407D03*
X0256845Y0109483D03*
X0281545Y0117615D03*
X0281545Y0117691D03*
X0281545Y0117843D03*
X0281545Y0117919D03*
X0293629Y0117995D03*
X0293629Y0118147D03*
X0293629Y0118223D03*
D314*
X0293781Y0119667D03*
X0281393Y0119363D03*
X0281393Y0119135D03*
X0293781Y0069431D03*
X0281393Y0069203D03*
X0281393Y0068899D03*
X0222265Y0066467D03*
D315*
X0206989Y0066467D03*
D316*
X0269993Y0066543D03*
D317*
X0281241Y0070343D03*
X0281241Y0070419D03*
X0281241Y0070495D03*
X0281241Y0070647D03*
X0293933Y0070723D03*
X0293933Y0070875D03*
X0293933Y0070951D03*
X0222265Y0066543D03*
X0281241Y0120579D03*
X0281241Y0120655D03*
X0281241Y0120807D03*
X0293933Y0120883D03*
X0293933Y0120959D03*
X0293933Y0121111D03*
D318*
X0256123Y0099375D03*
X0206951Y0066543D03*
D319*
X0206875Y0066619D03*
D320*
X0258859Y0066695D03*
D321*
X0222265Y0066695D03*
X0254109Y0090255D03*
X0275845Y0090179D03*
X0271893Y0101427D03*
X0255933Y0116627D03*
D322*
X0206799Y0066695D03*
D323*
X0206723Y0066771D03*
D324*
X0222303Y0067151D03*
X0258859Y0066847D03*
D325*
X0206609Y0066847D03*
D326*
X0258859Y0066923D03*
X0253843Y0091927D03*
X0244495Y0091927D03*
X0272159Y0099755D03*
D327*
X0206495Y0066923D03*
D328*
X0258821Y0066999D03*
D329*
X0206381Y0066999D03*
D330*
X0258783Y0067075D03*
D331*
X0222303Y0067075D03*
X0259771Y0103859D03*
X0259771Y0104011D03*
X0252171Y0104619D03*
X0252171Y0104695D03*
X0255971Y0117159D03*
D332*
X0206191Y0067075D03*
D333*
X0293553Y0067151D03*
X0293553Y0067227D03*
X0293553Y0067379D03*
X0255021Y0107811D03*
X0256617Y0109255D03*
X0293553Y0117311D03*
X0293553Y0117387D03*
X0293553Y0117539D03*
D334*
X0293591Y0117615D03*
X0293591Y0117691D03*
X0293591Y0117843D03*
X0293591Y0117919D03*
X0281583Y0117539D03*
X0281583Y0117387D03*
X0281583Y0117311D03*
X0293591Y0067759D03*
X0293591Y0067683D03*
X0293591Y0067607D03*
X0293591Y0067455D03*
X0281583Y0067379D03*
X0281583Y0067227D03*
X0281583Y0067151D03*
D335*
X0258745Y0067151D03*
X0253805Y0092155D03*
X0272197Y0099527D03*
D336*
X0256693Y0109331D03*
X0293553Y0117463D03*
X0293553Y0067303D03*
D337*
X0293591Y0067531D03*
X0281583Y0067303D03*
X0254983Y0107735D03*
X0281583Y0117463D03*
X0293591Y0117767D03*
D338*
X0293629Y0118071D03*
X0281545Y0117767D03*
X0255933Y0116171D03*
X0293629Y0068063D03*
X0293629Y0067835D03*
X0281545Y0067531D03*
D339*
X0281507Y0067835D03*
X0281507Y0068063D03*
X0293667Y0068367D03*
X0293667Y0118299D03*
X0293667Y0118603D03*
X0281507Y0118071D03*
D340*
X0281469Y0118375D03*
X0281469Y0118451D03*
X0281469Y0118527D03*
X0293705Y0118679D03*
X0293705Y0118755D03*
X0293705Y0118907D03*
X0293705Y0118983D03*
X0235565Y0116247D03*
X0235565Y0100515D03*
X0256009Y0100515D03*
X0281469Y0068443D03*
X0281469Y0068291D03*
X0281469Y0068215D03*
X0281469Y0068139D03*
X0293705Y0068519D03*
X0293705Y0068595D03*
X0293705Y0068747D03*
X0293705Y0068823D03*
D341*
X0293705Y0068671D03*
X0281469Y0068367D03*
X0256997Y0109635D03*
X0281469Y0118299D03*
X0281469Y0118603D03*
X0293705Y0118831D03*
D342*
X0293743Y0119059D03*
X0293743Y0119211D03*
X0293743Y0119287D03*
X0281431Y0118983D03*
X0281431Y0118907D03*
X0281431Y0118755D03*
X0281431Y0118679D03*
X0257111Y0109711D03*
X0281431Y0068823D03*
X0281431Y0068747D03*
X0281431Y0068595D03*
X0281431Y0068519D03*
X0293743Y0068975D03*
X0293743Y0069051D03*
X0293743Y0069127D03*
D343*
X0293743Y0069203D03*
X0293743Y0068899D03*
X0281431Y0068671D03*
X0254679Y0107431D03*
X0281431Y0118831D03*
X0293743Y0119135D03*
X0293743Y0119363D03*
D344*
X0242823Y0068975D03*
D345*
X0281317Y0069583D03*
X0281317Y0069659D03*
X0281317Y0069811D03*
X0281317Y0069887D03*
X0293857Y0070039D03*
X0293857Y0070115D03*
X0293857Y0070191D03*
X0254489Y0107279D03*
X0281317Y0119743D03*
X0281317Y0119819D03*
X0281317Y0119895D03*
X0281317Y0120047D03*
X0293857Y0120123D03*
X0293857Y0120275D03*
X0293857Y0120351D03*
X0293857Y0120427D03*
D346*
X0293857Y0120199D03*
X0281317Y0119971D03*
X0281317Y0069735D03*
X0293857Y0069963D03*
X0293857Y0070267D03*
D347*
X0242747Y0069735D03*
D348*
X0242709Y0070039D03*
X0255325Y0108039D03*
X0255933Y0116019D03*
D349*
X0255933Y0115791D03*
X0256009Y0100895D03*
X0242709Y0070191D03*
D350*
X0242709Y0070267D03*
X0256009Y0100971D03*
D351*
X0256009Y0101123D03*
X0242709Y0070419D03*
D352*
X0242709Y0070495D03*
X0235565Y0101275D03*
D353*
X0242709Y0070571D03*
D354*
X0281203Y0070799D03*
X0293971Y0071103D03*
X0293971Y0071331D03*
X0293971Y0121263D03*
X0281203Y0121035D03*
D355*
X0255971Y0115031D03*
X0242671Y0070799D03*
D356*
X0242671Y0071027D03*
X0255971Y0114651D03*
D357*
X0281165Y0121263D03*
X0294009Y0121567D03*
X0294009Y0121871D03*
X0294009Y0071635D03*
X0281165Y0071331D03*
X0281165Y0071103D03*
D358*
X0242633Y0071103D03*
X0256009Y0102035D03*
D359*
X0242671Y0071179D03*
D360*
X0281127Y0071407D03*
X0281127Y0071483D03*
X0281127Y0071559D03*
X0281127Y0071711D03*
X0294047Y0071787D03*
X0294047Y0071939D03*
X0294047Y0072015D03*
X0294047Y0072091D03*
X0254147Y0106975D03*
X0281127Y0121643D03*
X0281127Y0121719D03*
X0281127Y0121795D03*
X0294047Y0121947D03*
X0294047Y0122023D03*
X0294047Y0122175D03*
X0294047Y0122251D03*
D361*
X0242633Y0071483D03*
D362*
X0281127Y0071635D03*
X0294047Y0071863D03*
X0257643Y0110167D03*
X0281127Y0121567D03*
X0281127Y0121871D03*
X0294047Y0122099D03*
D363*
X0242633Y0071635D03*
D364*
X0242595Y0071863D03*
D365*
X0242557Y0072015D03*
X0242025Y0077411D03*
D366*
X0281051Y0072167D03*
X0294123Y0072471D03*
X0287587Y0107735D03*
X0281051Y0122403D03*
X0294123Y0122631D03*
D367*
X0239403Y0072167D03*
D368*
X0244495Y0075359D03*
D369*
X0244495Y0075435D03*
D370*
X0244495Y0075587D03*
D371*
X0244457Y0075663D03*
D372*
X0244457Y0075739D03*
X0244457Y0091851D03*
D373*
X0272121Y0099983D03*
X0244457Y0075891D03*
D374*
X0244457Y0075967D03*
X0238301Y0090103D03*
X0238301Y0090331D03*
X0238301Y0090635D03*
X0238301Y0090863D03*
X0238301Y0091167D03*
X0238301Y0091471D03*
X0238301Y0091699D03*
X0252209Y0103631D03*
X0252133Y0104163D03*
X0252133Y0104467D03*
X0259885Y0104467D03*
X0259885Y0104771D03*
X0259657Y0113131D03*
X0252361Y0113435D03*
D375*
X0244381Y0076499D03*
D376*
X0244305Y0076879D03*
X0235565Y0099983D03*
X0271969Y0101123D03*
X0235565Y0116779D03*
D377*
X0241911Y0077031D03*
D378*
X0241987Y0077183D03*
X0241987Y0077259D03*
D379*
X0242025Y0077335D03*
D380*
X0242063Y0077563D03*
D381*
X0242139Y0077867D03*
X0242139Y0089799D03*
D382*
X0242253Y0089191D03*
X0242253Y0089115D03*
X0242253Y0089039D03*
X0242253Y0088887D03*
X0242253Y0078551D03*
X0242253Y0078475D03*
X0242253Y0078323D03*
D383*
X0242253Y0078399D03*
X0242253Y0088963D03*
D384*
X0242291Y0088811D03*
X0242291Y0088659D03*
X0242291Y0088583D03*
X0242291Y0088507D03*
X0242291Y0088355D03*
X0242291Y0078855D03*
X0242291Y0078779D03*
X0242291Y0078627D03*
X0278087Y0088583D03*
X0278087Y0088659D03*
X0278087Y0088811D03*
X0278087Y0088887D03*
D385*
X0278087Y0088963D03*
X0278087Y0088735D03*
X0242291Y0088735D03*
X0242291Y0088431D03*
X0242291Y0078931D03*
X0242291Y0078703D03*
D386*
X0242329Y0079007D03*
X0242329Y0079083D03*
X0242329Y0088279D03*
X0278049Y0088507D03*
D387*
X0275769Y0090939D03*
X0239137Y0079159D03*
D388*
X0278049Y0088431D03*
D389*
X0278201Y0089799D03*
X0242177Y0089571D03*
D390*
X0254109Y0090027D03*
X0253957Y0106823D03*
X0257833Y0110319D03*
X0255933Y0116551D03*
D391*
X0255933Y0116475D03*
X0244305Y0090027D03*
D392*
X0254147Y0090103D03*
D393*
X0254071Y0090331D03*
D394*
X0254033Y0090635D03*
D395*
X0275769Y0090863D03*
D396*
X0253995Y0090863D03*
X0244419Y0090863D03*
D397*
X0253881Y0091699D03*
X0275693Y0091699D03*
D398*
X0244495Y0091699D03*
D399*
X0253843Y0092003D03*
X0275655Y0092003D03*
D400*
X0244495Y0092003D03*
D401*
X0253805Y0092079D03*
D402*
X0244533Y0092079D03*
D403*
X0275617Y0092155D03*
D404*
X0244533Y0092155D03*
D405*
X0244533Y0092231D03*
D406*
X0292223Y0093219D03*
X0292223Y0093295D03*
X0292223Y0093447D03*
X0292223Y0093523D03*
X0292223Y0093675D03*
X0292223Y0093751D03*
X0292223Y0093827D03*
X0292223Y0093979D03*
X0292223Y0094055D03*
X0292223Y0094207D03*
X0292223Y0094283D03*
X0292223Y0094359D03*
X0292223Y0094511D03*
X0292223Y0094587D03*
X0292223Y0094739D03*
X0292223Y0094815D03*
X0292223Y0094891D03*
X0292223Y0095043D03*
X0292223Y0095119D03*
X0292223Y0095195D03*
X0292223Y0095347D03*
X0292223Y0095423D03*
X0292223Y0095575D03*
X0292223Y0095651D03*
X0292223Y0095727D03*
X0292223Y0095879D03*
X0292223Y0095955D03*
X0292223Y0096107D03*
X0292223Y0096183D03*
X0292223Y0096259D03*
X0292223Y0096411D03*
X0292223Y0096487D03*
X0292223Y0096639D03*
X0292223Y0096715D03*
X0292223Y0096791D03*
X0292223Y0096943D03*
X0292223Y0097019D03*
X0292223Y0097095D03*
X0292223Y0097247D03*
X0292223Y0097323D03*
X0292223Y0097475D03*
X0292223Y0097551D03*
D407*
X0292223Y0097399D03*
X0292223Y0097171D03*
X0292223Y0096867D03*
X0292223Y0096563D03*
X0292223Y0096335D03*
X0292223Y0096031D03*
X0292223Y0095803D03*
X0292223Y0095499D03*
X0292223Y0095271D03*
X0292223Y0094967D03*
X0292223Y0094663D03*
X0292223Y0094435D03*
X0292223Y0094131D03*
X0292223Y0093903D03*
X0292223Y0093599D03*
X0292223Y0093371D03*
D408*
X0272197Y0099603D03*
D409*
X0272121Y0099831D03*
D410*
X0235565Y0100135D03*
D411*
X0235527Y0100743D03*
X0256351Y0109027D03*
X0235527Y0116019D03*
D412*
X0256009Y0100819D03*
D413*
X0271969Y0100971D03*
D414*
X0271969Y0101199D03*
X0255933Y0116703D03*
D415*
X0256009Y0101503D03*
D416*
X0235527Y0101503D03*
D417*
X0235527Y0101579D03*
X0235527Y0115183D03*
D418*
X0256009Y0101655D03*
D419*
X0256009Y0101731D03*
D420*
X0235527Y0101731D03*
D421*
X0256009Y0102263D03*
D422*
X0235489Y0102339D03*
D423*
X0235489Y0102491D03*
D424*
X0256009Y0102567D03*
X0235565Y0113967D03*
D425*
X0235527Y0114043D03*
X0235527Y0114119D03*
X0235527Y0102643D03*
D426*
X0266649Y0103403D03*
D427*
X0266535Y0103479D03*
D428*
X0259733Y0103707D03*
X0259733Y0103783D03*
X0252209Y0104847D03*
X0252209Y0104923D03*
X0259505Y0113739D03*
X0259429Y0113815D03*
D429*
X0252171Y0104011D03*
X0252171Y0103859D03*
D430*
X0252171Y0104771D03*
X0259771Y0103935D03*
D431*
X0252171Y0103935D03*
D432*
X0253767Y0106671D03*
D433*
X0254033Y0106899D03*
D434*
X0254223Y0107051D03*
D435*
X0255553Y0108267D03*
X0255857Y0108571D03*
D436*
X0256123Y0108799D03*
D437*
X0256465Y0109103D03*
D438*
X0256503Y0109179D03*
D439*
X0257301Y0109863D03*
D440*
X0258403Y0110775D03*
D441*
X0258707Y0111003D03*
D442*
X0252209Y0112067D03*
X0252209Y0112371D03*
D443*
X0252437Y0113587D03*
D444*
X0252437Y0113663D03*
D445*
X0259353Y0113967D03*
D446*
X0255971Y0114499D03*
D447*
X0255971Y0115107D03*
D448*
X0255971Y0115487D03*
D449*
X0255933Y0115563D03*
X0235565Y0115563D03*
D450*
X0255933Y0115867D03*
D451*
X0255971Y0116247D03*
D452*
X0255933Y0116323D03*
M02*
