G75*
%MOIN*%
%OFA0B0*%
%FSLAX25Y25*%
%IPPOS*%
%LPD*%
%AMOC8*
5,1,8,0,0,1.08239X$1,22.5*
%
%ADD10C,0.00100*%
%ADD11R,0.06600X0.06600*%
%ADD12OC8,0.06600*%
%ADD13R,0.12268X0.12268*%
%ADD14C,0.06496*%
%ADD15OC8,0.04800*%
%ADD16C,0.04800*%
%ADD17R,0.05906X0.05906*%
%ADD18R,0.04800X0.04800*%
%ADD19R,0.05315X0.05315*%
%ADD20C,0.04134*%
%ADD21C,0.07400*%
%ADD22C,0.01200*%
%ADD23C,0.02400*%
%ADD24C,0.01800*%
D10*
X0079937Y0048067D02*
X0501197Y0048067D01*
X0501197Y0122870D01*
X0079937Y0122870D01*
X0079937Y0048067D01*
D11*
X0317378Y0095409D03*
X0427378Y0095409D03*
D12*
X0427378Y0085567D03*
X0427378Y0075724D03*
X0317378Y0075724D03*
X0317378Y0085567D03*
D13*
X0344937Y0067850D03*
X0454937Y0067850D03*
X0454937Y0103283D03*
X0344937Y0103283D03*
D14*
X0188028Y0105567D03*
X0176217Y0105567D03*
X0142752Y0105567D03*
X0130528Y0105567D03*
X0118717Y0105567D03*
X0085252Y0105567D03*
X0085252Y0065567D03*
X0118717Y0065567D03*
X0130528Y0065567D03*
X0142752Y0065567D03*
X0176217Y0065567D03*
X0188028Y0065567D03*
D15*
X0197437Y0065567D03*
X0207437Y0065567D03*
X0187437Y0055567D03*
X0227437Y0055567D03*
X0287437Y0055567D03*
X0297437Y0065567D03*
X0307437Y0065567D03*
X0372437Y0065567D03*
X0382437Y0065567D03*
X0392437Y0065567D03*
X0402437Y0065567D03*
X0412437Y0065567D03*
X0437437Y0055567D03*
X0477437Y0055567D03*
X0493937Y0054567D03*
X0482437Y0065567D03*
X0493937Y0072067D03*
X0493937Y0099567D03*
X0482437Y0105567D03*
X0482437Y0115567D03*
X0493937Y0117067D03*
X0442437Y0115567D03*
X0412437Y0105567D03*
X0402437Y0105567D03*
X0392437Y0105567D03*
X0382437Y0105567D03*
X0372437Y0105567D03*
X0307437Y0105567D03*
X0297437Y0105567D03*
X0207437Y0105567D03*
X0197437Y0105567D03*
D16*
X0217437Y0102967D02*
X0217437Y0098167D01*
X0224937Y0098167D02*
X0224937Y0102967D01*
X0224937Y0072967D02*
X0224937Y0068167D01*
X0217437Y0068167D02*
X0217437Y0072967D01*
D17*
X0245094Y0063224D03*
X0264780Y0063224D03*
X0264780Y0082909D03*
X0245094Y0082909D03*
D18*
X0287437Y0065567D03*
X0493937Y0064567D03*
X0493937Y0082067D03*
X0493937Y0089567D03*
X0493937Y0107067D03*
D19*
X0271866Y0100587D03*
X0238008Y0100587D03*
D20*
X0239780Y0113067D03*
X0248441Y0113067D03*
X0257102Y0113067D03*
X0265764Y0113067D03*
X0270094Y0117398D03*
X0261433Y0117398D03*
X0252772Y0117398D03*
X0244110Y0117398D03*
D21*
X0304937Y0116067D03*
X0314937Y0115067D03*
X0324937Y0116067D03*
X0334937Y0115067D03*
X0344937Y0116067D03*
X0354937Y0115067D03*
X0364937Y0116067D03*
X0374937Y0115067D03*
X0384937Y0116067D03*
X0394937Y0115067D03*
X0404937Y0116067D03*
X0354937Y0053567D03*
X0364937Y0052567D03*
X0344937Y0052567D03*
X0334937Y0053567D03*
X0324937Y0052567D03*
X0314937Y0053567D03*
X0304937Y0052567D03*
D22*
X0305537Y0052867D01*
X0306337Y0052867D01*
X0315137Y0061667D01*
X0312332Y0062862D02*
X0315137Y0065667D01*
X0316501Y0068067D02*
X0316599Y0068065D01*
X0316697Y0068059D01*
X0316795Y0068050D01*
X0316892Y0068036D01*
X0316989Y0068019D01*
X0317085Y0067998D01*
X0317180Y0067973D01*
X0317274Y0067945D01*
X0317367Y0067912D01*
X0317458Y0067877D01*
X0317548Y0067837D01*
X0317637Y0067794D01*
X0317724Y0067748D01*
X0317808Y0067698D01*
X0317891Y0067645D01*
X0317972Y0067589D01*
X0318050Y0067530D01*
X0318126Y0067468D01*
X0318199Y0067402D01*
X0318270Y0067334D01*
X0324617Y0060987D01*
X0325537Y0058766D02*
X0325537Y0052867D01*
X0324937Y0052567D01*
X0325537Y0058766D02*
X0325535Y0058873D01*
X0325530Y0058980D01*
X0325521Y0059087D01*
X0325508Y0059194D01*
X0325491Y0059300D01*
X0325471Y0059405D01*
X0325448Y0059509D01*
X0325421Y0059613D01*
X0325390Y0059716D01*
X0325356Y0059818D01*
X0325318Y0059918D01*
X0325277Y0060017D01*
X0325233Y0060115D01*
X0325185Y0060211D01*
X0325134Y0060305D01*
X0325080Y0060397D01*
X0325023Y0060488D01*
X0324962Y0060577D01*
X0324899Y0060663D01*
X0324833Y0060748D01*
X0324764Y0060830D01*
X0324692Y0060909D01*
X0324617Y0060986D01*
X0329619Y0068784D02*
X0329512Y0068889D01*
X0329401Y0068991D01*
X0329288Y0069091D01*
X0329172Y0069187D01*
X0329054Y0069280D01*
X0328934Y0069370D01*
X0328811Y0069457D01*
X0328686Y0069540D01*
X0328559Y0069620D01*
X0328430Y0069697D01*
X0328298Y0069771D01*
X0328165Y0069841D01*
X0328030Y0069907D01*
X0327894Y0069970D01*
X0327756Y0070030D01*
X0327616Y0070085D01*
X0327475Y0070137D01*
X0327332Y0070186D01*
X0327189Y0070230D01*
X0327044Y0070271D01*
X0326898Y0070308D01*
X0326751Y0070341D01*
X0326604Y0070371D01*
X0326456Y0070396D01*
X0326307Y0070418D01*
X0326158Y0070436D01*
X0326008Y0070449D01*
X0325858Y0070459D01*
X0325707Y0070465D01*
X0325557Y0070467D01*
X0317180Y0070467D01*
X0316176Y0068067D02*
X0316078Y0068069D01*
X0315979Y0068075D01*
X0315881Y0068084D01*
X0315784Y0068098D01*
X0315687Y0068115D01*
X0315591Y0068136D01*
X0315495Y0068161D01*
X0315401Y0068190D01*
X0315308Y0068222D01*
X0315216Y0068258D01*
X0315126Y0068297D01*
X0315037Y0068340D01*
X0314951Y0068387D01*
X0314866Y0068437D01*
X0314783Y0068490D01*
X0314702Y0068546D01*
X0314623Y0068605D01*
X0314547Y0068668D01*
X0314474Y0068733D01*
X0314403Y0068802D01*
X0314402Y0068802D02*
X0314106Y0069098D01*
X0315046Y0071358D02*
X0314977Y0071424D01*
X0314906Y0071487D01*
X0314833Y0071547D01*
X0314757Y0071605D01*
X0314679Y0071659D01*
X0314599Y0071710D01*
X0314517Y0071758D01*
X0314433Y0071803D01*
X0314348Y0071845D01*
X0314260Y0071883D01*
X0314172Y0071917D01*
X0314082Y0071949D01*
X0313991Y0071976D01*
X0313899Y0072000D01*
X0313806Y0072020D01*
X0313713Y0072037D01*
X0313619Y0072050D01*
X0313524Y0072060D01*
X0313429Y0072065D01*
X0313334Y0072067D01*
X0310337Y0072067D01*
X0312733Y0069667D02*
X0295345Y0069667D01*
X0290893Y0071511D02*
X0286337Y0076067D01*
X0290892Y0071511D02*
X0291003Y0071403D01*
X0291116Y0071298D01*
X0291232Y0071196D01*
X0291350Y0071096D01*
X0291471Y0071000D01*
X0291594Y0070906D01*
X0291719Y0070816D01*
X0291847Y0070728D01*
X0291976Y0070644D01*
X0292108Y0070563D01*
X0292241Y0070485D01*
X0292377Y0070411D01*
X0292514Y0070339D01*
X0292653Y0070272D01*
X0292793Y0070207D01*
X0292935Y0070146D01*
X0293079Y0070089D01*
X0293224Y0070035D01*
X0293370Y0069985D01*
X0293517Y0069938D01*
X0293666Y0069895D01*
X0293815Y0069856D01*
X0293965Y0069820D01*
X0294117Y0069788D01*
X0294268Y0069760D01*
X0294421Y0069735D01*
X0294574Y0069714D01*
X0294728Y0069697D01*
X0294882Y0069684D01*
X0295036Y0069675D01*
X0295190Y0069669D01*
X0295345Y0069667D01*
X0309447Y0061667D02*
X0309570Y0061669D01*
X0309693Y0061674D01*
X0309816Y0061684D01*
X0309939Y0061697D01*
X0310061Y0061713D01*
X0310182Y0061734D01*
X0310303Y0061758D01*
X0310423Y0061786D01*
X0310543Y0061817D01*
X0310661Y0061852D01*
X0310778Y0061890D01*
X0310894Y0061932D01*
X0311008Y0061978D01*
X0311121Y0062026D01*
X0311233Y0062079D01*
X0311343Y0062134D01*
X0311451Y0062193D01*
X0311558Y0062255D01*
X0311662Y0062321D01*
X0311765Y0062389D01*
X0311865Y0062461D01*
X0311963Y0062535D01*
X0312059Y0062613D01*
X0312153Y0062693D01*
X0312244Y0062776D01*
X0312332Y0062862D01*
X0309447Y0061667D02*
X0266337Y0061667D01*
X0264780Y0063224D01*
X0264737Y0063267D01*
X0245537Y0063267D01*
X0245094Y0063224D01*
X0244737Y0062467D01*
X0236566Y0062467D01*
X0232761Y0060890D02*
X0227437Y0055567D01*
X0232760Y0060891D02*
X0232865Y0060992D01*
X0232972Y0061091D01*
X0233082Y0061187D01*
X0233194Y0061280D01*
X0233309Y0061370D01*
X0233426Y0061456D01*
X0233546Y0061540D01*
X0233667Y0061620D01*
X0233791Y0061697D01*
X0233917Y0061770D01*
X0234045Y0061840D01*
X0234175Y0061907D01*
X0234306Y0061970D01*
X0234439Y0062029D01*
X0234574Y0062085D01*
X0234710Y0062137D01*
X0234848Y0062185D01*
X0234986Y0062230D01*
X0235126Y0062271D01*
X0235267Y0062308D01*
X0235409Y0062341D01*
X0235552Y0062371D01*
X0235695Y0062396D01*
X0235839Y0062418D01*
X0235984Y0062435D01*
X0236129Y0062449D01*
X0236275Y0062459D01*
X0236420Y0062465D01*
X0236566Y0062467D01*
X0225537Y0071267D02*
X0224937Y0070567D01*
X0225537Y0071267D02*
X0234509Y0080239D01*
X0239887Y0082467D02*
X0244737Y0082467D01*
X0245094Y0082909D01*
X0245537Y0083267D01*
X0264737Y0083267D01*
X0264780Y0082909D01*
X0265537Y0082467D01*
X0268911Y0079093D01*
X0270422Y0078467D02*
X0314337Y0078467D01*
X0316737Y0076067D01*
X0317378Y0075724D01*
X0317537Y0076067D01*
X0427137Y0076067D01*
X0427378Y0075724D01*
X0436929Y0100067D02*
X0437344Y0100062D01*
X0437759Y0100047D01*
X0438174Y0100021D01*
X0438587Y0099986D01*
X0439000Y0099940D01*
X0439412Y0099884D01*
X0439822Y0099818D01*
X0440230Y0099742D01*
X0440636Y0099656D01*
X0441040Y0099560D01*
X0441442Y0099454D01*
X0441840Y0099338D01*
X0442236Y0099213D01*
X0442629Y0099078D01*
X0443018Y0098933D01*
X0443404Y0098779D01*
X0443785Y0098616D01*
X0444163Y0098443D01*
X0444536Y0098260D01*
X0444905Y0098069D01*
X0445268Y0097869D01*
X0445627Y0097660D01*
X0445981Y0097442D01*
X0446329Y0097216D01*
X0446671Y0096981D01*
X0447008Y0096737D01*
X0447338Y0096486D01*
X0447662Y0096227D01*
X0447980Y0095959D01*
X0448291Y0095684D01*
X0448595Y0095402D01*
X0448893Y0095112D01*
X0448892Y0095111D02*
X0454398Y0089605D01*
X0463907Y0085667D02*
X0497537Y0085667D01*
X0497537Y0075667D01*
X0497535Y0075549D01*
X0497529Y0075432D01*
X0497520Y0075314D01*
X0497506Y0075197D01*
X0497489Y0075081D01*
X0497468Y0074965D01*
X0497443Y0074850D01*
X0497414Y0074735D01*
X0497382Y0074622D01*
X0497346Y0074510D01*
X0497306Y0074399D01*
X0497263Y0074289D01*
X0497216Y0074181D01*
X0497166Y0074075D01*
X0497112Y0073970D01*
X0497055Y0073867D01*
X0496994Y0073766D01*
X0496930Y0073667D01*
X0496863Y0073570D01*
X0496793Y0073475D01*
X0496720Y0073383D01*
X0496644Y0073293D01*
X0496565Y0073206D01*
X0496483Y0073121D01*
X0496398Y0073039D01*
X0496311Y0072960D01*
X0496221Y0072884D01*
X0496129Y0072811D01*
X0496034Y0072741D01*
X0495937Y0072674D01*
X0495838Y0072610D01*
X0495737Y0072549D01*
X0495634Y0072492D01*
X0495529Y0072438D01*
X0495423Y0072388D01*
X0495315Y0072341D01*
X0495205Y0072298D01*
X0495094Y0072258D01*
X0494982Y0072222D01*
X0494869Y0072190D01*
X0494754Y0072161D01*
X0494639Y0072136D01*
X0494523Y0072115D01*
X0494407Y0072098D01*
X0494290Y0072084D01*
X0494172Y0072075D01*
X0494055Y0072069D01*
X0493937Y0072067D01*
X0493537Y0064867D02*
X0483924Y0074479D01*
X0492737Y0083267D02*
X0493937Y0082067D01*
X0492737Y0083267D02*
X0438746Y0083267D01*
X0435316Y0084688D02*
X0430471Y0089533D01*
X0428216Y0090467D02*
X0391937Y0090467D01*
X0382229Y0080867D02*
X0382046Y0080869D01*
X0381863Y0080876D01*
X0381680Y0080887D01*
X0381497Y0080903D01*
X0381315Y0080923D01*
X0381134Y0080948D01*
X0380953Y0080977D01*
X0380773Y0081010D01*
X0380593Y0081048D01*
X0380415Y0081091D01*
X0380238Y0081137D01*
X0380062Y0081188D01*
X0379887Y0081244D01*
X0379714Y0081303D01*
X0379542Y0081367D01*
X0379372Y0081435D01*
X0379204Y0081507D01*
X0379037Y0081584D01*
X0378873Y0081664D01*
X0378710Y0081748D01*
X0378550Y0081837D01*
X0378391Y0081929D01*
X0378235Y0082025D01*
X0378082Y0082125D01*
X0377931Y0082229D01*
X0377782Y0082336D01*
X0377636Y0082447D01*
X0377493Y0082561D01*
X0377353Y0082679D01*
X0377216Y0082801D01*
X0377082Y0082925D01*
X0376950Y0083053D01*
X0370337Y0089667D01*
X0369632Y0095267D02*
X0326337Y0095267D01*
X0321537Y0100067D01*
X0280735Y0100067D01*
X0278007Y0098937D02*
X0275328Y0096258D01*
X0272935Y0095267D02*
X0228612Y0095267D01*
X0226094Y0094224D02*
X0226034Y0094167D01*
X0225972Y0094112D01*
X0225907Y0094060D01*
X0225840Y0094011D01*
X0225771Y0093965D01*
X0225700Y0093922D01*
X0225627Y0093882D01*
X0225553Y0093845D01*
X0225477Y0093812D01*
X0225400Y0093782D01*
X0225321Y0093755D01*
X0225241Y0093732D01*
X0225161Y0093712D01*
X0225079Y0093696D01*
X0224997Y0093683D01*
X0224915Y0093674D01*
X0224832Y0093669D01*
X0224749Y0093667D01*
X0153037Y0093667D01*
X0149793Y0095011D02*
X0143137Y0101667D01*
X0143137Y0104867D01*
X0142752Y0105567D01*
X0149793Y0095011D02*
X0149889Y0094918D01*
X0149987Y0094828D01*
X0150088Y0094740D01*
X0150191Y0094656D01*
X0150297Y0094575D01*
X0150405Y0094497D01*
X0150516Y0094422D01*
X0150628Y0094350D01*
X0150743Y0094282D01*
X0150860Y0094217D01*
X0150978Y0094155D01*
X0151098Y0094097D01*
X0151220Y0094042D01*
X0151343Y0093991D01*
X0151468Y0093944D01*
X0151594Y0093900D01*
X0151721Y0093860D01*
X0151850Y0093823D01*
X0151979Y0093791D01*
X0152109Y0093762D01*
X0152240Y0093737D01*
X0152372Y0093715D01*
X0152504Y0093698D01*
X0152637Y0093684D01*
X0152770Y0093675D01*
X0152904Y0093669D01*
X0153037Y0093667D01*
X0187247Y0115157D02*
X0196737Y0105667D01*
X0197437Y0105567D01*
X0187247Y0115157D02*
X0187096Y0115304D01*
X0186942Y0115447D01*
X0186785Y0115586D01*
X0186624Y0115722D01*
X0186460Y0115853D01*
X0186292Y0115980D01*
X0186122Y0116104D01*
X0185948Y0116223D01*
X0185772Y0116337D01*
X0185593Y0116448D01*
X0185411Y0116554D01*
X0185227Y0116655D01*
X0185040Y0116752D01*
X0184851Y0116844D01*
X0184660Y0116932D01*
X0184467Y0117015D01*
X0184271Y0117093D01*
X0184074Y0117166D01*
X0183875Y0117234D01*
X0183675Y0117298D01*
X0183473Y0117357D01*
X0183269Y0117410D01*
X0183065Y0117459D01*
X0182859Y0117502D01*
X0182652Y0117541D01*
X0182444Y0117574D01*
X0182236Y0117603D01*
X0182027Y0117626D01*
X0181817Y0117644D01*
X0181608Y0117657D01*
X0181397Y0117664D01*
X0181187Y0117667D01*
X0095529Y0117667D01*
X0092129Y0116259D02*
X0087299Y0111428D01*
X0085537Y0107176D02*
X0085537Y0105667D01*
X0085252Y0105567D01*
X0085537Y0107176D02*
X0085539Y0107328D01*
X0085545Y0107481D01*
X0085554Y0107633D01*
X0085568Y0107784D01*
X0085585Y0107936D01*
X0085606Y0108087D01*
X0085631Y0108237D01*
X0085660Y0108387D01*
X0085693Y0108535D01*
X0085729Y0108683D01*
X0085769Y0108830D01*
X0085813Y0108976D01*
X0085860Y0109121D01*
X0085911Y0109265D01*
X0085966Y0109407D01*
X0086024Y0109548D01*
X0086086Y0109687D01*
X0086152Y0109825D01*
X0086220Y0109960D01*
X0086293Y0110095D01*
X0086368Y0110227D01*
X0086447Y0110357D01*
X0086529Y0110485D01*
X0086615Y0110612D01*
X0086704Y0110736D01*
X0086795Y0110857D01*
X0086890Y0110976D01*
X0086988Y0111093D01*
X0087089Y0111208D01*
X0087192Y0111319D01*
X0087298Y0111429D01*
X0092129Y0116259D02*
X0092226Y0116353D01*
X0092325Y0116444D01*
X0092427Y0116532D01*
X0092531Y0116618D01*
X0092638Y0116701D01*
X0092747Y0116780D01*
X0092858Y0116857D01*
X0092971Y0116930D01*
X0093086Y0117000D01*
X0093203Y0117067D01*
X0093322Y0117131D01*
X0093443Y0117191D01*
X0093565Y0117248D01*
X0093689Y0117301D01*
X0093814Y0117351D01*
X0093941Y0117397D01*
X0094069Y0117440D01*
X0094198Y0117479D01*
X0094328Y0117515D01*
X0094459Y0117546D01*
X0094591Y0117575D01*
X0094724Y0117599D01*
X0094857Y0117620D01*
X0094991Y0117637D01*
X0095125Y0117650D01*
X0095259Y0117659D01*
X0095394Y0117665D01*
X0095529Y0117667D01*
X0106435Y0087267D02*
X0269137Y0087267D01*
X0271748Y0082656D01*
X0276067Y0080867D02*
X0372737Y0080867D01*
X0382229Y0080867D02*
X0468504Y0080867D01*
X0438746Y0083267D02*
X0438610Y0083269D01*
X0438474Y0083275D01*
X0438338Y0083284D01*
X0438203Y0083298D01*
X0438068Y0083315D01*
X0437933Y0083336D01*
X0437800Y0083360D01*
X0437667Y0083389D01*
X0437534Y0083421D01*
X0437403Y0083457D01*
X0437273Y0083496D01*
X0437144Y0083539D01*
X0437016Y0083586D01*
X0436890Y0083636D01*
X0436765Y0083690D01*
X0436641Y0083747D01*
X0436519Y0083808D01*
X0436399Y0083872D01*
X0436281Y0083940D01*
X0436165Y0084011D01*
X0436051Y0084085D01*
X0435939Y0084162D01*
X0435829Y0084242D01*
X0435721Y0084325D01*
X0435616Y0084412D01*
X0435514Y0084501D01*
X0435413Y0084593D01*
X0435316Y0084688D01*
X0430471Y0089533D02*
X0430393Y0089609D01*
X0430312Y0089682D01*
X0430229Y0089752D01*
X0430143Y0089819D01*
X0430055Y0089883D01*
X0429965Y0089945D01*
X0429873Y0090003D01*
X0429779Y0090058D01*
X0429683Y0090109D01*
X0429586Y0090158D01*
X0429486Y0090203D01*
X0429386Y0090245D01*
X0429284Y0090283D01*
X0429181Y0090318D01*
X0429076Y0090349D01*
X0428971Y0090376D01*
X0428865Y0090400D01*
X0428758Y0090421D01*
X0428650Y0090437D01*
X0428542Y0090450D01*
X0428434Y0090460D01*
X0428325Y0090465D01*
X0428216Y0090467D01*
X0436929Y0100067D02*
X0410361Y0100067D01*
X0406223Y0101781D02*
X0402437Y0105567D01*
X0406337Y0110467D02*
X0406410Y0110538D01*
X0406487Y0110606D01*
X0406565Y0110671D01*
X0406646Y0110733D01*
X0406730Y0110792D01*
X0406815Y0110848D01*
X0406903Y0110901D01*
X0406992Y0110951D01*
X0407083Y0110997D01*
X0407176Y0111039D01*
X0407270Y0111078D01*
X0407366Y0111114D01*
X0407463Y0111146D01*
X0407561Y0111174D01*
X0407660Y0111199D01*
X0407760Y0111219D01*
X0407861Y0111236D01*
X0407962Y0111250D01*
X0408064Y0111259D01*
X0408166Y0111265D01*
X0408268Y0111267D01*
X0485643Y0111267D01*
X0485248Y0102755D02*
X0485410Y0102598D01*
X0485575Y0102445D01*
X0485744Y0102296D01*
X0485916Y0102151D01*
X0486092Y0102010D01*
X0486271Y0101873D01*
X0486454Y0101741D01*
X0486639Y0101614D01*
X0486828Y0101491D01*
X0487020Y0101373D01*
X0487215Y0101259D01*
X0487412Y0101151D01*
X0487612Y0101047D01*
X0487814Y0100948D01*
X0488019Y0100854D01*
X0488226Y0100766D01*
X0488436Y0100682D01*
X0488647Y0100604D01*
X0488860Y0100530D01*
X0489074Y0100462D01*
X0489291Y0100399D01*
X0489509Y0100342D01*
X0489728Y0100290D01*
X0489948Y0100243D01*
X0490170Y0100202D01*
X0490392Y0100166D01*
X0490615Y0100136D01*
X0490839Y0100111D01*
X0491064Y0100092D01*
X0491289Y0100078D01*
X0491514Y0100070D01*
X0491739Y0100067D01*
X0493537Y0100067D01*
X0493937Y0099567D01*
X0492291Y0108513D02*
X0492131Y0108670D01*
X0491967Y0108822D01*
X0491800Y0108971D01*
X0491629Y0109115D01*
X0491455Y0109255D01*
X0491277Y0109392D01*
X0491097Y0109524D01*
X0490913Y0109651D01*
X0490726Y0109774D01*
X0490536Y0109893D01*
X0490344Y0110007D01*
X0490149Y0110117D01*
X0489951Y0110222D01*
X0489751Y0110322D01*
X0489549Y0110417D01*
X0489344Y0110508D01*
X0489137Y0110594D01*
X0488929Y0110674D01*
X0488718Y0110750D01*
X0488506Y0110821D01*
X0488292Y0110886D01*
X0488076Y0110947D01*
X0487860Y0111002D01*
X0487642Y0111052D01*
X0487422Y0111097D01*
X0487202Y0111137D01*
X0486981Y0111171D01*
X0486759Y0111201D01*
X0486537Y0111224D01*
X0486314Y0111243D01*
X0486090Y0111256D01*
X0485867Y0111264D01*
X0485643Y0111267D01*
X0492291Y0108513D02*
X0493537Y0107267D01*
X0493937Y0107067D01*
X0485249Y0102755D02*
X0482437Y0105567D01*
X0463907Y0085667D02*
X0463577Y0085671D01*
X0463247Y0085683D01*
X0462918Y0085703D01*
X0462589Y0085732D01*
X0462261Y0085768D01*
X0461934Y0085813D01*
X0461608Y0085865D01*
X0461284Y0085925D01*
X0460961Y0085994D01*
X0460640Y0086070D01*
X0460321Y0086154D01*
X0460004Y0086246D01*
X0459689Y0086346D01*
X0459377Y0086453D01*
X0459067Y0086568D01*
X0458761Y0086691D01*
X0458458Y0086821D01*
X0458158Y0086958D01*
X0457861Y0087103D01*
X0457568Y0087255D01*
X0457279Y0087414D01*
X0456994Y0087580D01*
X0456713Y0087753D01*
X0456436Y0087933D01*
X0456164Y0088120D01*
X0455897Y0088313D01*
X0455634Y0088513D01*
X0455376Y0088719D01*
X0455124Y0088932D01*
X0454877Y0089150D01*
X0454635Y0089375D01*
X0454399Y0089606D01*
X0410361Y0100067D02*
X0410213Y0100069D01*
X0410065Y0100075D01*
X0409917Y0100084D01*
X0409769Y0100097D01*
X0409622Y0100114D01*
X0409475Y0100134D01*
X0409329Y0100159D01*
X0409183Y0100187D01*
X0409038Y0100218D01*
X0408894Y0100254D01*
X0408751Y0100293D01*
X0408609Y0100335D01*
X0408468Y0100382D01*
X0408329Y0100431D01*
X0408190Y0100485D01*
X0408053Y0100541D01*
X0407918Y0100601D01*
X0407784Y0100665D01*
X0407652Y0100732D01*
X0407521Y0100802D01*
X0407392Y0100876D01*
X0407266Y0100953D01*
X0407141Y0101033D01*
X0407018Y0101116D01*
X0406897Y0101202D01*
X0406779Y0101291D01*
X0406663Y0101384D01*
X0406549Y0101479D01*
X0406438Y0101577D01*
X0406329Y0101678D01*
X0406223Y0101781D01*
X0392437Y0105567D02*
X0391937Y0105667D01*
X0383137Y0105667D01*
X0382437Y0105567D01*
X0382337Y0104867D01*
X0374932Y0097462D01*
X0374800Y0097334D01*
X0374665Y0097209D01*
X0374528Y0097087D01*
X0374387Y0096968D01*
X0374243Y0096853D01*
X0374097Y0096742D01*
X0373948Y0096634D01*
X0373796Y0096530D01*
X0373642Y0096430D01*
X0373485Y0096333D01*
X0373326Y0096241D01*
X0373165Y0096152D01*
X0373002Y0096067D01*
X0372837Y0095987D01*
X0372669Y0095910D01*
X0372500Y0095838D01*
X0372329Y0095769D01*
X0372157Y0095705D01*
X0371983Y0095645D01*
X0371808Y0095590D01*
X0371631Y0095538D01*
X0371453Y0095492D01*
X0371274Y0095449D01*
X0371094Y0095411D01*
X0370913Y0095377D01*
X0370732Y0095348D01*
X0370549Y0095323D01*
X0370367Y0095303D01*
X0370183Y0095287D01*
X0370000Y0095276D01*
X0369816Y0095269D01*
X0369632Y0095267D01*
X0345537Y0089667D02*
X0344737Y0090467D01*
X0266290Y0090467D01*
X0263639Y0091565D02*
X0262337Y0092867D01*
X0263640Y0091565D02*
X0263724Y0091483D01*
X0263811Y0091404D01*
X0263901Y0091327D01*
X0263993Y0091253D01*
X0264087Y0091183D01*
X0264183Y0091115D01*
X0264282Y0091050D01*
X0264382Y0090989D01*
X0264484Y0090931D01*
X0264588Y0090876D01*
X0264694Y0090824D01*
X0264801Y0090775D01*
X0264910Y0090730D01*
X0265020Y0090689D01*
X0265132Y0090650D01*
X0265244Y0090616D01*
X0265358Y0090585D01*
X0265472Y0090557D01*
X0265588Y0090533D01*
X0265704Y0090513D01*
X0265820Y0090497D01*
X0265937Y0090484D01*
X0266055Y0090474D01*
X0266172Y0090469D01*
X0266290Y0090467D01*
X0271749Y0082656D02*
X0271859Y0082548D01*
X0271973Y0082443D01*
X0272089Y0082340D01*
X0272208Y0082241D01*
X0272329Y0082145D01*
X0272452Y0082052D01*
X0272578Y0081962D01*
X0272706Y0081875D01*
X0272837Y0081791D01*
X0272969Y0081711D01*
X0273103Y0081634D01*
X0273239Y0081561D01*
X0273378Y0081491D01*
X0273517Y0081425D01*
X0273659Y0081362D01*
X0273802Y0081303D01*
X0273946Y0081247D01*
X0274092Y0081195D01*
X0274239Y0081147D01*
X0274387Y0081103D01*
X0274536Y0081062D01*
X0274687Y0081025D01*
X0274838Y0080992D01*
X0274990Y0080963D01*
X0275142Y0080937D01*
X0275295Y0080916D01*
X0275449Y0080898D01*
X0275603Y0080885D01*
X0275758Y0080875D01*
X0275912Y0080869D01*
X0276067Y0080867D01*
X0270422Y0078467D02*
X0270334Y0078469D01*
X0270245Y0078474D01*
X0270158Y0078483D01*
X0270070Y0078496D01*
X0269983Y0078513D01*
X0269897Y0078532D01*
X0269812Y0078556D01*
X0269728Y0078583D01*
X0269645Y0078613D01*
X0269563Y0078647D01*
X0269483Y0078684D01*
X0269404Y0078725D01*
X0269328Y0078768D01*
X0269253Y0078815D01*
X0269180Y0078865D01*
X0269109Y0078918D01*
X0269040Y0078974D01*
X0268974Y0079032D01*
X0268910Y0079093D01*
X0239887Y0082467D02*
X0239706Y0082465D01*
X0239525Y0082458D01*
X0239344Y0082448D01*
X0239164Y0082433D01*
X0238984Y0082413D01*
X0238805Y0082390D01*
X0238626Y0082362D01*
X0238448Y0082330D01*
X0238270Y0082293D01*
X0238094Y0082253D01*
X0237918Y0082208D01*
X0237744Y0082159D01*
X0237571Y0082106D01*
X0237399Y0082049D01*
X0237229Y0081987D01*
X0237060Y0081922D01*
X0236893Y0081853D01*
X0236727Y0081780D01*
X0236564Y0081703D01*
X0236402Y0081621D01*
X0236242Y0081537D01*
X0236084Y0081448D01*
X0235928Y0081356D01*
X0235775Y0081260D01*
X0235624Y0081160D01*
X0235475Y0081057D01*
X0235329Y0080950D01*
X0235185Y0080840D01*
X0235044Y0080726D01*
X0234906Y0080609D01*
X0234771Y0080489D01*
X0234638Y0080366D01*
X0234509Y0080239D01*
X0228612Y0095267D02*
X0228495Y0095265D01*
X0228379Y0095259D01*
X0228263Y0095250D01*
X0228147Y0095237D01*
X0228032Y0095219D01*
X0227917Y0095199D01*
X0227803Y0095174D01*
X0227690Y0095146D01*
X0227578Y0095114D01*
X0227467Y0095078D01*
X0227358Y0095039D01*
X0227249Y0094996D01*
X0227142Y0094950D01*
X0227037Y0094900D01*
X0226933Y0094847D01*
X0226831Y0094790D01*
X0226732Y0094730D01*
X0226634Y0094667D01*
X0226538Y0094601D01*
X0226444Y0094531D01*
X0226353Y0094459D01*
X0226264Y0094383D01*
X0226178Y0094305D01*
X0226094Y0094224D01*
X0224937Y0100567D02*
X0224737Y0100867D01*
X0217537Y0100867D01*
X0217437Y0100567D01*
X0247548Y0109667D02*
X0318337Y0109667D01*
X0324737Y0116067D01*
X0324937Y0116067D01*
X0304937Y0116067D02*
X0304737Y0116067D01*
X0302337Y0113667D01*
X0267937Y0113667D01*
X0265764Y0113067D01*
X0247548Y0109667D02*
X0247429Y0109669D01*
X0247310Y0109675D01*
X0247192Y0109684D01*
X0247073Y0109697D01*
X0246956Y0109715D01*
X0246839Y0109735D01*
X0246722Y0109760D01*
X0246607Y0109788D01*
X0246492Y0109820D01*
X0246379Y0109856D01*
X0246266Y0109895D01*
X0246155Y0109938D01*
X0246046Y0109985D01*
X0245938Y0110035D01*
X0245832Y0110088D01*
X0245727Y0110145D01*
X0245624Y0110205D01*
X0245524Y0110268D01*
X0245425Y0110334D01*
X0245328Y0110404D01*
X0245234Y0110477D01*
X0245142Y0110552D01*
X0245053Y0110631D01*
X0244966Y0110712D01*
X0244882Y0110796D01*
X0244801Y0110883D01*
X0244722Y0110972D01*
X0244647Y0111064D01*
X0244574Y0111158D01*
X0244504Y0111255D01*
X0244438Y0111354D01*
X0244375Y0111454D01*
X0244315Y0111557D01*
X0244258Y0111662D01*
X0244205Y0111768D01*
X0244155Y0111876D01*
X0244108Y0111985D01*
X0244065Y0112096D01*
X0244026Y0112209D01*
X0243990Y0112322D01*
X0243958Y0112437D01*
X0243930Y0112552D01*
X0243905Y0112669D01*
X0243885Y0112786D01*
X0243867Y0112903D01*
X0243854Y0113022D01*
X0243845Y0113140D01*
X0243839Y0113259D01*
X0243837Y0113378D01*
X0243837Y0116867D01*
X0244110Y0117398D01*
X0307437Y0105567D02*
X0307937Y0104867D01*
X0323937Y0104867D01*
X0330337Y0098467D01*
X0280735Y0100067D02*
X0280614Y0100065D01*
X0280493Y0100059D01*
X0280372Y0100050D01*
X0280251Y0100037D01*
X0280131Y0100019D01*
X0280012Y0099999D01*
X0279893Y0099974D01*
X0279775Y0099946D01*
X0279658Y0099914D01*
X0279543Y0099878D01*
X0279428Y0099839D01*
X0279314Y0099796D01*
X0279202Y0099750D01*
X0279092Y0099700D01*
X0278983Y0099646D01*
X0278876Y0099590D01*
X0278771Y0099530D01*
X0278667Y0099466D01*
X0278566Y0099400D01*
X0278467Y0099330D01*
X0278370Y0099257D01*
X0278275Y0099181D01*
X0278183Y0099103D01*
X0278093Y0099021D01*
X0278006Y0098937D01*
X0275328Y0096258D02*
X0275245Y0096178D01*
X0275159Y0096100D01*
X0275071Y0096026D01*
X0274980Y0095955D01*
X0274886Y0095886D01*
X0274791Y0095821D01*
X0274693Y0095760D01*
X0274594Y0095701D01*
X0274492Y0095646D01*
X0274388Y0095595D01*
X0274283Y0095547D01*
X0274176Y0095503D01*
X0274068Y0095462D01*
X0273959Y0095426D01*
X0273848Y0095392D01*
X0273736Y0095363D01*
X0273623Y0095338D01*
X0273510Y0095316D01*
X0273396Y0095299D01*
X0273281Y0095285D01*
X0273166Y0095275D01*
X0273051Y0095269D01*
X0272935Y0095267D01*
X0315057Y0071346D02*
X0315134Y0071272D01*
X0315214Y0071200D01*
X0315296Y0071132D01*
X0315381Y0071066D01*
X0315468Y0071003D01*
X0315557Y0070944D01*
X0315648Y0070887D01*
X0315741Y0070834D01*
X0315836Y0070785D01*
X0315933Y0070738D01*
X0316031Y0070696D01*
X0316131Y0070656D01*
X0316232Y0070621D01*
X0316334Y0070589D01*
X0316438Y0070560D01*
X0316542Y0070536D01*
X0316647Y0070515D01*
X0316753Y0070498D01*
X0316859Y0070484D01*
X0316966Y0070475D01*
X0317073Y0070469D01*
X0317180Y0070467D01*
X0315058Y0071346D02*
X0315046Y0071358D01*
X0316176Y0068067D02*
X0316501Y0068067D01*
X0314106Y0069098D02*
X0314045Y0069157D01*
X0313981Y0069213D01*
X0313915Y0069266D01*
X0313847Y0069316D01*
X0313776Y0069363D01*
X0313704Y0069407D01*
X0313630Y0069448D01*
X0313554Y0069485D01*
X0313476Y0069519D01*
X0313397Y0069550D01*
X0313317Y0069577D01*
X0313236Y0069601D01*
X0313153Y0069621D01*
X0313070Y0069637D01*
X0312986Y0069650D01*
X0312902Y0069660D01*
X0312818Y0069665D01*
X0312733Y0069667D01*
X0329620Y0068784D02*
X0338337Y0060067D01*
X0351137Y0060067D01*
X0358446Y0067376D01*
X0363977Y0069667D02*
X0372848Y0069667D01*
X0374024Y0069179D02*
X0376225Y0066978D01*
X0376737Y0065744D02*
X0376737Y0064067D01*
X0376735Y0063988D01*
X0376729Y0063910D01*
X0376720Y0063832D01*
X0376706Y0063755D01*
X0376689Y0063678D01*
X0376668Y0063603D01*
X0376643Y0063528D01*
X0376615Y0063455D01*
X0376583Y0063383D01*
X0376548Y0063313D01*
X0376509Y0063244D01*
X0376467Y0063178D01*
X0376422Y0063114D01*
X0376374Y0063052D01*
X0376323Y0062993D01*
X0376268Y0062936D01*
X0376211Y0062881D01*
X0376152Y0062830D01*
X0376090Y0062782D01*
X0376026Y0062737D01*
X0375960Y0062695D01*
X0375891Y0062656D01*
X0375821Y0062621D01*
X0375749Y0062589D01*
X0375676Y0062561D01*
X0375601Y0062536D01*
X0375526Y0062515D01*
X0375449Y0062498D01*
X0375372Y0062484D01*
X0375294Y0062475D01*
X0375216Y0062469D01*
X0375137Y0062467D01*
X0371538Y0058868D01*
X0368638Y0057667D02*
X0360068Y0057667D01*
X0358479Y0057009D02*
X0355137Y0053667D01*
X0354937Y0053567D01*
X0358479Y0057009D02*
X0358546Y0057073D01*
X0358616Y0057135D01*
X0358688Y0057193D01*
X0358762Y0057249D01*
X0358839Y0057301D01*
X0358918Y0057350D01*
X0358999Y0057396D01*
X0359081Y0057439D01*
X0359165Y0057478D01*
X0359251Y0057513D01*
X0359338Y0057545D01*
X0359427Y0057574D01*
X0359516Y0057598D01*
X0359607Y0057619D01*
X0359698Y0057636D01*
X0359790Y0057650D01*
X0359882Y0057659D01*
X0359975Y0057665D01*
X0360068Y0057667D01*
X0355865Y0060067D02*
X0355744Y0060065D01*
X0355624Y0060059D01*
X0355503Y0060049D01*
X0355383Y0060035D01*
X0355264Y0060018D01*
X0355145Y0059996D01*
X0355027Y0059971D01*
X0354910Y0059941D01*
X0354794Y0059908D01*
X0354679Y0059871D01*
X0354566Y0059831D01*
X0354453Y0059786D01*
X0354343Y0059738D01*
X0354233Y0059687D01*
X0354126Y0059631D01*
X0354020Y0059573D01*
X0353917Y0059511D01*
X0353815Y0059445D01*
X0353716Y0059377D01*
X0353619Y0059305D01*
X0353525Y0059230D01*
X0353433Y0059152D01*
X0353343Y0059070D01*
X0353256Y0058987D01*
X0353256Y0058986D02*
X0347137Y0052867D01*
X0345537Y0052867D01*
X0344937Y0052567D01*
X0364937Y0052567D02*
X0365537Y0052867D01*
X0368696Y0052867D01*
X0371498Y0054027D02*
X0382337Y0064867D01*
X0382437Y0065567D01*
X0376737Y0065744D02*
X0376735Y0065825D01*
X0376730Y0065905D01*
X0376720Y0065985D01*
X0376707Y0066065D01*
X0376691Y0066144D01*
X0376670Y0066222D01*
X0376646Y0066299D01*
X0376619Y0066375D01*
X0376588Y0066449D01*
X0376554Y0066522D01*
X0376516Y0066594D01*
X0376475Y0066663D01*
X0376431Y0066731D01*
X0376384Y0066796D01*
X0376334Y0066859D01*
X0376281Y0066920D01*
X0376226Y0066979D01*
X0374025Y0069180D02*
X0373969Y0069233D01*
X0373911Y0069283D01*
X0373851Y0069331D01*
X0373788Y0069376D01*
X0373724Y0069418D01*
X0373658Y0069457D01*
X0373590Y0069493D01*
X0373520Y0069525D01*
X0373449Y0069555D01*
X0373377Y0069581D01*
X0373303Y0069603D01*
X0373229Y0069623D01*
X0373154Y0069639D01*
X0373078Y0069651D01*
X0373002Y0069660D01*
X0372925Y0069665D01*
X0372848Y0069667D01*
X0372437Y0065567D02*
X0371937Y0064867D01*
X0368227Y0061157D01*
X0368638Y0057667D02*
X0368762Y0057669D01*
X0368886Y0057674D01*
X0369009Y0057684D01*
X0369132Y0057697D01*
X0369255Y0057714D01*
X0369377Y0057734D01*
X0369499Y0057758D01*
X0369619Y0057786D01*
X0369739Y0057818D01*
X0369858Y0057853D01*
X0369976Y0057891D01*
X0370092Y0057933D01*
X0370207Y0057979D01*
X0370321Y0058028D01*
X0370433Y0058081D01*
X0370544Y0058137D01*
X0370653Y0058196D01*
X0370760Y0058258D01*
X0370865Y0058324D01*
X0370968Y0058393D01*
X0371069Y0058465D01*
X0371167Y0058540D01*
X0371264Y0058618D01*
X0371357Y0058698D01*
X0371449Y0058782D01*
X0371538Y0058868D01*
X0371498Y0054027D02*
X0371408Y0053941D01*
X0371316Y0053857D01*
X0371221Y0053776D01*
X0371124Y0053698D01*
X0371025Y0053624D01*
X0370923Y0053552D01*
X0370819Y0053484D01*
X0370713Y0053419D01*
X0370605Y0053357D01*
X0370495Y0053299D01*
X0370383Y0053244D01*
X0370269Y0053193D01*
X0370155Y0053145D01*
X0370038Y0053101D01*
X0369920Y0053061D01*
X0369801Y0053024D01*
X0369681Y0052991D01*
X0369560Y0052962D01*
X0369438Y0052937D01*
X0369316Y0052916D01*
X0369193Y0052898D01*
X0369069Y0052885D01*
X0368945Y0052875D01*
X0368820Y0052869D01*
X0368696Y0052867D01*
X0365596Y0060067D02*
X0355865Y0060067D01*
X0358445Y0067376D02*
X0358583Y0067510D01*
X0358723Y0067640D01*
X0358867Y0067768D01*
X0359014Y0067891D01*
X0359164Y0068011D01*
X0359317Y0068127D01*
X0359472Y0068240D01*
X0359631Y0068349D01*
X0359792Y0068453D01*
X0359955Y0068554D01*
X0360121Y0068651D01*
X0360289Y0068743D01*
X0360460Y0068832D01*
X0360632Y0068916D01*
X0360807Y0068996D01*
X0360983Y0069072D01*
X0361162Y0069143D01*
X0361342Y0069210D01*
X0361523Y0069272D01*
X0361706Y0069330D01*
X0361891Y0069384D01*
X0362076Y0069433D01*
X0362263Y0069477D01*
X0362451Y0069517D01*
X0362640Y0069552D01*
X0362829Y0069582D01*
X0363019Y0069608D01*
X0363210Y0069629D01*
X0363402Y0069646D01*
X0363593Y0069658D01*
X0363785Y0069665D01*
X0363977Y0069667D01*
X0368226Y0061157D02*
X0368139Y0061072D01*
X0368049Y0060990D01*
X0367956Y0060911D01*
X0367861Y0060836D01*
X0367763Y0060763D01*
X0367663Y0060694D01*
X0367560Y0060628D01*
X0367456Y0060565D01*
X0367350Y0060506D01*
X0367241Y0060451D01*
X0367131Y0060399D01*
X0367020Y0060350D01*
X0366906Y0060305D01*
X0366792Y0060264D01*
X0366676Y0060227D01*
X0366559Y0060194D01*
X0366441Y0060164D01*
X0366322Y0060138D01*
X0366202Y0060117D01*
X0366082Y0060099D01*
X0365961Y0060085D01*
X0365839Y0060075D01*
X0365718Y0060069D01*
X0365596Y0060067D01*
X0468504Y0080867D02*
X0469039Y0080860D01*
X0469574Y0080841D01*
X0470108Y0080808D01*
X0470642Y0080762D01*
X0471174Y0080703D01*
X0471704Y0080631D01*
X0472232Y0080546D01*
X0472759Y0080448D01*
X0473282Y0080337D01*
X0473803Y0080213D01*
X0474320Y0080077D01*
X0474835Y0079928D01*
X0475345Y0079766D01*
X0475851Y0079592D01*
X0476353Y0079406D01*
X0476850Y0079207D01*
X0477342Y0078996D01*
X0477828Y0078773D01*
X0478309Y0078538D01*
X0478784Y0078292D01*
X0479253Y0078034D01*
X0479716Y0077764D01*
X0480171Y0077484D01*
X0480620Y0077192D01*
X0481061Y0076889D01*
X0481495Y0076575D01*
X0481921Y0076251D01*
X0482339Y0075917D01*
X0482748Y0075572D01*
X0483149Y0075218D01*
X0483542Y0074853D01*
X0483925Y0074480D01*
X0493537Y0064867D02*
X0493937Y0064567D01*
X0493537Y0055267D02*
X0477537Y0055267D01*
X0477437Y0055567D01*
X0493537Y0055267D02*
X0493937Y0054567D01*
X0406337Y0110467D02*
X0400877Y0110467D01*
X0397907Y0111697D02*
X0395137Y0114467D01*
X0394937Y0115067D01*
X0397906Y0111697D02*
X0397998Y0111609D01*
X0398091Y0111524D01*
X0398187Y0111441D01*
X0398286Y0111361D01*
X0398387Y0111284D01*
X0398491Y0111211D01*
X0398596Y0111140D01*
X0398704Y0111073D01*
X0398813Y0111009D01*
X0398925Y0110948D01*
X0399038Y0110891D01*
X0399153Y0110837D01*
X0399269Y0110787D01*
X0399387Y0110740D01*
X0399507Y0110697D01*
X0399627Y0110657D01*
X0399749Y0110621D01*
X0399872Y0110589D01*
X0399995Y0110561D01*
X0400120Y0110536D01*
X0400245Y0110515D01*
X0400371Y0110498D01*
X0400497Y0110484D01*
X0400623Y0110475D01*
X0400750Y0110469D01*
X0400877Y0110467D01*
X0482437Y0115567D02*
X0483137Y0116067D01*
X0483937Y0116867D01*
X0493537Y0116867D01*
X0493937Y0117067D01*
X0207437Y0065567D02*
X0207137Y0065667D01*
X0197537Y0065667D01*
X0197437Y0065567D01*
X0106435Y0087267D02*
X0106246Y0087265D01*
X0106056Y0087258D01*
X0105867Y0087247D01*
X0105678Y0087231D01*
X0105490Y0087211D01*
X0105302Y0087186D01*
X0105115Y0087157D01*
X0104928Y0087123D01*
X0104743Y0087085D01*
X0104558Y0087043D01*
X0104375Y0086996D01*
X0104192Y0086945D01*
X0104011Y0086889D01*
X0103831Y0086829D01*
X0103653Y0086765D01*
X0103476Y0086697D01*
X0103301Y0086624D01*
X0103128Y0086548D01*
X0102956Y0086467D01*
X0102787Y0086382D01*
X0102620Y0086293D01*
X0102454Y0086200D01*
X0102292Y0086104D01*
X0102131Y0086003D01*
X0101973Y0085899D01*
X0101817Y0085791D01*
X0101664Y0085679D01*
X0101514Y0085564D01*
X0101366Y0085445D01*
X0101222Y0085323D01*
X0101080Y0085197D01*
X0100941Y0085068D01*
X0100806Y0084935D01*
X0100805Y0084935D02*
X0086908Y0071038D01*
X0085537Y0067728D02*
X0085537Y0065667D01*
X0085252Y0065567D01*
X0085537Y0067728D02*
X0085539Y0067864D01*
X0085545Y0068000D01*
X0085555Y0068136D01*
X0085569Y0068272D01*
X0085586Y0068407D01*
X0085608Y0068541D01*
X0085634Y0068675D01*
X0085663Y0068808D01*
X0085697Y0068940D01*
X0085734Y0069071D01*
X0085775Y0069201D01*
X0085819Y0069329D01*
X0085868Y0069457D01*
X0085920Y0069582D01*
X0085976Y0069707D01*
X0086035Y0069829D01*
X0086098Y0069950D01*
X0086164Y0070069D01*
X0086234Y0070186D01*
X0086307Y0070301D01*
X0086384Y0070413D01*
X0086463Y0070524D01*
X0086546Y0070632D01*
X0086632Y0070738D01*
X0086721Y0070841D01*
X0086813Y0070941D01*
X0086908Y0071039D01*
D23*
X0262337Y0092867D03*
X0306337Y0096067D03*
X0330337Y0098467D03*
X0345537Y0089667D03*
X0370337Y0089667D03*
X0391937Y0090467D03*
X0372737Y0080867D03*
X0315137Y0065667D03*
X0315137Y0061667D03*
X0310337Y0072067D03*
X0286337Y0076067D03*
D24*
X0317537Y0095267D02*
X0319937Y0092867D01*
X0388696Y0092867D01*
X0391498Y0094027D02*
X0391589Y0094116D01*
X0391684Y0094203D01*
X0391781Y0094286D01*
X0391880Y0094366D01*
X0391982Y0094444D01*
X0392086Y0094518D01*
X0392192Y0094589D01*
X0392301Y0094657D01*
X0392411Y0094721D01*
X0392523Y0094782D01*
X0392637Y0094840D01*
X0392753Y0094894D01*
X0392870Y0094945D01*
X0392989Y0094992D01*
X0393110Y0095036D01*
X0393231Y0095075D01*
X0393354Y0095112D01*
X0393477Y0095144D01*
X0393602Y0095173D01*
X0393727Y0095198D01*
X0393853Y0095219D01*
X0393980Y0095236D01*
X0394107Y0095250D01*
X0394234Y0095259D01*
X0394362Y0095265D01*
X0394490Y0095267D01*
X0427137Y0095267D01*
X0427378Y0095409D01*
X0391498Y0094027D02*
X0391408Y0093941D01*
X0391316Y0093857D01*
X0391221Y0093776D01*
X0391124Y0093698D01*
X0391025Y0093624D01*
X0390923Y0093552D01*
X0390819Y0093484D01*
X0390713Y0093419D01*
X0390605Y0093357D01*
X0390495Y0093299D01*
X0390383Y0093244D01*
X0390269Y0093193D01*
X0390155Y0093145D01*
X0390038Y0093101D01*
X0389920Y0093061D01*
X0389801Y0093024D01*
X0389681Y0092991D01*
X0389560Y0092962D01*
X0389438Y0092937D01*
X0389316Y0092916D01*
X0389193Y0092898D01*
X0389069Y0092885D01*
X0388945Y0092875D01*
X0388820Y0092869D01*
X0388696Y0092867D01*
X0317537Y0095267D02*
X0317378Y0095409D01*
X0316737Y0096067D01*
X0306337Y0096067D01*
X0271866Y0100587D02*
X0271137Y0100867D01*
X0238337Y0100867D01*
X0238008Y0100587D01*
X0207437Y0105567D02*
X0207137Y0104867D01*
X0205161Y0102891D01*
X0202206Y0101667D02*
X0193566Y0101667D01*
X0190785Y0102819D02*
X0188737Y0104867D01*
X0188028Y0105567D01*
X0190786Y0102819D02*
X0190874Y0102733D01*
X0190966Y0102650D01*
X0191060Y0102569D01*
X0191156Y0102492D01*
X0191255Y0102418D01*
X0191356Y0102347D01*
X0191459Y0102279D01*
X0191564Y0102215D01*
X0191672Y0102153D01*
X0191781Y0102096D01*
X0191892Y0102041D01*
X0192004Y0101990D01*
X0192119Y0101943D01*
X0192234Y0101899D01*
X0192351Y0101859D01*
X0192469Y0101823D01*
X0192588Y0101791D01*
X0192708Y0101762D01*
X0192829Y0101737D01*
X0192951Y0101715D01*
X0193073Y0101698D01*
X0193196Y0101684D01*
X0193319Y0101675D01*
X0193442Y0101669D01*
X0193566Y0101667D01*
X0202206Y0101666D02*
X0202332Y0101668D01*
X0202458Y0101674D01*
X0202584Y0101683D01*
X0202710Y0101696D01*
X0202835Y0101714D01*
X0202959Y0101734D01*
X0203083Y0101759D01*
X0203206Y0101787D01*
X0203328Y0101819D01*
X0203449Y0101855D01*
X0203569Y0101895D01*
X0203688Y0101938D01*
X0203805Y0101984D01*
X0203921Y0102034D01*
X0204035Y0102088D01*
X0204148Y0102145D01*
X0204259Y0102205D01*
X0204368Y0102269D01*
X0204475Y0102336D01*
X0204580Y0102406D01*
X0204683Y0102479D01*
X0204783Y0102555D01*
X0204881Y0102635D01*
X0204977Y0102717D01*
X0205070Y0102802D01*
X0205161Y0102890D01*
X0216737Y0070467D02*
X0217437Y0070567D01*
X0216737Y0070467D02*
X0216737Y0063947D01*
X0216735Y0063853D01*
X0216729Y0063759D01*
X0216719Y0063665D01*
X0216706Y0063572D01*
X0216688Y0063479D01*
X0216667Y0063387D01*
X0216642Y0063296D01*
X0216613Y0063207D01*
X0216581Y0063118D01*
X0216545Y0063031D01*
X0216505Y0062946D01*
X0216462Y0062862D01*
X0216416Y0062780D01*
X0216366Y0062700D01*
X0216313Y0062622D01*
X0216256Y0062547D01*
X0216197Y0062473D01*
X0216134Y0062403D01*
X0216069Y0062335D01*
X0216001Y0062270D01*
X0215931Y0062207D01*
X0215857Y0062148D01*
X0215782Y0062091D01*
X0215704Y0062038D01*
X0215624Y0061988D01*
X0215542Y0061942D01*
X0215458Y0061899D01*
X0215373Y0061859D01*
X0215286Y0061823D01*
X0215197Y0061791D01*
X0215108Y0061762D01*
X0215017Y0061737D01*
X0214925Y0061716D01*
X0214832Y0061698D01*
X0214739Y0061685D01*
X0214645Y0061675D01*
X0214551Y0061669D01*
X0214457Y0061667D01*
X0187937Y0061667D01*
X0187937Y0056067D01*
X0187437Y0055567D01*
X0187937Y0061667D02*
X0187937Y0064867D01*
X0188028Y0065567D01*
X0392437Y0065567D02*
X0402437Y0065567D01*
X0412437Y0065567D01*
X0420490Y0065567D01*
X0432349Y0060655D02*
X0437437Y0055567D01*
X0448301Y0060067D02*
X0475017Y0060067D01*
X0479319Y0061849D02*
X0482337Y0064867D01*
X0482437Y0065567D01*
X0479319Y0061848D02*
X0479209Y0061740D01*
X0479096Y0061636D01*
X0478980Y0061534D01*
X0478862Y0061435D01*
X0478741Y0061339D01*
X0478618Y0061246D01*
X0478493Y0061156D01*
X0478365Y0061070D01*
X0478235Y0060987D01*
X0478103Y0060907D01*
X0477970Y0060830D01*
X0477834Y0060757D01*
X0477696Y0060688D01*
X0477557Y0060622D01*
X0477416Y0060559D01*
X0477274Y0060500D01*
X0477130Y0060445D01*
X0476985Y0060393D01*
X0476838Y0060345D01*
X0476691Y0060301D01*
X0476542Y0060260D01*
X0476392Y0060223D01*
X0476242Y0060191D01*
X0476090Y0060161D01*
X0475938Y0060136D01*
X0475786Y0060115D01*
X0475633Y0060097D01*
X0475479Y0060084D01*
X0475325Y0060074D01*
X0475171Y0060068D01*
X0475017Y0060066D01*
X0448301Y0060067D02*
X0447935Y0060063D01*
X0447570Y0060050D01*
X0447205Y0060028D01*
X0446841Y0059997D01*
X0446477Y0059958D01*
X0446114Y0059911D01*
X0445753Y0059854D01*
X0445393Y0059789D01*
X0445035Y0059716D01*
X0444679Y0059634D01*
X0444325Y0059543D01*
X0443972Y0059445D01*
X0443623Y0059337D01*
X0443276Y0059222D01*
X0442932Y0059098D01*
X0442591Y0058966D01*
X0442253Y0058827D01*
X0441919Y0058679D01*
X0441588Y0058523D01*
X0441261Y0058359D01*
X0440938Y0058188D01*
X0440619Y0058009D01*
X0440305Y0057822D01*
X0439995Y0057628D01*
X0439689Y0057427D01*
X0439389Y0057218D01*
X0439094Y0057003D01*
X0438804Y0056780D01*
X0438519Y0056550D01*
X0438240Y0056314D01*
X0437966Y0056072D01*
X0437699Y0055822D01*
X0437437Y0055567D01*
X0432349Y0060655D02*
X0432063Y0060934D01*
X0431771Y0061206D01*
X0431473Y0061471D01*
X0431168Y0061728D01*
X0430857Y0061979D01*
X0430540Y0062222D01*
X0430218Y0062457D01*
X0429890Y0062685D01*
X0429557Y0062905D01*
X0429219Y0063116D01*
X0428876Y0063320D01*
X0428527Y0063516D01*
X0428175Y0063703D01*
X0427818Y0063881D01*
X0427457Y0064051D01*
X0427092Y0064213D01*
X0426723Y0064366D01*
X0426351Y0064510D01*
X0425975Y0064645D01*
X0425597Y0064771D01*
X0425215Y0064888D01*
X0424831Y0064996D01*
X0424444Y0065094D01*
X0424055Y0065184D01*
X0423664Y0065264D01*
X0423271Y0065335D01*
X0422877Y0065396D01*
X0422481Y0065448D01*
X0422084Y0065491D01*
X0421686Y0065524D01*
X0421288Y0065548D01*
X0420889Y0065562D01*
X0420490Y0065567D01*
X0404937Y0116067D02*
X0442337Y0116067D01*
X0442437Y0115567D01*
M02*
