%
M48
M72
T01C0.01200
T02C0.02756
T03C0.03200
T04C0.03543
T05C0.03937
T06C0.04000
T07C0.04331
T08C0.08268
%
T01
X372737Y80867
X370337Y89667
X391937Y90467
X345537Y89667
X330337Y98467
X306337Y96067
X262337Y92867
X286337Y76067
X310337Y72067
X315137Y65667
X315137Y61667
T02
X270094Y117398
X261433Y117398
X252772Y117398
X244110Y117398
X239780Y113067
X248441Y113067
X257102Y113067
X265764Y113067
T03
X493937Y54567
X477437Y55567
X482437Y65567
X493937Y64567
X493937Y72067
X493937Y82067
X493937Y89567
X493937Y99567
X493937Y107067
X482437Y105567
X482437Y115567
X493937Y117067
X442437Y115567
X412437Y105567
X402437Y105567
X392437Y105567
X382437Y105567
X372437Y105567
X307437Y105567
X297437Y105567
X224937Y100567
X217437Y100567
X207437Y105567
X197437Y105567
X217437Y70567
X224937Y70567
X207437Y65567
X197437Y65567
X187437Y55567
X227437Y55567
X287437Y55567
X287437Y65567
X297437Y65567
X307437Y65567
X372437Y65567
X382437Y65567
X392437Y65567
X402437Y65567
X412437Y65567
X437437Y55567
T04
X271866Y100587
X238008Y100587
T05
X264780Y63224
X245094Y63224
X245094Y82909
X264780Y82909
T06
X364937Y52567
X354937Y53567
X344937Y52567
X334937Y53567
X324937Y52567
X314937Y53567
X304937Y52567
X314937Y115067
X304937Y116067
X324937Y116067
X334937Y115067
X344937Y116067
X354937Y115067
X364937Y116067
X374937Y115067
X384937Y116067
X394937Y115067
X404937Y116067
T07
X427378Y75724
X427378Y85567
X427378Y95409
X317378Y95409
X317378Y85567
X317378Y75724
X188028Y65567
X176217Y65567
X142752Y65567
X130528Y65567
X118717Y65567
X85252Y65567
X85252Y105567
X118717Y105567
X130528Y105567
X142752Y105567
X176217Y105567
X188028Y105567
T08
X454937Y67850
X344937Y67850
X344937Y103283
X454937Y103283
M30
