G75*
%MOIN*%
%OFA0B0*%
%FSLAX25Y25*%
%IPPOS*%
%LPD*%
%AMOC8*
5,1,8,0,0,1.08239X$1,22.5*
%
%ADD10C,0.00100*%
%ADD11R,0.06600X0.06600*%
%ADD12OC8,0.06600*%
%ADD13R,0.12268X0.12268*%
%ADD14C,0.06496*%
%ADD15OC8,0.04800*%
%ADD16C,0.04800*%
%ADD17R,0.05906X0.05906*%
%ADD18R,0.04800X0.04800*%
%ADD19R,0.05315X0.05315*%
%ADD20C,0.04134*%
%ADD21C,0.07400*%
%ADD22C,0.01200*%
%ADD23C,0.02400*%
%ADD24C,0.01800*%
D10*
X0079937Y0048067D02*
X0501197Y0048067D01*
X0501197Y0122870D01*
X0079937Y0122870D01*
X0079937Y0048067D01*
D11*
X0317378Y0095409D03*
X0427378Y0095409D03*
D12*
X0427378Y0085567D03*
X0427378Y0075724D03*
X0317378Y0075724D03*
X0317378Y0085567D03*
D13*
X0344937Y0067850D03*
X0454937Y0067850D03*
X0454937Y0103283D03*
X0344937Y0103283D03*
D14*
X0188028Y0105567D03*
X0176217Y0105567D03*
X0142752Y0105567D03*
X0130528Y0105567D03*
X0118717Y0105567D03*
X0085252Y0105567D03*
X0085252Y0065567D03*
X0118717Y0065567D03*
X0130528Y0065567D03*
X0142752Y0065567D03*
X0176217Y0065567D03*
X0188028Y0065567D03*
D15*
X0197437Y0065567D03*
X0207437Y0065567D03*
X0187437Y0055567D03*
X0227437Y0055567D03*
X0287437Y0055567D03*
X0297437Y0065567D03*
X0307437Y0065567D03*
X0372437Y0065567D03*
X0382437Y0065567D03*
X0392437Y0065567D03*
X0402437Y0065567D03*
X0412437Y0065567D03*
X0437437Y0055567D03*
X0477437Y0055567D03*
X0493937Y0054567D03*
X0482437Y0065567D03*
X0493937Y0072067D03*
X0493937Y0099567D03*
X0482437Y0105567D03*
X0482437Y0115567D03*
X0493937Y0117067D03*
X0442437Y0115567D03*
X0412437Y0105567D03*
X0402437Y0105567D03*
X0392437Y0105567D03*
X0382437Y0105567D03*
X0372437Y0105567D03*
X0307437Y0105567D03*
X0297437Y0105567D03*
X0207437Y0105567D03*
X0197437Y0105567D03*
D16*
X0217437Y0102967D02*
X0217437Y0098167D01*
X0224937Y0098167D02*
X0224937Y0102967D01*
X0224937Y0072967D02*
X0224937Y0068167D01*
X0217437Y0068167D02*
X0217437Y0072967D01*
D17*
X0245094Y0063224D03*
X0264780Y0063224D03*
X0264780Y0082909D03*
X0245094Y0082909D03*
D18*
X0287437Y0065567D03*
X0493937Y0064567D03*
X0493937Y0082067D03*
X0493937Y0089567D03*
X0493937Y0107067D03*
D19*
X0271866Y0100587D03*
X0238008Y0100587D03*
D20*
X0239780Y0113067D03*
X0248441Y0113067D03*
X0257102Y0113067D03*
X0265764Y0113067D03*
X0270094Y0117398D03*
X0261433Y0117398D03*
X0252772Y0117398D03*
X0244110Y0117398D03*
D21*
X0304937Y0116067D03*
X0314937Y0115067D03*
X0324937Y0116067D03*
X0334937Y0115067D03*
X0344937Y0116067D03*
X0354937Y0115067D03*
X0364937Y0116067D03*
X0374937Y0115067D03*
X0384937Y0116067D03*
X0394937Y0115067D03*
X0404937Y0116067D03*
X0354937Y0053567D03*
X0364937Y0052567D03*
X0344937Y0052567D03*
X0334937Y0053567D03*
X0324937Y0052567D03*
X0314937Y0053567D03*
X0304937Y0052567D03*
D22*
X0312737Y0055267D02*
X0314337Y0053667D01*
X0314937Y0053567D01*
X0312737Y0055267D02*
X0312737Y0079392D01*
X0313780Y0081910D02*
X0316737Y0084867D01*
X0317378Y0085567D01*
X0336551Y0092253D02*
X0336743Y0092056D01*
X0336931Y0091855D01*
X0337113Y0091649D01*
X0337291Y0091439D01*
X0337464Y0091225D01*
X0337631Y0091007D01*
X0337793Y0090784D01*
X0337950Y0090558D01*
X0338102Y0090329D01*
X0338248Y0090096D01*
X0338388Y0089859D01*
X0338523Y0089619D01*
X0338652Y0089376D01*
X0338775Y0089130D01*
X0338892Y0088881D01*
X0339004Y0088630D01*
X0339109Y0088375D01*
X0339208Y0088119D01*
X0339301Y0087860D01*
X0339388Y0087599D01*
X0339469Y0087336D01*
X0339543Y0087071D01*
X0339611Y0086804D01*
X0339673Y0086536D01*
X0339728Y0086267D01*
X0339777Y0085996D01*
X0339819Y0085724D01*
X0339855Y0085451D01*
X0339885Y0085178D01*
X0339908Y0084904D01*
X0339924Y0084629D01*
X0339934Y0084354D01*
X0339937Y0084079D01*
X0339939Y0083932D01*
X0339945Y0083785D01*
X0339954Y0083639D01*
X0339968Y0083492D01*
X0339985Y0083346D01*
X0340006Y0083201D01*
X0340031Y0083056D01*
X0340060Y0082912D01*
X0340092Y0082769D01*
X0340128Y0082627D01*
X0340168Y0082485D01*
X0340212Y0082345D01*
X0340259Y0082206D01*
X0340310Y0082068D01*
X0340364Y0081931D01*
X0340422Y0081796D01*
X0340484Y0081663D01*
X0340549Y0081531D01*
X0340617Y0081401D01*
X0340689Y0081273D01*
X0340764Y0081147D01*
X0340842Y0081022D01*
X0340924Y0080900D01*
X0341009Y0080780D01*
X0341097Y0080663D01*
X0341188Y0080547D01*
X0341282Y0080434D01*
X0341378Y0080324D01*
X0341478Y0080216D01*
X0341581Y0080111D01*
X0341686Y0080008D01*
X0341794Y0079908D01*
X0341904Y0079812D01*
X0342017Y0079718D01*
X0342133Y0079627D01*
X0342250Y0079539D01*
X0342370Y0079454D01*
X0342492Y0079372D01*
X0342617Y0079294D01*
X0342743Y0079219D01*
X0342871Y0079147D01*
X0343001Y0079079D01*
X0343133Y0079014D01*
X0343266Y0078952D01*
X0343401Y0078894D01*
X0343538Y0078840D01*
X0343676Y0078789D01*
X0343815Y0078742D01*
X0343955Y0078698D01*
X0344097Y0078658D01*
X0344239Y0078622D01*
X0344382Y0078590D01*
X0344526Y0078561D01*
X0344671Y0078536D01*
X0344816Y0078515D01*
X0344962Y0078498D01*
X0345109Y0078484D01*
X0345255Y0078475D01*
X0345402Y0078469D01*
X0345549Y0078467D01*
X0381791Y0078467D01*
X0387335Y0077065D02*
X0393034Y0082764D01*
X0388186Y0081115D02*
X0411937Y0104867D01*
X0412437Y0105567D01*
X0403631Y0109667D02*
X0389432Y0109667D01*
X0389310Y0109669D01*
X0389187Y0109675D01*
X0389065Y0109684D01*
X0388944Y0109698D01*
X0388823Y0109715D01*
X0388702Y0109736D01*
X0388582Y0109761D01*
X0388463Y0109789D01*
X0388345Y0109822D01*
X0388228Y0109858D01*
X0388113Y0109897D01*
X0387998Y0109941D01*
X0387885Y0109987D01*
X0387774Y0110038D01*
X0387664Y0110092D01*
X0387556Y0110149D01*
X0387449Y0110209D01*
X0387345Y0110273D01*
X0387243Y0110341D01*
X0387143Y0110411D01*
X0387045Y0110484D01*
X0386949Y0110561D01*
X0386856Y0110640D01*
X0386766Y0110723D01*
X0386678Y0110808D01*
X0386593Y0110896D01*
X0386510Y0110986D01*
X0386431Y0111079D01*
X0386354Y0111175D01*
X0386281Y0111273D01*
X0386211Y0111373D01*
X0386143Y0111475D01*
X0386079Y0111579D01*
X0386019Y0111686D01*
X0385962Y0111794D01*
X0385908Y0111904D01*
X0385857Y0112015D01*
X0385811Y0112128D01*
X0385767Y0112243D01*
X0385728Y0112358D01*
X0385692Y0112475D01*
X0385659Y0112593D01*
X0385631Y0112712D01*
X0385606Y0112832D01*
X0385585Y0112953D01*
X0385568Y0113074D01*
X0385554Y0113195D01*
X0385545Y0113317D01*
X0385539Y0113440D01*
X0385537Y0113562D01*
X0385537Y0116067D01*
X0384937Y0116067D01*
X0376737Y0112867D02*
X0375137Y0114467D01*
X0374937Y0115067D01*
X0376737Y0112867D02*
X0376737Y0106993D01*
X0377675Y0104729D02*
X0391937Y0090467D01*
X0388185Y0081116D02*
X0388027Y0080961D01*
X0387864Y0080810D01*
X0387698Y0080663D01*
X0387528Y0080520D01*
X0387355Y0080381D01*
X0387178Y0080247D01*
X0386998Y0080117D01*
X0386815Y0079991D01*
X0386629Y0079870D01*
X0386440Y0079754D01*
X0386248Y0079642D01*
X0386054Y0079535D01*
X0385857Y0079433D01*
X0385657Y0079335D01*
X0385456Y0079243D01*
X0385252Y0079155D01*
X0385046Y0079073D01*
X0384837Y0078996D01*
X0384628Y0078923D01*
X0384416Y0078856D01*
X0384203Y0078795D01*
X0383988Y0078738D01*
X0383772Y0078687D01*
X0383555Y0078641D01*
X0383337Y0078600D01*
X0383118Y0078565D01*
X0382898Y0078535D01*
X0382677Y0078511D01*
X0382456Y0078492D01*
X0382235Y0078478D01*
X0382013Y0078470D01*
X0381791Y0078467D01*
X0382994Y0075267D02*
X0383150Y0075269D01*
X0383305Y0075275D01*
X0383460Y0075285D01*
X0383615Y0075299D01*
X0383770Y0075316D01*
X0383924Y0075338D01*
X0384077Y0075363D01*
X0384230Y0075393D01*
X0384382Y0075426D01*
X0384533Y0075463D01*
X0384683Y0075504D01*
X0384832Y0075549D01*
X0384980Y0075597D01*
X0385126Y0075649D01*
X0385272Y0075705D01*
X0385415Y0075765D01*
X0385558Y0075828D01*
X0385698Y0075894D01*
X0385837Y0075965D01*
X0385974Y0076039D01*
X0386109Y0076116D01*
X0386242Y0076196D01*
X0386373Y0076280D01*
X0386502Y0076368D01*
X0386628Y0076458D01*
X0386752Y0076552D01*
X0386874Y0076648D01*
X0386993Y0076748D01*
X0387110Y0076851D01*
X0387224Y0076957D01*
X0387336Y0077065D01*
X0382994Y0075267D02*
X0328737Y0075267D01*
X0328658Y0075265D01*
X0328580Y0075259D01*
X0328502Y0075250D01*
X0328425Y0075236D01*
X0328348Y0075219D01*
X0328273Y0075198D01*
X0328198Y0075173D01*
X0328125Y0075145D01*
X0328053Y0075113D01*
X0327983Y0075078D01*
X0327914Y0075039D01*
X0327848Y0074997D01*
X0327784Y0074952D01*
X0327722Y0074904D01*
X0327663Y0074853D01*
X0327606Y0074798D01*
X0327551Y0074741D01*
X0327500Y0074682D01*
X0327452Y0074620D01*
X0327407Y0074556D01*
X0327365Y0074490D01*
X0327326Y0074421D01*
X0327291Y0074351D01*
X0327259Y0074279D01*
X0327231Y0074206D01*
X0327206Y0074131D01*
X0327185Y0074056D01*
X0327168Y0073979D01*
X0327154Y0073902D01*
X0327145Y0073824D01*
X0327139Y0073746D01*
X0327137Y0073667D01*
X0315137Y0061667D01*
X0315137Y0065667D02*
X0322095Y0072625D01*
X0310337Y0072067D02*
X0310337Y0069268D01*
X0310335Y0069164D01*
X0310330Y0069061D01*
X0310320Y0068958D01*
X0310307Y0068855D01*
X0310291Y0068753D01*
X0310271Y0068652D01*
X0310247Y0068551D01*
X0310220Y0068451D01*
X0310189Y0068352D01*
X0310154Y0068255D01*
X0310116Y0068158D01*
X0310075Y0068063D01*
X0310030Y0067970D01*
X0309982Y0067878D01*
X0309931Y0067788D01*
X0309877Y0067700D01*
X0309819Y0067614D01*
X0309759Y0067530D01*
X0309695Y0067448D01*
X0309629Y0067369D01*
X0309559Y0067292D01*
X0309488Y0067217D01*
X0309488Y0067218D02*
X0307937Y0065667D01*
X0307437Y0065567D01*
X0297437Y0065567D02*
X0287437Y0055567D01*
X0285932Y0059267D02*
X0271937Y0059067D01*
X0269937Y0057567D01*
X0240937Y0057567D01*
X0238437Y0059267D01*
X0213537Y0059267D01*
X0213390Y0059269D01*
X0213244Y0059275D01*
X0213098Y0059284D01*
X0212952Y0059298D01*
X0212806Y0059315D01*
X0212661Y0059336D01*
X0212516Y0059361D01*
X0212373Y0059389D01*
X0212230Y0059422D01*
X0212088Y0059458D01*
X0211947Y0059498D01*
X0211807Y0059541D01*
X0211668Y0059588D01*
X0211530Y0059639D01*
X0211394Y0059693D01*
X0211259Y0059751D01*
X0211126Y0059813D01*
X0210995Y0059877D01*
X0210865Y0059946D01*
X0210737Y0060017D01*
X0210611Y0060092D01*
X0210487Y0060170D01*
X0210365Y0060252D01*
X0210245Y0060337D01*
X0210128Y0060424D01*
X0210013Y0060515D01*
X0209900Y0060609D01*
X0209790Y0060705D01*
X0209682Y0060805D01*
X0209577Y0060907D01*
X0209475Y0061012D01*
X0209375Y0061120D01*
X0209279Y0061230D01*
X0209185Y0061343D01*
X0209094Y0061458D01*
X0209007Y0061575D01*
X0208922Y0061695D01*
X0208840Y0061817D01*
X0208762Y0061941D01*
X0208687Y0062067D01*
X0208616Y0062195D01*
X0208547Y0062325D01*
X0208483Y0062456D01*
X0208421Y0062589D01*
X0208363Y0062724D01*
X0208309Y0062860D01*
X0208258Y0062998D01*
X0208211Y0063137D01*
X0208168Y0063277D01*
X0208128Y0063418D01*
X0208092Y0063560D01*
X0208059Y0063703D01*
X0208031Y0063846D01*
X0208006Y0063991D01*
X0207985Y0064136D01*
X0207968Y0064282D01*
X0207954Y0064428D01*
X0207945Y0064574D01*
X0207939Y0064720D01*
X0207937Y0064867D01*
X0207437Y0065567D01*
X0207937Y0065667D01*
X0207937Y0088259D01*
X0207939Y0088437D01*
X0207946Y0088615D01*
X0207957Y0088793D01*
X0207972Y0088971D01*
X0207992Y0089148D01*
X0208016Y0089325D01*
X0208044Y0089501D01*
X0208077Y0089676D01*
X0208113Y0089850D01*
X0208155Y0090024D01*
X0208200Y0090196D01*
X0208250Y0090367D01*
X0208304Y0090537D01*
X0208362Y0090705D01*
X0208424Y0090873D01*
X0208490Y0091038D01*
X0208560Y0091202D01*
X0208634Y0091364D01*
X0208712Y0091524D01*
X0208794Y0091682D01*
X0208880Y0091838D01*
X0208970Y0091992D01*
X0209064Y0092144D01*
X0209161Y0092294D01*
X0209262Y0092441D01*
X0209366Y0092585D01*
X0209474Y0092727D01*
X0209585Y0092866D01*
X0209700Y0093002D01*
X0209818Y0093136D01*
X0209940Y0093266D01*
X0210064Y0093394D01*
X0216737Y0100067D01*
X0217437Y0100567D01*
X0257628Y0104204D02*
X0257895Y0103941D01*
X0258155Y0103671D01*
X0258408Y0103395D01*
X0258655Y0103113D01*
X0258895Y0102825D01*
X0259128Y0102532D01*
X0259353Y0102232D01*
X0259571Y0101928D01*
X0259782Y0101618D01*
X0259985Y0101303D01*
X0260180Y0100983D01*
X0260367Y0100658D01*
X0260547Y0100330D01*
X0260718Y0099996D01*
X0260882Y0099659D01*
X0261037Y0099318D01*
X0261183Y0098973D01*
X0261321Y0098625D01*
X0261451Y0098273D01*
X0261572Y0097918D01*
X0261684Y0097561D01*
X0261788Y0097201D01*
X0261883Y0096838D01*
X0261969Y0096474D01*
X0262046Y0096107D01*
X0262114Y0095738D01*
X0262173Y0095368D01*
X0262223Y0094997D01*
X0262264Y0094625D01*
X0262296Y0094251D01*
X0262319Y0093877D01*
X0262332Y0093503D01*
X0262337Y0093128D01*
X0262337Y0092867D01*
X0269294Y0093110D02*
X0286337Y0076067D01*
X0291137Y0077221D02*
X0291137Y0062467D01*
X0289355Y0060685D01*
X0289258Y0060590D01*
X0289158Y0060498D01*
X0289055Y0060409D01*
X0288950Y0060323D01*
X0288843Y0060240D01*
X0288733Y0060160D01*
X0288622Y0060083D01*
X0288508Y0060009D01*
X0288392Y0059938D01*
X0288274Y0059871D01*
X0288154Y0059807D01*
X0288032Y0059746D01*
X0287909Y0059689D01*
X0287785Y0059635D01*
X0287658Y0059585D01*
X0287531Y0059539D01*
X0287402Y0059496D01*
X0287272Y0059456D01*
X0287141Y0059420D01*
X0287009Y0059388D01*
X0286876Y0059360D01*
X0286743Y0059335D01*
X0286609Y0059315D01*
X0286474Y0059297D01*
X0286339Y0059284D01*
X0286203Y0059275D01*
X0286068Y0059269D01*
X0285932Y0059267D01*
X0287437Y0065567D02*
X0287937Y0065667D01*
X0288737Y0066467D01*
X0288737Y0090254D01*
X0288739Y0090350D01*
X0288745Y0090446D01*
X0288754Y0090541D01*
X0288767Y0090636D01*
X0288784Y0090731D01*
X0288805Y0090825D01*
X0288829Y0090918D01*
X0288857Y0091010D01*
X0288888Y0091100D01*
X0288923Y0091190D01*
X0288962Y0091278D01*
X0289003Y0091364D01*
X0289049Y0091449D01*
X0289097Y0091532D01*
X0289149Y0091612D01*
X0289204Y0091691D01*
X0289262Y0091768D01*
X0289323Y0091842D01*
X0289387Y0091914D01*
X0289453Y0091983D01*
X0293518Y0093667D02*
X0312737Y0093667D01*
X0312737Y0112867D01*
X0314937Y0115067D01*
X0307137Y0105667D02*
X0298661Y0114143D01*
X0282427Y0120867D02*
X0181717Y0120867D01*
X0248441Y0113067D02*
X0248637Y0112867D01*
X0257628Y0104204D01*
X0258637Y0111367D02*
X0265317Y0104687D01*
X0263137Y0102067D02*
X0252637Y0112367D01*
X0252772Y0117398D01*
X0257102Y0113067D02*
X0258637Y0111367D01*
X0265317Y0104686D02*
X0265471Y0104529D01*
X0265620Y0104368D01*
X0265765Y0104204D01*
X0265907Y0104036D01*
X0266044Y0103865D01*
X0266177Y0103690D01*
X0266305Y0103512D01*
X0266430Y0103331D01*
X0266549Y0103147D01*
X0266665Y0102960D01*
X0266775Y0102770D01*
X0266881Y0102578D01*
X0266982Y0102383D01*
X0267078Y0102186D01*
X0267170Y0101986D01*
X0267256Y0101785D01*
X0267338Y0101581D01*
X0267414Y0101375D01*
X0267486Y0101168D01*
X0267552Y0100958D01*
X0267613Y0100747D01*
X0267669Y0100535D01*
X0267720Y0100322D01*
X0267765Y0100107D01*
X0267805Y0099891D01*
X0267840Y0099674D01*
X0267870Y0099457D01*
X0267894Y0099239D01*
X0267913Y0099020D01*
X0267926Y0098801D01*
X0267934Y0098581D01*
X0267937Y0098362D01*
X0267937Y0096386D01*
X0264737Y0098204D02*
X0264737Y0083267D01*
X0264780Y0082909D01*
X0289453Y0091983D02*
X0289561Y0092088D01*
X0289671Y0092190D01*
X0289784Y0092290D01*
X0289900Y0092386D01*
X0290018Y0092479D01*
X0290139Y0092569D01*
X0290262Y0092656D01*
X0290387Y0092740D01*
X0290514Y0092820D01*
X0290643Y0092897D01*
X0290775Y0092970D01*
X0290908Y0093040D01*
X0291043Y0093107D01*
X0291180Y0093170D01*
X0291318Y0093229D01*
X0291458Y0093285D01*
X0291599Y0093337D01*
X0291741Y0093386D01*
X0291885Y0093430D01*
X0292030Y0093471D01*
X0292176Y0093508D01*
X0292323Y0093541D01*
X0292470Y0093571D01*
X0292619Y0093596D01*
X0292768Y0093618D01*
X0292917Y0093636D01*
X0293067Y0093649D01*
X0293217Y0093659D01*
X0293368Y0093665D01*
X0293518Y0093667D01*
X0304383Y0090467D02*
X0320737Y0090467D01*
X0322337Y0092067D01*
X0322337Y0102467D01*
X0334937Y0115067D01*
X0338337Y0111267D02*
X0324737Y0097667D01*
X0324737Y0079004D01*
X0313780Y0081910D02*
X0313699Y0081826D01*
X0313621Y0081740D01*
X0313545Y0081651D01*
X0313473Y0081560D01*
X0313403Y0081466D01*
X0313337Y0081370D01*
X0313274Y0081272D01*
X0313214Y0081173D01*
X0313157Y0081071D01*
X0313104Y0080967D01*
X0313054Y0080862D01*
X0313008Y0080755D01*
X0312965Y0080646D01*
X0312926Y0080537D01*
X0312890Y0080426D01*
X0312858Y0080314D01*
X0312830Y0080201D01*
X0312805Y0080087D01*
X0312785Y0079972D01*
X0312767Y0079857D01*
X0312754Y0079741D01*
X0312745Y0079625D01*
X0312739Y0079509D01*
X0312737Y0079392D01*
X0322095Y0072625D02*
X0322245Y0072779D01*
X0322391Y0072936D01*
X0322534Y0073097D01*
X0322672Y0073260D01*
X0322807Y0073428D01*
X0322938Y0073598D01*
X0323064Y0073771D01*
X0323187Y0073948D01*
X0323305Y0074127D01*
X0323419Y0074309D01*
X0323528Y0074493D01*
X0323634Y0074681D01*
X0323734Y0074870D01*
X0323830Y0075062D01*
X0323922Y0075257D01*
X0324009Y0075453D01*
X0324091Y0075651D01*
X0324168Y0075851D01*
X0324241Y0076054D01*
X0324309Y0076257D01*
X0324372Y0076462D01*
X0324430Y0076669D01*
X0324483Y0076877D01*
X0324531Y0077086D01*
X0324574Y0077297D01*
X0324612Y0077508D01*
X0324645Y0077720D01*
X0324673Y0077933D01*
X0324696Y0078146D01*
X0324714Y0078360D01*
X0324727Y0078575D01*
X0324734Y0078789D01*
X0324737Y0079004D01*
X0304383Y0090467D02*
X0304063Y0090463D01*
X0303743Y0090452D01*
X0303424Y0090432D01*
X0303105Y0090405D01*
X0302786Y0090370D01*
X0302469Y0090328D01*
X0302153Y0090278D01*
X0301838Y0090220D01*
X0301525Y0090155D01*
X0301213Y0090082D01*
X0300903Y0090002D01*
X0300595Y0089914D01*
X0300290Y0089819D01*
X0299987Y0089716D01*
X0299686Y0089606D01*
X0299388Y0089489D01*
X0299093Y0089365D01*
X0298801Y0089233D01*
X0298512Y0089095D01*
X0298227Y0088950D01*
X0297946Y0088798D01*
X0297668Y0088639D01*
X0297394Y0088473D01*
X0297124Y0088301D01*
X0296858Y0088122D01*
X0296597Y0087937D01*
X0296341Y0087746D01*
X0296089Y0087549D01*
X0295841Y0087345D01*
X0295599Y0087136D01*
X0295362Y0086921D01*
X0295131Y0086700D01*
X0294904Y0086473D01*
X0294683Y0086242D01*
X0294468Y0086005D01*
X0294259Y0085763D01*
X0294055Y0085515D01*
X0293858Y0085263D01*
X0293667Y0085007D01*
X0293482Y0084746D01*
X0293303Y0084480D01*
X0293131Y0084210D01*
X0292965Y0083936D01*
X0292806Y0083658D01*
X0292654Y0083377D01*
X0292509Y0083092D01*
X0292371Y0082803D01*
X0292239Y0082511D01*
X0292115Y0082216D01*
X0291998Y0081918D01*
X0291888Y0081617D01*
X0291785Y0081314D01*
X0291690Y0081009D01*
X0291602Y0080701D01*
X0291522Y0080391D01*
X0291449Y0080079D01*
X0291384Y0079766D01*
X0291326Y0079451D01*
X0291276Y0079135D01*
X0291234Y0078818D01*
X0291199Y0078499D01*
X0291172Y0078180D01*
X0291152Y0077861D01*
X0291141Y0077541D01*
X0291137Y0077221D01*
X0330337Y0098467D02*
X0336551Y0092253D01*
X0345537Y0089667D02*
X0353768Y0097898D01*
X0354337Y0099271D02*
X0354337Y0114467D01*
X0354937Y0115067D01*
X0364937Y0116067D02*
X0365537Y0116067D01*
X0365537Y0097691D01*
X0365539Y0097506D01*
X0365546Y0097321D01*
X0365557Y0097136D01*
X0365572Y0096951D01*
X0365592Y0096767D01*
X0365616Y0096583D01*
X0365645Y0096400D01*
X0365678Y0096218D01*
X0365715Y0096037D01*
X0365756Y0095856D01*
X0365802Y0095677D01*
X0365852Y0095498D01*
X0365907Y0095321D01*
X0365965Y0095145D01*
X0366028Y0094971D01*
X0366095Y0094798D01*
X0366165Y0094627D01*
X0366240Y0094458D01*
X0366319Y0094290D01*
X0366402Y0094125D01*
X0366489Y0093961D01*
X0366580Y0093799D01*
X0366674Y0093640D01*
X0366773Y0093483D01*
X0366875Y0093329D01*
X0366980Y0093176D01*
X0367089Y0093027D01*
X0367202Y0092880D01*
X0367318Y0092736D01*
X0367438Y0092594D01*
X0367561Y0092456D01*
X0367687Y0092320D01*
X0367817Y0092188D01*
X0367816Y0092187D02*
X0370337Y0089667D01*
X0372737Y0080867D02*
X0372737Y0104867D01*
X0372437Y0105567D01*
X0376737Y0106993D02*
X0376739Y0106884D01*
X0376744Y0106774D01*
X0376754Y0106666D01*
X0376767Y0106557D01*
X0376784Y0106449D01*
X0376804Y0106342D01*
X0376828Y0106235D01*
X0376856Y0106129D01*
X0376887Y0106024D01*
X0376922Y0105921D01*
X0376960Y0105818D01*
X0377002Y0105717D01*
X0377047Y0105618D01*
X0377096Y0105520D01*
X0377148Y0105424D01*
X0377203Y0105329D01*
X0377262Y0105237D01*
X0377323Y0105146D01*
X0377388Y0105058D01*
X0377455Y0104972D01*
X0377526Y0104889D01*
X0377599Y0104807D01*
X0377675Y0104729D01*
X0354337Y0099271D02*
X0354335Y0099186D01*
X0354330Y0099102D01*
X0354320Y0099018D01*
X0354307Y0098934D01*
X0354291Y0098851D01*
X0354271Y0098768D01*
X0354247Y0098687D01*
X0354220Y0098607D01*
X0354189Y0098528D01*
X0354155Y0098450D01*
X0354118Y0098374D01*
X0354077Y0098300D01*
X0354033Y0098228D01*
X0353986Y0098157D01*
X0353936Y0098089D01*
X0353883Y0098023D01*
X0353827Y0097959D01*
X0353768Y0097898D01*
X0339937Y0111267D02*
X0338337Y0111267D01*
X0339937Y0111267D02*
X0344737Y0116067D01*
X0344937Y0116067D01*
X0307437Y0105567D02*
X0307137Y0105667D01*
X0298661Y0114142D02*
X0298270Y0114523D01*
X0297870Y0114896D01*
X0297461Y0115258D01*
X0297044Y0115611D01*
X0296619Y0115954D01*
X0296185Y0116287D01*
X0295744Y0116609D01*
X0295295Y0116921D01*
X0294839Y0117221D01*
X0294376Y0117511D01*
X0293906Y0117790D01*
X0293430Y0118058D01*
X0292947Y0118314D01*
X0292458Y0118558D01*
X0291964Y0118791D01*
X0291464Y0119012D01*
X0290960Y0119221D01*
X0290450Y0119418D01*
X0289936Y0119603D01*
X0289417Y0119776D01*
X0288895Y0119936D01*
X0288369Y0120084D01*
X0287840Y0120219D01*
X0287307Y0120341D01*
X0286772Y0120451D01*
X0286234Y0120548D01*
X0285694Y0120632D01*
X0285153Y0120704D01*
X0284609Y0120762D01*
X0284065Y0120808D01*
X0283519Y0120840D01*
X0282973Y0120859D01*
X0282427Y0120866D01*
X0263137Y0102067D02*
X0263237Y0101964D01*
X0263334Y0101859D01*
X0263428Y0101752D01*
X0263520Y0101642D01*
X0263608Y0101530D01*
X0263694Y0101415D01*
X0263776Y0101298D01*
X0263856Y0101179D01*
X0263932Y0101058D01*
X0264005Y0100935D01*
X0264075Y0100811D01*
X0264142Y0100684D01*
X0264205Y0100556D01*
X0264265Y0100426D01*
X0264321Y0100295D01*
X0264374Y0100162D01*
X0264424Y0100028D01*
X0264470Y0099892D01*
X0264512Y0099756D01*
X0264551Y0099618D01*
X0264586Y0099479D01*
X0264618Y0099340D01*
X0264646Y0099200D01*
X0264670Y0099059D01*
X0264690Y0098917D01*
X0264707Y0098775D01*
X0264720Y0098633D01*
X0264730Y0098490D01*
X0264735Y0098347D01*
X0264737Y0098204D01*
X0267937Y0096386D02*
X0267939Y0096251D01*
X0267945Y0096117D01*
X0267955Y0095982D01*
X0267968Y0095848D01*
X0267986Y0095715D01*
X0268007Y0095582D01*
X0268033Y0095449D01*
X0268062Y0095318D01*
X0268095Y0095187D01*
X0268132Y0095058D01*
X0268172Y0094929D01*
X0268216Y0094802D01*
X0268264Y0094676D01*
X0268316Y0094551D01*
X0268371Y0094428D01*
X0268430Y0094307D01*
X0268492Y0094188D01*
X0268558Y0094070D01*
X0268627Y0093954D01*
X0268699Y0093841D01*
X0268775Y0093729D01*
X0268854Y0093620D01*
X0268936Y0093513D01*
X0269021Y0093409D01*
X0269109Y0093307D01*
X0269200Y0093207D01*
X0269294Y0093111D01*
X0181717Y0120867D02*
X0180901Y0120857D01*
X0180085Y0120828D01*
X0179270Y0120778D01*
X0178457Y0120709D01*
X0177645Y0120621D01*
X0176836Y0120513D01*
X0176030Y0120385D01*
X0175227Y0120238D01*
X0174428Y0120071D01*
X0173633Y0119885D01*
X0172843Y0119680D01*
X0172058Y0119457D01*
X0171278Y0119214D01*
X0170505Y0118952D01*
X0169738Y0118672D01*
X0168979Y0118373D01*
X0168226Y0118056D01*
X0167482Y0117721D01*
X0166746Y0117368D01*
X0166019Y0116998D01*
X0165300Y0116610D01*
X0164592Y0116204D01*
X0163893Y0115782D01*
X0163205Y0115343D01*
X0162528Y0114887D01*
X0161862Y0114416D01*
X0161207Y0113928D01*
X0160564Y0113424D01*
X0159934Y0112906D01*
X0159317Y0112372D01*
X0158712Y0111823D01*
X0158121Y0111260D01*
X0157544Y0110683D01*
X0156981Y0110092D01*
X0156432Y0109487D01*
X0155898Y0108870D01*
X0155380Y0108240D01*
X0154876Y0107597D01*
X0154388Y0106942D01*
X0153917Y0106276D01*
X0153461Y0105599D01*
X0153022Y0104911D01*
X0152600Y0104212D01*
X0152194Y0103504D01*
X0151806Y0102785D01*
X0151436Y0102058D01*
X0151083Y0101322D01*
X0150748Y0100578D01*
X0150431Y0099825D01*
X0150132Y0099066D01*
X0149852Y0098299D01*
X0149590Y0097526D01*
X0149347Y0096746D01*
X0149124Y0095961D01*
X0148919Y0095171D01*
X0148733Y0094376D01*
X0148566Y0093577D01*
X0148419Y0092774D01*
X0148291Y0091968D01*
X0148183Y0091159D01*
X0148095Y0090347D01*
X0148026Y0089534D01*
X0147976Y0088719D01*
X0147947Y0087903D01*
X0147937Y0087087D01*
X0147937Y0072987D01*
X0147935Y0072833D01*
X0147929Y0072679D01*
X0147919Y0072525D01*
X0147906Y0072371D01*
X0147888Y0072218D01*
X0147867Y0072066D01*
X0147842Y0071914D01*
X0147812Y0071762D01*
X0147780Y0071612D01*
X0147743Y0071462D01*
X0147702Y0071313D01*
X0147658Y0071166D01*
X0147610Y0071019D01*
X0147558Y0070874D01*
X0147503Y0070730D01*
X0147444Y0070588D01*
X0147381Y0070447D01*
X0147315Y0070308D01*
X0147246Y0070170D01*
X0147173Y0070034D01*
X0147096Y0069901D01*
X0147016Y0069769D01*
X0146933Y0069639D01*
X0146847Y0069511D01*
X0146757Y0069386D01*
X0146664Y0069263D01*
X0146568Y0069142D01*
X0146469Y0069024D01*
X0146367Y0068908D01*
X0146263Y0068795D01*
X0146155Y0068685D01*
X0143137Y0065667D01*
X0142752Y0065567D01*
X0334937Y0053567D02*
X0335137Y0053667D01*
X0341537Y0060067D01*
X0414564Y0060067D01*
X0414868Y0060071D01*
X0415171Y0060082D01*
X0415475Y0060100D01*
X0415777Y0060126D01*
X0416080Y0060159D01*
X0416381Y0060199D01*
X0416681Y0060246D01*
X0416980Y0060301D01*
X0417277Y0060363D01*
X0417573Y0060432D01*
X0417867Y0060509D01*
X0418159Y0060592D01*
X0418449Y0060682D01*
X0418737Y0060780D01*
X0419022Y0060884D01*
X0419305Y0060995D01*
X0419585Y0061113D01*
X0419862Y0061238D01*
X0420136Y0061369D01*
X0420407Y0061507D01*
X0420674Y0061652D01*
X0420938Y0061802D01*
X0421198Y0061960D01*
X0421454Y0062123D01*
X0421706Y0062293D01*
X0421954Y0062468D01*
X0422198Y0062650D01*
X0422437Y0062837D01*
X0422672Y0063030D01*
X0422901Y0063229D01*
X0423126Y0063433D01*
X0423346Y0063643D01*
X0423561Y0063858D01*
X0423771Y0064078D01*
X0423975Y0064303D01*
X0424174Y0064532D01*
X0424367Y0064767D01*
X0424554Y0065006D01*
X0424736Y0065250D01*
X0424911Y0065498D01*
X0425081Y0065750D01*
X0425244Y0066006D01*
X0425402Y0066266D01*
X0425552Y0066530D01*
X0425697Y0066797D01*
X0425835Y0067068D01*
X0425966Y0067342D01*
X0426091Y0067619D01*
X0426209Y0067899D01*
X0426320Y0068182D01*
X0426424Y0068467D01*
X0426522Y0068755D01*
X0426612Y0069045D01*
X0426695Y0069337D01*
X0426772Y0069631D01*
X0426841Y0069927D01*
X0426903Y0070224D01*
X0426958Y0070523D01*
X0427005Y0070823D01*
X0427045Y0071124D01*
X0427078Y0071427D01*
X0427104Y0071729D01*
X0427122Y0072033D01*
X0427133Y0072336D01*
X0427137Y0072640D01*
X0427137Y0075267D01*
X0427378Y0075724D01*
X0427137Y0084867D02*
X0398110Y0084867D01*
X0398110Y0084866D02*
X0397934Y0084864D01*
X0397758Y0084857D01*
X0397582Y0084847D01*
X0397406Y0084831D01*
X0397231Y0084812D01*
X0397057Y0084788D01*
X0396883Y0084760D01*
X0396710Y0084728D01*
X0396537Y0084692D01*
X0396366Y0084651D01*
X0396196Y0084606D01*
X0396026Y0084557D01*
X0395858Y0084504D01*
X0395692Y0084446D01*
X0395527Y0084385D01*
X0395363Y0084320D01*
X0395201Y0084250D01*
X0395041Y0084177D01*
X0394883Y0084100D01*
X0394726Y0084018D01*
X0394572Y0083933D01*
X0394420Y0083845D01*
X0394270Y0083752D01*
X0394122Y0083656D01*
X0393977Y0083557D01*
X0393834Y0083453D01*
X0393694Y0083347D01*
X0393556Y0083237D01*
X0393422Y0083123D01*
X0393290Y0083007D01*
X0393160Y0082887D01*
X0393034Y0082764D01*
X0427137Y0084867D02*
X0427378Y0085567D01*
X0453249Y0089667D02*
X0493537Y0089667D01*
X0493937Y0089567D01*
X0453249Y0089667D02*
X0453082Y0089669D01*
X0452915Y0089675D01*
X0452748Y0089685D01*
X0452582Y0089699D01*
X0452416Y0089717D01*
X0452250Y0089740D01*
X0452085Y0089766D01*
X0451921Y0089796D01*
X0451757Y0089830D01*
X0451595Y0089868D01*
X0451433Y0089910D01*
X0451273Y0089956D01*
X0451113Y0090005D01*
X0450955Y0090059D01*
X0450798Y0090116D01*
X0450643Y0090177D01*
X0450489Y0090242D01*
X0450336Y0090311D01*
X0450186Y0090383D01*
X0450037Y0090459D01*
X0449890Y0090538D01*
X0449745Y0090621D01*
X0449602Y0090707D01*
X0449461Y0090797D01*
X0449323Y0090891D01*
X0449186Y0090987D01*
X0449052Y0091087D01*
X0448921Y0091190D01*
X0448792Y0091296D01*
X0448665Y0091405D01*
X0448542Y0091518D01*
X0448421Y0091633D01*
X0448303Y0091751D01*
X0448188Y0091872D01*
X0448075Y0091995D01*
X0447966Y0092122D01*
X0447860Y0092251D01*
X0447757Y0092382D01*
X0447657Y0092516D01*
X0447561Y0092653D01*
X0447467Y0092791D01*
X0447377Y0092932D01*
X0447291Y0093075D01*
X0447208Y0093220D01*
X0447129Y0093367D01*
X0447053Y0093516D01*
X0446981Y0093666D01*
X0446912Y0093819D01*
X0446847Y0093973D01*
X0446786Y0094128D01*
X0446729Y0094285D01*
X0446675Y0094443D01*
X0446626Y0094603D01*
X0446580Y0094763D01*
X0446538Y0094925D01*
X0446500Y0095087D01*
X0446466Y0095251D01*
X0446436Y0095415D01*
X0446410Y0095580D01*
X0446387Y0095746D01*
X0446369Y0095912D01*
X0446355Y0096078D01*
X0446345Y0096245D01*
X0446339Y0096412D01*
X0446337Y0096579D01*
X0446337Y0116867D01*
X0443937Y0119267D01*
X0413852Y0119267D01*
X0413735Y0119265D01*
X0413617Y0119259D01*
X0413500Y0119249D01*
X0413383Y0119236D01*
X0413267Y0119218D01*
X0413152Y0119197D01*
X0413037Y0119171D01*
X0412923Y0119142D01*
X0412811Y0119109D01*
X0412699Y0119073D01*
X0412589Y0119032D01*
X0412480Y0118988D01*
X0412372Y0118940D01*
X0412267Y0118889D01*
X0412163Y0118834D01*
X0412061Y0118776D01*
X0411961Y0118715D01*
X0411863Y0118650D01*
X0411767Y0118582D01*
X0411674Y0118511D01*
X0411583Y0118436D01*
X0411494Y0118359D01*
X0411408Y0118279D01*
X0411325Y0118196D01*
X0411245Y0118110D01*
X0411168Y0118021D01*
X0411093Y0117930D01*
X0411022Y0117837D01*
X0410954Y0117741D01*
X0410889Y0117643D01*
X0410828Y0117543D01*
X0410770Y0117441D01*
X0410715Y0117337D01*
X0410664Y0117232D01*
X0410616Y0117124D01*
X0410572Y0117015D01*
X0410531Y0116905D01*
X0410495Y0116793D01*
X0410462Y0116681D01*
X0410433Y0116567D01*
X0410407Y0116452D01*
X0410386Y0116337D01*
X0410368Y0116221D01*
X0410355Y0116104D01*
X0410345Y0115987D01*
X0410339Y0115869D01*
X0410337Y0115752D01*
X0410335Y0115641D01*
X0410329Y0115531D01*
X0410319Y0115420D01*
X0410305Y0115311D01*
X0410288Y0115201D01*
X0410266Y0115093D01*
X0410241Y0114985D01*
X0410211Y0114878D01*
X0410178Y0114772D01*
X0410141Y0114668D01*
X0410101Y0114565D01*
X0410057Y0114463D01*
X0410009Y0114363D01*
X0409958Y0114265D01*
X0409903Y0114169D01*
X0409845Y0114075D01*
X0409783Y0113983D01*
X0409718Y0113893D01*
X0409650Y0113806D01*
X0409579Y0113721D01*
X0409505Y0113638D01*
X0409428Y0113559D01*
X0409429Y0113558D02*
X0406885Y0111015D01*
X0406884Y0111015D02*
X0406788Y0110921D01*
X0406690Y0110831D01*
X0406588Y0110743D01*
X0406485Y0110659D01*
X0406379Y0110577D01*
X0406270Y0110499D01*
X0406159Y0110424D01*
X0406046Y0110352D01*
X0405931Y0110283D01*
X0405815Y0110218D01*
X0405696Y0110156D01*
X0405575Y0110098D01*
X0405453Y0110043D01*
X0405330Y0109992D01*
X0405205Y0109944D01*
X0405078Y0109901D01*
X0404951Y0109860D01*
X0404822Y0109824D01*
X0404692Y0109791D01*
X0404561Y0109762D01*
X0404430Y0109737D01*
X0404298Y0109716D01*
X0404165Y0109698D01*
X0404032Y0109685D01*
X0403899Y0109675D01*
X0403765Y0109669D01*
X0403631Y0109667D01*
D23*
X0391937Y0090467D03*
X0370337Y0089667D03*
X0345537Y0089667D03*
X0330337Y0098467D03*
X0306337Y0096067D03*
X0262337Y0092867D03*
X0286337Y0076067D03*
X0310337Y0072067D03*
X0315137Y0065667D03*
X0315137Y0061667D03*
X0372737Y0080867D03*
D24*
X0427378Y0095409D02*
X0427937Y0096067D01*
X0427937Y0100029D01*
X0428529Y0101459D02*
X0432337Y0105267D01*
X0432737Y0104867D01*
X0432737Y0062377D01*
X0432739Y0062231D01*
X0432745Y0062085D01*
X0432754Y0061940D01*
X0432768Y0061794D01*
X0432785Y0061649D01*
X0432806Y0061505D01*
X0432830Y0061361D01*
X0432859Y0061218D01*
X0432891Y0061075D01*
X0432927Y0060934D01*
X0432967Y0060793D01*
X0433010Y0060654D01*
X0433057Y0060516D01*
X0433107Y0060379D01*
X0433161Y0060243D01*
X0433219Y0060109D01*
X0433280Y0059976D01*
X0433345Y0059846D01*
X0433413Y0059716D01*
X0433484Y0059589D01*
X0433559Y0059464D01*
X0433637Y0059340D01*
X0433718Y0059219D01*
X0433802Y0059100D01*
X0433889Y0058983D01*
X0433980Y0058868D01*
X0434073Y0058756D01*
X0434169Y0058646D01*
X0434268Y0058539D01*
X0434370Y0058434D01*
X0436737Y0056067D01*
X0437437Y0055567D01*
X0306337Y0096067D02*
X0297537Y0104867D01*
X0297437Y0105567D01*
X0296737Y0104867D01*
X0271137Y0104867D01*
X0270737Y0104467D01*
X0267937Y0105767D01*
X0261437Y0111867D01*
X0261433Y0117398D01*
X0270737Y0104467D02*
X0271137Y0104067D01*
X0271137Y0100867D01*
X0271866Y0100587D01*
X0238008Y0100587D02*
X0237537Y0100067D01*
X0219486Y0082015D01*
X0217537Y0077311D02*
X0217537Y0071267D01*
X0217437Y0070567D01*
X0217537Y0077311D02*
X0217539Y0077474D01*
X0217545Y0077637D01*
X0217555Y0077800D01*
X0217569Y0077963D01*
X0217587Y0078125D01*
X0217609Y0078287D01*
X0217635Y0078448D01*
X0217665Y0078609D01*
X0217699Y0078769D01*
X0217736Y0078928D01*
X0217778Y0079085D01*
X0217823Y0079242D01*
X0217873Y0079398D01*
X0217926Y0079552D01*
X0217983Y0079705D01*
X0218043Y0079857D01*
X0218108Y0080007D01*
X0218176Y0080156D01*
X0218247Y0080302D01*
X0218323Y0080447D01*
X0218401Y0080590D01*
X0218484Y0080731D01*
X0218569Y0080870D01*
X0218658Y0081007D01*
X0218751Y0081142D01*
X0218846Y0081274D01*
X0218945Y0081404D01*
X0219047Y0081532D01*
X0219152Y0081657D01*
X0219260Y0081779D01*
X0219372Y0081899D01*
X0219486Y0082015D01*
X0188737Y0065667D02*
X0188028Y0065567D01*
X0188737Y0065667D02*
X0188737Y0104867D01*
X0188028Y0105567D01*
X0131137Y0104867D02*
X0130528Y0105567D01*
X0131137Y0104867D02*
X0131137Y0065667D01*
X0130528Y0065567D01*
X0131937Y0065667D01*
X0137247Y0060357D01*
X0147604Y0056067D02*
X0187137Y0056067D01*
X0187437Y0055567D01*
X0147604Y0056067D02*
X0147255Y0056071D01*
X0146907Y0056084D01*
X0146559Y0056104D01*
X0146212Y0056133D01*
X0145865Y0056171D01*
X0145519Y0056216D01*
X0145175Y0056270D01*
X0144832Y0056332D01*
X0144490Y0056402D01*
X0144151Y0056480D01*
X0143813Y0056566D01*
X0143477Y0056660D01*
X0143144Y0056763D01*
X0142813Y0056873D01*
X0142485Y0056991D01*
X0142160Y0057116D01*
X0141838Y0057250D01*
X0141519Y0057391D01*
X0141204Y0057539D01*
X0140892Y0057695D01*
X0140584Y0057859D01*
X0140280Y0058029D01*
X0139980Y0058207D01*
X0139685Y0058392D01*
X0139394Y0058584D01*
X0139107Y0058783D01*
X0138826Y0058989D01*
X0138549Y0059201D01*
X0138278Y0059420D01*
X0138012Y0059645D01*
X0137751Y0059876D01*
X0137496Y0060114D01*
X0137246Y0060357D01*
X0427937Y0100029D02*
X0427939Y0100117D01*
X0427945Y0100205D01*
X0427954Y0100293D01*
X0427968Y0100380D01*
X0427985Y0100467D01*
X0428006Y0100552D01*
X0428031Y0100637D01*
X0428059Y0100721D01*
X0428091Y0100803D01*
X0428126Y0100884D01*
X0428165Y0100963D01*
X0428208Y0101040D01*
X0428254Y0101115D01*
X0428303Y0101189D01*
X0428355Y0101260D01*
X0428410Y0101329D01*
X0428468Y0101395D01*
X0428529Y0101459D01*
X0432337Y0105267D02*
X0442337Y0115267D01*
X0442437Y0115567D01*
M02*
