G75*
%MOIN*%
%OFA0B0*%
%FSLAX25Y25*%
%IPPOS*%
%LPD*%
%AMOC8*
5,1,8,0,0,1.08239X$1,22.5*
%
%ADD10C,0.00100*%
%ADD11C,0.00200*%
%ADD12C,0.00300*%
%ADD13C,0.00800*%
%ADD14C,0.00500*%
%ADD15C,0.00600*%
%ADD16R,0.07000X0.01500*%
%ADD17R,0.02000X0.05500*%
%ADD18C,0.00400*%
%ADD19C,0.01000*%
%ADD20C,0.00315*%
%ADD21C,0.00236*%
D10*
X0079937Y0048067D02*
X0501197Y0048067D01*
X0501197Y0122870D01*
X0079937Y0122870D01*
X0079937Y0048067D01*
D11*
X0219385Y0104835D02*
X0220786Y0102967D01*
X0222187Y0104835D01*
X0220786Y0105729D02*
X0220786Y0107598D01*
X0220786Y0108492D02*
X0220786Y0109893D01*
X0221253Y0110360D01*
X0221720Y0110360D01*
X0222187Y0109893D01*
X0222187Y0108492D01*
X0219385Y0108492D01*
X0219385Y0109893D01*
X0219852Y0110360D01*
X0220319Y0110360D01*
X0220786Y0109893D01*
X0220786Y0111254D02*
X0220786Y0113122D01*
X0220319Y0113122D02*
X0222187Y0113122D01*
X0222187Y0114950D02*
X0219385Y0114950D01*
X0219385Y0114016D02*
X0219385Y0115885D01*
X0220786Y0116779D02*
X0220786Y0118647D01*
X0219852Y0119541D02*
X0219385Y0120008D01*
X0219385Y0120942D01*
X0219852Y0121409D01*
X0220319Y0121409D01*
X0222187Y0119541D01*
X0222187Y0121409D01*
X0222187Y0118180D02*
X0219385Y0118180D01*
X0220786Y0116779D01*
X0223885Y0115418D02*
X0223885Y0114483D01*
X0224352Y0114016D01*
X0224819Y0113122D02*
X0226687Y0111254D01*
X0224819Y0111254D02*
X0226687Y0113122D01*
X0226687Y0114016D02*
X0224819Y0115885D01*
X0224352Y0115885D01*
X0223885Y0115418D01*
X0226687Y0115885D02*
X0226687Y0114016D01*
X0220319Y0113122D02*
X0219385Y0112188D01*
X0220319Y0111254D01*
X0222187Y0111254D01*
X0340937Y0085567D02*
X0340939Y0085693D01*
X0340945Y0085819D01*
X0340955Y0085945D01*
X0340969Y0086071D01*
X0340987Y0086196D01*
X0341009Y0086320D01*
X0341034Y0086444D01*
X0341064Y0086567D01*
X0341097Y0086688D01*
X0341135Y0086809D01*
X0341176Y0086928D01*
X0341221Y0087047D01*
X0341269Y0087163D01*
X0341321Y0087278D01*
X0341377Y0087391D01*
X0341437Y0087503D01*
X0341500Y0087612D01*
X0341566Y0087720D01*
X0341635Y0087825D01*
X0341708Y0087928D01*
X0341785Y0088029D01*
X0341864Y0088127D01*
X0341946Y0088223D01*
X0342032Y0088316D01*
X0342120Y0088407D01*
X0342211Y0088494D01*
X0342305Y0088579D01*
X0342401Y0088660D01*
X0342500Y0088739D01*
X0342601Y0088814D01*
X0342705Y0088886D01*
X0342811Y0088955D01*
X0342919Y0089021D01*
X0343029Y0089083D01*
X0343141Y0089141D01*
X0343254Y0089196D01*
X0343370Y0089247D01*
X0343487Y0089295D01*
X0343605Y0089339D01*
X0343725Y0089379D01*
X0343846Y0089415D01*
X0343968Y0089448D01*
X0344091Y0089477D01*
X0344215Y0089501D01*
X0344339Y0089522D01*
X0344464Y0089539D01*
X0344590Y0089552D01*
X0344716Y0089561D01*
X0344842Y0089566D01*
X0344969Y0089567D01*
X0345095Y0089564D01*
X0345221Y0089557D01*
X0345347Y0089546D01*
X0345472Y0089531D01*
X0345597Y0089512D01*
X0345721Y0089489D01*
X0345845Y0089463D01*
X0345967Y0089432D01*
X0346089Y0089398D01*
X0346209Y0089359D01*
X0346328Y0089317D01*
X0346446Y0089272D01*
X0346562Y0089222D01*
X0346677Y0089169D01*
X0346789Y0089112D01*
X0346900Y0089052D01*
X0347009Y0088988D01*
X0347116Y0088921D01*
X0347221Y0088851D01*
X0347324Y0088777D01*
X0347424Y0088700D01*
X0347522Y0088620D01*
X0347617Y0088537D01*
X0347709Y0088451D01*
X0347799Y0088362D01*
X0347886Y0088270D01*
X0347969Y0088176D01*
X0348050Y0088079D01*
X0348128Y0087979D01*
X0348203Y0087877D01*
X0348274Y0087773D01*
X0348342Y0087666D01*
X0348406Y0087558D01*
X0348467Y0087447D01*
X0348525Y0087335D01*
X0348579Y0087221D01*
X0348629Y0087105D01*
X0348676Y0086988D01*
X0348719Y0086869D01*
X0348758Y0086749D01*
X0348794Y0086628D01*
X0348825Y0086505D01*
X0348853Y0086382D01*
X0348877Y0086258D01*
X0348897Y0086133D01*
X0348913Y0086008D01*
X0348925Y0085882D01*
X0348933Y0085756D01*
X0348937Y0085630D01*
X0348937Y0085504D01*
X0348933Y0085378D01*
X0348925Y0085252D01*
X0348913Y0085126D01*
X0348897Y0085001D01*
X0348877Y0084876D01*
X0348853Y0084752D01*
X0348825Y0084629D01*
X0348794Y0084506D01*
X0348758Y0084385D01*
X0348719Y0084265D01*
X0348676Y0084146D01*
X0348629Y0084029D01*
X0348579Y0083913D01*
X0348525Y0083799D01*
X0348467Y0083687D01*
X0348406Y0083576D01*
X0348342Y0083468D01*
X0348274Y0083361D01*
X0348203Y0083257D01*
X0348128Y0083155D01*
X0348050Y0083055D01*
X0347969Y0082958D01*
X0347886Y0082864D01*
X0347799Y0082772D01*
X0347709Y0082683D01*
X0347617Y0082597D01*
X0347522Y0082514D01*
X0347424Y0082434D01*
X0347324Y0082357D01*
X0347221Y0082283D01*
X0347116Y0082213D01*
X0347009Y0082146D01*
X0346900Y0082082D01*
X0346789Y0082022D01*
X0346677Y0081965D01*
X0346562Y0081912D01*
X0346446Y0081862D01*
X0346328Y0081817D01*
X0346209Y0081775D01*
X0346089Y0081736D01*
X0345967Y0081702D01*
X0345845Y0081671D01*
X0345721Y0081645D01*
X0345597Y0081622D01*
X0345472Y0081603D01*
X0345347Y0081588D01*
X0345221Y0081577D01*
X0345095Y0081570D01*
X0344969Y0081567D01*
X0344842Y0081568D01*
X0344716Y0081573D01*
X0344590Y0081582D01*
X0344464Y0081595D01*
X0344339Y0081612D01*
X0344215Y0081633D01*
X0344091Y0081657D01*
X0343968Y0081686D01*
X0343846Y0081719D01*
X0343725Y0081755D01*
X0343605Y0081795D01*
X0343487Y0081839D01*
X0343370Y0081887D01*
X0343254Y0081938D01*
X0343141Y0081993D01*
X0343029Y0082051D01*
X0342919Y0082113D01*
X0342811Y0082179D01*
X0342705Y0082248D01*
X0342601Y0082320D01*
X0342500Y0082395D01*
X0342401Y0082474D01*
X0342305Y0082555D01*
X0342211Y0082640D01*
X0342120Y0082727D01*
X0342032Y0082818D01*
X0341946Y0082911D01*
X0341864Y0083007D01*
X0341785Y0083105D01*
X0341708Y0083206D01*
X0341635Y0083309D01*
X0341566Y0083414D01*
X0341500Y0083522D01*
X0341437Y0083631D01*
X0341377Y0083743D01*
X0341321Y0083856D01*
X0341269Y0083971D01*
X0341221Y0084087D01*
X0341176Y0084206D01*
X0341135Y0084325D01*
X0341097Y0084446D01*
X0341064Y0084567D01*
X0341034Y0084690D01*
X0341009Y0084814D01*
X0340987Y0084938D01*
X0340969Y0085063D01*
X0340955Y0085189D01*
X0340945Y0085315D01*
X0340939Y0085441D01*
X0340937Y0085567D01*
X0339437Y0085567D02*
X0339439Y0085715D01*
X0339445Y0085863D01*
X0339455Y0086011D01*
X0339469Y0086159D01*
X0339487Y0086306D01*
X0339509Y0086453D01*
X0339535Y0086599D01*
X0339564Y0086744D01*
X0339598Y0086889D01*
X0339636Y0087032D01*
X0339677Y0087175D01*
X0339722Y0087316D01*
X0339772Y0087456D01*
X0339824Y0087594D01*
X0339881Y0087732D01*
X0339941Y0087867D01*
X0340005Y0088001D01*
X0340072Y0088133D01*
X0340143Y0088263D01*
X0340218Y0088392D01*
X0340296Y0088518D01*
X0340377Y0088642D01*
X0340461Y0088764D01*
X0340549Y0088883D01*
X0340640Y0089000D01*
X0340734Y0089115D01*
X0340832Y0089227D01*
X0340932Y0089336D01*
X0341035Y0089443D01*
X0341141Y0089547D01*
X0341249Y0089648D01*
X0341361Y0089746D01*
X0341475Y0089841D01*
X0341591Y0089932D01*
X0341710Y0090021D01*
X0341831Y0090106D01*
X0341955Y0090188D01*
X0342081Y0090267D01*
X0342208Y0090342D01*
X0342338Y0090414D01*
X0342470Y0090483D01*
X0342603Y0090547D01*
X0342738Y0090608D01*
X0342875Y0090666D01*
X0343013Y0090720D01*
X0343153Y0090770D01*
X0343294Y0090816D01*
X0343436Y0090858D01*
X0343579Y0090897D01*
X0343723Y0090931D01*
X0343869Y0090962D01*
X0344014Y0090989D01*
X0344161Y0091012D01*
X0344308Y0091031D01*
X0344456Y0091046D01*
X0344603Y0091057D01*
X0344752Y0091064D01*
X0344900Y0091067D01*
X0345048Y0091066D01*
X0345196Y0091061D01*
X0345344Y0091052D01*
X0345492Y0091039D01*
X0345640Y0091022D01*
X0345786Y0091001D01*
X0345933Y0090976D01*
X0346078Y0090947D01*
X0346223Y0090915D01*
X0346366Y0090878D01*
X0346509Y0090838D01*
X0346651Y0090793D01*
X0346791Y0090745D01*
X0346930Y0090693D01*
X0347067Y0090638D01*
X0347203Y0090578D01*
X0347338Y0090515D01*
X0347470Y0090449D01*
X0347601Y0090379D01*
X0347730Y0090305D01*
X0347856Y0090228D01*
X0347981Y0090148D01*
X0348103Y0090064D01*
X0348224Y0089977D01*
X0348341Y0089887D01*
X0348457Y0089793D01*
X0348569Y0089697D01*
X0348679Y0089598D01*
X0348787Y0089495D01*
X0348891Y0089390D01*
X0348993Y0089282D01*
X0349091Y0089171D01*
X0349187Y0089058D01*
X0349280Y0088942D01*
X0349369Y0088824D01*
X0349455Y0088703D01*
X0349538Y0088580D01*
X0349618Y0088455D01*
X0349694Y0088328D01*
X0349767Y0088198D01*
X0349836Y0088067D01*
X0349901Y0087934D01*
X0349964Y0087800D01*
X0350022Y0087663D01*
X0350077Y0087525D01*
X0350127Y0087386D01*
X0350175Y0087245D01*
X0350218Y0087104D01*
X0350258Y0086961D01*
X0350293Y0086817D01*
X0350325Y0086672D01*
X0350353Y0086526D01*
X0350377Y0086380D01*
X0350397Y0086233D01*
X0350413Y0086085D01*
X0350425Y0085938D01*
X0350433Y0085789D01*
X0350437Y0085641D01*
X0350437Y0085493D01*
X0350433Y0085345D01*
X0350425Y0085196D01*
X0350413Y0085049D01*
X0350397Y0084901D01*
X0350377Y0084754D01*
X0350353Y0084608D01*
X0350325Y0084462D01*
X0350293Y0084317D01*
X0350258Y0084173D01*
X0350218Y0084030D01*
X0350175Y0083889D01*
X0350127Y0083748D01*
X0350077Y0083609D01*
X0350022Y0083471D01*
X0349964Y0083334D01*
X0349901Y0083200D01*
X0349836Y0083067D01*
X0349767Y0082936D01*
X0349694Y0082806D01*
X0349618Y0082679D01*
X0349538Y0082554D01*
X0349455Y0082431D01*
X0349369Y0082310D01*
X0349280Y0082192D01*
X0349187Y0082076D01*
X0349091Y0081963D01*
X0348993Y0081852D01*
X0348891Y0081744D01*
X0348787Y0081639D01*
X0348679Y0081536D01*
X0348569Y0081437D01*
X0348457Y0081341D01*
X0348341Y0081247D01*
X0348224Y0081157D01*
X0348103Y0081070D01*
X0347981Y0080986D01*
X0347856Y0080906D01*
X0347730Y0080829D01*
X0347601Y0080755D01*
X0347470Y0080685D01*
X0347338Y0080619D01*
X0347203Y0080556D01*
X0347067Y0080496D01*
X0346930Y0080441D01*
X0346791Y0080389D01*
X0346651Y0080341D01*
X0346509Y0080296D01*
X0346366Y0080256D01*
X0346223Y0080219D01*
X0346078Y0080187D01*
X0345933Y0080158D01*
X0345786Y0080133D01*
X0345640Y0080112D01*
X0345492Y0080095D01*
X0345344Y0080082D01*
X0345196Y0080073D01*
X0345048Y0080068D01*
X0344900Y0080067D01*
X0344752Y0080070D01*
X0344603Y0080077D01*
X0344456Y0080088D01*
X0344308Y0080103D01*
X0344161Y0080122D01*
X0344014Y0080145D01*
X0343869Y0080172D01*
X0343723Y0080203D01*
X0343579Y0080237D01*
X0343436Y0080276D01*
X0343294Y0080318D01*
X0343153Y0080364D01*
X0343013Y0080414D01*
X0342875Y0080468D01*
X0342738Y0080526D01*
X0342603Y0080587D01*
X0342470Y0080651D01*
X0342338Y0080720D01*
X0342208Y0080792D01*
X0342081Y0080867D01*
X0341955Y0080946D01*
X0341831Y0081028D01*
X0341710Y0081113D01*
X0341591Y0081202D01*
X0341475Y0081293D01*
X0341361Y0081388D01*
X0341249Y0081486D01*
X0341141Y0081587D01*
X0341035Y0081691D01*
X0340932Y0081798D01*
X0340832Y0081907D01*
X0340734Y0082019D01*
X0340640Y0082134D01*
X0340549Y0082251D01*
X0340461Y0082370D01*
X0340377Y0082492D01*
X0340296Y0082616D01*
X0340218Y0082742D01*
X0340143Y0082871D01*
X0340072Y0083001D01*
X0340005Y0083133D01*
X0339941Y0083267D01*
X0339881Y0083402D01*
X0339824Y0083540D01*
X0339772Y0083678D01*
X0339722Y0083818D01*
X0339677Y0083959D01*
X0339636Y0084102D01*
X0339598Y0084245D01*
X0339564Y0084390D01*
X0339535Y0084535D01*
X0339509Y0084681D01*
X0339487Y0084828D01*
X0339469Y0084975D01*
X0339455Y0085123D01*
X0339445Y0085271D01*
X0339439Y0085419D01*
X0339437Y0085567D01*
X0450937Y0085567D02*
X0450939Y0085693D01*
X0450945Y0085819D01*
X0450955Y0085945D01*
X0450969Y0086071D01*
X0450987Y0086196D01*
X0451009Y0086320D01*
X0451034Y0086444D01*
X0451064Y0086567D01*
X0451097Y0086688D01*
X0451135Y0086809D01*
X0451176Y0086928D01*
X0451221Y0087047D01*
X0451269Y0087163D01*
X0451321Y0087278D01*
X0451377Y0087391D01*
X0451437Y0087503D01*
X0451500Y0087612D01*
X0451566Y0087720D01*
X0451635Y0087825D01*
X0451708Y0087928D01*
X0451785Y0088029D01*
X0451864Y0088127D01*
X0451946Y0088223D01*
X0452032Y0088316D01*
X0452120Y0088407D01*
X0452211Y0088494D01*
X0452305Y0088579D01*
X0452401Y0088660D01*
X0452500Y0088739D01*
X0452601Y0088814D01*
X0452705Y0088886D01*
X0452811Y0088955D01*
X0452919Y0089021D01*
X0453029Y0089083D01*
X0453141Y0089141D01*
X0453254Y0089196D01*
X0453370Y0089247D01*
X0453487Y0089295D01*
X0453605Y0089339D01*
X0453725Y0089379D01*
X0453846Y0089415D01*
X0453968Y0089448D01*
X0454091Y0089477D01*
X0454215Y0089501D01*
X0454339Y0089522D01*
X0454464Y0089539D01*
X0454590Y0089552D01*
X0454716Y0089561D01*
X0454842Y0089566D01*
X0454969Y0089567D01*
X0455095Y0089564D01*
X0455221Y0089557D01*
X0455347Y0089546D01*
X0455472Y0089531D01*
X0455597Y0089512D01*
X0455721Y0089489D01*
X0455845Y0089463D01*
X0455967Y0089432D01*
X0456089Y0089398D01*
X0456209Y0089359D01*
X0456328Y0089317D01*
X0456446Y0089272D01*
X0456562Y0089222D01*
X0456677Y0089169D01*
X0456789Y0089112D01*
X0456900Y0089052D01*
X0457009Y0088988D01*
X0457116Y0088921D01*
X0457221Y0088851D01*
X0457324Y0088777D01*
X0457424Y0088700D01*
X0457522Y0088620D01*
X0457617Y0088537D01*
X0457709Y0088451D01*
X0457799Y0088362D01*
X0457886Y0088270D01*
X0457969Y0088176D01*
X0458050Y0088079D01*
X0458128Y0087979D01*
X0458203Y0087877D01*
X0458274Y0087773D01*
X0458342Y0087666D01*
X0458406Y0087558D01*
X0458467Y0087447D01*
X0458525Y0087335D01*
X0458579Y0087221D01*
X0458629Y0087105D01*
X0458676Y0086988D01*
X0458719Y0086869D01*
X0458758Y0086749D01*
X0458794Y0086628D01*
X0458825Y0086505D01*
X0458853Y0086382D01*
X0458877Y0086258D01*
X0458897Y0086133D01*
X0458913Y0086008D01*
X0458925Y0085882D01*
X0458933Y0085756D01*
X0458937Y0085630D01*
X0458937Y0085504D01*
X0458933Y0085378D01*
X0458925Y0085252D01*
X0458913Y0085126D01*
X0458897Y0085001D01*
X0458877Y0084876D01*
X0458853Y0084752D01*
X0458825Y0084629D01*
X0458794Y0084506D01*
X0458758Y0084385D01*
X0458719Y0084265D01*
X0458676Y0084146D01*
X0458629Y0084029D01*
X0458579Y0083913D01*
X0458525Y0083799D01*
X0458467Y0083687D01*
X0458406Y0083576D01*
X0458342Y0083468D01*
X0458274Y0083361D01*
X0458203Y0083257D01*
X0458128Y0083155D01*
X0458050Y0083055D01*
X0457969Y0082958D01*
X0457886Y0082864D01*
X0457799Y0082772D01*
X0457709Y0082683D01*
X0457617Y0082597D01*
X0457522Y0082514D01*
X0457424Y0082434D01*
X0457324Y0082357D01*
X0457221Y0082283D01*
X0457116Y0082213D01*
X0457009Y0082146D01*
X0456900Y0082082D01*
X0456789Y0082022D01*
X0456677Y0081965D01*
X0456562Y0081912D01*
X0456446Y0081862D01*
X0456328Y0081817D01*
X0456209Y0081775D01*
X0456089Y0081736D01*
X0455967Y0081702D01*
X0455845Y0081671D01*
X0455721Y0081645D01*
X0455597Y0081622D01*
X0455472Y0081603D01*
X0455347Y0081588D01*
X0455221Y0081577D01*
X0455095Y0081570D01*
X0454969Y0081567D01*
X0454842Y0081568D01*
X0454716Y0081573D01*
X0454590Y0081582D01*
X0454464Y0081595D01*
X0454339Y0081612D01*
X0454215Y0081633D01*
X0454091Y0081657D01*
X0453968Y0081686D01*
X0453846Y0081719D01*
X0453725Y0081755D01*
X0453605Y0081795D01*
X0453487Y0081839D01*
X0453370Y0081887D01*
X0453254Y0081938D01*
X0453141Y0081993D01*
X0453029Y0082051D01*
X0452919Y0082113D01*
X0452811Y0082179D01*
X0452705Y0082248D01*
X0452601Y0082320D01*
X0452500Y0082395D01*
X0452401Y0082474D01*
X0452305Y0082555D01*
X0452211Y0082640D01*
X0452120Y0082727D01*
X0452032Y0082818D01*
X0451946Y0082911D01*
X0451864Y0083007D01*
X0451785Y0083105D01*
X0451708Y0083206D01*
X0451635Y0083309D01*
X0451566Y0083414D01*
X0451500Y0083522D01*
X0451437Y0083631D01*
X0451377Y0083743D01*
X0451321Y0083856D01*
X0451269Y0083971D01*
X0451221Y0084087D01*
X0451176Y0084206D01*
X0451135Y0084325D01*
X0451097Y0084446D01*
X0451064Y0084567D01*
X0451034Y0084690D01*
X0451009Y0084814D01*
X0450987Y0084938D01*
X0450969Y0085063D01*
X0450955Y0085189D01*
X0450945Y0085315D01*
X0450939Y0085441D01*
X0450937Y0085567D01*
X0449437Y0085567D02*
X0449439Y0085715D01*
X0449445Y0085863D01*
X0449455Y0086011D01*
X0449469Y0086159D01*
X0449487Y0086306D01*
X0449509Y0086453D01*
X0449535Y0086599D01*
X0449564Y0086744D01*
X0449598Y0086889D01*
X0449636Y0087032D01*
X0449677Y0087175D01*
X0449722Y0087316D01*
X0449772Y0087456D01*
X0449824Y0087594D01*
X0449881Y0087732D01*
X0449941Y0087867D01*
X0450005Y0088001D01*
X0450072Y0088133D01*
X0450143Y0088263D01*
X0450218Y0088392D01*
X0450296Y0088518D01*
X0450377Y0088642D01*
X0450461Y0088764D01*
X0450549Y0088883D01*
X0450640Y0089000D01*
X0450734Y0089115D01*
X0450832Y0089227D01*
X0450932Y0089336D01*
X0451035Y0089443D01*
X0451141Y0089547D01*
X0451249Y0089648D01*
X0451361Y0089746D01*
X0451475Y0089841D01*
X0451591Y0089932D01*
X0451710Y0090021D01*
X0451831Y0090106D01*
X0451955Y0090188D01*
X0452081Y0090267D01*
X0452208Y0090342D01*
X0452338Y0090414D01*
X0452470Y0090483D01*
X0452603Y0090547D01*
X0452738Y0090608D01*
X0452875Y0090666D01*
X0453013Y0090720D01*
X0453153Y0090770D01*
X0453294Y0090816D01*
X0453436Y0090858D01*
X0453579Y0090897D01*
X0453723Y0090931D01*
X0453869Y0090962D01*
X0454014Y0090989D01*
X0454161Y0091012D01*
X0454308Y0091031D01*
X0454456Y0091046D01*
X0454603Y0091057D01*
X0454752Y0091064D01*
X0454900Y0091067D01*
X0455048Y0091066D01*
X0455196Y0091061D01*
X0455344Y0091052D01*
X0455492Y0091039D01*
X0455640Y0091022D01*
X0455786Y0091001D01*
X0455933Y0090976D01*
X0456078Y0090947D01*
X0456223Y0090915D01*
X0456366Y0090878D01*
X0456509Y0090838D01*
X0456651Y0090793D01*
X0456791Y0090745D01*
X0456930Y0090693D01*
X0457067Y0090638D01*
X0457203Y0090578D01*
X0457338Y0090515D01*
X0457470Y0090449D01*
X0457601Y0090379D01*
X0457730Y0090305D01*
X0457856Y0090228D01*
X0457981Y0090148D01*
X0458103Y0090064D01*
X0458224Y0089977D01*
X0458341Y0089887D01*
X0458457Y0089793D01*
X0458569Y0089697D01*
X0458679Y0089598D01*
X0458787Y0089495D01*
X0458891Y0089390D01*
X0458993Y0089282D01*
X0459091Y0089171D01*
X0459187Y0089058D01*
X0459280Y0088942D01*
X0459369Y0088824D01*
X0459455Y0088703D01*
X0459538Y0088580D01*
X0459618Y0088455D01*
X0459694Y0088328D01*
X0459767Y0088198D01*
X0459836Y0088067D01*
X0459901Y0087934D01*
X0459964Y0087800D01*
X0460022Y0087663D01*
X0460077Y0087525D01*
X0460127Y0087386D01*
X0460175Y0087245D01*
X0460218Y0087104D01*
X0460258Y0086961D01*
X0460293Y0086817D01*
X0460325Y0086672D01*
X0460353Y0086526D01*
X0460377Y0086380D01*
X0460397Y0086233D01*
X0460413Y0086085D01*
X0460425Y0085938D01*
X0460433Y0085789D01*
X0460437Y0085641D01*
X0460437Y0085493D01*
X0460433Y0085345D01*
X0460425Y0085196D01*
X0460413Y0085049D01*
X0460397Y0084901D01*
X0460377Y0084754D01*
X0460353Y0084608D01*
X0460325Y0084462D01*
X0460293Y0084317D01*
X0460258Y0084173D01*
X0460218Y0084030D01*
X0460175Y0083889D01*
X0460127Y0083748D01*
X0460077Y0083609D01*
X0460022Y0083471D01*
X0459964Y0083334D01*
X0459901Y0083200D01*
X0459836Y0083067D01*
X0459767Y0082936D01*
X0459694Y0082806D01*
X0459618Y0082679D01*
X0459538Y0082554D01*
X0459455Y0082431D01*
X0459369Y0082310D01*
X0459280Y0082192D01*
X0459187Y0082076D01*
X0459091Y0081963D01*
X0458993Y0081852D01*
X0458891Y0081744D01*
X0458787Y0081639D01*
X0458679Y0081536D01*
X0458569Y0081437D01*
X0458457Y0081341D01*
X0458341Y0081247D01*
X0458224Y0081157D01*
X0458103Y0081070D01*
X0457981Y0080986D01*
X0457856Y0080906D01*
X0457730Y0080829D01*
X0457601Y0080755D01*
X0457470Y0080685D01*
X0457338Y0080619D01*
X0457203Y0080556D01*
X0457067Y0080496D01*
X0456930Y0080441D01*
X0456791Y0080389D01*
X0456651Y0080341D01*
X0456509Y0080296D01*
X0456366Y0080256D01*
X0456223Y0080219D01*
X0456078Y0080187D01*
X0455933Y0080158D01*
X0455786Y0080133D01*
X0455640Y0080112D01*
X0455492Y0080095D01*
X0455344Y0080082D01*
X0455196Y0080073D01*
X0455048Y0080068D01*
X0454900Y0080067D01*
X0454752Y0080070D01*
X0454603Y0080077D01*
X0454456Y0080088D01*
X0454308Y0080103D01*
X0454161Y0080122D01*
X0454014Y0080145D01*
X0453869Y0080172D01*
X0453723Y0080203D01*
X0453579Y0080237D01*
X0453436Y0080276D01*
X0453294Y0080318D01*
X0453153Y0080364D01*
X0453013Y0080414D01*
X0452875Y0080468D01*
X0452738Y0080526D01*
X0452603Y0080587D01*
X0452470Y0080651D01*
X0452338Y0080720D01*
X0452208Y0080792D01*
X0452081Y0080867D01*
X0451955Y0080946D01*
X0451831Y0081028D01*
X0451710Y0081113D01*
X0451591Y0081202D01*
X0451475Y0081293D01*
X0451361Y0081388D01*
X0451249Y0081486D01*
X0451141Y0081587D01*
X0451035Y0081691D01*
X0450932Y0081798D01*
X0450832Y0081907D01*
X0450734Y0082019D01*
X0450640Y0082134D01*
X0450549Y0082251D01*
X0450461Y0082370D01*
X0450377Y0082492D01*
X0450296Y0082616D01*
X0450218Y0082742D01*
X0450143Y0082871D01*
X0450072Y0083001D01*
X0450005Y0083133D01*
X0449941Y0083267D01*
X0449881Y0083402D01*
X0449824Y0083540D01*
X0449772Y0083678D01*
X0449722Y0083818D01*
X0449677Y0083959D01*
X0449636Y0084102D01*
X0449598Y0084245D01*
X0449564Y0084390D01*
X0449535Y0084535D01*
X0449509Y0084681D01*
X0449487Y0084828D01*
X0449469Y0084975D01*
X0449455Y0085123D01*
X0449445Y0085271D01*
X0449439Y0085419D01*
X0449437Y0085567D01*
X0468657Y0085272D02*
X0468657Y0083404D01*
X0471459Y0083404D01*
X0471459Y0085272D01*
X0471459Y0086166D02*
X0468657Y0086166D01*
X0470058Y0084338D02*
X0470058Y0083404D01*
X0471459Y0082510D02*
X0468657Y0082510D01*
X0468657Y0080641D02*
X0471459Y0082510D01*
X0471459Y0080641D02*
X0468657Y0080641D01*
X0468657Y0079747D02*
X0471459Y0079747D01*
X0468657Y0077879D01*
X0471459Y0077879D01*
X0471459Y0076985D02*
X0469591Y0076985D01*
X0468657Y0076051D01*
X0469591Y0075117D01*
X0471459Y0075117D01*
X0471459Y0074223D02*
X0468657Y0074223D01*
X0470058Y0074223D02*
X0470058Y0072354D01*
X0470992Y0071460D02*
X0471459Y0070993D01*
X0471459Y0070059D01*
X0470992Y0069592D01*
X0469124Y0069592D01*
X0468657Y0070059D01*
X0468657Y0070993D01*
X0469124Y0071460D01*
X0468657Y0072354D02*
X0471459Y0072354D01*
X0470058Y0075117D02*
X0470058Y0076985D01*
X0471459Y0086166D02*
X0471459Y0088034D01*
X0470058Y0088928D02*
X0470058Y0090797D01*
X0470525Y0091691D02*
X0470525Y0093092D01*
X0470058Y0093559D01*
X0469124Y0093559D01*
X0468657Y0093092D01*
X0468657Y0091691D01*
X0471459Y0091691D01*
X0470992Y0094453D02*
X0469124Y0094453D01*
X0468657Y0094920D01*
X0468657Y0095854D01*
X0469124Y0096321D01*
X0470992Y0096321D01*
X0471459Y0095854D01*
X0471459Y0094920D01*
X0470992Y0094453D01*
X0468657Y0097216D02*
X0468657Y0099084D01*
X0468657Y0098150D02*
X0471459Y0098150D01*
D12*
X0441385Y0092216D02*
X0440151Y0090364D01*
X0438917Y0092216D01*
X0437682Y0090364D02*
X0441385Y0090364D01*
X0440768Y0089150D02*
X0441385Y0088533D01*
X0441385Y0087298D01*
X0440768Y0086681D01*
X0438299Y0089150D01*
X0440768Y0089150D01*
X0438299Y0089150D02*
X0437682Y0088533D01*
X0437682Y0087298D01*
X0438299Y0086681D01*
X0440768Y0086681D01*
X0440768Y0085467D02*
X0441385Y0084849D01*
X0441385Y0083615D01*
X0440768Y0082998D01*
X0439534Y0082998D02*
X0438917Y0084232D01*
X0438917Y0084849D01*
X0439534Y0085467D01*
X0440768Y0085467D01*
X0439534Y0082998D02*
X0437682Y0082998D01*
X0437682Y0085467D01*
X0410598Y0078304D02*
X0410598Y0077336D01*
X0410114Y0076853D01*
X0408179Y0078788D01*
X0410114Y0078788D01*
X0410598Y0078304D01*
X0410114Y0076853D02*
X0408179Y0076853D01*
X0407696Y0077336D01*
X0407696Y0078304D01*
X0408179Y0078788D01*
X0400598Y0078304D02*
X0400598Y0077336D01*
X0400114Y0076853D01*
X0400598Y0075841D02*
X0400598Y0073906D01*
X0400598Y0074874D02*
X0397696Y0074874D01*
X0398663Y0073906D01*
X0399147Y0072895D02*
X0399630Y0072411D01*
X0399630Y0070960D01*
X0399630Y0071927D02*
X0400598Y0072895D01*
X0399147Y0072895D02*
X0398179Y0072895D01*
X0397696Y0072411D01*
X0397696Y0070960D01*
X0400598Y0070960D01*
X0407696Y0070960D02*
X0407696Y0072411D01*
X0408179Y0072895D01*
X0409147Y0072895D01*
X0409630Y0072411D01*
X0409630Y0070960D01*
X0409630Y0071927D02*
X0410598Y0072895D01*
X0410598Y0073906D02*
X0410598Y0075841D01*
X0410598Y0074874D02*
X0407696Y0074874D01*
X0408663Y0073906D01*
X0407696Y0070960D02*
X0410598Y0070960D01*
X0398179Y0076853D02*
X0397696Y0077336D01*
X0397696Y0078304D01*
X0398179Y0078788D01*
X0398663Y0078788D01*
X0399147Y0078304D01*
X0399630Y0078788D01*
X0400114Y0078788D01*
X0400598Y0078304D01*
X0399147Y0078304D02*
X0399147Y0077820D01*
X0390598Y0077820D02*
X0387696Y0077820D01*
X0388663Y0076853D01*
X0388663Y0075841D02*
X0388179Y0075841D01*
X0387696Y0075357D01*
X0387696Y0074390D01*
X0388179Y0073906D01*
X0388179Y0072895D02*
X0389147Y0072895D01*
X0389630Y0072411D01*
X0389630Y0070960D01*
X0389630Y0071927D02*
X0390598Y0072895D01*
X0390598Y0073906D02*
X0388663Y0075841D01*
X0390598Y0075841D02*
X0390598Y0073906D01*
X0388179Y0072895D02*
X0387696Y0072411D01*
X0387696Y0070960D01*
X0390598Y0070960D01*
X0380598Y0070960D02*
X0377696Y0070960D01*
X0377696Y0072411D01*
X0378179Y0072895D01*
X0379147Y0072895D01*
X0379630Y0072411D01*
X0379630Y0070960D01*
X0379630Y0071927D02*
X0380598Y0072895D01*
X0380598Y0073906D02*
X0378663Y0075841D01*
X0378179Y0075841D01*
X0377696Y0075357D01*
X0377696Y0074390D01*
X0378179Y0073906D01*
X0380598Y0073906D02*
X0380598Y0075841D01*
X0380114Y0076853D02*
X0378179Y0078788D01*
X0380114Y0078788D01*
X0380598Y0078304D01*
X0380598Y0077336D01*
X0380114Y0076853D01*
X0378179Y0076853D01*
X0377696Y0077336D01*
X0377696Y0078304D01*
X0378179Y0078788D01*
X0370598Y0076853D02*
X0370114Y0076853D01*
X0368179Y0078788D01*
X0367696Y0078788D01*
X0367696Y0076853D01*
X0367696Y0074874D02*
X0370598Y0074874D01*
X0370598Y0075841D02*
X0370598Y0073906D01*
X0370598Y0072895D02*
X0369630Y0071927D01*
X0369630Y0072411D02*
X0369630Y0070960D01*
X0370598Y0070960D02*
X0367696Y0070960D01*
X0367696Y0072411D01*
X0368179Y0072895D01*
X0369147Y0072895D01*
X0369630Y0072411D01*
X0368663Y0073906D02*
X0367696Y0074874D01*
X0358787Y0073714D02*
X0355084Y0073714D01*
X0355084Y0074948D02*
X0355084Y0072479D01*
X0355084Y0076163D02*
X0355084Y0077397D01*
X0355084Y0076780D02*
X0358787Y0076780D01*
X0358787Y0076163D02*
X0358787Y0077397D01*
X0358787Y0078618D02*
X0355084Y0078618D01*
X0356318Y0079852D01*
X0355084Y0081087D01*
X0358787Y0081087D01*
X0358787Y0082301D02*
X0358787Y0084770D01*
X0356935Y0085984D02*
X0356935Y0088453D01*
X0357553Y0089667D02*
X0357553Y0091519D01*
X0356935Y0092136D01*
X0355701Y0092136D01*
X0355084Y0091519D01*
X0355084Y0089667D01*
X0358787Y0089667D01*
X0358170Y0093351D02*
X0358787Y0093968D01*
X0358787Y0095202D01*
X0358170Y0095819D01*
X0355701Y0095819D01*
X0355084Y0095202D01*
X0355084Y0093968D01*
X0355701Y0093351D01*
X0358170Y0093351D01*
X0355084Y0097034D02*
X0355084Y0099503D01*
X0355084Y0098268D02*
X0358787Y0098268D01*
X0333787Y0086999D02*
X0332553Y0085148D01*
X0331318Y0086999D01*
X0330084Y0085148D02*
X0333787Y0085148D01*
X0333170Y0083933D02*
X0330701Y0083933D01*
X0333170Y0081464D01*
X0333787Y0082082D01*
X0333787Y0083316D01*
X0333170Y0083933D01*
X0333170Y0081464D02*
X0330701Y0081464D01*
X0330084Y0082082D01*
X0330084Y0083316D01*
X0330701Y0083933D01*
X0330084Y0080250D02*
X0330084Y0077781D01*
X0331935Y0077781D01*
X0331318Y0079016D01*
X0331318Y0079633D01*
X0331935Y0080250D01*
X0333170Y0080250D01*
X0333787Y0079633D01*
X0333787Y0078399D01*
X0333170Y0077781D01*
X0355084Y0082301D02*
X0355084Y0084770D01*
X0356935Y0083536D02*
X0356935Y0082301D01*
X0355084Y0082301D02*
X0358787Y0082301D01*
X0390598Y0078788D02*
X0390598Y0076853D01*
X0390838Y0059360D02*
X0389737Y0059360D01*
X0389187Y0058809D01*
X0389187Y0056607D01*
X0389737Y0056057D01*
X0390838Y0056057D01*
X0391389Y0056607D01*
X0392502Y0056607D02*
X0393052Y0057158D01*
X0394704Y0057158D01*
X0394704Y0057708D02*
X0394704Y0056057D01*
X0393052Y0056057D01*
X0392502Y0056607D01*
X0393052Y0058259D02*
X0394153Y0058259D01*
X0394704Y0057708D01*
X0395817Y0057158D02*
X0396918Y0058259D01*
X0397468Y0058259D01*
X0398579Y0057708D02*
X0398579Y0056607D01*
X0399129Y0056057D01*
X0400230Y0056057D01*
X0400781Y0057158D02*
X0398579Y0057158D01*
X0398579Y0057708D02*
X0399129Y0058259D01*
X0400230Y0058259D01*
X0400781Y0057708D01*
X0400781Y0057158D01*
X0401894Y0057708D02*
X0402995Y0057708D01*
X0402444Y0058809D02*
X0402995Y0059360D01*
X0402444Y0058809D02*
X0402444Y0056057D01*
X0404104Y0056607D02*
X0404654Y0056057D01*
X0406306Y0056057D01*
X0406306Y0058259D01*
X0407419Y0059360D02*
X0407969Y0059360D01*
X0407969Y0056057D01*
X0407419Y0056057D02*
X0408519Y0056057D01*
X0404104Y0056607D02*
X0404104Y0058259D01*
X0395817Y0058259D02*
X0395817Y0056057D01*
X0391389Y0058809D02*
X0390838Y0059360D01*
X0389187Y0054320D02*
X0389187Y0051017D01*
X0391389Y0051017D01*
X0392502Y0051017D02*
X0394704Y0051017D01*
X0395817Y0051017D02*
X0397468Y0051017D01*
X0398019Y0051567D01*
X0398019Y0053769D01*
X0397468Y0054320D01*
X0395817Y0054320D01*
X0395817Y0051017D01*
X0393603Y0052668D02*
X0392502Y0052668D01*
X0392502Y0051017D02*
X0392502Y0054320D01*
X0394704Y0054320D01*
X0402446Y0054320D02*
X0404098Y0054320D01*
X0404648Y0053769D01*
X0404648Y0052668D01*
X0404098Y0052118D01*
X0402446Y0052118D01*
X0402446Y0051017D02*
X0402446Y0054320D01*
X0405761Y0052668D02*
X0405761Y0051567D01*
X0406312Y0051017D01*
X0407413Y0051017D01*
X0407963Y0051567D01*
X0407963Y0052668D01*
X0407413Y0053219D01*
X0406312Y0053219D01*
X0405761Y0052668D01*
X0409076Y0051017D02*
X0410177Y0051017D01*
X0409626Y0051017D02*
X0409626Y0054320D01*
X0409076Y0054320D01*
X0411836Y0053219D02*
X0412937Y0053219D01*
X0413488Y0052668D01*
X0413488Y0051017D01*
X0411836Y0051017D01*
X0411286Y0051567D01*
X0411836Y0052118D01*
X0413488Y0052118D01*
X0414601Y0052118D02*
X0415702Y0053219D01*
X0416252Y0053219D01*
X0417363Y0053219D02*
X0417913Y0053219D01*
X0417913Y0051017D01*
X0417363Y0051017D02*
X0418464Y0051017D01*
X0420123Y0051567D02*
X0420674Y0051017D01*
X0420123Y0051567D02*
X0420123Y0053769D01*
X0419573Y0053219D02*
X0420674Y0053219D01*
X0421783Y0053219D02*
X0421783Y0051567D01*
X0422333Y0051017D01*
X0423985Y0051017D01*
X0423985Y0050466D02*
X0423434Y0049916D01*
X0422884Y0049916D01*
X0423985Y0050466D02*
X0423985Y0053219D01*
X0425098Y0052668D02*
X0427299Y0052668D01*
X0428412Y0051017D02*
X0430614Y0052668D01*
X0428412Y0054320D01*
X0422880Y0056057D02*
X0422880Y0057708D01*
X0422329Y0058259D01*
X0421228Y0058259D01*
X0420678Y0057708D01*
X0419569Y0058259D02*
X0418468Y0058259D01*
X0419018Y0058809D02*
X0419018Y0056607D01*
X0419569Y0056057D01*
X0420678Y0056057D02*
X0420678Y0059360D01*
X0416809Y0059360D02*
X0416809Y0059910D01*
X0416809Y0058259D02*
X0416809Y0056057D01*
X0417359Y0056057D02*
X0416258Y0056057D01*
X0415145Y0056607D02*
X0415145Y0058259D01*
X0416258Y0058259D02*
X0416809Y0058259D01*
X0415145Y0056607D02*
X0414595Y0056057D01*
X0414044Y0056607D01*
X0413494Y0056057D01*
X0412943Y0056607D01*
X0412943Y0058259D01*
X0417913Y0054870D02*
X0417913Y0054320D01*
X0414601Y0053219D02*
X0414601Y0051017D01*
X0442830Y0057406D02*
X0442830Y0060308D01*
X0444281Y0060308D01*
X0444765Y0059825D01*
X0444765Y0058857D01*
X0444281Y0058373D01*
X0442830Y0058373D01*
X0443797Y0058373D02*
X0444765Y0057406D01*
X0445776Y0057406D02*
X0447711Y0057406D01*
X0446744Y0057406D02*
X0446744Y0060308D01*
X0445776Y0059341D01*
X0448723Y0058857D02*
X0450174Y0060308D01*
X0450174Y0057406D01*
X0450658Y0058857D02*
X0448723Y0058857D01*
X0477696Y0070960D02*
X0477696Y0072411D01*
X0478179Y0072895D01*
X0479147Y0072895D01*
X0479630Y0072411D01*
X0479630Y0070960D01*
X0479630Y0071927D02*
X0480598Y0072895D01*
X0480598Y0073906D02*
X0480598Y0075841D01*
X0480598Y0074874D02*
X0477696Y0074874D01*
X0478663Y0073906D01*
X0477696Y0070960D02*
X0480598Y0070960D01*
X0480598Y0076853D02*
X0478663Y0078788D01*
X0478179Y0078788D01*
X0477696Y0078304D01*
X0477696Y0077336D01*
X0478179Y0076853D01*
X0480598Y0076853D02*
X0480598Y0078788D01*
X0455658Y0117406D02*
X0453723Y0117406D01*
X0454690Y0117406D02*
X0454690Y0120308D01*
X0453723Y0119341D01*
X0452711Y0117406D02*
X0450776Y0117406D01*
X0451744Y0117406D02*
X0451744Y0120308D01*
X0450776Y0119341D01*
X0449765Y0119825D02*
X0449765Y0118857D01*
X0449281Y0118373D01*
X0447830Y0118373D01*
X0447830Y0117406D02*
X0447830Y0120308D01*
X0449281Y0120308D01*
X0449765Y0119825D01*
X0448797Y0118373D02*
X0449765Y0117406D01*
X0305598Y0075357D02*
X0305114Y0075841D01*
X0303179Y0075841D01*
X0302696Y0075357D01*
X0302696Y0074390D01*
X0303179Y0073906D01*
X0303663Y0073906D01*
X0304147Y0074390D01*
X0304147Y0075841D01*
X0305598Y0075357D02*
X0305598Y0074390D01*
X0305114Y0073906D01*
X0305598Y0072895D02*
X0304630Y0071927D01*
X0304630Y0072411D02*
X0304630Y0070960D01*
X0305598Y0070960D02*
X0302696Y0070960D01*
X0302696Y0072411D01*
X0303179Y0072895D01*
X0304147Y0072895D01*
X0304630Y0072411D01*
X0295598Y0072895D02*
X0294630Y0071927D01*
X0294630Y0072411D02*
X0294630Y0070960D01*
X0295598Y0070960D02*
X0292696Y0070960D01*
X0292696Y0072411D01*
X0293179Y0072895D01*
X0294147Y0072895D01*
X0294630Y0072411D01*
X0293663Y0073906D02*
X0292696Y0074874D01*
X0295598Y0074874D01*
X0295598Y0075841D02*
X0295598Y0073906D01*
X0295114Y0076853D02*
X0295598Y0077336D01*
X0295598Y0078304D01*
X0295114Y0078788D01*
X0294147Y0078788D01*
X0293663Y0078304D01*
X0293663Y0077820D01*
X0294147Y0076853D01*
X0292696Y0076853D01*
X0292696Y0078788D01*
X0205598Y0078304D02*
X0205598Y0077336D01*
X0205114Y0076853D01*
X0204147Y0077336D02*
X0204147Y0078788D01*
X0205114Y0078788D02*
X0203179Y0078788D01*
X0202696Y0078304D01*
X0202696Y0077336D01*
X0203179Y0076853D01*
X0203663Y0076853D01*
X0204147Y0077336D01*
X0205598Y0078304D02*
X0205114Y0078788D01*
X0205598Y0075841D02*
X0205598Y0073906D01*
X0205598Y0074874D02*
X0202696Y0074874D01*
X0203663Y0073906D01*
X0204147Y0072895D02*
X0204630Y0072411D01*
X0204630Y0070960D01*
X0204630Y0071927D02*
X0205598Y0072895D01*
X0204147Y0072895D02*
X0203179Y0072895D01*
X0202696Y0072411D01*
X0202696Y0070960D01*
X0205598Y0070960D01*
X0195598Y0070960D02*
X0192696Y0070960D01*
X0192696Y0072411D01*
X0193179Y0072895D01*
X0194147Y0072895D01*
X0194630Y0072411D01*
X0194630Y0070960D01*
X0194630Y0071927D02*
X0195598Y0072895D01*
X0195598Y0073906D02*
X0195598Y0075841D01*
X0195598Y0074874D02*
X0192696Y0074874D01*
X0193663Y0073906D01*
X0193663Y0076853D02*
X0193179Y0076853D01*
X0192696Y0077336D01*
X0192696Y0078304D01*
X0193179Y0078788D01*
X0193663Y0078788D01*
X0194147Y0078304D01*
X0194147Y0077336D01*
X0193663Y0076853D01*
X0194147Y0077336D02*
X0194630Y0076853D01*
X0195114Y0076853D01*
X0195598Y0077336D01*
X0195598Y0078304D01*
X0195114Y0078788D01*
X0194630Y0078788D01*
X0194147Y0078304D01*
X0162973Y0089851D02*
X0161738Y0088617D01*
X0160504Y0089851D01*
X0160504Y0092320D01*
X0159289Y0091703D02*
X0158672Y0092320D01*
X0157438Y0092320D01*
X0156821Y0091703D01*
X0156821Y0089234D01*
X0157438Y0088617D01*
X0158672Y0088617D01*
X0159289Y0089234D01*
X0162973Y0089851D02*
X0162973Y0092320D01*
X0155606Y0090469D02*
X0153138Y0090469D01*
X0151923Y0092320D02*
X0149454Y0092320D01*
X0149454Y0088617D01*
X0151923Y0088617D01*
X0150689Y0090469D02*
X0149454Y0090469D01*
X0148240Y0092320D02*
X0148240Y0088617D01*
X0145771Y0088617D02*
X0145771Y0092320D01*
X0147006Y0091086D01*
X0148240Y0092320D01*
X0144550Y0092320D02*
X0143316Y0092320D01*
X0143933Y0092320D02*
X0143933Y0088617D01*
X0143316Y0088617D02*
X0144550Y0088617D01*
X0140867Y0088617D02*
X0140867Y0092320D01*
X0139633Y0092320D02*
X0142101Y0092320D01*
X0111073Y0092320D02*
X0111073Y0089851D01*
X0109838Y0088617D01*
X0108604Y0089851D01*
X0108604Y0092320D01*
X0107389Y0091703D02*
X0106772Y0092320D01*
X0105538Y0092320D01*
X0104921Y0091703D01*
X0104921Y0089234D01*
X0105538Y0088617D01*
X0106772Y0088617D01*
X0107389Y0089234D01*
X0103706Y0090469D02*
X0101238Y0090469D01*
X0100023Y0092320D02*
X0097554Y0092320D01*
X0096340Y0092320D02*
X0093871Y0092320D01*
X0093871Y0088617D01*
X0096340Y0088617D01*
X0095106Y0090469D02*
X0093871Y0090469D01*
X0092657Y0089851D02*
X0092657Y0089234D01*
X0092040Y0088617D01*
X0090805Y0088617D01*
X0090188Y0089234D01*
X0088974Y0088617D02*
X0086505Y0088617D01*
X0086505Y0092320D01*
X0088974Y0092320D01*
X0090188Y0091703D02*
X0090188Y0091086D01*
X0090805Y0090469D01*
X0092040Y0090469D01*
X0092657Y0089851D01*
X0092657Y0091703D02*
X0092040Y0092320D01*
X0090805Y0092320D01*
X0090188Y0091703D01*
X0087739Y0090469D02*
X0086505Y0090469D01*
X0085291Y0090469D02*
X0084673Y0089851D01*
X0082822Y0089851D01*
X0082822Y0088617D02*
X0082822Y0092320D01*
X0084673Y0092320D01*
X0085291Y0091703D01*
X0085291Y0090469D01*
X0084056Y0089851D02*
X0085291Y0088617D01*
X0098789Y0088617D02*
X0098789Y0092320D01*
X0192830Y0060308D02*
X0194281Y0060308D01*
X0194765Y0059825D01*
X0194765Y0058857D01*
X0194281Y0058373D01*
X0192830Y0058373D01*
X0192830Y0057406D02*
X0192830Y0060308D01*
X0193797Y0058373D02*
X0194765Y0057406D01*
X0195776Y0057890D02*
X0196260Y0057406D01*
X0197227Y0057406D01*
X0197711Y0057890D01*
X0197711Y0058373D01*
X0197227Y0058857D01*
X0196260Y0058857D01*
X0195776Y0059341D01*
X0195776Y0059825D01*
X0196260Y0060308D01*
X0197227Y0060308D01*
X0197711Y0059825D01*
X0197711Y0059341D01*
X0197227Y0058857D01*
X0196260Y0058857D02*
X0195776Y0058373D01*
X0195776Y0057890D01*
X0175773Y0053120D02*
X0175773Y0050651D01*
X0174538Y0049417D01*
X0173304Y0050651D01*
X0173304Y0053120D01*
X0172089Y0052503D02*
X0171472Y0053120D01*
X0170238Y0053120D01*
X0169621Y0052503D01*
X0169621Y0050034D01*
X0170238Y0049417D01*
X0171472Y0049417D01*
X0172089Y0050034D01*
X0168406Y0051269D02*
X0165938Y0051269D01*
X0162254Y0053120D02*
X0162254Y0049417D01*
X0164723Y0049417D01*
X0161040Y0049417D02*
X0158571Y0049417D01*
X0158571Y0053120D01*
X0161040Y0053120D01*
X0159806Y0051269D02*
X0158571Y0051269D01*
X0157357Y0053120D02*
X0157357Y0049417D01*
X0154888Y0053120D01*
X0154888Y0049417D01*
X0153674Y0049417D02*
X0153674Y0053120D01*
X0151205Y0053120D02*
X0153674Y0049417D01*
X0151205Y0049417D02*
X0151205Y0053120D01*
X0149991Y0051886D02*
X0149991Y0049417D01*
X0147522Y0049417D02*
X0147522Y0051886D01*
X0148756Y0053120D01*
X0149991Y0051886D01*
X0149991Y0051269D02*
X0147522Y0051269D01*
X0146307Y0051269D02*
X0143839Y0051269D01*
X0142624Y0052503D02*
X0142007Y0053120D01*
X0140773Y0053120D01*
X0140156Y0052503D01*
X0140156Y0050034D01*
X0140773Y0049417D01*
X0142007Y0049417D01*
X0142624Y0050034D01*
X0143839Y0049417D02*
X0143839Y0053120D01*
X0146307Y0053120D02*
X0146307Y0049417D01*
X0103873Y0053120D02*
X0101404Y0053120D01*
X0100189Y0053120D02*
X0100189Y0050034D01*
X0099572Y0049417D01*
X0098338Y0049417D01*
X0097721Y0050034D01*
X0097721Y0053120D01*
X0096506Y0052503D02*
X0095889Y0053120D01*
X0094038Y0053120D01*
X0094038Y0049417D01*
X0094038Y0050651D02*
X0095889Y0050651D01*
X0096506Y0051269D01*
X0096506Y0052503D01*
X0092823Y0053120D02*
X0090354Y0053120D01*
X0089140Y0053120D02*
X0089140Y0050034D01*
X0088523Y0049417D01*
X0087288Y0049417D01*
X0086671Y0050034D01*
X0086671Y0053120D01*
X0085457Y0052503D02*
X0084840Y0053120D01*
X0083605Y0053120D01*
X0082988Y0052503D01*
X0082988Y0050034D01*
X0083605Y0049417D01*
X0084840Y0049417D01*
X0085457Y0050034D01*
X0085457Y0052503D01*
X0091589Y0053120D02*
X0091589Y0049417D01*
X0102638Y0049417D02*
X0102638Y0053120D01*
D13*
X0321709Y0069425D02*
X0323874Y0069425D01*
X0323874Y0067260D01*
X0336472Y0067260D01*
X0321709Y0069425D02*
X0321709Y0101709D01*
X0323874Y0101709D01*
X0323874Y0103874D01*
X0336472Y0103874D01*
X0355370Y0103874D02*
X0364031Y0103874D01*
X0364031Y0101709D01*
X0366197Y0101709D01*
X0366197Y0069425D01*
X0364031Y0069425D01*
X0364031Y0067260D01*
X0355370Y0067260D01*
X0431709Y0069425D02*
X0433874Y0069425D01*
X0433874Y0067260D01*
X0446472Y0067260D01*
X0431709Y0069425D02*
X0431709Y0101709D01*
X0433874Y0101709D01*
X0433874Y0103874D01*
X0446472Y0103874D01*
X0465370Y0103874D02*
X0474031Y0103874D01*
X0474031Y0101709D01*
X0476197Y0101709D01*
X0476197Y0069425D01*
X0474031Y0069425D01*
X0474031Y0067260D01*
X0465370Y0067260D01*
D14*
X0487686Y0062303D02*
X0490186Y0062303D01*
X0488960Y0061069D02*
X0488960Y0063569D01*
X0488960Y0078569D02*
X0488960Y0081069D01*
X0490186Y0079803D02*
X0487686Y0079803D01*
X0498914Y0090564D02*
X0498914Y0093064D01*
X0497688Y0091831D02*
X0500188Y0091831D01*
X0498914Y0108064D02*
X0498914Y0110564D01*
X0497688Y0109331D02*
X0500188Y0109331D01*
X0283686Y0063303D02*
X0281186Y0063303D01*
X0282460Y0062069D02*
X0282460Y0064569D01*
X0274622Y0061256D02*
X0274622Y0084878D01*
X0254937Y0077004D02*
X0254937Y0069130D01*
X0274622Y0061256D02*
X0274327Y0060776D01*
X0274019Y0060304D01*
X0273700Y0059840D01*
X0273370Y0059383D01*
X0273029Y0058935D01*
X0272677Y0058496D01*
X0272314Y0058065D01*
X0271940Y0057643D01*
X0271557Y0057230D01*
X0271163Y0056827D01*
X0270760Y0056434D01*
X0270347Y0056051D01*
X0269925Y0055678D01*
X0269494Y0055315D01*
X0269054Y0054963D01*
X0268605Y0054622D01*
X0268149Y0054293D01*
X0267684Y0053974D01*
X0267212Y0053667D01*
X0266732Y0053372D01*
X0266245Y0053088D01*
X0265752Y0052817D01*
X0265251Y0052558D01*
X0264745Y0052311D01*
X0264233Y0052076D01*
X0263715Y0051854D01*
X0263192Y0051645D01*
X0262664Y0051449D01*
X0262131Y0051266D01*
X0261594Y0051096D01*
X0261053Y0050940D01*
X0260508Y0050796D01*
X0259960Y0050666D01*
X0259409Y0050550D01*
X0258855Y0050447D01*
X0258299Y0050357D01*
X0257740Y0050282D01*
X0257180Y0050220D01*
X0256619Y0050172D01*
X0256057Y0050137D01*
X0255494Y0050117D01*
X0254931Y0050110D01*
X0254367Y0050117D01*
X0253804Y0050138D01*
X0253242Y0050173D01*
X0252681Y0050221D01*
X0252121Y0050283D01*
X0251563Y0050359D01*
X0251007Y0050449D01*
X0250453Y0050552D01*
X0249902Y0050669D01*
X0249354Y0050799D01*
X0248809Y0050943D01*
X0248268Y0051100D01*
X0247731Y0051270D01*
X0247198Y0051454D01*
X0246670Y0051650D01*
X0246147Y0051859D01*
X0245630Y0052081D01*
X0245117Y0052316D01*
X0244611Y0052563D01*
X0244111Y0052823D01*
X0243618Y0053095D01*
X0243131Y0053378D01*
X0242652Y0053674D01*
X0242179Y0053981D01*
X0241715Y0054300D01*
X0241259Y0054630D01*
X0240810Y0054971D01*
X0240370Y0055323D01*
X0239939Y0055686D01*
X0239518Y0056059D01*
X0239105Y0056443D01*
X0238702Y0056836D01*
X0238308Y0057239D01*
X0237925Y0057652D01*
X0237552Y0058074D01*
X0237189Y0058505D01*
X0236837Y0058945D01*
X0236496Y0059394D01*
X0236166Y0059850D01*
X0235848Y0060315D01*
X0235540Y0060787D01*
X0235245Y0061267D01*
X0234961Y0061753D01*
X0234690Y0062247D01*
X0234430Y0062747D01*
X0234183Y0063253D01*
X0233949Y0063765D01*
X0233727Y0064283D01*
X0233518Y0064806D01*
X0233322Y0065334D01*
X0233138Y0065867D01*
X0232968Y0066404D01*
X0232811Y0066945D01*
X0232668Y0067490D01*
X0232538Y0068038D01*
X0232421Y0068589D01*
X0232318Y0069143D01*
X0232228Y0069699D01*
X0232153Y0070257D01*
X0232091Y0070817D01*
X0232042Y0071378D01*
X0232008Y0071941D01*
X0231987Y0072504D01*
X0231980Y0073067D01*
X0231987Y0073630D01*
X0232008Y0074193D01*
X0232042Y0074756D01*
X0232091Y0075317D01*
X0232153Y0075877D01*
X0232228Y0076435D01*
X0232318Y0076991D01*
X0232421Y0077545D01*
X0232538Y0078096D01*
X0232668Y0078644D01*
X0232811Y0079189D01*
X0232968Y0079730D01*
X0233138Y0080267D01*
X0233322Y0080800D01*
X0233518Y0081328D01*
X0233727Y0081851D01*
X0233949Y0082369D01*
X0234183Y0082881D01*
X0234430Y0083387D01*
X0234690Y0083887D01*
X0234961Y0084381D01*
X0235245Y0084867D01*
X0235540Y0085347D01*
X0235848Y0085819D01*
X0236166Y0086284D01*
X0236496Y0086740D01*
X0236837Y0087189D01*
X0237189Y0087629D01*
X0237552Y0088060D01*
X0237925Y0088482D01*
X0238308Y0088895D01*
X0238702Y0089298D01*
X0239105Y0089691D01*
X0239518Y0090075D01*
X0239939Y0090448D01*
X0240370Y0090811D01*
X0240810Y0091163D01*
X0241259Y0091504D01*
X0241715Y0091834D01*
X0242179Y0092153D01*
X0242652Y0092460D01*
X0243131Y0092756D01*
X0243618Y0093039D01*
X0244111Y0093311D01*
X0244611Y0093571D01*
X0245117Y0093818D01*
X0245630Y0094053D01*
X0246147Y0094275D01*
X0246670Y0094484D01*
X0247198Y0094680D01*
X0247731Y0094864D01*
X0248268Y0095034D01*
X0248809Y0095191D01*
X0249354Y0095335D01*
X0249902Y0095465D01*
X0250453Y0095582D01*
X0251007Y0095685D01*
X0251563Y0095775D01*
X0252121Y0095851D01*
X0252681Y0095913D01*
X0253242Y0095961D01*
X0253804Y0095996D01*
X0254367Y0096017D01*
X0254931Y0096024D01*
X0255494Y0096017D01*
X0256057Y0095997D01*
X0256619Y0095962D01*
X0257180Y0095914D01*
X0257740Y0095852D01*
X0258299Y0095777D01*
X0258855Y0095687D01*
X0259409Y0095584D01*
X0259960Y0095468D01*
X0260508Y0095338D01*
X0261053Y0095194D01*
X0261594Y0095038D01*
X0262131Y0094868D01*
X0262664Y0094685D01*
X0263192Y0094489D01*
X0263715Y0094280D01*
X0264233Y0094058D01*
X0264745Y0093823D01*
X0265251Y0093576D01*
X0265752Y0093317D01*
X0266245Y0093046D01*
X0266732Y0092762D01*
X0267212Y0092467D01*
X0267684Y0092160D01*
X0268149Y0091841D01*
X0268605Y0091512D01*
X0269054Y0091171D01*
X0269494Y0090819D01*
X0269925Y0090456D01*
X0270347Y0090083D01*
X0270760Y0089700D01*
X0271163Y0089307D01*
X0271557Y0088904D01*
X0271940Y0088491D01*
X0272314Y0088069D01*
X0272677Y0087638D01*
X0273029Y0087199D01*
X0273370Y0086751D01*
X0273700Y0086294D01*
X0274019Y0085830D01*
X0274327Y0085358D01*
X0274622Y0084878D01*
X0258874Y0073067D02*
X0251000Y0073067D01*
X0188815Y0066354D02*
X0188815Y0064780D01*
X0180547Y0064780D01*
X0180154Y0066354D02*
X0188815Y0066354D01*
X0180154Y0066354D02*
X0180154Y0083283D01*
X0138815Y0083283D01*
X0138815Y0071472D01*
X0146689Y0071472D01*
X0146689Y0059661D01*
X0138815Y0059661D01*
X0138815Y0071472D01*
X0131315Y0066354D02*
X0122654Y0066354D01*
X0122654Y0083283D01*
X0081315Y0083283D01*
X0081315Y0071472D01*
X0089189Y0071472D01*
X0089189Y0059661D01*
X0081315Y0059661D01*
X0081315Y0071472D01*
X0094344Y0065567D02*
X0094347Y0065827D01*
X0094357Y0066087D01*
X0094373Y0066346D01*
X0094395Y0066605D01*
X0094424Y0066864D01*
X0094459Y0067121D01*
X0094500Y0067378D01*
X0094548Y0067634D01*
X0094601Y0067888D01*
X0094661Y0068141D01*
X0094728Y0068392D01*
X0094800Y0068642D01*
X0094879Y0068890D01*
X0094963Y0069136D01*
X0095054Y0069379D01*
X0095150Y0069621D01*
X0095253Y0069860D01*
X0095361Y0070096D01*
X0095475Y0070330D01*
X0095595Y0070561D01*
X0095720Y0070788D01*
X0095851Y0071013D01*
X0095987Y0071234D01*
X0096129Y0071452D01*
X0096276Y0071667D01*
X0096429Y0071877D01*
X0096586Y0072084D01*
X0096749Y0072287D01*
X0096916Y0072486D01*
X0097088Y0072681D01*
X0097265Y0072871D01*
X0097447Y0073057D01*
X0097633Y0073239D01*
X0097823Y0073416D01*
X0098018Y0073588D01*
X0098217Y0073755D01*
X0098420Y0073918D01*
X0098627Y0074075D01*
X0098837Y0074228D01*
X0099052Y0074375D01*
X0099270Y0074517D01*
X0099491Y0074653D01*
X0099716Y0074784D01*
X0099943Y0074909D01*
X0100174Y0075029D01*
X0100408Y0075143D01*
X0100644Y0075251D01*
X0100883Y0075354D01*
X0101125Y0075450D01*
X0101368Y0075541D01*
X0101614Y0075625D01*
X0101862Y0075704D01*
X0102112Y0075776D01*
X0102363Y0075843D01*
X0102616Y0075903D01*
X0102870Y0075956D01*
X0103126Y0076004D01*
X0103383Y0076045D01*
X0103640Y0076080D01*
X0103899Y0076109D01*
X0104158Y0076131D01*
X0104417Y0076147D01*
X0104677Y0076157D01*
X0104937Y0076160D01*
X0105197Y0076157D01*
X0105457Y0076147D01*
X0105716Y0076131D01*
X0105975Y0076109D01*
X0106234Y0076080D01*
X0106491Y0076045D01*
X0106748Y0076004D01*
X0107004Y0075956D01*
X0107258Y0075903D01*
X0107511Y0075843D01*
X0107762Y0075776D01*
X0108012Y0075704D01*
X0108260Y0075625D01*
X0108506Y0075541D01*
X0108749Y0075450D01*
X0108991Y0075354D01*
X0109230Y0075251D01*
X0109466Y0075143D01*
X0109700Y0075029D01*
X0109931Y0074909D01*
X0110158Y0074784D01*
X0110383Y0074653D01*
X0110604Y0074517D01*
X0110822Y0074375D01*
X0111037Y0074228D01*
X0111247Y0074075D01*
X0111454Y0073918D01*
X0111657Y0073755D01*
X0111856Y0073588D01*
X0112051Y0073416D01*
X0112241Y0073239D01*
X0112427Y0073057D01*
X0112609Y0072871D01*
X0112786Y0072681D01*
X0112958Y0072486D01*
X0113125Y0072287D01*
X0113288Y0072084D01*
X0113445Y0071877D01*
X0113598Y0071667D01*
X0113745Y0071452D01*
X0113887Y0071234D01*
X0114023Y0071013D01*
X0114154Y0070788D01*
X0114279Y0070561D01*
X0114399Y0070330D01*
X0114513Y0070096D01*
X0114621Y0069860D01*
X0114724Y0069621D01*
X0114820Y0069379D01*
X0114911Y0069136D01*
X0114995Y0068890D01*
X0115074Y0068642D01*
X0115146Y0068392D01*
X0115213Y0068141D01*
X0115273Y0067888D01*
X0115326Y0067634D01*
X0115374Y0067378D01*
X0115415Y0067121D01*
X0115450Y0066864D01*
X0115479Y0066605D01*
X0115501Y0066346D01*
X0115517Y0066087D01*
X0115527Y0065827D01*
X0115530Y0065567D01*
X0115527Y0065307D01*
X0115517Y0065047D01*
X0115501Y0064788D01*
X0115479Y0064529D01*
X0115450Y0064270D01*
X0115415Y0064013D01*
X0115374Y0063756D01*
X0115326Y0063500D01*
X0115273Y0063246D01*
X0115213Y0062993D01*
X0115146Y0062742D01*
X0115074Y0062492D01*
X0114995Y0062244D01*
X0114911Y0061998D01*
X0114820Y0061755D01*
X0114724Y0061513D01*
X0114621Y0061274D01*
X0114513Y0061038D01*
X0114399Y0060804D01*
X0114279Y0060573D01*
X0114154Y0060346D01*
X0114023Y0060121D01*
X0113887Y0059900D01*
X0113745Y0059682D01*
X0113598Y0059467D01*
X0113445Y0059257D01*
X0113288Y0059050D01*
X0113125Y0058847D01*
X0112958Y0058648D01*
X0112786Y0058453D01*
X0112609Y0058263D01*
X0112427Y0058077D01*
X0112241Y0057895D01*
X0112051Y0057718D01*
X0111856Y0057546D01*
X0111657Y0057379D01*
X0111454Y0057216D01*
X0111247Y0057059D01*
X0111037Y0056906D01*
X0110822Y0056759D01*
X0110604Y0056617D01*
X0110383Y0056481D01*
X0110158Y0056350D01*
X0109931Y0056225D01*
X0109700Y0056105D01*
X0109466Y0055991D01*
X0109230Y0055883D01*
X0108991Y0055780D01*
X0108749Y0055684D01*
X0108506Y0055593D01*
X0108260Y0055509D01*
X0108012Y0055430D01*
X0107762Y0055358D01*
X0107511Y0055291D01*
X0107258Y0055231D01*
X0107004Y0055178D01*
X0106748Y0055130D01*
X0106491Y0055089D01*
X0106234Y0055054D01*
X0105975Y0055025D01*
X0105716Y0055003D01*
X0105457Y0054987D01*
X0105197Y0054977D01*
X0104937Y0054974D01*
X0104677Y0054977D01*
X0104417Y0054987D01*
X0104158Y0055003D01*
X0103899Y0055025D01*
X0103640Y0055054D01*
X0103383Y0055089D01*
X0103126Y0055130D01*
X0102870Y0055178D01*
X0102616Y0055231D01*
X0102363Y0055291D01*
X0102112Y0055358D01*
X0101862Y0055430D01*
X0101614Y0055509D01*
X0101368Y0055593D01*
X0101125Y0055684D01*
X0100883Y0055780D01*
X0100644Y0055883D01*
X0100408Y0055991D01*
X0100174Y0056105D01*
X0099943Y0056225D01*
X0099716Y0056350D01*
X0099491Y0056481D01*
X0099270Y0056617D01*
X0099052Y0056759D01*
X0098837Y0056906D01*
X0098627Y0057059D01*
X0098420Y0057216D01*
X0098217Y0057379D01*
X0098018Y0057546D01*
X0097823Y0057718D01*
X0097633Y0057895D01*
X0097447Y0058077D01*
X0097265Y0058263D01*
X0097088Y0058453D01*
X0096916Y0058648D01*
X0096749Y0058847D01*
X0096586Y0059050D01*
X0096429Y0059257D01*
X0096276Y0059467D01*
X0096129Y0059682D01*
X0095987Y0059900D01*
X0095851Y0060121D01*
X0095720Y0060346D01*
X0095595Y0060573D01*
X0095475Y0060804D01*
X0095361Y0061038D01*
X0095253Y0061274D01*
X0095150Y0061513D01*
X0095054Y0061755D01*
X0094963Y0061998D01*
X0094879Y0062244D01*
X0094800Y0062492D01*
X0094728Y0062742D01*
X0094661Y0062993D01*
X0094601Y0063246D01*
X0094548Y0063500D01*
X0094500Y0063756D01*
X0094459Y0064013D01*
X0094424Y0064270D01*
X0094395Y0064529D01*
X0094373Y0064788D01*
X0094357Y0065047D01*
X0094347Y0065307D01*
X0094344Y0065567D01*
X0092487Y0065567D02*
X0092491Y0065873D01*
X0092502Y0066178D01*
X0092521Y0066483D01*
X0092547Y0066787D01*
X0092581Y0067091D01*
X0092622Y0067394D01*
X0092670Y0067695D01*
X0092726Y0067996D01*
X0092790Y0068295D01*
X0092860Y0068592D01*
X0092938Y0068888D01*
X0093023Y0069181D01*
X0093115Y0069472D01*
X0093215Y0069761D01*
X0093321Y0070048D01*
X0093435Y0070331D01*
X0093555Y0070612D01*
X0093682Y0070890D01*
X0093816Y0071165D01*
X0093957Y0071436D01*
X0094104Y0071704D01*
X0094258Y0071968D01*
X0094419Y0072228D01*
X0094585Y0072484D01*
X0094758Y0072736D01*
X0094937Y0072983D01*
X0095122Y0073227D01*
X0095313Y0073465D01*
X0095510Y0073699D01*
X0095712Y0073928D01*
X0095920Y0074152D01*
X0096134Y0074370D01*
X0096352Y0074584D01*
X0096576Y0074792D01*
X0096805Y0074994D01*
X0097039Y0075191D01*
X0097277Y0075382D01*
X0097521Y0075567D01*
X0097768Y0075746D01*
X0098020Y0075919D01*
X0098276Y0076085D01*
X0098536Y0076246D01*
X0098800Y0076400D01*
X0099068Y0076547D01*
X0099339Y0076688D01*
X0099614Y0076822D01*
X0099892Y0076949D01*
X0100173Y0077069D01*
X0100456Y0077183D01*
X0100743Y0077289D01*
X0101032Y0077389D01*
X0101323Y0077481D01*
X0101616Y0077566D01*
X0101912Y0077644D01*
X0102209Y0077714D01*
X0102508Y0077778D01*
X0102809Y0077834D01*
X0103110Y0077882D01*
X0103413Y0077923D01*
X0103717Y0077957D01*
X0104021Y0077983D01*
X0104326Y0078002D01*
X0104631Y0078013D01*
X0104937Y0078017D01*
X0105243Y0078013D01*
X0105548Y0078002D01*
X0105853Y0077983D01*
X0106157Y0077957D01*
X0106461Y0077923D01*
X0106764Y0077882D01*
X0107065Y0077834D01*
X0107366Y0077778D01*
X0107665Y0077714D01*
X0107962Y0077644D01*
X0108258Y0077566D01*
X0108551Y0077481D01*
X0108842Y0077389D01*
X0109131Y0077289D01*
X0109418Y0077183D01*
X0109701Y0077069D01*
X0109982Y0076949D01*
X0110260Y0076822D01*
X0110535Y0076688D01*
X0110806Y0076547D01*
X0111074Y0076400D01*
X0111338Y0076246D01*
X0111598Y0076085D01*
X0111854Y0075919D01*
X0112106Y0075746D01*
X0112353Y0075567D01*
X0112597Y0075382D01*
X0112835Y0075191D01*
X0113069Y0074994D01*
X0113298Y0074792D01*
X0113522Y0074584D01*
X0113740Y0074370D01*
X0113954Y0074152D01*
X0114162Y0073928D01*
X0114364Y0073699D01*
X0114561Y0073465D01*
X0114752Y0073227D01*
X0114937Y0072983D01*
X0115116Y0072736D01*
X0115289Y0072484D01*
X0115455Y0072228D01*
X0115616Y0071968D01*
X0115770Y0071704D01*
X0115917Y0071436D01*
X0116058Y0071165D01*
X0116192Y0070890D01*
X0116319Y0070612D01*
X0116439Y0070331D01*
X0116553Y0070048D01*
X0116659Y0069761D01*
X0116759Y0069472D01*
X0116851Y0069181D01*
X0116936Y0068888D01*
X0117014Y0068592D01*
X0117084Y0068295D01*
X0117148Y0067996D01*
X0117204Y0067695D01*
X0117252Y0067394D01*
X0117293Y0067091D01*
X0117327Y0066787D01*
X0117353Y0066483D01*
X0117372Y0066178D01*
X0117383Y0065873D01*
X0117387Y0065567D01*
X0117383Y0065261D01*
X0117372Y0064956D01*
X0117353Y0064651D01*
X0117327Y0064347D01*
X0117293Y0064043D01*
X0117252Y0063740D01*
X0117204Y0063439D01*
X0117148Y0063138D01*
X0117084Y0062839D01*
X0117014Y0062542D01*
X0116936Y0062246D01*
X0116851Y0061953D01*
X0116759Y0061662D01*
X0116659Y0061373D01*
X0116553Y0061086D01*
X0116439Y0060803D01*
X0116319Y0060522D01*
X0116192Y0060244D01*
X0116058Y0059969D01*
X0115917Y0059698D01*
X0115770Y0059430D01*
X0115616Y0059166D01*
X0115455Y0058906D01*
X0115289Y0058650D01*
X0115116Y0058398D01*
X0114937Y0058151D01*
X0114752Y0057907D01*
X0114561Y0057669D01*
X0114364Y0057435D01*
X0114162Y0057206D01*
X0113954Y0056982D01*
X0113740Y0056764D01*
X0113522Y0056550D01*
X0113298Y0056342D01*
X0113069Y0056140D01*
X0112835Y0055943D01*
X0112597Y0055752D01*
X0112353Y0055567D01*
X0112106Y0055388D01*
X0111854Y0055215D01*
X0111598Y0055049D01*
X0111338Y0054888D01*
X0111074Y0054734D01*
X0110806Y0054587D01*
X0110535Y0054446D01*
X0110260Y0054312D01*
X0109982Y0054185D01*
X0109701Y0054065D01*
X0109418Y0053951D01*
X0109131Y0053845D01*
X0108842Y0053745D01*
X0108551Y0053653D01*
X0108258Y0053568D01*
X0107962Y0053490D01*
X0107665Y0053420D01*
X0107366Y0053356D01*
X0107065Y0053300D01*
X0106764Y0053252D01*
X0106461Y0053211D01*
X0106157Y0053177D01*
X0105853Y0053151D01*
X0105548Y0053132D01*
X0105243Y0053121D01*
X0104937Y0053117D01*
X0104631Y0053121D01*
X0104326Y0053132D01*
X0104021Y0053151D01*
X0103717Y0053177D01*
X0103413Y0053211D01*
X0103110Y0053252D01*
X0102809Y0053300D01*
X0102508Y0053356D01*
X0102209Y0053420D01*
X0101912Y0053490D01*
X0101616Y0053568D01*
X0101323Y0053653D01*
X0101032Y0053745D01*
X0100743Y0053845D01*
X0100456Y0053951D01*
X0100173Y0054065D01*
X0099892Y0054185D01*
X0099614Y0054312D01*
X0099339Y0054446D01*
X0099068Y0054587D01*
X0098800Y0054734D01*
X0098536Y0054888D01*
X0098276Y0055049D01*
X0098020Y0055215D01*
X0097768Y0055388D01*
X0097521Y0055567D01*
X0097277Y0055752D01*
X0097039Y0055943D01*
X0096805Y0056140D01*
X0096576Y0056342D01*
X0096352Y0056550D01*
X0096134Y0056764D01*
X0095920Y0056982D01*
X0095712Y0057206D01*
X0095510Y0057435D01*
X0095313Y0057669D01*
X0095122Y0057907D01*
X0094937Y0058151D01*
X0094758Y0058398D01*
X0094585Y0058650D01*
X0094419Y0058906D01*
X0094258Y0059166D01*
X0094104Y0059430D01*
X0093957Y0059698D01*
X0093816Y0059969D01*
X0093682Y0060244D01*
X0093555Y0060522D01*
X0093435Y0060803D01*
X0093321Y0061086D01*
X0093215Y0061373D01*
X0093115Y0061662D01*
X0093023Y0061953D01*
X0092938Y0062246D01*
X0092860Y0062542D01*
X0092790Y0062839D01*
X0092726Y0063138D01*
X0092670Y0063439D01*
X0092622Y0063740D01*
X0092581Y0064043D01*
X0092547Y0064347D01*
X0092521Y0064651D01*
X0092502Y0064956D01*
X0092491Y0065261D01*
X0092487Y0065567D01*
X0081315Y0059661D02*
X0081315Y0047850D01*
X0122654Y0047850D01*
X0122654Y0066354D01*
X0123047Y0064780D02*
X0131315Y0064780D01*
X0131315Y0066354D01*
X0138815Y0059661D02*
X0138815Y0047850D01*
X0180154Y0047850D01*
X0180154Y0066354D01*
X0151844Y0065567D02*
X0151847Y0065827D01*
X0151857Y0066087D01*
X0151873Y0066346D01*
X0151895Y0066605D01*
X0151924Y0066864D01*
X0151959Y0067121D01*
X0152000Y0067378D01*
X0152048Y0067634D01*
X0152101Y0067888D01*
X0152161Y0068141D01*
X0152228Y0068392D01*
X0152300Y0068642D01*
X0152379Y0068890D01*
X0152463Y0069136D01*
X0152554Y0069379D01*
X0152650Y0069621D01*
X0152753Y0069860D01*
X0152861Y0070096D01*
X0152975Y0070330D01*
X0153095Y0070561D01*
X0153220Y0070788D01*
X0153351Y0071013D01*
X0153487Y0071234D01*
X0153629Y0071452D01*
X0153776Y0071667D01*
X0153929Y0071877D01*
X0154086Y0072084D01*
X0154249Y0072287D01*
X0154416Y0072486D01*
X0154588Y0072681D01*
X0154765Y0072871D01*
X0154947Y0073057D01*
X0155133Y0073239D01*
X0155323Y0073416D01*
X0155518Y0073588D01*
X0155717Y0073755D01*
X0155920Y0073918D01*
X0156127Y0074075D01*
X0156337Y0074228D01*
X0156552Y0074375D01*
X0156770Y0074517D01*
X0156991Y0074653D01*
X0157216Y0074784D01*
X0157443Y0074909D01*
X0157674Y0075029D01*
X0157908Y0075143D01*
X0158144Y0075251D01*
X0158383Y0075354D01*
X0158625Y0075450D01*
X0158868Y0075541D01*
X0159114Y0075625D01*
X0159362Y0075704D01*
X0159612Y0075776D01*
X0159863Y0075843D01*
X0160116Y0075903D01*
X0160370Y0075956D01*
X0160626Y0076004D01*
X0160883Y0076045D01*
X0161140Y0076080D01*
X0161399Y0076109D01*
X0161658Y0076131D01*
X0161917Y0076147D01*
X0162177Y0076157D01*
X0162437Y0076160D01*
X0162697Y0076157D01*
X0162957Y0076147D01*
X0163216Y0076131D01*
X0163475Y0076109D01*
X0163734Y0076080D01*
X0163991Y0076045D01*
X0164248Y0076004D01*
X0164504Y0075956D01*
X0164758Y0075903D01*
X0165011Y0075843D01*
X0165262Y0075776D01*
X0165512Y0075704D01*
X0165760Y0075625D01*
X0166006Y0075541D01*
X0166249Y0075450D01*
X0166491Y0075354D01*
X0166730Y0075251D01*
X0166966Y0075143D01*
X0167200Y0075029D01*
X0167431Y0074909D01*
X0167658Y0074784D01*
X0167883Y0074653D01*
X0168104Y0074517D01*
X0168322Y0074375D01*
X0168537Y0074228D01*
X0168747Y0074075D01*
X0168954Y0073918D01*
X0169157Y0073755D01*
X0169356Y0073588D01*
X0169551Y0073416D01*
X0169741Y0073239D01*
X0169927Y0073057D01*
X0170109Y0072871D01*
X0170286Y0072681D01*
X0170458Y0072486D01*
X0170625Y0072287D01*
X0170788Y0072084D01*
X0170945Y0071877D01*
X0171098Y0071667D01*
X0171245Y0071452D01*
X0171387Y0071234D01*
X0171523Y0071013D01*
X0171654Y0070788D01*
X0171779Y0070561D01*
X0171899Y0070330D01*
X0172013Y0070096D01*
X0172121Y0069860D01*
X0172224Y0069621D01*
X0172320Y0069379D01*
X0172411Y0069136D01*
X0172495Y0068890D01*
X0172574Y0068642D01*
X0172646Y0068392D01*
X0172713Y0068141D01*
X0172773Y0067888D01*
X0172826Y0067634D01*
X0172874Y0067378D01*
X0172915Y0067121D01*
X0172950Y0066864D01*
X0172979Y0066605D01*
X0173001Y0066346D01*
X0173017Y0066087D01*
X0173027Y0065827D01*
X0173030Y0065567D01*
X0173027Y0065307D01*
X0173017Y0065047D01*
X0173001Y0064788D01*
X0172979Y0064529D01*
X0172950Y0064270D01*
X0172915Y0064013D01*
X0172874Y0063756D01*
X0172826Y0063500D01*
X0172773Y0063246D01*
X0172713Y0062993D01*
X0172646Y0062742D01*
X0172574Y0062492D01*
X0172495Y0062244D01*
X0172411Y0061998D01*
X0172320Y0061755D01*
X0172224Y0061513D01*
X0172121Y0061274D01*
X0172013Y0061038D01*
X0171899Y0060804D01*
X0171779Y0060573D01*
X0171654Y0060346D01*
X0171523Y0060121D01*
X0171387Y0059900D01*
X0171245Y0059682D01*
X0171098Y0059467D01*
X0170945Y0059257D01*
X0170788Y0059050D01*
X0170625Y0058847D01*
X0170458Y0058648D01*
X0170286Y0058453D01*
X0170109Y0058263D01*
X0169927Y0058077D01*
X0169741Y0057895D01*
X0169551Y0057718D01*
X0169356Y0057546D01*
X0169157Y0057379D01*
X0168954Y0057216D01*
X0168747Y0057059D01*
X0168537Y0056906D01*
X0168322Y0056759D01*
X0168104Y0056617D01*
X0167883Y0056481D01*
X0167658Y0056350D01*
X0167431Y0056225D01*
X0167200Y0056105D01*
X0166966Y0055991D01*
X0166730Y0055883D01*
X0166491Y0055780D01*
X0166249Y0055684D01*
X0166006Y0055593D01*
X0165760Y0055509D01*
X0165512Y0055430D01*
X0165262Y0055358D01*
X0165011Y0055291D01*
X0164758Y0055231D01*
X0164504Y0055178D01*
X0164248Y0055130D01*
X0163991Y0055089D01*
X0163734Y0055054D01*
X0163475Y0055025D01*
X0163216Y0055003D01*
X0162957Y0054987D01*
X0162697Y0054977D01*
X0162437Y0054974D01*
X0162177Y0054977D01*
X0161917Y0054987D01*
X0161658Y0055003D01*
X0161399Y0055025D01*
X0161140Y0055054D01*
X0160883Y0055089D01*
X0160626Y0055130D01*
X0160370Y0055178D01*
X0160116Y0055231D01*
X0159863Y0055291D01*
X0159612Y0055358D01*
X0159362Y0055430D01*
X0159114Y0055509D01*
X0158868Y0055593D01*
X0158625Y0055684D01*
X0158383Y0055780D01*
X0158144Y0055883D01*
X0157908Y0055991D01*
X0157674Y0056105D01*
X0157443Y0056225D01*
X0157216Y0056350D01*
X0156991Y0056481D01*
X0156770Y0056617D01*
X0156552Y0056759D01*
X0156337Y0056906D01*
X0156127Y0057059D01*
X0155920Y0057216D01*
X0155717Y0057379D01*
X0155518Y0057546D01*
X0155323Y0057718D01*
X0155133Y0057895D01*
X0154947Y0058077D01*
X0154765Y0058263D01*
X0154588Y0058453D01*
X0154416Y0058648D01*
X0154249Y0058847D01*
X0154086Y0059050D01*
X0153929Y0059257D01*
X0153776Y0059467D01*
X0153629Y0059682D01*
X0153487Y0059900D01*
X0153351Y0060121D01*
X0153220Y0060346D01*
X0153095Y0060573D01*
X0152975Y0060804D01*
X0152861Y0061038D01*
X0152753Y0061274D01*
X0152650Y0061513D01*
X0152554Y0061755D01*
X0152463Y0061998D01*
X0152379Y0062244D01*
X0152300Y0062492D01*
X0152228Y0062742D01*
X0152161Y0062993D01*
X0152101Y0063246D01*
X0152048Y0063500D01*
X0152000Y0063756D01*
X0151959Y0064013D01*
X0151924Y0064270D01*
X0151895Y0064529D01*
X0151873Y0064788D01*
X0151857Y0065047D01*
X0151847Y0065307D01*
X0151844Y0065567D01*
X0149987Y0065567D02*
X0149991Y0065873D01*
X0150002Y0066178D01*
X0150021Y0066483D01*
X0150047Y0066787D01*
X0150081Y0067091D01*
X0150122Y0067394D01*
X0150170Y0067695D01*
X0150226Y0067996D01*
X0150290Y0068295D01*
X0150360Y0068592D01*
X0150438Y0068888D01*
X0150523Y0069181D01*
X0150615Y0069472D01*
X0150715Y0069761D01*
X0150821Y0070048D01*
X0150935Y0070331D01*
X0151055Y0070612D01*
X0151182Y0070890D01*
X0151316Y0071165D01*
X0151457Y0071436D01*
X0151604Y0071704D01*
X0151758Y0071968D01*
X0151919Y0072228D01*
X0152085Y0072484D01*
X0152258Y0072736D01*
X0152437Y0072983D01*
X0152622Y0073227D01*
X0152813Y0073465D01*
X0153010Y0073699D01*
X0153212Y0073928D01*
X0153420Y0074152D01*
X0153634Y0074370D01*
X0153852Y0074584D01*
X0154076Y0074792D01*
X0154305Y0074994D01*
X0154539Y0075191D01*
X0154777Y0075382D01*
X0155021Y0075567D01*
X0155268Y0075746D01*
X0155520Y0075919D01*
X0155776Y0076085D01*
X0156036Y0076246D01*
X0156300Y0076400D01*
X0156568Y0076547D01*
X0156839Y0076688D01*
X0157114Y0076822D01*
X0157392Y0076949D01*
X0157673Y0077069D01*
X0157956Y0077183D01*
X0158243Y0077289D01*
X0158532Y0077389D01*
X0158823Y0077481D01*
X0159116Y0077566D01*
X0159412Y0077644D01*
X0159709Y0077714D01*
X0160008Y0077778D01*
X0160309Y0077834D01*
X0160610Y0077882D01*
X0160913Y0077923D01*
X0161217Y0077957D01*
X0161521Y0077983D01*
X0161826Y0078002D01*
X0162131Y0078013D01*
X0162437Y0078017D01*
X0162743Y0078013D01*
X0163048Y0078002D01*
X0163353Y0077983D01*
X0163657Y0077957D01*
X0163961Y0077923D01*
X0164264Y0077882D01*
X0164565Y0077834D01*
X0164866Y0077778D01*
X0165165Y0077714D01*
X0165462Y0077644D01*
X0165758Y0077566D01*
X0166051Y0077481D01*
X0166342Y0077389D01*
X0166631Y0077289D01*
X0166918Y0077183D01*
X0167201Y0077069D01*
X0167482Y0076949D01*
X0167760Y0076822D01*
X0168035Y0076688D01*
X0168306Y0076547D01*
X0168574Y0076400D01*
X0168838Y0076246D01*
X0169098Y0076085D01*
X0169354Y0075919D01*
X0169606Y0075746D01*
X0169853Y0075567D01*
X0170097Y0075382D01*
X0170335Y0075191D01*
X0170569Y0074994D01*
X0170798Y0074792D01*
X0171022Y0074584D01*
X0171240Y0074370D01*
X0171454Y0074152D01*
X0171662Y0073928D01*
X0171864Y0073699D01*
X0172061Y0073465D01*
X0172252Y0073227D01*
X0172437Y0072983D01*
X0172616Y0072736D01*
X0172789Y0072484D01*
X0172955Y0072228D01*
X0173116Y0071968D01*
X0173270Y0071704D01*
X0173417Y0071436D01*
X0173558Y0071165D01*
X0173692Y0070890D01*
X0173819Y0070612D01*
X0173939Y0070331D01*
X0174053Y0070048D01*
X0174159Y0069761D01*
X0174259Y0069472D01*
X0174351Y0069181D01*
X0174436Y0068888D01*
X0174514Y0068592D01*
X0174584Y0068295D01*
X0174648Y0067996D01*
X0174704Y0067695D01*
X0174752Y0067394D01*
X0174793Y0067091D01*
X0174827Y0066787D01*
X0174853Y0066483D01*
X0174872Y0066178D01*
X0174883Y0065873D01*
X0174887Y0065567D01*
X0174883Y0065261D01*
X0174872Y0064956D01*
X0174853Y0064651D01*
X0174827Y0064347D01*
X0174793Y0064043D01*
X0174752Y0063740D01*
X0174704Y0063439D01*
X0174648Y0063138D01*
X0174584Y0062839D01*
X0174514Y0062542D01*
X0174436Y0062246D01*
X0174351Y0061953D01*
X0174259Y0061662D01*
X0174159Y0061373D01*
X0174053Y0061086D01*
X0173939Y0060803D01*
X0173819Y0060522D01*
X0173692Y0060244D01*
X0173558Y0059969D01*
X0173417Y0059698D01*
X0173270Y0059430D01*
X0173116Y0059166D01*
X0172955Y0058906D01*
X0172789Y0058650D01*
X0172616Y0058398D01*
X0172437Y0058151D01*
X0172252Y0057907D01*
X0172061Y0057669D01*
X0171864Y0057435D01*
X0171662Y0057206D01*
X0171454Y0056982D01*
X0171240Y0056764D01*
X0171022Y0056550D01*
X0170798Y0056342D01*
X0170569Y0056140D01*
X0170335Y0055943D01*
X0170097Y0055752D01*
X0169853Y0055567D01*
X0169606Y0055388D01*
X0169354Y0055215D01*
X0169098Y0055049D01*
X0168838Y0054888D01*
X0168574Y0054734D01*
X0168306Y0054587D01*
X0168035Y0054446D01*
X0167760Y0054312D01*
X0167482Y0054185D01*
X0167201Y0054065D01*
X0166918Y0053951D01*
X0166631Y0053845D01*
X0166342Y0053745D01*
X0166051Y0053653D01*
X0165758Y0053568D01*
X0165462Y0053490D01*
X0165165Y0053420D01*
X0164866Y0053356D01*
X0164565Y0053300D01*
X0164264Y0053252D01*
X0163961Y0053211D01*
X0163657Y0053177D01*
X0163353Y0053151D01*
X0163048Y0053132D01*
X0162743Y0053121D01*
X0162437Y0053117D01*
X0162131Y0053121D01*
X0161826Y0053132D01*
X0161521Y0053151D01*
X0161217Y0053177D01*
X0160913Y0053211D01*
X0160610Y0053252D01*
X0160309Y0053300D01*
X0160008Y0053356D01*
X0159709Y0053420D01*
X0159412Y0053490D01*
X0159116Y0053568D01*
X0158823Y0053653D01*
X0158532Y0053745D01*
X0158243Y0053845D01*
X0157956Y0053951D01*
X0157673Y0054065D01*
X0157392Y0054185D01*
X0157114Y0054312D01*
X0156839Y0054446D01*
X0156568Y0054587D01*
X0156300Y0054734D01*
X0156036Y0054888D01*
X0155776Y0055049D01*
X0155520Y0055215D01*
X0155268Y0055388D01*
X0155021Y0055567D01*
X0154777Y0055752D01*
X0154539Y0055943D01*
X0154305Y0056140D01*
X0154076Y0056342D01*
X0153852Y0056550D01*
X0153634Y0056764D01*
X0153420Y0056982D01*
X0153212Y0057206D01*
X0153010Y0057435D01*
X0152813Y0057669D01*
X0152622Y0057907D01*
X0152437Y0058151D01*
X0152258Y0058398D01*
X0152085Y0058650D01*
X0151919Y0058906D01*
X0151758Y0059166D01*
X0151604Y0059430D01*
X0151457Y0059698D01*
X0151316Y0059969D01*
X0151182Y0060244D01*
X0151055Y0060522D01*
X0150935Y0060803D01*
X0150821Y0061086D01*
X0150715Y0061373D01*
X0150615Y0061662D01*
X0150523Y0061953D01*
X0150438Y0062246D01*
X0150360Y0062542D01*
X0150290Y0062839D01*
X0150226Y0063138D01*
X0150170Y0063439D01*
X0150122Y0063740D01*
X0150081Y0064043D01*
X0150047Y0064347D01*
X0150021Y0064651D01*
X0150002Y0064956D01*
X0149991Y0065261D01*
X0149987Y0065567D01*
X0138815Y0087850D02*
X0180154Y0087850D01*
X0180154Y0106354D01*
X0188815Y0106354D01*
X0188815Y0104780D01*
X0180547Y0104780D01*
X0180154Y0106354D02*
X0180154Y0123283D01*
X0138815Y0123283D01*
X0138815Y0111472D01*
X0146689Y0111472D01*
X0146689Y0099661D01*
X0138815Y0099661D01*
X0138815Y0111472D01*
X0131315Y0106354D02*
X0122654Y0106354D01*
X0122654Y0123283D01*
X0081315Y0123283D01*
X0081315Y0111472D01*
X0089189Y0111472D01*
X0089189Y0099661D01*
X0081315Y0099661D01*
X0081315Y0111472D01*
X0094344Y0105567D02*
X0094347Y0105827D01*
X0094357Y0106087D01*
X0094373Y0106346D01*
X0094395Y0106605D01*
X0094424Y0106864D01*
X0094459Y0107121D01*
X0094500Y0107378D01*
X0094548Y0107634D01*
X0094601Y0107888D01*
X0094661Y0108141D01*
X0094728Y0108392D01*
X0094800Y0108642D01*
X0094879Y0108890D01*
X0094963Y0109136D01*
X0095054Y0109379D01*
X0095150Y0109621D01*
X0095253Y0109860D01*
X0095361Y0110096D01*
X0095475Y0110330D01*
X0095595Y0110561D01*
X0095720Y0110788D01*
X0095851Y0111013D01*
X0095987Y0111234D01*
X0096129Y0111452D01*
X0096276Y0111667D01*
X0096429Y0111877D01*
X0096586Y0112084D01*
X0096749Y0112287D01*
X0096916Y0112486D01*
X0097088Y0112681D01*
X0097265Y0112871D01*
X0097447Y0113057D01*
X0097633Y0113239D01*
X0097823Y0113416D01*
X0098018Y0113588D01*
X0098217Y0113755D01*
X0098420Y0113918D01*
X0098627Y0114075D01*
X0098837Y0114228D01*
X0099052Y0114375D01*
X0099270Y0114517D01*
X0099491Y0114653D01*
X0099716Y0114784D01*
X0099943Y0114909D01*
X0100174Y0115029D01*
X0100408Y0115143D01*
X0100644Y0115251D01*
X0100883Y0115354D01*
X0101125Y0115450D01*
X0101368Y0115541D01*
X0101614Y0115625D01*
X0101862Y0115704D01*
X0102112Y0115776D01*
X0102363Y0115843D01*
X0102616Y0115903D01*
X0102870Y0115956D01*
X0103126Y0116004D01*
X0103383Y0116045D01*
X0103640Y0116080D01*
X0103899Y0116109D01*
X0104158Y0116131D01*
X0104417Y0116147D01*
X0104677Y0116157D01*
X0104937Y0116160D01*
X0105197Y0116157D01*
X0105457Y0116147D01*
X0105716Y0116131D01*
X0105975Y0116109D01*
X0106234Y0116080D01*
X0106491Y0116045D01*
X0106748Y0116004D01*
X0107004Y0115956D01*
X0107258Y0115903D01*
X0107511Y0115843D01*
X0107762Y0115776D01*
X0108012Y0115704D01*
X0108260Y0115625D01*
X0108506Y0115541D01*
X0108749Y0115450D01*
X0108991Y0115354D01*
X0109230Y0115251D01*
X0109466Y0115143D01*
X0109700Y0115029D01*
X0109931Y0114909D01*
X0110158Y0114784D01*
X0110383Y0114653D01*
X0110604Y0114517D01*
X0110822Y0114375D01*
X0111037Y0114228D01*
X0111247Y0114075D01*
X0111454Y0113918D01*
X0111657Y0113755D01*
X0111856Y0113588D01*
X0112051Y0113416D01*
X0112241Y0113239D01*
X0112427Y0113057D01*
X0112609Y0112871D01*
X0112786Y0112681D01*
X0112958Y0112486D01*
X0113125Y0112287D01*
X0113288Y0112084D01*
X0113445Y0111877D01*
X0113598Y0111667D01*
X0113745Y0111452D01*
X0113887Y0111234D01*
X0114023Y0111013D01*
X0114154Y0110788D01*
X0114279Y0110561D01*
X0114399Y0110330D01*
X0114513Y0110096D01*
X0114621Y0109860D01*
X0114724Y0109621D01*
X0114820Y0109379D01*
X0114911Y0109136D01*
X0114995Y0108890D01*
X0115074Y0108642D01*
X0115146Y0108392D01*
X0115213Y0108141D01*
X0115273Y0107888D01*
X0115326Y0107634D01*
X0115374Y0107378D01*
X0115415Y0107121D01*
X0115450Y0106864D01*
X0115479Y0106605D01*
X0115501Y0106346D01*
X0115517Y0106087D01*
X0115527Y0105827D01*
X0115530Y0105567D01*
X0115527Y0105307D01*
X0115517Y0105047D01*
X0115501Y0104788D01*
X0115479Y0104529D01*
X0115450Y0104270D01*
X0115415Y0104013D01*
X0115374Y0103756D01*
X0115326Y0103500D01*
X0115273Y0103246D01*
X0115213Y0102993D01*
X0115146Y0102742D01*
X0115074Y0102492D01*
X0114995Y0102244D01*
X0114911Y0101998D01*
X0114820Y0101755D01*
X0114724Y0101513D01*
X0114621Y0101274D01*
X0114513Y0101038D01*
X0114399Y0100804D01*
X0114279Y0100573D01*
X0114154Y0100346D01*
X0114023Y0100121D01*
X0113887Y0099900D01*
X0113745Y0099682D01*
X0113598Y0099467D01*
X0113445Y0099257D01*
X0113288Y0099050D01*
X0113125Y0098847D01*
X0112958Y0098648D01*
X0112786Y0098453D01*
X0112609Y0098263D01*
X0112427Y0098077D01*
X0112241Y0097895D01*
X0112051Y0097718D01*
X0111856Y0097546D01*
X0111657Y0097379D01*
X0111454Y0097216D01*
X0111247Y0097059D01*
X0111037Y0096906D01*
X0110822Y0096759D01*
X0110604Y0096617D01*
X0110383Y0096481D01*
X0110158Y0096350D01*
X0109931Y0096225D01*
X0109700Y0096105D01*
X0109466Y0095991D01*
X0109230Y0095883D01*
X0108991Y0095780D01*
X0108749Y0095684D01*
X0108506Y0095593D01*
X0108260Y0095509D01*
X0108012Y0095430D01*
X0107762Y0095358D01*
X0107511Y0095291D01*
X0107258Y0095231D01*
X0107004Y0095178D01*
X0106748Y0095130D01*
X0106491Y0095089D01*
X0106234Y0095054D01*
X0105975Y0095025D01*
X0105716Y0095003D01*
X0105457Y0094987D01*
X0105197Y0094977D01*
X0104937Y0094974D01*
X0104677Y0094977D01*
X0104417Y0094987D01*
X0104158Y0095003D01*
X0103899Y0095025D01*
X0103640Y0095054D01*
X0103383Y0095089D01*
X0103126Y0095130D01*
X0102870Y0095178D01*
X0102616Y0095231D01*
X0102363Y0095291D01*
X0102112Y0095358D01*
X0101862Y0095430D01*
X0101614Y0095509D01*
X0101368Y0095593D01*
X0101125Y0095684D01*
X0100883Y0095780D01*
X0100644Y0095883D01*
X0100408Y0095991D01*
X0100174Y0096105D01*
X0099943Y0096225D01*
X0099716Y0096350D01*
X0099491Y0096481D01*
X0099270Y0096617D01*
X0099052Y0096759D01*
X0098837Y0096906D01*
X0098627Y0097059D01*
X0098420Y0097216D01*
X0098217Y0097379D01*
X0098018Y0097546D01*
X0097823Y0097718D01*
X0097633Y0097895D01*
X0097447Y0098077D01*
X0097265Y0098263D01*
X0097088Y0098453D01*
X0096916Y0098648D01*
X0096749Y0098847D01*
X0096586Y0099050D01*
X0096429Y0099257D01*
X0096276Y0099467D01*
X0096129Y0099682D01*
X0095987Y0099900D01*
X0095851Y0100121D01*
X0095720Y0100346D01*
X0095595Y0100573D01*
X0095475Y0100804D01*
X0095361Y0101038D01*
X0095253Y0101274D01*
X0095150Y0101513D01*
X0095054Y0101755D01*
X0094963Y0101998D01*
X0094879Y0102244D01*
X0094800Y0102492D01*
X0094728Y0102742D01*
X0094661Y0102993D01*
X0094601Y0103246D01*
X0094548Y0103500D01*
X0094500Y0103756D01*
X0094459Y0104013D01*
X0094424Y0104270D01*
X0094395Y0104529D01*
X0094373Y0104788D01*
X0094357Y0105047D01*
X0094347Y0105307D01*
X0094344Y0105567D01*
X0092487Y0105567D02*
X0092491Y0105873D01*
X0092502Y0106178D01*
X0092521Y0106483D01*
X0092547Y0106787D01*
X0092581Y0107091D01*
X0092622Y0107394D01*
X0092670Y0107695D01*
X0092726Y0107996D01*
X0092790Y0108295D01*
X0092860Y0108592D01*
X0092938Y0108888D01*
X0093023Y0109181D01*
X0093115Y0109472D01*
X0093215Y0109761D01*
X0093321Y0110048D01*
X0093435Y0110331D01*
X0093555Y0110612D01*
X0093682Y0110890D01*
X0093816Y0111165D01*
X0093957Y0111436D01*
X0094104Y0111704D01*
X0094258Y0111968D01*
X0094419Y0112228D01*
X0094585Y0112484D01*
X0094758Y0112736D01*
X0094937Y0112983D01*
X0095122Y0113227D01*
X0095313Y0113465D01*
X0095510Y0113699D01*
X0095712Y0113928D01*
X0095920Y0114152D01*
X0096134Y0114370D01*
X0096352Y0114584D01*
X0096576Y0114792D01*
X0096805Y0114994D01*
X0097039Y0115191D01*
X0097277Y0115382D01*
X0097521Y0115567D01*
X0097768Y0115746D01*
X0098020Y0115919D01*
X0098276Y0116085D01*
X0098536Y0116246D01*
X0098800Y0116400D01*
X0099068Y0116547D01*
X0099339Y0116688D01*
X0099614Y0116822D01*
X0099892Y0116949D01*
X0100173Y0117069D01*
X0100456Y0117183D01*
X0100743Y0117289D01*
X0101032Y0117389D01*
X0101323Y0117481D01*
X0101616Y0117566D01*
X0101912Y0117644D01*
X0102209Y0117714D01*
X0102508Y0117778D01*
X0102809Y0117834D01*
X0103110Y0117882D01*
X0103413Y0117923D01*
X0103717Y0117957D01*
X0104021Y0117983D01*
X0104326Y0118002D01*
X0104631Y0118013D01*
X0104937Y0118017D01*
X0105243Y0118013D01*
X0105548Y0118002D01*
X0105853Y0117983D01*
X0106157Y0117957D01*
X0106461Y0117923D01*
X0106764Y0117882D01*
X0107065Y0117834D01*
X0107366Y0117778D01*
X0107665Y0117714D01*
X0107962Y0117644D01*
X0108258Y0117566D01*
X0108551Y0117481D01*
X0108842Y0117389D01*
X0109131Y0117289D01*
X0109418Y0117183D01*
X0109701Y0117069D01*
X0109982Y0116949D01*
X0110260Y0116822D01*
X0110535Y0116688D01*
X0110806Y0116547D01*
X0111074Y0116400D01*
X0111338Y0116246D01*
X0111598Y0116085D01*
X0111854Y0115919D01*
X0112106Y0115746D01*
X0112353Y0115567D01*
X0112597Y0115382D01*
X0112835Y0115191D01*
X0113069Y0114994D01*
X0113298Y0114792D01*
X0113522Y0114584D01*
X0113740Y0114370D01*
X0113954Y0114152D01*
X0114162Y0113928D01*
X0114364Y0113699D01*
X0114561Y0113465D01*
X0114752Y0113227D01*
X0114937Y0112983D01*
X0115116Y0112736D01*
X0115289Y0112484D01*
X0115455Y0112228D01*
X0115616Y0111968D01*
X0115770Y0111704D01*
X0115917Y0111436D01*
X0116058Y0111165D01*
X0116192Y0110890D01*
X0116319Y0110612D01*
X0116439Y0110331D01*
X0116553Y0110048D01*
X0116659Y0109761D01*
X0116759Y0109472D01*
X0116851Y0109181D01*
X0116936Y0108888D01*
X0117014Y0108592D01*
X0117084Y0108295D01*
X0117148Y0107996D01*
X0117204Y0107695D01*
X0117252Y0107394D01*
X0117293Y0107091D01*
X0117327Y0106787D01*
X0117353Y0106483D01*
X0117372Y0106178D01*
X0117383Y0105873D01*
X0117387Y0105567D01*
X0117383Y0105261D01*
X0117372Y0104956D01*
X0117353Y0104651D01*
X0117327Y0104347D01*
X0117293Y0104043D01*
X0117252Y0103740D01*
X0117204Y0103439D01*
X0117148Y0103138D01*
X0117084Y0102839D01*
X0117014Y0102542D01*
X0116936Y0102246D01*
X0116851Y0101953D01*
X0116759Y0101662D01*
X0116659Y0101373D01*
X0116553Y0101086D01*
X0116439Y0100803D01*
X0116319Y0100522D01*
X0116192Y0100244D01*
X0116058Y0099969D01*
X0115917Y0099698D01*
X0115770Y0099430D01*
X0115616Y0099166D01*
X0115455Y0098906D01*
X0115289Y0098650D01*
X0115116Y0098398D01*
X0114937Y0098151D01*
X0114752Y0097907D01*
X0114561Y0097669D01*
X0114364Y0097435D01*
X0114162Y0097206D01*
X0113954Y0096982D01*
X0113740Y0096764D01*
X0113522Y0096550D01*
X0113298Y0096342D01*
X0113069Y0096140D01*
X0112835Y0095943D01*
X0112597Y0095752D01*
X0112353Y0095567D01*
X0112106Y0095388D01*
X0111854Y0095215D01*
X0111598Y0095049D01*
X0111338Y0094888D01*
X0111074Y0094734D01*
X0110806Y0094587D01*
X0110535Y0094446D01*
X0110260Y0094312D01*
X0109982Y0094185D01*
X0109701Y0094065D01*
X0109418Y0093951D01*
X0109131Y0093845D01*
X0108842Y0093745D01*
X0108551Y0093653D01*
X0108258Y0093568D01*
X0107962Y0093490D01*
X0107665Y0093420D01*
X0107366Y0093356D01*
X0107065Y0093300D01*
X0106764Y0093252D01*
X0106461Y0093211D01*
X0106157Y0093177D01*
X0105853Y0093151D01*
X0105548Y0093132D01*
X0105243Y0093121D01*
X0104937Y0093117D01*
X0104631Y0093121D01*
X0104326Y0093132D01*
X0104021Y0093151D01*
X0103717Y0093177D01*
X0103413Y0093211D01*
X0103110Y0093252D01*
X0102809Y0093300D01*
X0102508Y0093356D01*
X0102209Y0093420D01*
X0101912Y0093490D01*
X0101616Y0093568D01*
X0101323Y0093653D01*
X0101032Y0093745D01*
X0100743Y0093845D01*
X0100456Y0093951D01*
X0100173Y0094065D01*
X0099892Y0094185D01*
X0099614Y0094312D01*
X0099339Y0094446D01*
X0099068Y0094587D01*
X0098800Y0094734D01*
X0098536Y0094888D01*
X0098276Y0095049D01*
X0098020Y0095215D01*
X0097768Y0095388D01*
X0097521Y0095567D01*
X0097277Y0095752D01*
X0097039Y0095943D01*
X0096805Y0096140D01*
X0096576Y0096342D01*
X0096352Y0096550D01*
X0096134Y0096764D01*
X0095920Y0096982D01*
X0095712Y0097206D01*
X0095510Y0097435D01*
X0095313Y0097669D01*
X0095122Y0097907D01*
X0094937Y0098151D01*
X0094758Y0098398D01*
X0094585Y0098650D01*
X0094419Y0098906D01*
X0094258Y0099166D01*
X0094104Y0099430D01*
X0093957Y0099698D01*
X0093816Y0099969D01*
X0093682Y0100244D01*
X0093555Y0100522D01*
X0093435Y0100803D01*
X0093321Y0101086D01*
X0093215Y0101373D01*
X0093115Y0101662D01*
X0093023Y0101953D01*
X0092938Y0102246D01*
X0092860Y0102542D01*
X0092790Y0102839D01*
X0092726Y0103138D01*
X0092670Y0103439D01*
X0092622Y0103740D01*
X0092581Y0104043D01*
X0092547Y0104347D01*
X0092521Y0104651D01*
X0092502Y0104956D01*
X0092491Y0105261D01*
X0092487Y0105567D01*
X0081315Y0099661D02*
X0081315Y0087850D01*
X0122654Y0087850D01*
X0122654Y0106354D01*
X0123047Y0104780D02*
X0131315Y0104780D01*
X0131315Y0106354D01*
X0138815Y0099661D02*
X0138815Y0087850D01*
X0151844Y0105567D02*
X0151847Y0105827D01*
X0151857Y0106087D01*
X0151873Y0106346D01*
X0151895Y0106605D01*
X0151924Y0106864D01*
X0151959Y0107121D01*
X0152000Y0107378D01*
X0152048Y0107634D01*
X0152101Y0107888D01*
X0152161Y0108141D01*
X0152228Y0108392D01*
X0152300Y0108642D01*
X0152379Y0108890D01*
X0152463Y0109136D01*
X0152554Y0109379D01*
X0152650Y0109621D01*
X0152753Y0109860D01*
X0152861Y0110096D01*
X0152975Y0110330D01*
X0153095Y0110561D01*
X0153220Y0110788D01*
X0153351Y0111013D01*
X0153487Y0111234D01*
X0153629Y0111452D01*
X0153776Y0111667D01*
X0153929Y0111877D01*
X0154086Y0112084D01*
X0154249Y0112287D01*
X0154416Y0112486D01*
X0154588Y0112681D01*
X0154765Y0112871D01*
X0154947Y0113057D01*
X0155133Y0113239D01*
X0155323Y0113416D01*
X0155518Y0113588D01*
X0155717Y0113755D01*
X0155920Y0113918D01*
X0156127Y0114075D01*
X0156337Y0114228D01*
X0156552Y0114375D01*
X0156770Y0114517D01*
X0156991Y0114653D01*
X0157216Y0114784D01*
X0157443Y0114909D01*
X0157674Y0115029D01*
X0157908Y0115143D01*
X0158144Y0115251D01*
X0158383Y0115354D01*
X0158625Y0115450D01*
X0158868Y0115541D01*
X0159114Y0115625D01*
X0159362Y0115704D01*
X0159612Y0115776D01*
X0159863Y0115843D01*
X0160116Y0115903D01*
X0160370Y0115956D01*
X0160626Y0116004D01*
X0160883Y0116045D01*
X0161140Y0116080D01*
X0161399Y0116109D01*
X0161658Y0116131D01*
X0161917Y0116147D01*
X0162177Y0116157D01*
X0162437Y0116160D01*
X0162697Y0116157D01*
X0162957Y0116147D01*
X0163216Y0116131D01*
X0163475Y0116109D01*
X0163734Y0116080D01*
X0163991Y0116045D01*
X0164248Y0116004D01*
X0164504Y0115956D01*
X0164758Y0115903D01*
X0165011Y0115843D01*
X0165262Y0115776D01*
X0165512Y0115704D01*
X0165760Y0115625D01*
X0166006Y0115541D01*
X0166249Y0115450D01*
X0166491Y0115354D01*
X0166730Y0115251D01*
X0166966Y0115143D01*
X0167200Y0115029D01*
X0167431Y0114909D01*
X0167658Y0114784D01*
X0167883Y0114653D01*
X0168104Y0114517D01*
X0168322Y0114375D01*
X0168537Y0114228D01*
X0168747Y0114075D01*
X0168954Y0113918D01*
X0169157Y0113755D01*
X0169356Y0113588D01*
X0169551Y0113416D01*
X0169741Y0113239D01*
X0169927Y0113057D01*
X0170109Y0112871D01*
X0170286Y0112681D01*
X0170458Y0112486D01*
X0170625Y0112287D01*
X0170788Y0112084D01*
X0170945Y0111877D01*
X0171098Y0111667D01*
X0171245Y0111452D01*
X0171387Y0111234D01*
X0171523Y0111013D01*
X0171654Y0110788D01*
X0171779Y0110561D01*
X0171899Y0110330D01*
X0172013Y0110096D01*
X0172121Y0109860D01*
X0172224Y0109621D01*
X0172320Y0109379D01*
X0172411Y0109136D01*
X0172495Y0108890D01*
X0172574Y0108642D01*
X0172646Y0108392D01*
X0172713Y0108141D01*
X0172773Y0107888D01*
X0172826Y0107634D01*
X0172874Y0107378D01*
X0172915Y0107121D01*
X0172950Y0106864D01*
X0172979Y0106605D01*
X0173001Y0106346D01*
X0173017Y0106087D01*
X0173027Y0105827D01*
X0173030Y0105567D01*
X0173027Y0105307D01*
X0173017Y0105047D01*
X0173001Y0104788D01*
X0172979Y0104529D01*
X0172950Y0104270D01*
X0172915Y0104013D01*
X0172874Y0103756D01*
X0172826Y0103500D01*
X0172773Y0103246D01*
X0172713Y0102993D01*
X0172646Y0102742D01*
X0172574Y0102492D01*
X0172495Y0102244D01*
X0172411Y0101998D01*
X0172320Y0101755D01*
X0172224Y0101513D01*
X0172121Y0101274D01*
X0172013Y0101038D01*
X0171899Y0100804D01*
X0171779Y0100573D01*
X0171654Y0100346D01*
X0171523Y0100121D01*
X0171387Y0099900D01*
X0171245Y0099682D01*
X0171098Y0099467D01*
X0170945Y0099257D01*
X0170788Y0099050D01*
X0170625Y0098847D01*
X0170458Y0098648D01*
X0170286Y0098453D01*
X0170109Y0098263D01*
X0169927Y0098077D01*
X0169741Y0097895D01*
X0169551Y0097718D01*
X0169356Y0097546D01*
X0169157Y0097379D01*
X0168954Y0097216D01*
X0168747Y0097059D01*
X0168537Y0096906D01*
X0168322Y0096759D01*
X0168104Y0096617D01*
X0167883Y0096481D01*
X0167658Y0096350D01*
X0167431Y0096225D01*
X0167200Y0096105D01*
X0166966Y0095991D01*
X0166730Y0095883D01*
X0166491Y0095780D01*
X0166249Y0095684D01*
X0166006Y0095593D01*
X0165760Y0095509D01*
X0165512Y0095430D01*
X0165262Y0095358D01*
X0165011Y0095291D01*
X0164758Y0095231D01*
X0164504Y0095178D01*
X0164248Y0095130D01*
X0163991Y0095089D01*
X0163734Y0095054D01*
X0163475Y0095025D01*
X0163216Y0095003D01*
X0162957Y0094987D01*
X0162697Y0094977D01*
X0162437Y0094974D01*
X0162177Y0094977D01*
X0161917Y0094987D01*
X0161658Y0095003D01*
X0161399Y0095025D01*
X0161140Y0095054D01*
X0160883Y0095089D01*
X0160626Y0095130D01*
X0160370Y0095178D01*
X0160116Y0095231D01*
X0159863Y0095291D01*
X0159612Y0095358D01*
X0159362Y0095430D01*
X0159114Y0095509D01*
X0158868Y0095593D01*
X0158625Y0095684D01*
X0158383Y0095780D01*
X0158144Y0095883D01*
X0157908Y0095991D01*
X0157674Y0096105D01*
X0157443Y0096225D01*
X0157216Y0096350D01*
X0156991Y0096481D01*
X0156770Y0096617D01*
X0156552Y0096759D01*
X0156337Y0096906D01*
X0156127Y0097059D01*
X0155920Y0097216D01*
X0155717Y0097379D01*
X0155518Y0097546D01*
X0155323Y0097718D01*
X0155133Y0097895D01*
X0154947Y0098077D01*
X0154765Y0098263D01*
X0154588Y0098453D01*
X0154416Y0098648D01*
X0154249Y0098847D01*
X0154086Y0099050D01*
X0153929Y0099257D01*
X0153776Y0099467D01*
X0153629Y0099682D01*
X0153487Y0099900D01*
X0153351Y0100121D01*
X0153220Y0100346D01*
X0153095Y0100573D01*
X0152975Y0100804D01*
X0152861Y0101038D01*
X0152753Y0101274D01*
X0152650Y0101513D01*
X0152554Y0101755D01*
X0152463Y0101998D01*
X0152379Y0102244D01*
X0152300Y0102492D01*
X0152228Y0102742D01*
X0152161Y0102993D01*
X0152101Y0103246D01*
X0152048Y0103500D01*
X0152000Y0103756D01*
X0151959Y0104013D01*
X0151924Y0104270D01*
X0151895Y0104529D01*
X0151873Y0104788D01*
X0151857Y0105047D01*
X0151847Y0105307D01*
X0151844Y0105567D01*
X0149987Y0105567D02*
X0149991Y0105873D01*
X0150002Y0106178D01*
X0150021Y0106483D01*
X0150047Y0106787D01*
X0150081Y0107091D01*
X0150122Y0107394D01*
X0150170Y0107695D01*
X0150226Y0107996D01*
X0150290Y0108295D01*
X0150360Y0108592D01*
X0150438Y0108888D01*
X0150523Y0109181D01*
X0150615Y0109472D01*
X0150715Y0109761D01*
X0150821Y0110048D01*
X0150935Y0110331D01*
X0151055Y0110612D01*
X0151182Y0110890D01*
X0151316Y0111165D01*
X0151457Y0111436D01*
X0151604Y0111704D01*
X0151758Y0111968D01*
X0151919Y0112228D01*
X0152085Y0112484D01*
X0152258Y0112736D01*
X0152437Y0112983D01*
X0152622Y0113227D01*
X0152813Y0113465D01*
X0153010Y0113699D01*
X0153212Y0113928D01*
X0153420Y0114152D01*
X0153634Y0114370D01*
X0153852Y0114584D01*
X0154076Y0114792D01*
X0154305Y0114994D01*
X0154539Y0115191D01*
X0154777Y0115382D01*
X0155021Y0115567D01*
X0155268Y0115746D01*
X0155520Y0115919D01*
X0155776Y0116085D01*
X0156036Y0116246D01*
X0156300Y0116400D01*
X0156568Y0116547D01*
X0156839Y0116688D01*
X0157114Y0116822D01*
X0157392Y0116949D01*
X0157673Y0117069D01*
X0157956Y0117183D01*
X0158243Y0117289D01*
X0158532Y0117389D01*
X0158823Y0117481D01*
X0159116Y0117566D01*
X0159412Y0117644D01*
X0159709Y0117714D01*
X0160008Y0117778D01*
X0160309Y0117834D01*
X0160610Y0117882D01*
X0160913Y0117923D01*
X0161217Y0117957D01*
X0161521Y0117983D01*
X0161826Y0118002D01*
X0162131Y0118013D01*
X0162437Y0118017D01*
X0162743Y0118013D01*
X0163048Y0118002D01*
X0163353Y0117983D01*
X0163657Y0117957D01*
X0163961Y0117923D01*
X0164264Y0117882D01*
X0164565Y0117834D01*
X0164866Y0117778D01*
X0165165Y0117714D01*
X0165462Y0117644D01*
X0165758Y0117566D01*
X0166051Y0117481D01*
X0166342Y0117389D01*
X0166631Y0117289D01*
X0166918Y0117183D01*
X0167201Y0117069D01*
X0167482Y0116949D01*
X0167760Y0116822D01*
X0168035Y0116688D01*
X0168306Y0116547D01*
X0168574Y0116400D01*
X0168838Y0116246D01*
X0169098Y0116085D01*
X0169354Y0115919D01*
X0169606Y0115746D01*
X0169853Y0115567D01*
X0170097Y0115382D01*
X0170335Y0115191D01*
X0170569Y0114994D01*
X0170798Y0114792D01*
X0171022Y0114584D01*
X0171240Y0114370D01*
X0171454Y0114152D01*
X0171662Y0113928D01*
X0171864Y0113699D01*
X0172061Y0113465D01*
X0172252Y0113227D01*
X0172437Y0112983D01*
X0172616Y0112736D01*
X0172789Y0112484D01*
X0172955Y0112228D01*
X0173116Y0111968D01*
X0173270Y0111704D01*
X0173417Y0111436D01*
X0173558Y0111165D01*
X0173692Y0110890D01*
X0173819Y0110612D01*
X0173939Y0110331D01*
X0174053Y0110048D01*
X0174159Y0109761D01*
X0174259Y0109472D01*
X0174351Y0109181D01*
X0174436Y0108888D01*
X0174514Y0108592D01*
X0174584Y0108295D01*
X0174648Y0107996D01*
X0174704Y0107695D01*
X0174752Y0107394D01*
X0174793Y0107091D01*
X0174827Y0106787D01*
X0174853Y0106483D01*
X0174872Y0106178D01*
X0174883Y0105873D01*
X0174887Y0105567D01*
X0174883Y0105261D01*
X0174872Y0104956D01*
X0174853Y0104651D01*
X0174827Y0104347D01*
X0174793Y0104043D01*
X0174752Y0103740D01*
X0174704Y0103439D01*
X0174648Y0103138D01*
X0174584Y0102839D01*
X0174514Y0102542D01*
X0174436Y0102246D01*
X0174351Y0101953D01*
X0174259Y0101662D01*
X0174159Y0101373D01*
X0174053Y0101086D01*
X0173939Y0100803D01*
X0173819Y0100522D01*
X0173692Y0100244D01*
X0173558Y0099969D01*
X0173417Y0099698D01*
X0173270Y0099430D01*
X0173116Y0099166D01*
X0172955Y0098906D01*
X0172789Y0098650D01*
X0172616Y0098398D01*
X0172437Y0098151D01*
X0172252Y0097907D01*
X0172061Y0097669D01*
X0171864Y0097435D01*
X0171662Y0097206D01*
X0171454Y0096982D01*
X0171240Y0096764D01*
X0171022Y0096550D01*
X0170798Y0096342D01*
X0170569Y0096140D01*
X0170335Y0095943D01*
X0170097Y0095752D01*
X0169853Y0095567D01*
X0169606Y0095388D01*
X0169354Y0095215D01*
X0169098Y0095049D01*
X0168838Y0094888D01*
X0168574Y0094734D01*
X0168306Y0094587D01*
X0168035Y0094446D01*
X0167760Y0094312D01*
X0167482Y0094185D01*
X0167201Y0094065D01*
X0166918Y0093951D01*
X0166631Y0093845D01*
X0166342Y0093745D01*
X0166051Y0093653D01*
X0165758Y0093568D01*
X0165462Y0093490D01*
X0165165Y0093420D01*
X0164866Y0093356D01*
X0164565Y0093300D01*
X0164264Y0093252D01*
X0163961Y0093211D01*
X0163657Y0093177D01*
X0163353Y0093151D01*
X0163048Y0093132D01*
X0162743Y0093121D01*
X0162437Y0093117D01*
X0162131Y0093121D01*
X0161826Y0093132D01*
X0161521Y0093151D01*
X0161217Y0093177D01*
X0160913Y0093211D01*
X0160610Y0093252D01*
X0160309Y0093300D01*
X0160008Y0093356D01*
X0159709Y0093420D01*
X0159412Y0093490D01*
X0159116Y0093568D01*
X0158823Y0093653D01*
X0158532Y0093745D01*
X0158243Y0093845D01*
X0157956Y0093951D01*
X0157673Y0094065D01*
X0157392Y0094185D01*
X0157114Y0094312D01*
X0156839Y0094446D01*
X0156568Y0094587D01*
X0156300Y0094734D01*
X0156036Y0094888D01*
X0155776Y0095049D01*
X0155520Y0095215D01*
X0155268Y0095388D01*
X0155021Y0095567D01*
X0154777Y0095752D01*
X0154539Y0095943D01*
X0154305Y0096140D01*
X0154076Y0096342D01*
X0153852Y0096550D01*
X0153634Y0096764D01*
X0153420Y0096982D01*
X0153212Y0097206D01*
X0153010Y0097435D01*
X0152813Y0097669D01*
X0152622Y0097907D01*
X0152437Y0098151D01*
X0152258Y0098398D01*
X0152085Y0098650D01*
X0151919Y0098906D01*
X0151758Y0099166D01*
X0151604Y0099430D01*
X0151457Y0099698D01*
X0151316Y0099969D01*
X0151182Y0100244D01*
X0151055Y0100522D01*
X0150935Y0100803D01*
X0150821Y0101086D01*
X0150715Y0101373D01*
X0150615Y0101662D01*
X0150523Y0101953D01*
X0150438Y0102246D01*
X0150360Y0102542D01*
X0150290Y0102839D01*
X0150226Y0103138D01*
X0150170Y0103439D01*
X0150122Y0103740D01*
X0150081Y0104043D01*
X0150047Y0104347D01*
X0150021Y0104651D01*
X0150002Y0104956D01*
X0149991Y0105261D01*
X0149987Y0105567D01*
D15*
X0194331Y0102398D02*
X0200937Y0102398D01*
X0200997Y0102396D01*
X0201058Y0102391D01*
X0201117Y0102382D01*
X0201176Y0102369D01*
X0201235Y0102353D01*
X0201292Y0102333D01*
X0201347Y0102310D01*
X0201402Y0102283D01*
X0201454Y0102254D01*
X0201505Y0102221D01*
X0201554Y0102185D01*
X0201600Y0102147D01*
X0201644Y0102105D01*
X0201686Y0102061D01*
X0201724Y0102015D01*
X0201760Y0101966D01*
X0201793Y0101915D01*
X0201822Y0101863D01*
X0201849Y0101808D01*
X0201872Y0101753D01*
X0201892Y0101696D01*
X0201908Y0101637D01*
X0201921Y0101578D01*
X0201930Y0101519D01*
X0201935Y0101458D01*
X0201937Y0101398D01*
X0203331Y0101398D02*
X0203333Y0101458D01*
X0203338Y0101519D01*
X0203347Y0101578D01*
X0203360Y0101637D01*
X0203376Y0101696D01*
X0203396Y0101753D01*
X0203419Y0101808D01*
X0203446Y0101863D01*
X0203475Y0101915D01*
X0203508Y0101966D01*
X0203544Y0102015D01*
X0203582Y0102061D01*
X0203624Y0102105D01*
X0203668Y0102147D01*
X0203714Y0102185D01*
X0203763Y0102221D01*
X0203814Y0102254D01*
X0203866Y0102283D01*
X0203921Y0102310D01*
X0203976Y0102333D01*
X0204033Y0102353D01*
X0204092Y0102369D01*
X0204151Y0102382D01*
X0204210Y0102391D01*
X0204271Y0102396D01*
X0204331Y0102398D01*
X0210937Y0102398D01*
X0210997Y0102396D01*
X0211058Y0102391D01*
X0211117Y0102382D01*
X0211176Y0102369D01*
X0211235Y0102353D01*
X0211292Y0102333D01*
X0211347Y0102310D01*
X0211402Y0102283D01*
X0211454Y0102254D01*
X0211505Y0102221D01*
X0211554Y0102185D01*
X0211600Y0102147D01*
X0211644Y0102105D01*
X0211686Y0102061D01*
X0211724Y0102015D01*
X0211760Y0101966D01*
X0211793Y0101915D01*
X0211822Y0101863D01*
X0211849Y0101808D01*
X0211872Y0101753D01*
X0211892Y0101696D01*
X0211908Y0101637D01*
X0211921Y0101578D01*
X0211930Y0101519D01*
X0211935Y0101458D01*
X0211937Y0101398D01*
X0194331Y0102398D02*
X0194271Y0102396D01*
X0194210Y0102391D01*
X0194151Y0102382D01*
X0194092Y0102369D01*
X0194033Y0102353D01*
X0193976Y0102333D01*
X0193921Y0102310D01*
X0193866Y0102283D01*
X0193814Y0102254D01*
X0193763Y0102221D01*
X0193714Y0102185D01*
X0193668Y0102147D01*
X0193624Y0102105D01*
X0193582Y0102061D01*
X0193544Y0102015D01*
X0193508Y0101966D01*
X0193475Y0101915D01*
X0193446Y0101863D01*
X0193419Y0101808D01*
X0193396Y0101753D01*
X0193376Y0101696D01*
X0193360Y0101637D01*
X0193347Y0101578D01*
X0193338Y0101519D01*
X0193333Y0101458D01*
X0193331Y0101398D01*
X0197799Y0091740D02*
X0199467Y0091740D01*
X0200301Y0090906D01*
X0200301Y0088404D01*
X0201969Y0088404D02*
X0196965Y0088404D01*
X0196965Y0090906D01*
X0197799Y0091740D01*
X0200301Y0090072D02*
X0201969Y0091740D01*
X0208633Y0090906D02*
X0210301Y0088404D01*
X0211969Y0090906D01*
X0213937Y0091567D02*
X0220937Y0091567D01*
X0220937Y0079567D01*
X0213937Y0079567D01*
X0213937Y0091567D01*
X0211969Y0088404D02*
X0206965Y0088404D01*
X0207799Y0086584D02*
X0211135Y0083247D01*
X0211969Y0084082D01*
X0211969Y0085750D01*
X0211135Y0086584D01*
X0207799Y0086584D01*
X0206965Y0085750D01*
X0206965Y0084082D01*
X0207799Y0083247D01*
X0211135Y0083247D01*
X0211135Y0081427D02*
X0207799Y0081427D01*
X0211135Y0078091D01*
X0211969Y0078925D01*
X0211969Y0080593D01*
X0211135Y0081427D01*
X0207799Y0081427D02*
X0206965Y0080593D01*
X0206965Y0078925D01*
X0207799Y0078091D01*
X0211135Y0078091D01*
X0211969Y0076271D02*
X0211969Y0072935D01*
X0211969Y0074603D02*
X0206965Y0074603D01*
X0208633Y0072935D01*
X0201969Y0072935D02*
X0198633Y0076271D01*
X0197799Y0076271D01*
X0196965Y0075437D01*
X0196965Y0073769D01*
X0197799Y0072935D01*
X0201969Y0072935D02*
X0201969Y0076271D01*
X0201969Y0078091D02*
X0198633Y0081427D01*
X0197799Y0081427D01*
X0196965Y0080593D01*
X0196965Y0078925D01*
X0197799Y0078091D01*
X0201969Y0078091D02*
X0201969Y0081427D01*
X0201135Y0083247D02*
X0197799Y0083247D01*
X0196965Y0084082D01*
X0196965Y0085750D01*
X0197799Y0086584D01*
X0201135Y0083247D01*
X0201969Y0084082D01*
X0201969Y0085750D01*
X0201135Y0086584D01*
X0197799Y0086584D01*
X0215437Y0086067D02*
X0217437Y0086067D01*
X0219437Y0086067D01*
X0217437Y0086067D02*
X0219437Y0082067D01*
X0215437Y0082067D01*
X0217437Y0086067D01*
X0217437Y0080567D01*
X0221437Y0079567D02*
X0228437Y0079567D01*
X0228437Y0091567D01*
X0221437Y0091567D01*
X0221437Y0079567D01*
X0224937Y0083567D02*
X0224937Y0085067D01*
X0226937Y0085067D01*
X0224937Y0085067D02*
X0222937Y0085067D01*
X0224937Y0085067D02*
X0222937Y0089067D01*
X0226937Y0089067D01*
X0224937Y0085067D01*
X0224937Y0090567D01*
X0217437Y0087567D02*
X0217437Y0086067D01*
X0211937Y0069992D02*
X0211935Y0069932D01*
X0211930Y0069871D01*
X0211921Y0069812D01*
X0211908Y0069753D01*
X0211892Y0069694D01*
X0211872Y0069637D01*
X0211849Y0069582D01*
X0211822Y0069527D01*
X0211793Y0069475D01*
X0211760Y0069424D01*
X0211724Y0069375D01*
X0211686Y0069329D01*
X0211644Y0069285D01*
X0211600Y0069243D01*
X0211554Y0069205D01*
X0211505Y0069169D01*
X0211454Y0069136D01*
X0211402Y0069107D01*
X0211347Y0069080D01*
X0211292Y0069057D01*
X0211235Y0069037D01*
X0211176Y0069021D01*
X0211117Y0069008D01*
X0211058Y0068999D01*
X0210997Y0068994D01*
X0210937Y0068992D01*
X0203937Y0068992D01*
X0203877Y0068994D01*
X0203816Y0068999D01*
X0203757Y0069008D01*
X0203698Y0069021D01*
X0203639Y0069037D01*
X0203582Y0069057D01*
X0203527Y0069080D01*
X0203472Y0069107D01*
X0203420Y0069136D01*
X0203369Y0069169D01*
X0203320Y0069205D01*
X0203274Y0069243D01*
X0203230Y0069285D01*
X0203188Y0069329D01*
X0203150Y0069375D01*
X0203114Y0069424D01*
X0203081Y0069475D01*
X0203052Y0069527D01*
X0203025Y0069582D01*
X0203002Y0069637D01*
X0202982Y0069694D01*
X0202966Y0069753D01*
X0202953Y0069812D01*
X0202944Y0069871D01*
X0202939Y0069932D01*
X0202937Y0069992D01*
X0201937Y0069992D02*
X0201935Y0069932D01*
X0201930Y0069871D01*
X0201921Y0069812D01*
X0201908Y0069753D01*
X0201892Y0069694D01*
X0201872Y0069637D01*
X0201849Y0069582D01*
X0201822Y0069527D01*
X0201793Y0069475D01*
X0201760Y0069424D01*
X0201724Y0069375D01*
X0201686Y0069329D01*
X0201644Y0069285D01*
X0201600Y0069243D01*
X0201554Y0069205D01*
X0201505Y0069169D01*
X0201454Y0069136D01*
X0201402Y0069107D01*
X0201347Y0069080D01*
X0201292Y0069057D01*
X0201235Y0069037D01*
X0201176Y0069021D01*
X0201117Y0069008D01*
X0201058Y0068999D01*
X0200997Y0068994D01*
X0200937Y0068992D01*
X0193937Y0068992D01*
X0193877Y0068994D01*
X0193816Y0068999D01*
X0193757Y0069008D01*
X0193698Y0069021D01*
X0193639Y0069037D01*
X0193582Y0069057D01*
X0193527Y0069080D01*
X0193472Y0069107D01*
X0193420Y0069136D01*
X0193369Y0069169D01*
X0193320Y0069205D01*
X0193274Y0069243D01*
X0193230Y0069285D01*
X0193188Y0069329D01*
X0193150Y0069375D01*
X0193114Y0069424D01*
X0193081Y0069475D01*
X0193052Y0069527D01*
X0193025Y0069582D01*
X0193002Y0069637D01*
X0192982Y0069694D01*
X0192966Y0069753D01*
X0192953Y0069812D01*
X0192944Y0069871D01*
X0192939Y0069932D01*
X0192937Y0069992D01*
X0191862Y0060067D02*
X0191802Y0060065D01*
X0191741Y0060060D01*
X0191682Y0060051D01*
X0191623Y0060038D01*
X0191564Y0060022D01*
X0191507Y0060002D01*
X0191452Y0059979D01*
X0191397Y0059952D01*
X0191345Y0059923D01*
X0191294Y0059890D01*
X0191245Y0059854D01*
X0191199Y0059816D01*
X0191155Y0059774D01*
X0191113Y0059730D01*
X0191075Y0059684D01*
X0191039Y0059635D01*
X0191006Y0059584D01*
X0190977Y0059532D01*
X0190950Y0059477D01*
X0190927Y0059422D01*
X0190907Y0059365D01*
X0190891Y0059306D01*
X0190878Y0059247D01*
X0190869Y0059188D01*
X0190864Y0059127D01*
X0190862Y0059067D01*
X0190862Y0052067D01*
X0190864Y0052007D01*
X0190869Y0051946D01*
X0190878Y0051887D01*
X0190891Y0051828D01*
X0190907Y0051769D01*
X0190927Y0051712D01*
X0190950Y0051657D01*
X0190977Y0051602D01*
X0191006Y0051550D01*
X0191039Y0051499D01*
X0191075Y0051450D01*
X0191113Y0051404D01*
X0191155Y0051360D01*
X0191199Y0051318D01*
X0191245Y0051280D01*
X0191294Y0051244D01*
X0191345Y0051211D01*
X0191397Y0051182D01*
X0191452Y0051155D01*
X0191507Y0051132D01*
X0191564Y0051112D01*
X0191623Y0051096D01*
X0191682Y0051083D01*
X0191741Y0051074D01*
X0191802Y0051069D01*
X0191862Y0051067D01*
X0194805Y0051035D02*
X0198141Y0051035D01*
X0196473Y0051035D02*
X0196473Y0056039D01*
X0194805Y0054371D01*
X0199961Y0055205D02*
X0199961Y0051869D01*
X0203297Y0055205D01*
X0203297Y0051869D01*
X0202463Y0051035D01*
X0200795Y0051035D01*
X0199961Y0051869D01*
X0205118Y0051035D02*
X0205118Y0056039D01*
X0203297Y0055205D02*
X0202463Y0056039D01*
X0200795Y0056039D01*
X0199961Y0055205D01*
X0205118Y0052703D02*
X0207620Y0054371D01*
X0205118Y0052703D02*
X0207620Y0051035D01*
X0223268Y0051067D02*
X0223328Y0051069D01*
X0223389Y0051074D01*
X0223448Y0051083D01*
X0223507Y0051096D01*
X0223566Y0051112D01*
X0223623Y0051132D01*
X0223678Y0051155D01*
X0223733Y0051182D01*
X0223785Y0051211D01*
X0223836Y0051244D01*
X0223885Y0051280D01*
X0223931Y0051318D01*
X0223975Y0051360D01*
X0224017Y0051404D01*
X0224055Y0051450D01*
X0224091Y0051499D01*
X0224124Y0051550D01*
X0224153Y0051602D01*
X0224180Y0051657D01*
X0224203Y0051712D01*
X0224223Y0051769D01*
X0224239Y0051828D01*
X0224252Y0051887D01*
X0224261Y0051946D01*
X0224266Y0052007D01*
X0224268Y0052067D01*
X0224268Y0058673D01*
X0224266Y0058733D01*
X0224261Y0058794D01*
X0224252Y0058853D01*
X0224239Y0058912D01*
X0224223Y0058971D01*
X0224203Y0059028D01*
X0224180Y0059083D01*
X0224153Y0059138D01*
X0224124Y0059190D01*
X0224091Y0059241D01*
X0224055Y0059290D01*
X0224017Y0059336D01*
X0223975Y0059380D01*
X0223931Y0059422D01*
X0223885Y0059460D01*
X0223836Y0059496D01*
X0223785Y0059529D01*
X0223733Y0059558D01*
X0223678Y0059585D01*
X0223623Y0059608D01*
X0223566Y0059628D01*
X0223507Y0059644D01*
X0223448Y0059657D01*
X0223389Y0059666D01*
X0223328Y0059671D01*
X0223268Y0059673D01*
X0293937Y0068992D02*
X0300937Y0068992D01*
X0300997Y0068994D01*
X0301058Y0068999D01*
X0301117Y0069008D01*
X0301176Y0069021D01*
X0301235Y0069037D01*
X0301292Y0069057D01*
X0301347Y0069080D01*
X0301402Y0069107D01*
X0301454Y0069136D01*
X0301505Y0069169D01*
X0301554Y0069205D01*
X0301600Y0069243D01*
X0301644Y0069285D01*
X0301686Y0069329D01*
X0301724Y0069375D01*
X0301760Y0069424D01*
X0301793Y0069475D01*
X0301822Y0069527D01*
X0301849Y0069582D01*
X0301872Y0069637D01*
X0301892Y0069694D01*
X0301908Y0069753D01*
X0301921Y0069812D01*
X0301930Y0069871D01*
X0301935Y0069932D01*
X0301937Y0069992D01*
X0302937Y0069992D02*
X0302939Y0069932D01*
X0302944Y0069871D01*
X0302953Y0069812D01*
X0302966Y0069753D01*
X0302982Y0069694D01*
X0303002Y0069637D01*
X0303025Y0069582D01*
X0303052Y0069527D01*
X0303081Y0069475D01*
X0303114Y0069424D01*
X0303150Y0069375D01*
X0303188Y0069329D01*
X0303230Y0069285D01*
X0303274Y0069243D01*
X0303320Y0069205D01*
X0303369Y0069169D01*
X0303420Y0069136D01*
X0303472Y0069107D01*
X0303527Y0069080D01*
X0303582Y0069057D01*
X0303639Y0069037D01*
X0303698Y0069021D01*
X0303757Y0069008D01*
X0303816Y0068999D01*
X0303877Y0068994D01*
X0303937Y0068992D01*
X0310937Y0068992D01*
X0310997Y0068994D01*
X0311058Y0068999D01*
X0311117Y0069008D01*
X0311176Y0069021D01*
X0311235Y0069037D01*
X0311292Y0069057D01*
X0311347Y0069080D01*
X0311402Y0069107D01*
X0311454Y0069136D01*
X0311505Y0069169D01*
X0311554Y0069205D01*
X0311600Y0069243D01*
X0311644Y0069285D01*
X0311686Y0069329D01*
X0311724Y0069375D01*
X0311760Y0069424D01*
X0311793Y0069475D01*
X0311822Y0069527D01*
X0311849Y0069582D01*
X0311872Y0069637D01*
X0311892Y0069694D01*
X0311908Y0069753D01*
X0311921Y0069812D01*
X0311930Y0069871D01*
X0311935Y0069932D01*
X0311937Y0069992D01*
X0311969Y0072935D02*
X0308633Y0076271D01*
X0307799Y0076271D01*
X0306965Y0075437D01*
X0306965Y0073769D01*
X0307799Y0072935D01*
X0311969Y0072935D02*
X0311969Y0076271D01*
X0311969Y0078091D02*
X0308633Y0081427D01*
X0307799Y0081427D01*
X0306965Y0080593D01*
X0306965Y0078925D01*
X0307799Y0078091D01*
X0311969Y0078091D02*
X0311969Y0081427D01*
X0311969Y0083247D02*
X0306965Y0083247D01*
X0308633Y0085750D02*
X0310301Y0083247D01*
X0311969Y0085750D01*
X0301969Y0085826D02*
X0296965Y0085826D01*
X0298633Y0088328D02*
X0300301Y0085826D01*
X0301969Y0088328D01*
X0301135Y0084005D02*
X0301969Y0083171D01*
X0301969Y0081503D01*
X0301135Y0080669D01*
X0299467Y0080669D02*
X0298633Y0082337D01*
X0298633Y0083171D01*
X0299467Y0084005D01*
X0301135Y0084005D01*
X0296965Y0084005D02*
X0296965Y0080669D01*
X0299467Y0080669D01*
X0301135Y0078925D02*
X0301969Y0078925D01*
X0301969Y0078091D01*
X0301135Y0078091D01*
X0301135Y0078925D01*
X0301969Y0076271D02*
X0301969Y0072935D01*
X0301969Y0074603D02*
X0296965Y0074603D01*
X0298633Y0072935D01*
X0293937Y0068992D02*
X0293877Y0068994D01*
X0293816Y0068999D01*
X0293757Y0069008D01*
X0293698Y0069021D01*
X0293639Y0069037D01*
X0293582Y0069057D01*
X0293527Y0069080D01*
X0293472Y0069107D01*
X0293420Y0069136D01*
X0293369Y0069169D01*
X0293320Y0069205D01*
X0293274Y0069243D01*
X0293230Y0069285D01*
X0293188Y0069329D01*
X0293150Y0069375D01*
X0293114Y0069424D01*
X0293081Y0069475D01*
X0293052Y0069527D01*
X0293025Y0069582D01*
X0293002Y0069637D01*
X0292982Y0069694D01*
X0292966Y0069753D01*
X0292953Y0069812D01*
X0292944Y0069871D01*
X0292939Y0069932D01*
X0292937Y0069992D01*
X0367937Y0069992D02*
X0367939Y0069932D01*
X0367944Y0069871D01*
X0367953Y0069812D01*
X0367966Y0069753D01*
X0367982Y0069694D01*
X0368002Y0069637D01*
X0368025Y0069582D01*
X0368052Y0069527D01*
X0368081Y0069475D01*
X0368114Y0069424D01*
X0368150Y0069375D01*
X0368188Y0069329D01*
X0368230Y0069285D01*
X0368274Y0069243D01*
X0368320Y0069205D01*
X0368369Y0069169D01*
X0368420Y0069136D01*
X0368472Y0069107D01*
X0368527Y0069080D01*
X0368582Y0069057D01*
X0368639Y0069037D01*
X0368698Y0069021D01*
X0368757Y0069008D01*
X0368816Y0068999D01*
X0368877Y0068994D01*
X0368937Y0068992D01*
X0375937Y0068992D01*
X0375997Y0068994D01*
X0376058Y0068999D01*
X0376117Y0069008D01*
X0376176Y0069021D01*
X0376235Y0069037D01*
X0376292Y0069057D01*
X0376347Y0069080D01*
X0376402Y0069107D01*
X0376454Y0069136D01*
X0376505Y0069169D01*
X0376554Y0069205D01*
X0376600Y0069243D01*
X0376644Y0069285D01*
X0376686Y0069329D01*
X0376724Y0069375D01*
X0376760Y0069424D01*
X0376793Y0069475D01*
X0376822Y0069527D01*
X0376849Y0069582D01*
X0376872Y0069637D01*
X0376892Y0069694D01*
X0376908Y0069753D01*
X0376921Y0069812D01*
X0376930Y0069871D01*
X0376935Y0069932D01*
X0376937Y0069992D01*
X0377937Y0069992D02*
X0377939Y0069932D01*
X0377944Y0069871D01*
X0377953Y0069812D01*
X0377966Y0069753D01*
X0377982Y0069694D01*
X0378002Y0069637D01*
X0378025Y0069582D01*
X0378052Y0069527D01*
X0378081Y0069475D01*
X0378114Y0069424D01*
X0378150Y0069375D01*
X0378188Y0069329D01*
X0378230Y0069285D01*
X0378274Y0069243D01*
X0378320Y0069205D01*
X0378369Y0069169D01*
X0378420Y0069136D01*
X0378472Y0069107D01*
X0378527Y0069080D01*
X0378582Y0069057D01*
X0378639Y0069037D01*
X0378698Y0069021D01*
X0378757Y0069008D01*
X0378816Y0068999D01*
X0378877Y0068994D01*
X0378937Y0068992D01*
X0385937Y0068992D01*
X0385997Y0068994D01*
X0386058Y0068999D01*
X0386117Y0069008D01*
X0386176Y0069021D01*
X0386235Y0069037D01*
X0386292Y0069057D01*
X0386347Y0069080D01*
X0386402Y0069107D01*
X0386454Y0069136D01*
X0386505Y0069169D01*
X0386554Y0069205D01*
X0386600Y0069243D01*
X0386644Y0069285D01*
X0386686Y0069329D01*
X0386724Y0069375D01*
X0386760Y0069424D01*
X0386793Y0069475D01*
X0386822Y0069527D01*
X0386849Y0069582D01*
X0386872Y0069637D01*
X0386892Y0069694D01*
X0386908Y0069753D01*
X0386921Y0069812D01*
X0386930Y0069871D01*
X0386935Y0069932D01*
X0386937Y0069992D01*
X0387937Y0069992D02*
X0387939Y0069932D01*
X0387944Y0069871D01*
X0387953Y0069812D01*
X0387966Y0069753D01*
X0387982Y0069694D01*
X0388002Y0069637D01*
X0388025Y0069582D01*
X0388052Y0069527D01*
X0388081Y0069475D01*
X0388114Y0069424D01*
X0388150Y0069375D01*
X0388188Y0069329D01*
X0388230Y0069285D01*
X0388274Y0069243D01*
X0388320Y0069205D01*
X0388369Y0069169D01*
X0388420Y0069136D01*
X0388472Y0069107D01*
X0388527Y0069080D01*
X0388582Y0069057D01*
X0388639Y0069037D01*
X0388698Y0069021D01*
X0388757Y0069008D01*
X0388816Y0068999D01*
X0388877Y0068994D01*
X0388937Y0068992D01*
X0395937Y0068992D01*
X0395997Y0068994D01*
X0396058Y0068999D01*
X0396117Y0069008D01*
X0396176Y0069021D01*
X0396235Y0069037D01*
X0396292Y0069057D01*
X0396347Y0069080D01*
X0396402Y0069107D01*
X0396454Y0069136D01*
X0396505Y0069169D01*
X0396554Y0069205D01*
X0396600Y0069243D01*
X0396644Y0069285D01*
X0396686Y0069329D01*
X0396724Y0069375D01*
X0396760Y0069424D01*
X0396793Y0069475D01*
X0396822Y0069527D01*
X0396849Y0069582D01*
X0396872Y0069637D01*
X0396892Y0069694D01*
X0396908Y0069753D01*
X0396921Y0069812D01*
X0396930Y0069871D01*
X0396935Y0069932D01*
X0396937Y0069992D01*
X0397937Y0069992D02*
X0397939Y0069932D01*
X0397944Y0069871D01*
X0397953Y0069812D01*
X0397966Y0069753D01*
X0397982Y0069694D01*
X0398002Y0069637D01*
X0398025Y0069582D01*
X0398052Y0069527D01*
X0398081Y0069475D01*
X0398114Y0069424D01*
X0398150Y0069375D01*
X0398188Y0069329D01*
X0398230Y0069285D01*
X0398274Y0069243D01*
X0398320Y0069205D01*
X0398369Y0069169D01*
X0398420Y0069136D01*
X0398472Y0069107D01*
X0398527Y0069080D01*
X0398582Y0069057D01*
X0398639Y0069037D01*
X0398698Y0069021D01*
X0398757Y0069008D01*
X0398816Y0068999D01*
X0398877Y0068994D01*
X0398937Y0068992D01*
X0405937Y0068992D01*
X0405997Y0068994D01*
X0406058Y0068999D01*
X0406117Y0069008D01*
X0406176Y0069021D01*
X0406235Y0069037D01*
X0406292Y0069057D01*
X0406347Y0069080D01*
X0406402Y0069107D01*
X0406454Y0069136D01*
X0406505Y0069169D01*
X0406554Y0069205D01*
X0406600Y0069243D01*
X0406644Y0069285D01*
X0406686Y0069329D01*
X0406724Y0069375D01*
X0406760Y0069424D01*
X0406793Y0069475D01*
X0406822Y0069527D01*
X0406849Y0069582D01*
X0406872Y0069637D01*
X0406892Y0069694D01*
X0406908Y0069753D01*
X0406921Y0069812D01*
X0406930Y0069871D01*
X0406935Y0069932D01*
X0406937Y0069992D01*
X0407937Y0069992D02*
X0407939Y0069932D01*
X0407944Y0069871D01*
X0407953Y0069812D01*
X0407966Y0069753D01*
X0407982Y0069694D01*
X0408002Y0069637D01*
X0408025Y0069582D01*
X0408052Y0069527D01*
X0408081Y0069475D01*
X0408114Y0069424D01*
X0408150Y0069375D01*
X0408188Y0069329D01*
X0408230Y0069285D01*
X0408274Y0069243D01*
X0408320Y0069205D01*
X0408369Y0069169D01*
X0408420Y0069136D01*
X0408472Y0069107D01*
X0408527Y0069080D01*
X0408582Y0069057D01*
X0408639Y0069037D01*
X0408698Y0069021D01*
X0408757Y0069008D01*
X0408816Y0068999D01*
X0408877Y0068994D01*
X0408937Y0068992D01*
X0415937Y0068992D01*
X0415997Y0068994D01*
X0416058Y0068999D01*
X0416117Y0069008D01*
X0416176Y0069021D01*
X0416235Y0069037D01*
X0416292Y0069057D01*
X0416347Y0069080D01*
X0416402Y0069107D01*
X0416454Y0069136D01*
X0416505Y0069169D01*
X0416554Y0069205D01*
X0416600Y0069243D01*
X0416644Y0069285D01*
X0416686Y0069329D01*
X0416724Y0069375D01*
X0416760Y0069424D01*
X0416793Y0069475D01*
X0416822Y0069527D01*
X0416849Y0069582D01*
X0416872Y0069637D01*
X0416892Y0069694D01*
X0416908Y0069753D01*
X0416921Y0069812D01*
X0416930Y0069871D01*
X0416935Y0069932D01*
X0416937Y0069992D01*
X0414467Y0072935D02*
X0414467Y0076271D01*
X0416135Y0078091D02*
X0416969Y0078091D01*
X0416135Y0078091D02*
X0412799Y0081427D01*
X0411965Y0081427D01*
X0411965Y0078091D01*
X0406969Y0078091D02*
X0406969Y0078925D01*
X0406135Y0078925D01*
X0406135Y0078091D01*
X0406969Y0078091D01*
X0406969Y0076271D02*
X0406969Y0072935D01*
X0406969Y0074603D02*
X0401965Y0074603D01*
X0403633Y0072935D01*
X0396969Y0075437D02*
X0391965Y0075437D01*
X0394467Y0072935D01*
X0394467Y0076271D01*
X0396135Y0078091D02*
X0396969Y0078091D01*
X0396135Y0078091D02*
X0392799Y0081427D01*
X0391965Y0081427D01*
X0391965Y0078091D01*
X0386969Y0078091D02*
X0383633Y0081427D01*
X0382799Y0081427D01*
X0381965Y0080593D01*
X0381965Y0078925D01*
X0382799Y0078091D01*
X0382799Y0076271D02*
X0381965Y0075437D01*
X0381965Y0073769D01*
X0382799Y0072935D01*
X0383633Y0076271D02*
X0386969Y0072935D01*
X0386969Y0076271D01*
X0386969Y0078091D02*
X0386969Y0081427D01*
X0386969Y0083247D02*
X0381965Y0083247D01*
X0383633Y0085750D02*
X0385301Y0083247D01*
X0386969Y0085750D01*
X0376969Y0085750D02*
X0376969Y0084082D01*
X0376135Y0083247D01*
X0372799Y0086584D01*
X0376135Y0086584D01*
X0376969Y0085750D01*
X0376969Y0088404D02*
X0371965Y0088404D01*
X0371965Y0090906D01*
X0372799Y0091740D01*
X0374467Y0091740D01*
X0375301Y0090906D01*
X0375301Y0088404D01*
X0375301Y0090072D02*
X0376969Y0091740D01*
X0372799Y0086584D02*
X0371965Y0085750D01*
X0371965Y0084082D01*
X0372799Y0083247D01*
X0376135Y0083247D01*
X0376969Y0081427D02*
X0376969Y0078091D01*
X0373633Y0081427D01*
X0372799Y0081427D01*
X0371965Y0080593D01*
X0371965Y0078925D01*
X0372799Y0078091D01*
X0372799Y0076271D02*
X0371965Y0075437D01*
X0371965Y0073769D01*
X0372799Y0072935D01*
X0373633Y0076271D02*
X0376969Y0072935D01*
X0376969Y0076271D01*
X0373633Y0076271D02*
X0372799Y0076271D01*
X0382799Y0076271D02*
X0383633Y0076271D01*
X0401965Y0080669D02*
X0404467Y0080669D01*
X0403633Y0082337D01*
X0403633Y0083171D01*
X0404467Y0084005D01*
X0406135Y0084005D01*
X0406969Y0083171D01*
X0406969Y0081503D01*
X0406135Y0080669D01*
X0401965Y0080669D02*
X0401965Y0084005D01*
X0396969Y0083247D02*
X0391965Y0083247D01*
X0393633Y0085750D02*
X0395301Y0083247D01*
X0396969Y0085750D01*
X0401965Y0085826D02*
X0406969Y0085826D01*
X0405301Y0085826D02*
X0403633Y0088328D01*
X0405301Y0085826D02*
X0406969Y0088328D01*
X0413633Y0085750D02*
X0415301Y0083247D01*
X0416969Y0085750D01*
X0416969Y0083247D02*
X0411965Y0083247D01*
X0411965Y0075437D02*
X0414467Y0072935D01*
X0416969Y0075437D02*
X0411965Y0075437D01*
X0440862Y0059067D02*
X0440862Y0052067D01*
X0440864Y0052007D01*
X0440869Y0051946D01*
X0440878Y0051887D01*
X0440891Y0051828D01*
X0440907Y0051769D01*
X0440927Y0051712D01*
X0440950Y0051657D01*
X0440977Y0051602D01*
X0441006Y0051550D01*
X0441039Y0051499D01*
X0441075Y0051450D01*
X0441113Y0051404D01*
X0441155Y0051360D01*
X0441199Y0051318D01*
X0441245Y0051280D01*
X0441294Y0051244D01*
X0441345Y0051211D01*
X0441397Y0051182D01*
X0441452Y0051155D01*
X0441507Y0051132D01*
X0441564Y0051112D01*
X0441623Y0051096D01*
X0441682Y0051083D01*
X0441741Y0051074D01*
X0441802Y0051069D01*
X0441862Y0051067D01*
X0444805Y0051035D02*
X0448141Y0051035D01*
X0446473Y0051035D02*
X0446473Y0056039D01*
X0444805Y0054371D01*
X0449961Y0051869D02*
X0450795Y0051869D01*
X0450795Y0051035D01*
X0449961Y0051035D01*
X0449961Y0051869D01*
X0452539Y0051869D02*
X0453373Y0051035D01*
X0455041Y0051035D01*
X0455876Y0051869D01*
X0455876Y0053537D01*
X0455041Y0054371D01*
X0454207Y0054371D01*
X0452539Y0053537D01*
X0452539Y0056039D01*
X0455876Y0056039D01*
X0457696Y0056039D02*
X0457696Y0051035D01*
X0457696Y0052703D02*
X0460198Y0054371D01*
X0457696Y0052703D02*
X0460198Y0051035D01*
X0473268Y0051067D02*
X0473328Y0051069D01*
X0473389Y0051074D01*
X0473448Y0051083D01*
X0473507Y0051096D01*
X0473566Y0051112D01*
X0473623Y0051132D01*
X0473678Y0051155D01*
X0473733Y0051182D01*
X0473785Y0051211D01*
X0473836Y0051244D01*
X0473885Y0051280D01*
X0473931Y0051318D01*
X0473975Y0051360D01*
X0474017Y0051404D01*
X0474055Y0051450D01*
X0474091Y0051499D01*
X0474124Y0051550D01*
X0474153Y0051602D01*
X0474180Y0051657D01*
X0474203Y0051712D01*
X0474223Y0051769D01*
X0474239Y0051828D01*
X0474252Y0051887D01*
X0474261Y0051946D01*
X0474266Y0052007D01*
X0474268Y0052067D01*
X0474268Y0058673D01*
X0474266Y0058733D01*
X0474261Y0058794D01*
X0474252Y0058853D01*
X0474239Y0058912D01*
X0474223Y0058971D01*
X0474203Y0059028D01*
X0474180Y0059083D01*
X0474153Y0059138D01*
X0474124Y0059190D01*
X0474091Y0059241D01*
X0474055Y0059290D01*
X0474017Y0059336D01*
X0473975Y0059380D01*
X0473931Y0059422D01*
X0473885Y0059460D01*
X0473836Y0059496D01*
X0473785Y0059529D01*
X0473733Y0059558D01*
X0473678Y0059585D01*
X0473623Y0059608D01*
X0473566Y0059628D01*
X0473507Y0059644D01*
X0473448Y0059657D01*
X0473389Y0059666D01*
X0473328Y0059671D01*
X0473268Y0059673D01*
X0478937Y0068992D02*
X0485937Y0068992D01*
X0485997Y0068994D01*
X0486058Y0068999D01*
X0486117Y0069008D01*
X0486176Y0069021D01*
X0486235Y0069037D01*
X0486292Y0069057D01*
X0486347Y0069080D01*
X0486402Y0069107D01*
X0486454Y0069136D01*
X0486505Y0069169D01*
X0486554Y0069205D01*
X0486600Y0069243D01*
X0486644Y0069285D01*
X0486686Y0069329D01*
X0486724Y0069375D01*
X0486760Y0069424D01*
X0486793Y0069475D01*
X0486822Y0069527D01*
X0486849Y0069582D01*
X0486872Y0069637D01*
X0486892Y0069694D01*
X0486908Y0069753D01*
X0486921Y0069812D01*
X0486930Y0069871D01*
X0486935Y0069932D01*
X0486937Y0069992D01*
X0478937Y0068992D02*
X0478877Y0068994D01*
X0478816Y0068999D01*
X0478757Y0069008D01*
X0478698Y0069021D01*
X0478639Y0069037D01*
X0478582Y0069057D01*
X0478527Y0069080D01*
X0478472Y0069107D01*
X0478420Y0069136D01*
X0478369Y0069169D01*
X0478320Y0069205D01*
X0478274Y0069243D01*
X0478230Y0069285D01*
X0478188Y0069329D01*
X0478150Y0069375D01*
X0478114Y0069424D01*
X0478081Y0069475D01*
X0478052Y0069527D01*
X0478025Y0069582D01*
X0478002Y0069637D01*
X0477982Y0069694D01*
X0477966Y0069753D01*
X0477953Y0069812D01*
X0477944Y0069871D01*
X0477939Y0069932D01*
X0477937Y0069992D01*
X0481965Y0074603D02*
X0483633Y0072935D01*
X0481965Y0074603D02*
X0486969Y0074603D01*
X0486969Y0072935D02*
X0486969Y0076271D01*
X0486969Y0078091D02*
X0486969Y0078925D01*
X0486135Y0078925D01*
X0486135Y0078091D01*
X0486969Y0078091D01*
X0486135Y0080669D02*
X0486969Y0081503D01*
X0486969Y0083171D01*
X0486135Y0084005D01*
X0484467Y0084005D01*
X0483633Y0083171D01*
X0483633Y0082337D01*
X0484467Y0080669D01*
X0481965Y0080669D01*
X0481965Y0084005D01*
X0481965Y0085826D02*
X0486969Y0085826D01*
X0485301Y0085826D02*
X0483633Y0088328D01*
X0485301Y0085826D02*
X0486969Y0088328D01*
X0486937Y0101398D02*
X0486935Y0101458D01*
X0486930Y0101519D01*
X0486921Y0101578D01*
X0486908Y0101637D01*
X0486892Y0101696D01*
X0486872Y0101753D01*
X0486849Y0101808D01*
X0486822Y0101863D01*
X0486793Y0101915D01*
X0486760Y0101966D01*
X0486724Y0102015D01*
X0486686Y0102061D01*
X0486644Y0102105D01*
X0486600Y0102147D01*
X0486554Y0102185D01*
X0486505Y0102221D01*
X0486454Y0102254D01*
X0486402Y0102283D01*
X0486347Y0102310D01*
X0486292Y0102333D01*
X0486235Y0102353D01*
X0486176Y0102369D01*
X0486117Y0102382D01*
X0486058Y0102391D01*
X0485997Y0102396D01*
X0485937Y0102398D01*
X0479331Y0102398D01*
X0479271Y0102396D01*
X0479210Y0102391D01*
X0479151Y0102382D01*
X0479092Y0102369D01*
X0479033Y0102353D01*
X0478976Y0102333D01*
X0478921Y0102310D01*
X0478866Y0102283D01*
X0478814Y0102254D01*
X0478763Y0102221D01*
X0478714Y0102185D01*
X0478668Y0102147D01*
X0478624Y0102105D01*
X0478582Y0102061D01*
X0478544Y0102015D01*
X0478508Y0101966D01*
X0478475Y0101915D01*
X0478446Y0101863D01*
X0478419Y0101808D01*
X0478396Y0101753D01*
X0478376Y0101696D01*
X0478360Y0101637D01*
X0478347Y0101578D01*
X0478338Y0101519D01*
X0478333Y0101458D01*
X0478331Y0101398D01*
X0478268Y0111067D02*
X0478328Y0111069D01*
X0478389Y0111074D01*
X0478448Y0111083D01*
X0478507Y0111096D01*
X0478566Y0111112D01*
X0478623Y0111132D01*
X0478678Y0111155D01*
X0478733Y0111182D01*
X0478785Y0111211D01*
X0478836Y0111244D01*
X0478885Y0111280D01*
X0478931Y0111318D01*
X0478975Y0111360D01*
X0479017Y0111404D01*
X0479055Y0111450D01*
X0479091Y0111499D01*
X0479124Y0111550D01*
X0479153Y0111602D01*
X0479180Y0111657D01*
X0479203Y0111712D01*
X0479223Y0111769D01*
X0479239Y0111828D01*
X0479252Y0111887D01*
X0479261Y0111946D01*
X0479266Y0112007D01*
X0479268Y0112067D01*
X0479268Y0118673D01*
X0479266Y0118733D01*
X0479261Y0118794D01*
X0479252Y0118853D01*
X0479239Y0118912D01*
X0479223Y0118971D01*
X0479203Y0119028D01*
X0479180Y0119083D01*
X0479153Y0119138D01*
X0479124Y0119190D01*
X0479091Y0119241D01*
X0479055Y0119290D01*
X0479017Y0119336D01*
X0478975Y0119380D01*
X0478931Y0119422D01*
X0478885Y0119460D01*
X0478836Y0119496D01*
X0478785Y0119529D01*
X0478733Y0119558D01*
X0478678Y0119585D01*
X0478623Y0119608D01*
X0478566Y0119628D01*
X0478507Y0119644D01*
X0478448Y0119657D01*
X0478389Y0119666D01*
X0478328Y0119671D01*
X0478268Y0119673D01*
X0465198Y0114371D02*
X0462696Y0112703D01*
X0465198Y0111035D01*
X0462696Y0111035D02*
X0462696Y0116039D01*
X0460876Y0116039D02*
X0457539Y0116039D01*
X0457539Y0113537D01*
X0459207Y0114371D01*
X0460041Y0114371D01*
X0460876Y0113537D01*
X0460876Y0111869D01*
X0460041Y0111035D01*
X0458373Y0111035D01*
X0457539Y0111869D01*
X0455795Y0111869D02*
X0455795Y0111035D01*
X0454961Y0111035D01*
X0454961Y0111869D01*
X0455795Y0111869D01*
X0453141Y0111035D02*
X0449805Y0111035D01*
X0451473Y0111035D02*
X0451473Y0116039D01*
X0449805Y0114371D01*
X0446862Y0111067D02*
X0446802Y0111069D01*
X0446741Y0111074D01*
X0446682Y0111083D01*
X0446623Y0111096D01*
X0446564Y0111112D01*
X0446507Y0111132D01*
X0446452Y0111155D01*
X0446397Y0111182D01*
X0446345Y0111211D01*
X0446294Y0111244D01*
X0446245Y0111280D01*
X0446199Y0111318D01*
X0446155Y0111360D01*
X0446113Y0111404D01*
X0446075Y0111450D01*
X0446039Y0111499D01*
X0446006Y0111550D01*
X0445977Y0111602D01*
X0445950Y0111657D01*
X0445927Y0111712D01*
X0445907Y0111769D01*
X0445891Y0111828D01*
X0445878Y0111887D01*
X0445869Y0111946D01*
X0445864Y0112007D01*
X0445862Y0112067D01*
X0445862Y0119067D01*
X0445864Y0119127D01*
X0445869Y0119188D01*
X0445878Y0119247D01*
X0445891Y0119306D01*
X0445907Y0119365D01*
X0445927Y0119422D01*
X0445950Y0119477D01*
X0445977Y0119532D01*
X0446006Y0119584D01*
X0446039Y0119635D01*
X0446075Y0119684D01*
X0446113Y0119730D01*
X0446155Y0119774D01*
X0446199Y0119816D01*
X0446245Y0119854D01*
X0446294Y0119890D01*
X0446345Y0119923D01*
X0446397Y0119952D01*
X0446452Y0119979D01*
X0446507Y0120002D01*
X0446564Y0120022D01*
X0446623Y0120038D01*
X0446682Y0120051D01*
X0446741Y0120060D01*
X0446802Y0120065D01*
X0446862Y0120067D01*
X0415937Y0102398D02*
X0409331Y0102398D01*
X0409271Y0102396D01*
X0409210Y0102391D01*
X0409151Y0102382D01*
X0409092Y0102369D01*
X0409033Y0102353D01*
X0408976Y0102333D01*
X0408921Y0102310D01*
X0408866Y0102283D01*
X0408814Y0102254D01*
X0408763Y0102221D01*
X0408714Y0102185D01*
X0408668Y0102147D01*
X0408624Y0102105D01*
X0408582Y0102061D01*
X0408544Y0102015D01*
X0408508Y0101966D01*
X0408475Y0101915D01*
X0408446Y0101863D01*
X0408419Y0101808D01*
X0408396Y0101753D01*
X0408376Y0101696D01*
X0408360Y0101637D01*
X0408347Y0101578D01*
X0408338Y0101519D01*
X0408333Y0101458D01*
X0408331Y0101398D01*
X0406937Y0101398D02*
X0406935Y0101458D01*
X0406930Y0101519D01*
X0406921Y0101578D01*
X0406908Y0101637D01*
X0406892Y0101696D01*
X0406872Y0101753D01*
X0406849Y0101808D01*
X0406822Y0101863D01*
X0406793Y0101915D01*
X0406760Y0101966D01*
X0406724Y0102015D01*
X0406686Y0102061D01*
X0406644Y0102105D01*
X0406600Y0102147D01*
X0406554Y0102185D01*
X0406505Y0102221D01*
X0406454Y0102254D01*
X0406402Y0102283D01*
X0406347Y0102310D01*
X0406292Y0102333D01*
X0406235Y0102353D01*
X0406176Y0102369D01*
X0406117Y0102382D01*
X0406058Y0102391D01*
X0405997Y0102396D01*
X0405937Y0102398D01*
X0399331Y0102398D01*
X0399271Y0102396D01*
X0399210Y0102391D01*
X0399151Y0102382D01*
X0399092Y0102369D01*
X0399033Y0102353D01*
X0398976Y0102333D01*
X0398921Y0102310D01*
X0398866Y0102283D01*
X0398814Y0102254D01*
X0398763Y0102221D01*
X0398714Y0102185D01*
X0398668Y0102147D01*
X0398624Y0102105D01*
X0398582Y0102061D01*
X0398544Y0102015D01*
X0398508Y0101966D01*
X0398475Y0101915D01*
X0398446Y0101863D01*
X0398419Y0101808D01*
X0398396Y0101753D01*
X0398376Y0101696D01*
X0398360Y0101637D01*
X0398347Y0101578D01*
X0398338Y0101519D01*
X0398333Y0101458D01*
X0398331Y0101398D01*
X0396937Y0101398D02*
X0396935Y0101458D01*
X0396930Y0101519D01*
X0396921Y0101578D01*
X0396908Y0101637D01*
X0396892Y0101696D01*
X0396872Y0101753D01*
X0396849Y0101808D01*
X0396822Y0101863D01*
X0396793Y0101915D01*
X0396760Y0101966D01*
X0396724Y0102015D01*
X0396686Y0102061D01*
X0396644Y0102105D01*
X0396600Y0102147D01*
X0396554Y0102185D01*
X0396505Y0102221D01*
X0396454Y0102254D01*
X0396402Y0102283D01*
X0396347Y0102310D01*
X0396292Y0102333D01*
X0396235Y0102353D01*
X0396176Y0102369D01*
X0396117Y0102382D01*
X0396058Y0102391D01*
X0395997Y0102396D01*
X0395937Y0102398D01*
X0389331Y0102398D01*
X0389271Y0102396D01*
X0389210Y0102391D01*
X0389151Y0102382D01*
X0389092Y0102369D01*
X0389033Y0102353D01*
X0388976Y0102333D01*
X0388921Y0102310D01*
X0388866Y0102283D01*
X0388814Y0102254D01*
X0388763Y0102221D01*
X0388714Y0102185D01*
X0388668Y0102147D01*
X0388624Y0102105D01*
X0388582Y0102061D01*
X0388544Y0102015D01*
X0388508Y0101966D01*
X0388475Y0101915D01*
X0388446Y0101863D01*
X0388419Y0101808D01*
X0388396Y0101753D01*
X0388376Y0101696D01*
X0388360Y0101637D01*
X0388347Y0101578D01*
X0388338Y0101519D01*
X0388333Y0101458D01*
X0388331Y0101398D01*
X0386937Y0101398D02*
X0386935Y0101458D01*
X0386930Y0101519D01*
X0386921Y0101578D01*
X0386908Y0101637D01*
X0386892Y0101696D01*
X0386872Y0101753D01*
X0386849Y0101808D01*
X0386822Y0101863D01*
X0386793Y0101915D01*
X0386760Y0101966D01*
X0386724Y0102015D01*
X0386686Y0102061D01*
X0386644Y0102105D01*
X0386600Y0102147D01*
X0386554Y0102185D01*
X0386505Y0102221D01*
X0386454Y0102254D01*
X0386402Y0102283D01*
X0386347Y0102310D01*
X0386292Y0102333D01*
X0386235Y0102353D01*
X0386176Y0102369D01*
X0386117Y0102382D01*
X0386058Y0102391D01*
X0385997Y0102396D01*
X0385937Y0102398D01*
X0379331Y0102398D01*
X0379271Y0102396D01*
X0379210Y0102391D01*
X0379151Y0102382D01*
X0379092Y0102369D01*
X0379033Y0102353D01*
X0378976Y0102333D01*
X0378921Y0102310D01*
X0378866Y0102283D01*
X0378814Y0102254D01*
X0378763Y0102221D01*
X0378714Y0102185D01*
X0378668Y0102147D01*
X0378624Y0102105D01*
X0378582Y0102061D01*
X0378544Y0102015D01*
X0378508Y0101966D01*
X0378475Y0101915D01*
X0378446Y0101863D01*
X0378419Y0101808D01*
X0378396Y0101753D01*
X0378376Y0101696D01*
X0378360Y0101637D01*
X0378347Y0101578D01*
X0378338Y0101519D01*
X0378333Y0101458D01*
X0378331Y0101398D01*
X0376937Y0101398D02*
X0376935Y0101458D01*
X0376930Y0101519D01*
X0376921Y0101578D01*
X0376908Y0101637D01*
X0376892Y0101696D01*
X0376872Y0101753D01*
X0376849Y0101808D01*
X0376822Y0101863D01*
X0376793Y0101915D01*
X0376760Y0101966D01*
X0376724Y0102015D01*
X0376686Y0102061D01*
X0376644Y0102105D01*
X0376600Y0102147D01*
X0376554Y0102185D01*
X0376505Y0102221D01*
X0376454Y0102254D01*
X0376402Y0102283D01*
X0376347Y0102310D01*
X0376292Y0102333D01*
X0376235Y0102353D01*
X0376176Y0102369D01*
X0376117Y0102382D01*
X0376058Y0102391D01*
X0375997Y0102396D01*
X0375937Y0102398D01*
X0369331Y0102398D01*
X0369271Y0102396D01*
X0369210Y0102391D01*
X0369151Y0102382D01*
X0369092Y0102369D01*
X0369033Y0102353D01*
X0368976Y0102333D01*
X0368921Y0102310D01*
X0368866Y0102283D01*
X0368814Y0102254D01*
X0368763Y0102221D01*
X0368714Y0102185D01*
X0368668Y0102147D01*
X0368624Y0102105D01*
X0368582Y0102061D01*
X0368544Y0102015D01*
X0368508Y0101966D01*
X0368475Y0101915D01*
X0368446Y0101863D01*
X0368419Y0101808D01*
X0368396Y0101753D01*
X0368376Y0101696D01*
X0368360Y0101637D01*
X0368347Y0101578D01*
X0368338Y0101519D01*
X0368333Y0101458D01*
X0368331Y0101398D01*
X0415937Y0102398D02*
X0415997Y0102396D01*
X0416058Y0102391D01*
X0416117Y0102382D01*
X0416176Y0102369D01*
X0416235Y0102353D01*
X0416292Y0102333D01*
X0416347Y0102310D01*
X0416402Y0102283D01*
X0416454Y0102254D01*
X0416505Y0102221D01*
X0416554Y0102185D01*
X0416600Y0102147D01*
X0416644Y0102105D01*
X0416686Y0102061D01*
X0416724Y0102015D01*
X0416760Y0101966D01*
X0416793Y0101915D01*
X0416822Y0101863D01*
X0416849Y0101808D01*
X0416872Y0101753D01*
X0416892Y0101696D01*
X0416908Y0101637D01*
X0416921Y0101578D01*
X0416930Y0101519D01*
X0416935Y0101458D01*
X0416937Y0101398D01*
X0311937Y0101398D02*
X0311935Y0101458D01*
X0311930Y0101519D01*
X0311921Y0101578D01*
X0311908Y0101637D01*
X0311892Y0101696D01*
X0311872Y0101753D01*
X0311849Y0101808D01*
X0311822Y0101863D01*
X0311793Y0101915D01*
X0311760Y0101966D01*
X0311724Y0102015D01*
X0311686Y0102061D01*
X0311644Y0102105D01*
X0311600Y0102147D01*
X0311554Y0102185D01*
X0311505Y0102221D01*
X0311454Y0102254D01*
X0311402Y0102283D01*
X0311347Y0102310D01*
X0311292Y0102333D01*
X0311235Y0102353D01*
X0311176Y0102369D01*
X0311117Y0102382D01*
X0311058Y0102391D01*
X0310997Y0102396D01*
X0310937Y0102398D01*
X0304331Y0102398D01*
X0304271Y0102396D01*
X0304210Y0102391D01*
X0304151Y0102382D01*
X0304092Y0102369D01*
X0304033Y0102353D01*
X0303976Y0102333D01*
X0303921Y0102310D01*
X0303866Y0102283D01*
X0303814Y0102254D01*
X0303763Y0102221D01*
X0303714Y0102185D01*
X0303668Y0102147D01*
X0303624Y0102105D01*
X0303582Y0102061D01*
X0303544Y0102015D01*
X0303508Y0101966D01*
X0303475Y0101915D01*
X0303446Y0101863D01*
X0303419Y0101808D01*
X0303396Y0101753D01*
X0303376Y0101696D01*
X0303360Y0101637D01*
X0303347Y0101578D01*
X0303338Y0101519D01*
X0303333Y0101458D01*
X0303331Y0101398D01*
X0301937Y0101398D02*
X0301935Y0101458D01*
X0301930Y0101519D01*
X0301921Y0101578D01*
X0301908Y0101637D01*
X0301892Y0101696D01*
X0301872Y0101753D01*
X0301849Y0101808D01*
X0301822Y0101863D01*
X0301793Y0101915D01*
X0301760Y0101966D01*
X0301724Y0102015D01*
X0301686Y0102061D01*
X0301644Y0102105D01*
X0301600Y0102147D01*
X0301554Y0102185D01*
X0301505Y0102221D01*
X0301454Y0102254D01*
X0301402Y0102283D01*
X0301347Y0102310D01*
X0301292Y0102333D01*
X0301235Y0102353D01*
X0301176Y0102369D01*
X0301117Y0102382D01*
X0301058Y0102391D01*
X0300997Y0102396D01*
X0300937Y0102398D01*
X0294331Y0102398D01*
X0294271Y0102396D01*
X0294210Y0102391D01*
X0294151Y0102382D01*
X0294092Y0102369D01*
X0294033Y0102353D01*
X0293976Y0102333D01*
X0293921Y0102310D01*
X0293866Y0102283D01*
X0293814Y0102254D01*
X0293763Y0102221D01*
X0293714Y0102185D01*
X0293668Y0102147D01*
X0293624Y0102105D01*
X0293582Y0102061D01*
X0293544Y0102015D01*
X0293508Y0101966D01*
X0293475Y0101915D01*
X0293446Y0101863D01*
X0293419Y0101808D01*
X0293396Y0101753D01*
X0293376Y0101696D01*
X0293360Y0101637D01*
X0293347Y0101578D01*
X0293338Y0101519D01*
X0293333Y0101458D01*
X0293331Y0101398D01*
X0440862Y0059067D02*
X0440864Y0059127D01*
X0440869Y0059188D01*
X0440878Y0059247D01*
X0440891Y0059306D01*
X0440907Y0059365D01*
X0440927Y0059422D01*
X0440950Y0059477D01*
X0440977Y0059532D01*
X0441006Y0059584D01*
X0441039Y0059635D01*
X0441075Y0059684D01*
X0441113Y0059730D01*
X0441155Y0059774D01*
X0441199Y0059816D01*
X0441245Y0059854D01*
X0441294Y0059890D01*
X0441345Y0059923D01*
X0441397Y0059952D01*
X0441452Y0059979D01*
X0441507Y0060002D01*
X0441564Y0060022D01*
X0441623Y0060038D01*
X0441682Y0060051D01*
X0441741Y0060060D01*
X0441802Y0060065D01*
X0441862Y0060067D01*
D16*
X0224937Y0081817D03*
X0217437Y0089317D03*
D17*
X0217437Y0094317D03*
X0224937Y0094317D03*
X0224937Y0076817D03*
X0217437Y0076817D03*
D18*
X0268733Y0077079D02*
X0273337Y0077079D01*
X0273337Y0080148D01*
X0271035Y0078613D02*
X0271035Y0077079D01*
X0271802Y0075544D02*
X0271035Y0074777D01*
X0271035Y0073242D01*
X0270268Y0072475D01*
X0269500Y0072475D01*
X0268733Y0073242D01*
X0268733Y0074777D01*
X0269500Y0075544D01*
X0268733Y0077079D02*
X0268733Y0080148D01*
X0268733Y0081683D02*
X0268733Y0084752D01*
X0268733Y0083217D02*
X0273337Y0083217D01*
X0272570Y0075544D02*
X0273337Y0074777D01*
X0273337Y0073242D01*
X0272570Y0072475D01*
X0273337Y0070940D02*
X0273337Y0067871D01*
X0268733Y0067871D01*
X0268733Y0070940D01*
X0271035Y0069405D02*
X0271035Y0067871D01*
X0271035Y0066336D02*
X0271802Y0065569D01*
X0271802Y0063267D01*
X0271802Y0064802D02*
X0273337Y0066336D01*
X0271035Y0066336D02*
X0269500Y0066336D01*
X0268733Y0065569D01*
X0268733Y0063267D01*
X0273337Y0063267D01*
X0272570Y0075544D02*
X0271802Y0075544D01*
D19*
X0283244Y0067380D02*
X0283409Y0067479D01*
X0283576Y0067574D01*
X0283745Y0067664D01*
X0283916Y0067751D01*
X0284090Y0067833D01*
X0284265Y0067911D01*
X0284442Y0067985D01*
X0284621Y0068055D01*
X0284801Y0068120D01*
X0284983Y0068181D01*
X0285166Y0068238D01*
X0285351Y0068290D01*
X0285537Y0068338D01*
X0285724Y0068381D01*
X0285912Y0068420D01*
X0286100Y0068455D01*
X0286290Y0068484D01*
X0286480Y0068510D01*
X0286671Y0068530D01*
X0286862Y0068546D01*
X0287054Y0068558D01*
X0287245Y0068565D01*
X0287437Y0068567D01*
X0283468Y0067513D02*
X0283299Y0067414D01*
X0283133Y0067310D01*
X0282969Y0067203D01*
X0282808Y0067092D01*
X0282650Y0066977D01*
X0282495Y0066858D01*
X0282342Y0066735D01*
X0282193Y0066609D01*
X0282047Y0066479D01*
X0281904Y0066345D01*
X0281764Y0066208D01*
X0281628Y0066068D01*
X0281495Y0065924D01*
X0281366Y0065777D01*
X0281240Y0065627D01*
X0281119Y0065474D01*
X0281000Y0065318D01*
X0280886Y0065159D01*
X0280776Y0064998D01*
X0280670Y0064833D01*
X0280567Y0064667D01*
X0280469Y0064497D01*
X0280375Y0064326D01*
X0280285Y0064152D01*
X0280200Y0063976D01*
X0280118Y0063798D01*
X0280042Y0063618D01*
X0279969Y0063436D01*
X0279901Y0063253D01*
X0279838Y0063068D01*
X0279779Y0062881D01*
X0279725Y0062693D01*
X0279675Y0062504D01*
X0279630Y0062314D01*
X0279590Y0062122D01*
X0279554Y0061930D01*
X0279523Y0061737D01*
X0279497Y0061543D01*
X0279475Y0061348D01*
X0279459Y0061153D01*
X0279447Y0060958D01*
X0279439Y0060762D01*
X0279437Y0060567D01*
X0287437Y0068567D02*
X0287625Y0068565D01*
X0287813Y0068558D01*
X0288001Y0068547D01*
X0288189Y0068532D01*
X0288376Y0068512D01*
X0288562Y0068487D01*
X0288748Y0068459D01*
X0288934Y0068426D01*
X0289118Y0068388D01*
X0289301Y0068347D01*
X0289484Y0068301D01*
X0289665Y0068250D01*
X0289845Y0068196D01*
X0290024Y0068137D01*
X0290201Y0068074D01*
X0290377Y0068007D01*
X0290551Y0067936D01*
X0290724Y0067861D01*
X0290894Y0067781D01*
X0291063Y0067698D01*
X0291230Y0067611D01*
X0295437Y0060567D02*
X0295435Y0060372D01*
X0295428Y0060178D01*
X0295416Y0059984D01*
X0295399Y0059790D01*
X0295378Y0059596D01*
X0295352Y0059403D01*
X0295321Y0059211D01*
X0295286Y0059019D01*
X0295246Y0058829D01*
X0295201Y0058639D01*
X0295152Y0058451D01*
X0295098Y0058264D01*
X0295040Y0058078D01*
X0294977Y0057894D01*
X0294910Y0057711D01*
X0294838Y0057530D01*
X0294762Y0057351D01*
X0294682Y0057174D01*
X0294597Y0056999D01*
X0294508Y0056825D01*
X0294415Y0056655D01*
X0294318Y0056486D01*
X0294216Y0056320D01*
X0294111Y0056156D01*
X0294002Y0055995D01*
X0293889Y0055836D01*
X0293772Y0055681D01*
X0293651Y0055528D01*
X0293526Y0055379D01*
X0293398Y0055232D01*
X0293267Y0055088D01*
X0293132Y0054948D01*
X0292993Y0054811D01*
X0292852Y0054678D01*
X0292707Y0054548D01*
X0292559Y0054421D01*
X0292437Y0054367D02*
X0282437Y0054367D01*
X0295437Y0060567D02*
X0295435Y0060759D01*
X0295428Y0060951D01*
X0295416Y0061143D01*
X0295400Y0061335D01*
X0295379Y0061526D01*
X0295354Y0061716D01*
X0295324Y0061906D01*
X0295290Y0062095D01*
X0295251Y0062283D01*
X0295207Y0062470D01*
X0295159Y0062656D01*
X0295107Y0062841D01*
X0295050Y0063025D01*
X0294989Y0063207D01*
X0294923Y0063387D01*
X0294853Y0063566D01*
X0294779Y0063744D01*
X0294701Y0063919D01*
X0294618Y0064093D01*
X0294531Y0064264D01*
X0294441Y0064433D01*
X0294346Y0064600D01*
X0294247Y0064765D01*
X0294144Y0064928D01*
X0294037Y0065087D01*
X0293927Y0065245D01*
X0293813Y0065399D01*
X0293695Y0065551D01*
X0293573Y0065700D01*
X0293448Y0065846D01*
X0293320Y0065988D01*
X0293188Y0066128D01*
X0293053Y0066265D01*
X0292914Y0066398D01*
X0292773Y0066528D01*
X0292628Y0066654D01*
X0292480Y0066777D01*
X0292330Y0066896D01*
X0292176Y0067012D01*
X0292020Y0067124D01*
X0291861Y0067232D01*
X0291700Y0067337D01*
X0291536Y0067437D01*
X0291370Y0067533D01*
X0291202Y0067626D01*
X0279437Y0060567D02*
X0279439Y0060374D01*
X0279446Y0060181D01*
X0279458Y0059989D01*
X0279474Y0059796D01*
X0279495Y0059604D01*
X0279521Y0059413D01*
X0279551Y0059223D01*
X0279586Y0059033D01*
X0279625Y0058844D01*
X0279669Y0058656D01*
X0279717Y0058469D01*
X0279770Y0058283D01*
X0279827Y0058099D01*
X0279889Y0057916D01*
X0279955Y0057735D01*
X0280026Y0057555D01*
X0280100Y0057377D01*
X0280179Y0057201D01*
X0280263Y0057027D01*
X0280350Y0056855D01*
X0280442Y0056685D01*
X0280538Y0056518D01*
X0280637Y0056352D01*
X0280741Y0056189D01*
X0280848Y0056029D01*
X0280960Y0055872D01*
X0281075Y0055717D01*
X0281194Y0055565D01*
X0281316Y0055416D01*
X0281442Y0055269D01*
X0281572Y0055126D01*
X0281705Y0054986D01*
X0281841Y0054850D01*
X0281981Y0054716D01*
X0282123Y0054587D01*
X0282269Y0054460D01*
X0488937Y0053367D02*
X0498937Y0053367D01*
X0501937Y0059567D02*
X0501935Y0059759D01*
X0501928Y0059951D01*
X0501916Y0060143D01*
X0501900Y0060335D01*
X0501879Y0060526D01*
X0501854Y0060716D01*
X0501824Y0060906D01*
X0501790Y0061095D01*
X0501751Y0061283D01*
X0501707Y0061470D01*
X0501659Y0061656D01*
X0501607Y0061841D01*
X0501550Y0062025D01*
X0501489Y0062207D01*
X0501423Y0062387D01*
X0501353Y0062566D01*
X0501279Y0062744D01*
X0501201Y0062919D01*
X0501118Y0063093D01*
X0501031Y0063264D01*
X0500941Y0063433D01*
X0500846Y0063600D01*
X0500747Y0063765D01*
X0500644Y0063928D01*
X0500537Y0064087D01*
X0500427Y0064245D01*
X0500313Y0064399D01*
X0500195Y0064551D01*
X0500073Y0064700D01*
X0499948Y0064846D01*
X0499820Y0064988D01*
X0499688Y0065128D01*
X0499553Y0065265D01*
X0499414Y0065398D01*
X0499273Y0065528D01*
X0499128Y0065654D01*
X0498980Y0065777D01*
X0498830Y0065896D01*
X0498676Y0066012D01*
X0498520Y0066124D01*
X0498361Y0066232D01*
X0498200Y0066337D01*
X0498036Y0066437D01*
X0497870Y0066533D01*
X0497702Y0066626D01*
X0498937Y0070867D02*
X0488937Y0070867D01*
X0489744Y0083880D02*
X0489909Y0083979D01*
X0490076Y0084074D01*
X0490245Y0084164D01*
X0490416Y0084251D01*
X0490590Y0084333D01*
X0490765Y0084411D01*
X0490942Y0084485D01*
X0491121Y0084555D01*
X0491301Y0084620D01*
X0491483Y0084681D01*
X0491666Y0084738D01*
X0491851Y0084790D01*
X0492037Y0084838D01*
X0492224Y0084881D01*
X0492412Y0084920D01*
X0492600Y0084955D01*
X0492790Y0084984D01*
X0492980Y0085010D01*
X0493171Y0085030D01*
X0493362Y0085046D01*
X0493554Y0085058D01*
X0493745Y0085065D01*
X0493937Y0085067D01*
X0489968Y0084013D02*
X0489799Y0083914D01*
X0489633Y0083810D01*
X0489469Y0083703D01*
X0489308Y0083592D01*
X0489150Y0083477D01*
X0488995Y0083358D01*
X0488842Y0083235D01*
X0488693Y0083109D01*
X0488547Y0082979D01*
X0488404Y0082845D01*
X0488264Y0082708D01*
X0488128Y0082568D01*
X0487995Y0082424D01*
X0487866Y0082277D01*
X0487740Y0082127D01*
X0487619Y0081974D01*
X0487500Y0081818D01*
X0487386Y0081659D01*
X0487276Y0081498D01*
X0487170Y0081333D01*
X0487067Y0081167D01*
X0486969Y0080997D01*
X0486875Y0080826D01*
X0486785Y0080652D01*
X0486700Y0080476D01*
X0486618Y0080298D01*
X0486542Y0080118D01*
X0486469Y0079936D01*
X0486401Y0079753D01*
X0486338Y0079568D01*
X0486279Y0079381D01*
X0486225Y0079193D01*
X0486175Y0079004D01*
X0486130Y0078814D01*
X0486090Y0078622D01*
X0486054Y0078430D01*
X0486023Y0078237D01*
X0485997Y0078043D01*
X0485975Y0077848D01*
X0485959Y0077653D01*
X0485947Y0077458D01*
X0485939Y0077262D01*
X0485937Y0077067D01*
X0493937Y0085067D02*
X0494125Y0085065D01*
X0494313Y0085058D01*
X0494501Y0085047D01*
X0494689Y0085032D01*
X0494876Y0085012D01*
X0495062Y0084987D01*
X0495248Y0084959D01*
X0495434Y0084926D01*
X0495618Y0084888D01*
X0495801Y0084847D01*
X0495984Y0084801D01*
X0496165Y0084750D01*
X0496345Y0084696D01*
X0496524Y0084637D01*
X0496701Y0084574D01*
X0496877Y0084507D01*
X0497051Y0084436D01*
X0497224Y0084361D01*
X0497394Y0084281D01*
X0497563Y0084198D01*
X0497730Y0084111D01*
X0501937Y0077067D02*
X0501935Y0076872D01*
X0501928Y0076678D01*
X0501916Y0076484D01*
X0501899Y0076290D01*
X0501878Y0076096D01*
X0501852Y0075903D01*
X0501821Y0075711D01*
X0501786Y0075519D01*
X0501746Y0075329D01*
X0501701Y0075139D01*
X0501652Y0074951D01*
X0501598Y0074764D01*
X0501540Y0074578D01*
X0501477Y0074394D01*
X0501410Y0074211D01*
X0501338Y0074030D01*
X0501262Y0073851D01*
X0501182Y0073674D01*
X0501097Y0073499D01*
X0501008Y0073325D01*
X0500915Y0073155D01*
X0500818Y0072986D01*
X0500716Y0072820D01*
X0500611Y0072656D01*
X0500502Y0072495D01*
X0500389Y0072336D01*
X0500272Y0072181D01*
X0500151Y0072028D01*
X0500026Y0071879D01*
X0499898Y0071732D01*
X0499767Y0071588D01*
X0499632Y0071448D01*
X0499493Y0071311D01*
X0499352Y0071178D01*
X0499207Y0071048D01*
X0499059Y0070921D01*
X0501937Y0077067D02*
X0501935Y0077259D01*
X0501928Y0077451D01*
X0501916Y0077643D01*
X0501900Y0077835D01*
X0501879Y0078026D01*
X0501854Y0078216D01*
X0501824Y0078406D01*
X0501790Y0078595D01*
X0501751Y0078783D01*
X0501707Y0078970D01*
X0501659Y0079156D01*
X0501607Y0079341D01*
X0501550Y0079525D01*
X0501489Y0079707D01*
X0501423Y0079887D01*
X0501353Y0080066D01*
X0501279Y0080244D01*
X0501201Y0080419D01*
X0501118Y0080593D01*
X0501031Y0080764D01*
X0500941Y0080933D01*
X0500846Y0081100D01*
X0500747Y0081265D01*
X0500644Y0081428D01*
X0500537Y0081587D01*
X0500427Y0081745D01*
X0500313Y0081899D01*
X0500195Y0082051D01*
X0500073Y0082200D01*
X0499948Y0082346D01*
X0499820Y0082488D01*
X0499688Y0082628D01*
X0499553Y0082765D01*
X0499414Y0082898D01*
X0499273Y0083028D01*
X0499128Y0083154D01*
X0498980Y0083277D01*
X0498830Y0083396D01*
X0498676Y0083512D01*
X0498520Y0083624D01*
X0498361Y0083732D01*
X0498200Y0083837D01*
X0498036Y0083937D01*
X0497870Y0084033D01*
X0497702Y0084126D01*
X0485937Y0077067D02*
X0485939Y0076874D01*
X0485946Y0076681D01*
X0485958Y0076489D01*
X0485974Y0076296D01*
X0485995Y0076104D01*
X0486021Y0075913D01*
X0486051Y0075723D01*
X0486086Y0075533D01*
X0486125Y0075344D01*
X0486169Y0075156D01*
X0486217Y0074969D01*
X0486270Y0074783D01*
X0486327Y0074599D01*
X0486389Y0074416D01*
X0486455Y0074235D01*
X0486526Y0074055D01*
X0486600Y0073877D01*
X0486679Y0073701D01*
X0486763Y0073527D01*
X0486850Y0073355D01*
X0486942Y0073185D01*
X0487038Y0073018D01*
X0487137Y0072852D01*
X0487241Y0072689D01*
X0487348Y0072529D01*
X0487460Y0072372D01*
X0487575Y0072217D01*
X0487694Y0072065D01*
X0487816Y0071916D01*
X0487942Y0071769D01*
X0488072Y0071626D01*
X0488205Y0071486D01*
X0488341Y0071350D01*
X0488481Y0071216D01*
X0488623Y0071087D01*
X0488769Y0070960D01*
X0489968Y0066513D02*
X0489799Y0066414D01*
X0489633Y0066310D01*
X0489469Y0066203D01*
X0489308Y0066092D01*
X0489150Y0065977D01*
X0488995Y0065858D01*
X0488842Y0065735D01*
X0488693Y0065609D01*
X0488547Y0065479D01*
X0488404Y0065345D01*
X0488264Y0065208D01*
X0488128Y0065068D01*
X0487995Y0064924D01*
X0487866Y0064777D01*
X0487740Y0064627D01*
X0487619Y0064474D01*
X0487500Y0064318D01*
X0487386Y0064159D01*
X0487276Y0063998D01*
X0487170Y0063833D01*
X0487067Y0063667D01*
X0486969Y0063497D01*
X0486875Y0063326D01*
X0486785Y0063152D01*
X0486700Y0062976D01*
X0486618Y0062798D01*
X0486542Y0062618D01*
X0486469Y0062436D01*
X0486401Y0062253D01*
X0486338Y0062068D01*
X0486279Y0061881D01*
X0486225Y0061693D01*
X0486175Y0061504D01*
X0486130Y0061314D01*
X0486090Y0061122D01*
X0486054Y0060930D01*
X0486023Y0060737D01*
X0485997Y0060543D01*
X0485975Y0060348D01*
X0485959Y0060153D01*
X0485947Y0059958D01*
X0485939Y0059762D01*
X0485937Y0059567D01*
X0489744Y0066380D02*
X0489909Y0066479D01*
X0490076Y0066574D01*
X0490245Y0066664D01*
X0490416Y0066751D01*
X0490590Y0066833D01*
X0490765Y0066911D01*
X0490942Y0066985D01*
X0491121Y0067055D01*
X0491301Y0067120D01*
X0491483Y0067181D01*
X0491666Y0067238D01*
X0491851Y0067290D01*
X0492037Y0067338D01*
X0492224Y0067381D01*
X0492412Y0067420D01*
X0492600Y0067455D01*
X0492790Y0067484D01*
X0492980Y0067510D01*
X0493171Y0067530D01*
X0493362Y0067546D01*
X0493554Y0067558D01*
X0493745Y0067565D01*
X0493937Y0067567D01*
X0494125Y0067565D01*
X0494313Y0067558D01*
X0494501Y0067547D01*
X0494689Y0067532D01*
X0494876Y0067512D01*
X0495062Y0067487D01*
X0495248Y0067459D01*
X0495434Y0067426D01*
X0495618Y0067388D01*
X0495801Y0067347D01*
X0495984Y0067301D01*
X0496165Y0067250D01*
X0496345Y0067196D01*
X0496524Y0067137D01*
X0496701Y0067074D01*
X0496877Y0067007D01*
X0497051Y0066936D01*
X0497224Y0066861D01*
X0497394Y0066781D01*
X0497563Y0066698D01*
X0497730Y0066611D01*
X0501937Y0059567D02*
X0501935Y0059372D01*
X0501928Y0059178D01*
X0501916Y0058984D01*
X0501899Y0058790D01*
X0501878Y0058596D01*
X0501852Y0058403D01*
X0501821Y0058211D01*
X0501786Y0058019D01*
X0501746Y0057829D01*
X0501701Y0057639D01*
X0501652Y0057451D01*
X0501598Y0057264D01*
X0501540Y0057078D01*
X0501477Y0056894D01*
X0501410Y0056711D01*
X0501338Y0056530D01*
X0501262Y0056351D01*
X0501182Y0056174D01*
X0501097Y0055999D01*
X0501008Y0055825D01*
X0500915Y0055655D01*
X0500818Y0055486D01*
X0500716Y0055320D01*
X0500611Y0055156D01*
X0500502Y0054995D01*
X0500389Y0054836D01*
X0500272Y0054681D01*
X0500151Y0054528D01*
X0500026Y0054379D01*
X0499898Y0054232D01*
X0499767Y0054088D01*
X0499632Y0053948D01*
X0499493Y0053811D01*
X0499352Y0053678D01*
X0499207Y0053548D01*
X0499059Y0053421D01*
X0488769Y0053460D02*
X0488623Y0053587D01*
X0488481Y0053716D01*
X0488341Y0053850D01*
X0488205Y0053986D01*
X0488072Y0054126D01*
X0487942Y0054269D01*
X0487816Y0054416D01*
X0487694Y0054565D01*
X0487575Y0054717D01*
X0487460Y0054872D01*
X0487348Y0055029D01*
X0487241Y0055189D01*
X0487137Y0055352D01*
X0487038Y0055518D01*
X0486942Y0055685D01*
X0486850Y0055855D01*
X0486763Y0056027D01*
X0486679Y0056201D01*
X0486600Y0056377D01*
X0486526Y0056555D01*
X0486455Y0056735D01*
X0486389Y0056916D01*
X0486327Y0057099D01*
X0486270Y0057283D01*
X0486217Y0057469D01*
X0486169Y0057656D01*
X0486125Y0057844D01*
X0486086Y0058033D01*
X0486051Y0058223D01*
X0486021Y0058413D01*
X0485995Y0058604D01*
X0485974Y0058796D01*
X0485958Y0058989D01*
X0485946Y0059181D01*
X0485939Y0059374D01*
X0485937Y0059567D01*
X0497906Y0087621D02*
X0498075Y0087720D01*
X0498241Y0087824D01*
X0498405Y0087931D01*
X0498566Y0088042D01*
X0498724Y0088157D01*
X0498879Y0088276D01*
X0499032Y0088399D01*
X0499181Y0088525D01*
X0499327Y0088655D01*
X0499470Y0088789D01*
X0499610Y0088926D01*
X0499746Y0089066D01*
X0499879Y0089210D01*
X0500008Y0089357D01*
X0500134Y0089507D01*
X0500255Y0089660D01*
X0500374Y0089816D01*
X0500488Y0089975D01*
X0500598Y0090136D01*
X0500704Y0090301D01*
X0500807Y0090467D01*
X0500905Y0090637D01*
X0500999Y0090808D01*
X0501089Y0090982D01*
X0501174Y0091158D01*
X0501256Y0091336D01*
X0501332Y0091516D01*
X0501405Y0091698D01*
X0501473Y0091881D01*
X0501536Y0092066D01*
X0501595Y0092253D01*
X0501649Y0092441D01*
X0501699Y0092630D01*
X0501744Y0092820D01*
X0501784Y0093012D01*
X0501820Y0093204D01*
X0501851Y0093397D01*
X0501877Y0093591D01*
X0501899Y0093786D01*
X0501915Y0093981D01*
X0501927Y0094176D01*
X0501935Y0094372D01*
X0501937Y0094567D01*
X0498130Y0087754D02*
X0497965Y0087655D01*
X0497798Y0087560D01*
X0497629Y0087470D01*
X0497458Y0087383D01*
X0497284Y0087301D01*
X0497109Y0087223D01*
X0496932Y0087149D01*
X0496753Y0087079D01*
X0496573Y0087014D01*
X0496391Y0086953D01*
X0496208Y0086896D01*
X0496023Y0086844D01*
X0495837Y0086796D01*
X0495650Y0086753D01*
X0495462Y0086714D01*
X0495274Y0086679D01*
X0495084Y0086650D01*
X0494894Y0086624D01*
X0494703Y0086604D01*
X0494512Y0086588D01*
X0494320Y0086576D01*
X0494129Y0086569D01*
X0493937Y0086567D01*
X0493749Y0086569D01*
X0493561Y0086576D01*
X0493373Y0086587D01*
X0493185Y0086602D01*
X0492998Y0086622D01*
X0492812Y0086647D01*
X0492626Y0086675D01*
X0492440Y0086708D01*
X0492256Y0086746D01*
X0492073Y0086787D01*
X0491890Y0086833D01*
X0491709Y0086884D01*
X0491529Y0086938D01*
X0491350Y0086997D01*
X0491173Y0087060D01*
X0490997Y0087127D01*
X0490823Y0087198D01*
X0490650Y0087273D01*
X0490480Y0087353D01*
X0490311Y0087436D01*
X0490144Y0087523D01*
X0485937Y0094567D02*
X0485939Y0094762D01*
X0485946Y0094956D01*
X0485958Y0095150D01*
X0485975Y0095344D01*
X0485996Y0095538D01*
X0486022Y0095731D01*
X0486053Y0095923D01*
X0486088Y0096115D01*
X0486128Y0096305D01*
X0486173Y0096495D01*
X0486222Y0096683D01*
X0486276Y0096870D01*
X0486334Y0097056D01*
X0486397Y0097240D01*
X0486464Y0097423D01*
X0486536Y0097604D01*
X0486612Y0097783D01*
X0486692Y0097960D01*
X0486777Y0098135D01*
X0486866Y0098309D01*
X0486959Y0098479D01*
X0487056Y0098648D01*
X0487158Y0098814D01*
X0487263Y0098978D01*
X0487372Y0099139D01*
X0487485Y0099298D01*
X0487602Y0099453D01*
X0487723Y0099606D01*
X0487848Y0099755D01*
X0487976Y0099902D01*
X0488107Y0100046D01*
X0488242Y0100186D01*
X0488381Y0100323D01*
X0488522Y0100456D01*
X0488667Y0100586D01*
X0488815Y0100713D01*
X0488937Y0100767D02*
X0498937Y0100767D01*
X0485937Y0094567D02*
X0485939Y0094375D01*
X0485946Y0094183D01*
X0485958Y0093991D01*
X0485974Y0093799D01*
X0485995Y0093608D01*
X0486020Y0093418D01*
X0486050Y0093228D01*
X0486084Y0093039D01*
X0486123Y0092851D01*
X0486167Y0092664D01*
X0486215Y0092478D01*
X0486267Y0092293D01*
X0486324Y0092109D01*
X0486385Y0091927D01*
X0486451Y0091747D01*
X0486521Y0091568D01*
X0486595Y0091390D01*
X0486673Y0091215D01*
X0486756Y0091041D01*
X0486843Y0090870D01*
X0486933Y0090701D01*
X0487028Y0090534D01*
X0487127Y0090369D01*
X0487230Y0090206D01*
X0487337Y0090047D01*
X0487447Y0089889D01*
X0487561Y0089735D01*
X0487679Y0089583D01*
X0487801Y0089434D01*
X0487926Y0089288D01*
X0488054Y0089146D01*
X0488186Y0089006D01*
X0488321Y0088869D01*
X0488460Y0088736D01*
X0488601Y0088606D01*
X0488746Y0088480D01*
X0488894Y0088357D01*
X0489044Y0088238D01*
X0489198Y0088122D01*
X0489354Y0088010D01*
X0489513Y0087902D01*
X0489674Y0087797D01*
X0489838Y0087697D01*
X0490004Y0087601D01*
X0490172Y0087508D01*
X0501937Y0094567D02*
X0501935Y0094760D01*
X0501928Y0094953D01*
X0501916Y0095145D01*
X0501900Y0095338D01*
X0501879Y0095530D01*
X0501853Y0095721D01*
X0501823Y0095911D01*
X0501788Y0096101D01*
X0501749Y0096290D01*
X0501705Y0096478D01*
X0501657Y0096665D01*
X0501604Y0096851D01*
X0501547Y0097035D01*
X0501485Y0097218D01*
X0501419Y0097399D01*
X0501348Y0097579D01*
X0501274Y0097757D01*
X0501195Y0097933D01*
X0501111Y0098107D01*
X0501024Y0098279D01*
X0500932Y0098449D01*
X0500836Y0098616D01*
X0500737Y0098782D01*
X0500633Y0098945D01*
X0500526Y0099105D01*
X0500414Y0099262D01*
X0500299Y0099417D01*
X0500180Y0099569D01*
X0500058Y0099718D01*
X0499932Y0099865D01*
X0499802Y0100008D01*
X0499669Y0100148D01*
X0499533Y0100284D01*
X0499393Y0100418D01*
X0499251Y0100547D01*
X0499105Y0100674D01*
X0497906Y0105121D02*
X0498075Y0105220D01*
X0498241Y0105324D01*
X0498405Y0105431D01*
X0498566Y0105542D01*
X0498724Y0105657D01*
X0498879Y0105776D01*
X0499032Y0105899D01*
X0499181Y0106025D01*
X0499327Y0106155D01*
X0499470Y0106289D01*
X0499610Y0106426D01*
X0499746Y0106566D01*
X0499879Y0106710D01*
X0500008Y0106857D01*
X0500134Y0107007D01*
X0500255Y0107160D01*
X0500374Y0107316D01*
X0500488Y0107475D01*
X0500598Y0107636D01*
X0500704Y0107801D01*
X0500807Y0107967D01*
X0500905Y0108137D01*
X0500999Y0108308D01*
X0501089Y0108482D01*
X0501174Y0108658D01*
X0501256Y0108836D01*
X0501332Y0109016D01*
X0501405Y0109198D01*
X0501473Y0109381D01*
X0501536Y0109566D01*
X0501595Y0109753D01*
X0501649Y0109941D01*
X0501699Y0110130D01*
X0501744Y0110320D01*
X0501784Y0110512D01*
X0501820Y0110704D01*
X0501851Y0110897D01*
X0501877Y0111091D01*
X0501899Y0111286D01*
X0501915Y0111481D01*
X0501927Y0111676D01*
X0501935Y0111872D01*
X0501937Y0112067D01*
X0498130Y0105254D02*
X0497965Y0105155D01*
X0497798Y0105060D01*
X0497629Y0104970D01*
X0497458Y0104883D01*
X0497284Y0104801D01*
X0497109Y0104723D01*
X0496932Y0104649D01*
X0496753Y0104579D01*
X0496573Y0104514D01*
X0496391Y0104453D01*
X0496208Y0104396D01*
X0496023Y0104344D01*
X0495837Y0104296D01*
X0495650Y0104253D01*
X0495462Y0104214D01*
X0495274Y0104179D01*
X0495084Y0104150D01*
X0494894Y0104124D01*
X0494703Y0104104D01*
X0494512Y0104088D01*
X0494320Y0104076D01*
X0494129Y0104069D01*
X0493937Y0104067D01*
X0493749Y0104069D01*
X0493561Y0104076D01*
X0493373Y0104087D01*
X0493185Y0104102D01*
X0492998Y0104122D01*
X0492812Y0104147D01*
X0492626Y0104175D01*
X0492440Y0104208D01*
X0492256Y0104246D01*
X0492073Y0104287D01*
X0491890Y0104333D01*
X0491709Y0104384D01*
X0491529Y0104438D01*
X0491350Y0104497D01*
X0491173Y0104560D01*
X0490997Y0104627D01*
X0490823Y0104698D01*
X0490650Y0104773D01*
X0490480Y0104853D01*
X0490311Y0104936D01*
X0490144Y0105023D01*
X0485937Y0112067D02*
X0485939Y0112262D01*
X0485946Y0112456D01*
X0485958Y0112650D01*
X0485975Y0112844D01*
X0485996Y0113038D01*
X0486022Y0113231D01*
X0486053Y0113423D01*
X0486088Y0113615D01*
X0486128Y0113805D01*
X0486173Y0113995D01*
X0486222Y0114183D01*
X0486276Y0114370D01*
X0486334Y0114556D01*
X0486397Y0114740D01*
X0486464Y0114923D01*
X0486536Y0115104D01*
X0486612Y0115283D01*
X0486692Y0115460D01*
X0486777Y0115635D01*
X0486866Y0115809D01*
X0486959Y0115979D01*
X0487056Y0116148D01*
X0487158Y0116314D01*
X0487263Y0116478D01*
X0487372Y0116639D01*
X0487485Y0116798D01*
X0487602Y0116953D01*
X0487723Y0117106D01*
X0487848Y0117255D01*
X0487976Y0117402D01*
X0488107Y0117546D01*
X0488242Y0117686D01*
X0488381Y0117823D01*
X0488522Y0117956D01*
X0488667Y0118086D01*
X0488815Y0118213D01*
X0488937Y0118267D02*
X0498937Y0118267D01*
X0485937Y0112067D02*
X0485939Y0111875D01*
X0485946Y0111683D01*
X0485958Y0111491D01*
X0485974Y0111299D01*
X0485995Y0111108D01*
X0486020Y0110918D01*
X0486050Y0110728D01*
X0486084Y0110539D01*
X0486123Y0110351D01*
X0486167Y0110164D01*
X0486215Y0109978D01*
X0486267Y0109793D01*
X0486324Y0109609D01*
X0486385Y0109427D01*
X0486451Y0109247D01*
X0486521Y0109068D01*
X0486595Y0108890D01*
X0486673Y0108715D01*
X0486756Y0108541D01*
X0486843Y0108370D01*
X0486933Y0108201D01*
X0487028Y0108034D01*
X0487127Y0107869D01*
X0487230Y0107706D01*
X0487337Y0107547D01*
X0487447Y0107389D01*
X0487561Y0107235D01*
X0487679Y0107083D01*
X0487801Y0106934D01*
X0487926Y0106788D01*
X0488054Y0106646D01*
X0488186Y0106506D01*
X0488321Y0106369D01*
X0488460Y0106236D01*
X0488601Y0106106D01*
X0488746Y0105980D01*
X0488894Y0105857D01*
X0489044Y0105738D01*
X0489198Y0105622D01*
X0489354Y0105510D01*
X0489513Y0105402D01*
X0489674Y0105297D01*
X0489838Y0105197D01*
X0490004Y0105101D01*
X0490172Y0105008D01*
X0501937Y0112067D02*
X0501935Y0112260D01*
X0501928Y0112453D01*
X0501916Y0112645D01*
X0501900Y0112838D01*
X0501879Y0113030D01*
X0501853Y0113221D01*
X0501823Y0113411D01*
X0501788Y0113601D01*
X0501749Y0113790D01*
X0501705Y0113978D01*
X0501657Y0114165D01*
X0501604Y0114351D01*
X0501547Y0114535D01*
X0501485Y0114718D01*
X0501419Y0114899D01*
X0501348Y0115079D01*
X0501274Y0115257D01*
X0501195Y0115433D01*
X0501111Y0115607D01*
X0501024Y0115779D01*
X0500932Y0115949D01*
X0500836Y0116116D01*
X0500737Y0116282D01*
X0500633Y0116445D01*
X0500526Y0116605D01*
X0500414Y0116762D01*
X0500299Y0116917D01*
X0500180Y0117069D01*
X0500058Y0117218D01*
X0499932Y0117365D01*
X0499802Y0117508D01*
X0499669Y0117648D01*
X0499533Y0117784D01*
X0499393Y0117918D01*
X0499251Y0118047D01*
X0499105Y0118174D01*
D20*
X0278559Y0111217D02*
X0278559Y0102161D01*
X0231315Y0102161D02*
X0228165Y0102161D01*
X0228165Y0111217D01*
X0231315Y0111217D01*
D21*
X0231315Y0118303D01*
X0278559Y0118303D01*
X0278559Y0111217D01*
X0278559Y0102161D02*
X0278559Y0099012D01*
X0231315Y0099012D01*
X0231315Y0102161D01*
M02*
