G75*
%MOIN*%
%OFA0B0*%
%FSLAX25Y25*%
%IPPOS*%
%LPD*%
%AMOC8*
5,1,8,0,0,1.08239X$1,22.5*
%
%ADD10C,0.00300*%
%ADD11C,0.00800*%
%ADD12C,0.00100*%
%ADD13C,0.00600*%
%ADD14C,0.00400*%
%ADD15R,0.02000X0.10000*%
%ADD16R,0.07500X0.03000*%
%ADD17C,0.00200*%
%ADD18R,0.07000X0.01500*%
%ADD19R,0.02000X0.05500*%
%ADD20C,0.00500*%
%ADD21R,0.05256X0.02559*%
D10*
X0049559Y0029693D02*
X0049559Y0031144D01*
X0050042Y0031628D01*
X0051010Y0031628D01*
X0051493Y0031144D01*
X0051493Y0029693D01*
X0051493Y0030660D02*
X0052461Y0031628D01*
X0052461Y0032639D02*
X0052461Y0034574D01*
X0052461Y0033607D02*
X0049559Y0033607D01*
X0050526Y0032639D01*
X0059559Y0033123D02*
X0059559Y0034090D01*
X0060042Y0034574D01*
X0060526Y0034574D01*
X0062461Y0032639D01*
X0062461Y0034574D01*
X0060042Y0032639D02*
X0059559Y0033123D01*
X0060042Y0031628D02*
X0061010Y0031628D01*
X0061493Y0031144D01*
X0061493Y0029693D01*
X0061493Y0030660D02*
X0062461Y0031628D01*
X0060042Y0031628D02*
X0059559Y0031144D01*
X0059559Y0029693D01*
X0062461Y0029693D01*
X0052461Y0029693D02*
X0049559Y0029693D01*
X0200651Y0064788D02*
X0203399Y0064637D01*
X0202774Y0067318D01*
X0200860Y0066768D02*
X0199173Y0068184D01*
X0198028Y0069550D02*
X0195560Y0069550D01*
X0195560Y0073253D01*
X0198028Y0073253D01*
X0194345Y0072636D02*
X0193728Y0073253D01*
X0191877Y0073253D01*
X0191877Y0069550D01*
X0193728Y0069550D01*
X0194345Y0070167D01*
X0194345Y0072636D01*
X0195560Y0071402D02*
X0196794Y0071402D01*
X0199243Y0071402D02*
X0201712Y0071402D01*
X0202926Y0073253D02*
X0205395Y0071402D01*
X0202926Y0069550D01*
X0190656Y0069550D02*
X0189421Y0069550D01*
X0190038Y0069550D02*
X0190038Y0073253D01*
X0189421Y0073253D02*
X0190656Y0073253D01*
X0188207Y0072636D02*
X0187590Y0073253D01*
X0186355Y0073253D01*
X0185738Y0072636D01*
X0185738Y0072019D01*
X0186355Y0071402D01*
X0187590Y0071402D01*
X0188207Y0070784D01*
X0188207Y0070167D01*
X0187590Y0069550D01*
X0186355Y0069550D01*
X0185738Y0070167D01*
X0180840Y0070167D02*
X0180223Y0069550D01*
X0178989Y0069550D01*
X0178372Y0070167D01*
X0177151Y0069550D02*
X0175916Y0069550D01*
X0176533Y0069550D02*
X0176533Y0073253D01*
X0175916Y0073253D02*
X0177151Y0073253D01*
X0178372Y0072636D02*
X0178989Y0073253D01*
X0180223Y0073253D01*
X0180840Y0072636D01*
X0180223Y0071402D02*
X0180840Y0070784D01*
X0180840Y0070167D01*
X0180223Y0071402D02*
X0178989Y0071402D01*
X0178372Y0072019D01*
X0178372Y0072636D01*
X0174702Y0073253D02*
X0174702Y0069550D01*
X0172233Y0069550D02*
X0172233Y0073253D01*
X0171019Y0073253D02*
X0168550Y0073253D01*
X0169784Y0073253D02*
X0169784Y0069550D01*
X0172233Y0071402D02*
X0174702Y0071402D01*
X0174085Y0075550D02*
X0172850Y0075550D01*
X0172233Y0076167D01*
X0172233Y0077402D01*
X0172850Y0078019D01*
X0174085Y0078019D01*
X0174702Y0077402D01*
X0174702Y0076784D01*
X0172233Y0076784D01*
X0171019Y0077402D02*
X0168550Y0077402D01*
X0168550Y0079253D02*
X0168550Y0075550D01*
X0171019Y0075550D02*
X0171019Y0079253D01*
X0176533Y0078019D02*
X0177768Y0078019D01*
X0178385Y0077402D01*
X0178385Y0075550D01*
X0176533Y0075550D01*
X0175916Y0076167D01*
X0176533Y0076784D01*
X0178385Y0076784D01*
X0179599Y0076167D02*
X0179599Y0077402D01*
X0180217Y0078019D01*
X0182068Y0078019D01*
X0182068Y0079253D02*
X0182068Y0075550D01*
X0180217Y0075550D01*
X0179599Y0076167D01*
X0183283Y0076167D02*
X0183900Y0075550D01*
X0185134Y0075550D01*
X0186966Y0075550D02*
X0186966Y0078019D01*
X0188200Y0078019D02*
X0188817Y0078019D01*
X0188200Y0078019D02*
X0186966Y0076784D01*
X0185751Y0076784D02*
X0183283Y0076784D01*
X0183283Y0076167D02*
X0183283Y0077402D01*
X0183900Y0078019D01*
X0185134Y0078019D01*
X0185751Y0077402D01*
X0185751Y0076784D01*
X0193718Y0077402D02*
X0194335Y0078019D01*
X0196187Y0078019D01*
X0197401Y0077402D02*
X0197401Y0076167D01*
X0198018Y0075550D01*
X0199253Y0075550D01*
X0199870Y0076167D01*
X0199870Y0077402D01*
X0199253Y0078019D01*
X0198018Y0078019D01*
X0197401Y0077402D01*
X0196187Y0076167D02*
X0195570Y0076784D01*
X0194335Y0076784D01*
X0193718Y0077402D01*
X0195570Y0075550D02*
X0196187Y0076167D01*
X0195570Y0075550D02*
X0193718Y0075550D01*
X0201084Y0076167D02*
X0201702Y0075550D01*
X0203553Y0075550D01*
X0204768Y0075550D02*
X0204768Y0079253D01*
X0203553Y0078019D02*
X0201702Y0078019D01*
X0201084Y0077402D01*
X0201084Y0076167D01*
X0204768Y0076784D02*
X0206619Y0075550D01*
X0207837Y0076167D02*
X0208454Y0075550D01*
X0209688Y0075550D01*
X0207837Y0076167D02*
X0207837Y0077402D01*
X0208454Y0078019D01*
X0209688Y0078019D01*
X0210306Y0077402D01*
X0210306Y0076784D01*
X0207837Y0076784D01*
X0206619Y0078019D02*
X0204768Y0076784D01*
X0211520Y0078019D02*
X0212754Y0078019D01*
X0212137Y0078636D02*
X0212137Y0076167D01*
X0212754Y0075550D01*
X0213975Y0075550D02*
X0215827Y0075550D01*
X0216444Y0076167D01*
X0215827Y0076784D01*
X0214593Y0076784D01*
X0213975Y0077402D01*
X0214593Y0078019D01*
X0216444Y0078019D01*
X0361169Y0078091D02*
X0361169Y0075589D01*
X0363747Y0075589D02*
X0365415Y0075589D01*
X0366326Y0075589D02*
X0366326Y0078091D01*
X0367577Y0078091D01*
X0367994Y0077674D01*
X0367994Y0076840D01*
X0367577Y0076423D01*
X0366326Y0076423D01*
X0367160Y0076423D02*
X0367994Y0075589D01*
X0368904Y0075589D02*
X0368904Y0078091D01*
X0370155Y0078091D01*
X0370572Y0077674D01*
X0370572Y0076840D01*
X0370155Y0076423D01*
X0368904Y0076423D01*
X0369738Y0076423D02*
X0370572Y0075589D01*
X0371482Y0075589D02*
X0372316Y0075589D01*
X0371899Y0075589D02*
X0371899Y0078091D01*
X0371482Y0078091D02*
X0372316Y0078091D01*
X0373201Y0078091D02*
X0374869Y0078091D01*
X0374035Y0078091D02*
X0374035Y0075589D01*
X0375779Y0075589D02*
X0377447Y0075589D01*
X0375779Y0075589D02*
X0375779Y0078091D01*
X0377447Y0078091D01*
X0376613Y0076840D02*
X0375779Y0076840D01*
X0365415Y0078091D02*
X0363747Y0078091D01*
X0363747Y0075589D01*
X0363747Y0076840D02*
X0364581Y0076840D01*
X0362837Y0078091D02*
X0361169Y0078091D01*
X0361169Y0076840D02*
X0362003Y0076840D01*
X0361517Y0052752D02*
X0361517Y0049850D01*
X0360550Y0049850D02*
X0362485Y0049850D01*
X0363497Y0050334D02*
X0363980Y0049850D01*
X0364948Y0049850D01*
X0365431Y0050334D01*
X0365431Y0052269D01*
X0363497Y0050334D01*
X0363497Y0052269D01*
X0363980Y0052752D01*
X0364948Y0052752D01*
X0365431Y0052269D01*
X0366443Y0051785D02*
X0366443Y0050334D01*
X0366927Y0049850D01*
X0368378Y0049850D01*
X0368378Y0051785D01*
X0369390Y0051301D02*
X0370357Y0051301D01*
X0369873Y0052269D02*
X0370357Y0052752D01*
X0369873Y0052269D02*
X0369873Y0049850D01*
X0361517Y0052752D02*
X0360550Y0051785D01*
X0361176Y0041152D02*
X0362144Y0041152D01*
X0362628Y0040669D01*
X0360693Y0038734D01*
X0361176Y0038250D01*
X0362144Y0038250D01*
X0362628Y0038734D01*
X0362628Y0040669D01*
X0363639Y0040185D02*
X0363639Y0038734D01*
X0364123Y0038250D01*
X0365574Y0038250D01*
X0365574Y0040185D01*
X0366586Y0039701D02*
X0367553Y0039701D01*
X0367069Y0040669D02*
X0367553Y0041152D01*
X0367069Y0040669D02*
X0367069Y0038250D01*
X0360693Y0038734D02*
X0360693Y0040669D01*
X0361176Y0041152D01*
X0358714Y0041152D02*
X0358714Y0038250D01*
X0359681Y0038250D02*
X0357746Y0038250D01*
X0357746Y0040185D02*
X0358714Y0041152D01*
X0361169Y0015591D02*
X0362837Y0015591D01*
X0363747Y0015591D02*
X0363747Y0013089D01*
X0365415Y0013089D01*
X0366326Y0013089D02*
X0366326Y0015591D01*
X0367577Y0015591D01*
X0367994Y0015174D01*
X0367994Y0014340D01*
X0367577Y0013923D01*
X0366326Y0013923D01*
X0367160Y0013923D02*
X0367994Y0013089D01*
X0368904Y0013089D02*
X0368904Y0015591D01*
X0370155Y0015591D01*
X0370572Y0015174D01*
X0370572Y0014340D01*
X0370155Y0013923D01*
X0368904Y0013923D01*
X0369738Y0013923D02*
X0370572Y0013089D01*
X0371482Y0013089D02*
X0372316Y0013089D01*
X0371899Y0013089D02*
X0371899Y0015591D01*
X0371482Y0015591D02*
X0372316Y0015591D01*
X0373201Y0015591D02*
X0374869Y0015591D01*
X0374035Y0015591D02*
X0374035Y0013089D01*
X0375779Y0013089D02*
X0377447Y0013089D01*
X0376613Y0014340D02*
X0375779Y0014340D01*
X0375779Y0015591D02*
X0375779Y0013089D01*
X0364581Y0014340D02*
X0363747Y0014340D01*
X0362003Y0014340D02*
X0361169Y0014340D01*
X0361169Y0013089D02*
X0361169Y0015591D01*
X0363747Y0015591D02*
X0365415Y0015591D01*
X0375779Y0015591D02*
X0377447Y0015591D01*
D11*
X0378749Y0020993D02*
X0359851Y0020993D01*
X0359851Y0007607D01*
X0378749Y0007607D01*
X0378749Y0020993D01*
X0371300Y0028800D02*
X0367300Y0028800D01*
X0354457Y0034300D02*
X0354460Y0034542D01*
X0354469Y0034783D01*
X0354484Y0035024D01*
X0354504Y0035265D01*
X0354531Y0035505D01*
X0354564Y0035744D01*
X0354602Y0035983D01*
X0354646Y0036220D01*
X0354696Y0036457D01*
X0354752Y0036692D01*
X0354814Y0036925D01*
X0354881Y0037157D01*
X0354954Y0037388D01*
X0355032Y0037616D01*
X0355117Y0037842D01*
X0355206Y0038067D01*
X0355301Y0038289D01*
X0355402Y0038508D01*
X0355508Y0038726D01*
X0355619Y0038940D01*
X0355736Y0039152D01*
X0355857Y0039360D01*
X0355984Y0039566D01*
X0356116Y0039768D01*
X0356253Y0039968D01*
X0356394Y0040163D01*
X0356540Y0040356D01*
X0356691Y0040544D01*
X0356847Y0040729D01*
X0357007Y0040910D01*
X0357171Y0041087D01*
X0357340Y0041260D01*
X0357513Y0041429D01*
X0357690Y0041593D01*
X0357871Y0041753D01*
X0358056Y0041909D01*
X0358244Y0042060D01*
X0358437Y0042206D01*
X0358632Y0042347D01*
X0358832Y0042484D01*
X0359034Y0042616D01*
X0359240Y0042743D01*
X0359448Y0042864D01*
X0359660Y0042981D01*
X0359874Y0043092D01*
X0360092Y0043198D01*
X0360311Y0043299D01*
X0360533Y0043394D01*
X0360758Y0043483D01*
X0360984Y0043568D01*
X0361212Y0043646D01*
X0361443Y0043719D01*
X0361675Y0043786D01*
X0361908Y0043848D01*
X0362143Y0043904D01*
X0362380Y0043954D01*
X0362617Y0043998D01*
X0362856Y0044036D01*
X0363095Y0044069D01*
X0363335Y0044096D01*
X0363576Y0044116D01*
X0363817Y0044131D01*
X0364058Y0044140D01*
X0364300Y0044143D01*
X0364542Y0044140D01*
X0364783Y0044131D01*
X0365024Y0044116D01*
X0365265Y0044096D01*
X0365505Y0044069D01*
X0365744Y0044036D01*
X0365983Y0043998D01*
X0366220Y0043954D01*
X0366457Y0043904D01*
X0366692Y0043848D01*
X0366925Y0043786D01*
X0367157Y0043719D01*
X0367388Y0043646D01*
X0367616Y0043568D01*
X0367842Y0043483D01*
X0368067Y0043394D01*
X0368289Y0043299D01*
X0368508Y0043198D01*
X0368726Y0043092D01*
X0368940Y0042981D01*
X0369152Y0042864D01*
X0369360Y0042743D01*
X0369566Y0042616D01*
X0369768Y0042484D01*
X0369968Y0042347D01*
X0370163Y0042206D01*
X0370356Y0042060D01*
X0370544Y0041909D01*
X0370729Y0041753D01*
X0370910Y0041593D01*
X0371087Y0041429D01*
X0371260Y0041260D01*
X0371429Y0041087D01*
X0371593Y0040910D01*
X0371753Y0040729D01*
X0371909Y0040544D01*
X0372060Y0040356D01*
X0372206Y0040163D01*
X0372347Y0039968D01*
X0372484Y0039768D01*
X0372616Y0039566D01*
X0372743Y0039360D01*
X0372864Y0039152D01*
X0372981Y0038940D01*
X0373092Y0038726D01*
X0373198Y0038508D01*
X0373299Y0038289D01*
X0373394Y0038067D01*
X0373483Y0037842D01*
X0373568Y0037616D01*
X0373646Y0037388D01*
X0373719Y0037157D01*
X0373786Y0036925D01*
X0373848Y0036692D01*
X0373904Y0036457D01*
X0373954Y0036220D01*
X0373998Y0035983D01*
X0374036Y0035744D01*
X0374069Y0035505D01*
X0374096Y0035265D01*
X0374116Y0035024D01*
X0374131Y0034783D01*
X0374140Y0034542D01*
X0374143Y0034300D01*
X0374140Y0034058D01*
X0374131Y0033817D01*
X0374116Y0033576D01*
X0374096Y0033335D01*
X0374069Y0033095D01*
X0374036Y0032856D01*
X0373998Y0032617D01*
X0373954Y0032380D01*
X0373904Y0032143D01*
X0373848Y0031908D01*
X0373786Y0031675D01*
X0373719Y0031443D01*
X0373646Y0031212D01*
X0373568Y0030984D01*
X0373483Y0030758D01*
X0373394Y0030533D01*
X0373299Y0030311D01*
X0373198Y0030092D01*
X0373092Y0029874D01*
X0372981Y0029660D01*
X0372864Y0029448D01*
X0372743Y0029240D01*
X0372616Y0029034D01*
X0372484Y0028832D01*
X0372347Y0028632D01*
X0372206Y0028437D01*
X0372060Y0028244D01*
X0371909Y0028056D01*
X0371753Y0027871D01*
X0371593Y0027690D01*
X0371429Y0027513D01*
X0371260Y0027340D01*
X0371087Y0027171D01*
X0370910Y0027007D01*
X0370729Y0026847D01*
X0370544Y0026691D01*
X0370356Y0026540D01*
X0370163Y0026394D01*
X0369968Y0026253D01*
X0369768Y0026116D01*
X0369566Y0025984D01*
X0369360Y0025857D01*
X0369152Y0025736D01*
X0368940Y0025619D01*
X0368726Y0025508D01*
X0368508Y0025402D01*
X0368289Y0025301D01*
X0368067Y0025206D01*
X0367842Y0025117D01*
X0367616Y0025032D01*
X0367388Y0024954D01*
X0367157Y0024881D01*
X0366925Y0024814D01*
X0366692Y0024752D01*
X0366457Y0024696D01*
X0366220Y0024646D01*
X0365983Y0024602D01*
X0365744Y0024564D01*
X0365505Y0024531D01*
X0365265Y0024504D01*
X0365024Y0024484D01*
X0364783Y0024469D01*
X0364542Y0024460D01*
X0364300Y0024457D01*
X0364058Y0024460D01*
X0363817Y0024469D01*
X0363576Y0024484D01*
X0363335Y0024504D01*
X0363095Y0024531D01*
X0362856Y0024564D01*
X0362617Y0024602D01*
X0362380Y0024646D01*
X0362143Y0024696D01*
X0361908Y0024752D01*
X0361675Y0024814D01*
X0361443Y0024881D01*
X0361212Y0024954D01*
X0360984Y0025032D01*
X0360758Y0025117D01*
X0360533Y0025206D01*
X0360311Y0025301D01*
X0360092Y0025402D01*
X0359874Y0025508D01*
X0359660Y0025619D01*
X0359448Y0025736D01*
X0359240Y0025857D01*
X0359034Y0025984D01*
X0358832Y0026116D01*
X0358632Y0026253D01*
X0358437Y0026394D01*
X0358244Y0026540D01*
X0358056Y0026691D01*
X0357871Y0026847D01*
X0357690Y0027007D01*
X0357513Y0027171D01*
X0357340Y0027340D01*
X0357171Y0027513D01*
X0357007Y0027690D01*
X0356847Y0027871D01*
X0356691Y0028056D01*
X0356540Y0028244D01*
X0356394Y0028437D01*
X0356253Y0028632D01*
X0356116Y0028832D01*
X0355984Y0029034D01*
X0355857Y0029240D01*
X0355736Y0029448D01*
X0355619Y0029660D01*
X0355508Y0029874D01*
X0355402Y0030092D01*
X0355301Y0030311D01*
X0355206Y0030533D01*
X0355117Y0030758D01*
X0355032Y0030984D01*
X0354954Y0031212D01*
X0354881Y0031443D01*
X0354814Y0031675D01*
X0354752Y0031908D01*
X0354696Y0032143D01*
X0354646Y0032380D01*
X0354602Y0032617D01*
X0354564Y0032856D01*
X0354531Y0033095D01*
X0354504Y0033335D01*
X0354484Y0033576D01*
X0354469Y0033817D01*
X0354460Y0034058D01*
X0354457Y0034300D01*
X0296800Y0014300D02*
X0294300Y0016800D01*
X0289300Y0016800D01*
X0286800Y0014300D01*
X0284300Y0016800D01*
X0279300Y0016800D01*
X0276800Y0014300D01*
X0274300Y0016800D01*
X0269300Y0016800D01*
X0266800Y0014300D01*
X0264300Y0016800D01*
X0259300Y0016800D01*
X0256800Y0014300D01*
X0254300Y0016800D01*
X0249300Y0016800D01*
X0246800Y0014300D01*
X0244300Y0016800D01*
X0239300Y0016800D01*
X0236800Y0014300D01*
X0234300Y0016800D01*
X0229300Y0016800D01*
X0226800Y0014300D01*
X0226800Y0009300D01*
X0229300Y0006800D01*
X0234300Y0006800D01*
X0236800Y0009300D01*
X0239300Y0006800D01*
X0244300Y0006800D01*
X0246800Y0009300D01*
X0249300Y0006800D01*
X0254300Y0006800D01*
X0256800Y0009300D01*
X0259300Y0006800D01*
X0264300Y0006800D01*
X0266800Y0009300D01*
X0269300Y0006800D01*
X0274300Y0006800D01*
X0276800Y0009300D01*
X0279300Y0006800D01*
X0284300Y0006800D01*
X0286800Y0009300D01*
X0289300Y0006800D01*
X0294300Y0006800D01*
X0296800Y0009300D01*
X0296800Y0014300D01*
X0354457Y0056800D02*
X0354460Y0057042D01*
X0354469Y0057283D01*
X0354484Y0057524D01*
X0354504Y0057765D01*
X0354531Y0058005D01*
X0354564Y0058244D01*
X0354602Y0058483D01*
X0354646Y0058720D01*
X0354696Y0058957D01*
X0354752Y0059192D01*
X0354814Y0059425D01*
X0354881Y0059657D01*
X0354954Y0059888D01*
X0355032Y0060116D01*
X0355117Y0060342D01*
X0355206Y0060567D01*
X0355301Y0060789D01*
X0355402Y0061008D01*
X0355508Y0061226D01*
X0355619Y0061440D01*
X0355736Y0061652D01*
X0355857Y0061860D01*
X0355984Y0062066D01*
X0356116Y0062268D01*
X0356253Y0062468D01*
X0356394Y0062663D01*
X0356540Y0062856D01*
X0356691Y0063044D01*
X0356847Y0063229D01*
X0357007Y0063410D01*
X0357171Y0063587D01*
X0357340Y0063760D01*
X0357513Y0063929D01*
X0357690Y0064093D01*
X0357871Y0064253D01*
X0358056Y0064409D01*
X0358244Y0064560D01*
X0358437Y0064706D01*
X0358632Y0064847D01*
X0358832Y0064984D01*
X0359034Y0065116D01*
X0359240Y0065243D01*
X0359448Y0065364D01*
X0359660Y0065481D01*
X0359874Y0065592D01*
X0360092Y0065698D01*
X0360311Y0065799D01*
X0360533Y0065894D01*
X0360758Y0065983D01*
X0360984Y0066068D01*
X0361212Y0066146D01*
X0361443Y0066219D01*
X0361675Y0066286D01*
X0361908Y0066348D01*
X0362143Y0066404D01*
X0362380Y0066454D01*
X0362617Y0066498D01*
X0362856Y0066536D01*
X0363095Y0066569D01*
X0363335Y0066596D01*
X0363576Y0066616D01*
X0363817Y0066631D01*
X0364058Y0066640D01*
X0364300Y0066643D01*
X0364542Y0066640D01*
X0364783Y0066631D01*
X0365024Y0066616D01*
X0365265Y0066596D01*
X0365505Y0066569D01*
X0365744Y0066536D01*
X0365983Y0066498D01*
X0366220Y0066454D01*
X0366457Y0066404D01*
X0366692Y0066348D01*
X0366925Y0066286D01*
X0367157Y0066219D01*
X0367388Y0066146D01*
X0367616Y0066068D01*
X0367842Y0065983D01*
X0368067Y0065894D01*
X0368289Y0065799D01*
X0368508Y0065698D01*
X0368726Y0065592D01*
X0368940Y0065481D01*
X0369152Y0065364D01*
X0369360Y0065243D01*
X0369566Y0065116D01*
X0369768Y0064984D01*
X0369968Y0064847D01*
X0370163Y0064706D01*
X0370356Y0064560D01*
X0370544Y0064409D01*
X0370729Y0064253D01*
X0370910Y0064093D01*
X0371087Y0063929D01*
X0371260Y0063760D01*
X0371429Y0063587D01*
X0371593Y0063410D01*
X0371753Y0063229D01*
X0371909Y0063044D01*
X0372060Y0062856D01*
X0372206Y0062663D01*
X0372347Y0062468D01*
X0372484Y0062268D01*
X0372616Y0062066D01*
X0372743Y0061860D01*
X0372864Y0061652D01*
X0372981Y0061440D01*
X0373092Y0061226D01*
X0373198Y0061008D01*
X0373299Y0060789D01*
X0373394Y0060567D01*
X0373483Y0060342D01*
X0373568Y0060116D01*
X0373646Y0059888D01*
X0373719Y0059657D01*
X0373786Y0059425D01*
X0373848Y0059192D01*
X0373904Y0058957D01*
X0373954Y0058720D01*
X0373998Y0058483D01*
X0374036Y0058244D01*
X0374069Y0058005D01*
X0374096Y0057765D01*
X0374116Y0057524D01*
X0374131Y0057283D01*
X0374140Y0057042D01*
X0374143Y0056800D01*
X0374140Y0056558D01*
X0374131Y0056317D01*
X0374116Y0056076D01*
X0374096Y0055835D01*
X0374069Y0055595D01*
X0374036Y0055356D01*
X0373998Y0055117D01*
X0373954Y0054880D01*
X0373904Y0054643D01*
X0373848Y0054408D01*
X0373786Y0054175D01*
X0373719Y0053943D01*
X0373646Y0053712D01*
X0373568Y0053484D01*
X0373483Y0053258D01*
X0373394Y0053033D01*
X0373299Y0052811D01*
X0373198Y0052592D01*
X0373092Y0052374D01*
X0372981Y0052160D01*
X0372864Y0051948D01*
X0372743Y0051740D01*
X0372616Y0051534D01*
X0372484Y0051332D01*
X0372347Y0051132D01*
X0372206Y0050937D01*
X0372060Y0050744D01*
X0371909Y0050556D01*
X0371753Y0050371D01*
X0371593Y0050190D01*
X0371429Y0050013D01*
X0371260Y0049840D01*
X0371087Y0049671D01*
X0370910Y0049507D01*
X0370729Y0049347D01*
X0370544Y0049191D01*
X0370356Y0049040D01*
X0370163Y0048894D01*
X0369968Y0048753D01*
X0369768Y0048616D01*
X0369566Y0048484D01*
X0369360Y0048357D01*
X0369152Y0048236D01*
X0368940Y0048119D01*
X0368726Y0048008D01*
X0368508Y0047902D01*
X0368289Y0047801D01*
X0368067Y0047706D01*
X0367842Y0047617D01*
X0367616Y0047532D01*
X0367388Y0047454D01*
X0367157Y0047381D01*
X0366925Y0047314D01*
X0366692Y0047252D01*
X0366457Y0047196D01*
X0366220Y0047146D01*
X0365983Y0047102D01*
X0365744Y0047064D01*
X0365505Y0047031D01*
X0365265Y0047004D01*
X0365024Y0046984D01*
X0364783Y0046969D01*
X0364542Y0046960D01*
X0364300Y0046957D01*
X0364058Y0046960D01*
X0363817Y0046969D01*
X0363576Y0046984D01*
X0363335Y0047004D01*
X0363095Y0047031D01*
X0362856Y0047064D01*
X0362617Y0047102D01*
X0362380Y0047146D01*
X0362143Y0047196D01*
X0361908Y0047252D01*
X0361675Y0047314D01*
X0361443Y0047381D01*
X0361212Y0047454D01*
X0360984Y0047532D01*
X0360758Y0047617D01*
X0360533Y0047706D01*
X0360311Y0047801D01*
X0360092Y0047902D01*
X0359874Y0048008D01*
X0359660Y0048119D01*
X0359448Y0048236D01*
X0359240Y0048357D01*
X0359034Y0048484D01*
X0358832Y0048616D01*
X0358632Y0048753D01*
X0358437Y0048894D01*
X0358244Y0049040D01*
X0358056Y0049191D01*
X0357871Y0049347D01*
X0357690Y0049507D01*
X0357513Y0049671D01*
X0357340Y0049840D01*
X0357171Y0050013D01*
X0357007Y0050190D01*
X0356847Y0050371D01*
X0356691Y0050556D01*
X0356540Y0050744D01*
X0356394Y0050937D01*
X0356253Y0051132D01*
X0356116Y0051332D01*
X0355984Y0051534D01*
X0355857Y0051740D01*
X0355736Y0051948D01*
X0355619Y0052160D01*
X0355508Y0052374D01*
X0355402Y0052592D01*
X0355301Y0052811D01*
X0355206Y0053033D01*
X0355117Y0053258D01*
X0355032Y0053484D01*
X0354954Y0053712D01*
X0354881Y0053943D01*
X0354814Y0054175D01*
X0354752Y0054408D01*
X0354696Y0054643D01*
X0354646Y0054880D01*
X0354602Y0055117D01*
X0354564Y0055356D01*
X0354531Y0055595D01*
X0354504Y0055835D01*
X0354484Y0056076D01*
X0354469Y0056317D01*
X0354460Y0056558D01*
X0354457Y0056800D01*
X0357300Y0062300D02*
X0361300Y0062300D01*
X0359851Y0070107D02*
X0359851Y0083493D01*
X0378749Y0083493D01*
X0378749Y0070107D01*
X0359851Y0070107D01*
X0336800Y0071800D02*
X0334300Y0069300D01*
X0329300Y0069300D01*
X0326800Y0071800D01*
X0324300Y0069300D01*
X0319300Y0069300D01*
X0316800Y0071800D01*
X0314300Y0069300D01*
X0309300Y0069300D01*
X0306800Y0071800D01*
X0304300Y0069300D01*
X0299300Y0069300D01*
X0296800Y0071800D01*
X0294300Y0069300D01*
X0289300Y0069300D01*
X0286800Y0071800D01*
X0284300Y0069300D01*
X0279300Y0069300D01*
X0276800Y0071800D01*
X0274300Y0069300D01*
X0269300Y0069300D01*
X0266800Y0071800D01*
X0264300Y0069300D01*
X0259300Y0069300D01*
X0256800Y0071800D01*
X0254300Y0069300D01*
X0249300Y0069300D01*
X0246800Y0071800D01*
X0244300Y0069300D01*
X0239300Y0069300D01*
X0236800Y0071800D01*
X0234300Y0069300D01*
X0229300Y0069300D01*
X0226800Y0071800D01*
X0226800Y0076800D01*
X0229300Y0079300D01*
X0234300Y0079300D01*
X0236800Y0076800D01*
X0239300Y0079300D01*
X0244300Y0079300D01*
X0246800Y0076800D01*
X0249300Y0079300D01*
X0254300Y0079300D01*
X0256800Y0076800D01*
X0259300Y0079300D01*
X0264300Y0079300D01*
X0266800Y0076800D01*
X0269300Y0079300D01*
X0274300Y0079300D01*
X0276800Y0076800D01*
X0279300Y0079300D01*
X0284300Y0079300D01*
X0286800Y0076800D01*
X0289300Y0079300D01*
X0294300Y0079300D01*
X0296800Y0076800D01*
X0299300Y0079300D01*
X0304300Y0079300D01*
X0306800Y0076800D01*
X0309300Y0079300D01*
X0314300Y0079300D01*
X0316800Y0076800D01*
X0319300Y0079300D01*
X0324300Y0079300D01*
X0326800Y0076800D01*
X0329300Y0079300D01*
X0334300Y0079300D01*
X0336800Y0076800D01*
X0336800Y0071800D01*
D12*
X0360850Y0064101D02*
X0360850Y0063100D01*
X0361100Y0062850D01*
X0361601Y0062850D01*
X0361851Y0063100D01*
X0362323Y0063100D02*
X0362323Y0062850D01*
X0362323Y0063100D02*
X0363324Y0064101D01*
X0363324Y0064351D01*
X0362323Y0064351D01*
X0361851Y0064101D02*
X0361601Y0064351D01*
X0361100Y0064351D01*
X0360850Y0064101D01*
X0361954Y0028251D02*
X0361703Y0028001D01*
X0361703Y0027000D01*
X0361954Y0026750D01*
X0362454Y0026750D01*
X0362704Y0027000D01*
X0363177Y0027000D02*
X0363427Y0026750D01*
X0363927Y0026750D01*
X0364178Y0027000D01*
X0364178Y0027250D01*
X0363927Y0027501D01*
X0363177Y0027501D01*
X0363177Y0027000D01*
X0363177Y0027501D02*
X0363677Y0028001D01*
X0364178Y0028251D01*
X0362704Y0028001D02*
X0362454Y0028251D01*
X0361954Y0028251D01*
D13*
X0125800Y0027300D02*
X0117800Y0027300D01*
X0117740Y0027302D01*
X0117679Y0027307D01*
X0117620Y0027316D01*
X0117561Y0027329D01*
X0117502Y0027345D01*
X0117445Y0027365D01*
X0117390Y0027388D01*
X0117335Y0027415D01*
X0117283Y0027444D01*
X0117232Y0027477D01*
X0117183Y0027513D01*
X0117137Y0027551D01*
X0117093Y0027593D01*
X0117051Y0027637D01*
X0117013Y0027683D01*
X0116977Y0027732D01*
X0116944Y0027783D01*
X0116915Y0027835D01*
X0116888Y0027890D01*
X0116865Y0027945D01*
X0116845Y0028002D01*
X0116829Y0028061D01*
X0116816Y0028120D01*
X0116807Y0028179D01*
X0116802Y0028240D01*
X0116800Y0028300D01*
X0116800Y0055300D01*
X0116802Y0055360D01*
X0116807Y0055421D01*
X0116816Y0055480D01*
X0116829Y0055539D01*
X0116845Y0055598D01*
X0116865Y0055655D01*
X0116888Y0055710D01*
X0116915Y0055765D01*
X0116944Y0055817D01*
X0116977Y0055868D01*
X0117013Y0055917D01*
X0117051Y0055963D01*
X0117093Y0056007D01*
X0117137Y0056049D01*
X0117183Y0056087D01*
X0117232Y0056123D01*
X0117283Y0056156D01*
X0117335Y0056185D01*
X0117390Y0056212D01*
X0117445Y0056235D01*
X0117502Y0056255D01*
X0117561Y0056271D01*
X0117620Y0056284D01*
X0117679Y0056293D01*
X0117740Y0056298D01*
X0117800Y0056300D01*
X0125800Y0056300D01*
X0125860Y0056298D01*
X0125921Y0056293D01*
X0125980Y0056284D01*
X0126039Y0056271D01*
X0126098Y0056255D01*
X0126155Y0056235D01*
X0126210Y0056212D01*
X0126265Y0056185D01*
X0126317Y0056156D01*
X0126368Y0056123D01*
X0126417Y0056087D01*
X0126463Y0056049D01*
X0126507Y0056007D01*
X0126549Y0055963D01*
X0126587Y0055917D01*
X0126623Y0055868D01*
X0126656Y0055817D01*
X0126685Y0055765D01*
X0126712Y0055710D01*
X0126735Y0055655D01*
X0126755Y0055598D01*
X0126771Y0055539D01*
X0126784Y0055480D01*
X0126793Y0055421D01*
X0126798Y0055360D01*
X0126800Y0055300D01*
X0126800Y0028300D01*
X0126798Y0028240D01*
X0126793Y0028179D01*
X0126784Y0028120D01*
X0126771Y0028061D01*
X0126755Y0028002D01*
X0126735Y0027945D01*
X0126712Y0027890D01*
X0126685Y0027835D01*
X0126656Y0027783D01*
X0126623Y0027732D01*
X0126587Y0027683D01*
X0126549Y0027637D01*
X0126507Y0027593D01*
X0126463Y0027551D01*
X0126417Y0027513D01*
X0126368Y0027477D01*
X0126317Y0027444D01*
X0126265Y0027415D01*
X0126210Y0027388D01*
X0126155Y0027365D01*
X0126098Y0027345D01*
X0126039Y0027329D01*
X0125980Y0027316D01*
X0125921Y0027307D01*
X0125860Y0027302D01*
X0125800Y0027300D01*
X0129800Y0032800D02*
X0129800Y0034300D01*
X0129800Y0032800D02*
X0129802Y0032740D01*
X0129807Y0032679D01*
X0129816Y0032620D01*
X0129829Y0032561D01*
X0129845Y0032502D01*
X0129865Y0032445D01*
X0129888Y0032390D01*
X0129915Y0032335D01*
X0129944Y0032283D01*
X0129977Y0032232D01*
X0130013Y0032183D01*
X0130051Y0032137D01*
X0130093Y0032093D01*
X0130137Y0032051D01*
X0130183Y0032013D01*
X0130232Y0031977D01*
X0130283Y0031944D01*
X0130335Y0031915D01*
X0130390Y0031888D01*
X0130445Y0031865D01*
X0130502Y0031845D01*
X0130561Y0031829D01*
X0130620Y0031816D01*
X0130679Y0031807D01*
X0130740Y0031802D01*
X0130800Y0031800D01*
X0137800Y0031800D02*
X0137860Y0031802D01*
X0137921Y0031807D01*
X0137980Y0031816D01*
X0138039Y0031829D01*
X0138098Y0031845D01*
X0138155Y0031865D01*
X0138210Y0031888D01*
X0138265Y0031915D01*
X0138317Y0031944D01*
X0138368Y0031977D01*
X0138417Y0032013D01*
X0138463Y0032051D01*
X0138507Y0032093D01*
X0138549Y0032137D01*
X0138587Y0032183D01*
X0138623Y0032232D01*
X0138656Y0032283D01*
X0138685Y0032335D01*
X0138712Y0032390D01*
X0138735Y0032445D01*
X0138755Y0032502D01*
X0138771Y0032561D01*
X0138784Y0032620D01*
X0138793Y0032679D01*
X0138798Y0032740D01*
X0138800Y0032800D01*
X0138800Y0034300D01*
X0152300Y0034300D02*
X0152300Y0032800D01*
X0152302Y0032740D01*
X0152307Y0032679D01*
X0152316Y0032620D01*
X0152329Y0032561D01*
X0152345Y0032502D01*
X0152365Y0032445D01*
X0152388Y0032390D01*
X0152415Y0032335D01*
X0152444Y0032283D01*
X0152477Y0032232D01*
X0152513Y0032183D01*
X0152551Y0032137D01*
X0152593Y0032093D01*
X0152637Y0032051D01*
X0152683Y0032013D01*
X0152732Y0031977D01*
X0152783Y0031944D01*
X0152835Y0031915D01*
X0152890Y0031888D01*
X0152945Y0031865D01*
X0153002Y0031845D01*
X0153061Y0031829D01*
X0153120Y0031816D01*
X0153179Y0031807D01*
X0153240Y0031802D01*
X0153300Y0031800D01*
X0160300Y0031800D02*
X0160360Y0031802D01*
X0160421Y0031807D01*
X0160480Y0031816D01*
X0160539Y0031829D01*
X0160598Y0031845D01*
X0160655Y0031865D01*
X0160710Y0031888D01*
X0160765Y0031915D01*
X0160817Y0031944D01*
X0160868Y0031977D01*
X0160917Y0032013D01*
X0160963Y0032051D01*
X0161007Y0032093D01*
X0161049Y0032137D01*
X0161087Y0032183D01*
X0161123Y0032232D01*
X0161156Y0032283D01*
X0161185Y0032335D01*
X0161212Y0032390D01*
X0161235Y0032445D01*
X0161255Y0032502D01*
X0161271Y0032561D01*
X0161284Y0032620D01*
X0161293Y0032679D01*
X0161298Y0032740D01*
X0161300Y0032800D01*
X0161300Y0034300D01*
X0172300Y0034300D02*
X0172300Y0032800D01*
X0172302Y0032740D01*
X0172307Y0032679D01*
X0172316Y0032620D01*
X0172329Y0032561D01*
X0172345Y0032502D01*
X0172365Y0032445D01*
X0172388Y0032390D01*
X0172415Y0032335D01*
X0172444Y0032283D01*
X0172477Y0032232D01*
X0172513Y0032183D01*
X0172551Y0032137D01*
X0172593Y0032093D01*
X0172637Y0032051D01*
X0172683Y0032013D01*
X0172732Y0031977D01*
X0172783Y0031944D01*
X0172835Y0031915D01*
X0172890Y0031888D01*
X0172945Y0031865D01*
X0173002Y0031845D01*
X0173061Y0031829D01*
X0173120Y0031816D01*
X0173179Y0031807D01*
X0173240Y0031802D01*
X0173300Y0031800D01*
X0171131Y0031732D02*
X0171129Y0031645D01*
X0171123Y0031558D01*
X0171114Y0031471D01*
X0171101Y0031385D01*
X0171084Y0031299D01*
X0171063Y0031214D01*
X0171038Y0031131D01*
X0171010Y0031048D01*
X0170979Y0030967D01*
X0170944Y0030887D01*
X0170905Y0030809D01*
X0170863Y0030732D01*
X0170818Y0030657D01*
X0170769Y0030585D01*
X0170718Y0030514D01*
X0170663Y0030446D01*
X0170606Y0030381D01*
X0170545Y0030318D01*
X0170482Y0030257D01*
X0170417Y0030200D01*
X0170349Y0030145D01*
X0170278Y0030094D01*
X0170206Y0030045D01*
X0170131Y0030000D01*
X0170054Y0029958D01*
X0169976Y0029919D01*
X0169896Y0029884D01*
X0169815Y0029853D01*
X0169732Y0029825D01*
X0169649Y0029800D01*
X0169564Y0029779D01*
X0169478Y0029762D01*
X0169392Y0029749D01*
X0169305Y0029740D01*
X0169218Y0029734D01*
X0169131Y0029732D01*
X0164435Y0029799D02*
X0164348Y0029801D01*
X0164261Y0029807D01*
X0164174Y0029816D01*
X0164088Y0029829D01*
X0164002Y0029846D01*
X0163917Y0029867D01*
X0163834Y0029892D01*
X0163751Y0029920D01*
X0163670Y0029951D01*
X0163590Y0029986D01*
X0163512Y0030025D01*
X0163435Y0030067D01*
X0163360Y0030112D01*
X0163288Y0030161D01*
X0163217Y0030212D01*
X0163149Y0030267D01*
X0163084Y0030324D01*
X0163021Y0030385D01*
X0162960Y0030448D01*
X0162903Y0030513D01*
X0162848Y0030581D01*
X0162797Y0030652D01*
X0162748Y0030724D01*
X0162703Y0030799D01*
X0162661Y0030876D01*
X0162622Y0030954D01*
X0162587Y0031034D01*
X0162556Y0031115D01*
X0162528Y0031198D01*
X0162503Y0031281D01*
X0162482Y0031366D01*
X0162465Y0031452D01*
X0162452Y0031538D01*
X0162443Y0031625D01*
X0162437Y0031712D01*
X0162435Y0031799D01*
X0180300Y0031800D02*
X0180360Y0031802D01*
X0180421Y0031807D01*
X0180480Y0031816D01*
X0180539Y0031829D01*
X0180598Y0031845D01*
X0180655Y0031865D01*
X0180710Y0031888D01*
X0180765Y0031915D01*
X0180817Y0031944D01*
X0180868Y0031977D01*
X0180917Y0032013D01*
X0180963Y0032051D01*
X0181007Y0032093D01*
X0181049Y0032137D01*
X0181087Y0032183D01*
X0181123Y0032232D01*
X0181156Y0032283D01*
X0181185Y0032335D01*
X0181212Y0032390D01*
X0181235Y0032445D01*
X0181255Y0032502D01*
X0181271Y0032561D01*
X0181284Y0032620D01*
X0181293Y0032679D01*
X0181298Y0032740D01*
X0181300Y0032800D01*
X0181300Y0034300D01*
X0192300Y0034300D02*
X0192300Y0032800D01*
X0192302Y0032740D01*
X0192307Y0032679D01*
X0192316Y0032620D01*
X0192329Y0032561D01*
X0192345Y0032502D01*
X0192365Y0032445D01*
X0192388Y0032390D01*
X0192415Y0032335D01*
X0192444Y0032283D01*
X0192477Y0032232D01*
X0192513Y0032183D01*
X0192551Y0032137D01*
X0192593Y0032093D01*
X0192637Y0032051D01*
X0192683Y0032013D01*
X0192732Y0031977D01*
X0192783Y0031944D01*
X0192835Y0031915D01*
X0192890Y0031888D01*
X0192945Y0031865D01*
X0193002Y0031845D01*
X0193061Y0031829D01*
X0193120Y0031816D01*
X0193179Y0031807D01*
X0193240Y0031802D01*
X0193300Y0031800D01*
X0200300Y0031800D02*
X0200360Y0031802D01*
X0200421Y0031807D01*
X0200480Y0031816D01*
X0200539Y0031829D01*
X0200598Y0031845D01*
X0200655Y0031865D01*
X0200710Y0031888D01*
X0200765Y0031915D01*
X0200817Y0031944D01*
X0200868Y0031977D01*
X0200917Y0032013D01*
X0200963Y0032051D01*
X0201007Y0032093D01*
X0201049Y0032137D01*
X0201087Y0032183D01*
X0201123Y0032232D01*
X0201156Y0032283D01*
X0201185Y0032335D01*
X0201212Y0032390D01*
X0201235Y0032445D01*
X0201255Y0032502D01*
X0201271Y0032561D01*
X0201284Y0032620D01*
X0201293Y0032679D01*
X0201298Y0032740D01*
X0201300Y0032800D01*
X0201300Y0034300D01*
X0202367Y0031849D02*
X0202369Y0031762D01*
X0202375Y0031675D01*
X0202384Y0031588D01*
X0202397Y0031502D01*
X0202414Y0031416D01*
X0202435Y0031331D01*
X0202460Y0031248D01*
X0202488Y0031165D01*
X0202519Y0031084D01*
X0202554Y0031004D01*
X0202593Y0030926D01*
X0202635Y0030849D01*
X0202680Y0030774D01*
X0202729Y0030702D01*
X0202780Y0030631D01*
X0202835Y0030563D01*
X0202892Y0030498D01*
X0202953Y0030435D01*
X0203016Y0030374D01*
X0203081Y0030317D01*
X0203149Y0030262D01*
X0203220Y0030211D01*
X0203292Y0030162D01*
X0203367Y0030117D01*
X0203444Y0030075D01*
X0203522Y0030036D01*
X0203602Y0030001D01*
X0203683Y0029970D01*
X0203766Y0029942D01*
X0203849Y0029917D01*
X0203934Y0029896D01*
X0204020Y0029879D01*
X0204106Y0029866D01*
X0204193Y0029857D01*
X0204280Y0029851D01*
X0204367Y0029849D01*
X0209098Y0029698D02*
X0209185Y0029700D01*
X0209272Y0029706D01*
X0209359Y0029715D01*
X0209445Y0029728D01*
X0209531Y0029745D01*
X0209616Y0029766D01*
X0209699Y0029791D01*
X0209782Y0029819D01*
X0209863Y0029850D01*
X0209943Y0029885D01*
X0210021Y0029924D01*
X0210098Y0029966D01*
X0210173Y0030011D01*
X0210245Y0030060D01*
X0210316Y0030111D01*
X0210384Y0030166D01*
X0210449Y0030223D01*
X0210512Y0030284D01*
X0210573Y0030347D01*
X0210630Y0030412D01*
X0210685Y0030480D01*
X0210736Y0030551D01*
X0210785Y0030623D01*
X0210830Y0030698D01*
X0210872Y0030775D01*
X0210911Y0030853D01*
X0210946Y0030933D01*
X0210977Y0031014D01*
X0211005Y0031097D01*
X0211030Y0031180D01*
X0211051Y0031265D01*
X0211068Y0031351D01*
X0211081Y0031437D01*
X0211090Y0031524D01*
X0211096Y0031611D01*
X0211098Y0031698D01*
X0212367Y0031849D02*
X0212369Y0031762D01*
X0212375Y0031675D01*
X0212384Y0031588D01*
X0212397Y0031502D01*
X0212414Y0031416D01*
X0212435Y0031331D01*
X0212460Y0031248D01*
X0212488Y0031165D01*
X0212519Y0031084D01*
X0212554Y0031004D01*
X0212593Y0030926D01*
X0212635Y0030849D01*
X0212680Y0030774D01*
X0212729Y0030702D01*
X0212780Y0030631D01*
X0212835Y0030563D01*
X0212892Y0030498D01*
X0212953Y0030435D01*
X0213016Y0030374D01*
X0213081Y0030317D01*
X0213149Y0030262D01*
X0213220Y0030211D01*
X0213292Y0030162D01*
X0213367Y0030117D01*
X0213444Y0030075D01*
X0213522Y0030036D01*
X0213602Y0030001D01*
X0213683Y0029970D01*
X0213766Y0029942D01*
X0213849Y0029917D01*
X0213934Y0029896D01*
X0214020Y0029879D01*
X0214106Y0029866D01*
X0214193Y0029857D01*
X0214280Y0029851D01*
X0214367Y0029849D01*
X0219098Y0029698D02*
X0219185Y0029700D01*
X0219272Y0029706D01*
X0219359Y0029715D01*
X0219445Y0029728D01*
X0219531Y0029745D01*
X0219616Y0029766D01*
X0219699Y0029791D01*
X0219782Y0029819D01*
X0219863Y0029850D01*
X0219943Y0029885D01*
X0220021Y0029924D01*
X0220098Y0029966D01*
X0220173Y0030011D01*
X0220245Y0030060D01*
X0220316Y0030111D01*
X0220384Y0030166D01*
X0220449Y0030223D01*
X0220512Y0030284D01*
X0220573Y0030347D01*
X0220630Y0030412D01*
X0220685Y0030480D01*
X0220736Y0030551D01*
X0220785Y0030623D01*
X0220830Y0030698D01*
X0220872Y0030775D01*
X0220911Y0030853D01*
X0220946Y0030933D01*
X0220977Y0031014D01*
X0221005Y0031097D01*
X0221030Y0031180D01*
X0221051Y0031265D01*
X0221068Y0031351D01*
X0221081Y0031437D01*
X0221090Y0031524D01*
X0221096Y0031611D01*
X0221098Y0031698D01*
X0224300Y0032800D02*
X0224300Y0040300D01*
X0224426Y0040302D01*
X0224551Y0040308D01*
X0224676Y0040318D01*
X0224801Y0040332D01*
X0224926Y0040349D01*
X0225050Y0040371D01*
X0225173Y0040396D01*
X0225295Y0040426D01*
X0225416Y0040459D01*
X0225536Y0040496D01*
X0225655Y0040536D01*
X0225772Y0040581D01*
X0225889Y0040629D01*
X0226003Y0040681D01*
X0226116Y0040736D01*
X0226227Y0040795D01*
X0226336Y0040857D01*
X0226443Y0040923D01*
X0226548Y0040992D01*
X0226651Y0041064D01*
X0226752Y0041139D01*
X0226850Y0041218D01*
X0226945Y0041300D01*
X0227038Y0041384D01*
X0227128Y0041472D01*
X0227216Y0041562D01*
X0227300Y0041655D01*
X0227382Y0041750D01*
X0227461Y0041848D01*
X0227536Y0041949D01*
X0227608Y0042052D01*
X0227677Y0042157D01*
X0227743Y0042264D01*
X0227805Y0042373D01*
X0227864Y0042484D01*
X0227919Y0042597D01*
X0227971Y0042711D01*
X0228019Y0042828D01*
X0228064Y0042945D01*
X0228104Y0043064D01*
X0228141Y0043184D01*
X0228174Y0043305D01*
X0228204Y0043427D01*
X0228229Y0043550D01*
X0228251Y0043674D01*
X0228268Y0043799D01*
X0228282Y0043924D01*
X0228292Y0044049D01*
X0228298Y0044174D01*
X0228300Y0044300D01*
X0228298Y0044426D01*
X0228292Y0044551D01*
X0228282Y0044676D01*
X0228268Y0044801D01*
X0228251Y0044926D01*
X0228229Y0045050D01*
X0228204Y0045173D01*
X0228174Y0045295D01*
X0228141Y0045416D01*
X0228104Y0045536D01*
X0228064Y0045655D01*
X0228019Y0045772D01*
X0227971Y0045889D01*
X0227919Y0046003D01*
X0227864Y0046116D01*
X0227805Y0046227D01*
X0227743Y0046336D01*
X0227677Y0046443D01*
X0227608Y0046548D01*
X0227536Y0046651D01*
X0227461Y0046752D01*
X0227382Y0046850D01*
X0227300Y0046945D01*
X0227216Y0047038D01*
X0227128Y0047128D01*
X0227038Y0047216D01*
X0226945Y0047300D01*
X0226850Y0047382D01*
X0226752Y0047461D01*
X0226651Y0047536D01*
X0226548Y0047608D01*
X0226443Y0047677D01*
X0226336Y0047743D01*
X0226227Y0047805D01*
X0226116Y0047864D01*
X0226003Y0047919D01*
X0225889Y0047971D01*
X0225772Y0048019D01*
X0225655Y0048064D01*
X0225536Y0048104D01*
X0225416Y0048141D01*
X0225295Y0048174D01*
X0225173Y0048204D01*
X0225050Y0048229D01*
X0224926Y0048251D01*
X0224801Y0048268D01*
X0224676Y0048282D01*
X0224551Y0048292D01*
X0224426Y0048298D01*
X0224300Y0048300D01*
X0224300Y0055800D01*
X0294300Y0055800D01*
X0294300Y0032800D01*
X0224300Y0032800D01*
X0191800Y0028300D02*
X0191800Y0055300D01*
X0192300Y0055800D02*
X0192300Y0054300D01*
X0191800Y0055300D02*
X0191798Y0055360D01*
X0191793Y0055421D01*
X0191784Y0055480D01*
X0191771Y0055539D01*
X0191755Y0055598D01*
X0191735Y0055655D01*
X0191712Y0055710D01*
X0191685Y0055765D01*
X0191656Y0055817D01*
X0191623Y0055868D01*
X0191587Y0055917D01*
X0191549Y0055963D01*
X0191507Y0056007D01*
X0191463Y0056049D01*
X0191417Y0056087D01*
X0191368Y0056123D01*
X0191317Y0056156D01*
X0191265Y0056185D01*
X0191210Y0056212D01*
X0191155Y0056235D01*
X0191098Y0056255D01*
X0191039Y0056271D01*
X0190980Y0056284D01*
X0190921Y0056293D01*
X0190860Y0056298D01*
X0190800Y0056300D01*
X0182800Y0056300D01*
X0182740Y0056298D01*
X0182679Y0056293D01*
X0182620Y0056284D01*
X0182561Y0056271D01*
X0182502Y0056255D01*
X0182445Y0056235D01*
X0182390Y0056212D01*
X0182335Y0056185D01*
X0182283Y0056156D01*
X0182232Y0056123D01*
X0182183Y0056087D01*
X0182137Y0056049D01*
X0182093Y0056007D01*
X0182051Y0055963D01*
X0182013Y0055917D01*
X0181977Y0055868D01*
X0181944Y0055817D01*
X0181915Y0055765D01*
X0181888Y0055710D01*
X0181865Y0055655D01*
X0181845Y0055598D01*
X0181829Y0055539D01*
X0181816Y0055480D01*
X0181807Y0055421D01*
X0181802Y0055360D01*
X0181800Y0055300D01*
X0181800Y0028300D01*
X0181802Y0028240D01*
X0181807Y0028179D01*
X0181816Y0028120D01*
X0181829Y0028061D01*
X0181845Y0028002D01*
X0181865Y0027945D01*
X0181888Y0027890D01*
X0181915Y0027835D01*
X0181944Y0027783D01*
X0181977Y0027732D01*
X0182013Y0027683D01*
X0182051Y0027637D01*
X0182093Y0027593D01*
X0182137Y0027551D01*
X0182183Y0027513D01*
X0182232Y0027477D01*
X0182283Y0027444D01*
X0182335Y0027415D01*
X0182390Y0027388D01*
X0182445Y0027365D01*
X0182502Y0027345D01*
X0182561Y0027329D01*
X0182620Y0027316D01*
X0182679Y0027307D01*
X0182740Y0027302D01*
X0182800Y0027300D01*
X0190800Y0027300D01*
X0190860Y0027302D01*
X0190921Y0027307D01*
X0190980Y0027316D01*
X0191039Y0027329D01*
X0191098Y0027345D01*
X0191155Y0027365D01*
X0191210Y0027388D01*
X0191265Y0027415D01*
X0191317Y0027444D01*
X0191368Y0027477D01*
X0191417Y0027513D01*
X0191463Y0027551D01*
X0191507Y0027593D01*
X0191549Y0027637D01*
X0191587Y0027683D01*
X0191623Y0027732D01*
X0191656Y0027783D01*
X0191685Y0027835D01*
X0191712Y0027890D01*
X0191735Y0027945D01*
X0191755Y0028002D01*
X0191771Y0028061D01*
X0191784Y0028120D01*
X0191793Y0028179D01*
X0191798Y0028240D01*
X0191800Y0028300D01*
X0112253Y0040800D02*
X0110674Y0040800D01*
X0110048Y0035300D02*
X0110203Y0035502D01*
X0110353Y0035707D01*
X0110499Y0035916D01*
X0110639Y0036129D01*
X0110774Y0036345D01*
X0110903Y0036564D01*
X0111027Y0036786D01*
X0111146Y0037011D01*
X0111259Y0037239D01*
X0111367Y0037469D01*
X0111469Y0037702D01*
X0111566Y0037938D01*
X0111657Y0038176D01*
X0111742Y0038415D01*
X0111821Y0038657D01*
X0111894Y0038901D01*
X0111961Y0039146D01*
X0112023Y0039393D01*
X0112078Y0039642D01*
X0112127Y0039892D01*
X0112170Y0040142D01*
X0112207Y0040394D01*
X0112238Y0040647D01*
X0112263Y0040900D01*
X0112282Y0041154D01*
X0112295Y0041408D01*
X0112301Y0041662D01*
X0112301Y0041917D01*
X0112295Y0042171D01*
X0112283Y0042426D01*
X0112265Y0042679D01*
X0112241Y0042933D01*
X0112210Y0043185D01*
X0112174Y0043437D01*
X0112131Y0043688D01*
X0112082Y0043938D01*
X0112027Y0044186D01*
X0111966Y0044433D01*
X0111900Y0044679D01*
X0111827Y0044923D01*
X0111748Y0045165D01*
X0111664Y0045405D01*
X0111573Y0045643D01*
X0111477Y0045879D01*
X0111376Y0046112D01*
X0111268Y0046343D01*
X0111156Y0046571D01*
X0111037Y0046796D01*
X0110913Y0047018D01*
X0110784Y0047238D01*
X0110650Y0047454D01*
X0110510Y0047667D01*
X0110365Y0047876D01*
X0110216Y0048082D01*
X0110061Y0048284D01*
X0109901Y0048482D01*
X0109737Y0048676D01*
X0109568Y0048867D01*
X0109395Y0049053D01*
X0109217Y0049235D01*
X0109034Y0049412D01*
X0108848Y0049585D01*
X0108657Y0049754D01*
X0108462Y0049918D01*
X0108263Y0050077D01*
X0108061Y0050231D01*
X0107855Y0050380D01*
X0107645Y0050524D01*
X0107432Y0050663D01*
X0107215Y0050797D01*
X0106996Y0050926D01*
X0106773Y0051049D01*
X0106547Y0051166D01*
X0106319Y0051279D01*
X0106088Y0051385D01*
X0105854Y0051486D01*
X0105618Y0051582D01*
X0105380Y0051671D01*
X0105140Y0051755D01*
X0104898Y0051833D01*
X0087800Y0050300D02*
X0080800Y0050300D01*
X0080800Y0038300D01*
X0087800Y0038300D01*
X0087800Y0050300D01*
X0077800Y0050300D02*
X0070800Y0050300D01*
X0070800Y0038300D01*
X0077800Y0038300D01*
X0077800Y0050300D01*
X0074300Y0049300D02*
X0074300Y0043800D01*
X0076300Y0043800D01*
X0074300Y0043800D02*
X0072300Y0043800D01*
X0074300Y0043800D02*
X0072300Y0047800D01*
X0076300Y0047800D01*
X0074300Y0043800D01*
X0074300Y0042300D01*
X0082300Y0040800D02*
X0084300Y0044800D01*
X0082300Y0044800D01*
X0084300Y0044800D02*
X0086300Y0044800D01*
X0084300Y0044800D02*
X0084300Y0046300D01*
X0084300Y0044800D02*
X0086300Y0040800D01*
X0082300Y0040800D01*
X0084300Y0039300D02*
X0084300Y0044800D01*
X0093554Y0035300D02*
X0093399Y0035502D01*
X0093248Y0035707D01*
X0093103Y0035916D01*
X0092963Y0036129D01*
X0092828Y0036345D01*
X0092699Y0036564D01*
X0092575Y0036786D01*
X0092456Y0037011D01*
X0092342Y0037239D01*
X0092235Y0037469D01*
X0092133Y0037702D01*
X0092036Y0037938D01*
X0091945Y0038176D01*
X0091860Y0038416D01*
X0091781Y0038658D01*
X0091708Y0038901D01*
X0091641Y0039147D01*
X0091579Y0039394D01*
X0091524Y0039642D01*
X0091475Y0039892D01*
X0091432Y0040143D01*
X0091395Y0040394D01*
X0091364Y0040647D01*
X0091339Y0040900D01*
X0091320Y0041154D01*
X0091307Y0041408D01*
X0091301Y0041663D01*
X0091301Y0041917D01*
X0091307Y0042172D01*
X0091319Y0042426D01*
X0091337Y0042680D01*
X0091361Y0042933D01*
X0091392Y0043186D01*
X0091428Y0043437D01*
X0091471Y0043688D01*
X0091520Y0043938D01*
X0091575Y0044187D01*
X0091636Y0044434D01*
X0091702Y0044679D01*
X0091775Y0044923D01*
X0091854Y0045165D01*
X0091938Y0045405D01*
X0092029Y0045643D01*
X0092125Y0045879D01*
X0092226Y0046112D01*
X0092334Y0046343D01*
X0092447Y0046571D01*
X0092565Y0046796D01*
X0092689Y0047019D01*
X0092818Y0047238D01*
X0092952Y0047454D01*
X0093092Y0047667D01*
X0093237Y0047876D01*
X0093386Y0048082D01*
X0093541Y0048284D01*
X0093701Y0048482D01*
X0093865Y0048676D01*
X0094034Y0048867D01*
X0094208Y0049053D01*
X0094386Y0049235D01*
X0094568Y0049412D01*
X0094755Y0049585D01*
X0094945Y0049754D01*
X0095140Y0049918D01*
X0095339Y0050077D01*
X0095541Y0050231D01*
X0095747Y0050380D01*
X0095957Y0050524D01*
X0096170Y0050663D01*
X0096387Y0050797D01*
X0096606Y0050926D01*
X0096829Y0051049D01*
X0097055Y0051167D01*
X0097283Y0051279D01*
X0097514Y0051385D01*
X0097748Y0051487D01*
X0097984Y0051582D01*
X0098222Y0051672D01*
X0098462Y0051755D01*
X0098704Y0051833D01*
X0129800Y0054300D02*
X0129800Y0055800D01*
X0129802Y0055860D01*
X0129807Y0055921D01*
X0129816Y0055980D01*
X0129829Y0056039D01*
X0129845Y0056098D01*
X0129865Y0056155D01*
X0129888Y0056210D01*
X0129915Y0056265D01*
X0129944Y0056317D01*
X0129977Y0056368D01*
X0130013Y0056417D01*
X0130051Y0056463D01*
X0130093Y0056507D01*
X0130137Y0056549D01*
X0130183Y0056587D01*
X0130232Y0056623D01*
X0130283Y0056656D01*
X0130335Y0056685D01*
X0130390Y0056712D01*
X0130445Y0056735D01*
X0130502Y0056755D01*
X0130561Y0056771D01*
X0130620Y0056784D01*
X0130679Y0056793D01*
X0130740Y0056798D01*
X0130800Y0056800D01*
X0137800Y0056800D02*
X0137860Y0056798D01*
X0137921Y0056793D01*
X0137980Y0056784D01*
X0138039Y0056771D01*
X0138098Y0056755D01*
X0138155Y0056735D01*
X0138210Y0056712D01*
X0138265Y0056685D01*
X0138317Y0056656D01*
X0138368Y0056623D01*
X0138417Y0056587D01*
X0138463Y0056549D01*
X0138507Y0056507D01*
X0138549Y0056463D01*
X0138587Y0056417D01*
X0138623Y0056368D01*
X0138656Y0056317D01*
X0138685Y0056265D01*
X0138712Y0056210D01*
X0138735Y0056155D01*
X0138755Y0056098D01*
X0138771Y0056039D01*
X0138784Y0055980D01*
X0138793Y0055921D01*
X0138798Y0055860D01*
X0138800Y0055800D01*
X0138800Y0054300D01*
X0152300Y0054300D02*
X0152300Y0055800D01*
X0152302Y0055860D01*
X0152307Y0055921D01*
X0152316Y0055980D01*
X0152329Y0056039D01*
X0152345Y0056098D01*
X0152365Y0056155D01*
X0152388Y0056210D01*
X0152415Y0056265D01*
X0152444Y0056317D01*
X0152477Y0056368D01*
X0152513Y0056417D01*
X0152551Y0056463D01*
X0152593Y0056507D01*
X0152637Y0056549D01*
X0152683Y0056587D01*
X0152732Y0056623D01*
X0152783Y0056656D01*
X0152835Y0056685D01*
X0152890Y0056712D01*
X0152945Y0056735D01*
X0153002Y0056755D01*
X0153061Y0056771D01*
X0153120Y0056784D01*
X0153179Y0056793D01*
X0153240Y0056798D01*
X0153300Y0056800D01*
X0160300Y0056800D02*
X0160360Y0056798D01*
X0160421Y0056793D01*
X0160480Y0056784D01*
X0160539Y0056771D01*
X0160598Y0056755D01*
X0160655Y0056735D01*
X0160710Y0056712D01*
X0160765Y0056685D01*
X0160817Y0056656D01*
X0160868Y0056623D01*
X0160917Y0056587D01*
X0160963Y0056549D01*
X0161007Y0056507D01*
X0161049Y0056463D01*
X0161087Y0056417D01*
X0161123Y0056368D01*
X0161156Y0056317D01*
X0161185Y0056265D01*
X0161212Y0056210D01*
X0161235Y0056155D01*
X0161255Y0056098D01*
X0161271Y0056039D01*
X0161284Y0055980D01*
X0161293Y0055921D01*
X0161298Y0055860D01*
X0161300Y0055800D01*
X0161300Y0054300D01*
X0172300Y0054300D02*
X0172300Y0055800D01*
X0172302Y0055860D01*
X0172307Y0055921D01*
X0172316Y0055980D01*
X0172329Y0056039D01*
X0172345Y0056098D01*
X0172365Y0056155D01*
X0172388Y0056210D01*
X0172415Y0056265D01*
X0172444Y0056317D01*
X0172477Y0056368D01*
X0172513Y0056417D01*
X0172551Y0056463D01*
X0172593Y0056507D01*
X0172637Y0056549D01*
X0172683Y0056587D01*
X0172732Y0056623D01*
X0172783Y0056656D01*
X0172835Y0056685D01*
X0172890Y0056712D01*
X0172945Y0056735D01*
X0173002Y0056755D01*
X0173061Y0056771D01*
X0173120Y0056784D01*
X0173179Y0056793D01*
X0173240Y0056798D01*
X0173300Y0056800D01*
X0180300Y0056800D02*
X0180360Y0056798D01*
X0180421Y0056793D01*
X0180480Y0056784D01*
X0180539Y0056771D01*
X0180598Y0056755D01*
X0180655Y0056735D01*
X0180710Y0056712D01*
X0180765Y0056685D01*
X0180817Y0056656D01*
X0180868Y0056623D01*
X0180917Y0056587D01*
X0180963Y0056549D01*
X0181007Y0056507D01*
X0181049Y0056463D01*
X0181087Y0056417D01*
X0181123Y0056368D01*
X0181156Y0056317D01*
X0181185Y0056265D01*
X0181212Y0056210D01*
X0181235Y0056155D01*
X0181255Y0056098D01*
X0181271Y0056039D01*
X0181284Y0055980D01*
X0181293Y0055921D01*
X0181298Y0055860D01*
X0181300Y0055800D01*
X0181300Y0054300D01*
X0192300Y0055800D02*
X0192302Y0055860D01*
X0192307Y0055921D01*
X0192316Y0055980D01*
X0192329Y0056039D01*
X0192345Y0056098D01*
X0192365Y0056155D01*
X0192388Y0056210D01*
X0192415Y0056265D01*
X0192444Y0056317D01*
X0192477Y0056368D01*
X0192513Y0056417D01*
X0192551Y0056463D01*
X0192593Y0056507D01*
X0192637Y0056549D01*
X0192683Y0056587D01*
X0192732Y0056623D01*
X0192783Y0056656D01*
X0192835Y0056685D01*
X0192890Y0056712D01*
X0192945Y0056735D01*
X0193002Y0056755D01*
X0193061Y0056771D01*
X0193120Y0056784D01*
X0193179Y0056793D01*
X0193240Y0056798D01*
X0193300Y0056800D01*
X0200300Y0056800D02*
X0200360Y0056798D01*
X0200421Y0056793D01*
X0200480Y0056784D01*
X0200539Y0056771D01*
X0200598Y0056755D01*
X0200655Y0056735D01*
X0200710Y0056712D01*
X0200765Y0056685D01*
X0200817Y0056656D01*
X0200868Y0056623D01*
X0200917Y0056587D01*
X0200963Y0056549D01*
X0201007Y0056507D01*
X0201049Y0056463D01*
X0201087Y0056417D01*
X0201123Y0056368D01*
X0201156Y0056317D01*
X0201185Y0056265D01*
X0201212Y0056210D01*
X0201235Y0056155D01*
X0201255Y0056098D01*
X0201271Y0056039D01*
X0201284Y0055980D01*
X0201293Y0055921D01*
X0201298Y0055860D01*
X0201300Y0055800D01*
X0201300Y0054300D01*
X0202469Y0051868D02*
X0202471Y0051955D01*
X0202477Y0052042D01*
X0202486Y0052129D01*
X0202499Y0052215D01*
X0202516Y0052301D01*
X0202537Y0052386D01*
X0202562Y0052469D01*
X0202590Y0052552D01*
X0202621Y0052633D01*
X0202656Y0052713D01*
X0202695Y0052791D01*
X0202737Y0052868D01*
X0202782Y0052943D01*
X0202831Y0053015D01*
X0202882Y0053086D01*
X0202937Y0053154D01*
X0202994Y0053219D01*
X0203055Y0053282D01*
X0203118Y0053343D01*
X0203183Y0053400D01*
X0203251Y0053455D01*
X0203322Y0053506D01*
X0203394Y0053555D01*
X0203469Y0053600D01*
X0203546Y0053642D01*
X0203624Y0053681D01*
X0203704Y0053716D01*
X0203785Y0053747D01*
X0203868Y0053775D01*
X0203951Y0053800D01*
X0204036Y0053821D01*
X0204122Y0053838D01*
X0204208Y0053851D01*
X0204295Y0053860D01*
X0204382Y0053866D01*
X0204469Y0053868D01*
X0209165Y0053801D02*
X0209252Y0053799D01*
X0209339Y0053793D01*
X0209426Y0053784D01*
X0209512Y0053771D01*
X0209598Y0053754D01*
X0209683Y0053733D01*
X0209766Y0053708D01*
X0209849Y0053680D01*
X0209930Y0053649D01*
X0210010Y0053614D01*
X0210088Y0053575D01*
X0210165Y0053533D01*
X0210240Y0053488D01*
X0210312Y0053439D01*
X0210383Y0053388D01*
X0210451Y0053333D01*
X0210516Y0053276D01*
X0210579Y0053215D01*
X0210640Y0053152D01*
X0210697Y0053087D01*
X0210752Y0053019D01*
X0210803Y0052948D01*
X0210852Y0052876D01*
X0210897Y0052801D01*
X0210939Y0052724D01*
X0210978Y0052646D01*
X0211013Y0052566D01*
X0211044Y0052485D01*
X0211072Y0052402D01*
X0211097Y0052319D01*
X0211118Y0052234D01*
X0211135Y0052148D01*
X0211148Y0052062D01*
X0211157Y0051975D01*
X0211163Y0051888D01*
X0211165Y0051801D01*
X0212469Y0051868D02*
X0212471Y0051955D01*
X0212477Y0052042D01*
X0212486Y0052129D01*
X0212499Y0052215D01*
X0212516Y0052301D01*
X0212537Y0052386D01*
X0212562Y0052469D01*
X0212590Y0052552D01*
X0212621Y0052633D01*
X0212656Y0052713D01*
X0212695Y0052791D01*
X0212737Y0052868D01*
X0212782Y0052943D01*
X0212831Y0053015D01*
X0212882Y0053086D01*
X0212937Y0053154D01*
X0212994Y0053219D01*
X0213055Y0053282D01*
X0213118Y0053343D01*
X0213183Y0053400D01*
X0213251Y0053455D01*
X0213322Y0053506D01*
X0213394Y0053555D01*
X0213469Y0053600D01*
X0213546Y0053642D01*
X0213624Y0053681D01*
X0213704Y0053716D01*
X0213785Y0053747D01*
X0213868Y0053775D01*
X0213951Y0053800D01*
X0214036Y0053821D01*
X0214122Y0053838D01*
X0214208Y0053851D01*
X0214295Y0053860D01*
X0214382Y0053866D01*
X0214469Y0053868D01*
X0219165Y0053801D02*
X0219252Y0053799D01*
X0219339Y0053793D01*
X0219426Y0053784D01*
X0219512Y0053771D01*
X0219598Y0053754D01*
X0219683Y0053733D01*
X0219766Y0053708D01*
X0219849Y0053680D01*
X0219930Y0053649D01*
X0220010Y0053614D01*
X0220088Y0053575D01*
X0220165Y0053533D01*
X0220240Y0053488D01*
X0220312Y0053439D01*
X0220383Y0053388D01*
X0220451Y0053333D01*
X0220516Y0053276D01*
X0220579Y0053215D01*
X0220640Y0053152D01*
X0220697Y0053087D01*
X0220752Y0053019D01*
X0220803Y0052948D01*
X0220852Y0052876D01*
X0220897Y0052801D01*
X0220939Y0052724D01*
X0220978Y0052646D01*
X0221013Y0052566D01*
X0221044Y0052485D01*
X0221072Y0052402D01*
X0221097Y0052319D01*
X0221118Y0052234D01*
X0221135Y0052148D01*
X0221148Y0052062D01*
X0221157Y0051975D01*
X0221163Y0051888D01*
X0221165Y0051801D01*
X0171233Y0051751D02*
X0171231Y0051838D01*
X0171225Y0051925D01*
X0171216Y0052012D01*
X0171203Y0052098D01*
X0171186Y0052184D01*
X0171165Y0052269D01*
X0171140Y0052352D01*
X0171112Y0052435D01*
X0171081Y0052516D01*
X0171046Y0052596D01*
X0171007Y0052674D01*
X0170965Y0052751D01*
X0170920Y0052826D01*
X0170871Y0052898D01*
X0170820Y0052969D01*
X0170765Y0053037D01*
X0170708Y0053102D01*
X0170647Y0053165D01*
X0170584Y0053226D01*
X0170519Y0053283D01*
X0170451Y0053338D01*
X0170380Y0053389D01*
X0170308Y0053438D01*
X0170233Y0053483D01*
X0170156Y0053525D01*
X0170078Y0053564D01*
X0169998Y0053599D01*
X0169917Y0053630D01*
X0169834Y0053658D01*
X0169751Y0053683D01*
X0169666Y0053704D01*
X0169580Y0053721D01*
X0169494Y0053734D01*
X0169407Y0053743D01*
X0169320Y0053749D01*
X0169233Y0053751D01*
X0164502Y0053902D02*
X0164415Y0053900D01*
X0164328Y0053894D01*
X0164241Y0053885D01*
X0164155Y0053872D01*
X0164069Y0053855D01*
X0163984Y0053834D01*
X0163901Y0053809D01*
X0163818Y0053781D01*
X0163737Y0053750D01*
X0163657Y0053715D01*
X0163579Y0053676D01*
X0163502Y0053634D01*
X0163427Y0053589D01*
X0163355Y0053540D01*
X0163284Y0053489D01*
X0163216Y0053434D01*
X0163151Y0053377D01*
X0163088Y0053316D01*
X0163027Y0053253D01*
X0162970Y0053188D01*
X0162915Y0053120D01*
X0162864Y0053049D01*
X0162815Y0052977D01*
X0162770Y0052902D01*
X0162728Y0052825D01*
X0162689Y0052747D01*
X0162654Y0052667D01*
X0162623Y0052586D01*
X0162595Y0052503D01*
X0162570Y0052420D01*
X0162549Y0052335D01*
X0162532Y0052249D01*
X0162519Y0052163D01*
X0162510Y0052076D01*
X0162504Y0051989D01*
X0162502Y0051902D01*
X0092926Y0040800D02*
X0091347Y0040800D01*
X0068832Y0039326D02*
X0067164Y0036824D01*
X0065496Y0039326D01*
X0058832Y0039326D02*
X0057164Y0036824D01*
X0055496Y0039326D01*
X0047800Y0038300D02*
X0040800Y0038300D01*
X0040800Y0050300D01*
X0047800Y0050300D01*
X0047800Y0038300D01*
X0053828Y0036824D02*
X0058832Y0036824D01*
X0063828Y0036824D02*
X0068832Y0036824D01*
X0068832Y0035004D02*
X0068832Y0031668D01*
X0065496Y0031668D02*
X0063828Y0033336D01*
X0068832Y0033336D01*
X0058832Y0033336D02*
X0053828Y0033336D01*
X0055496Y0031668D01*
X0058832Y0031668D02*
X0058832Y0035004D01*
X0037800Y0038300D02*
X0030800Y0038300D01*
X0030800Y0050300D01*
X0037800Y0050300D01*
X0037800Y0038300D01*
X0034300Y0039300D02*
X0034300Y0044800D01*
X0032300Y0044800D01*
X0034300Y0044800D02*
X0034300Y0046300D01*
X0034300Y0044800D02*
X0036300Y0044800D01*
X0034300Y0044800D02*
X0036300Y0040800D01*
X0032300Y0040800D01*
X0034300Y0044800D01*
X0042300Y0043800D02*
X0044300Y0043800D01*
X0046300Y0043800D01*
X0044300Y0043800D02*
X0042300Y0047800D01*
X0046300Y0047800D01*
X0044300Y0043800D01*
X0044300Y0049300D01*
X0044300Y0043800D02*
X0044300Y0042300D01*
X0093552Y0035300D02*
X0110048Y0035300D01*
X0068800Y0028725D02*
X0068798Y0028665D01*
X0068793Y0028604D01*
X0068784Y0028545D01*
X0068771Y0028486D01*
X0068755Y0028427D01*
X0068735Y0028370D01*
X0068712Y0028315D01*
X0068685Y0028260D01*
X0068656Y0028208D01*
X0068623Y0028157D01*
X0068587Y0028108D01*
X0068549Y0028062D01*
X0068507Y0028018D01*
X0068463Y0027976D01*
X0068417Y0027938D01*
X0068368Y0027902D01*
X0068317Y0027869D01*
X0068265Y0027840D01*
X0068210Y0027813D01*
X0068155Y0027790D01*
X0068098Y0027770D01*
X0068039Y0027754D01*
X0067980Y0027741D01*
X0067921Y0027732D01*
X0067860Y0027727D01*
X0067800Y0027725D01*
X0060800Y0027725D01*
X0060740Y0027727D01*
X0060679Y0027732D01*
X0060620Y0027741D01*
X0060561Y0027754D01*
X0060502Y0027770D01*
X0060445Y0027790D01*
X0060390Y0027813D01*
X0060335Y0027840D01*
X0060283Y0027869D01*
X0060232Y0027902D01*
X0060183Y0027938D01*
X0060137Y0027976D01*
X0060093Y0028018D01*
X0060051Y0028062D01*
X0060013Y0028108D01*
X0059977Y0028157D01*
X0059944Y0028208D01*
X0059915Y0028260D01*
X0059888Y0028315D01*
X0059865Y0028370D01*
X0059845Y0028427D01*
X0059829Y0028486D01*
X0059816Y0028545D01*
X0059807Y0028604D01*
X0059802Y0028665D01*
X0059800Y0028725D01*
X0058800Y0028725D02*
X0058798Y0028665D01*
X0058793Y0028604D01*
X0058784Y0028545D01*
X0058771Y0028486D01*
X0058755Y0028427D01*
X0058735Y0028370D01*
X0058712Y0028315D01*
X0058685Y0028260D01*
X0058656Y0028208D01*
X0058623Y0028157D01*
X0058587Y0028108D01*
X0058549Y0028062D01*
X0058507Y0028018D01*
X0058463Y0027976D01*
X0058417Y0027938D01*
X0058368Y0027902D01*
X0058317Y0027869D01*
X0058265Y0027840D01*
X0058210Y0027813D01*
X0058155Y0027790D01*
X0058098Y0027770D01*
X0058039Y0027754D01*
X0057980Y0027741D01*
X0057921Y0027732D01*
X0057860Y0027727D01*
X0057800Y0027725D01*
X0050800Y0027725D01*
X0050740Y0027727D01*
X0050679Y0027732D01*
X0050620Y0027741D01*
X0050561Y0027754D01*
X0050502Y0027770D01*
X0050445Y0027790D01*
X0050390Y0027813D01*
X0050335Y0027840D01*
X0050283Y0027869D01*
X0050232Y0027902D01*
X0050183Y0027938D01*
X0050137Y0027976D01*
X0050093Y0028018D01*
X0050051Y0028062D01*
X0050013Y0028108D01*
X0049977Y0028157D01*
X0049944Y0028208D01*
X0049915Y0028260D01*
X0049888Y0028315D01*
X0049865Y0028370D01*
X0049845Y0028427D01*
X0049829Y0028486D01*
X0049816Y0028545D01*
X0049807Y0028604D01*
X0049802Y0028665D01*
X0049800Y0028725D01*
X0050194Y0060131D02*
X0050196Y0060191D01*
X0050201Y0060252D01*
X0050210Y0060311D01*
X0050223Y0060370D01*
X0050239Y0060429D01*
X0050259Y0060486D01*
X0050282Y0060541D01*
X0050309Y0060596D01*
X0050338Y0060648D01*
X0050371Y0060699D01*
X0050407Y0060748D01*
X0050445Y0060794D01*
X0050487Y0060838D01*
X0050531Y0060880D01*
X0050577Y0060918D01*
X0050626Y0060954D01*
X0050677Y0060987D01*
X0050729Y0061016D01*
X0050784Y0061043D01*
X0050839Y0061066D01*
X0050896Y0061086D01*
X0050955Y0061102D01*
X0051014Y0061115D01*
X0051073Y0061124D01*
X0051134Y0061129D01*
X0051194Y0061131D01*
X0057800Y0061131D01*
X0057860Y0061129D01*
X0057921Y0061124D01*
X0057980Y0061115D01*
X0058039Y0061102D01*
X0058098Y0061086D01*
X0058155Y0061066D01*
X0058210Y0061043D01*
X0058265Y0061016D01*
X0058317Y0060987D01*
X0058368Y0060954D01*
X0058417Y0060918D01*
X0058463Y0060880D01*
X0058507Y0060838D01*
X0058549Y0060794D01*
X0058587Y0060748D01*
X0058623Y0060699D01*
X0058656Y0060648D01*
X0058685Y0060596D01*
X0058712Y0060541D01*
X0058735Y0060486D01*
X0058755Y0060429D01*
X0058771Y0060370D01*
X0058784Y0060311D01*
X0058793Y0060252D01*
X0058798Y0060191D01*
X0058800Y0060131D01*
X0060194Y0060131D02*
X0060196Y0060191D01*
X0060201Y0060252D01*
X0060210Y0060311D01*
X0060223Y0060370D01*
X0060239Y0060429D01*
X0060259Y0060486D01*
X0060282Y0060541D01*
X0060309Y0060596D01*
X0060338Y0060648D01*
X0060371Y0060699D01*
X0060407Y0060748D01*
X0060445Y0060794D01*
X0060487Y0060838D01*
X0060531Y0060880D01*
X0060577Y0060918D01*
X0060626Y0060954D01*
X0060677Y0060987D01*
X0060729Y0061016D01*
X0060784Y0061043D01*
X0060839Y0061066D01*
X0060896Y0061086D01*
X0060955Y0061102D01*
X0061014Y0061115D01*
X0061073Y0061124D01*
X0061134Y0061129D01*
X0061194Y0061131D01*
X0067800Y0061131D01*
X0067860Y0061129D01*
X0067921Y0061124D01*
X0067980Y0061115D01*
X0068039Y0061102D01*
X0068098Y0061086D01*
X0068155Y0061066D01*
X0068210Y0061043D01*
X0068265Y0061016D01*
X0068317Y0060987D01*
X0068368Y0060954D01*
X0068417Y0060918D01*
X0068463Y0060880D01*
X0068507Y0060838D01*
X0068549Y0060794D01*
X0068587Y0060748D01*
X0068623Y0060699D01*
X0068656Y0060648D01*
X0068685Y0060596D01*
X0068712Y0060541D01*
X0068735Y0060486D01*
X0068755Y0060429D01*
X0068771Y0060370D01*
X0068784Y0060311D01*
X0068793Y0060252D01*
X0068798Y0060191D01*
X0068800Y0060131D01*
X0297300Y0055800D02*
X0297300Y0054300D01*
X0297300Y0055800D02*
X0297302Y0055860D01*
X0297307Y0055921D01*
X0297316Y0055980D01*
X0297329Y0056039D01*
X0297345Y0056098D01*
X0297365Y0056155D01*
X0297388Y0056210D01*
X0297415Y0056265D01*
X0297444Y0056317D01*
X0297477Y0056368D01*
X0297513Y0056417D01*
X0297551Y0056463D01*
X0297593Y0056507D01*
X0297637Y0056549D01*
X0297683Y0056587D01*
X0297732Y0056623D01*
X0297783Y0056656D01*
X0297835Y0056685D01*
X0297890Y0056712D01*
X0297945Y0056735D01*
X0298002Y0056755D01*
X0298061Y0056771D01*
X0298120Y0056784D01*
X0298179Y0056793D01*
X0298240Y0056798D01*
X0298300Y0056800D01*
X0305300Y0056800D02*
X0305360Y0056798D01*
X0305421Y0056793D01*
X0305480Y0056784D01*
X0305539Y0056771D01*
X0305598Y0056755D01*
X0305655Y0056735D01*
X0305710Y0056712D01*
X0305765Y0056685D01*
X0305817Y0056656D01*
X0305868Y0056623D01*
X0305917Y0056587D01*
X0305963Y0056549D01*
X0306007Y0056507D01*
X0306049Y0056463D01*
X0306087Y0056417D01*
X0306123Y0056368D01*
X0306156Y0056317D01*
X0306185Y0056265D01*
X0306212Y0056210D01*
X0306235Y0056155D01*
X0306255Y0056098D01*
X0306271Y0056039D01*
X0306284Y0055980D01*
X0306293Y0055921D01*
X0306298Y0055860D01*
X0306300Y0055800D01*
X0306300Y0054300D01*
X0307469Y0059368D02*
X0307471Y0059455D01*
X0307477Y0059542D01*
X0307486Y0059629D01*
X0307499Y0059715D01*
X0307516Y0059801D01*
X0307537Y0059886D01*
X0307562Y0059969D01*
X0307590Y0060052D01*
X0307621Y0060133D01*
X0307656Y0060213D01*
X0307695Y0060291D01*
X0307737Y0060368D01*
X0307782Y0060443D01*
X0307831Y0060515D01*
X0307882Y0060586D01*
X0307937Y0060654D01*
X0307994Y0060719D01*
X0308055Y0060782D01*
X0308118Y0060843D01*
X0308183Y0060900D01*
X0308251Y0060955D01*
X0308322Y0061006D01*
X0308394Y0061055D01*
X0308469Y0061100D01*
X0308546Y0061142D01*
X0308624Y0061181D01*
X0308704Y0061216D01*
X0308785Y0061247D01*
X0308868Y0061275D01*
X0308951Y0061300D01*
X0309036Y0061321D01*
X0309122Y0061338D01*
X0309208Y0061351D01*
X0309295Y0061360D01*
X0309382Y0061366D01*
X0309469Y0061368D01*
X0314165Y0061301D02*
X0314252Y0061299D01*
X0314339Y0061293D01*
X0314426Y0061284D01*
X0314512Y0061271D01*
X0314598Y0061254D01*
X0314683Y0061233D01*
X0314766Y0061208D01*
X0314849Y0061180D01*
X0314930Y0061149D01*
X0315010Y0061114D01*
X0315088Y0061075D01*
X0315165Y0061033D01*
X0315240Y0060988D01*
X0315312Y0060939D01*
X0315383Y0060888D01*
X0315451Y0060833D01*
X0315516Y0060776D01*
X0315579Y0060715D01*
X0315640Y0060652D01*
X0315697Y0060587D01*
X0315752Y0060519D01*
X0315803Y0060448D01*
X0315852Y0060376D01*
X0315897Y0060301D01*
X0315939Y0060224D01*
X0315978Y0060146D01*
X0316013Y0060066D01*
X0316044Y0059985D01*
X0316072Y0059902D01*
X0316097Y0059819D01*
X0316118Y0059734D01*
X0316135Y0059648D01*
X0316148Y0059562D01*
X0316157Y0059475D01*
X0316163Y0059388D01*
X0316165Y0059301D01*
X0393800Y0059300D02*
X0393800Y0069300D01*
X0409800Y0069300D01*
X0409800Y0059300D01*
X0393800Y0059300D01*
X0401800Y0061800D02*
X0401800Y0064300D01*
X0401800Y0066800D01*
X0401800Y0064300D02*
X0405800Y0066800D01*
X0405800Y0061800D01*
X0401800Y0064300D01*
X0407800Y0064300D01*
X0401800Y0064300D02*
X0399300Y0064300D01*
X0399300Y0071800D02*
X0424300Y0071800D01*
X0424387Y0071802D01*
X0424474Y0071808D01*
X0424561Y0071817D01*
X0424647Y0071830D01*
X0424733Y0071847D01*
X0424818Y0071868D01*
X0424901Y0071893D01*
X0424984Y0071921D01*
X0425065Y0071952D01*
X0425145Y0071987D01*
X0425223Y0072026D01*
X0425300Y0072068D01*
X0425375Y0072113D01*
X0425447Y0072162D01*
X0425518Y0072213D01*
X0425586Y0072268D01*
X0425651Y0072325D01*
X0425714Y0072386D01*
X0425775Y0072449D01*
X0425832Y0072514D01*
X0425887Y0072582D01*
X0425938Y0072653D01*
X0425987Y0072725D01*
X0426032Y0072800D01*
X0426074Y0072877D01*
X0426113Y0072955D01*
X0426148Y0073035D01*
X0426179Y0073116D01*
X0426207Y0073199D01*
X0426232Y0073282D01*
X0426253Y0073367D01*
X0426270Y0073453D01*
X0426283Y0073539D01*
X0426292Y0073626D01*
X0426298Y0073713D01*
X0426300Y0073800D01*
X0426300Y0079800D01*
X0424800Y0079800D01*
X0418800Y0079800D02*
X0404800Y0079800D01*
X0398800Y0079800D02*
X0397300Y0079800D01*
X0397300Y0073800D01*
X0397302Y0073713D01*
X0397308Y0073626D01*
X0397317Y0073539D01*
X0397330Y0073453D01*
X0397347Y0073367D01*
X0397368Y0073282D01*
X0397393Y0073199D01*
X0397421Y0073116D01*
X0397452Y0073035D01*
X0397487Y0072955D01*
X0397526Y0072877D01*
X0397568Y0072800D01*
X0397613Y0072725D01*
X0397662Y0072653D01*
X0397713Y0072582D01*
X0397768Y0072514D01*
X0397825Y0072449D01*
X0397886Y0072386D01*
X0397949Y0072325D01*
X0398014Y0072268D01*
X0398082Y0072213D01*
X0398153Y0072162D01*
X0398225Y0072113D01*
X0398300Y0072068D01*
X0398377Y0072026D01*
X0398455Y0071987D01*
X0398535Y0071952D01*
X0398616Y0071921D01*
X0398699Y0071893D01*
X0398782Y0071868D01*
X0398867Y0071847D01*
X0398953Y0071830D01*
X0399039Y0071817D01*
X0399126Y0071808D01*
X0399213Y0071802D01*
X0399300Y0071800D01*
X0316098Y0039198D02*
X0316096Y0039111D01*
X0316090Y0039024D01*
X0316081Y0038937D01*
X0316068Y0038851D01*
X0316051Y0038765D01*
X0316030Y0038680D01*
X0316005Y0038597D01*
X0315977Y0038514D01*
X0315946Y0038433D01*
X0315911Y0038353D01*
X0315872Y0038275D01*
X0315830Y0038198D01*
X0315785Y0038123D01*
X0315736Y0038051D01*
X0315685Y0037980D01*
X0315630Y0037912D01*
X0315573Y0037847D01*
X0315512Y0037784D01*
X0315449Y0037723D01*
X0315384Y0037666D01*
X0315316Y0037611D01*
X0315245Y0037560D01*
X0315173Y0037511D01*
X0315098Y0037466D01*
X0315021Y0037424D01*
X0314943Y0037385D01*
X0314863Y0037350D01*
X0314782Y0037319D01*
X0314699Y0037291D01*
X0314616Y0037266D01*
X0314531Y0037245D01*
X0314445Y0037228D01*
X0314359Y0037215D01*
X0314272Y0037206D01*
X0314185Y0037200D01*
X0314098Y0037198D01*
X0309367Y0037349D02*
X0309280Y0037351D01*
X0309193Y0037357D01*
X0309106Y0037366D01*
X0309020Y0037379D01*
X0308934Y0037396D01*
X0308849Y0037417D01*
X0308766Y0037442D01*
X0308683Y0037470D01*
X0308602Y0037501D01*
X0308522Y0037536D01*
X0308444Y0037575D01*
X0308367Y0037617D01*
X0308292Y0037662D01*
X0308220Y0037711D01*
X0308149Y0037762D01*
X0308081Y0037817D01*
X0308016Y0037874D01*
X0307953Y0037935D01*
X0307892Y0037998D01*
X0307835Y0038063D01*
X0307780Y0038131D01*
X0307729Y0038202D01*
X0307680Y0038274D01*
X0307635Y0038349D01*
X0307593Y0038426D01*
X0307554Y0038504D01*
X0307519Y0038584D01*
X0307488Y0038665D01*
X0307460Y0038748D01*
X0307435Y0038831D01*
X0307414Y0038916D01*
X0307397Y0039002D01*
X0307384Y0039088D01*
X0307375Y0039175D01*
X0307369Y0039262D01*
X0307367Y0039349D01*
X0306300Y0034300D02*
X0306300Y0032800D01*
X0306298Y0032740D01*
X0306293Y0032679D01*
X0306284Y0032620D01*
X0306271Y0032561D01*
X0306255Y0032502D01*
X0306235Y0032445D01*
X0306212Y0032390D01*
X0306185Y0032335D01*
X0306156Y0032283D01*
X0306123Y0032232D01*
X0306087Y0032183D01*
X0306049Y0032137D01*
X0306007Y0032093D01*
X0305963Y0032051D01*
X0305917Y0032013D01*
X0305868Y0031977D01*
X0305817Y0031944D01*
X0305765Y0031915D01*
X0305710Y0031888D01*
X0305655Y0031865D01*
X0305598Y0031845D01*
X0305539Y0031829D01*
X0305480Y0031816D01*
X0305421Y0031807D01*
X0305360Y0031802D01*
X0305300Y0031800D01*
X0298300Y0031800D02*
X0298240Y0031802D01*
X0298179Y0031807D01*
X0298120Y0031816D01*
X0298061Y0031829D01*
X0298002Y0031845D01*
X0297945Y0031865D01*
X0297890Y0031888D01*
X0297835Y0031915D01*
X0297783Y0031944D01*
X0297732Y0031977D01*
X0297683Y0032013D01*
X0297637Y0032051D01*
X0297593Y0032093D01*
X0297551Y0032137D01*
X0297513Y0032183D01*
X0297477Y0032232D01*
X0297444Y0032283D01*
X0297415Y0032335D01*
X0297388Y0032390D01*
X0297365Y0032445D01*
X0297345Y0032502D01*
X0297329Y0032561D01*
X0297316Y0032620D01*
X0297307Y0032679D01*
X0297302Y0032740D01*
X0297300Y0032800D01*
X0297300Y0034300D01*
X0393800Y0031800D02*
X0393800Y0021800D01*
X0409800Y0021800D01*
X0409800Y0031800D01*
X0393800Y0031800D01*
X0397800Y0029300D02*
X0401800Y0026800D01*
X0401800Y0029300D01*
X0397800Y0029300D02*
X0397800Y0024300D01*
X0401800Y0026800D01*
X0401800Y0024300D01*
X0401800Y0026800D02*
X0395800Y0026800D01*
X0401800Y0026800D02*
X0404300Y0026800D01*
X0404800Y0017300D02*
X0418800Y0017300D01*
X0424800Y0017300D02*
X0426300Y0017300D01*
X0426300Y0011300D01*
X0426298Y0011213D01*
X0426292Y0011126D01*
X0426283Y0011039D01*
X0426270Y0010953D01*
X0426253Y0010867D01*
X0426232Y0010782D01*
X0426207Y0010699D01*
X0426179Y0010616D01*
X0426148Y0010535D01*
X0426113Y0010455D01*
X0426074Y0010377D01*
X0426032Y0010300D01*
X0425987Y0010225D01*
X0425938Y0010153D01*
X0425887Y0010082D01*
X0425832Y0010014D01*
X0425775Y0009949D01*
X0425714Y0009886D01*
X0425651Y0009825D01*
X0425586Y0009768D01*
X0425518Y0009713D01*
X0425447Y0009662D01*
X0425375Y0009613D01*
X0425300Y0009568D01*
X0425223Y0009526D01*
X0425145Y0009487D01*
X0425065Y0009452D01*
X0424984Y0009421D01*
X0424901Y0009393D01*
X0424818Y0009368D01*
X0424733Y0009347D01*
X0424647Y0009330D01*
X0424561Y0009317D01*
X0424474Y0009308D01*
X0424387Y0009302D01*
X0424300Y0009300D01*
X0399300Y0009300D01*
X0399213Y0009302D01*
X0399126Y0009308D01*
X0399039Y0009317D01*
X0398953Y0009330D01*
X0398867Y0009347D01*
X0398782Y0009368D01*
X0398699Y0009393D01*
X0398616Y0009421D01*
X0398535Y0009452D01*
X0398455Y0009487D01*
X0398377Y0009526D01*
X0398300Y0009568D01*
X0398225Y0009613D01*
X0398153Y0009662D01*
X0398082Y0009713D01*
X0398014Y0009768D01*
X0397949Y0009825D01*
X0397886Y0009886D01*
X0397825Y0009949D01*
X0397768Y0010014D01*
X0397713Y0010082D01*
X0397662Y0010153D01*
X0397613Y0010225D01*
X0397568Y0010300D01*
X0397526Y0010377D01*
X0397487Y0010455D01*
X0397452Y0010535D01*
X0397421Y0010616D01*
X0397393Y0010699D01*
X0397368Y0010782D01*
X0397347Y0010867D01*
X0397330Y0010953D01*
X0397317Y0011039D01*
X0397308Y0011126D01*
X0397302Y0011213D01*
X0397300Y0011300D01*
X0397300Y0017300D01*
X0398800Y0017300D01*
D14*
X0300588Y0034969D02*
X0297485Y0034969D01*
X0297485Y0036521D01*
X0298002Y0037038D01*
X0299036Y0037038D01*
X0299554Y0036521D01*
X0299554Y0034969D01*
X0299554Y0036004D02*
X0300588Y0037038D01*
X0300588Y0038192D02*
X0300071Y0038192D01*
X0298002Y0040261D01*
X0297485Y0040261D01*
X0297485Y0038192D01*
X0306812Y0042913D02*
X0307412Y0042313D01*
X0309814Y0042313D01*
X0310415Y0042913D01*
X0310415Y0044114D01*
X0309814Y0044715D01*
X0309814Y0045996D02*
X0310415Y0046597D01*
X0310415Y0047798D01*
X0309814Y0048398D01*
X0308613Y0048398D01*
X0308013Y0047798D01*
X0308013Y0047197D01*
X0308613Y0045996D01*
X0306812Y0045996D01*
X0306812Y0048398D01*
X0312025Y0047730D02*
X0312625Y0048331D01*
X0315027Y0045929D01*
X0315628Y0046529D01*
X0315628Y0047730D01*
X0315027Y0048331D01*
X0312625Y0048331D01*
X0312025Y0047730D02*
X0312025Y0046529D01*
X0312625Y0045929D01*
X0315027Y0045929D01*
X0315628Y0044648D02*
X0315628Y0042246D01*
X0315628Y0043447D02*
X0312025Y0043447D01*
X0313226Y0042246D01*
X0306812Y0042913D02*
X0306812Y0044114D01*
X0307412Y0044715D01*
X0312625Y0049612D02*
X0312025Y0050212D01*
X0312025Y0051413D01*
X0312625Y0052014D01*
X0315027Y0049612D01*
X0315628Y0050212D01*
X0315628Y0051413D01*
X0315027Y0052014D01*
X0312625Y0052014D01*
X0313226Y0053295D02*
X0313226Y0055097D01*
X0313826Y0055697D01*
X0315628Y0055697D01*
X0315628Y0053295D02*
X0313226Y0053295D01*
X0312625Y0049612D02*
X0315027Y0049612D01*
X0220628Y0048197D02*
X0218826Y0048197D01*
X0218226Y0047597D01*
X0218226Y0045795D01*
X0220628Y0045795D01*
X0220027Y0044514D02*
X0220628Y0043913D01*
X0220628Y0042712D01*
X0220027Y0042112D01*
X0217625Y0044514D01*
X0220027Y0044514D01*
X0217625Y0044514D02*
X0217025Y0043913D01*
X0217025Y0042712D01*
X0217625Y0042112D01*
X0220027Y0042112D01*
X0220027Y0040831D02*
X0220628Y0040230D01*
X0220628Y0039029D01*
X0220027Y0038429D01*
X0217625Y0040831D01*
X0220027Y0040831D01*
X0217625Y0040831D02*
X0217025Y0040230D01*
X0217025Y0039029D01*
X0217625Y0038429D01*
X0220027Y0038429D01*
X0215415Y0039097D02*
X0214814Y0038496D01*
X0214214Y0038496D01*
X0213613Y0039097D01*
X0213613Y0040298D01*
X0214214Y0040898D01*
X0214814Y0040898D01*
X0215415Y0040298D01*
X0215415Y0039097D01*
X0213613Y0039097D02*
X0213013Y0038496D01*
X0212412Y0038496D01*
X0211812Y0039097D01*
X0211812Y0040298D01*
X0212412Y0040898D01*
X0213013Y0040898D01*
X0213613Y0040298D01*
X0210628Y0040831D02*
X0208826Y0040831D01*
X0208226Y0040230D01*
X0208226Y0038429D01*
X0210628Y0038429D01*
X0205415Y0038496D02*
X0205415Y0040898D01*
X0205415Y0039697D02*
X0201812Y0039697D01*
X0203013Y0038496D01*
X0202412Y0037215D02*
X0201812Y0036614D01*
X0201812Y0035413D01*
X0202412Y0034813D01*
X0204814Y0034813D01*
X0205415Y0035413D01*
X0205415Y0036614D01*
X0204814Y0037215D01*
X0207025Y0035947D02*
X0210628Y0035947D01*
X0210628Y0034746D02*
X0210628Y0037148D01*
X0211812Y0036614D02*
X0211812Y0035413D01*
X0212412Y0034813D01*
X0214814Y0034813D01*
X0215415Y0035413D01*
X0215415Y0036614D01*
X0214814Y0037215D01*
X0212412Y0037215D02*
X0211812Y0036614D01*
X0208226Y0034746D02*
X0207025Y0035947D01*
X0217025Y0035947D02*
X0218226Y0034746D01*
X0217025Y0035947D02*
X0220628Y0035947D01*
X0220628Y0034746D02*
X0220628Y0037148D01*
X0191100Y0041734D02*
X0191100Y0042935D01*
X0190499Y0043536D01*
X0188097Y0043536D02*
X0187497Y0042935D01*
X0187497Y0041734D01*
X0188097Y0041134D01*
X0190499Y0041134D01*
X0191100Y0041734D01*
X0186100Y0041734D02*
X0185499Y0041134D01*
X0183097Y0043536D01*
X0185499Y0043536D01*
X0186100Y0042935D01*
X0186100Y0041734D01*
X0185499Y0041134D02*
X0183097Y0041134D01*
X0182497Y0041734D01*
X0182497Y0042935D01*
X0183097Y0043536D01*
X0183698Y0044817D02*
X0183698Y0046618D01*
X0184298Y0047219D01*
X0186100Y0047219D01*
X0187497Y0046618D02*
X0188097Y0047219D01*
X0188698Y0047219D01*
X0189298Y0046618D01*
X0189899Y0047219D01*
X0190499Y0047219D01*
X0191100Y0046618D01*
X0191100Y0045417D01*
X0190499Y0044817D01*
X0189298Y0046018D02*
X0189298Y0046618D01*
X0187497Y0046618D02*
X0187497Y0045417D01*
X0188097Y0044817D01*
X0186100Y0044817D02*
X0183698Y0044817D01*
X0171785Y0043622D02*
X0171185Y0044223D01*
X0171785Y0043622D02*
X0171785Y0042421D01*
X0171185Y0041821D01*
X0168783Y0041821D01*
X0168182Y0042421D01*
X0168182Y0043622D01*
X0168783Y0044223D01*
X0169984Y0045504D02*
X0169984Y0047906D01*
X0171785Y0047305D02*
X0168182Y0047305D01*
X0169984Y0045504D01*
X0166572Y0045571D02*
X0164170Y0045571D01*
X0164170Y0047373D01*
X0164771Y0047973D01*
X0166572Y0047973D01*
X0166572Y0044290D02*
X0166572Y0041888D01*
X0164170Y0041888D02*
X0162969Y0043089D01*
X0166572Y0043089D01*
X0172485Y0040261D02*
X0173002Y0039226D01*
X0174036Y0038192D01*
X0174036Y0039743D01*
X0174554Y0040261D01*
X0175071Y0040261D01*
X0175588Y0039743D01*
X0175588Y0038709D01*
X0175071Y0038192D01*
X0174036Y0038192D01*
X0174036Y0037038D02*
X0174554Y0036521D01*
X0174554Y0034969D01*
X0175588Y0034969D02*
X0172485Y0034969D01*
X0172485Y0036521D01*
X0173002Y0037038D01*
X0174036Y0037038D01*
X0174554Y0036004D02*
X0175588Y0037038D01*
X0182497Y0038051D02*
X0182497Y0039252D01*
X0183097Y0039853D01*
X0185499Y0037451D01*
X0186100Y0038051D01*
X0186100Y0039252D01*
X0185499Y0039853D01*
X0183097Y0039853D01*
X0182497Y0038051D02*
X0183097Y0037451D01*
X0185499Y0037451D01*
X0186100Y0036169D02*
X0186100Y0033767D01*
X0186100Y0034968D02*
X0182497Y0034968D01*
X0183698Y0033767D01*
X0155588Y0034969D02*
X0152485Y0034969D01*
X0152485Y0036521D01*
X0153002Y0037038D01*
X0154036Y0037038D01*
X0154554Y0036521D01*
X0154554Y0034969D01*
X0154554Y0036004D02*
X0155588Y0037038D01*
X0154036Y0038192D02*
X0154036Y0040261D01*
X0152485Y0039743D02*
X0154036Y0038192D01*
X0152485Y0039743D02*
X0155588Y0039743D01*
X0133088Y0039743D02*
X0133088Y0038709D01*
X0132571Y0038192D01*
X0133088Y0037038D02*
X0132054Y0036004D01*
X0132054Y0036521D02*
X0132054Y0034969D01*
X0133088Y0034969D02*
X0129985Y0034969D01*
X0129985Y0036521D01*
X0130502Y0037038D01*
X0131536Y0037038D01*
X0132054Y0036521D01*
X0130502Y0038192D02*
X0129985Y0038709D01*
X0129985Y0039743D01*
X0130502Y0040261D01*
X0131019Y0040261D01*
X0131536Y0039743D01*
X0132054Y0040261D01*
X0132571Y0040261D01*
X0133088Y0039743D01*
X0131536Y0039743D02*
X0131536Y0039226D01*
X0126100Y0039784D02*
X0126100Y0040985D01*
X0125499Y0041585D01*
X0123097Y0041585D01*
X0125499Y0039183D01*
X0126100Y0039784D01*
X0125499Y0039183D02*
X0123097Y0039183D01*
X0122497Y0039784D01*
X0122497Y0040985D01*
X0123097Y0041585D01*
X0121100Y0041585D02*
X0121100Y0039183D01*
X0118698Y0041585D01*
X0118097Y0041585D01*
X0117497Y0040985D01*
X0117497Y0039784D01*
X0118097Y0039183D01*
X0118097Y0037902D02*
X0117497Y0037302D01*
X0117497Y0036101D01*
X0118097Y0035500D01*
X0120499Y0035500D01*
X0121100Y0036101D01*
X0121100Y0037302D01*
X0120499Y0037902D01*
X0122497Y0036701D02*
X0126100Y0036701D01*
X0126100Y0035500D02*
X0126100Y0037902D01*
X0123698Y0035500D02*
X0122497Y0036701D01*
X0123097Y0042866D02*
X0122497Y0043467D01*
X0122497Y0044668D01*
X0123097Y0045268D01*
X0125499Y0042866D01*
X0126100Y0043467D01*
X0126100Y0044668D01*
X0125499Y0045268D01*
X0123097Y0045268D01*
X0123698Y0046549D02*
X0123698Y0048351D01*
X0124298Y0048951D01*
X0126100Y0048951D01*
X0126100Y0046549D02*
X0123698Y0046549D01*
X0123097Y0042866D02*
X0125499Y0042866D01*
X0198010Y0047585D02*
X0198010Y0049136D01*
X0198527Y0049654D01*
X0199561Y0049654D01*
X0200078Y0049136D01*
X0200078Y0047585D01*
X0201112Y0047585D02*
X0198010Y0047585D01*
X0200078Y0048619D02*
X0201112Y0049654D01*
X0200595Y0050808D02*
X0201112Y0051325D01*
X0201112Y0052359D01*
X0200595Y0052876D01*
X0199561Y0052876D01*
X0199044Y0052359D01*
X0199044Y0051842D01*
X0199561Y0050808D01*
X0198010Y0050808D01*
X0198010Y0052876D01*
D15*
X0396300Y0064300D03*
X0407300Y0026800D03*
D16*
X0413550Y0026800D03*
X0390050Y0026800D03*
X0390050Y0064300D03*
X0413550Y0064300D03*
D17*
X0407708Y0061702D02*
X0407108Y0061101D01*
X0406467Y0061401D02*
X0405266Y0060200D01*
X0405567Y0059900D01*
X0406167Y0059900D01*
X0406467Y0060200D01*
X0406467Y0061401D01*
X0406167Y0061702D01*
X0405567Y0061702D01*
X0405266Y0061401D01*
X0405266Y0060200D01*
X0404626Y0060200D02*
X0404325Y0059900D01*
X0403725Y0059900D01*
X0403425Y0060200D01*
X0404626Y0061401D01*
X0404626Y0060200D01*
X0403425Y0060200D02*
X0403425Y0061401D01*
X0403725Y0061702D01*
X0404325Y0061702D01*
X0404626Y0061401D01*
X0402784Y0060801D02*
X0401583Y0060801D01*
X0402484Y0061702D01*
X0402484Y0059900D01*
X0400943Y0059900D02*
X0400943Y0061702D01*
X0399742Y0061702D02*
X0400943Y0059900D01*
X0399742Y0059900D02*
X0399742Y0061702D01*
X0398501Y0061702D02*
X0398501Y0059900D01*
X0399101Y0059900D02*
X0397900Y0059900D01*
X0407108Y0059900D02*
X0408309Y0059900D01*
X0407708Y0059900D02*
X0407708Y0061702D01*
X0398501Y0061702D02*
X0397900Y0061101D01*
X0397900Y0066400D02*
X0399001Y0066400D01*
X0399368Y0066767D01*
X0399368Y0068235D01*
X0399001Y0068602D01*
X0397900Y0068602D01*
X0397900Y0066400D01*
X0400110Y0066767D02*
X0400477Y0066400D01*
X0401211Y0066400D01*
X0401578Y0066767D01*
X0401578Y0067134D01*
X0401211Y0067501D01*
X0400110Y0067501D01*
X0400110Y0066767D01*
X0400110Y0067501D02*
X0400844Y0068235D01*
X0401578Y0068602D01*
X0408060Y0074500D02*
X0408060Y0076702D01*
X0409528Y0076702D01*
X0410270Y0076702D02*
X0410270Y0074867D01*
X0410637Y0074500D01*
X0411371Y0074500D01*
X0411738Y0074867D01*
X0411738Y0076702D01*
X0412480Y0076335D02*
X0412480Y0075968D01*
X0412847Y0075601D01*
X0413581Y0075601D01*
X0413948Y0075234D01*
X0413948Y0074867D01*
X0413581Y0074500D01*
X0412847Y0074500D01*
X0412480Y0074867D01*
X0412480Y0076335D02*
X0412847Y0076702D01*
X0413581Y0076702D01*
X0413948Y0076335D01*
X0414690Y0076702D02*
X0414690Y0074500D01*
X0416158Y0074500D01*
X0415424Y0075601D02*
X0414690Y0075601D01*
X0408794Y0075601D02*
X0408060Y0075601D01*
X0414690Y0076702D02*
X0416158Y0076702D01*
X0404659Y0031202D02*
X0404659Y0029400D01*
X0405259Y0029400D02*
X0404058Y0029400D01*
X0403418Y0029700D02*
X0403118Y0029400D01*
X0402517Y0029400D01*
X0402217Y0029700D01*
X0403418Y0030901D01*
X0403418Y0029700D01*
X0404058Y0030601D02*
X0404659Y0031202D01*
X0403418Y0030901D02*
X0403118Y0031202D01*
X0402517Y0031202D01*
X0402217Y0030901D01*
X0402217Y0029700D01*
X0401576Y0029700D02*
X0401276Y0029400D01*
X0400676Y0029400D01*
X0400375Y0029700D01*
X0401576Y0030901D01*
X0401576Y0029700D01*
X0400375Y0029700D02*
X0400375Y0030901D01*
X0400676Y0031202D01*
X0401276Y0031202D01*
X0401576Y0030901D01*
X0399735Y0030301D02*
X0398534Y0030301D01*
X0399434Y0031202D01*
X0399434Y0029400D01*
X0397893Y0029400D02*
X0397893Y0031202D01*
X0396692Y0031202D02*
X0397893Y0029400D01*
X0396692Y0029400D02*
X0396692Y0031202D01*
X0395451Y0031202D02*
X0394851Y0030601D01*
X0395451Y0031202D02*
X0395451Y0029400D01*
X0394851Y0029400D02*
X0396052Y0029400D01*
X0401480Y0024702D02*
X0402581Y0024702D01*
X0402948Y0024335D01*
X0402948Y0022867D01*
X0402581Y0022500D01*
X0401480Y0022500D01*
X0401480Y0024702D01*
X0403690Y0024702D02*
X0403690Y0023601D01*
X0404424Y0023968D01*
X0404791Y0023968D01*
X0405158Y0023601D01*
X0405158Y0022867D01*
X0404791Y0022500D01*
X0404057Y0022500D01*
X0403690Y0022867D01*
X0403690Y0024702D02*
X0405158Y0024702D01*
X0408115Y0014877D02*
X0409583Y0014877D01*
X0410325Y0014877D02*
X0410325Y0013042D01*
X0410692Y0012675D01*
X0411426Y0012675D01*
X0411793Y0013042D01*
X0411793Y0014877D01*
X0412535Y0014510D02*
X0412535Y0014143D01*
X0412902Y0013776D01*
X0413636Y0013776D01*
X0414003Y0013409D01*
X0414003Y0013042D01*
X0413636Y0012675D01*
X0412902Y0012675D01*
X0412535Y0013042D01*
X0412535Y0014510D02*
X0412902Y0014877D01*
X0413636Y0014877D01*
X0414003Y0014510D01*
X0414745Y0014877D02*
X0414745Y0012675D01*
X0416213Y0012675D01*
X0408115Y0012675D02*
X0408115Y0014877D01*
X0408115Y0013776D02*
X0408849Y0013776D01*
X0414745Y0013776D02*
X0415479Y0013776D01*
X0416213Y0014877D02*
X0414745Y0014877D01*
D18*
X0084300Y0048050D03*
X0074300Y0040550D03*
X0044300Y0040550D03*
X0034300Y0048050D03*
D19*
X0034300Y0053050D03*
X0044300Y0053050D03*
X0074300Y0053050D03*
X0084300Y0053050D03*
X0084300Y0035550D03*
X0074300Y0035550D03*
X0044300Y0035550D03*
X0034300Y0035550D03*
D20*
X0029550Y0036182D02*
X0028799Y0036933D01*
X0028049Y0036933D01*
X0027298Y0036182D01*
X0027298Y0033930D01*
X0025046Y0033930D02*
X0025046Y0036182D01*
X0025797Y0036933D01*
X0026547Y0036933D01*
X0027298Y0036182D01*
X0029550Y0036182D02*
X0029550Y0033930D01*
X0025046Y0033930D01*
X0026547Y0038534D02*
X0025046Y0040036D01*
X0026547Y0041537D01*
X0029550Y0041537D01*
X0027298Y0041537D02*
X0027298Y0038534D01*
X0026547Y0038534D02*
X0029550Y0038534D01*
X0025046Y0043138D02*
X0025046Y0046141D01*
X0025046Y0044639D02*
X0029550Y0044639D01*
X0027298Y0047742D02*
X0027298Y0050745D01*
X0025046Y0049994D02*
X0027298Y0047742D01*
X0029550Y0049994D02*
X0025046Y0049994D01*
X0025797Y0052346D02*
X0025046Y0053097D01*
X0025046Y0054598D01*
X0025797Y0055349D01*
X0026547Y0055349D01*
X0029550Y0052346D01*
X0029550Y0055349D01*
X0088646Y0052818D02*
X0088646Y0051316D01*
X0089397Y0050566D01*
X0090147Y0053568D02*
X0093150Y0050566D01*
X0093150Y0053568D01*
X0090147Y0053568D02*
X0089397Y0053568D01*
X0088646Y0052818D01*
X0090898Y0048964D02*
X0090898Y0045962D01*
X0088646Y0048214D01*
X0093150Y0048214D01*
X0088646Y0044360D02*
X0088646Y0041358D01*
X0088646Y0042859D02*
X0093150Y0042859D01*
X0093150Y0039756D02*
X0090147Y0039756D01*
X0088646Y0038255D01*
X0090147Y0036754D01*
X0093150Y0036754D01*
X0090898Y0036754D02*
X0090898Y0039756D01*
X0090147Y0035153D02*
X0090898Y0034402D01*
X0090898Y0032150D01*
X0093150Y0032150D02*
X0088646Y0032150D01*
X0088646Y0034402D01*
X0089397Y0035153D01*
X0090147Y0035153D01*
X0090898Y0034402D02*
X0091649Y0035153D01*
X0092399Y0035153D01*
X0093150Y0034402D01*
X0093150Y0032150D01*
X0133992Y0043435D02*
X0134659Y0042768D01*
X0135326Y0042768D01*
X0135994Y0043435D01*
X0135994Y0044770D01*
X0136661Y0045437D01*
X0137328Y0045437D01*
X0137995Y0044770D01*
X0137995Y0043435D01*
X0137328Y0042768D01*
X0136661Y0042768D01*
X0135994Y0043435D01*
X0133992Y0043435D02*
X0133992Y0044770D01*
X0134659Y0045437D01*
X0135326Y0045437D01*
X0135994Y0044770D01*
X0137328Y0046912D02*
X0137328Y0047579D01*
X0137995Y0047579D01*
X0137995Y0046912D01*
X0137328Y0046912D01*
X0137995Y0048983D02*
X0135326Y0051652D01*
X0134659Y0051652D01*
X0133992Y0050985D01*
X0133992Y0049651D01*
X0134659Y0048983D01*
X0137995Y0048983D02*
X0137995Y0051652D01*
X0137995Y0053127D02*
X0133992Y0053127D01*
X0135326Y0055129D02*
X0136661Y0053127D01*
X0137995Y0055129D01*
X0156492Y0053127D02*
X0160495Y0053127D01*
X0159161Y0053127D02*
X0157826Y0055129D01*
X0159161Y0053127D02*
X0160495Y0055129D01*
X0176492Y0053127D02*
X0180495Y0053127D01*
X0179161Y0053127D02*
X0177826Y0055129D01*
X0179161Y0053127D02*
X0180495Y0055129D01*
X0179828Y0051652D02*
X0180495Y0050985D01*
X0180495Y0049651D01*
X0179828Y0048983D01*
X0177159Y0051652D01*
X0179828Y0051652D01*
X0177159Y0051652D02*
X0176492Y0050985D01*
X0176492Y0049651D01*
X0177159Y0048983D01*
X0179828Y0048983D01*
X0179828Y0047509D02*
X0180495Y0046842D01*
X0180495Y0045507D01*
X0179828Y0044840D01*
X0177159Y0047509D01*
X0179828Y0047509D01*
X0177159Y0047509D02*
X0176492Y0046842D01*
X0176492Y0045507D01*
X0177159Y0044840D01*
X0179828Y0044840D01*
X0180495Y0043365D02*
X0180495Y0040696D01*
X0177826Y0040696D02*
X0176492Y0042031D01*
X0180495Y0042031D01*
X0193101Y0041474D02*
X0193768Y0040807D01*
X0196437Y0040807D01*
X0193768Y0043476D01*
X0196437Y0043476D01*
X0197105Y0042809D01*
X0197105Y0041474D01*
X0196437Y0040807D01*
X0196437Y0039333D02*
X0197105Y0038665D01*
X0197105Y0037331D01*
X0196437Y0036664D01*
X0195103Y0037998D02*
X0195103Y0038665D01*
X0195770Y0039333D01*
X0196437Y0039333D01*
X0195103Y0038665D02*
X0194436Y0039333D01*
X0193768Y0039333D01*
X0193101Y0038665D01*
X0193101Y0037331D01*
X0193768Y0036664D01*
X0193768Y0035189D02*
X0194436Y0035189D01*
X0195103Y0034522D01*
X0195770Y0035189D01*
X0196437Y0035189D01*
X0197105Y0034522D01*
X0197105Y0033187D01*
X0196437Y0032520D01*
X0193768Y0032520D02*
X0193101Y0033187D01*
X0193101Y0034522D01*
X0193768Y0035189D01*
X0195103Y0034522D02*
X0195103Y0033855D01*
X0193101Y0041474D02*
X0193101Y0042809D01*
X0193768Y0043476D01*
X0193101Y0044951D02*
X0197105Y0044951D01*
X0195770Y0044951D02*
X0193101Y0047620D01*
X0195103Y0045618D02*
X0197105Y0047620D01*
X0160495Y0047579D02*
X0160495Y0046912D01*
X0159828Y0046912D01*
X0159828Y0047579D01*
X0160495Y0047579D01*
X0160495Y0048983D02*
X0157826Y0051652D01*
X0157159Y0051652D01*
X0156492Y0050985D01*
X0156492Y0049651D01*
X0157159Y0048983D01*
X0160495Y0048983D02*
X0160495Y0051652D01*
X0159828Y0045437D02*
X0160495Y0044770D01*
X0160495Y0043435D01*
X0159828Y0042768D01*
X0159161Y0042768D01*
X0158494Y0043435D01*
X0158494Y0044770D01*
X0159161Y0045437D01*
X0159828Y0045437D01*
X0158494Y0044770D02*
X0157826Y0045437D01*
X0157159Y0045437D01*
X0156492Y0044770D01*
X0156492Y0043435D01*
X0157159Y0042768D01*
X0157826Y0042768D01*
X0158494Y0043435D01*
X0125226Y0044550D02*
X0122223Y0044550D01*
X0123724Y0044550D02*
X0123724Y0049054D01*
X0122223Y0047553D01*
X0120622Y0048303D02*
X0119871Y0049054D01*
X0118370Y0049054D01*
X0117619Y0048303D01*
X0117619Y0045301D01*
X0118370Y0044550D01*
X0119871Y0044550D01*
X0120622Y0045301D01*
X0116051Y0044550D02*
X0114550Y0044550D01*
X0115301Y0044550D02*
X0115301Y0049054D01*
X0116051Y0049054D02*
X0114550Y0049054D01*
X0233050Y0046554D02*
X0236053Y0046554D01*
X0234551Y0046554D02*
X0234551Y0042050D01*
X0237654Y0042050D02*
X0240656Y0042050D01*
X0242258Y0042801D02*
X0245260Y0045803D01*
X0245260Y0042801D01*
X0244510Y0042050D01*
X0243008Y0042050D01*
X0242258Y0042801D01*
X0242258Y0045803D01*
X0243008Y0046554D01*
X0244510Y0046554D01*
X0245260Y0045803D01*
X0246862Y0046554D02*
X0249864Y0046554D01*
X0249864Y0045803D01*
X0246862Y0042801D01*
X0246862Y0042050D01*
X0253718Y0042050D02*
X0253718Y0046554D01*
X0251466Y0044302D01*
X0254468Y0044302D01*
X0237654Y0046554D02*
X0237654Y0042050D01*
X0301492Y0050318D02*
X0302826Y0048983D01*
X0305495Y0048983D02*
X0305495Y0051652D01*
X0305495Y0050318D02*
X0301492Y0050318D01*
X0301492Y0053127D02*
X0305495Y0053127D01*
X0304161Y0053127D02*
X0302826Y0055129D01*
X0304161Y0053127D02*
X0305495Y0055129D01*
D21*
X0356928Y0076800D03*
X0381672Y0076800D03*
X0381672Y0014300D03*
X0356928Y0014300D03*
M02*
