%
M48
M72
T01C0.0130
T02C0.0276
T03C0.0320
T04C0.0354
T05C0.0394
T06C0.0400
T07C0.0433
T08C0.0827
T09C0.1260
%
T01
X25744Y3708
X32494Y3708
X35494Y5208
X33494Y5458
X25994Y6458
T02
X25710Y8208
X24844Y8208
X23978Y8208
X24411Y8641
X25277Y8641
X26143Y8641
X27009Y8641
X26576Y8208
T03
X28494Y8458
X29494Y8458
X22494Y6958
X21744Y6958
X20744Y7458
X19744Y7458
X28494Y4458
X29494Y4458
X22494Y3958
X21744Y3958
X20744Y3458
X19744Y3458
X18744Y2458
X22744Y2458
X28244Y2958
X29244Y2958
X37244Y3458
X43744Y2458
X47744Y2458
X49394Y2358
X49394Y3358
X48244Y3458
X49394Y4108
X49394Y5108
X49394Y5858
X49394Y6858
X48244Y7458
X49394Y7608
X48244Y8458
X49394Y8608
X44244Y8458
X37244Y7458
X38244Y6958
X39244Y6958
X40494Y6958
X41744Y6958
X41744Y5958
X40494Y5958
X39244Y5958
X38244Y5958
T04
X27187Y6960
X23801Y6960
T05
X24509Y5192
X26478Y5192
X26478Y3224
X24509Y3224
T06
X30494Y2208
X31494Y2208
X32494Y2208
X33494Y2208
X34494Y2208
X35494Y2208
X36494Y2208
X36494Y8458
X35494Y8458
X34494Y8458
X33494Y8458
X32494Y8458
X31494Y8458
X30494Y8458
X37494Y8458
X38494Y8458
X39494Y8458
X40494Y8458
T07
X8525Y3458
X11872Y3458
X13053Y3458
X14275Y3458
X17622Y3458
X18803Y3458
X31738Y4474
X31738Y5458
X31738Y6442
X42738Y6442
X42738Y5458
X42738Y4474
X18803Y7458
X17622Y7458
X14275Y7458
X13053Y7458
X11872Y7458
X8525Y7458
T08
X34494Y7230
X45494Y7230
X45494Y3687
X34494Y3687
T09
X39744Y3208
M30
