G75*
%MOIN*%
%OFA0B0*%
%FSLAX24Y24*%
%IPPOS*%
%LPD*%
%AMOC8*
5,1,8,0,0,1.08239X$1,22.5*
%
%ADD10C,0.0010*%
%ADD11OC8,0.0640*%
%ADD12R,0.0690X0.0690*%
%ADD13C,0.0690*%
%ADD14OC8,0.0520*%
%ADD15C,0.0700*%
%ADD16C,0.0610*%
%ADD17OC8,0.0453*%
%ADD18C,0.0520*%
%ADD19C,0.0631*%
%ADD20C,0.0780*%
%ADD21OC8,0.0700*%
D10*
X001244Y004057D02*
X043370Y004057D01*
X043370Y011734D01*
X001244Y011734D01*
X001244Y004057D01*
D11*
X038494Y007307D03*
X039494Y007307D03*
X040494Y007307D03*
X041494Y007307D03*
X042494Y007307D03*
X042494Y008307D03*
X041494Y008307D03*
X040494Y008307D03*
X039494Y008307D03*
X038494Y008307D03*
D12*
X035994Y009057D03*
X034994Y006557D03*
D13*
X035994Y006557D03*
X034994Y009057D03*
D14*
X033744Y009557D03*
X029744Y008807D03*
X029744Y006807D03*
X033744Y005557D03*
X040494Y005557D03*
X042494Y005557D03*
X042744Y010057D03*
X040744Y010057D03*
X022744Y004557D03*
X018744Y004557D03*
X017994Y004557D03*
X015994Y004557D03*
X017244Y005557D03*
X018244Y005557D03*
X021244Y006507D03*
X020244Y006557D03*
X019244Y006557D03*
X016244Y006557D03*
X016244Y008557D03*
X019244Y008557D03*
X020244Y008557D03*
X021244Y008507D03*
X018244Y009557D03*
X017244Y009557D03*
X007994Y009807D03*
X005994Y009807D03*
X005994Y005807D03*
X007994Y005807D03*
D15*
X038744Y004557D03*
X042744Y004557D03*
X042744Y011057D03*
X038744Y011057D03*
D16*
X014994Y010807D03*
X013994Y010807D03*
X012994Y010807D03*
X011994Y010807D03*
X010994Y010807D03*
X009994Y010807D03*
X008994Y010807D03*
X007994Y010807D03*
X006994Y010807D03*
X005994Y010807D03*
X004994Y010807D03*
X003994Y010807D03*
X002994Y010807D03*
X001994Y010807D03*
X014994Y005807D03*
X014994Y004807D03*
X013994Y004807D03*
X012994Y004807D03*
X011994Y004807D03*
X010994Y004807D03*
X009994Y004807D03*
X008994Y004807D03*
X007994Y004807D03*
X006994Y004807D03*
X005994Y004807D03*
X004994Y004807D03*
X003994Y004807D03*
X002994Y004807D03*
X001994Y004807D03*
D17*
X011494Y006307D03*
X012244Y006807D03*
X011494Y007307D03*
D18*
X009994Y008567D02*
X009994Y009047D01*
X008994Y009047D02*
X008994Y008567D01*
X004994Y009067D02*
X004994Y009547D01*
X003994Y009547D02*
X003994Y009067D01*
X003994Y006547D02*
X003994Y006067D01*
X004994Y006067D02*
X004994Y006547D01*
X008994Y006047D02*
X008994Y005567D01*
X009994Y005567D02*
X009994Y006047D01*
X022494Y006067D02*
X022494Y006547D01*
X023494Y006547D02*
X023494Y006067D01*
X024494Y006067D02*
X024494Y006547D01*
X025494Y006547D02*
X025494Y006067D01*
X026494Y006067D02*
X026494Y006547D01*
X027494Y006547D02*
X027494Y006067D01*
X028494Y006067D02*
X028494Y006547D01*
X028494Y009067D02*
X028494Y009547D01*
X027494Y009547D02*
X027494Y009067D01*
X026494Y009067D02*
X026494Y009547D01*
X025494Y009547D02*
X025494Y009067D01*
X024494Y009067D02*
X024494Y009547D01*
X023494Y009547D02*
X023494Y009067D01*
X022494Y009067D02*
X022494Y009547D01*
D19*
X035364Y010991D03*
X039123Y009623D03*
X039123Y005991D03*
X035364Y004623D03*
D20*
X029744Y004557D03*
X028744Y004557D03*
X027744Y004557D03*
X026744Y004557D03*
X025744Y004557D03*
X024744Y004557D03*
X023744Y004557D03*
X023744Y010807D03*
X024744Y010807D03*
X025744Y010807D03*
X026744Y010807D03*
X027744Y010807D03*
X028744Y010807D03*
X029744Y010807D03*
X030744Y010807D03*
X031744Y010807D03*
X032744Y010807D03*
X033744Y010807D03*
D21*
X031744Y006557D03*
X032744Y005557D03*
X031744Y004557D03*
M02*
