G75*
%MOIN*%
%OFA0B0*%
%FSLAX24Y24*%
%IPPOS*%
%LPD*%
%AMOC8*
5,1,8,0,0,1.08239X$1,22.5*
%
%ADD10C,0.0010*%
%ADD11OC8,0.0600*%
%ADD12R,0.0650X0.0650*%
%ADD13C,0.0650*%
%ADD14OC8,0.0480*%
%ADD15C,0.0660*%
%ADD16C,0.0570*%
%ADD17OC8,0.0413*%
%ADD18C,0.0480*%
%ADD19C,0.0591*%
%ADD20C,0.0740*%
%ADD21OC8,0.0660*%
%ADD22C,0.0120*%
%ADD23C,0.0240*%
%ADD24C,0.0320*%
%ADD25C,0.0080*%
%ADD26C,0.0160*%
%ADD27C,0.0100*%
D10*
X001244Y004057D02*
X043370Y004057D01*
X043370Y011734D01*
X001244Y011734D01*
X001244Y004057D01*
D11*
X038494Y007307D03*
X039494Y007307D03*
X040494Y007307D03*
X041494Y007307D03*
X042494Y007307D03*
X042494Y008307D03*
X041494Y008307D03*
X040494Y008307D03*
X039494Y008307D03*
X038494Y008307D03*
D12*
X035994Y009057D03*
X034994Y006557D03*
D13*
X035994Y006557D03*
X034994Y009057D03*
D14*
X033744Y009557D03*
X029744Y008807D03*
X029744Y006807D03*
X033744Y005557D03*
X040494Y005557D03*
X042494Y005557D03*
X042744Y010057D03*
X040744Y010057D03*
X022744Y004557D03*
X018744Y004557D03*
X017994Y004557D03*
X015994Y004557D03*
X017244Y005557D03*
X018244Y005557D03*
X021244Y006507D03*
X020244Y006557D03*
X019244Y006557D03*
X016244Y006557D03*
X016244Y008557D03*
X019244Y008557D03*
X020244Y008557D03*
X021244Y008507D03*
X018244Y009557D03*
X017244Y009557D03*
X007994Y009807D03*
X005994Y009807D03*
X005994Y005807D03*
X007994Y005807D03*
D15*
X038744Y004557D03*
X042744Y004557D03*
X042744Y011057D03*
X038744Y011057D03*
D16*
X014994Y010807D03*
X013994Y010807D03*
X012994Y010807D03*
X011994Y010807D03*
X010994Y010807D03*
X009994Y010807D03*
X008994Y010807D03*
X007994Y010807D03*
X006994Y010807D03*
X005994Y010807D03*
X004994Y010807D03*
X003994Y010807D03*
X002994Y010807D03*
X001994Y010807D03*
X014994Y005807D03*
X014994Y004807D03*
X013994Y004807D03*
X012994Y004807D03*
X011994Y004807D03*
X010994Y004807D03*
X009994Y004807D03*
X008994Y004807D03*
X007994Y004807D03*
X006994Y004807D03*
X005994Y004807D03*
X004994Y004807D03*
X003994Y004807D03*
X002994Y004807D03*
X001994Y004807D03*
D17*
X011494Y006307D03*
X012244Y006807D03*
X011494Y007307D03*
D18*
X009994Y008567D02*
X009994Y009047D01*
X008994Y009047D02*
X008994Y008567D01*
X004994Y009067D02*
X004994Y009547D01*
X003994Y009547D02*
X003994Y009067D01*
X003994Y006547D02*
X003994Y006067D01*
X004994Y006067D02*
X004994Y006547D01*
X008994Y006047D02*
X008994Y005567D01*
X009994Y005567D02*
X009994Y006047D01*
X022494Y006067D02*
X022494Y006547D01*
X023494Y006547D02*
X023494Y006067D01*
X024494Y006067D02*
X024494Y006547D01*
X025494Y006547D02*
X025494Y006067D01*
X026494Y006067D02*
X026494Y006547D01*
X027494Y006547D02*
X027494Y006067D01*
X028494Y006067D02*
X028494Y006547D01*
X028494Y009067D02*
X028494Y009547D01*
X027494Y009547D02*
X027494Y009067D01*
X026494Y009067D02*
X026494Y009547D01*
X025494Y009547D02*
X025494Y009067D01*
X024494Y009067D02*
X024494Y009547D01*
X023494Y009547D02*
X023494Y009067D01*
X022494Y009067D02*
X022494Y009547D01*
D19*
X035364Y010991D03*
X039123Y009623D03*
X039123Y005991D03*
X035364Y004623D03*
D20*
X029744Y004557D03*
X028744Y004557D03*
X027744Y004557D03*
X026744Y004557D03*
X025744Y004557D03*
X024744Y004557D03*
X023744Y004557D03*
X023744Y010807D03*
X024744Y010807D03*
X025744Y010807D03*
X026744Y010807D03*
X027744Y010807D03*
X028744Y010807D03*
X029744Y010807D03*
X030744Y010807D03*
X031744Y010807D03*
X032744Y010807D03*
X033744Y010807D03*
D21*
X031744Y006557D03*
X032744Y005557D03*
X031744Y004557D03*
D22*
X029744Y006807D02*
X029724Y006857D01*
X029644Y006937D01*
X027004Y006937D01*
X015644Y009657D02*
X008604Y009657D01*
X008364Y009417D01*
X007804Y009417D01*
X007004Y010217D01*
X003004Y010217D01*
X003004Y004857D01*
X002994Y004807D01*
D23*
X017644Y004297D03*
X022684Y005417D03*
X023404Y005257D03*
X027484Y005257D03*
X027724Y005657D03*
X027004Y006937D03*
X025884Y007657D03*
X021964Y009097D03*
X015644Y009657D03*
D24*
X011494Y007307D02*
X021244Y007307D01*
X021244Y006507D01*
X021244Y007307D02*
X024994Y007307D01*
X025494Y006807D01*
X025494Y006307D01*
X025494Y006807D02*
X025994Y007307D01*
X034244Y007307D01*
X034994Y006557D01*
X035364Y006186D01*
X035364Y004623D01*
X039123Y005991D02*
X040060Y005991D01*
X040494Y005557D01*
X042494Y005557D02*
X042494Y004807D01*
X042744Y004557D01*
X042494Y005557D02*
X042494Y007307D01*
X042494Y008307D01*
X041744Y009057D02*
X042744Y010057D01*
X042744Y011057D01*
X040744Y010057D02*
X039494Y010057D01*
X039123Y009686D01*
X039123Y009623D01*
X039244Y009057D02*
X041744Y009057D01*
X039244Y009057D02*
X038494Y008307D01*
X038494Y007307D01*
X034994Y009057D02*
X034244Y008307D01*
X030244Y008307D01*
X029744Y008807D01*
X029244Y008307D01*
X026244Y008307D01*
X025494Y009057D01*
X025494Y009307D01*
X034994Y009057D02*
X035364Y009427D01*
X035364Y010991D01*
D25*
X028494Y009307D02*
X027494Y009307D01*
X027484Y009317D01*
X027484Y009817D01*
X027324Y009977D01*
X008444Y009977D01*
X008274Y009807D01*
X007994Y009807D01*
X008444Y009257D02*
X008604Y009417D01*
X016844Y009417D01*
X017164Y009097D01*
X021964Y009097D01*
X022044Y008857D02*
X020524Y008857D01*
X020284Y008617D01*
X020244Y008557D01*
X019644Y008137D02*
X019244Y008537D01*
X019244Y008557D01*
X019644Y008137D02*
X023324Y008137D01*
X024494Y009307D01*
X023494Y009307D02*
X023484Y009337D01*
X022524Y009337D01*
X022494Y009307D01*
X022044Y008857D01*
X025564Y007977D02*
X010844Y007977D01*
X010044Y008777D01*
X009994Y008807D01*
X009404Y008217D01*
X003964Y008217D01*
X003964Y009257D01*
X003994Y009307D01*
X005994Y009807D02*
X006044Y009737D01*
X006524Y009257D01*
X008444Y009257D01*
X010524Y007977D02*
X010844Y007977D01*
X011964Y006617D02*
X006604Y006617D01*
X006604Y004857D01*
X006124Y004377D01*
X005404Y004377D01*
X005004Y004777D01*
X004994Y004807D01*
X003994Y004807D02*
X003964Y004857D01*
X003644Y004857D01*
X003644Y006697D01*
X003884Y006937D01*
X003964Y006937D01*
X003964Y008217D01*
X003994Y006307D02*
X004044Y006297D01*
X004924Y006297D02*
X004994Y006307D01*
X005964Y005817D02*
X005994Y005807D01*
X007994Y005807D02*
X008044Y005817D01*
X008924Y005817D02*
X008994Y005807D01*
X009004Y005817D01*
X009964Y005817D02*
X009994Y005807D01*
X011964Y006617D02*
X012364Y006217D01*
X021004Y006217D01*
X021804Y005417D01*
X022684Y005417D01*
X022924Y005657D02*
X023084Y005497D01*
X027564Y005497D01*
X027804Y005257D01*
X031084Y005257D01*
X031724Y004617D01*
X031744Y004557D01*
X031804Y004617D01*
X032844Y004617D01*
X033724Y005497D01*
X033744Y005557D01*
X031744Y006557D02*
X030844Y005657D01*
X027724Y005657D01*
X023164Y005657D01*
X022524Y006297D01*
X022494Y006307D01*
X022124Y006697D02*
X022124Y005657D01*
X022924Y005657D01*
X023404Y005257D02*
X023324Y005177D01*
X018124Y005177D01*
X017164Y004217D01*
X007564Y004217D01*
X007004Y004777D01*
X006994Y004807D01*
X015994Y004557D02*
X016044Y004617D01*
X016924Y005497D01*
X017244Y005497D01*
X017244Y005557D01*
X017244Y005577D01*
X018204Y005577D01*
X018244Y005557D01*
X022124Y006697D02*
X022364Y006937D01*
X022924Y006937D01*
X023484Y006377D01*
X023494Y006307D01*
X027494Y006307D02*
X027564Y006297D01*
X028444Y006297D01*
X028494Y006307D01*
X027484Y005257D02*
X027644Y005097D01*
X028204Y005097D01*
X028744Y004557D01*
X025744Y004557D02*
X025724Y004617D01*
X025244Y005097D01*
X023564Y005097D01*
X023484Y005017D01*
X022684Y005017D01*
X021884Y004217D01*
X017724Y004217D01*
X017644Y004297D01*
X025564Y007977D02*
X025884Y007657D01*
D26*
X009964Y005817D02*
X009004Y005817D01*
X008924Y005817D02*
X008044Y005817D01*
X007994Y005807D02*
X007994Y004807D01*
X005994Y004807D02*
X005994Y005807D01*
X005964Y005817D02*
X005484Y005817D01*
X004994Y006307D01*
X004924Y006297D02*
X004044Y006297D01*
D27*
X007994Y010747D02*
X009084Y010137D01*
X030074Y010137D01*
X030744Y010807D01*
X028744Y010807D02*
X028234Y010297D01*
X010684Y010297D01*
X009994Y010667D01*
X009994Y010807D01*
X007994Y010747D02*
X007994Y010807D01*
X012994Y010807D02*
X012994Y011007D01*
X013484Y011497D01*
X025054Y011497D01*
X025744Y010807D01*
X024744Y010807D02*
X024744Y010957D01*
X024444Y011337D01*
X014524Y011337D01*
X013994Y010807D01*
M02*
