G75*
%MOIN*%
%OFA0B0*%
%FSLAX25Y25*%
%IPPOS*%
%LPD*%
%AMOC8*
5,1,8,0,0,1.08239X$1,22.5*
%
%ADD10OC8,0.07400*%
%ADD11R,0.06500X0.06500*%
%ADD12C,0.06500*%
%ADD13OC8,0.05200*%
%ADD14C,0.06600*%
%ADD15C,0.05800*%
%ADD16R,0.05200X0.05200*%
%ADD17C,0.05200*%
%ADD18C,0.05906*%
%ADD19C,0.07400*%
%ADD20OC8,0.06600*%
%ADD21C,0.05200*%
%ADD22C,0.04000*%
%ADD23C,0.01600*%
%ADD24C,0.02500*%
%ADD25C,0.00800*%
%ADD26C,0.01200*%
D10*
X0379300Y0042800D03*
X0389300Y0043800D03*
X0399300Y0042800D03*
X0409300Y0043800D03*
X0419300Y0042800D03*
X0419300Y0052800D03*
X0409300Y0053800D03*
X0399300Y0052800D03*
X0389300Y0053800D03*
X0379300Y0052800D03*
D11*
X0369300Y0056800D03*
X0359300Y0034300D03*
D12*
X0369300Y0034300D03*
X0359300Y0056800D03*
D13*
X0311800Y0059300D03*
X0301800Y0059300D03*
X0216800Y0051800D03*
X0206800Y0051800D03*
X0186800Y0051800D03*
X0166800Y0051800D03*
X0121800Y0051800D03*
X0101800Y0049300D03*
X0096800Y0041800D03*
X0106800Y0041800D03*
X0121800Y0031800D03*
X0134300Y0029300D03*
X0156800Y0029300D03*
X0166800Y0031800D03*
X0176800Y0029300D03*
X0186800Y0031800D03*
X0196800Y0029300D03*
X0206800Y0031800D03*
X0216800Y0031800D03*
X0301800Y0029300D03*
X0311800Y0039300D03*
X0196800Y0059300D03*
X0176800Y0059300D03*
X0156800Y0059300D03*
X0134300Y0059300D03*
X0064300Y0064300D03*
X0054300Y0064300D03*
X0054300Y0024300D03*
X0064300Y0024300D03*
X0401800Y0014300D03*
X0421800Y0014300D03*
X0421800Y0076800D03*
X0401800Y0076800D03*
D14*
X0381800Y0064300D03*
X0421800Y0064300D03*
X0421800Y0026800D03*
X0381800Y0026800D03*
D15*
X0144300Y0024300D03*
X0144300Y0014300D03*
X0134300Y0014300D03*
X0124300Y0014300D03*
X0114300Y0014300D03*
X0104300Y0014300D03*
X0094300Y0014300D03*
X0084300Y0014300D03*
X0074300Y0014300D03*
X0064300Y0014300D03*
X0054300Y0014300D03*
X0044300Y0014300D03*
X0034300Y0014300D03*
X0024300Y0014300D03*
X0014300Y0014300D03*
X0014300Y0074300D03*
X0024300Y0074300D03*
X0034300Y0074300D03*
X0044300Y0074300D03*
X0054300Y0074300D03*
X0064300Y0074300D03*
X0074300Y0074300D03*
X0084300Y0074300D03*
X0094300Y0074300D03*
X0104300Y0074300D03*
X0114300Y0074300D03*
X0124300Y0074300D03*
X0134300Y0074300D03*
X0144300Y0074300D03*
D16*
X0084300Y0059300D03*
X0034300Y0059300D03*
X0044300Y0029300D03*
X0074300Y0029300D03*
D17*
X0084300Y0029300D03*
X0034300Y0029300D03*
X0044300Y0059300D03*
X0074300Y0059300D03*
D18*
X0349300Y0076800D03*
X0389300Y0076800D03*
X0389300Y0014300D03*
X0349300Y0014300D03*
D19*
X0291800Y0011800D03*
X0281800Y0011800D03*
X0271800Y0011800D03*
X0261800Y0011800D03*
X0251800Y0011800D03*
X0241800Y0011800D03*
X0231800Y0011800D03*
X0231800Y0074300D03*
X0241800Y0074300D03*
X0251800Y0074300D03*
X0261800Y0074300D03*
X0271800Y0074300D03*
X0281800Y0074300D03*
X0291800Y0074300D03*
X0301800Y0074300D03*
X0311800Y0074300D03*
X0321800Y0074300D03*
X0331800Y0074300D03*
D20*
X0336800Y0064300D03*
X0326800Y0054300D03*
X0346800Y0054300D03*
D21*
X0289300Y0056700D02*
X0289300Y0061900D01*
X0279300Y0061900D02*
X0279300Y0056700D01*
X0269300Y0056700D02*
X0269300Y0061900D01*
X0259300Y0061900D02*
X0259300Y0056700D01*
X0249300Y0056700D02*
X0249300Y0061900D01*
X0239300Y0061900D02*
X0239300Y0056700D01*
X0229300Y0056700D02*
X0229300Y0061900D01*
X0229300Y0031900D02*
X0229300Y0026700D01*
X0239300Y0026700D02*
X0239300Y0031900D01*
X0249300Y0031900D02*
X0249300Y0026700D01*
X0259300Y0026700D02*
X0259300Y0031900D01*
X0269300Y0031900D02*
X0269300Y0026700D01*
X0279300Y0026700D02*
X0279300Y0031900D01*
X0289300Y0031900D02*
X0289300Y0026700D01*
D22*
X0349300Y0024300D02*
X0359300Y0034300D01*
X0379300Y0042800D02*
X0379300Y0052800D01*
X0390800Y0064300D01*
X0421800Y0064300D01*
X0421800Y0076800D01*
X0401800Y0076800D02*
X0389300Y0076800D01*
X0349300Y0076800D02*
X0349300Y0066800D01*
X0359300Y0056800D01*
X0419300Y0052800D02*
X0419300Y0042800D01*
X0419300Y0029300D01*
X0421800Y0026800D01*
X0421800Y0014300D01*
X0401800Y0014300D02*
X0389300Y0014300D01*
X0349300Y0014300D02*
X0349300Y0024300D01*
D23*
X0359300Y0034300D02*
X0354300Y0041800D01*
X0316800Y0041800D01*
X0314300Y0039300D01*
X0311800Y0039300D01*
X0309300Y0039300D01*
X0306800Y0041800D01*
X0259300Y0041800D01*
X0106800Y0041800D01*
X0096800Y0041800D02*
X0036800Y0041800D01*
X0014300Y0019300D01*
X0014300Y0014300D01*
X0216800Y0045550D02*
X0254300Y0045550D01*
X0348050Y0045550D01*
X0359300Y0056800D01*
D24*
X0294300Y0049300D03*
X0264300Y0050550D03*
X0254300Y0045550D03*
X0259300Y0041800D03*
X0254300Y0036800D03*
X0216800Y0045550D03*
X0234300Y0050550D03*
X0144300Y0034300D03*
X0089300Y0036800D03*
X0054300Y0036800D03*
X0069300Y0045550D03*
X0236800Y0019300D03*
D25*
X0049300Y0009300D02*
X0044300Y0014300D01*
X0064300Y0014300D02*
X0069300Y0019300D01*
X0131800Y0019300D01*
X0141800Y0029300D01*
X0149300Y0029300D01*
X0164300Y0014300D01*
X0221800Y0014300D01*
X0226800Y0019300D01*
X0236800Y0019300D01*
X0239300Y0026800D02*
X0246800Y0019300D01*
X0291800Y0019300D01*
X0301800Y0029300D01*
X0289300Y0029300D02*
X0279300Y0029300D01*
X0269300Y0039300D01*
X0111800Y0039300D01*
X0109300Y0036800D01*
X0094300Y0036800D01*
X0091800Y0039300D01*
X0056800Y0039300D01*
X0054300Y0036800D01*
X0089300Y0036800D02*
X0091800Y0034300D01*
X0111800Y0034300D01*
X0114300Y0036800D01*
X0254300Y0036800D01*
X0239300Y0029300D02*
X0239300Y0026800D01*
X0206800Y0031800D02*
X0199300Y0024300D01*
X0161800Y0024300D01*
X0156800Y0029300D01*
X0154300Y0031800D01*
X0136800Y0031800D01*
X0134300Y0029300D01*
X0124300Y0034300D02*
X0121800Y0031800D01*
X0124300Y0034300D02*
X0144300Y0034300D01*
X0186800Y0031800D02*
X0194300Y0031800D01*
X0196800Y0029300D01*
X0161800Y0011800D02*
X0154300Y0019300D01*
X0139300Y0019300D01*
X0134300Y0014300D01*
X0161800Y0011800D02*
X0221800Y0011800D01*
X0226800Y0016800D01*
X0246800Y0016800D01*
X0251800Y0011800D01*
X0231800Y0011800D02*
X0229300Y0009300D01*
X0049300Y0009300D01*
X0054300Y0024300D02*
X0049300Y0029300D01*
X0044300Y0029300D01*
X0034300Y0029300D01*
X0064300Y0024300D02*
X0069300Y0029300D01*
X0074300Y0029300D01*
X0084300Y0029300D01*
X0069300Y0045550D02*
X0104300Y0045550D01*
X0106800Y0048050D01*
X0293050Y0048050D01*
X0294300Y0049300D01*
X0290550Y0050550D02*
X0294300Y0054300D01*
X0326800Y0054300D01*
X0336800Y0064300D01*
X0289300Y0059300D02*
X0279300Y0059300D01*
X0273050Y0053050D01*
X0226800Y0053050D01*
X0216800Y0063050D01*
X0091800Y0063050D01*
X0085550Y0069300D01*
X0069300Y0069300D01*
X0064300Y0064300D01*
X0084300Y0074300D02*
X0093050Y0065550D01*
X0283050Y0065550D01*
X0291800Y0074300D01*
X0281800Y0074300D02*
X0274900Y0067400D01*
X0101200Y0067400D01*
X0094300Y0074300D01*
X0104300Y0074300D02*
X0109300Y0069300D01*
X0266800Y0069300D01*
X0271800Y0074300D01*
X0231800Y0074300D02*
X0144300Y0074300D01*
X0134300Y0059300D02*
X0126800Y0051800D01*
X0121800Y0051800D01*
X0156800Y0059300D02*
X0164300Y0051800D01*
X0166800Y0051800D01*
X0169300Y0051800D01*
X0176800Y0059300D01*
X0186800Y0051800D02*
X0206800Y0051800D01*
X0234300Y0050550D02*
X0264300Y0050550D01*
X0290550Y0050550D01*
X0239300Y0059300D02*
X0229300Y0059300D01*
D26*
X0306800Y0079300D02*
X0311800Y0074300D01*
X0314300Y0081800D02*
X0321800Y0074300D01*
X0306800Y0079300D02*
X0069300Y0079300D01*
X0064300Y0074300D01*
X0061800Y0081800D02*
X0054300Y0074300D01*
X0061800Y0081800D02*
X0314300Y0081800D01*
X0084300Y0059300D02*
X0076800Y0051800D01*
X0041800Y0051800D01*
X0034300Y0059300D01*
M02*
