G75*
%MOIN*%
%OFA0B0*%
%FSLAX25Y25*%
%IPPOS*%
%LPD*%
%AMOC8*
5,1,8,0,0,1.08239X$1,22.5*
%
%ADD10OC8,0.07400*%
%ADD11R,0.06500X0.06500*%
%ADD12C,0.06500*%
%ADD13OC8,0.05200*%
%ADD14C,0.06600*%
%ADD15C,0.05800*%
%ADD16R,0.05200X0.05200*%
%ADD17C,0.05200*%
%ADD18C,0.05906*%
%ADD19C,0.07400*%
%ADD20OC8,0.06600*%
%ADD21C,0.05200*%
%ADD22C,0.01600*%
%ADD23C,0.02500*%
%ADD24C,0.01200*%
%ADD25C,0.00800*%
D10*
X0379300Y0042800D03*
X0389300Y0043800D03*
X0399300Y0042800D03*
X0409300Y0043800D03*
X0419300Y0042800D03*
X0419300Y0052800D03*
X0409300Y0053800D03*
X0399300Y0052800D03*
X0389300Y0053800D03*
X0379300Y0052800D03*
D11*
X0369300Y0056800D03*
X0359300Y0034300D03*
D12*
X0369300Y0034300D03*
X0359300Y0056800D03*
D13*
X0311800Y0059300D03*
X0301800Y0059300D03*
X0216800Y0051800D03*
X0206800Y0051800D03*
X0186800Y0051800D03*
X0166800Y0051800D03*
X0121800Y0051800D03*
X0101800Y0049300D03*
X0096800Y0041800D03*
X0106800Y0041800D03*
X0121800Y0031800D03*
X0134300Y0029300D03*
X0156800Y0029300D03*
X0166800Y0031800D03*
X0176800Y0029300D03*
X0186800Y0031800D03*
X0196800Y0029300D03*
X0206800Y0031800D03*
X0216800Y0031800D03*
X0301800Y0029300D03*
X0311800Y0039300D03*
X0196800Y0059300D03*
X0176800Y0059300D03*
X0156800Y0059300D03*
X0134300Y0059300D03*
X0064300Y0064300D03*
X0054300Y0064300D03*
X0054300Y0024300D03*
X0064300Y0024300D03*
X0401800Y0014300D03*
X0421800Y0014300D03*
X0421800Y0076800D03*
X0401800Y0076800D03*
D14*
X0381800Y0064300D03*
X0421800Y0064300D03*
X0421800Y0026800D03*
X0381800Y0026800D03*
D15*
X0144300Y0024300D03*
X0144300Y0014300D03*
X0134300Y0014300D03*
X0124300Y0014300D03*
X0114300Y0014300D03*
X0104300Y0014300D03*
X0094300Y0014300D03*
X0084300Y0014300D03*
X0074300Y0014300D03*
X0064300Y0014300D03*
X0054300Y0014300D03*
X0044300Y0014300D03*
X0034300Y0014300D03*
X0024300Y0014300D03*
X0014300Y0014300D03*
X0014300Y0074300D03*
X0024300Y0074300D03*
X0034300Y0074300D03*
X0044300Y0074300D03*
X0054300Y0074300D03*
X0064300Y0074300D03*
X0074300Y0074300D03*
X0084300Y0074300D03*
X0094300Y0074300D03*
X0104300Y0074300D03*
X0114300Y0074300D03*
X0124300Y0074300D03*
X0134300Y0074300D03*
X0144300Y0074300D03*
D16*
X0084300Y0059300D03*
X0034300Y0059300D03*
X0044300Y0029300D03*
X0074300Y0029300D03*
D17*
X0084300Y0029300D03*
X0034300Y0029300D03*
X0044300Y0059300D03*
X0074300Y0059300D03*
D18*
X0349300Y0076800D03*
X0389300Y0076800D03*
X0389300Y0014300D03*
X0349300Y0014300D03*
D19*
X0291800Y0011800D03*
X0281800Y0011800D03*
X0271800Y0011800D03*
X0261800Y0011800D03*
X0251800Y0011800D03*
X0241800Y0011800D03*
X0231800Y0011800D03*
X0231800Y0074300D03*
X0241800Y0074300D03*
X0251800Y0074300D03*
X0261800Y0074300D03*
X0271800Y0074300D03*
X0281800Y0074300D03*
X0291800Y0074300D03*
X0301800Y0074300D03*
X0311800Y0074300D03*
X0321800Y0074300D03*
X0331800Y0074300D03*
D20*
X0336800Y0064300D03*
X0326800Y0054300D03*
X0346800Y0054300D03*
D21*
X0289300Y0056700D02*
X0289300Y0061900D01*
X0279300Y0061900D02*
X0279300Y0056700D01*
X0269300Y0056700D02*
X0269300Y0061900D01*
X0259300Y0061900D02*
X0259300Y0056700D01*
X0249300Y0056700D02*
X0249300Y0061900D01*
X0239300Y0061900D02*
X0239300Y0056700D01*
X0229300Y0056700D02*
X0229300Y0061900D01*
X0229300Y0031900D02*
X0229300Y0026700D01*
X0239300Y0026700D02*
X0239300Y0031900D01*
X0249300Y0031900D02*
X0249300Y0026700D01*
X0259300Y0026700D02*
X0259300Y0031900D01*
X0269300Y0031900D02*
X0269300Y0026700D01*
X0279300Y0026700D02*
X0279300Y0031900D01*
X0289300Y0031900D02*
X0289300Y0026700D01*
D22*
X0008650Y0008650D02*
X0008650Y0081722D01*
X0119176Y0081722D01*
X0115791Y0078337D01*
X0115155Y0078600D01*
X0113445Y0078600D01*
X0111864Y0077945D01*
X0110655Y0076736D01*
X0110000Y0075155D01*
X0110000Y0073445D01*
X0110655Y0071864D01*
X0111864Y0070655D01*
X0113445Y0070000D01*
X0115155Y0070000D01*
X0116736Y0070655D01*
X0117945Y0071864D01*
X0118600Y0073445D01*
X0118600Y0075155D01*
X0118337Y0075791D01*
X0122546Y0080000D01*
X0137454Y0080000D01*
X0135791Y0078337D01*
X0135155Y0078600D01*
X0133445Y0078600D01*
X0131864Y0077945D01*
X0130655Y0076736D01*
X0130000Y0075155D01*
X0130000Y0073445D01*
X0130655Y0071864D01*
X0131419Y0071100D01*
X0130046Y0071100D01*
X0128337Y0072809D01*
X0128600Y0073445D01*
X0128600Y0075155D01*
X0127945Y0076736D01*
X0126736Y0077945D01*
X0125155Y0078600D01*
X0123445Y0078600D01*
X0121864Y0077945D01*
X0120655Y0076736D01*
X0120000Y0075155D01*
X0120000Y0073445D01*
X0120655Y0071864D01*
X0121864Y0070655D01*
X0123445Y0070000D01*
X0125155Y0070000D01*
X0125791Y0070263D01*
X0127500Y0068554D01*
X0128554Y0067500D01*
X0182454Y0067500D01*
X0178254Y0063300D01*
X0175143Y0063300D01*
X0172800Y0060957D01*
X0172800Y0057643D01*
X0175143Y0055300D01*
X0178457Y0055300D01*
X0180800Y0057643D01*
X0180800Y0060754D01*
X0185046Y0065000D01*
X0226743Y0065000D01*
X0225909Y0064166D01*
X0225300Y0062696D01*
X0225300Y0061100D01*
X0213554Y0061100D01*
X0208254Y0055800D01*
X0205143Y0055800D01*
X0202800Y0053457D01*
X0202800Y0050143D01*
X0205143Y0047800D01*
X0208457Y0047800D01*
X0210800Y0050143D01*
X0210800Y0053254D01*
X0215046Y0057500D01*
X0225300Y0057500D01*
X0225300Y0055904D01*
X0225909Y0054434D01*
X0227034Y0053309D01*
X0228504Y0052700D01*
X0230096Y0052700D01*
X0231566Y0053309D01*
X0232691Y0054434D01*
X0233300Y0055904D01*
X0233300Y0062696D01*
X0232691Y0064166D01*
X0231857Y0065000D01*
X0236743Y0065000D01*
X0235909Y0064166D01*
X0235300Y0062696D01*
X0235300Y0055904D01*
X0235909Y0054434D01*
X0237034Y0053309D01*
X0238504Y0052700D01*
X0240096Y0052700D01*
X0241566Y0053309D01*
X0242691Y0054434D01*
X0243300Y0055904D01*
X0243300Y0062696D01*
X0243258Y0062796D01*
X0245300Y0060754D01*
X0245300Y0055904D01*
X0245909Y0054434D01*
X0247034Y0053309D01*
X0248504Y0052700D01*
X0250096Y0052700D01*
X0251566Y0053309D01*
X0252100Y0053843D01*
X0252100Y0047098D01*
X0252053Y0047051D01*
X0251650Y0046077D01*
X0251650Y0045023D01*
X0252053Y0044049D01*
X0252799Y0043303D01*
X0253773Y0042900D01*
X0254827Y0042900D01*
X0255801Y0043303D01*
X0256547Y0044049D01*
X0256950Y0045023D01*
X0256950Y0046077D01*
X0256547Y0047051D01*
X0256500Y0047098D01*
X0256500Y0053389D01*
X0256727Y0053616D01*
X0257034Y0053309D01*
X0258504Y0052700D01*
X0260096Y0052700D01*
X0261566Y0053309D01*
X0262691Y0054434D01*
X0263300Y0055904D01*
X0263300Y0062696D01*
X0262691Y0064166D01*
X0261566Y0065291D01*
X0260096Y0065900D01*
X0258504Y0065900D01*
X0257034Y0065291D01*
X0255909Y0064166D01*
X0255300Y0062696D01*
X0255300Y0058411D01*
X0253389Y0056500D01*
X0253300Y0056411D01*
X0253300Y0062696D01*
X0252691Y0064166D01*
X0251566Y0065291D01*
X0250096Y0065900D01*
X0248504Y0065900D01*
X0247034Y0065291D01*
X0246444Y0064701D01*
X0243646Y0067500D01*
X0247546Y0067500D01*
X0249697Y0069651D01*
X0250786Y0069200D01*
X0252814Y0069200D01*
X0254689Y0069976D01*
X0256124Y0071411D01*
X0256800Y0073044D01*
X0257476Y0071411D01*
X0258911Y0069976D01*
X0260786Y0069200D01*
X0262814Y0069200D01*
X0264689Y0069976D01*
X0266124Y0071411D01*
X0266800Y0073044D01*
X0267476Y0071411D01*
X0268911Y0069976D01*
X0270786Y0069200D01*
X0272814Y0069200D01*
X0274689Y0069976D01*
X0276124Y0071411D01*
X0276800Y0073044D01*
X0277476Y0071411D01*
X0278911Y0069976D01*
X0280786Y0069200D01*
X0282814Y0069200D01*
X0284689Y0069976D01*
X0286124Y0071411D01*
X0286800Y0073044D01*
X0287476Y0071411D01*
X0288911Y0069976D01*
X0290786Y0069200D01*
X0292814Y0069200D01*
X0294689Y0069976D01*
X0296124Y0071411D01*
X0296800Y0073044D01*
X0297151Y0072197D01*
X0292500Y0067546D01*
X0292500Y0064357D01*
X0291566Y0065291D01*
X0290096Y0065900D01*
X0288504Y0065900D01*
X0287034Y0065291D01*
X0285909Y0064166D01*
X0285300Y0062696D01*
X0285300Y0055904D01*
X0285909Y0054434D01*
X0287034Y0053309D01*
X0288504Y0052700D01*
X0290096Y0052700D01*
X0291566Y0053309D01*
X0292500Y0054243D01*
X0292500Y0051248D01*
X0292053Y0050801D01*
X0291650Y0049827D01*
X0291650Y0048773D01*
X0292053Y0047799D01*
X0292799Y0047053D01*
X0293773Y0046650D01*
X0294827Y0046650D01*
X0295801Y0047053D01*
X0296547Y0047799D01*
X0296950Y0048773D01*
X0296950Y0049827D01*
X0296547Y0050801D01*
X0296100Y0051248D01*
X0296100Y0066054D01*
X0299697Y0069651D01*
X0300786Y0069200D01*
X0302814Y0069200D01*
X0304689Y0069976D01*
X0306124Y0071411D01*
X0306800Y0073044D01*
X0307476Y0071411D01*
X0308911Y0069976D01*
X0310786Y0069200D01*
X0312814Y0069200D01*
X0314689Y0069976D01*
X0316124Y0071411D01*
X0316800Y0073044D01*
X0317476Y0071411D01*
X0318911Y0069976D01*
X0320786Y0069200D01*
X0322814Y0069200D01*
X0324689Y0069976D01*
X0326124Y0071411D01*
X0326590Y0072537D01*
X0326703Y0072189D01*
X0327096Y0071417D01*
X0327605Y0070717D01*
X0328217Y0070105D01*
X0328917Y0069596D01*
X0329689Y0069203D01*
X0330512Y0068935D01*
X0331367Y0068800D01*
X0331600Y0068800D01*
X0331600Y0074100D01*
X0332000Y0074100D01*
X0332000Y0074500D01*
X0331600Y0074500D01*
X0331600Y0079800D01*
X0331367Y0079800D01*
X0330512Y0079665D01*
X0329689Y0079397D01*
X0328917Y0079004D01*
X0328217Y0078495D01*
X0327605Y0077883D01*
X0327096Y0077183D01*
X0326703Y0076411D01*
X0326590Y0076063D01*
X0326124Y0077189D01*
X0324689Y0078624D01*
X0322814Y0079400D01*
X0320786Y0079400D01*
X0318911Y0078624D01*
X0317476Y0077189D01*
X0316800Y0075556D01*
X0316124Y0077189D01*
X0314689Y0078624D01*
X0312814Y0079400D01*
X0310786Y0079400D01*
X0308911Y0078624D01*
X0307476Y0077189D01*
X0306800Y0075556D01*
X0306124Y0077189D01*
X0304689Y0078624D01*
X0302814Y0079400D01*
X0300786Y0079400D01*
X0298911Y0078624D01*
X0297476Y0077189D01*
X0296800Y0075556D01*
X0296124Y0077189D01*
X0294689Y0078624D01*
X0292814Y0079400D01*
X0290786Y0079400D01*
X0288911Y0078624D01*
X0287476Y0077189D01*
X0286800Y0075556D01*
X0286124Y0077189D01*
X0284689Y0078624D01*
X0282814Y0079400D01*
X0280786Y0079400D01*
X0278911Y0078624D01*
X0277476Y0077189D01*
X0276800Y0075556D01*
X0276124Y0077189D01*
X0274689Y0078624D01*
X0272814Y0079400D01*
X0270786Y0079400D01*
X0268911Y0078624D01*
X0267476Y0077189D01*
X0266800Y0075556D01*
X0266124Y0077189D01*
X0264689Y0078624D01*
X0262814Y0079400D01*
X0260786Y0079400D01*
X0259697Y0078949D01*
X0256924Y0081722D01*
X0426210Y0081722D01*
X0426210Y0065935D01*
X0425784Y0066962D01*
X0424462Y0068284D01*
X0422735Y0069000D01*
X0420865Y0069000D01*
X0419138Y0068284D01*
X0417816Y0066962D01*
X0417100Y0065235D01*
X0417100Y0063365D01*
X0417816Y0061638D01*
X0419138Y0060316D01*
X0420865Y0059600D01*
X0422735Y0059600D01*
X0424462Y0060316D01*
X0425784Y0061638D01*
X0426210Y0062665D01*
X0426210Y0028435D01*
X0425784Y0029462D01*
X0424462Y0030784D01*
X0422735Y0031500D01*
X0420865Y0031500D01*
X0419138Y0030784D01*
X0417816Y0029462D01*
X0417100Y0027735D01*
X0417100Y0025865D01*
X0417816Y0024138D01*
X0419138Y0022816D01*
X0420865Y0022100D01*
X0422735Y0022100D01*
X0424462Y0022816D01*
X0425784Y0024138D01*
X0426210Y0025165D01*
X0426210Y0008650D01*
X0329292Y0008650D01*
X0329478Y0008720D01*
X0329830Y0008796D01*
X0329876Y0008868D01*
X0330639Y0009153D01*
X0330721Y0009129D01*
X0331037Y0009301D01*
X0331374Y0009427D01*
X0331409Y0009504D01*
X0332124Y0009895D01*
X0332209Y0009883D01*
X0332497Y0010098D01*
X0332813Y0010271D01*
X0332837Y0010353D01*
X0333489Y0010841D01*
X0333574Y0010841D01*
X0333829Y0011095D01*
X0334117Y0011311D01*
X0334129Y0011395D01*
X0334705Y0011971D01*
X0334789Y0011983D01*
X0335005Y0012271D01*
X0335259Y0012526D01*
X0335259Y0012611D01*
X0335747Y0013263D01*
X0335829Y0013287D01*
X0336002Y0013603D01*
X0336217Y0013891D01*
X0336205Y0013976D01*
X0336596Y0014691D01*
X0336673Y0014726D01*
X0336799Y0015063D01*
X0336971Y0015379D01*
X0336947Y0015461D01*
X0337232Y0016224D01*
X0337304Y0016270D01*
X0337380Y0016622D01*
X0337506Y0016959D01*
X0337471Y0017037D01*
X0337644Y0017832D01*
X0337708Y0017888D01*
X0337734Y0018247D01*
X0337810Y0018599D01*
X0337764Y0018671D01*
X0337819Y0019441D01*
X0337850Y0019472D01*
X0337850Y0019869D01*
X0337878Y0020266D01*
X0337850Y0020298D01*
X0337850Y0022728D01*
X0337878Y0022761D01*
X0337850Y0023157D01*
X0337850Y0023555D01*
X0337819Y0023585D01*
X0337758Y0024437D01*
X0337805Y0024509D01*
X0337728Y0024861D01*
X0337702Y0025220D01*
X0337638Y0025275D01*
X0337447Y0026151D01*
X0337483Y0026229D01*
X0337357Y0026566D01*
X0337281Y0026918D01*
X0337209Y0026964D01*
X0336896Y0027804D01*
X0336920Y0027886D01*
X0336747Y0028201D01*
X0336621Y0028539D01*
X0336544Y0028574D01*
X0336114Y0029361D01*
X0336126Y0029445D01*
X0335911Y0029733D01*
X0335738Y0030049D01*
X0335656Y0030073D01*
X0335119Y0030791D01*
X0335119Y0030876D01*
X0334865Y0031131D01*
X0334649Y0031419D01*
X0334565Y0031431D01*
X0333931Y0032065D01*
X0333919Y0032149D01*
X0333631Y0032365D01*
X0333376Y0032619D01*
X0333291Y0032619D01*
X0332573Y0033156D01*
X0332549Y0033238D01*
X0332233Y0033411D01*
X0331945Y0033626D01*
X0331861Y0033614D01*
X0331074Y0034044D01*
X0331039Y0034121D01*
X0330701Y0034247D01*
X0330386Y0034420D01*
X0330304Y0034396D01*
X0329464Y0034709D01*
X0329418Y0034781D01*
X0329066Y0034857D01*
X0328729Y0034983D01*
X0328651Y0034947D01*
X0327775Y0035138D01*
X0327720Y0035202D01*
X0327361Y0035228D01*
X0327009Y0035305D01*
X0326937Y0035258D01*
X0326085Y0035319D01*
X0326055Y0035350D01*
X0325657Y0035350D01*
X0325261Y0035378D01*
X0325228Y0035350D01*
X0322798Y0035350D01*
X0322766Y0035378D01*
X0322369Y0035350D01*
X0321972Y0035350D01*
X0321941Y0035319D01*
X0321171Y0035264D01*
X0321099Y0035310D01*
X0320747Y0035234D01*
X0320388Y0035208D01*
X0320332Y0035144D01*
X0319537Y0034971D01*
X0319459Y0035006D01*
X0319122Y0034880D01*
X0318770Y0034804D01*
X0318724Y0034732D01*
X0317961Y0034447D01*
X0317879Y0034471D01*
X0317563Y0034299D01*
X0317226Y0034173D01*
X0317191Y0034096D01*
X0316476Y0033705D01*
X0316391Y0033717D01*
X0316103Y0033502D01*
X0315787Y0033329D01*
X0315763Y0033247D01*
X0315111Y0032759D01*
X0315026Y0032759D01*
X0314771Y0032505D01*
X0314483Y0032289D01*
X0314471Y0032205D01*
X0313895Y0031629D01*
X0313811Y0031617D01*
X0313595Y0031329D01*
X0313341Y0031074D01*
X0313341Y0030989D01*
X0312853Y0030337D01*
X0312771Y0030313D01*
X0312598Y0029997D01*
X0312383Y0029709D01*
X0312395Y0029624D01*
X0312004Y0028909D01*
X0311927Y0028874D01*
X0311801Y0028537D01*
X0311629Y0028221D01*
X0311653Y0028139D01*
X0311368Y0027376D01*
X0311296Y0027330D01*
X0311220Y0026978D01*
X0311094Y0026641D01*
X0311129Y0026563D01*
X0310956Y0025768D01*
X0310892Y0025712D01*
X0310866Y0025353D01*
X0310790Y0025001D01*
X0310836Y0024929D01*
X0310781Y0024159D01*
X0310750Y0024128D01*
X0310750Y0023731D01*
X0310722Y0023334D01*
X0310750Y0023302D01*
X0310750Y0020298D01*
X0310722Y0020266D01*
X0310750Y0019869D01*
X0310750Y0019472D01*
X0310781Y0019441D01*
X0310836Y0018671D01*
X0310790Y0018599D01*
X0310866Y0018247D01*
X0310892Y0017888D01*
X0310956Y0017832D01*
X0311129Y0017037D01*
X0311094Y0016959D01*
X0311220Y0016622D01*
X0311296Y0016270D01*
X0311368Y0016224D01*
X0311653Y0015461D01*
X0311629Y0015379D01*
X0311801Y0015063D01*
X0311927Y0014726D01*
X0312004Y0014691D01*
X0312395Y0013976D01*
X0312383Y0013891D01*
X0312598Y0013603D01*
X0312771Y0013287D01*
X0312853Y0013263D01*
X0313341Y0012611D01*
X0313341Y0012526D01*
X0313595Y0012271D01*
X0313811Y0011983D01*
X0313895Y0011971D01*
X0314471Y0011395D01*
X0314483Y0011311D01*
X0314771Y0011095D01*
X0315026Y0010841D01*
X0315111Y0010841D01*
X0315763Y0010353D01*
X0315787Y0010271D01*
X0316103Y0010098D01*
X0316391Y0009883D01*
X0316476Y0009895D01*
X0317191Y0009504D01*
X0317226Y0009427D01*
X0317563Y0009301D01*
X0317879Y0009129D01*
X0317961Y0009153D01*
X0318724Y0008868D01*
X0318770Y0008796D01*
X0319122Y0008720D01*
X0319308Y0008650D01*
X0295862Y0008650D01*
X0296124Y0008911D01*
X0296900Y0010786D01*
X0296900Y0012814D01*
X0296124Y0014689D01*
X0294689Y0016124D01*
X0292814Y0016900D01*
X0291746Y0016900D01*
X0286100Y0022546D01*
X0286100Y0024243D01*
X0287034Y0023309D01*
X0288504Y0022700D01*
X0290096Y0022700D01*
X0291566Y0023309D01*
X0292691Y0024434D01*
X0293300Y0025904D01*
X0293300Y0032696D01*
X0292691Y0034166D01*
X0291566Y0035291D01*
X0290096Y0035900D01*
X0288504Y0035900D01*
X0287034Y0035291D01*
X0286100Y0034357D01*
X0286100Y0045046D01*
X0278404Y0052742D01*
X0278504Y0052700D01*
X0280096Y0052700D01*
X0281566Y0053309D01*
X0282691Y0054434D01*
X0283300Y0055904D01*
X0283300Y0062696D01*
X0282691Y0064166D01*
X0281566Y0065291D01*
X0280096Y0065900D01*
X0278504Y0065900D01*
X0277034Y0065291D01*
X0275909Y0064166D01*
X0275300Y0062696D01*
X0275300Y0055904D01*
X0275342Y0055804D01*
X0273300Y0057846D01*
X0273300Y0062696D01*
X0272691Y0064166D01*
X0271566Y0065291D01*
X0270096Y0065900D01*
X0268504Y0065900D01*
X0267034Y0065291D01*
X0265909Y0064166D01*
X0265300Y0062696D01*
X0265300Y0055904D01*
X0265909Y0054434D01*
X0267034Y0053309D01*
X0268504Y0052700D01*
X0270096Y0052700D01*
X0271566Y0053309D01*
X0272156Y0053899D01*
X0282500Y0043554D01*
X0282500Y0034357D01*
X0281566Y0035291D01*
X0280096Y0035900D01*
X0278504Y0035900D01*
X0277034Y0035291D01*
X0275909Y0034166D01*
X0275300Y0032696D01*
X0275300Y0025904D01*
X0275342Y0025804D01*
X0273300Y0027846D01*
X0273300Y0032696D01*
X0272691Y0034166D01*
X0271566Y0035291D01*
X0270096Y0035900D01*
X0268504Y0035900D01*
X0267034Y0035291D01*
X0266100Y0034357D01*
X0266100Y0048602D01*
X0266547Y0049049D01*
X0266950Y0050023D01*
X0266950Y0051077D01*
X0266547Y0052051D01*
X0265801Y0052797D01*
X0264827Y0053200D01*
X0263773Y0053200D01*
X0262799Y0052797D01*
X0262053Y0052051D01*
X0261650Y0051077D01*
X0261650Y0050023D01*
X0262053Y0049049D01*
X0262500Y0048602D01*
X0262500Y0034357D01*
X0261566Y0035291D01*
X0261500Y0035318D01*
X0261500Y0040252D01*
X0261547Y0040299D01*
X0261950Y0041273D01*
X0261950Y0042327D01*
X0261547Y0043301D01*
X0260801Y0044047D01*
X0259827Y0044450D01*
X0258773Y0044450D01*
X0257799Y0044047D01*
X0257053Y0043301D01*
X0256650Y0042327D01*
X0256650Y0041273D01*
X0257053Y0040299D01*
X0257100Y0040252D01*
X0257100Y0035318D01*
X0257034Y0035291D01*
X0256100Y0034357D01*
X0256100Y0034852D01*
X0256547Y0035299D01*
X0256950Y0036273D01*
X0256950Y0037327D01*
X0256547Y0038301D01*
X0255801Y0039047D01*
X0254827Y0039450D01*
X0253773Y0039450D01*
X0252799Y0039047D01*
X0252053Y0038301D01*
X0251650Y0037327D01*
X0251650Y0036273D01*
X0252053Y0035299D01*
X0252500Y0034852D01*
X0252500Y0034357D01*
X0251566Y0035291D01*
X0250096Y0035900D01*
X0248504Y0035900D01*
X0247034Y0035291D01*
X0245909Y0034166D01*
X0245300Y0032696D01*
X0245300Y0027846D01*
X0243258Y0025804D01*
X0243300Y0025904D01*
X0243300Y0032696D01*
X0242691Y0034166D01*
X0241566Y0035291D01*
X0240096Y0035900D01*
X0238504Y0035900D01*
X0237034Y0035291D01*
X0236100Y0034357D01*
X0236100Y0048602D01*
X0236547Y0049049D01*
X0236950Y0050023D01*
X0236950Y0051077D01*
X0236547Y0052051D01*
X0235801Y0052797D01*
X0234827Y0053200D01*
X0233773Y0053200D01*
X0232799Y0052797D01*
X0232053Y0052051D01*
X0231650Y0051077D01*
X0231650Y0050023D01*
X0232053Y0049049D01*
X0232500Y0048602D01*
X0232500Y0035046D01*
X0232156Y0034701D01*
X0231566Y0035291D01*
X0230096Y0035900D01*
X0228504Y0035900D01*
X0227034Y0035291D01*
X0225909Y0034166D01*
X0225300Y0032696D01*
X0225300Y0025904D01*
X0225909Y0024434D01*
X0226743Y0023600D01*
X0205046Y0023600D01*
X0200800Y0027846D01*
X0200800Y0030957D01*
X0198457Y0033300D01*
X0195143Y0033300D01*
X0192800Y0030957D01*
X0192800Y0027643D01*
X0195143Y0025300D01*
X0198254Y0025300D01*
X0203554Y0020000D01*
X0234222Y0020000D01*
X0234150Y0019827D01*
X0234150Y0018773D01*
X0234553Y0017799D01*
X0235299Y0017053D01*
X0236273Y0016650D01*
X0236403Y0016650D01*
X0237617Y0014829D01*
X0237476Y0014689D01*
X0236800Y0013056D01*
X0236124Y0014689D01*
X0234689Y0016124D01*
X0232814Y0016900D01*
X0230786Y0016900D01*
X0228911Y0016124D01*
X0227476Y0014689D01*
X0226700Y0012814D01*
X0226700Y0010786D01*
X0227476Y0008911D01*
X0227738Y0008650D01*
X0008650Y0008650D01*
X0008650Y0009997D02*
X0022392Y0009997D01*
X0022496Y0009944D02*
X0023199Y0009716D01*
X0023930Y0009600D01*
X0024150Y0009600D01*
X0024150Y0014150D01*
X0019600Y0014150D01*
X0019600Y0013930D01*
X0019716Y0013199D01*
X0019944Y0012496D01*
X0020280Y0011837D01*
X0020715Y0011238D01*
X0021238Y0010715D01*
X0021837Y0010280D01*
X0022496Y0009944D01*
X0024150Y0009997D02*
X0024450Y0009997D01*
X0024450Y0009600D02*
X0024670Y0009600D01*
X0025401Y0009716D01*
X0026104Y0009944D01*
X0026763Y0010280D01*
X0027362Y0010715D01*
X0027885Y0011238D01*
X0028320Y0011837D01*
X0028656Y0012496D01*
X0028884Y0013199D01*
X0029000Y0013930D01*
X0029000Y0014150D01*
X0024450Y0014150D01*
X0024450Y0014450D01*
X0024150Y0014450D01*
X0024150Y0019000D01*
X0023930Y0019000D01*
X0023199Y0018884D01*
X0022496Y0018656D01*
X0021837Y0018320D01*
X0021238Y0017885D01*
X0020715Y0017362D01*
X0020280Y0016763D01*
X0019944Y0016104D01*
X0019716Y0015401D01*
X0019600Y0014670D01*
X0019600Y0014450D01*
X0024150Y0014450D01*
X0024150Y0014150D01*
X0024450Y0014150D01*
X0024450Y0009600D01*
X0026208Y0009997D02*
X0227027Y0009997D01*
X0226700Y0011596D02*
X0147677Y0011596D01*
X0147945Y0011864D02*
X0146736Y0010655D01*
X0145155Y0010000D01*
X0143445Y0010000D01*
X0141864Y0010655D01*
X0140655Y0011864D01*
X0140000Y0013445D01*
X0140000Y0015155D01*
X0140655Y0016736D01*
X0141864Y0017945D01*
X0143445Y0018600D01*
X0145155Y0018600D01*
X0146736Y0017945D01*
X0147945Y0016736D01*
X0148600Y0015155D01*
X0148600Y0013445D01*
X0147945Y0011864D01*
X0148496Y0013194D02*
X0226857Y0013194D01*
X0236743Y0013194D02*
X0236857Y0013194D01*
X0237580Y0014793D02*
X0236020Y0014793D01*
X0236576Y0016391D02*
X0234043Y0016391D01*
X0229557Y0016391D02*
X0148088Y0016391D01*
X0148600Y0014793D02*
X0227580Y0014793D01*
X0234474Y0017990D02*
X0146629Y0017990D01*
X0141971Y0017990D02*
X0136629Y0017990D01*
X0136736Y0017945D02*
X0135155Y0018600D01*
X0133445Y0018600D01*
X0131864Y0017945D01*
X0130655Y0016736D01*
X0130000Y0015155D01*
X0130000Y0013445D01*
X0130655Y0011864D01*
X0131864Y0010655D01*
X0133445Y0010000D01*
X0135155Y0010000D01*
X0136736Y0010655D01*
X0137945Y0011864D01*
X0138600Y0013445D01*
X0138600Y0015155D01*
X0137945Y0016736D01*
X0136736Y0017945D01*
X0131971Y0017990D02*
X0126629Y0017990D01*
X0126736Y0017945D02*
X0125155Y0018600D01*
X0123445Y0018600D01*
X0121864Y0017945D01*
X0120655Y0016736D01*
X0120000Y0015155D01*
X0120000Y0013445D01*
X0120655Y0011864D01*
X0121864Y0010655D01*
X0123445Y0010000D01*
X0125155Y0010000D01*
X0126736Y0010655D01*
X0127945Y0011864D01*
X0128600Y0013445D01*
X0128600Y0015155D01*
X0127945Y0016736D01*
X0126736Y0017945D01*
X0121971Y0017990D02*
X0116629Y0017990D01*
X0116736Y0017945D02*
X0115155Y0018600D01*
X0113445Y0018600D01*
X0111864Y0017945D01*
X0110655Y0016736D01*
X0110000Y0015155D01*
X0110000Y0013445D01*
X0110655Y0011864D01*
X0111864Y0010655D01*
X0113445Y0010000D01*
X0115155Y0010000D01*
X0116736Y0010655D01*
X0117945Y0011864D01*
X0118600Y0013445D01*
X0118600Y0015155D01*
X0117945Y0016736D01*
X0116736Y0017945D01*
X0111971Y0017990D02*
X0106629Y0017990D01*
X0106736Y0017945D02*
X0105155Y0018600D01*
X0103445Y0018600D01*
X0101864Y0017945D01*
X0100655Y0016736D01*
X0100000Y0015155D01*
X0100000Y0013445D01*
X0100655Y0011864D01*
X0101864Y0010655D01*
X0103445Y0010000D01*
X0105155Y0010000D01*
X0106736Y0010655D01*
X0107945Y0011864D01*
X0108600Y0013445D01*
X0108600Y0015155D01*
X0107945Y0016736D01*
X0106736Y0017945D01*
X0101971Y0017990D02*
X0096629Y0017990D01*
X0096736Y0017945D02*
X0095155Y0018600D01*
X0093445Y0018600D01*
X0091864Y0017945D01*
X0090655Y0016736D01*
X0090000Y0015155D01*
X0090000Y0013445D01*
X0090655Y0011864D01*
X0091864Y0010655D01*
X0093445Y0010000D01*
X0095155Y0010000D01*
X0096736Y0010655D01*
X0097945Y0011864D01*
X0098600Y0013445D01*
X0098600Y0015155D01*
X0097945Y0016736D01*
X0096736Y0017945D01*
X0091971Y0017990D02*
X0086629Y0017990D01*
X0086736Y0017945D02*
X0085155Y0018600D01*
X0083445Y0018600D01*
X0081864Y0017945D01*
X0080655Y0016736D01*
X0080000Y0015155D01*
X0080000Y0013445D01*
X0080655Y0011864D01*
X0081864Y0010655D01*
X0083445Y0010000D01*
X0085155Y0010000D01*
X0086736Y0010655D01*
X0087945Y0011864D01*
X0088600Y0013445D01*
X0088600Y0015155D01*
X0087945Y0016736D01*
X0086736Y0017945D01*
X0081971Y0017990D02*
X0076629Y0017990D01*
X0076736Y0017945D02*
X0076300Y0018126D01*
X0076300Y0025300D01*
X0077480Y0025300D01*
X0078300Y0026120D01*
X0078300Y0032480D01*
X0077480Y0033300D01*
X0071120Y0033300D01*
X0070300Y0032480D01*
X0070300Y0026120D01*
X0071120Y0025300D01*
X0072300Y0025300D01*
X0072300Y0018126D01*
X0071864Y0017945D01*
X0070655Y0016736D01*
X0070000Y0015155D01*
X0070000Y0013445D01*
X0070655Y0011864D01*
X0071864Y0010655D01*
X0073445Y0010000D01*
X0075155Y0010000D01*
X0076736Y0010655D01*
X0077945Y0011864D01*
X0078600Y0013445D01*
X0078600Y0015155D01*
X0077945Y0016736D01*
X0076736Y0017945D01*
X0071971Y0017990D02*
X0066629Y0017990D01*
X0066736Y0017945D02*
X0065155Y0018600D01*
X0063445Y0018600D01*
X0061864Y0017945D01*
X0060655Y0016736D01*
X0060000Y0015155D01*
X0060000Y0013445D01*
X0060655Y0011864D01*
X0061864Y0010655D01*
X0063445Y0010000D01*
X0065155Y0010000D01*
X0066736Y0010655D01*
X0067945Y0011864D01*
X0068600Y0013445D01*
X0068600Y0015155D01*
X0067945Y0016736D01*
X0066736Y0017945D01*
X0061971Y0017990D02*
X0056629Y0017990D01*
X0056736Y0017945D02*
X0056300Y0018126D01*
X0056300Y0020643D01*
X0058300Y0022643D01*
X0058300Y0025957D01*
X0055957Y0028300D01*
X0052643Y0028300D01*
X0050300Y0025957D01*
X0050300Y0022643D01*
X0052300Y0020643D01*
X0052300Y0018126D01*
X0051864Y0017945D01*
X0050655Y0016736D01*
X0050000Y0015155D01*
X0050000Y0013445D01*
X0050655Y0011864D01*
X0051864Y0010655D01*
X0053445Y0010000D01*
X0055155Y0010000D01*
X0056736Y0010655D01*
X0057945Y0011864D01*
X0058600Y0013445D01*
X0058600Y0015155D01*
X0057945Y0016736D01*
X0056736Y0017945D01*
X0051971Y0017990D02*
X0046629Y0017990D01*
X0046736Y0017945D02*
X0045155Y0018600D01*
X0043445Y0018600D01*
X0041864Y0017945D01*
X0040655Y0016736D01*
X0040000Y0015155D01*
X0040000Y0013445D01*
X0040655Y0011864D01*
X0041864Y0010655D01*
X0043445Y0010000D01*
X0045155Y0010000D01*
X0046736Y0010655D01*
X0047945Y0011864D01*
X0048600Y0013445D01*
X0048600Y0015155D01*
X0047945Y0016736D01*
X0046736Y0017945D01*
X0041971Y0017990D02*
X0036629Y0017990D01*
X0036736Y0017945D02*
X0035155Y0018600D01*
X0033445Y0018600D01*
X0033009Y0018419D01*
X0031300Y0020128D01*
X0031300Y0026643D01*
X0032034Y0025909D01*
X0033504Y0025300D01*
X0035096Y0025300D01*
X0036566Y0025909D01*
X0037691Y0027034D01*
X0038300Y0028504D01*
X0038300Y0030096D01*
X0037691Y0031566D01*
X0036566Y0032691D01*
X0035096Y0033300D01*
X0033504Y0033300D01*
X0032034Y0032691D01*
X0031300Y0031957D01*
X0031300Y0053472D01*
X0033128Y0055300D01*
X0037480Y0055300D01*
X0038300Y0056120D01*
X0038300Y0062480D01*
X0037480Y0063300D01*
X0031120Y0063300D01*
X0030300Y0062480D01*
X0030300Y0058128D01*
X0027300Y0055128D01*
X0027300Y0018472D01*
X0028472Y0017300D01*
X0030180Y0015591D01*
X0030000Y0015155D01*
X0030000Y0013445D01*
X0030655Y0011864D01*
X0031864Y0010655D01*
X0033445Y0010000D01*
X0035155Y0010000D01*
X0036736Y0010655D01*
X0037945Y0011864D01*
X0038600Y0013445D01*
X0038600Y0015155D01*
X0037945Y0016736D01*
X0036736Y0017945D01*
X0028656Y0016104D02*
X0028320Y0016763D01*
X0027885Y0017362D01*
X0027362Y0017885D01*
X0026763Y0018320D01*
X0026104Y0018656D01*
X0025401Y0018884D01*
X0024670Y0019000D01*
X0024450Y0019000D01*
X0024450Y0014450D01*
X0029000Y0014450D01*
X0029000Y0014670D01*
X0028884Y0015401D01*
X0028656Y0016104D01*
X0028509Y0016391D02*
X0029380Y0016391D01*
X0028981Y0014793D02*
X0030000Y0014793D01*
X0024450Y0014793D02*
X0024150Y0014793D01*
X0024150Y0016391D02*
X0024450Y0016391D01*
X0020091Y0016391D02*
X0018088Y0016391D01*
X0017945Y0016736D02*
X0018600Y0015155D01*
X0018600Y0013445D01*
X0017945Y0011864D01*
X0016736Y0010655D01*
X0015155Y0010000D01*
X0013445Y0010000D01*
X0011864Y0010655D01*
X0010655Y0011864D01*
X0010000Y0013445D01*
X0010000Y0015155D01*
X0010655Y0016736D01*
X0011864Y0017945D01*
X0013445Y0018600D01*
X0015155Y0018600D01*
X0016736Y0017945D01*
X0017945Y0016736D01*
X0016629Y0017990D02*
X0021382Y0017990D01*
X0024150Y0017990D02*
X0024450Y0017990D01*
X0027218Y0017990D02*
X0027782Y0017990D01*
X0027300Y0019588D02*
X0008650Y0019588D01*
X0008650Y0017990D02*
X0011971Y0017990D01*
X0010512Y0016391D02*
X0008650Y0016391D01*
X0008650Y0014793D02*
X0010000Y0014793D01*
X0010104Y0013194D02*
X0008650Y0013194D01*
X0008650Y0011596D02*
X0010923Y0011596D01*
X0017677Y0011596D02*
X0020455Y0011596D01*
X0024150Y0011596D02*
X0024450Y0011596D01*
X0028145Y0011596D02*
X0030923Y0011596D01*
X0037677Y0011596D02*
X0040923Y0011596D01*
X0047677Y0011596D02*
X0050923Y0011596D01*
X0057677Y0011596D02*
X0060923Y0011596D01*
X0067677Y0011596D02*
X0070923Y0011596D01*
X0077677Y0011596D02*
X0080923Y0011596D01*
X0087677Y0011596D02*
X0090923Y0011596D01*
X0097677Y0011596D02*
X0100923Y0011596D01*
X0100104Y0013194D02*
X0098496Y0013194D01*
X0098600Y0014793D02*
X0100000Y0014793D01*
X0100512Y0016391D02*
X0098088Y0016391D01*
X0090512Y0016391D02*
X0088088Y0016391D01*
X0088600Y0014793D02*
X0090000Y0014793D01*
X0080512Y0016391D02*
X0078088Y0016391D01*
X0078600Y0014793D02*
X0080000Y0014793D01*
X0080104Y0013194D02*
X0078496Y0013194D01*
X0070104Y0013194D02*
X0068496Y0013194D01*
X0068600Y0014793D02*
X0070000Y0014793D01*
X0070512Y0016391D02*
X0068088Y0016391D01*
X0060512Y0016391D02*
X0058088Y0016391D01*
X0058600Y0014793D02*
X0060000Y0014793D01*
X0060104Y0013194D02*
X0058496Y0013194D01*
X0050104Y0013194D02*
X0048496Y0013194D01*
X0040104Y0013194D02*
X0038496Y0013194D01*
X0030104Y0013194D02*
X0028883Y0013194D01*
X0024450Y0013194D02*
X0024150Y0013194D01*
X0019717Y0013194D02*
X0018496Y0013194D01*
X0018600Y0014793D02*
X0019619Y0014793D01*
X0038088Y0016391D02*
X0040512Y0016391D01*
X0040000Y0014793D02*
X0038600Y0014793D01*
X0048088Y0016391D02*
X0050512Y0016391D01*
X0050000Y0014793D02*
X0048600Y0014793D01*
X0052300Y0019588D02*
X0031840Y0019588D01*
X0031300Y0021187D02*
X0051757Y0021187D01*
X0056843Y0021187D02*
X0061757Y0021187D01*
X0062643Y0020300D02*
X0060300Y0022643D01*
X0060300Y0025957D01*
X0062643Y0028300D01*
X0065957Y0028300D01*
X0068300Y0025957D01*
X0068300Y0022643D01*
X0065957Y0020300D01*
X0062643Y0020300D01*
X0066843Y0021187D02*
X0072300Y0021187D01*
X0076300Y0021187D02*
X0141332Y0021187D01*
X0141864Y0020655D02*
X0140655Y0021864D01*
X0140000Y0023445D01*
X0140000Y0025155D01*
X0140655Y0026736D01*
X0141864Y0027945D01*
X0142500Y0028209D01*
X0142500Y0032352D01*
X0142053Y0032799D01*
X0141650Y0033773D01*
X0141650Y0034827D01*
X0142053Y0035801D01*
X0142799Y0036547D01*
X0143773Y0036950D01*
X0144827Y0036950D01*
X0145801Y0036547D01*
X0146547Y0035801D01*
X0146950Y0034827D01*
X0146950Y0033773D01*
X0146547Y0032799D01*
X0146100Y0032352D01*
X0146100Y0028209D01*
X0146736Y0027945D01*
X0147945Y0026736D01*
X0148600Y0025155D01*
X0148600Y0023445D01*
X0147945Y0021864D01*
X0146736Y0020655D01*
X0145155Y0020000D01*
X0143445Y0020000D01*
X0141864Y0020655D01*
X0147268Y0021187D02*
X0202368Y0021187D01*
X0200769Y0022785D02*
X0148327Y0022785D01*
X0148600Y0024384D02*
X0199171Y0024384D01*
X0204262Y0024384D02*
X0225960Y0024384D01*
X0225300Y0025982D02*
X0202663Y0025982D01*
X0194461Y0025982D02*
X0179705Y0025982D01*
X0178623Y0024900D02*
X0181200Y0027477D01*
X0181200Y0029300D01*
X0181200Y0031123D01*
X0178623Y0033700D01*
X0176800Y0033700D01*
X0176800Y0029300D01*
X0176800Y0029300D01*
X0181200Y0029300D01*
X0176800Y0029300D01*
X0176800Y0029300D01*
X0176800Y0029300D01*
X0172400Y0029300D01*
X0172400Y0031123D01*
X0174977Y0033700D01*
X0176800Y0033700D01*
X0176800Y0029300D01*
X0176800Y0024900D01*
X0178623Y0024900D01*
X0176800Y0024900D02*
X0176800Y0029300D01*
X0176800Y0029300D01*
X0172400Y0029300D01*
X0172400Y0027477D01*
X0174977Y0024900D01*
X0176800Y0024900D01*
X0176800Y0025982D02*
X0176800Y0025982D01*
X0173895Y0025982D02*
X0159139Y0025982D01*
X0158457Y0025300D02*
X0155143Y0025300D01*
X0152800Y0027643D01*
X0152800Y0030957D01*
X0155143Y0033300D01*
X0158457Y0033300D01*
X0160800Y0030957D01*
X0160800Y0027643D01*
X0158457Y0025300D01*
X0154461Y0025982D02*
X0148258Y0025982D01*
X0147100Y0027581D02*
X0152863Y0027581D01*
X0160737Y0027581D02*
X0164797Y0027581D01*
X0164977Y0027400D02*
X0162400Y0029977D01*
X0162400Y0031800D01*
X0166800Y0031800D01*
X0166800Y0031800D01*
X0166800Y0036200D01*
X0168623Y0036200D01*
X0171200Y0033623D01*
X0171200Y0031800D01*
X0166800Y0031800D01*
X0166800Y0031800D01*
X0166800Y0031800D01*
X0166800Y0036200D01*
X0164977Y0036200D01*
X0162400Y0033623D01*
X0162400Y0031800D01*
X0166800Y0031800D01*
X0171200Y0031800D01*
X0171200Y0029977D01*
X0168623Y0027400D01*
X0166800Y0027400D01*
X0166800Y0031800D01*
X0166800Y0031800D01*
X0166800Y0027400D01*
X0164977Y0027400D01*
X0166800Y0027581D02*
X0166800Y0027581D01*
X0168803Y0027581D02*
X0172400Y0027581D01*
X0176800Y0027581D02*
X0176800Y0027581D01*
X0181200Y0027581D02*
X0192862Y0027581D01*
X0190800Y0030143D02*
X0188457Y0027800D01*
X0185143Y0027800D01*
X0182800Y0030143D01*
X0182800Y0033457D01*
X0185143Y0035800D01*
X0188457Y0035800D01*
X0190800Y0033457D01*
X0190800Y0030143D01*
X0190800Y0030778D02*
X0192800Y0030778D01*
X0192800Y0029179D02*
X0189836Y0029179D01*
X0183764Y0029179D02*
X0181200Y0029179D01*
X0181200Y0030778D02*
X0182800Y0030778D01*
X0176800Y0030778D02*
X0176800Y0030778D01*
X0176800Y0029179D02*
X0176800Y0029179D01*
X0172400Y0029179D02*
X0170402Y0029179D01*
X0171200Y0030778D02*
X0172400Y0030778D01*
X0166800Y0030778D02*
X0166800Y0030778D01*
X0166800Y0029179D02*
X0166800Y0029179D01*
X0163198Y0029179D02*
X0160800Y0029179D01*
X0160800Y0030778D02*
X0162400Y0030778D01*
X0152800Y0030778D02*
X0146100Y0030778D01*
X0146100Y0029179D02*
X0152800Y0029179D01*
X0142500Y0029179D02*
X0138300Y0029179D01*
X0138300Y0027643D02*
X0138300Y0030957D01*
X0135957Y0033300D01*
X0132643Y0033300D01*
X0130300Y0030957D01*
X0130300Y0027643D01*
X0132643Y0025300D01*
X0135957Y0025300D01*
X0138300Y0027643D01*
X0138237Y0027581D02*
X0141500Y0027581D01*
X0140342Y0025982D02*
X0136639Y0025982D01*
X0131961Y0025982D02*
X0086639Y0025982D01*
X0086566Y0025909D02*
X0087691Y0027034D01*
X0088300Y0028504D01*
X0088300Y0030096D01*
X0087691Y0031566D01*
X0086566Y0032691D01*
X0085096Y0033300D01*
X0083504Y0033300D01*
X0082034Y0032691D01*
X0080909Y0031566D01*
X0080300Y0030096D01*
X0080300Y0028504D01*
X0080909Y0027034D01*
X0082034Y0025909D01*
X0083504Y0025300D01*
X0085096Y0025300D01*
X0086566Y0025909D01*
X0081961Y0025982D02*
X0078162Y0025982D01*
X0070438Y0025982D02*
X0068275Y0025982D01*
X0068300Y0024384D02*
X0072300Y0024384D01*
X0072300Y0022785D02*
X0068300Y0022785D01*
X0076300Y0022785D02*
X0140273Y0022785D01*
X0140000Y0024384D02*
X0076300Y0024384D01*
X0060300Y0024384D02*
X0058300Y0024384D01*
X0058300Y0022785D02*
X0060300Y0022785D01*
X0050300Y0022785D02*
X0031300Y0022785D01*
X0031300Y0024384D02*
X0050300Y0024384D01*
X0048300Y0026120D02*
X0047480Y0025300D01*
X0041120Y0025300D01*
X0040300Y0026120D01*
X0040300Y0032480D01*
X0041120Y0033300D01*
X0047480Y0033300D01*
X0048300Y0032480D01*
X0048300Y0026120D01*
X0048162Y0025982D02*
X0050325Y0025982D01*
X0040438Y0025982D02*
X0036639Y0025982D01*
X0031961Y0025982D02*
X0031300Y0025982D01*
X0027300Y0025982D02*
X0008650Y0025982D01*
X0008650Y0024384D02*
X0027300Y0024384D01*
X0027300Y0022785D02*
X0008650Y0022785D01*
X0008650Y0021187D02*
X0027300Y0021187D01*
X0056300Y0019588D02*
X0072300Y0019588D01*
X0076300Y0019588D02*
X0234150Y0019588D01*
X0243300Y0025982D02*
X0243437Y0025982D01*
X0243300Y0027581D02*
X0245035Y0027581D01*
X0245300Y0029179D02*
X0243300Y0029179D01*
X0243300Y0030778D02*
X0245300Y0030778D01*
X0245300Y0032376D02*
X0243300Y0032376D01*
X0242770Y0033975D02*
X0245830Y0033975D01*
X0247715Y0035573D02*
X0240885Y0035573D01*
X0237715Y0035573D02*
X0236100Y0035573D01*
X0236100Y0037172D02*
X0251650Y0037172D01*
X0251940Y0035573D02*
X0250885Y0035573D01*
X0256660Y0035573D02*
X0257100Y0035573D01*
X0257100Y0037172D02*
X0256950Y0037172D01*
X0261500Y0037172D02*
X0262500Y0037172D01*
X0262500Y0035573D02*
X0261500Y0035573D01*
X0266100Y0035573D02*
X0267715Y0035573D01*
X0266100Y0037172D02*
X0282500Y0037172D01*
X0282500Y0035573D02*
X0280885Y0035573D01*
X0277715Y0035573D02*
X0270885Y0035573D01*
X0272770Y0033975D02*
X0275830Y0033975D01*
X0275300Y0032376D02*
X0273300Y0032376D01*
X0273300Y0030778D02*
X0275300Y0030778D01*
X0275300Y0029179D02*
X0273300Y0029179D01*
X0273565Y0027581D02*
X0275300Y0027581D01*
X0275300Y0025982D02*
X0275163Y0025982D01*
X0286100Y0022785D02*
X0288299Y0022785D01*
X0290301Y0022785D02*
X0310750Y0022785D01*
X0310797Y0024384D02*
X0292640Y0024384D01*
X0293300Y0025982D02*
X0299461Y0025982D01*
X0300143Y0025300D02*
X0303457Y0025300D01*
X0305800Y0027643D01*
X0305800Y0030957D01*
X0303600Y0033157D01*
X0303600Y0036054D01*
X0307800Y0040254D01*
X0307800Y0037643D01*
X0310143Y0035300D01*
X0313457Y0035300D01*
X0315800Y0037643D01*
X0315800Y0040957D01*
X0314257Y0042500D01*
X0338700Y0042500D01*
X0338816Y0042413D01*
X0339428Y0042500D01*
X0340046Y0042500D01*
X0340149Y0042603D01*
X0340293Y0042624D01*
X0340663Y0043118D01*
X0341100Y0043554D01*
X0341100Y0043700D01*
X0345525Y0049600D01*
X0348747Y0049600D01*
X0351500Y0052353D01*
X0351500Y0056247D01*
X0348747Y0059000D01*
X0344853Y0059000D01*
X0342100Y0056247D01*
X0342100Y0052353D01*
X0342666Y0051788D01*
X0338400Y0046100D01*
X0308554Y0046100D01*
X0307500Y0045046D01*
X0300000Y0037546D01*
X0300000Y0033157D01*
X0297800Y0030957D01*
X0297800Y0027643D01*
X0300143Y0025300D01*
X0304139Y0025982D02*
X0311003Y0025982D01*
X0311444Y0027581D02*
X0305737Y0027581D01*
X0305800Y0029179D02*
X0312152Y0029179D01*
X0313183Y0030778D02*
X0305800Y0030778D01*
X0304381Y0032376D02*
X0314599Y0032376D01*
X0316969Y0033975D02*
X0303600Y0033975D01*
X0300000Y0033975D02*
X0292770Y0033975D01*
X0293300Y0032376D02*
X0299219Y0032376D01*
X0297800Y0030778D02*
X0293300Y0030778D01*
X0293300Y0029179D02*
X0297800Y0029179D01*
X0297863Y0027581D02*
X0293300Y0027581D01*
X0259300Y0029300D02*
X0259300Y0041800D01*
X0261950Y0041967D02*
X0262500Y0041967D01*
X0262500Y0043566D02*
X0261282Y0043566D01*
X0257318Y0043566D02*
X0256063Y0043566D01*
X0256650Y0041967D02*
X0236100Y0041967D01*
X0236100Y0043566D02*
X0252537Y0043566D01*
X0251650Y0045164D02*
X0236100Y0045164D01*
X0232500Y0045164D02*
X0219450Y0045164D01*
X0219450Y0045023D02*
X0219450Y0046077D01*
X0219047Y0047051D01*
X0219000Y0047098D01*
X0219000Y0048343D01*
X0220800Y0050143D01*
X0220800Y0053457D01*
X0218457Y0055800D01*
X0215143Y0055800D01*
X0212800Y0053457D01*
X0212800Y0050143D01*
X0214600Y0048343D01*
X0214600Y0047098D01*
X0214553Y0047051D01*
X0214150Y0046077D01*
X0214150Y0045023D01*
X0214553Y0044049D01*
X0215299Y0043303D01*
X0216273Y0042900D01*
X0217327Y0042900D01*
X0218301Y0043303D01*
X0219047Y0044049D01*
X0219450Y0045023D01*
X0216800Y0045550D02*
X0216800Y0051800D01*
X0220800Y0051558D02*
X0231849Y0051558D01*
X0236751Y0051558D02*
X0252100Y0051558D01*
X0256500Y0051558D02*
X0261849Y0051558D01*
X0266751Y0051558D02*
X0274496Y0051558D01*
X0279587Y0051558D02*
X0292500Y0051558D01*
X0296100Y0051558D02*
X0322895Y0051558D01*
X0322100Y0052353D02*
X0324853Y0049600D01*
X0328747Y0049600D01*
X0331500Y0052353D01*
X0331500Y0056247D01*
X0328747Y0059000D01*
X0324853Y0059000D01*
X0322100Y0056247D01*
X0322100Y0052353D01*
X0322100Y0053157D02*
X0296100Y0053157D01*
X0292500Y0053157D02*
X0291199Y0053157D01*
X0287401Y0053157D02*
X0281199Y0053157D01*
X0272898Y0053157D02*
X0271199Y0053157D01*
X0267401Y0053157D02*
X0264931Y0053157D01*
X0263669Y0053157D02*
X0261199Y0053157D01*
X0257401Y0053157D02*
X0256500Y0053157D01*
X0254300Y0054300D02*
X0254300Y0045550D01*
X0251934Y0046763D02*
X0236100Y0046763D01*
X0232500Y0046763D02*
X0219166Y0046763D01*
X0214434Y0046763D02*
X0105485Y0046763D01*
X0106200Y0047477D02*
X0106200Y0049300D01*
X0106200Y0051123D01*
X0103623Y0053700D01*
X0101800Y0053700D01*
X0101800Y0049300D01*
X0106200Y0049300D01*
X0101800Y0049300D01*
X0101800Y0049300D01*
X0101800Y0049300D01*
X0101800Y0044900D01*
X0103623Y0044900D01*
X0106200Y0047477D01*
X0106200Y0048361D02*
X0119582Y0048361D01*
X0120143Y0047800D02*
X0123457Y0047800D01*
X0125800Y0050143D01*
X0125800Y0053457D01*
X0123457Y0055800D01*
X0120143Y0055800D01*
X0117800Y0053457D01*
X0117800Y0050143D01*
X0120143Y0047800D01*
X0124018Y0048361D02*
X0164582Y0048361D01*
X0165143Y0047800D02*
X0168457Y0047800D01*
X0170800Y0050143D01*
X0170800Y0053457D01*
X0168457Y0055800D01*
X0165143Y0055800D01*
X0162800Y0053457D01*
X0162800Y0050143D01*
X0165143Y0047800D01*
X0169018Y0048361D02*
X0184582Y0048361D01*
X0185143Y0047800D02*
X0188457Y0047800D01*
X0190800Y0050143D01*
X0190800Y0053457D01*
X0188457Y0055800D01*
X0185143Y0055800D01*
X0182800Y0053457D01*
X0182800Y0050143D01*
X0185143Y0047800D01*
X0189018Y0048361D02*
X0204582Y0048361D01*
X0202983Y0049960D02*
X0190617Y0049960D01*
X0182983Y0049960D02*
X0170617Y0049960D01*
X0170800Y0051558D02*
X0182800Y0051558D01*
X0190800Y0051558D02*
X0202800Y0051558D01*
X0202800Y0053157D02*
X0190800Y0053157D01*
X0182800Y0053157D02*
X0170800Y0053157D01*
X0169501Y0054755D02*
X0184098Y0054755D01*
X0179511Y0056354D02*
X0193524Y0056354D01*
X0192400Y0057477D02*
X0194977Y0054900D01*
X0196800Y0054900D01*
X0198623Y0054900D01*
X0201200Y0057477D01*
X0201200Y0059300D01*
X0201200Y0061123D01*
X0198623Y0063700D01*
X0196800Y0063700D01*
X0196800Y0059300D01*
X0196800Y0059300D01*
X0201200Y0059300D01*
X0196800Y0059300D01*
X0196800Y0059300D01*
X0196800Y0059300D01*
X0192400Y0059300D01*
X0192400Y0061123D01*
X0194977Y0063700D01*
X0196800Y0063700D01*
X0196800Y0059300D01*
X0196800Y0054900D01*
X0196800Y0059300D01*
X0196800Y0059300D01*
X0192400Y0059300D01*
X0192400Y0057477D01*
X0192400Y0057952D02*
X0180800Y0057952D01*
X0172800Y0057952D02*
X0160800Y0057952D01*
X0160800Y0057643D02*
X0158457Y0055300D01*
X0155143Y0055300D01*
X0152800Y0057643D01*
X0152800Y0060957D01*
X0155143Y0063300D01*
X0158457Y0063300D01*
X0160800Y0060957D01*
X0160800Y0057643D01*
X0152800Y0057952D02*
X0138300Y0057952D01*
X0138300Y0057643D02*
X0135957Y0055300D01*
X0132643Y0055300D01*
X0130300Y0057643D01*
X0130300Y0060957D01*
X0132643Y0063300D01*
X0135957Y0063300D01*
X0138300Y0060957D01*
X0138300Y0057643D01*
X0130300Y0057952D02*
X0088300Y0057952D01*
X0088300Y0057846D02*
X0088300Y0062480D01*
X0087480Y0063300D01*
X0081120Y0063300D01*
X0080300Y0062480D01*
X0080300Y0056120D01*
X0081120Y0055300D01*
X0085754Y0055300D01*
X0087500Y0053554D01*
X0087500Y0038748D01*
X0087053Y0038301D01*
X0086650Y0037327D01*
X0086650Y0036273D01*
X0087053Y0035299D01*
X0087799Y0034553D01*
X0088773Y0034150D01*
X0089827Y0034150D01*
X0090801Y0034553D01*
X0091547Y0035299D01*
X0091950Y0036273D01*
X0091950Y0037327D01*
X0091547Y0038301D01*
X0091100Y0038748D01*
X0091100Y0055046D01*
X0090046Y0056100D01*
X0088300Y0057846D01*
X0080300Y0057952D02*
X0078489Y0057952D01*
X0078592Y0058270D02*
X0078700Y0058954D01*
X0078700Y0059300D01*
X0078700Y0059646D01*
X0078592Y0060330D01*
X0078378Y0060989D01*
X0078063Y0061606D01*
X0077656Y0062166D01*
X0077166Y0062656D01*
X0076606Y0063063D01*
X0075989Y0063378D01*
X0075330Y0063592D01*
X0074646Y0063700D01*
X0074300Y0063700D01*
X0074300Y0059300D01*
X0074300Y0059300D01*
X0078700Y0059300D01*
X0074300Y0059300D01*
X0074300Y0059300D01*
X0074300Y0063700D01*
X0073954Y0063700D01*
X0073270Y0063592D01*
X0072611Y0063378D01*
X0071994Y0063063D01*
X0071434Y0062656D01*
X0071100Y0062323D01*
X0071100Y0068554D01*
X0072809Y0070263D01*
X0073445Y0070000D01*
X0075155Y0070000D01*
X0076736Y0070655D01*
X0077945Y0071864D01*
X0078600Y0073445D01*
X0078600Y0075155D01*
X0077945Y0076736D01*
X0076736Y0077945D01*
X0075155Y0078600D01*
X0073445Y0078600D01*
X0071864Y0077945D01*
X0070655Y0076736D01*
X0070000Y0075155D01*
X0070000Y0073445D01*
X0070263Y0072809D01*
X0068554Y0071100D01*
X0067500Y0070046D01*
X0067500Y0066757D01*
X0065957Y0068300D01*
X0062643Y0068300D01*
X0060300Y0065957D01*
X0060300Y0062643D01*
X0062643Y0060300D01*
X0065957Y0060300D01*
X0067500Y0061843D01*
X0067500Y0047498D01*
X0067053Y0047051D01*
X0066650Y0046077D01*
X0066650Y0045023D01*
X0067053Y0044049D01*
X0067799Y0043303D01*
X0068773Y0042900D01*
X0069827Y0042900D01*
X0070801Y0043303D01*
X0071547Y0044049D01*
X0071950Y0045023D01*
X0071950Y0046077D01*
X0071547Y0047051D01*
X0071100Y0047498D01*
X0071100Y0056277D01*
X0071434Y0055944D01*
X0071994Y0055537D01*
X0072611Y0055222D01*
X0073270Y0055008D01*
X0073954Y0054900D01*
X0074300Y0054900D01*
X0074646Y0054900D01*
X0075330Y0055008D01*
X0075989Y0055222D01*
X0076606Y0055537D01*
X0077166Y0055944D01*
X0077656Y0056434D01*
X0078063Y0056994D01*
X0078378Y0057611D01*
X0078592Y0058270D01*
X0074300Y0057952D02*
X0074300Y0057952D01*
X0074300Y0059300D02*
X0074300Y0054900D01*
X0074300Y0059300D01*
X0074300Y0059300D01*
X0074300Y0059551D02*
X0074300Y0059551D01*
X0078700Y0059551D02*
X0080300Y0059551D01*
X0088300Y0059551D02*
X0130300Y0059551D01*
X0138300Y0059551D02*
X0152800Y0059551D01*
X0160800Y0059551D02*
X0172800Y0059551D01*
X0180800Y0059551D02*
X0192400Y0059551D01*
X0196800Y0059551D02*
X0196800Y0059551D01*
X0201200Y0059551D02*
X0212005Y0059551D01*
X0210407Y0057952D02*
X0201200Y0057952D01*
X0196800Y0057952D02*
X0196800Y0057952D01*
X0196800Y0056354D02*
X0196800Y0056354D01*
X0200076Y0056354D02*
X0208808Y0056354D01*
X0212301Y0054755D02*
X0214098Y0054755D01*
X0213899Y0056354D02*
X0225300Y0056354D01*
X0225776Y0054755D02*
X0219501Y0054755D01*
X0220800Y0053157D02*
X0227401Y0053157D01*
X0231199Y0053157D02*
X0233669Y0053157D01*
X0234931Y0053157D02*
X0237401Y0053157D01*
X0241199Y0053157D02*
X0247401Y0053157D01*
X0251199Y0053157D02*
X0252100Y0053157D01*
X0254300Y0054300D02*
X0259300Y0059300D01*
X0263300Y0059551D02*
X0265300Y0059551D01*
X0255300Y0059551D02*
X0253300Y0059551D01*
X0245300Y0059551D02*
X0243300Y0059551D01*
X0243300Y0061149D02*
X0244905Y0061149D01*
X0243307Y0062748D02*
X0243278Y0062748D01*
X0253278Y0062748D02*
X0255322Y0062748D01*
X0255300Y0061149D02*
X0253300Y0061149D01*
X0263300Y0061149D02*
X0265300Y0061149D01*
X0265322Y0062748D02*
X0263278Y0062748D01*
X0262510Y0064346D02*
X0266090Y0064346D01*
X0272510Y0064346D02*
X0276090Y0064346D01*
X0282510Y0064346D02*
X0286090Y0064346D01*
X0285322Y0062748D02*
X0283278Y0062748D01*
X0283300Y0061149D02*
X0285300Y0061149D01*
X0285300Y0059551D02*
X0283300Y0059551D01*
X0283300Y0057952D02*
X0285300Y0057952D01*
X0285300Y0056354D02*
X0283300Y0056354D01*
X0282824Y0054755D02*
X0285776Y0054755D01*
X0296100Y0054755D02*
X0322100Y0054755D01*
X0322207Y0056354D02*
X0315076Y0056354D01*
X0316200Y0057477D02*
X0313623Y0054900D01*
X0311800Y0054900D01*
X0311800Y0059300D01*
X0311800Y0059300D01*
X0311800Y0063700D01*
X0313623Y0063700D01*
X0316200Y0061123D01*
X0316200Y0059300D01*
X0311800Y0059300D01*
X0311800Y0059300D01*
X0311800Y0059300D01*
X0307400Y0059300D01*
X0307400Y0061123D01*
X0309977Y0063700D01*
X0311800Y0063700D01*
X0311800Y0059300D01*
X0316200Y0059300D01*
X0316200Y0057477D01*
X0316200Y0057952D02*
X0323806Y0057952D01*
X0329794Y0057952D02*
X0343806Y0057952D01*
X0349794Y0057952D02*
X0354744Y0057952D01*
X0354650Y0057725D02*
X0354650Y0055875D01*
X0355358Y0054166D01*
X0356666Y0052858D01*
X0358375Y0052150D01*
X0360225Y0052150D01*
X0361934Y0052858D01*
X0363242Y0054166D01*
X0363950Y0055875D01*
X0363950Y0057725D01*
X0363242Y0059434D01*
X0361934Y0060742D01*
X0360225Y0061450D01*
X0358375Y0061450D01*
X0356666Y0060742D01*
X0355358Y0059434D01*
X0354650Y0057725D01*
X0354650Y0056354D02*
X0351393Y0056354D01*
X0351500Y0054755D02*
X0355114Y0054755D01*
X0356367Y0053157D02*
X0351500Y0053157D01*
X0350705Y0051558D02*
X0374200Y0051558D01*
X0373655Y0052110D02*
X0373245Y0051873D01*
X0372787Y0051750D01*
X0369300Y0051750D01*
X0369300Y0056800D01*
X0374350Y0056800D01*
X0374350Y0060287D01*
X0374227Y0060745D01*
X0373990Y0061155D01*
X0373655Y0061490D01*
X0373245Y0061727D01*
X0372787Y0061850D01*
X0369300Y0061850D01*
X0369300Y0056800D01*
X0369300Y0056800D01*
X0369300Y0056800D01*
X0374350Y0056800D01*
X0374350Y0055062D01*
X0377188Y0057900D01*
X0381412Y0057900D01*
X0383800Y0055512D01*
X0383800Y0056078D01*
X0387022Y0059300D01*
X0389100Y0059300D01*
X0389100Y0054000D01*
X0389500Y0054000D01*
X0389500Y0059300D01*
X0391578Y0059300D01*
X0394800Y0056078D01*
X0394800Y0056078D01*
X0397022Y0058300D01*
X0399100Y0058300D01*
X0399100Y0053000D01*
X0399500Y0053000D01*
X0399500Y0058300D01*
X0401578Y0058300D01*
X0403800Y0056078D01*
X0403800Y0056078D01*
X0407022Y0059300D01*
X0409100Y0059300D01*
X0409100Y0054000D01*
X0409500Y0054000D01*
X0409500Y0059300D01*
X0411578Y0059300D01*
X0414800Y0056078D01*
X0414800Y0055512D01*
X0417188Y0057900D01*
X0421412Y0057900D01*
X0424400Y0054912D01*
X0424400Y0050688D01*
X0421512Y0047800D01*
X0424400Y0044912D01*
X0424400Y0040688D01*
X0421412Y0037700D01*
X0417188Y0037700D01*
X0414200Y0040688D01*
X0414200Y0040922D01*
X0411578Y0038300D01*
X0409500Y0038300D01*
X0409500Y0043600D01*
X0409100Y0043600D01*
X0409100Y0038300D01*
X0407022Y0038300D01*
X0404800Y0040522D01*
X0404800Y0040522D01*
X0401578Y0037300D01*
X0399500Y0037300D01*
X0399500Y0042600D01*
X0399100Y0042600D01*
X0399100Y0037300D01*
X0397022Y0037300D01*
X0393800Y0040522D01*
X0393800Y0040522D01*
X0391578Y0038300D01*
X0389500Y0038300D01*
X0389500Y0043600D01*
X0389100Y0043600D01*
X0389100Y0038300D01*
X0387022Y0038300D01*
X0384400Y0040922D01*
X0384400Y0040688D01*
X0381412Y0037700D01*
X0377188Y0037700D01*
X0374200Y0040688D01*
X0374200Y0044912D01*
X0377088Y0047800D01*
X0374200Y0050688D01*
X0374200Y0052808D01*
X0373990Y0052445D01*
X0373655Y0052110D01*
X0369300Y0051750D02*
X0369300Y0056800D01*
X0369300Y0056800D01*
X0369300Y0056800D01*
X0364250Y0056800D01*
X0364250Y0060287D01*
X0364373Y0060745D01*
X0364610Y0061155D01*
X0364945Y0061490D01*
X0365355Y0061727D01*
X0365813Y0061850D01*
X0369300Y0061850D01*
X0369300Y0056800D01*
X0364250Y0056800D01*
X0364250Y0053313D01*
X0364373Y0052855D01*
X0364610Y0052445D01*
X0364945Y0052110D01*
X0365355Y0051873D01*
X0365813Y0051750D01*
X0369300Y0051750D01*
X0369300Y0053157D02*
X0369300Y0053157D01*
X0364292Y0053157D02*
X0362233Y0053157D01*
X0363486Y0054755D02*
X0364250Y0054755D01*
X0364250Y0056354D02*
X0363950Y0056354D01*
X0369300Y0056354D02*
X0369300Y0056354D01*
X0369300Y0054755D02*
X0369300Y0054755D01*
X0374350Y0056354D02*
X0375641Y0056354D01*
X0382959Y0056354D02*
X0384076Y0056354D01*
X0389100Y0056354D02*
X0389500Y0056354D01*
X0389500Y0054755D02*
X0389100Y0054755D01*
X0394524Y0056354D02*
X0395076Y0056354D01*
X0399100Y0056354D02*
X0399500Y0056354D01*
X0399500Y0054755D02*
X0399100Y0054755D01*
X0403524Y0056354D02*
X0404076Y0056354D01*
X0409100Y0056354D02*
X0409500Y0056354D01*
X0409500Y0054755D02*
X0409100Y0054755D01*
X0414524Y0056354D02*
X0415641Y0056354D01*
X0422959Y0056354D02*
X0426210Y0056354D01*
X0426210Y0054755D02*
X0424400Y0054755D01*
X0424400Y0053157D02*
X0426210Y0053157D01*
X0426210Y0051558D02*
X0424400Y0051558D01*
X0423672Y0049960D02*
X0426210Y0049960D01*
X0426210Y0048361D02*
X0422074Y0048361D01*
X0422550Y0046763D02*
X0426210Y0046763D01*
X0426210Y0045164D02*
X0424148Y0045164D01*
X0424400Y0043566D02*
X0426210Y0043566D01*
X0426210Y0041967D02*
X0424400Y0041967D01*
X0424081Y0040369D02*
X0426210Y0040369D01*
X0426210Y0038770D02*
X0422483Y0038770D01*
X0416117Y0038770D02*
X0412048Y0038770D01*
X0409500Y0038770D02*
X0409100Y0038770D01*
X0406552Y0038770D02*
X0403048Y0038770D01*
X0399500Y0038770D02*
X0399100Y0038770D01*
X0395552Y0038770D02*
X0392048Y0038770D01*
X0389500Y0038770D02*
X0389100Y0038770D01*
X0386552Y0038770D02*
X0382483Y0038770D01*
X0376117Y0038770D02*
X0371650Y0038770D01*
X0371947Y0038619D02*
X0371239Y0038980D01*
X0370483Y0039226D01*
X0369697Y0039350D01*
X0369300Y0039350D01*
X0369300Y0034300D01*
X0374350Y0034300D01*
X0374350Y0034697D01*
X0374226Y0035483D01*
X0373980Y0036239D01*
X0373619Y0036947D01*
X0373152Y0037590D01*
X0372590Y0038152D01*
X0371947Y0038619D01*
X0369300Y0038770D02*
X0369300Y0038770D01*
X0369300Y0039350D02*
X0368903Y0039350D01*
X0368117Y0039226D01*
X0367361Y0038980D01*
X0366653Y0038619D01*
X0366010Y0038152D01*
X0365448Y0037590D01*
X0364981Y0036947D01*
X0364620Y0036239D01*
X0364374Y0035483D01*
X0364250Y0034697D01*
X0364250Y0034300D01*
X0369300Y0034300D01*
X0369300Y0034300D01*
X0369300Y0034300D01*
X0374350Y0034300D01*
X0374350Y0033903D01*
X0374226Y0033117D01*
X0373980Y0032361D01*
X0373619Y0031653D01*
X0373152Y0031010D01*
X0372590Y0030448D01*
X0371947Y0029981D01*
X0371239Y0029620D01*
X0370483Y0029374D01*
X0369697Y0029250D01*
X0369300Y0029250D01*
X0369300Y0034300D01*
X0369300Y0034300D01*
X0369300Y0034300D01*
X0369300Y0039350D01*
X0366950Y0038770D02*
X0363310Y0038770D01*
X0363130Y0038950D02*
X0355470Y0038950D01*
X0354650Y0038130D01*
X0354650Y0030470D01*
X0355470Y0029650D01*
X0363130Y0029650D01*
X0363950Y0030470D01*
X0363950Y0038130D01*
X0363130Y0038950D01*
X0363950Y0037172D02*
X0365144Y0037172D01*
X0364404Y0035573D02*
X0363950Y0035573D01*
X0369300Y0035573D02*
X0369300Y0035573D01*
X0369300Y0037172D02*
X0369300Y0037172D01*
X0373456Y0037172D02*
X0426210Y0037172D01*
X0426210Y0035573D02*
X0374196Y0035573D01*
X0374350Y0033975D02*
X0426210Y0033975D01*
X0426210Y0032376D02*
X0373985Y0032376D01*
X0369300Y0032376D02*
X0369300Y0032376D01*
X0366010Y0030448D02*
X0365448Y0031010D01*
X0364981Y0031653D01*
X0364620Y0032361D01*
X0364374Y0033117D01*
X0364250Y0033903D01*
X0364250Y0034300D01*
X0369300Y0034300D01*
X0369300Y0029250D01*
X0368903Y0029250D01*
X0368117Y0029374D01*
X0367361Y0029620D01*
X0366653Y0029981D01*
X0366010Y0030448D01*
X0365681Y0030778D02*
X0363950Y0030778D01*
X0369300Y0030778D02*
X0369300Y0030778D01*
X0372919Y0030778D02*
X0378598Y0030778D01*
X0378478Y0030690D02*
X0377910Y0030122D01*
X0377438Y0029473D01*
X0377074Y0028758D01*
X0376826Y0027994D01*
X0376700Y0027201D01*
X0376700Y0027100D01*
X0381500Y0027100D01*
X0381500Y0031900D01*
X0381399Y0031900D01*
X0380606Y0031774D01*
X0379842Y0031526D01*
X0379127Y0031162D01*
X0378478Y0030690D01*
X0377288Y0029179D02*
X0336213Y0029179D01*
X0335129Y0030778D02*
X0354650Y0030778D01*
X0354650Y0032376D02*
X0333619Y0032376D01*
X0331200Y0033975D02*
X0354650Y0033975D01*
X0354650Y0035573D02*
X0313730Y0035573D01*
X0315329Y0037172D02*
X0354650Y0037172D01*
X0355290Y0038770D02*
X0315800Y0038770D01*
X0307800Y0038770D02*
X0306316Y0038770D01*
X0301225Y0038770D02*
X0286100Y0038770D01*
X0282500Y0038770D02*
X0266100Y0038770D01*
X0262500Y0038770D02*
X0261500Y0038770D01*
X0257100Y0038770D02*
X0256077Y0038770D01*
X0252523Y0038770D02*
X0236100Y0038770D01*
X0232500Y0038770D02*
X0109427Y0038770D01*
X0108457Y0037800D02*
X0105143Y0037800D01*
X0102800Y0040143D01*
X0102800Y0043457D01*
X0105143Y0045800D01*
X0108457Y0045800D01*
X0110800Y0043457D01*
X0110800Y0040143D01*
X0108457Y0037800D01*
X0104173Y0038770D02*
X0099427Y0038770D01*
X0098457Y0037800D02*
X0095143Y0037800D01*
X0092800Y0040143D01*
X0092800Y0043457D01*
X0095143Y0045800D01*
X0098457Y0045800D01*
X0100800Y0043457D01*
X0100800Y0040143D01*
X0098457Y0037800D01*
X0094173Y0038770D02*
X0091100Y0038770D01*
X0087500Y0038770D02*
X0056100Y0038770D01*
X0056100Y0038748D02*
X0056100Y0060443D01*
X0058300Y0062643D01*
X0058300Y0065957D01*
X0055957Y0068300D01*
X0052643Y0068300D01*
X0050300Y0065957D01*
X0050300Y0062643D01*
X0052500Y0060443D01*
X0052500Y0038748D01*
X0052053Y0038301D01*
X0051650Y0037327D01*
X0051650Y0036273D01*
X0052053Y0035299D01*
X0052799Y0034553D01*
X0053773Y0034150D01*
X0054827Y0034150D01*
X0055801Y0034553D01*
X0056547Y0035299D01*
X0056950Y0036273D01*
X0056950Y0037327D01*
X0056547Y0038301D01*
X0056100Y0038748D01*
X0052500Y0038770D02*
X0031300Y0038770D01*
X0027300Y0038770D02*
X0008650Y0038770D01*
X0008650Y0037172D02*
X0027300Y0037172D01*
X0027300Y0035573D02*
X0008650Y0035573D01*
X0008650Y0033975D02*
X0027300Y0033975D01*
X0031300Y0033975D02*
X0118318Y0033975D01*
X0117800Y0033457D02*
X0117800Y0030143D01*
X0120143Y0027800D01*
X0123457Y0027800D01*
X0125800Y0030143D01*
X0125800Y0033457D01*
X0123457Y0035800D01*
X0120143Y0035800D01*
X0117800Y0033457D01*
X0117800Y0032376D02*
X0086881Y0032376D01*
X0081719Y0032376D02*
X0078300Y0032376D01*
X0070300Y0032376D02*
X0048300Y0032376D01*
X0040300Y0032376D02*
X0036881Y0032376D01*
X0031719Y0032376D02*
X0031300Y0032376D01*
X0027300Y0032376D02*
X0008650Y0032376D01*
X0008650Y0030778D02*
X0027300Y0030778D01*
X0027300Y0029179D02*
X0008650Y0029179D01*
X0008650Y0027581D02*
X0027300Y0027581D01*
X0037917Y0027581D02*
X0040300Y0027581D01*
X0048300Y0027581D02*
X0051924Y0027581D01*
X0056676Y0027581D02*
X0061924Y0027581D01*
X0066676Y0027581D02*
X0070300Y0027581D01*
X0078300Y0027581D02*
X0080683Y0027581D01*
X0087917Y0027581D02*
X0130362Y0027581D01*
X0130300Y0029179D02*
X0124836Y0029179D01*
X0125800Y0030778D02*
X0130300Y0030778D01*
X0138300Y0030778D02*
X0142500Y0030778D01*
X0142476Y0032376D02*
X0136881Y0032376D01*
X0131719Y0032376D02*
X0125800Y0032376D01*
X0125282Y0033975D02*
X0141650Y0033975D01*
X0146950Y0033975D02*
X0162752Y0033975D01*
X0166800Y0033975D02*
X0166800Y0033975D01*
X0170848Y0033975D02*
X0183318Y0033975D01*
X0190282Y0033975D02*
X0203318Y0033975D01*
X0202800Y0033457D02*
X0202800Y0030143D01*
X0205143Y0027800D01*
X0208457Y0027800D01*
X0210800Y0030143D01*
X0210800Y0033457D01*
X0208457Y0035800D01*
X0205143Y0035800D01*
X0202800Y0033457D01*
X0202800Y0032376D02*
X0199381Y0032376D01*
X0194219Y0032376D02*
X0190800Y0032376D01*
X0182800Y0032376D02*
X0179946Y0032376D01*
X0176800Y0032376D02*
X0176800Y0032376D01*
X0173654Y0032376D02*
X0171200Y0032376D01*
X0166800Y0032376D02*
X0166800Y0032376D01*
X0162400Y0032376D02*
X0159381Y0032376D01*
X0154219Y0032376D02*
X0146124Y0032376D01*
X0146641Y0035573D02*
X0164351Y0035573D01*
X0166800Y0035573D02*
X0166800Y0035573D01*
X0169249Y0035573D02*
X0184916Y0035573D01*
X0188684Y0035573D02*
X0204916Y0035573D01*
X0208684Y0035573D02*
X0214351Y0035573D01*
X0214977Y0036200D02*
X0212400Y0033623D01*
X0212400Y0031800D01*
X0216800Y0031800D01*
X0216800Y0031800D01*
X0216800Y0036200D01*
X0218623Y0036200D01*
X0221200Y0033623D01*
X0221200Y0031800D01*
X0216800Y0031800D01*
X0216800Y0031800D01*
X0216800Y0031800D01*
X0216800Y0036200D01*
X0214977Y0036200D01*
X0216800Y0035573D02*
X0216800Y0035573D01*
X0219249Y0035573D02*
X0227715Y0035573D01*
X0230885Y0035573D02*
X0232500Y0035573D01*
X0232500Y0037172D02*
X0091950Y0037172D01*
X0091660Y0035573D02*
X0119916Y0035573D01*
X0123684Y0035573D02*
X0141959Y0035573D01*
X0117800Y0030778D02*
X0088017Y0030778D01*
X0088300Y0029179D02*
X0118764Y0029179D01*
X0086940Y0035573D02*
X0056660Y0035573D01*
X0056950Y0037172D02*
X0086650Y0037172D01*
X0087500Y0040369D02*
X0056100Y0040369D01*
X0052500Y0040369D02*
X0031300Y0040369D01*
X0027300Y0040369D02*
X0008650Y0040369D01*
X0008650Y0041967D02*
X0027300Y0041967D01*
X0027300Y0043566D02*
X0008650Y0043566D01*
X0008650Y0045164D02*
X0027300Y0045164D01*
X0031300Y0045164D02*
X0052500Y0045164D01*
X0056100Y0045164D02*
X0066650Y0045164D01*
X0071950Y0045164D02*
X0087500Y0045164D01*
X0091100Y0045164D02*
X0094507Y0045164D01*
X0097400Y0047477D02*
X0099977Y0044900D01*
X0101800Y0044900D01*
X0101800Y0049300D01*
X0101800Y0049300D01*
X0101800Y0049300D01*
X0097400Y0049300D01*
X0097400Y0051123D01*
X0099977Y0053700D01*
X0101800Y0053700D01*
X0101800Y0049300D01*
X0097400Y0049300D01*
X0097400Y0047477D01*
X0097400Y0048361D02*
X0091100Y0048361D01*
X0091100Y0049960D02*
X0097400Y0049960D01*
X0101800Y0049960D02*
X0101800Y0049960D01*
X0101800Y0048361D02*
X0101800Y0048361D01*
X0106200Y0049960D02*
X0117983Y0049960D01*
X0117800Y0051558D02*
X0105764Y0051558D01*
X0101800Y0051558D02*
X0101800Y0051558D01*
X0097836Y0051558D02*
X0091100Y0051558D01*
X0087500Y0051558D02*
X0071100Y0051558D01*
X0067500Y0051558D02*
X0056100Y0051558D01*
X0052500Y0051558D02*
X0031300Y0051558D01*
X0027300Y0051558D02*
X0008650Y0051558D01*
X0008650Y0049960D02*
X0027300Y0049960D01*
X0027300Y0048361D02*
X0008650Y0048361D01*
X0008650Y0046763D02*
X0027300Y0046763D01*
X0031300Y0046763D02*
X0052500Y0046763D01*
X0056100Y0046763D02*
X0066934Y0046763D01*
X0071666Y0046763D02*
X0087500Y0046763D01*
X0091100Y0046763D02*
X0098115Y0046763D01*
X0101800Y0046763D02*
X0101800Y0046763D01*
X0101800Y0045164D02*
X0101800Y0045164D01*
X0103887Y0045164D02*
X0104507Y0045164D01*
X0109093Y0045164D02*
X0214150Y0045164D01*
X0215037Y0043566D02*
X0110691Y0043566D01*
X0110800Y0041967D02*
X0232500Y0041967D01*
X0232500Y0043566D02*
X0218563Y0043566D01*
X0232500Y0040369D02*
X0110800Y0040369D01*
X0102800Y0040369D02*
X0100800Y0040369D01*
X0092800Y0040369D02*
X0091100Y0040369D01*
X0091100Y0041967D02*
X0092800Y0041967D01*
X0092909Y0043566D02*
X0091100Y0043566D01*
X0087500Y0043566D02*
X0071063Y0043566D01*
X0067537Y0043566D02*
X0056100Y0043566D01*
X0056100Y0041967D02*
X0087500Y0041967D01*
X0100691Y0043566D02*
X0102909Y0043566D01*
X0102800Y0041967D02*
X0100800Y0041967D01*
X0099713Y0045164D02*
X0099093Y0045164D01*
X0087500Y0048361D02*
X0071100Y0048361D01*
X0071100Y0049960D02*
X0087500Y0049960D01*
X0087500Y0053157D02*
X0071100Y0053157D01*
X0067500Y0053157D02*
X0056100Y0053157D01*
X0052500Y0053157D02*
X0031300Y0053157D01*
X0027300Y0053157D02*
X0008650Y0053157D01*
X0008650Y0054755D02*
X0027300Y0054755D01*
X0028525Y0056354D02*
X0008650Y0056354D01*
X0008650Y0057952D02*
X0030124Y0057952D01*
X0038300Y0057952D02*
X0040111Y0057952D01*
X0040008Y0058270D02*
X0040222Y0057611D01*
X0040537Y0056994D01*
X0040944Y0056434D01*
X0041434Y0055944D01*
X0041994Y0055537D01*
X0042611Y0055222D01*
X0043270Y0055008D01*
X0043954Y0054900D01*
X0044300Y0054900D01*
X0044646Y0054900D01*
X0045330Y0055008D01*
X0045989Y0055222D01*
X0046606Y0055537D01*
X0047166Y0055944D01*
X0047656Y0056434D01*
X0048063Y0056994D01*
X0048378Y0057611D01*
X0048592Y0058270D01*
X0048700Y0058954D01*
X0048700Y0059300D01*
X0048700Y0059646D01*
X0048592Y0060330D01*
X0048378Y0060989D01*
X0048063Y0061606D01*
X0047656Y0062166D01*
X0047166Y0062656D01*
X0046606Y0063063D01*
X0045989Y0063378D01*
X0045330Y0063592D01*
X0044646Y0063700D01*
X0044300Y0063700D01*
X0044300Y0059300D01*
X0044300Y0059300D01*
X0048700Y0059300D01*
X0044300Y0059300D01*
X0044300Y0059300D01*
X0044300Y0059300D01*
X0039900Y0059300D01*
X0039900Y0059646D01*
X0040008Y0060330D01*
X0040222Y0060989D01*
X0040537Y0061606D01*
X0040944Y0062166D01*
X0041434Y0062656D01*
X0041994Y0063063D01*
X0042611Y0063378D01*
X0043270Y0063592D01*
X0043954Y0063700D01*
X0044300Y0063700D01*
X0044300Y0059300D01*
X0044300Y0054900D01*
X0044300Y0059300D01*
X0044300Y0059300D01*
X0039900Y0059300D01*
X0039900Y0058954D01*
X0040008Y0058270D01*
X0044300Y0057952D02*
X0044300Y0057952D01*
X0048489Y0057952D02*
X0052500Y0057952D01*
X0056100Y0057952D02*
X0067500Y0057952D01*
X0067500Y0056354D02*
X0056100Y0056354D01*
X0056100Y0054755D02*
X0067500Y0054755D01*
X0071100Y0054755D02*
X0086299Y0054755D01*
X0089792Y0056354D02*
X0131589Y0056354D01*
X0137011Y0056354D02*
X0154089Y0056354D01*
X0159511Y0056354D02*
X0174089Y0056354D01*
X0164098Y0054755D02*
X0124501Y0054755D01*
X0119098Y0054755D02*
X0091100Y0054755D01*
X0091100Y0053157D02*
X0099434Y0053157D01*
X0101800Y0053157D02*
X0101800Y0053157D01*
X0104166Y0053157D02*
X0117800Y0053157D01*
X0125800Y0053157D02*
X0162800Y0053157D01*
X0162800Y0051558D02*
X0125800Y0051558D01*
X0125617Y0049960D02*
X0162983Y0049960D01*
X0189501Y0054755D02*
X0204098Y0054755D01*
X0210800Y0053157D02*
X0212800Y0053157D01*
X0212800Y0051558D02*
X0210800Y0051558D01*
X0210617Y0049960D02*
X0212983Y0049960D01*
X0214582Y0048361D02*
X0209018Y0048361D01*
X0219018Y0048361D02*
X0232500Y0048361D01*
X0231676Y0049960D02*
X0220617Y0049960D01*
X0236100Y0048361D02*
X0252100Y0048361D01*
X0252100Y0049960D02*
X0236924Y0049960D01*
X0256500Y0049960D02*
X0261676Y0049960D01*
X0262500Y0048361D02*
X0256500Y0048361D01*
X0256666Y0046763D02*
X0262500Y0046763D01*
X0266100Y0046763D02*
X0279292Y0046763D01*
X0284383Y0046763D02*
X0293501Y0046763D01*
X0295099Y0046763D02*
X0338897Y0046763D01*
X0343397Y0046763D02*
X0376050Y0046763D01*
X0376526Y0048361D02*
X0344596Y0048361D01*
X0341295Y0049960D02*
X0329107Y0049960D01*
X0324493Y0049960D02*
X0296895Y0049960D01*
X0296780Y0048361D02*
X0340096Y0048361D01*
X0349107Y0049960D02*
X0374928Y0049960D01*
X0389100Y0049960D02*
X0389500Y0049960D01*
X0389100Y0049300D02*
X0389100Y0044000D01*
X0389500Y0044000D01*
X0389500Y0053600D01*
X0389100Y0053600D01*
X0389100Y0049300D01*
X0389100Y0048361D02*
X0389500Y0048361D01*
X0389500Y0046763D02*
X0389100Y0046763D01*
X0389100Y0045164D02*
X0389500Y0045164D01*
X0389500Y0043566D02*
X0389100Y0043566D01*
X0389100Y0041967D02*
X0389500Y0041967D01*
X0389500Y0040369D02*
X0389100Y0040369D01*
X0384953Y0040369D02*
X0384081Y0040369D01*
X0374519Y0040369D02*
X0315800Y0040369D01*
X0314790Y0041967D02*
X0374200Y0041967D01*
X0374200Y0043566D02*
X0341100Y0043566D01*
X0342198Y0045164D02*
X0374452Y0045164D01*
X0399100Y0045164D02*
X0399500Y0045164D01*
X0399500Y0043566D02*
X0399100Y0043566D01*
X0399100Y0043000D02*
X0399100Y0048300D01*
X0399100Y0052600D01*
X0399500Y0052600D01*
X0399500Y0043000D01*
X0399100Y0043000D01*
X0399100Y0041967D02*
X0399500Y0041967D01*
X0399500Y0040369D02*
X0399100Y0040369D01*
X0393953Y0040369D02*
X0393647Y0040369D01*
X0404647Y0040369D02*
X0404953Y0040369D01*
X0409100Y0040369D02*
X0409500Y0040369D01*
X0413647Y0040369D02*
X0414519Y0040369D01*
X0409500Y0041967D02*
X0409100Y0041967D01*
X0409100Y0043566D02*
X0409500Y0043566D01*
X0409500Y0044000D02*
X0409100Y0044000D01*
X0409100Y0049300D01*
X0409100Y0053600D01*
X0409500Y0053600D01*
X0409500Y0044000D01*
X0409500Y0045164D02*
X0409100Y0045164D01*
X0409100Y0046763D02*
X0409500Y0046763D01*
X0409500Y0048361D02*
X0409100Y0048361D01*
X0409100Y0049960D02*
X0409500Y0049960D01*
X0409500Y0051558D02*
X0409100Y0051558D01*
X0409100Y0053157D02*
X0409500Y0053157D01*
X0399500Y0053157D02*
X0399100Y0053157D01*
X0399100Y0051558D02*
X0399500Y0051558D01*
X0399500Y0049960D02*
X0399100Y0049960D01*
X0399100Y0048361D02*
X0399500Y0048361D01*
X0399500Y0046763D02*
X0399100Y0046763D01*
X0389500Y0051558D02*
X0389100Y0051558D01*
X0389100Y0053157D02*
X0389500Y0053157D01*
X0389500Y0057952D02*
X0389100Y0057952D01*
X0385674Y0057952D02*
X0374350Y0057952D01*
X0369300Y0057952D02*
X0369300Y0057952D01*
X0364250Y0057952D02*
X0363856Y0057952D01*
X0364250Y0059551D02*
X0363125Y0059551D01*
X0369300Y0059551D02*
X0369300Y0059551D01*
X0374350Y0059551D02*
X0379912Y0059551D01*
X0379842Y0059574D02*
X0380606Y0059326D01*
X0381399Y0059200D01*
X0381500Y0059200D01*
X0381500Y0064000D01*
X0382100Y0064000D01*
X0382100Y0064600D01*
X0386900Y0064600D01*
X0386900Y0064701D01*
X0386774Y0065494D01*
X0386526Y0066258D01*
X0386162Y0066973D01*
X0385690Y0067622D01*
X0385122Y0068190D01*
X0384473Y0068662D01*
X0383758Y0069026D01*
X0382994Y0069274D01*
X0382201Y0069400D01*
X0382100Y0069400D01*
X0382100Y0064600D01*
X0381500Y0064600D01*
X0381500Y0069400D01*
X0381399Y0069400D01*
X0380606Y0069274D01*
X0379842Y0069026D01*
X0379127Y0068662D01*
X0378478Y0068190D01*
X0377910Y0067622D01*
X0377438Y0066973D01*
X0377074Y0066258D01*
X0376826Y0065494D01*
X0376700Y0064701D01*
X0376700Y0064600D01*
X0381500Y0064600D01*
X0381500Y0064000D01*
X0376700Y0064000D01*
X0376700Y0063899D01*
X0376826Y0063106D01*
X0377074Y0062342D01*
X0377438Y0061627D01*
X0377910Y0060978D01*
X0378478Y0060410D01*
X0379127Y0059938D01*
X0379842Y0059574D01*
X0381500Y0059551D02*
X0382100Y0059551D01*
X0382100Y0059200D02*
X0382201Y0059200D01*
X0382994Y0059326D01*
X0383758Y0059574D01*
X0384473Y0059938D01*
X0385122Y0060410D01*
X0385690Y0060978D01*
X0386162Y0061627D01*
X0386526Y0062342D01*
X0386774Y0063106D01*
X0386900Y0063899D01*
X0386900Y0064000D01*
X0382100Y0064000D01*
X0382100Y0059200D01*
X0383688Y0059551D02*
X0426210Y0059551D01*
X0426210Y0061149D02*
X0425296Y0061149D01*
X0418304Y0061149D02*
X0385815Y0061149D01*
X0386658Y0062748D02*
X0417356Y0062748D01*
X0417100Y0064346D02*
X0382100Y0064346D01*
X0381500Y0064346D02*
X0341500Y0064346D01*
X0341500Y0062748D02*
X0376942Y0062748D01*
X0377785Y0061149D02*
X0373994Y0061149D01*
X0369300Y0061149D02*
X0369300Y0061149D01*
X0364606Y0061149D02*
X0360951Y0061149D01*
X0357649Y0061149D02*
X0340296Y0061149D01*
X0341500Y0062353D02*
X0338747Y0059600D01*
X0334853Y0059600D01*
X0332100Y0062353D01*
X0332100Y0066247D01*
X0334853Y0069000D01*
X0338747Y0069000D01*
X0341500Y0066247D01*
X0341500Y0062353D01*
X0333304Y0061149D02*
X0316173Y0061149D01*
X0314575Y0062748D02*
X0332100Y0062748D01*
X0332100Y0064346D02*
X0296100Y0064346D01*
X0297400Y0061123D02*
X0299977Y0063700D01*
X0301800Y0063700D01*
X0301800Y0059300D01*
X0301800Y0059300D01*
X0306200Y0059300D01*
X0306200Y0061123D01*
X0303623Y0063700D01*
X0301800Y0063700D01*
X0301800Y0059300D01*
X0301800Y0059300D01*
X0301800Y0059300D01*
X0297400Y0059300D01*
X0297400Y0061123D01*
X0297427Y0061149D02*
X0296100Y0061149D01*
X0296100Y0062748D02*
X0299025Y0062748D01*
X0301800Y0062748D02*
X0301800Y0062748D01*
X0301800Y0061149D02*
X0301800Y0061149D01*
X0304575Y0062748D02*
X0309025Y0062748D01*
X0307427Y0061149D02*
X0306173Y0061149D01*
X0311800Y0061149D02*
X0311800Y0061149D01*
X0311800Y0062748D02*
X0311800Y0062748D01*
X0311800Y0059551D02*
X0311800Y0059551D01*
X0311800Y0059300D02*
X0307400Y0059300D01*
X0307400Y0057477D01*
X0309977Y0054900D01*
X0311800Y0054900D01*
X0311800Y0059300D01*
X0311800Y0059300D01*
X0316200Y0059551D02*
X0355475Y0059551D01*
X0342207Y0056354D02*
X0331393Y0056354D01*
X0331500Y0054755D02*
X0342100Y0054755D01*
X0342100Y0053157D02*
X0331500Y0053157D01*
X0330705Y0051558D02*
X0342494Y0051558D01*
X0311800Y0056354D02*
X0311800Y0056354D01*
X0308524Y0056354D02*
X0305076Y0056354D01*
X0306200Y0057477D02*
X0303623Y0054900D01*
X0301800Y0054900D01*
X0301800Y0059300D01*
X0306200Y0059300D01*
X0306200Y0057477D01*
X0306200Y0057952D02*
X0307400Y0057952D01*
X0311800Y0057952D02*
X0311800Y0057952D01*
X0307400Y0059551D02*
X0306200Y0059551D01*
X0301800Y0059551D02*
X0301800Y0059551D01*
X0301800Y0059300D02*
X0297400Y0059300D01*
X0297400Y0057477D01*
X0299977Y0054900D01*
X0301800Y0054900D01*
X0301800Y0059300D01*
X0301800Y0059300D01*
X0297400Y0059551D02*
X0296100Y0059551D01*
X0296100Y0057952D02*
X0297400Y0057952D01*
X0301800Y0057952D02*
X0301800Y0057952D01*
X0301800Y0056354D02*
X0301800Y0056354D01*
X0298524Y0056354D02*
X0296100Y0056354D01*
X0275300Y0056354D02*
X0274792Y0056354D01*
X0265776Y0054755D02*
X0262824Y0054755D01*
X0263300Y0056354D02*
X0265300Y0056354D01*
X0265300Y0057952D02*
X0263300Y0057952D01*
X0254841Y0057952D02*
X0253300Y0057952D01*
X0245300Y0057952D02*
X0243300Y0057952D01*
X0243300Y0056354D02*
X0245300Y0056354D01*
X0245776Y0054755D02*
X0242824Y0054755D01*
X0235776Y0054755D02*
X0232824Y0054755D01*
X0233300Y0056354D02*
X0235300Y0056354D01*
X0235300Y0057952D02*
X0233300Y0057952D01*
X0233300Y0059551D02*
X0235300Y0059551D01*
X0235300Y0061149D02*
X0233300Y0061149D01*
X0233278Y0062748D02*
X0235322Y0062748D01*
X0236090Y0064346D02*
X0232510Y0064346D01*
X0226090Y0064346D02*
X0184392Y0064346D01*
X0179301Y0064346D02*
X0071100Y0064346D01*
X0071100Y0062748D02*
X0071560Y0062748D01*
X0074300Y0062748D02*
X0074300Y0062748D01*
X0074300Y0061149D02*
X0074300Y0061149D01*
X0077040Y0062748D02*
X0080568Y0062748D01*
X0080300Y0061149D02*
X0078296Y0061149D01*
X0088032Y0062748D02*
X0132091Y0062748D01*
X0130493Y0061149D02*
X0088300Y0061149D01*
X0067500Y0061149D02*
X0066806Y0061149D01*
X0061794Y0061149D02*
X0056806Y0061149D01*
X0058300Y0062748D02*
X0060300Y0062748D01*
X0051794Y0061149D02*
X0048296Y0061149D01*
X0047040Y0062748D02*
X0050300Y0062748D01*
X0044300Y0062748D02*
X0044300Y0062748D01*
X0044300Y0061149D02*
X0044300Y0061149D01*
X0041560Y0062748D02*
X0038032Y0062748D01*
X0038300Y0061149D02*
X0040304Y0061149D01*
X0039900Y0059551D02*
X0038300Y0059551D01*
X0044300Y0059551D02*
X0044300Y0059551D01*
X0048700Y0059551D02*
X0052500Y0059551D01*
X0056100Y0059551D02*
X0067500Y0059551D01*
X0074300Y0056354D02*
X0074300Y0056354D01*
X0077576Y0056354D02*
X0080300Y0056354D01*
X0052500Y0056354D02*
X0047576Y0056354D01*
X0044300Y0056354D02*
X0044300Y0056354D01*
X0041024Y0056354D02*
X0038300Y0056354D01*
X0032584Y0054755D02*
X0052500Y0054755D01*
X0030300Y0059551D02*
X0008650Y0059551D01*
X0008650Y0061149D02*
X0030300Y0061149D01*
X0030568Y0062748D02*
X0008650Y0062748D01*
X0008650Y0064346D02*
X0050300Y0064346D01*
X0050300Y0065945D02*
X0008650Y0065945D01*
X0008650Y0067543D02*
X0051887Y0067543D01*
X0056713Y0067543D02*
X0061887Y0067543D01*
X0066713Y0067543D02*
X0067500Y0067543D01*
X0067500Y0069142D02*
X0008650Y0069142D01*
X0011837Y0070280D02*
X0012496Y0069944D01*
X0013199Y0069716D01*
X0013930Y0069600D01*
X0014150Y0069600D01*
X0014150Y0074150D01*
X0009600Y0074150D01*
X0009600Y0073930D01*
X0009716Y0073199D01*
X0009944Y0072496D01*
X0010280Y0071837D01*
X0010715Y0071238D01*
X0011238Y0070715D01*
X0011837Y0070280D01*
X0011213Y0070740D02*
X0008650Y0070740D01*
X0014150Y0070740D02*
X0014450Y0070740D01*
X0014450Y0069600D02*
X0014670Y0069600D01*
X0015401Y0069716D01*
X0016104Y0069944D01*
X0016763Y0070280D01*
X0017362Y0070715D01*
X0017885Y0071238D01*
X0018320Y0071837D01*
X0018656Y0072496D01*
X0018884Y0073199D01*
X0019000Y0073930D01*
X0019000Y0074150D01*
X0014450Y0074150D01*
X0014450Y0074450D01*
X0014150Y0074450D01*
X0014150Y0079000D01*
X0013930Y0079000D01*
X0013199Y0078884D01*
X0012496Y0078656D01*
X0011837Y0078320D01*
X0011238Y0077885D01*
X0010715Y0077362D01*
X0010280Y0076763D01*
X0009944Y0076104D01*
X0009716Y0075401D01*
X0009600Y0074670D01*
X0009600Y0074450D01*
X0014150Y0074450D01*
X0014150Y0074150D01*
X0014450Y0074150D01*
X0014450Y0069600D01*
X0017387Y0070740D02*
X0021778Y0070740D01*
X0021864Y0070655D02*
X0023445Y0070000D01*
X0025155Y0070000D01*
X0026736Y0070655D01*
X0027945Y0071864D01*
X0028600Y0073445D01*
X0028600Y0075155D01*
X0027945Y0076736D01*
X0026736Y0077945D01*
X0025155Y0078600D01*
X0023445Y0078600D01*
X0021864Y0077945D01*
X0020655Y0076736D01*
X0020000Y0075155D01*
X0020000Y0073445D01*
X0020655Y0071864D01*
X0021864Y0070655D01*
X0026822Y0070740D02*
X0031778Y0070740D01*
X0031864Y0070655D02*
X0033445Y0070000D01*
X0035155Y0070000D01*
X0036736Y0070655D01*
X0037945Y0071864D01*
X0038600Y0073445D01*
X0038600Y0075155D01*
X0037945Y0076736D01*
X0036736Y0077945D01*
X0035155Y0078600D01*
X0033445Y0078600D01*
X0031864Y0077945D01*
X0030655Y0076736D01*
X0030000Y0075155D01*
X0030000Y0073445D01*
X0030655Y0071864D01*
X0031864Y0070655D01*
X0036822Y0070740D02*
X0041778Y0070740D01*
X0041864Y0070655D02*
X0043445Y0070000D01*
X0045155Y0070000D01*
X0046736Y0070655D01*
X0047945Y0071864D01*
X0048600Y0073445D01*
X0048600Y0075155D01*
X0047945Y0076736D01*
X0046736Y0077945D01*
X0045155Y0078600D01*
X0043445Y0078600D01*
X0041864Y0077945D01*
X0040655Y0076736D01*
X0040000Y0075155D01*
X0040000Y0073445D01*
X0040655Y0071864D01*
X0041864Y0070655D01*
X0046822Y0070740D02*
X0051778Y0070740D01*
X0051864Y0070655D02*
X0053445Y0070000D01*
X0055155Y0070000D01*
X0056736Y0070655D01*
X0057945Y0071864D01*
X0058600Y0073445D01*
X0058600Y0075155D01*
X0057945Y0076736D01*
X0056736Y0077945D01*
X0055155Y0078600D01*
X0053445Y0078600D01*
X0051864Y0077945D01*
X0050655Y0076736D01*
X0050000Y0075155D01*
X0050000Y0073445D01*
X0050655Y0071864D01*
X0051864Y0070655D01*
X0056822Y0070740D02*
X0061778Y0070740D01*
X0061864Y0070655D02*
X0063445Y0070000D01*
X0065155Y0070000D01*
X0066736Y0070655D01*
X0067945Y0071864D01*
X0068600Y0073445D01*
X0068600Y0075155D01*
X0067945Y0076736D01*
X0066736Y0077945D01*
X0065155Y0078600D01*
X0063445Y0078600D01*
X0061864Y0077945D01*
X0060655Y0076736D01*
X0060000Y0075155D01*
X0060000Y0073445D01*
X0060655Y0071864D01*
X0061864Y0070655D01*
X0066822Y0070740D02*
X0068195Y0070740D01*
X0076822Y0070740D02*
X0081778Y0070740D01*
X0081864Y0070655D02*
X0083445Y0070000D01*
X0085155Y0070000D01*
X0086736Y0070655D01*
X0087945Y0071864D01*
X0088600Y0073445D01*
X0088600Y0075155D01*
X0087945Y0076736D01*
X0086736Y0077945D01*
X0085155Y0078600D01*
X0083445Y0078600D01*
X0081864Y0077945D01*
X0080655Y0076736D01*
X0080000Y0075155D01*
X0080000Y0073445D01*
X0080655Y0071864D01*
X0081864Y0070655D01*
X0086822Y0070740D02*
X0091778Y0070740D01*
X0091864Y0070655D02*
X0093445Y0070000D01*
X0095155Y0070000D01*
X0096736Y0070655D01*
X0097945Y0071864D01*
X0098600Y0073445D01*
X0098600Y0075155D01*
X0097945Y0076736D01*
X0096736Y0077945D01*
X0095155Y0078600D01*
X0093445Y0078600D01*
X0091864Y0077945D01*
X0090655Y0076736D01*
X0090000Y0075155D01*
X0090000Y0073445D01*
X0090655Y0071864D01*
X0091864Y0070655D01*
X0096822Y0070740D02*
X0101778Y0070740D01*
X0101864Y0070655D02*
X0100655Y0071864D01*
X0100000Y0073445D01*
X0100000Y0075155D01*
X0100655Y0076736D01*
X0101864Y0077945D01*
X0103445Y0078600D01*
X0105155Y0078600D01*
X0106736Y0077945D01*
X0107945Y0076736D01*
X0108600Y0075155D01*
X0108600Y0073445D01*
X0107945Y0071864D01*
X0106736Y0070655D01*
X0105155Y0070000D01*
X0103445Y0070000D01*
X0101864Y0070655D01*
X0106822Y0070740D02*
X0111778Y0070740D01*
X0116822Y0070740D02*
X0121778Y0070740D01*
X0120458Y0072339D02*
X0118142Y0072339D01*
X0110458Y0072339D02*
X0108142Y0072339D01*
X0108600Y0073937D02*
X0110000Y0073937D01*
X0110158Y0075536D02*
X0108442Y0075536D01*
X0118442Y0075536D02*
X0120158Y0075536D01*
X0120000Y0073937D02*
X0118600Y0073937D01*
X0128442Y0075536D02*
X0130158Y0075536D01*
X0130000Y0073937D02*
X0128600Y0073937D01*
X0128807Y0072339D02*
X0130458Y0072339D01*
X0126912Y0069142D02*
X0071688Y0069142D01*
X0071100Y0067543D02*
X0128511Y0067543D01*
X0100458Y0072339D02*
X0098142Y0072339D01*
X0098600Y0073937D02*
X0100000Y0073937D01*
X0100158Y0075536D02*
X0098442Y0075536D01*
X0097547Y0077134D02*
X0101053Y0077134D01*
X0091053Y0077134D02*
X0087547Y0077134D01*
X0081053Y0077134D02*
X0077547Y0077134D01*
X0071053Y0077134D02*
X0067547Y0077134D01*
X0061053Y0077134D02*
X0057547Y0077134D01*
X0051053Y0077134D02*
X0047547Y0077134D01*
X0041053Y0077134D02*
X0037547Y0077134D01*
X0031053Y0077134D02*
X0027547Y0077134D01*
X0021053Y0077134D02*
X0018050Y0077134D01*
X0017885Y0077362D02*
X0017362Y0077885D01*
X0016763Y0078320D01*
X0016104Y0078656D01*
X0015401Y0078884D01*
X0014670Y0079000D01*
X0014450Y0079000D01*
X0014450Y0074450D01*
X0019000Y0074450D01*
X0019000Y0074670D01*
X0018884Y0075401D01*
X0018656Y0076104D01*
X0018320Y0076763D01*
X0017885Y0077362D01*
X0014450Y0077134D02*
X0014150Y0077134D01*
X0010550Y0077134D02*
X0008650Y0077134D01*
X0008650Y0075536D02*
X0009760Y0075536D01*
X0009600Y0073937D02*
X0008650Y0073937D01*
X0014150Y0073937D02*
X0014450Y0073937D01*
X0014450Y0075536D02*
X0014150Y0075536D01*
X0018840Y0075536D02*
X0020158Y0075536D01*
X0020000Y0073937D02*
X0019000Y0073937D01*
X0018576Y0072339D02*
X0020458Y0072339D01*
X0014450Y0072339D02*
X0014150Y0072339D01*
X0010024Y0072339D02*
X0008650Y0072339D01*
X0028142Y0072339D02*
X0030458Y0072339D01*
X0038142Y0072339D02*
X0040458Y0072339D01*
X0048142Y0072339D02*
X0050458Y0072339D01*
X0050000Y0073937D02*
X0048600Y0073937D01*
X0048442Y0075536D02*
X0050158Y0075536D01*
X0040158Y0075536D02*
X0038442Y0075536D01*
X0038600Y0073937D02*
X0040000Y0073937D01*
X0030158Y0075536D02*
X0028442Y0075536D01*
X0028600Y0073937D02*
X0030000Y0073937D01*
X0015866Y0078733D02*
X0116187Y0078733D01*
X0121279Y0078733D02*
X0136187Y0078733D01*
X0131053Y0077134D02*
X0127547Y0077134D01*
X0121053Y0077134D02*
X0119680Y0077134D01*
X0111053Y0077134D02*
X0107547Y0077134D01*
X0117786Y0080332D02*
X0008650Y0080332D01*
X0008650Y0078733D02*
X0012734Y0078733D01*
X0014150Y0078733D02*
X0014450Y0078733D01*
X0058442Y0075536D02*
X0060158Y0075536D01*
X0060000Y0073937D02*
X0058600Y0073937D01*
X0058142Y0072339D02*
X0060458Y0072339D01*
X0068142Y0072339D02*
X0069793Y0072339D01*
X0078142Y0072339D02*
X0080458Y0072339D01*
X0088142Y0072339D02*
X0090458Y0072339D01*
X0090000Y0073937D02*
X0088600Y0073937D01*
X0088442Y0075536D02*
X0090158Y0075536D01*
X0080158Y0075536D02*
X0078442Y0075536D01*
X0078600Y0073937D02*
X0080000Y0073937D01*
X0070158Y0075536D02*
X0068442Y0075536D01*
X0068600Y0073937D02*
X0070000Y0073937D01*
X0071100Y0065945D02*
X0180899Y0065945D01*
X0182793Y0062748D02*
X0194025Y0062748D01*
X0192427Y0061149D02*
X0181195Y0061149D01*
X0174591Y0062748D02*
X0159009Y0062748D01*
X0160607Y0061149D02*
X0172993Y0061149D01*
X0154591Y0062748D02*
X0136509Y0062748D01*
X0138107Y0061149D02*
X0152993Y0061149D01*
X0196800Y0061149D02*
X0196800Y0061149D01*
X0196800Y0062748D02*
X0196800Y0062748D01*
X0199575Y0062748D02*
X0225322Y0062748D01*
X0225300Y0061149D02*
X0201173Y0061149D01*
X0245201Y0065945D02*
X0292500Y0065945D01*
X0296100Y0065945D02*
X0332100Y0065945D01*
X0333397Y0067543D02*
X0297589Y0067543D01*
X0299188Y0069142D02*
X0329877Y0069142D01*
X0331600Y0069142D02*
X0332000Y0069142D01*
X0332000Y0068800D02*
X0332233Y0068800D01*
X0333088Y0068935D01*
X0333911Y0069203D01*
X0334683Y0069596D01*
X0335383Y0070105D01*
X0335995Y0070717D01*
X0336504Y0071417D01*
X0336897Y0072189D01*
X0337165Y0073012D01*
X0337300Y0073867D01*
X0337300Y0074100D01*
X0332000Y0074100D01*
X0332000Y0068800D01*
X0333723Y0069142D02*
X0380198Y0069142D01*
X0381500Y0069142D02*
X0382100Y0069142D01*
X0383402Y0069142D02*
X0426210Y0069142D01*
X0426210Y0067543D02*
X0425203Y0067543D01*
X0426206Y0065945D02*
X0426210Y0065945D01*
X0418397Y0067543D02*
X0385747Y0067543D01*
X0382100Y0067543D02*
X0381500Y0067543D01*
X0377853Y0067543D02*
X0340203Y0067543D01*
X0341500Y0065945D02*
X0376972Y0065945D01*
X0381500Y0065945D02*
X0382100Y0065945D01*
X0386628Y0065945D02*
X0417394Y0065945D01*
X0426210Y0070740D02*
X0336012Y0070740D01*
X0332000Y0070740D02*
X0331600Y0070740D01*
X0327588Y0070740D02*
X0325453Y0070740D01*
X0318147Y0070740D02*
X0315453Y0070740D01*
X0308147Y0070740D02*
X0305453Y0070740D01*
X0306508Y0072339D02*
X0307092Y0072339D01*
X0316508Y0072339D02*
X0317092Y0072339D01*
X0326508Y0072339D02*
X0326654Y0072339D01*
X0331600Y0072339D02*
X0332000Y0072339D01*
X0336946Y0072339D02*
X0426210Y0072339D01*
X0423457Y0072800D02*
X0425800Y0075143D01*
X0425800Y0078457D01*
X0423457Y0080800D01*
X0420143Y0080800D01*
X0417800Y0078457D01*
X0417800Y0075143D01*
X0420143Y0072800D01*
X0423457Y0072800D01*
X0424594Y0073937D02*
X0426210Y0073937D01*
X0426210Y0075536D02*
X0425800Y0075536D01*
X0419006Y0073937D02*
X0404594Y0073937D01*
X0403457Y0072800D02*
X0405800Y0075143D01*
X0405800Y0078457D01*
X0403457Y0080800D01*
X0400143Y0080800D01*
X0397800Y0078457D01*
X0397800Y0075143D01*
X0400143Y0072800D01*
X0403457Y0072800D01*
X0399006Y0073937D02*
X0392593Y0073937D01*
X0392990Y0074334D02*
X0393653Y0075934D01*
X0393653Y0077666D01*
X0392990Y0079266D01*
X0391766Y0080490D01*
X0390166Y0081153D01*
X0388434Y0081153D01*
X0386834Y0080490D01*
X0385610Y0079266D01*
X0384947Y0077666D01*
X0384947Y0075934D01*
X0385610Y0074334D01*
X0386834Y0073110D01*
X0388434Y0072447D01*
X0390166Y0072447D01*
X0391766Y0073110D01*
X0392990Y0074334D01*
X0393488Y0075536D02*
X0397800Y0075536D01*
X0405800Y0075536D02*
X0417800Y0075536D01*
X0417800Y0077134D02*
X0405800Y0077134D01*
X0397800Y0077134D02*
X0393653Y0077134D01*
X0384947Y0077134D02*
X0353653Y0077134D01*
X0353653Y0077666D02*
X0353653Y0075934D01*
X0352990Y0074334D01*
X0351766Y0073110D01*
X0350166Y0072447D01*
X0348434Y0072447D01*
X0346834Y0073110D01*
X0345610Y0074334D01*
X0344947Y0075934D01*
X0344947Y0077666D01*
X0345610Y0079266D01*
X0346834Y0080490D01*
X0348434Y0081153D01*
X0350166Y0081153D01*
X0351766Y0080490D01*
X0352990Y0079266D01*
X0353653Y0077666D01*
X0353211Y0078733D02*
X0385389Y0078733D01*
X0393211Y0078733D02*
X0398076Y0078733D01*
X0405524Y0078733D02*
X0418076Y0078733D01*
X0419675Y0080332D02*
X0403925Y0080332D01*
X0399675Y0080332D02*
X0391924Y0080332D01*
X0386676Y0080332D02*
X0351924Y0080332D01*
X0346676Y0080332D02*
X0258314Y0080332D01*
X0264425Y0078733D02*
X0269175Y0078733D01*
X0274425Y0078733D02*
X0279175Y0078733D01*
X0284425Y0078733D02*
X0289175Y0078733D01*
X0294425Y0078733D02*
X0299175Y0078733D01*
X0304425Y0078733D02*
X0309175Y0078733D01*
X0314425Y0078733D02*
X0319175Y0078733D01*
X0324425Y0078733D02*
X0328544Y0078733D01*
X0331600Y0078733D02*
X0332000Y0078733D01*
X0332000Y0079800D02*
X0332000Y0074500D01*
X0337300Y0074500D01*
X0337300Y0074733D01*
X0337165Y0075588D01*
X0336897Y0076411D01*
X0336504Y0077183D01*
X0335995Y0077883D01*
X0335383Y0078495D01*
X0334683Y0079004D01*
X0333911Y0079397D01*
X0333088Y0079665D01*
X0332233Y0079800D01*
X0332000Y0079800D01*
X0335056Y0078733D02*
X0345389Y0078733D01*
X0344947Y0077134D02*
X0336529Y0077134D01*
X0332000Y0077134D02*
X0331600Y0077134D01*
X0327071Y0077134D02*
X0326146Y0077134D01*
X0317454Y0077134D02*
X0316146Y0077134D01*
X0307454Y0077134D02*
X0306146Y0077134D01*
X0297454Y0077134D02*
X0296146Y0077134D01*
X0287454Y0077134D02*
X0286146Y0077134D01*
X0277454Y0077134D02*
X0276146Y0077134D01*
X0267454Y0077134D02*
X0266146Y0077134D01*
X0266508Y0072339D02*
X0267092Y0072339D01*
X0276508Y0072339D02*
X0277092Y0072339D01*
X0286508Y0072339D02*
X0287092Y0072339D01*
X0288147Y0070740D02*
X0285453Y0070740D01*
X0278147Y0070740D02*
X0275453Y0070740D01*
X0268147Y0070740D02*
X0265453Y0070740D01*
X0258147Y0070740D02*
X0255453Y0070740D01*
X0256508Y0072339D02*
X0257092Y0072339D01*
X0249188Y0069142D02*
X0294096Y0069142D01*
X0292500Y0067543D02*
X0247589Y0067543D01*
X0252510Y0064346D02*
X0256090Y0064346D01*
X0273278Y0062748D02*
X0275322Y0062748D01*
X0275300Y0061149D02*
X0273300Y0061149D01*
X0273300Y0059551D02*
X0275300Y0059551D01*
X0275300Y0057952D02*
X0273300Y0057952D01*
X0276095Y0049960D02*
X0266924Y0049960D01*
X0266100Y0048361D02*
X0277693Y0048361D01*
X0281186Y0049960D02*
X0291705Y0049960D01*
X0291820Y0048361D02*
X0282784Y0048361D01*
X0280890Y0045164D02*
X0266100Y0045164D01*
X0262500Y0045164D02*
X0256950Y0045164D01*
X0266100Y0043566D02*
X0282489Y0043566D01*
X0282500Y0041967D02*
X0266100Y0041967D01*
X0266100Y0040369D02*
X0282500Y0040369D01*
X0286100Y0040369D02*
X0302823Y0040369D01*
X0304422Y0041967D02*
X0286100Y0041967D01*
X0286100Y0043566D02*
X0306020Y0043566D01*
X0307619Y0045164D02*
X0285981Y0045164D01*
X0262500Y0040369D02*
X0261575Y0040369D01*
X0257024Y0040369D02*
X0236100Y0040369D01*
X0225830Y0033975D02*
X0220848Y0033975D01*
X0216800Y0033975D02*
X0216800Y0033975D01*
X0212752Y0033975D02*
X0210282Y0033975D01*
X0210800Y0032376D02*
X0212400Y0032376D01*
X0212400Y0031800D02*
X0212400Y0029977D01*
X0214977Y0027400D01*
X0216800Y0027400D01*
X0218623Y0027400D01*
X0221200Y0029977D01*
X0221200Y0031800D01*
X0216800Y0031800D01*
X0216800Y0027400D01*
X0216800Y0031800D01*
X0216800Y0031800D01*
X0212400Y0031800D01*
X0212400Y0030778D02*
X0210800Y0030778D01*
X0209836Y0029179D02*
X0213198Y0029179D01*
X0216800Y0029179D02*
X0216800Y0029179D01*
X0216800Y0030778D02*
X0216800Y0030778D01*
X0220402Y0029179D02*
X0225300Y0029179D01*
X0225300Y0030778D02*
X0221200Y0030778D01*
X0221200Y0032376D02*
X0225300Y0032376D01*
X0216800Y0032376D02*
X0216800Y0032376D01*
X0203764Y0029179D02*
X0200800Y0029179D01*
X0200800Y0030778D02*
X0202800Y0030778D01*
X0201065Y0027581D02*
X0214797Y0027581D01*
X0216800Y0027581D02*
X0216800Y0027581D01*
X0218803Y0027581D02*
X0225300Y0027581D01*
X0286100Y0035573D02*
X0287715Y0035573D01*
X0286100Y0037172D02*
X0300000Y0037172D01*
X0300000Y0035573D02*
X0290885Y0035573D01*
X0303600Y0035573D02*
X0309870Y0035573D01*
X0308271Y0037172D02*
X0304717Y0037172D01*
X0336979Y0027581D02*
X0376760Y0027581D01*
X0376700Y0026500D02*
X0376700Y0026399D01*
X0376826Y0025606D01*
X0377074Y0024842D01*
X0377438Y0024127D01*
X0377910Y0023478D01*
X0378478Y0022910D01*
X0379127Y0022438D01*
X0379842Y0022074D01*
X0380606Y0021826D01*
X0381399Y0021700D01*
X0381500Y0021700D01*
X0381500Y0026500D01*
X0382100Y0026500D01*
X0382100Y0027100D01*
X0386900Y0027100D01*
X0386900Y0027201D01*
X0386774Y0027994D01*
X0386526Y0028758D01*
X0386162Y0029473D01*
X0385690Y0030122D01*
X0385122Y0030690D01*
X0384473Y0031162D01*
X0383758Y0031526D01*
X0382994Y0031774D01*
X0382201Y0031900D01*
X0382100Y0031900D01*
X0382100Y0027100D01*
X0381500Y0027100D01*
X0381500Y0026500D01*
X0376700Y0026500D01*
X0376766Y0025982D02*
X0337484Y0025982D01*
X0337762Y0024384D02*
X0377307Y0024384D01*
X0378649Y0022785D02*
X0337877Y0022785D01*
X0337850Y0021187D02*
X0426210Y0021187D01*
X0426210Y0022785D02*
X0424389Y0022785D01*
X0425886Y0024384D02*
X0426210Y0024384D01*
X0419211Y0022785D02*
X0384951Y0022785D01*
X0385122Y0022910D02*
X0385690Y0023478D01*
X0386162Y0024127D01*
X0386526Y0024842D01*
X0386774Y0025606D01*
X0386900Y0026399D01*
X0386900Y0026500D01*
X0382100Y0026500D01*
X0382100Y0021700D01*
X0382201Y0021700D01*
X0382994Y0021826D01*
X0383758Y0022074D01*
X0384473Y0022438D01*
X0385122Y0022910D01*
X0386293Y0024384D02*
X0417714Y0024384D01*
X0417100Y0025982D02*
X0386834Y0025982D01*
X0382100Y0025982D02*
X0381500Y0025982D01*
X0381500Y0024384D02*
X0382100Y0024384D01*
X0382100Y0022785D02*
X0381500Y0022785D01*
X0381500Y0027581D02*
X0382100Y0027581D01*
X0386840Y0027581D02*
X0417100Y0027581D01*
X0417698Y0029179D02*
X0386312Y0029179D01*
X0385002Y0030778D02*
X0419131Y0030778D01*
X0424469Y0030778D02*
X0426210Y0030778D01*
X0426210Y0029179D02*
X0425902Y0029179D01*
X0382100Y0029179D02*
X0381500Y0029179D01*
X0381500Y0030778D02*
X0382100Y0030778D01*
X0364615Y0032376D02*
X0363950Y0032376D01*
X0363950Y0033975D02*
X0364250Y0033975D01*
X0369300Y0033975D02*
X0369300Y0033975D01*
X0310750Y0021187D02*
X0287459Y0021187D01*
X0289057Y0019588D02*
X0310750Y0019588D01*
X0310884Y0017990D02*
X0290656Y0017990D01*
X0294043Y0016391D02*
X0311270Y0016391D01*
X0311902Y0014793D02*
X0296020Y0014793D01*
X0296743Y0013194D02*
X0312904Y0013194D01*
X0314271Y0011596D02*
X0296900Y0011596D01*
X0296573Y0009997D02*
X0316238Y0009997D01*
X0332362Y0009997D02*
X0348314Y0009997D01*
X0348434Y0009947D02*
X0350166Y0009947D01*
X0351766Y0010610D01*
X0352990Y0011834D01*
X0353653Y0013434D01*
X0353653Y0015166D01*
X0352990Y0016766D01*
X0351766Y0017990D01*
X0350166Y0018653D01*
X0348434Y0018653D01*
X0346834Y0017990D01*
X0345610Y0016766D01*
X0344947Y0015166D01*
X0344947Y0013434D01*
X0345610Y0011834D01*
X0346834Y0010610D01*
X0348434Y0009947D01*
X0350286Y0009997D02*
X0388314Y0009997D01*
X0388434Y0009947D02*
X0390166Y0009947D01*
X0391766Y0010610D01*
X0392990Y0011834D01*
X0393653Y0013434D01*
X0393653Y0015166D01*
X0392990Y0016766D01*
X0391766Y0017990D01*
X0390166Y0018653D01*
X0388434Y0018653D01*
X0386834Y0017990D01*
X0385610Y0016766D01*
X0384947Y0015166D01*
X0384947Y0013434D01*
X0385610Y0011834D01*
X0386834Y0010610D01*
X0388434Y0009947D01*
X0390286Y0009997D02*
X0426210Y0009997D01*
X0425800Y0012643D02*
X0423457Y0010300D01*
X0420143Y0010300D01*
X0417800Y0012643D01*
X0417800Y0015957D01*
X0420143Y0018300D01*
X0423457Y0018300D01*
X0425800Y0015957D01*
X0425800Y0012643D01*
X0425800Y0013194D02*
X0426210Y0013194D01*
X0426210Y0011596D02*
X0424752Y0011596D01*
X0418848Y0011596D02*
X0404752Y0011596D01*
X0405800Y0012643D02*
X0403457Y0010300D01*
X0400143Y0010300D01*
X0397800Y0012643D01*
X0397800Y0015957D01*
X0400143Y0018300D01*
X0403457Y0018300D01*
X0405800Y0015957D01*
X0405800Y0012643D01*
X0405800Y0013194D02*
X0417800Y0013194D01*
X0417800Y0014793D02*
X0405800Y0014793D01*
X0405366Y0016391D02*
X0418234Y0016391D01*
X0419833Y0017990D02*
X0403767Y0017990D01*
X0399833Y0017990D02*
X0391766Y0017990D01*
X0386834Y0017990D02*
X0351766Y0017990D01*
X0346834Y0017990D02*
X0337716Y0017990D01*
X0337850Y0019588D02*
X0426210Y0019588D01*
X0426210Y0017990D02*
X0423767Y0017990D01*
X0425366Y0016391D02*
X0426210Y0016391D01*
X0426210Y0014793D02*
X0425800Y0014793D01*
X0398848Y0011596D02*
X0392751Y0011596D01*
X0385849Y0011596D02*
X0352751Y0011596D01*
X0345849Y0011596D02*
X0334329Y0011596D01*
X0335696Y0013194D02*
X0345047Y0013194D01*
X0353553Y0013194D02*
X0385047Y0013194D01*
X0393553Y0013194D02*
X0397800Y0013194D01*
X0397800Y0014793D02*
X0393653Y0014793D01*
X0393145Y0016391D02*
X0398234Y0016391D01*
X0385455Y0016391D02*
X0353145Y0016391D01*
X0353653Y0014793D02*
X0384947Y0014793D01*
X0345455Y0016391D02*
X0337330Y0016391D01*
X0336698Y0014793D02*
X0344947Y0014793D01*
X0140923Y0011596D02*
X0137677Y0011596D01*
X0130923Y0011596D02*
X0127677Y0011596D01*
X0120923Y0011596D02*
X0117677Y0011596D01*
X0110923Y0011596D02*
X0107677Y0011596D01*
X0108496Y0013194D02*
X0110104Y0013194D01*
X0118496Y0013194D02*
X0120104Y0013194D01*
X0128496Y0013194D02*
X0130104Y0013194D01*
X0138496Y0013194D02*
X0140104Y0013194D01*
X0140000Y0014793D02*
X0138600Y0014793D01*
X0138088Y0016391D02*
X0140512Y0016391D01*
X0130512Y0016391D02*
X0128088Y0016391D01*
X0128600Y0014793D02*
X0130000Y0014793D01*
X0120512Y0016391D02*
X0118088Y0016391D01*
X0118600Y0014793D02*
X0120000Y0014793D01*
X0110512Y0016391D02*
X0108088Y0016391D01*
X0108600Y0014793D02*
X0110000Y0014793D01*
X0090104Y0013194D02*
X0088496Y0013194D01*
X0060325Y0025982D02*
X0058275Y0025982D01*
X0048300Y0029179D02*
X0070300Y0029179D01*
X0070300Y0030778D02*
X0048300Y0030778D01*
X0040300Y0030778D02*
X0038017Y0030778D01*
X0038300Y0029179D02*
X0040300Y0029179D01*
X0078300Y0029179D02*
X0080300Y0029179D01*
X0080583Y0030778D02*
X0078300Y0030778D01*
X0051940Y0035573D02*
X0031300Y0035573D01*
X0031300Y0037172D02*
X0051650Y0037172D01*
X0052500Y0041967D02*
X0031300Y0041967D01*
X0031300Y0043566D02*
X0052500Y0043566D01*
X0052500Y0048361D02*
X0031300Y0048361D01*
X0031300Y0049960D02*
X0052500Y0049960D01*
X0056100Y0049960D02*
X0067500Y0049960D01*
X0067500Y0048361D02*
X0056100Y0048361D01*
X0058300Y0064346D02*
X0060300Y0064346D01*
X0060300Y0065945D02*
X0058300Y0065945D01*
X0295453Y0070740D02*
X0295695Y0070740D01*
X0296508Y0072339D02*
X0297092Y0072339D01*
X0331600Y0073937D02*
X0332000Y0073937D01*
X0332000Y0075536D02*
X0331600Y0075536D01*
X0337173Y0075536D02*
X0345112Y0075536D01*
X0346007Y0073937D02*
X0337300Y0073937D01*
X0352593Y0073937D02*
X0386007Y0073937D01*
X0385112Y0075536D02*
X0353488Y0075536D01*
X0423925Y0080332D02*
X0426210Y0080332D01*
X0426210Y0078733D02*
X0425524Y0078733D01*
X0425800Y0077134D02*
X0426210Y0077134D01*
X0382100Y0062748D02*
X0381500Y0062748D01*
X0381500Y0061149D02*
X0382100Y0061149D01*
X0392926Y0057952D02*
X0396674Y0057952D01*
X0399100Y0057952D02*
X0399500Y0057952D01*
X0401926Y0057952D02*
X0405674Y0057952D01*
X0409100Y0057952D02*
X0409500Y0057952D01*
X0412926Y0057952D02*
X0426210Y0057952D01*
D23*
X0294300Y0049300D03*
X0264300Y0050550D03*
X0254300Y0045550D03*
X0259300Y0041800D03*
X0254300Y0036800D03*
X0216800Y0045550D03*
X0234300Y0050550D03*
X0144300Y0034300D03*
X0089300Y0036800D03*
X0054300Y0036800D03*
X0069300Y0045550D03*
X0236800Y0019300D03*
D24*
X0074300Y0014300D02*
X0074300Y0029300D01*
X0054300Y0024300D02*
X0054300Y0014300D01*
X0034300Y0014300D02*
X0029300Y0019300D01*
X0029300Y0054300D01*
X0034300Y0059300D01*
D25*
X0054300Y0064300D02*
X0054300Y0036800D01*
X0089300Y0036800D02*
X0089300Y0054300D01*
X0084300Y0059300D01*
X0069300Y0069300D02*
X0069300Y0045550D01*
X0144300Y0034300D02*
X0144300Y0024300D01*
X0196800Y0029300D02*
X0204300Y0021800D01*
X0241800Y0021800D01*
X0249300Y0029300D01*
X0269300Y0029300D02*
X0281800Y0016800D01*
X0281800Y0011800D01*
X0271800Y0011800D02*
X0271800Y0016800D01*
X0264300Y0024300D01*
X0264300Y0050550D01*
X0234300Y0050550D02*
X0234300Y0034300D01*
X0229300Y0029300D01*
X0254300Y0024300D02*
X0261800Y0016800D01*
X0261800Y0011800D01*
X0241800Y0011800D02*
X0236800Y0019300D01*
X0254300Y0024300D02*
X0254300Y0036800D01*
X0269300Y0059300D02*
X0284300Y0044300D01*
X0284300Y0021800D01*
X0291800Y0014300D01*
X0291800Y0011800D01*
X0301800Y0029300D02*
X0301800Y0036800D01*
X0309300Y0044300D01*
X0339300Y0044300D01*
X0346800Y0054300D01*
X0294300Y0049300D02*
X0294300Y0066800D01*
X0301800Y0074300D01*
X0261800Y0074300D02*
X0254300Y0081800D01*
X0121800Y0081800D01*
X0114300Y0074300D01*
X0124300Y0074300D02*
X0129300Y0069300D01*
X0246800Y0069300D01*
X0251800Y0074300D01*
X0241800Y0074300D02*
X0236800Y0079300D01*
X0139300Y0079300D01*
X0134300Y0074300D01*
X0176800Y0059300D02*
X0184300Y0066800D01*
X0241800Y0066800D01*
X0249300Y0059300D01*
X0229300Y0059300D02*
X0214300Y0059300D01*
X0206800Y0051800D01*
X0074300Y0074300D02*
X0069300Y0069300D01*
M02*
