%
M48
M72
T01C0.0120
T02C0.0276
T03C0.0320
T04C0.0354
T05C0.0380
T06C0.0400
T07C0.0440
%
T01
X27724Y5657
X27484Y5257
X23404Y5257
X22684Y5417
X17644Y4297
X27004Y6937
X25884Y7657
X21964Y9097
X15644Y9657
T02
X35994Y6557
X34994Y6557
X34994Y9057
X35994Y9057
X12244Y6807
X11494Y7307
X11494Y6307
T03
X42494Y5557
X40494Y5557
X33744Y5557
X32744Y5557
X31744Y4557
X28494Y6307
X27494Y6307
X26494Y6307
X25494Y6307
X24494Y6307
X23494Y6307
X22494Y6307
X21244Y6507
X20244Y6557
X19244Y6557
X16244Y6557
X17244Y5557
X18244Y5557
X17994Y4557
X18744Y4557
X15994Y4557
X9994Y5807
X8994Y5807
X7994Y5807
X5994Y5807
X4994Y6307
X3994Y6307
X8994Y8807
X9994Y8807
X7994Y9807
X5994Y9807
X4994Y9307
X3994Y9307
X16244Y8557
X19244Y8557
X20244Y8557
X21244Y8507
X22494Y9307
X23494Y9307
X24494Y9307
X25494Y9307
X26494Y9307
X27494Y9307
X28494Y9307
X29744Y8807
X33744Y9557
X40744Y10057
X42744Y10057
X31744Y6557
X29744Y6807
X22744Y4557
X18244Y9557
X17244Y9557
T04
X39123Y5991
X35364Y4623
X39123Y9623
X35364Y10991
T05
X14994Y4807
X13994Y4807
X12994Y4807
X11994Y4807
X10994Y4807
X9994Y4807
X8994Y4807
X7994Y4807
X6994Y4807
X5994Y4807
X4994Y4807
X3994Y4807
X2994Y4807
X1994Y4807
X14994Y5807
X14994Y10807
X13994Y10807
X12994Y10807
X11994Y10807
X10994Y10807
X9994Y10807
X8994Y10807
X7994Y10807
X6994Y10807
X5994Y10807
X4994Y10807
X3994Y10807
X2994Y10807
X1994Y10807
T06
X42494Y7307
X41494Y7307
X40494Y7307
X39494Y7307
X38494Y7307
X38494Y8307
X39494Y8307
X40494Y8307
X41494Y8307
X42494Y8307
X33744Y10807
X32744Y10807
X31744Y10807
X30744Y10807
X29744Y10807
X28744Y10807
X27744Y10807
X26744Y10807
X25744Y10807
X24744Y10807
X23744Y10807
X23744Y4557
X24744Y4557
X25744Y4557
X26744Y4557
X27744Y4557
X28744Y4557
X29744Y4557
T07
X42744Y4557
X38744Y4557
X38744Y11057
X42744Y11057
M30
