G75*
%MOIN*%
%OFA0B0*%
%FSLAX24Y24*%
%IPPOS*%
%LPD*%
%AMOC8*
5,1,8,0,0,1.08239X$1,22.5*
%
%ADD10C,0.0010*%
%ADD11C,0.0020*%
%ADD12C,0.0080*%
%ADD13C,0.0030*%
%ADD14C,0.0060*%
%ADD15C,0.0040*%
%ADD16R,0.0200X0.1000*%
%ADD17R,0.0750X0.0300*%
%ADD18C,0.0006*%
%ADD19R,0.0700X0.0150*%
%ADD20R,0.0200X0.0550*%
%ADD21C,0.0050*%
%ADD22R,0.0526X0.0256*%
D10*
X001244Y004057D02*
X043370Y004057D01*
X043370Y011734D01*
X001244Y011734D01*
X001244Y004057D01*
X035234Y005827D02*
X035259Y005802D01*
X035309Y005802D01*
X035334Y005827D01*
X035381Y005827D02*
X035406Y005802D01*
X035456Y005802D01*
X035481Y005827D01*
X035481Y005852D01*
X035456Y005877D01*
X035381Y005877D01*
X035381Y005827D01*
X035381Y005877D02*
X035431Y005927D01*
X035481Y005952D01*
X035334Y005927D02*
X035309Y005952D01*
X035259Y005952D01*
X035234Y005927D01*
X035234Y005827D01*
X035224Y009662D02*
X035249Y009687D01*
X035224Y009662D02*
X035174Y009662D01*
X035149Y009687D01*
X035149Y009787D01*
X035174Y009812D01*
X035224Y009812D01*
X035249Y009787D01*
X035296Y009812D02*
X035396Y009812D01*
X035396Y009787D01*
X035296Y009687D01*
X035296Y009662D01*
D11*
X040354Y010617D02*
X040474Y010617D01*
X040414Y010617D02*
X040414Y010797D01*
X040354Y010737D01*
X040538Y010797D02*
X040658Y010617D01*
X040658Y010797D01*
X040722Y010707D02*
X040812Y010797D01*
X040812Y010617D01*
X040842Y010707D02*
X040722Y010707D01*
X040906Y010647D02*
X040906Y010767D01*
X040936Y010797D01*
X040996Y010797D01*
X041026Y010767D01*
X040906Y010647D01*
X040936Y010617D01*
X040996Y010617D01*
X041026Y010647D01*
X041026Y010767D01*
X041090Y010767D02*
X041120Y010797D01*
X041180Y010797D01*
X041210Y010767D01*
X041090Y010647D01*
X041120Y010617D01*
X041180Y010617D01*
X041210Y010647D01*
X041210Y010767D01*
X041274Y010737D02*
X041335Y010797D01*
X041335Y010617D01*
X041395Y010617D02*
X041274Y010617D01*
X041090Y010647D02*
X041090Y010767D01*
X040538Y010797D02*
X040538Y010617D01*
X040611Y011267D02*
X040685Y011267D01*
X040721Y011303D01*
X040721Y011340D01*
X040685Y011377D01*
X040575Y011377D01*
X040575Y011303D01*
X040611Y011267D01*
X040575Y011377D02*
X040648Y011450D01*
X040721Y011487D01*
X040500Y011450D02*
X040464Y011487D01*
X040354Y011487D01*
X040354Y011267D01*
X040464Y011267D01*
X040500Y011303D01*
X040500Y011450D01*
X041370Y010047D02*
X041517Y010047D01*
X041591Y010047D02*
X041591Y009863D01*
X041627Y009827D01*
X041701Y009827D01*
X041738Y009863D01*
X041738Y010047D01*
X041812Y010010D02*
X041812Y009973D01*
X041848Y009937D01*
X041922Y009937D01*
X041959Y009900D01*
X041959Y009863D01*
X041922Y009827D01*
X041848Y009827D01*
X041812Y009863D01*
X041812Y010010D02*
X041848Y010047D01*
X041922Y010047D01*
X041959Y010010D01*
X042033Y010047D02*
X042033Y009827D01*
X042180Y009827D01*
X042106Y009937D02*
X042033Y009937D01*
X042033Y010047D02*
X042180Y010047D01*
X041443Y009937D02*
X041370Y009937D01*
X041370Y009827D02*
X041370Y010047D01*
X041346Y005614D02*
X041346Y005431D01*
X041383Y005394D01*
X041456Y005394D01*
X041493Y005431D01*
X041493Y005614D01*
X041567Y005578D02*
X041567Y005541D01*
X041604Y005504D01*
X041677Y005504D01*
X041714Y005468D01*
X041714Y005431D01*
X041677Y005394D01*
X041604Y005394D01*
X041567Y005431D01*
X041567Y005578D02*
X041604Y005614D01*
X041677Y005614D01*
X041714Y005578D01*
X041788Y005614D02*
X041788Y005394D01*
X041935Y005394D01*
X041862Y005504D02*
X041788Y005504D01*
X041788Y005614D02*
X041935Y005614D01*
X041272Y005614D02*
X041125Y005614D01*
X041125Y005394D01*
X041125Y005504D02*
X041199Y005504D01*
X041030Y004997D02*
X041030Y004817D01*
X040970Y004817D02*
X041090Y004817D01*
X040970Y004937D02*
X041030Y004997D01*
X040905Y004967D02*
X040785Y004847D01*
X040815Y004817D01*
X040875Y004817D01*
X040905Y004847D01*
X040905Y004967D01*
X040875Y004997D01*
X040815Y004997D01*
X040785Y004967D01*
X040785Y004847D01*
X040721Y004847D02*
X040691Y004817D01*
X040631Y004817D01*
X040601Y004847D01*
X040721Y004967D01*
X040721Y004847D01*
X040601Y004847D02*
X040601Y004967D01*
X040631Y004997D01*
X040691Y004997D01*
X040721Y004967D01*
X040537Y004907D02*
X040417Y004907D01*
X040507Y004997D01*
X040507Y004817D01*
X040353Y004817D02*
X040353Y004997D01*
X040233Y004997D02*
X040353Y004817D01*
X040233Y004817D02*
X040233Y004997D01*
X040109Y004997D02*
X040109Y004817D01*
X040049Y004817D02*
X040169Y004817D01*
X040049Y004937D02*
X040109Y004997D01*
X040712Y004347D02*
X040822Y004347D01*
X040859Y004310D01*
X040859Y004163D01*
X040822Y004127D01*
X040712Y004127D01*
X040712Y004347D01*
X040933Y004347D02*
X040933Y004237D01*
X041006Y004273D01*
X041043Y004273D01*
X041080Y004237D01*
X041080Y004163D01*
X041043Y004127D01*
X040969Y004127D01*
X040933Y004163D01*
X040933Y004347D02*
X041080Y004347D01*
X022813Y010378D02*
X022579Y010390D01*
X022813Y010378D02*
X022760Y010605D01*
X022780Y010677D02*
X022967Y010817D01*
X022780Y010957D01*
X022691Y010817D02*
X022504Y010817D01*
X022458Y010675D02*
X022601Y010555D01*
X022414Y010677D02*
X022228Y010677D01*
X022228Y010957D01*
X022414Y010957D01*
X022321Y010817D02*
X022228Y010817D01*
X022138Y010910D02*
X022091Y010957D01*
X021951Y010957D01*
X021951Y010677D01*
X022091Y010677D01*
X022138Y010723D01*
X022138Y010910D01*
X021861Y010957D02*
X021767Y010957D01*
X021814Y010957D02*
X021814Y010677D01*
X021767Y010677D02*
X021861Y010677D01*
X021678Y010723D02*
X021631Y010677D01*
X021538Y010677D01*
X021491Y010723D01*
X021538Y010817D02*
X021631Y010817D01*
X021678Y010770D01*
X021678Y010723D01*
X021538Y010817D02*
X021491Y010864D01*
X021491Y010910D01*
X021538Y010957D01*
X021631Y010957D01*
X021678Y010910D01*
X021125Y010910D02*
X021079Y010957D01*
X020985Y010957D01*
X020938Y010910D01*
X020938Y010864D01*
X020985Y010817D01*
X021079Y010817D01*
X021125Y010770D01*
X021125Y010723D01*
X021079Y010677D01*
X020985Y010677D01*
X020938Y010723D01*
X020848Y010677D02*
X020754Y010677D01*
X020801Y010677D02*
X020801Y010957D01*
X020754Y010957D02*
X020848Y010957D01*
X020665Y010957D02*
X020665Y010677D01*
X020665Y010817D02*
X020478Y010817D01*
X020478Y010677D02*
X020478Y010957D01*
X020389Y010957D02*
X020202Y010957D01*
X020295Y010957D02*
X020295Y010677D01*
X019836Y010723D02*
X019789Y010770D01*
X019696Y010770D01*
X019649Y010817D01*
X019696Y010864D01*
X019836Y010864D01*
X019836Y010723D02*
X019789Y010677D01*
X019649Y010677D01*
X019559Y010677D02*
X019512Y010723D01*
X019512Y010910D01*
X019465Y010864D02*
X019559Y010864D01*
X019376Y010817D02*
X019376Y010770D01*
X019189Y010770D01*
X019189Y010723D02*
X019189Y010817D01*
X019236Y010864D01*
X019329Y010864D01*
X019376Y010817D01*
X019329Y010677D02*
X019236Y010677D01*
X019189Y010723D01*
X019099Y010677D02*
X018959Y010770D01*
X019099Y010864D01*
X018959Y010957D02*
X018959Y010677D01*
X018869Y010677D02*
X018729Y010677D01*
X018682Y010723D01*
X018682Y010817D01*
X018729Y010864D01*
X018869Y010864D01*
X018593Y010817D02*
X018546Y010864D01*
X018453Y010864D01*
X018406Y010817D01*
X018406Y010723D01*
X018453Y010677D01*
X018546Y010677D01*
X018593Y010723D01*
X018593Y010817D01*
X018317Y010864D02*
X018177Y010864D01*
X018130Y010817D01*
X018177Y010770D01*
X018270Y010770D01*
X018317Y010723D01*
X018270Y010677D01*
X018130Y010677D01*
X017764Y010864D02*
X017717Y010864D01*
X017624Y010770D01*
X017534Y010770D02*
X017347Y010770D01*
X017347Y010723D02*
X017347Y010817D01*
X017394Y010864D01*
X017487Y010864D01*
X017534Y010817D01*
X017534Y010770D01*
X017487Y010677D02*
X017394Y010677D01*
X017347Y010723D01*
X017258Y010677D02*
X017118Y010677D01*
X017071Y010723D01*
X017071Y010817D01*
X017118Y010864D01*
X017258Y010864D01*
X017258Y010957D02*
X017258Y010677D01*
X016982Y010677D02*
X016982Y010817D01*
X016935Y010864D01*
X016842Y010864D01*
X016842Y010770D02*
X016982Y010770D01*
X016982Y010677D02*
X016842Y010677D01*
X016795Y010723D01*
X016842Y010770D01*
X016705Y010770D02*
X016519Y010770D01*
X016519Y010723D02*
X016519Y010817D01*
X016565Y010864D01*
X016659Y010864D01*
X016705Y010817D01*
X016705Y010770D01*
X016659Y010677D02*
X016565Y010677D01*
X016519Y010723D01*
X016429Y010677D02*
X016429Y010957D01*
X016429Y010817D02*
X016242Y010817D01*
X016242Y010677D02*
X016242Y010957D01*
X017624Y010864D02*
X017624Y010677D01*
D12*
X023244Y010557D02*
X023244Y011057D01*
X023494Y011307D01*
X023994Y011307D01*
X024244Y011057D01*
X024494Y011307D01*
X024994Y011307D01*
X025244Y011057D01*
X025494Y011307D01*
X025994Y011307D01*
X026244Y011057D01*
X026494Y011307D01*
X026994Y011307D01*
X027244Y011057D01*
X027494Y011307D01*
X027994Y011307D01*
X028244Y011057D01*
X028494Y011307D01*
X028994Y011307D01*
X029244Y011057D01*
X029494Y011307D01*
X029994Y011307D01*
X030244Y011057D01*
X030494Y011307D01*
X030994Y011307D01*
X031244Y011057D01*
X031494Y011307D01*
X031994Y011307D01*
X032244Y011057D01*
X032494Y011307D01*
X032994Y011307D01*
X033244Y011057D01*
X033494Y011307D01*
X033994Y011307D01*
X034244Y011057D01*
X034244Y010557D01*
X033994Y010307D01*
X033494Y010307D01*
X033244Y010557D01*
X032994Y010307D01*
X032494Y010307D01*
X032244Y010557D01*
X031994Y010307D01*
X031494Y010307D01*
X031244Y010557D01*
X030994Y010307D01*
X030494Y010307D01*
X030244Y010557D01*
X029994Y010307D01*
X029494Y010307D01*
X029244Y010557D01*
X028994Y010307D01*
X028494Y010307D01*
X028244Y010557D01*
X027994Y010307D01*
X027494Y010307D01*
X027244Y010557D01*
X026994Y010307D01*
X026494Y010307D01*
X026244Y010557D01*
X025994Y010307D01*
X025494Y010307D01*
X025244Y010557D01*
X024994Y010307D01*
X024494Y010307D01*
X024244Y010557D01*
X023994Y010307D01*
X023494Y010307D01*
X023244Y010557D01*
X034794Y009607D02*
X035194Y009607D01*
X036127Y010001D02*
X036585Y011259D01*
X038361Y010612D01*
X037903Y009355D01*
X036127Y010001D01*
X034510Y009057D02*
X034512Y009119D01*
X034518Y009182D01*
X034528Y009243D01*
X034542Y009304D01*
X034559Y009364D01*
X034580Y009423D01*
X034606Y009480D01*
X034634Y009535D01*
X034666Y009589D01*
X034702Y009640D01*
X034740Y009690D01*
X034782Y009736D01*
X034826Y009780D01*
X034874Y009821D01*
X034923Y009859D01*
X034975Y009893D01*
X035029Y009924D01*
X035085Y009952D01*
X035143Y009976D01*
X035202Y009997D01*
X035262Y010013D01*
X035323Y010026D01*
X035385Y010035D01*
X035447Y010040D01*
X035510Y010041D01*
X035572Y010038D01*
X035634Y010031D01*
X035696Y010020D01*
X035756Y010005D01*
X035816Y009987D01*
X035874Y009965D01*
X035931Y009939D01*
X035986Y009909D01*
X036039Y009876D01*
X036090Y009840D01*
X036138Y009801D01*
X036184Y009758D01*
X036227Y009713D01*
X036267Y009665D01*
X036304Y009615D01*
X036338Y009562D01*
X036369Y009508D01*
X036395Y009452D01*
X036419Y009394D01*
X036438Y009334D01*
X036454Y009274D01*
X036466Y009212D01*
X036474Y009151D01*
X036478Y009088D01*
X036478Y009026D01*
X036474Y008963D01*
X036466Y008902D01*
X036454Y008840D01*
X036438Y008780D01*
X036419Y008720D01*
X036395Y008662D01*
X036369Y008606D01*
X036338Y008552D01*
X036304Y008499D01*
X036267Y008449D01*
X036227Y008401D01*
X036184Y008356D01*
X036138Y008313D01*
X036090Y008274D01*
X036039Y008238D01*
X035986Y008205D01*
X035931Y008175D01*
X035874Y008149D01*
X035816Y008127D01*
X035756Y008109D01*
X035696Y008094D01*
X035634Y008083D01*
X035572Y008076D01*
X035510Y008073D01*
X035447Y008074D01*
X035385Y008079D01*
X035323Y008088D01*
X035262Y008101D01*
X035202Y008117D01*
X035143Y008138D01*
X035085Y008162D01*
X035029Y008190D01*
X034975Y008221D01*
X034923Y008255D01*
X034874Y008293D01*
X034826Y008334D01*
X034782Y008378D01*
X034740Y008424D01*
X034702Y008474D01*
X034666Y008525D01*
X034634Y008579D01*
X034606Y008634D01*
X034580Y008691D01*
X034559Y008750D01*
X034542Y008810D01*
X034528Y008871D01*
X034518Y008932D01*
X034512Y008995D01*
X034510Y009057D01*
X034510Y006557D02*
X034512Y006619D01*
X034518Y006682D01*
X034528Y006743D01*
X034542Y006804D01*
X034559Y006864D01*
X034580Y006923D01*
X034606Y006980D01*
X034634Y007035D01*
X034666Y007089D01*
X034702Y007140D01*
X034740Y007190D01*
X034782Y007236D01*
X034826Y007280D01*
X034874Y007321D01*
X034923Y007359D01*
X034975Y007393D01*
X035029Y007424D01*
X035085Y007452D01*
X035143Y007476D01*
X035202Y007497D01*
X035262Y007513D01*
X035323Y007526D01*
X035385Y007535D01*
X035447Y007540D01*
X035510Y007541D01*
X035572Y007538D01*
X035634Y007531D01*
X035696Y007520D01*
X035756Y007505D01*
X035816Y007487D01*
X035874Y007465D01*
X035931Y007439D01*
X035986Y007409D01*
X036039Y007376D01*
X036090Y007340D01*
X036138Y007301D01*
X036184Y007258D01*
X036227Y007213D01*
X036267Y007165D01*
X036304Y007115D01*
X036338Y007062D01*
X036369Y007008D01*
X036395Y006952D01*
X036419Y006894D01*
X036438Y006834D01*
X036454Y006774D01*
X036466Y006712D01*
X036474Y006651D01*
X036478Y006588D01*
X036478Y006526D01*
X036474Y006463D01*
X036466Y006402D01*
X036454Y006340D01*
X036438Y006280D01*
X036419Y006220D01*
X036395Y006162D01*
X036369Y006106D01*
X036338Y006052D01*
X036304Y005999D01*
X036267Y005949D01*
X036227Y005901D01*
X036184Y005856D01*
X036138Y005813D01*
X036090Y005774D01*
X036039Y005738D01*
X035986Y005705D01*
X035931Y005675D01*
X035874Y005649D01*
X035816Y005627D01*
X035756Y005609D01*
X035696Y005594D01*
X035634Y005583D01*
X035572Y005576D01*
X035510Y005573D01*
X035447Y005574D01*
X035385Y005579D01*
X035323Y005588D01*
X035262Y005601D01*
X035202Y005617D01*
X035143Y005638D01*
X035085Y005662D01*
X035029Y005690D01*
X034975Y005721D01*
X034923Y005755D01*
X034874Y005793D01*
X034826Y005834D01*
X034782Y005878D01*
X034740Y005924D01*
X034702Y005974D01*
X034666Y006025D01*
X034634Y006079D01*
X034606Y006134D01*
X034580Y006191D01*
X034559Y006250D01*
X034542Y006310D01*
X034528Y006371D01*
X034518Y006432D01*
X034512Y006495D01*
X034510Y006557D01*
X035794Y006007D02*
X036194Y006007D01*
X036127Y005612D02*
X036585Y004355D01*
X038361Y005001D01*
X037903Y006259D01*
X036127Y005612D01*
X030244Y004807D02*
X030244Y004307D01*
X029994Y004057D01*
X029494Y004057D01*
X029244Y004307D01*
X028994Y004057D01*
X028494Y004057D01*
X028244Y004307D01*
X027994Y004057D01*
X027494Y004057D01*
X027244Y004307D01*
X026994Y004057D01*
X026494Y004057D01*
X026244Y004307D01*
X025994Y004057D01*
X025494Y004057D01*
X025244Y004307D01*
X024994Y004057D01*
X024494Y004057D01*
X024244Y004307D01*
X023994Y004057D01*
X023494Y004057D01*
X023244Y004307D01*
X023244Y004807D01*
X023494Y005057D01*
X023994Y005057D01*
X024244Y004807D01*
X024494Y005057D01*
X024994Y005057D01*
X025244Y004807D01*
X025494Y005057D01*
X025994Y005057D01*
X026244Y004807D01*
X026494Y005057D01*
X026994Y005057D01*
X027244Y004807D01*
X027494Y005057D01*
X027994Y005057D01*
X028244Y004807D01*
X028494Y005057D01*
X028994Y005057D01*
X029244Y004807D01*
X029494Y005057D01*
X029994Y005057D01*
X030244Y004807D01*
D13*
X033270Y006096D02*
X033270Y006241D01*
X033318Y006289D01*
X033415Y006289D01*
X033463Y006241D01*
X033463Y006096D01*
X033463Y006193D02*
X033560Y006289D01*
X033560Y006391D02*
X033511Y006391D01*
X033318Y006584D01*
X033270Y006584D01*
X033270Y006391D01*
X033270Y006096D02*
X033560Y006096D01*
X034838Y006952D02*
X035032Y006952D01*
X034935Y006952D02*
X034935Y007242D01*
X034838Y007145D01*
X035133Y007194D02*
X035133Y007000D01*
X035326Y007194D01*
X035326Y007000D01*
X035278Y006952D01*
X035181Y006952D01*
X035133Y007000D01*
X035133Y007194D02*
X035181Y007242D01*
X035278Y007242D01*
X035326Y007194D01*
X035428Y007145D02*
X035428Y007000D01*
X035476Y006952D01*
X035621Y006952D01*
X035621Y007145D01*
X035722Y007097D02*
X035819Y007097D01*
X035771Y007194D02*
X035819Y007242D01*
X035771Y007194D02*
X035771Y006952D01*
X037566Y005561D02*
X037723Y005618D01*
X037644Y005590D02*
X037730Y005355D01*
X037569Y005296D02*
X037490Y005267D01*
X037529Y005282D02*
X037444Y005517D01*
X037405Y005503D02*
X037483Y005531D01*
X037333Y005432D02*
X037280Y005457D01*
X037162Y005414D01*
X037248Y005179D01*
X037219Y005258D02*
X037337Y005300D01*
X037362Y005354D01*
X037333Y005432D01*
X037298Y005286D02*
X037405Y005236D01*
X037162Y005148D02*
X037055Y005198D01*
X037095Y005212D02*
X036977Y005170D01*
X037006Y005091D02*
X036920Y005326D01*
X037038Y005369D01*
X037091Y005344D01*
X037120Y005266D01*
X037095Y005212D01*
X036920Y005060D02*
X036763Y005003D01*
X036678Y005238D01*
X036835Y005295D01*
X036799Y005149D02*
X036721Y005121D01*
X036592Y005207D02*
X036436Y005150D01*
X036521Y004915D01*
X036478Y005032D02*
X036557Y005061D01*
X037808Y005650D02*
X037894Y005414D01*
X038051Y005472D01*
X037930Y005561D02*
X037851Y005532D01*
X037808Y005650D02*
X037965Y005707D01*
X036051Y008362D02*
X036051Y008604D01*
X036099Y008652D01*
X036099Y008507D02*
X036003Y008507D01*
X035902Y008555D02*
X035902Y008362D01*
X035756Y008362D01*
X035708Y008410D01*
X035708Y008555D01*
X035607Y008604D02*
X035413Y008410D01*
X035462Y008362D01*
X035558Y008362D01*
X035607Y008410D01*
X035607Y008604D01*
X035558Y008652D01*
X035462Y008652D01*
X035413Y008604D01*
X035413Y008410D01*
X035312Y008362D02*
X035119Y008362D01*
X035215Y008362D02*
X035215Y008652D01*
X035119Y008555D01*
X037647Y010031D02*
X037733Y010266D01*
X037811Y010238D02*
X037654Y010295D01*
X037571Y010325D02*
X037493Y010353D01*
X037532Y010339D02*
X037446Y010104D01*
X037407Y010118D02*
X037486Y010090D01*
X037322Y010149D02*
X037272Y010256D01*
X037311Y010242D02*
X037194Y010285D01*
X037165Y010206D02*
X037251Y010442D01*
X037368Y010399D01*
X037393Y010345D01*
X037365Y010267D01*
X037311Y010242D01*
X037122Y010355D02*
X037069Y010330D01*
X036951Y010373D01*
X036923Y010295D02*
X037008Y010530D01*
X037126Y010487D01*
X037151Y010433D01*
X037122Y010355D01*
X037030Y010344D02*
X037080Y010238D01*
X036837Y010326D02*
X036680Y010383D01*
X036766Y010618D01*
X036923Y010561D01*
X036802Y010472D02*
X036723Y010500D01*
X036681Y010649D02*
X036524Y010706D01*
X036438Y010471D01*
X036481Y010589D02*
X036559Y010560D01*
X037854Y010089D02*
X037932Y010060D01*
X037811Y009971D02*
X037968Y009914D01*
X037811Y009971D02*
X037897Y010206D01*
X038053Y010149D01*
X019771Y005031D02*
X019578Y005031D01*
X019578Y004886D01*
X019674Y004934D01*
X019723Y004934D01*
X019771Y004886D01*
X019771Y004789D01*
X019723Y004741D01*
X019626Y004741D01*
X019578Y004789D01*
X019476Y004741D02*
X019380Y004837D01*
X019428Y004837D02*
X019283Y004837D01*
X019283Y004741D02*
X019283Y005031D01*
X019428Y005031D01*
X019476Y004982D01*
X019476Y004886D01*
X019428Y004837D01*
X018060Y006096D02*
X017770Y006096D01*
X017770Y006241D01*
X017818Y006289D01*
X017915Y006289D01*
X017963Y006241D01*
X017963Y006096D01*
X017963Y006193D02*
X018060Y006289D01*
X017915Y006391D02*
X017915Y006584D01*
X018060Y006536D02*
X017770Y006536D01*
X017915Y006391D01*
X017060Y006439D02*
X017011Y006391D01*
X017060Y006439D02*
X017060Y006536D01*
X017011Y006584D01*
X016963Y006584D01*
X016915Y006536D01*
X016915Y006487D01*
X016915Y006536D02*
X016866Y006584D01*
X016818Y006584D01*
X016770Y006536D01*
X016770Y006439D01*
X016818Y006391D01*
X016818Y006289D02*
X016915Y006289D01*
X016963Y006241D01*
X016963Y006096D01*
X016963Y006193D02*
X017060Y006289D01*
X017060Y006096D02*
X016770Y006096D01*
X016770Y006241D01*
X016818Y006289D01*
X007810Y006346D02*
X007520Y006346D01*
X007520Y006491D01*
X007568Y006539D01*
X007665Y006539D01*
X007713Y006491D01*
X007713Y006346D01*
X007713Y006443D02*
X007810Y006539D01*
X007810Y006641D02*
X007616Y006834D01*
X007568Y006834D01*
X007520Y006786D01*
X007520Y006689D01*
X007568Y006641D01*
X007810Y006641D02*
X007810Y006834D01*
X005810Y006834D02*
X005810Y006641D01*
X005810Y006737D02*
X005520Y006737D01*
X005616Y006641D01*
X005568Y006539D02*
X005520Y006491D01*
X005520Y006346D01*
X005810Y006346D01*
X005713Y006346D02*
X005713Y006491D01*
X005665Y006539D01*
X005568Y006539D01*
X005713Y006443D02*
X005810Y006539D01*
D14*
X005946Y006794D02*
X006197Y006543D01*
X006197Y006877D01*
X006363Y007059D02*
X006447Y007059D01*
X006363Y007059D02*
X006030Y007393D01*
X005946Y007393D01*
X005946Y007059D01*
X005344Y007207D02*
X004644Y007207D01*
X004644Y008407D01*
X005344Y008407D01*
X005344Y007207D01*
X004994Y007607D02*
X004994Y007757D01*
X005194Y007757D01*
X004994Y007757D02*
X004794Y007757D01*
X004994Y007757D02*
X004794Y008157D01*
X005194Y008157D01*
X004994Y007757D01*
X004994Y008307D01*
X004344Y008407D02*
X003644Y008407D01*
X003644Y007207D01*
X004344Y007207D01*
X004344Y008407D01*
X003994Y008007D02*
X003994Y007857D01*
X003794Y007857D01*
X003994Y007857D02*
X004194Y007857D01*
X003994Y007857D02*
X004194Y007457D01*
X003794Y007457D01*
X003994Y007857D01*
X003994Y007307D01*
X005946Y007575D02*
X005946Y007825D01*
X006030Y007908D01*
X006197Y007908D01*
X006280Y007825D01*
X006280Y007575D01*
X006280Y007742D02*
X006447Y007908D01*
X006447Y007575D02*
X005946Y007575D01*
X007946Y007575D02*
X007946Y007825D01*
X008030Y007908D01*
X008197Y007908D01*
X008280Y007825D01*
X008280Y007575D01*
X008280Y007742D02*
X008447Y007908D01*
X008644Y007907D02*
X009344Y007907D01*
X009344Y006707D01*
X008644Y006707D01*
X008644Y007907D01*
X008994Y007807D02*
X008994Y007257D01*
X009194Y007257D01*
X008994Y007257D02*
X008794Y007257D01*
X008994Y007257D02*
X008994Y007107D01*
X008994Y007257D02*
X008794Y007657D01*
X009194Y007657D01*
X008994Y007257D01*
X008447Y007059D02*
X008363Y007059D01*
X008030Y007393D01*
X007946Y007393D01*
X007946Y007059D01*
X008197Y006877D02*
X008197Y006543D01*
X007946Y006794D01*
X008447Y006794D01*
X009644Y006707D02*
X010344Y006707D01*
X010344Y007907D01*
X009644Y007907D01*
X009644Y006707D01*
X009994Y006807D02*
X009994Y007357D01*
X009794Y007357D01*
X009994Y007357D02*
X010194Y007357D01*
X009994Y007357D02*
X010194Y006957D01*
X009794Y006957D01*
X009994Y007357D01*
X009994Y007507D01*
X010844Y007631D02*
X010844Y005982D01*
X011394Y005919D02*
X011394Y005761D01*
X012783Y005785D02*
X012783Y006078D01*
X012857Y006078D01*
X013150Y005785D01*
X013224Y005785D01*
X013150Y006245D02*
X013077Y006245D01*
X013004Y006319D01*
X013004Y006465D01*
X013077Y006539D01*
X013150Y006539D01*
X013224Y006465D01*
X013224Y006319D01*
X013150Y006245D01*
X013004Y006319D02*
X012930Y006245D01*
X012857Y006245D01*
X012783Y006319D01*
X012783Y006465D01*
X012857Y006539D01*
X012930Y006539D01*
X013004Y006465D01*
X013150Y006706D02*
X012857Y006999D01*
X013150Y006999D01*
X013224Y006926D01*
X013224Y006779D01*
X013150Y006706D01*
X012857Y006706D01*
X012783Y006779D01*
X012783Y006926D01*
X012857Y006999D01*
X012783Y007166D02*
X013004Y007166D01*
X012930Y007313D01*
X012930Y007386D01*
X013004Y007459D01*
X013150Y007459D01*
X013224Y007386D01*
X013224Y007239D01*
X013150Y007166D01*
X012783Y007166D02*
X012783Y007459D01*
X012783Y007626D02*
X013224Y007626D01*
X013224Y007920D01*
X011394Y007852D02*
X011394Y007694D01*
X011394Y006919D02*
X011394Y006694D01*
X008444Y006249D02*
X008442Y006232D01*
X008438Y006215D01*
X008431Y006199D01*
X008421Y006185D01*
X008408Y006172D01*
X008394Y006162D01*
X008378Y006155D01*
X008361Y006151D01*
X008344Y006149D01*
X007644Y006149D01*
X007627Y006151D01*
X007610Y006155D01*
X007594Y006162D01*
X007580Y006172D01*
X007567Y006185D01*
X007557Y006199D01*
X007550Y006215D01*
X007546Y006232D01*
X007544Y006249D01*
X006444Y006249D02*
X006442Y006232D01*
X006438Y006215D01*
X006431Y006199D01*
X006421Y006185D01*
X006408Y006172D01*
X006394Y006162D01*
X006378Y006155D01*
X006361Y006151D01*
X006344Y006149D01*
X005644Y006149D01*
X005627Y006151D01*
X005610Y006155D01*
X005594Y006162D01*
X005580Y006172D01*
X005567Y006185D01*
X005557Y006199D01*
X005550Y006215D01*
X005546Y006232D01*
X005544Y006249D01*
X005946Y006794D02*
X006447Y006794D01*
X007946Y007575D02*
X008447Y007575D01*
X008444Y009390D02*
X008442Y009407D01*
X008438Y009424D01*
X008431Y009440D01*
X008421Y009454D01*
X008408Y009467D01*
X008394Y009477D01*
X008378Y009484D01*
X008361Y009488D01*
X008344Y009490D01*
X007683Y009490D01*
X007666Y009488D01*
X007649Y009484D01*
X007633Y009477D01*
X007619Y009467D01*
X007606Y009454D01*
X007596Y009440D01*
X007589Y009424D01*
X007585Y009407D01*
X007583Y009390D01*
X006444Y009390D02*
X006442Y009407D01*
X006438Y009424D01*
X006431Y009440D01*
X006421Y009454D01*
X006408Y009467D01*
X006394Y009477D01*
X006378Y009484D01*
X006361Y009488D01*
X006344Y009490D01*
X005683Y009490D01*
X005666Y009488D01*
X005649Y009484D01*
X005633Y009477D01*
X005619Y009467D01*
X005606Y009454D01*
X005596Y009440D01*
X005589Y009424D01*
X005585Y009407D01*
X005583Y009390D01*
X015744Y008907D02*
X015744Y006207D01*
X015746Y006190D01*
X015750Y006173D01*
X015757Y006157D01*
X015767Y006143D01*
X015780Y006130D01*
X015794Y006120D01*
X015810Y006113D01*
X015827Y006109D01*
X015844Y006107D01*
X016644Y006107D01*
X016661Y006109D01*
X016678Y006113D01*
X016694Y006120D01*
X016708Y006130D01*
X016721Y006143D01*
X016731Y006157D01*
X016738Y006173D01*
X016742Y006190D01*
X016744Y006207D01*
X016744Y008907D01*
X016742Y008924D01*
X016738Y008941D01*
X016731Y008957D01*
X016721Y008971D01*
X016708Y008984D01*
X016694Y008994D01*
X016678Y009001D01*
X016661Y009005D01*
X016644Y009007D01*
X015844Y009007D01*
X015827Y009005D01*
X015810Y009001D01*
X015794Y008994D01*
X015780Y008984D01*
X015767Y008971D01*
X015757Y008957D01*
X015750Y008941D01*
X015746Y008924D01*
X015744Y008907D01*
X016833Y009140D02*
X016835Y009157D01*
X016839Y009174D01*
X016846Y009190D01*
X016856Y009204D01*
X016869Y009217D01*
X016883Y009227D01*
X016899Y009234D01*
X016916Y009238D01*
X016933Y009240D01*
X017594Y009240D01*
X017611Y009238D01*
X017628Y009234D01*
X017644Y009227D01*
X017658Y009217D01*
X017671Y009204D01*
X017681Y009190D01*
X017688Y009174D01*
X017692Y009157D01*
X017694Y009140D01*
X017833Y009140D02*
X017835Y009157D01*
X017839Y009174D01*
X017846Y009190D01*
X017856Y009204D01*
X017869Y009217D01*
X017883Y009227D01*
X017899Y009234D01*
X017916Y009238D01*
X017933Y009240D01*
X018594Y009240D01*
X018611Y009238D01*
X018628Y009234D01*
X018644Y009227D01*
X018658Y009217D01*
X018671Y009204D01*
X018681Y009190D01*
X018688Y009174D01*
X018692Y009157D01*
X018694Y009140D01*
X019744Y008907D02*
X019744Y006207D01*
X019746Y006190D01*
X019750Y006173D01*
X019757Y006157D01*
X019767Y006143D01*
X019780Y006130D01*
X019794Y006120D01*
X019810Y006113D01*
X019827Y006109D01*
X019844Y006107D01*
X020644Y006107D01*
X020661Y006109D01*
X020678Y006113D01*
X020694Y006120D01*
X020708Y006130D01*
X020721Y006143D01*
X020731Y006157D01*
X020738Y006173D01*
X020742Y006190D01*
X020744Y006207D01*
X020744Y008907D01*
X020742Y008924D01*
X020738Y008941D01*
X020731Y008957D01*
X020721Y008971D01*
X020708Y008984D01*
X020694Y008994D01*
X020678Y009001D01*
X020661Y009005D01*
X020644Y009007D01*
X019844Y009007D01*
X019827Y009005D01*
X019810Y009001D01*
X019794Y008994D01*
X019780Y008984D01*
X019767Y008971D01*
X019757Y008957D01*
X019750Y008941D01*
X019746Y008924D01*
X019744Y008907D01*
X019487Y008752D02*
X019513Y008750D01*
X019539Y008745D01*
X019564Y008737D01*
X019587Y008725D01*
X019609Y008711D01*
X019628Y008693D01*
X019646Y008674D01*
X019660Y008652D01*
X019672Y008629D01*
X019680Y008604D01*
X019685Y008578D01*
X019687Y008552D01*
X019014Y008767D02*
X018988Y008765D01*
X018962Y008760D01*
X018937Y008752D01*
X018914Y008740D01*
X018892Y008726D01*
X018873Y008708D01*
X018855Y008689D01*
X018841Y008667D01*
X018829Y008644D01*
X018821Y008619D01*
X018816Y008593D01*
X018814Y008567D01*
X020814Y008517D02*
X020816Y008543D01*
X020821Y008569D01*
X020829Y008594D01*
X020841Y008617D01*
X020855Y008639D01*
X020873Y008658D01*
X020892Y008676D01*
X020914Y008690D01*
X020937Y008702D01*
X020962Y008710D01*
X020988Y008715D01*
X021014Y008717D01*
X021487Y008702D02*
X021513Y008700D01*
X021539Y008695D01*
X021564Y008687D01*
X021587Y008675D01*
X021609Y008661D01*
X021628Y008643D01*
X021646Y008624D01*
X021660Y008602D01*
X021672Y008579D01*
X021680Y008554D01*
X021685Y008528D01*
X021687Y008502D01*
X021994Y008207D02*
X021994Y008957D01*
X028994Y008957D01*
X028994Y006657D01*
X021994Y006657D01*
X021994Y007407D01*
X022033Y007409D01*
X022072Y007415D01*
X022110Y007424D01*
X022147Y007437D01*
X022183Y007454D01*
X022216Y007474D01*
X022248Y007498D01*
X022277Y007524D01*
X022303Y007553D01*
X022327Y007585D01*
X022347Y007618D01*
X022364Y007654D01*
X022377Y007691D01*
X022386Y007729D01*
X022392Y007768D01*
X022394Y007807D01*
X022392Y007846D01*
X022386Y007885D01*
X022377Y007923D01*
X022364Y007960D01*
X022347Y007996D01*
X022327Y008029D01*
X022303Y008061D01*
X022277Y008090D01*
X022248Y008116D01*
X022216Y008140D01*
X022183Y008160D01*
X022147Y008177D01*
X022110Y008190D01*
X022072Y008199D01*
X022033Y008205D01*
X021994Y008207D01*
X018697Y007833D02*
X018530Y007583D01*
X018363Y007833D01*
X018196Y007583D02*
X018697Y007583D01*
X018697Y007401D02*
X018697Y007067D01*
X018363Y007401D01*
X018280Y007401D01*
X018196Y007317D01*
X018196Y007150D01*
X018280Y007067D01*
X018613Y006893D02*
X018697Y006893D01*
X018697Y006809D01*
X018613Y006809D01*
X018613Y006893D01*
X018613Y006627D02*
X018697Y006544D01*
X018697Y006377D01*
X018613Y006293D01*
X018530Y006293D01*
X018447Y006377D01*
X018447Y006544D01*
X018530Y006627D01*
X018613Y006627D01*
X018447Y006544D02*
X018363Y006627D01*
X018280Y006627D01*
X018196Y006544D01*
X018196Y006377D01*
X018280Y006293D01*
X018363Y006293D01*
X018447Y006377D01*
X018694Y005999D02*
X018692Y005982D01*
X018688Y005965D01*
X018681Y005949D01*
X018671Y005935D01*
X018658Y005922D01*
X018644Y005912D01*
X018628Y005905D01*
X018611Y005901D01*
X018594Y005899D01*
X017894Y005899D01*
X017877Y005901D01*
X017860Y005905D01*
X017844Y005912D01*
X017830Y005922D01*
X017817Y005935D01*
X017807Y005949D01*
X017800Y005965D01*
X017796Y005982D01*
X017794Y005999D01*
X017694Y005999D02*
X017692Y005982D01*
X017688Y005965D01*
X017681Y005949D01*
X017671Y005935D01*
X017658Y005922D01*
X017644Y005912D01*
X017628Y005905D01*
X017611Y005901D01*
X017594Y005899D01*
X016894Y005899D01*
X016877Y005901D01*
X016860Y005905D01*
X016844Y005912D01*
X016830Y005922D01*
X016817Y005935D01*
X016807Y005949D01*
X016800Y005965D01*
X016796Y005982D01*
X016794Y005999D01*
X017196Y006377D02*
X017196Y006544D01*
X017280Y006627D01*
X017363Y006627D01*
X017447Y006544D01*
X017447Y006377D01*
X017363Y006293D01*
X017280Y006293D01*
X017196Y006377D01*
X017447Y006377D02*
X017530Y006293D01*
X017613Y006293D01*
X017697Y006377D01*
X017697Y006544D01*
X017613Y006627D01*
X017530Y006627D01*
X017447Y006544D01*
X017613Y006809D02*
X017613Y006893D01*
X017697Y006893D01*
X017697Y006809D01*
X017613Y006809D01*
X017697Y007067D02*
X017363Y007401D01*
X017280Y007401D01*
X017196Y007317D01*
X017196Y007150D01*
X017280Y007067D01*
X017697Y007067D02*
X017697Y007401D01*
X017697Y007583D02*
X017196Y007583D01*
X017363Y007833D02*
X017530Y007583D01*
X017697Y007833D01*
X018807Y006557D02*
X018809Y006531D01*
X018814Y006505D01*
X018822Y006480D01*
X018834Y006457D01*
X018848Y006435D01*
X018866Y006416D01*
X018885Y006398D01*
X018907Y006384D01*
X018930Y006372D01*
X018955Y006364D01*
X018981Y006359D01*
X019007Y006357D01*
X019477Y006350D02*
X019503Y006352D01*
X019529Y006357D01*
X019554Y006365D01*
X019577Y006377D01*
X019599Y006391D01*
X019618Y006409D01*
X019636Y006428D01*
X019650Y006450D01*
X019662Y006473D01*
X019670Y006498D01*
X019675Y006524D01*
X019677Y006550D01*
X020807Y006507D02*
X020809Y006481D01*
X020814Y006455D01*
X020822Y006430D01*
X020834Y006407D01*
X020848Y006385D01*
X020866Y006366D01*
X020885Y006348D01*
X020907Y006334D01*
X020930Y006322D01*
X020955Y006314D01*
X020981Y006309D01*
X021007Y006307D01*
X021477Y006300D02*
X021503Y006302D01*
X021529Y006307D01*
X021554Y006315D01*
X021577Y006327D01*
X021599Y006341D01*
X021618Y006359D01*
X021636Y006378D01*
X021650Y006400D01*
X021662Y006423D01*
X021670Y006448D01*
X021675Y006474D01*
X021677Y006500D01*
X022327Y004967D02*
X022344Y004965D01*
X022361Y004961D01*
X022377Y004954D01*
X022391Y004944D01*
X022404Y004931D01*
X022414Y004917D01*
X022421Y004901D01*
X022425Y004884D01*
X022427Y004867D01*
X022427Y004207D01*
X022425Y004190D01*
X022421Y004173D01*
X022414Y004157D01*
X022404Y004143D01*
X022391Y004130D01*
X022377Y004120D01*
X022361Y004113D01*
X022344Y004109D01*
X022327Y004107D01*
X021361Y004104D02*
X021111Y004354D01*
X021027Y004270D02*
X021361Y004604D01*
X021027Y004604D02*
X021027Y004104D01*
X020845Y004187D02*
X020762Y004104D01*
X020595Y004104D01*
X020512Y004187D01*
X020845Y004521D01*
X020845Y004187D01*
X020512Y004187D02*
X020512Y004521D01*
X020595Y004604D01*
X020762Y004604D01*
X020845Y004521D01*
X020330Y004521D02*
X020330Y004437D01*
X020246Y004354D01*
X020330Y004270D01*
X020330Y004187D01*
X020246Y004104D01*
X020080Y004104D01*
X019996Y004187D01*
X019814Y004187D02*
X019731Y004104D01*
X019564Y004104D01*
X019480Y004187D01*
X019647Y004354D02*
X019731Y004354D01*
X019814Y004270D01*
X019814Y004187D01*
X019731Y004354D02*
X019814Y004437D01*
X019814Y004521D01*
X019731Y004604D01*
X019564Y004604D01*
X019480Y004521D01*
X019996Y004521D02*
X020080Y004604D01*
X020246Y004604D01*
X020330Y004521D01*
X020246Y004354D02*
X020163Y004354D01*
X019186Y004107D02*
X019169Y004109D01*
X019152Y004113D01*
X019136Y004120D01*
X019122Y004130D01*
X019109Y004143D01*
X019099Y004157D01*
X019092Y004173D01*
X019088Y004190D01*
X019086Y004207D01*
X019086Y004907D01*
X019088Y004924D01*
X019092Y004941D01*
X019099Y004957D01*
X019109Y004971D01*
X019122Y004984D01*
X019136Y004994D01*
X019152Y005001D01*
X019169Y005005D01*
X019186Y005007D01*
X018201Y004790D02*
X018199Y004816D01*
X018194Y004842D01*
X018186Y004867D01*
X018174Y004890D01*
X018160Y004912D01*
X018142Y004931D01*
X018123Y004949D01*
X018101Y004963D01*
X018078Y004975D01*
X018053Y004983D01*
X018027Y004988D01*
X018001Y004990D01*
X018194Y004320D02*
X018192Y004294D01*
X018187Y004268D01*
X018179Y004243D01*
X018167Y004220D01*
X018153Y004198D01*
X018135Y004179D01*
X018116Y004161D01*
X018094Y004147D01*
X018071Y004135D01*
X018046Y004127D01*
X018020Y004122D01*
X017994Y004120D01*
X015983Y004127D02*
X015957Y004129D01*
X015931Y004134D01*
X015906Y004142D01*
X015883Y004154D01*
X015861Y004168D01*
X015842Y004186D01*
X015824Y004205D01*
X015810Y004227D01*
X015798Y004250D01*
X015790Y004275D01*
X015785Y004301D01*
X015783Y004327D01*
X015799Y004800D02*
X015801Y004826D01*
X015806Y004852D01*
X015814Y004877D01*
X015826Y004900D01*
X015840Y004922D01*
X015858Y004941D01*
X015877Y004959D01*
X015899Y004973D01*
X015922Y004985D01*
X015947Y004993D01*
X015973Y004998D01*
X015999Y005000D01*
X029300Y006812D02*
X029302Y006786D01*
X029307Y006760D01*
X029315Y006735D01*
X029327Y006712D01*
X029341Y006690D01*
X029359Y006671D01*
X029378Y006653D01*
X029400Y006639D01*
X029423Y006627D01*
X029448Y006619D01*
X029474Y006614D01*
X029500Y006612D01*
X029973Y006596D02*
X029999Y006598D01*
X030025Y006603D01*
X030050Y006611D01*
X030073Y006623D01*
X030095Y006637D01*
X030114Y006655D01*
X030132Y006674D01*
X030146Y006696D01*
X030158Y006719D01*
X030166Y006744D01*
X030171Y006770D01*
X030173Y006796D01*
X033294Y005999D02*
X033296Y005982D01*
X033300Y005965D01*
X033307Y005949D01*
X033317Y005935D01*
X033330Y005922D01*
X033344Y005912D01*
X033360Y005905D01*
X033377Y005901D01*
X033394Y005899D01*
X034094Y005899D01*
X034111Y005901D01*
X034128Y005905D01*
X034144Y005912D01*
X034158Y005922D01*
X034171Y005935D01*
X034181Y005949D01*
X034188Y005965D01*
X034192Y005982D01*
X034194Y005999D01*
X034197Y006293D02*
X034197Y006627D01*
X034197Y006460D02*
X033696Y006460D01*
X033863Y006293D01*
X033696Y006809D02*
X034197Y006809D01*
X034030Y006809D02*
X033863Y007059D01*
X034030Y006809D02*
X034197Y007059D01*
X030180Y008807D02*
X030178Y008833D01*
X030173Y008859D01*
X030165Y008884D01*
X030153Y008907D01*
X030139Y008929D01*
X030121Y008948D01*
X030102Y008966D01*
X030080Y008980D01*
X030057Y008992D01*
X030032Y009000D01*
X030006Y009005D01*
X029980Y009007D01*
X029511Y009014D02*
X029485Y009012D01*
X029459Y009007D01*
X029434Y008999D01*
X029411Y008987D01*
X029389Y008973D01*
X029370Y008955D01*
X029352Y008936D01*
X029338Y008914D01*
X029326Y008891D01*
X029318Y008866D01*
X029313Y008840D01*
X029311Y008814D01*
X033333Y009140D02*
X033335Y009157D01*
X033339Y009174D01*
X033346Y009190D01*
X033356Y009204D01*
X033369Y009217D01*
X033383Y009227D01*
X033399Y009234D01*
X033416Y009238D01*
X033433Y009240D01*
X034094Y009240D01*
X034111Y009238D01*
X034128Y009234D01*
X034144Y009227D01*
X034158Y009217D01*
X034171Y009204D01*
X034181Y009190D01*
X034188Y009174D01*
X034192Y009157D01*
X034194Y009140D01*
X039944Y010557D02*
X039944Y011557D01*
X041544Y011557D01*
X041544Y010557D01*
X039944Y010557D01*
X040744Y010807D02*
X040744Y011057D01*
X040744Y011307D01*
X040744Y011057D02*
X041144Y011307D01*
X041144Y010807D01*
X040744Y011057D01*
X041344Y011057D01*
X040744Y011057D02*
X040494Y011057D01*
X040444Y010357D02*
X040294Y010357D01*
X040294Y009757D01*
X040296Y009731D01*
X040301Y009705D01*
X040309Y009680D01*
X040321Y009657D01*
X040335Y009635D01*
X040353Y009616D01*
X040372Y009598D01*
X040394Y009584D01*
X040417Y009572D01*
X040442Y009564D01*
X040468Y009559D01*
X040494Y009557D01*
X042994Y009557D01*
X043020Y009559D01*
X043046Y009564D01*
X043071Y009572D01*
X043094Y009584D01*
X043116Y009598D01*
X043135Y009616D01*
X043153Y009635D01*
X043167Y009657D01*
X043179Y009680D01*
X043187Y009705D01*
X043192Y009731D01*
X043194Y009757D01*
X043194Y010357D01*
X043044Y010357D01*
X042444Y010357D02*
X041044Y010357D01*
X040794Y005857D02*
X042194Y005857D01*
X042794Y005857D02*
X042944Y005857D01*
X042944Y005257D01*
X042942Y005231D01*
X042937Y005205D01*
X042929Y005180D01*
X042917Y005157D01*
X042903Y005135D01*
X042885Y005116D01*
X042866Y005098D01*
X042844Y005084D01*
X042821Y005072D01*
X042796Y005064D01*
X042770Y005059D01*
X042744Y005057D01*
X040244Y005057D01*
X040218Y005059D01*
X040192Y005064D01*
X040167Y005072D01*
X040144Y005084D01*
X040122Y005098D01*
X040103Y005116D01*
X040085Y005135D01*
X040071Y005157D01*
X040059Y005180D01*
X040051Y005205D01*
X040046Y005231D01*
X040044Y005257D01*
X040044Y005857D01*
X040194Y005857D01*
X039944Y005057D02*
X039944Y004057D01*
X041544Y004057D01*
X041544Y005057D01*
X039944Y005057D01*
X040344Y004807D02*
X040744Y004557D01*
X040744Y004807D01*
X040344Y004807D02*
X040344Y004307D01*
X040744Y004557D01*
X040744Y004307D01*
X040744Y004557D02*
X040144Y004557D01*
X040744Y004557D02*
X040994Y004557D01*
D15*
X030126Y007101D02*
X030126Y007341D01*
X030126Y007221D02*
X029766Y007221D01*
X029886Y007101D01*
X029605Y007168D02*
X029605Y007288D01*
X029545Y007348D01*
X029545Y007476D02*
X029485Y007476D01*
X029425Y007536D01*
X029425Y007656D01*
X029485Y007717D01*
X029545Y007717D01*
X029605Y007656D01*
X029605Y007536D01*
X029545Y007476D01*
X029425Y007536D02*
X029365Y007476D01*
X029305Y007476D01*
X029245Y007536D01*
X029245Y007656D01*
X029305Y007717D01*
X029365Y007717D01*
X029425Y007656D01*
X029766Y007650D02*
X029826Y007710D01*
X030066Y007470D01*
X030126Y007530D01*
X030126Y007650D01*
X030066Y007710D01*
X029826Y007710D01*
X029766Y007650D02*
X029766Y007530D01*
X029826Y007470D01*
X030066Y007470D01*
X029605Y007168D02*
X029545Y007108D01*
X029305Y007108D01*
X029245Y007168D01*
X029245Y007288D01*
X029305Y007348D01*
X029826Y007838D02*
X029766Y007898D01*
X029766Y008018D01*
X029826Y008078D01*
X030066Y007838D01*
X030126Y007898D01*
X030126Y008018D01*
X030066Y008078D01*
X029826Y008078D01*
X029886Y008206D02*
X029886Y008386D01*
X029946Y008446D01*
X030126Y008446D01*
X030126Y008206D02*
X029886Y008206D01*
X029826Y007838D02*
X030066Y007838D01*
X021742Y007937D02*
X021682Y007877D01*
X021742Y007937D02*
X021742Y008057D01*
X021682Y008117D01*
X021562Y008117D01*
X021502Y008057D01*
X021502Y007997D01*
X021562Y007877D01*
X021382Y007877D01*
X021382Y008117D01*
X021221Y008124D02*
X021041Y008124D01*
X020981Y008064D01*
X020981Y007884D01*
X021221Y007884D01*
X021161Y007756D02*
X020921Y007756D01*
X021161Y007516D01*
X021221Y007576D01*
X021221Y007696D01*
X021161Y007756D01*
X021382Y007689D02*
X021382Y007569D01*
X021442Y007509D01*
X021682Y007509D01*
X021742Y007569D01*
X021742Y007689D01*
X021682Y007749D01*
X021442Y007749D02*
X021382Y007689D01*
X021161Y007516D02*
X020921Y007516D01*
X020861Y007576D01*
X020861Y007696D01*
X020921Y007756D01*
X020674Y007670D02*
X020614Y007730D01*
X020674Y007670D02*
X020674Y007550D01*
X020614Y007490D01*
X020373Y007490D01*
X020313Y007550D01*
X020313Y007670D01*
X020373Y007730D01*
X020373Y007858D02*
X020313Y007918D01*
X020313Y008039D01*
X020373Y008099D01*
X020433Y008099D01*
X020494Y008039D01*
X020554Y008099D01*
X020614Y008099D01*
X020674Y008039D01*
X020674Y007918D01*
X020614Y007858D01*
X020494Y007978D02*
X020494Y008039D01*
X020174Y008099D02*
X019994Y008099D01*
X019933Y008039D01*
X019933Y007858D01*
X020174Y007858D01*
X020114Y007730D02*
X019873Y007730D01*
X020114Y007490D01*
X020174Y007550D01*
X020174Y007670D01*
X020114Y007730D01*
X019873Y007730D02*
X019813Y007670D01*
X019813Y007550D01*
X019873Y007490D01*
X020114Y007490D01*
X020114Y007362D02*
X020174Y007302D01*
X020174Y007182D01*
X020114Y007122D01*
X019873Y007362D01*
X020114Y007362D01*
X019873Y007362D02*
X019813Y007302D01*
X019813Y007182D01*
X019873Y007122D01*
X020114Y007122D01*
X020174Y006994D02*
X020174Y006753D01*
X020174Y006874D02*
X019813Y006874D01*
X019933Y006753D01*
X020861Y006899D02*
X021221Y006899D01*
X021221Y006779D02*
X021221Y007019D01*
X021161Y007147D02*
X020921Y007147D01*
X020861Y007207D01*
X020861Y007327D01*
X020921Y007387D01*
X021161Y007147D01*
X021221Y007207D01*
X021221Y007327D01*
X021161Y007387D01*
X020921Y007387D01*
X019742Y007619D02*
X019742Y007739D01*
X019682Y007799D01*
X019562Y007927D02*
X019562Y008167D01*
X019382Y008107D02*
X019562Y007927D01*
X019442Y007799D02*
X019382Y007739D01*
X019382Y007619D01*
X019442Y007559D01*
X019682Y007559D01*
X019742Y007619D01*
X019221Y007566D02*
X019221Y007806D01*
X019221Y007686D02*
X018861Y007686D01*
X018981Y007566D01*
X018981Y007934D02*
X018981Y008114D01*
X019041Y008174D01*
X019221Y008174D01*
X019382Y008107D02*
X019742Y008107D01*
X019221Y007934D02*
X018981Y007934D01*
X016674Y007843D02*
X016674Y007723D01*
X016614Y007663D01*
X016373Y007904D01*
X016614Y007904D01*
X016674Y007843D01*
X016674Y008032D02*
X016433Y008032D01*
X016433Y008212D01*
X016494Y008272D01*
X016674Y008272D01*
X016373Y007904D02*
X016313Y007843D01*
X016313Y007723D01*
X016373Y007663D01*
X016614Y007663D01*
X016614Y007535D02*
X016674Y007475D01*
X016674Y007355D01*
X016614Y007295D01*
X016373Y007535D01*
X016614Y007535D01*
X016373Y007535D02*
X016313Y007475D01*
X016313Y007355D01*
X016373Y007295D01*
X016614Y007295D01*
X016674Y007167D02*
X016674Y006927D01*
X016674Y007047D02*
X016313Y007047D01*
X016433Y006927D01*
X016174Y006987D02*
X016174Y007107D01*
X016114Y007167D01*
X016174Y007295D02*
X015933Y007535D01*
X015873Y007535D01*
X015813Y007475D01*
X015813Y007355D01*
X015873Y007295D01*
X015873Y007167D02*
X015813Y007107D01*
X015813Y006987D01*
X015873Y006927D01*
X016114Y006927D01*
X016174Y006987D01*
X016174Y007295D02*
X016174Y007535D01*
X020861Y006899D02*
X020981Y006779D01*
X016783Y005056D02*
X016783Y004695D01*
X016663Y004695D02*
X016904Y004695D01*
X016663Y004935D02*
X016783Y005056D01*
X016535Y004995D02*
X016475Y005056D01*
X016355Y005056D01*
X016295Y004995D01*
X016295Y004755D01*
X016355Y004695D01*
X016475Y004695D01*
X016535Y004755D01*
X016408Y004534D02*
X016408Y004174D01*
X016288Y004174D02*
X016528Y004174D01*
X016657Y004174D02*
X016657Y004414D01*
X016837Y004414D01*
X016897Y004354D01*
X016897Y004174D01*
X016408Y004534D02*
X016288Y004414D01*
D16*
X040194Y011057D03*
X041294Y004557D03*
D17*
X041919Y004557D03*
X039569Y004557D03*
X039569Y011057D03*
X041919Y011057D03*
D18*
X012522Y007127D02*
X012470Y007111D01*
X012471Y007112D02*
X012450Y007170D01*
X012427Y007227D01*
X012400Y007283D01*
X012369Y007336D01*
X012336Y007388D01*
X012299Y007438D01*
X012260Y007485D01*
X012217Y007530D01*
X012172Y007573D01*
X012125Y007612D01*
X012075Y007649D01*
X012023Y007683D01*
X011969Y007713D01*
X011914Y007740D01*
X011857Y007764D01*
X011798Y007784D01*
X011739Y007800D01*
X011678Y007813D01*
X011617Y007823D01*
X011556Y007828D01*
X011494Y007830D01*
X011432Y007828D01*
X011371Y007823D01*
X011310Y007813D01*
X011249Y007800D01*
X011190Y007784D01*
X011131Y007763D01*
X011074Y007740D01*
X011019Y007713D01*
X010965Y007682D01*
X010913Y007649D01*
X010863Y007612D01*
X010830Y007654D01*
X010830Y007655D01*
X010880Y007692D01*
X010933Y007727D01*
X010988Y007758D01*
X011045Y007786D01*
X011103Y007810D01*
X011162Y007832D01*
X011223Y007849D01*
X011284Y007863D01*
X011346Y007874D01*
X011409Y007881D01*
X011472Y007884D01*
X011535Y007883D01*
X011598Y007879D01*
X011661Y007871D01*
X011723Y007859D01*
X011784Y007844D01*
X011844Y007825D01*
X011903Y007803D01*
X011961Y007778D01*
X012017Y007749D01*
X012071Y007716D01*
X012123Y007681D01*
X012174Y007643D01*
X012221Y007601D01*
X012267Y007557D01*
X012309Y007511D01*
X012349Y007462D01*
X012386Y007411D01*
X012420Y007357D01*
X012450Y007302D01*
X012478Y007245D01*
X012502Y007187D01*
X012522Y007127D01*
X012517Y007126D01*
X012496Y007187D01*
X012472Y007247D01*
X012443Y007305D01*
X012411Y007362D01*
X012376Y007416D01*
X012338Y007468D01*
X012296Y007518D01*
X012252Y007565D01*
X012205Y007609D01*
X012155Y007651D01*
X012103Y007689D01*
X012049Y007724D01*
X011992Y007756D01*
X011934Y007785D01*
X011874Y007809D01*
X011813Y007830D01*
X011750Y007848D01*
X011687Y007861D01*
X011623Y007871D01*
X011559Y007877D01*
X011494Y007879D01*
X011429Y007877D01*
X011365Y007871D01*
X011301Y007861D01*
X011237Y007848D01*
X011175Y007830D01*
X011114Y007809D01*
X011054Y007784D01*
X010996Y007756D01*
X010939Y007724D01*
X010885Y007689D01*
X010833Y007651D01*
X010836Y007647D01*
X010888Y007685D01*
X010942Y007720D01*
X010998Y007752D01*
X011056Y007780D01*
X011115Y007805D01*
X011176Y007826D01*
X011239Y007843D01*
X011302Y007856D01*
X011365Y007866D01*
X011429Y007872D01*
X011494Y007874D01*
X011558Y007872D01*
X011622Y007866D01*
X011686Y007857D01*
X011749Y007843D01*
X011811Y007826D01*
X011872Y007805D01*
X011932Y007780D01*
X011990Y007752D01*
X012046Y007720D01*
X012100Y007685D01*
X012152Y007647D01*
X012201Y007606D01*
X012248Y007562D01*
X012293Y007515D01*
X012334Y007465D01*
X012372Y007413D01*
X012407Y007359D01*
X012439Y007303D01*
X012467Y007245D01*
X012492Y007185D01*
X012513Y007124D01*
X012508Y007123D01*
X012487Y007184D01*
X012462Y007243D01*
X012434Y007301D01*
X012403Y007356D01*
X012368Y007410D01*
X012330Y007462D01*
X012289Y007511D01*
X012245Y007558D01*
X012198Y007602D01*
X012149Y007643D01*
X012097Y007681D01*
X012043Y007716D01*
X011987Y007747D01*
X011930Y007775D01*
X011870Y007800D01*
X011810Y007821D01*
X011748Y007838D01*
X011685Y007852D01*
X011622Y007861D01*
X011558Y007867D01*
X011494Y007869D01*
X011430Y007867D01*
X011366Y007861D01*
X011302Y007852D01*
X011240Y007838D01*
X011178Y007821D01*
X011117Y007800D01*
X011058Y007775D01*
X011000Y007747D01*
X010944Y007716D01*
X010891Y007681D01*
X010839Y007643D01*
X010842Y007639D01*
X010893Y007677D01*
X010947Y007711D01*
X011003Y007743D01*
X011060Y007771D01*
X011119Y007795D01*
X011179Y007816D01*
X011241Y007833D01*
X011303Y007847D01*
X011366Y007856D01*
X011430Y007862D01*
X011494Y007864D01*
X011558Y007862D01*
X011621Y007856D01*
X011684Y007847D01*
X011747Y007833D01*
X011808Y007816D01*
X011869Y007795D01*
X011928Y007771D01*
X011985Y007743D01*
X012041Y007712D01*
X012094Y007677D01*
X012146Y007639D01*
X012195Y007598D01*
X012241Y007554D01*
X012285Y007508D01*
X012326Y007459D01*
X012364Y007408D01*
X012399Y007354D01*
X012430Y007298D01*
X012458Y007241D01*
X012482Y007182D01*
X012503Y007122D01*
X012498Y007120D01*
X012478Y007180D01*
X012453Y007239D01*
X012425Y007296D01*
X012394Y007351D01*
X012360Y007405D01*
X012322Y007456D01*
X012281Y007505D01*
X012238Y007551D01*
X012192Y007595D01*
X012143Y007635D01*
X012092Y007673D01*
X012038Y007707D01*
X011983Y007739D01*
X011926Y007766D01*
X011867Y007791D01*
X011807Y007811D01*
X011746Y007828D01*
X011684Y007842D01*
X011621Y007851D01*
X011557Y007857D01*
X011494Y007859D01*
X011430Y007857D01*
X011367Y007851D01*
X011304Y007842D01*
X011242Y007828D01*
X011181Y007811D01*
X011121Y007791D01*
X011062Y007766D01*
X011005Y007738D01*
X010950Y007707D01*
X010896Y007673D01*
X010845Y007635D01*
X010848Y007631D01*
X010899Y007669D01*
X010952Y007703D01*
X011007Y007734D01*
X011064Y007762D01*
X011123Y007786D01*
X011182Y007807D01*
X011243Y007824D01*
X011305Y007837D01*
X011368Y007846D01*
X011431Y007852D01*
X011494Y007854D01*
X011557Y007852D01*
X011620Y007846D01*
X011683Y007837D01*
X011744Y007824D01*
X011805Y007807D01*
X011865Y007786D01*
X011924Y007762D01*
X011980Y007734D01*
X012036Y007703D01*
X012089Y007669D01*
X012140Y007631D01*
X012188Y007591D01*
X012234Y007547D01*
X012278Y007501D01*
X012318Y007453D01*
X012356Y007402D01*
X012390Y007349D01*
X012421Y007294D01*
X012449Y007237D01*
X012473Y007178D01*
X012494Y007119D01*
X012489Y007117D01*
X012468Y007177D01*
X012444Y007235D01*
X012417Y007291D01*
X012386Y007346D01*
X012351Y007399D01*
X012314Y007450D01*
X012274Y007498D01*
X012231Y007544D01*
X012185Y007587D01*
X012137Y007627D01*
X012086Y007665D01*
X012033Y007699D01*
X011978Y007730D01*
X011922Y007757D01*
X011863Y007781D01*
X011804Y007802D01*
X011743Y007819D01*
X011682Y007832D01*
X011619Y007841D01*
X011557Y007847D01*
X011494Y007849D01*
X011431Y007847D01*
X011368Y007841D01*
X011306Y007832D01*
X011245Y007819D01*
X011184Y007802D01*
X011124Y007781D01*
X011066Y007757D01*
X011010Y007730D01*
X010955Y007699D01*
X010902Y007664D01*
X010851Y007627D01*
X010854Y007623D01*
X010905Y007660D01*
X010957Y007694D01*
X011012Y007725D01*
X011068Y007753D01*
X011126Y007777D01*
X011185Y007797D01*
X011246Y007814D01*
X011307Y007827D01*
X011369Y007836D01*
X011431Y007842D01*
X011494Y007844D01*
X011557Y007842D01*
X011619Y007836D01*
X011681Y007827D01*
X011742Y007814D01*
X011802Y007797D01*
X011862Y007777D01*
X011919Y007753D01*
X011976Y007725D01*
X012030Y007695D01*
X012083Y007661D01*
X012133Y007623D01*
X012182Y007583D01*
X012227Y007540D01*
X012270Y007495D01*
X012310Y007447D01*
X012347Y007396D01*
X012381Y007344D01*
X012412Y007289D01*
X012440Y007233D01*
X012464Y007175D01*
X012484Y007116D01*
X012479Y007114D01*
X012459Y007173D01*
X012435Y007231D01*
X012408Y007287D01*
X012377Y007341D01*
X012343Y007393D01*
X012306Y007444D01*
X012266Y007491D01*
X012224Y007537D01*
X012178Y007580D01*
X012130Y007619D01*
X012080Y007656D01*
X012028Y007690D01*
X011973Y007721D01*
X011917Y007748D01*
X011860Y007772D01*
X011801Y007792D01*
X011741Y007809D01*
X011680Y007822D01*
X011618Y007831D01*
X011556Y007837D01*
X011494Y007839D01*
X011432Y007837D01*
X011370Y007831D01*
X011308Y007822D01*
X011247Y007809D01*
X011187Y007792D01*
X011128Y007772D01*
X011070Y007748D01*
X011014Y007721D01*
X010960Y007690D01*
X010908Y007656D01*
X010857Y007619D01*
X010861Y007615D01*
X010911Y007652D01*
X010963Y007686D01*
X011017Y007716D01*
X011072Y007743D01*
X011130Y007767D01*
X011188Y007787D01*
X011248Y007804D01*
X011309Y007817D01*
X011370Y007827D01*
X011432Y007832D01*
X011494Y007834D01*
X011556Y007832D01*
X011618Y007827D01*
X011679Y007817D01*
X011740Y007804D01*
X011799Y007788D01*
X011858Y007767D01*
X011915Y007744D01*
X011971Y007716D01*
X012025Y007686D01*
X012077Y007652D01*
X012127Y007616D01*
X012175Y007576D01*
X012220Y007533D01*
X012263Y007488D01*
X012302Y007440D01*
X012339Y007391D01*
X012373Y007338D01*
X012403Y007284D01*
X012430Y007229D01*
X012454Y007171D01*
X012474Y007113D01*
X010830Y005959D02*
X010864Y006001D01*
X010863Y006001D02*
X010913Y005964D01*
X010965Y005931D01*
X011019Y005900D01*
X011074Y005873D01*
X011131Y005850D01*
X011190Y005829D01*
X011249Y005813D01*
X011310Y005800D01*
X011371Y005790D01*
X011432Y005785D01*
X011494Y005783D01*
X011556Y005785D01*
X011617Y005790D01*
X011678Y005800D01*
X011739Y005813D01*
X011798Y005829D01*
X011857Y005849D01*
X011914Y005873D01*
X011969Y005900D01*
X012023Y005930D01*
X012075Y005964D01*
X012125Y006001D01*
X012172Y006040D01*
X012217Y006083D01*
X012260Y006128D01*
X012299Y006175D01*
X012336Y006225D01*
X012369Y006277D01*
X012400Y006330D01*
X012427Y006386D01*
X012450Y006443D01*
X012471Y006501D01*
X012522Y006486D01*
X012502Y006426D01*
X012478Y006368D01*
X012450Y006311D01*
X012420Y006256D01*
X012386Y006202D01*
X012349Y006151D01*
X012309Y006102D01*
X012267Y006056D01*
X012221Y006012D01*
X012174Y005970D01*
X012123Y005932D01*
X012071Y005897D01*
X012017Y005864D01*
X011961Y005835D01*
X011903Y005810D01*
X011844Y005788D01*
X011784Y005769D01*
X011723Y005754D01*
X011661Y005742D01*
X011598Y005734D01*
X011535Y005730D01*
X011472Y005729D01*
X011409Y005732D01*
X011346Y005739D01*
X011284Y005750D01*
X011223Y005764D01*
X011162Y005781D01*
X011103Y005803D01*
X011045Y005827D01*
X010988Y005855D01*
X010933Y005886D01*
X010880Y005921D01*
X010830Y005958D01*
X010833Y005962D01*
X010885Y005924D01*
X010939Y005889D01*
X010996Y005857D01*
X011054Y005829D01*
X011114Y005804D01*
X011175Y005783D01*
X011237Y005765D01*
X011301Y005752D01*
X011365Y005742D01*
X011429Y005736D01*
X011494Y005734D01*
X011559Y005736D01*
X011623Y005742D01*
X011687Y005752D01*
X011750Y005765D01*
X011813Y005783D01*
X011874Y005804D01*
X011934Y005828D01*
X011992Y005857D01*
X012049Y005889D01*
X012103Y005924D01*
X012155Y005962D01*
X012205Y006004D01*
X012252Y006048D01*
X012296Y006095D01*
X012338Y006145D01*
X012376Y006197D01*
X012411Y006251D01*
X012443Y006308D01*
X012472Y006366D01*
X012496Y006426D01*
X012517Y006487D01*
X012513Y006489D01*
X012492Y006428D01*
X012467Y006368D01*
X012439Y006310D01*
X012407Y006254D01*
X012372Y006200D01*
X012334Y006148D01*
X012293Y006098D01*
X012248Y006051D01*
X012201Y006007D01*
X012152Y005966D01*
X012100Y005928D01*
X012046Y005893D01*
X011990Y005861D01*
X011932Y005833D01*
X011872Y005808D01*
X011811Y005787D01*
X011749Y005770D01*
X011686Y005756D01*
X011622Y005747D01*
X011558Y005741D01*
X011494Y005739D01*
X011429Y005741D01*
X011365Y005747D01*
X011302Y005757D01*
X011239Y005770D01*
X011176Y005787D01*
X011115Y005808D01*
X011056Y005833D01*
X010998Y005861D01*
X010942Y005893D01*
X010888Y005928D01*
X010836Y005966D01*
X010839Y005970D01*
X010891Y005932D01*
X010944Y005897D01*
X011000Y005866D01*
X011058Y005838D01*
X011117Y005813D01*
X011178Y005792D01*
X011240Y005775D01*
X011302Y005761D01*
X011366Y005752D01*
X011430Y005746D01*
X011494Y005744D01*
X011558Y005746D01*
X011622Y005752D01*
X011685Y005761D01*
X011748Y005775D01*
X011810Y005792D01*
X011870Y005813D01*
X011930Y005838D01*
X011987Y005866D01*
X012043Y005897D01*
X012097Y005932D01*
X012149Y005970D01*
X012198Y006011D01*
X012245Y006055D01*
X012289Y006102D01*
X012330Y006151D01*
X012368Y006203D01*
X012403Y006257D01*
X012434Y006312D01*
X012462Y006370D01*
X012487Y006429D01*
X012508Y006490D01*
X012503Y006491D01*
X012482Y006431D01*
X012458Y006372D01*
X012430Y006315D01*
X012399Y006259D01*
X012364Y006205D01*
X012326Y006154D01*
X012285Y006105D01*
X012241Y006059D01*
X012195Y006015D01*
X012146Y005974D01*
X012094Y005936D01*
X012041Y005901D01*
X011985Y005870D01*
X011928Y005842D01*
X011869Y005818D01*
X011808Y005797D01*
X011747Y005780D01*
X011684Y005766D01*
X011621Y005757D01*
X011558Y005751D01*
X011494Y005749D01*
X011430Y005751D01*
X011366Y005757D01*
X011303Y005766D01*
X011241Y005780D01*
X011179Y005797D01*
X011119Y005818D01*
X011060Y005842D01*
X011003Y005870D01*
X010947Y005902D01*
X010893Y005936D01*
X010842Y005974D01*
X010845Y005978D01*
X010896Y005940D01*
X010950Y005906D01*
X011005Y005875D01*
X011062Y005847D01*
X011121Y005822D01*
X011181Y005802D01*
X011242Y005785D01*
X011304Y005771D01*
X011367Y005762D01*
X011430Y005756D01*
X011494Y005754D01*
X011557Y005756D01*
X011621Y005762D01*
X011684Y005771D01*
X011746Y005785D01*
X011807Y005802D01*
X011867Y005822D01*
X011926Y005847D01*
X011983Y005874D01*
X012038Y005906D01*
X012092Y005940D01*
X012143Y005978D01*
X012192Y006018D01*
X012238Y006062D01*
X012281Y006108D01*
X012322Y006157D01*
X012360Y006208D01*
X012394Y006262D01*
X012425Y006317D01*
X012453Y006374D01*
X012478Y006433D01*
X012498Y006493D01*
X012494Y006494D01*
X012473Y006435D01*
X012449Y006376D01*
X012421Y006319D01*
X012390Y006264D01*
X012356Y006211D01*
X012318Y006160D01*
X012278Y006112D01*
X012234Y006066D01*
X012188Y006022D01*
X012140Y005982D01*
X012089Y005944D01*
X012036Y005910D01*
X011980Y005879D01*
X011924Y005851D01*
X011865Y005827D01*
X011805Y005806D01*
X011744Y005789D01*
X011683Y005776D01*
X011620Y005767D01*
X011557Y005761D01*
X011494Y005759D01*
X011431Y005761D01*
X011368Y005767D01*
X011305Y005776D01*
X011243Y005789D01*
X011182Y005806D01*
X011123Y005827D01*
X011064Y005851D01*
X011007Y005879D01*
X010952Y005910D01*
X010899Y005944D01*
X010848Y005982D01*
X010851Y005986D01*
X010902Y005949D01*
X010955Y005914D01*
X011010Y005883D01*
X011066Y005856D01*
X011124Y005832D01*
X011184Y005811D01*
X011245Y005794D01*
X011306Y005781D01*
X011368Y005772D01*
X011431Y005766D01*
X011494Y005764D01*
X011557Y005766D01*
X011619Y005772D01*
X011682Y005781D01*
X011743Y005794D01*
X011804Y005811D01*
X011863Y005832D01*
X011922Y005856D01*
X011978Y005883D01*
X012033Y005914D01*
X012086Y005948D01*
X012137Y005986D01*
X012185Y006026D01*
X012231Y006069D01*
X012274Y006115D01*
X012314Y006163D01*
X012351Y006214D01*
X012386Y006267D01*
X012417Y006322D01*
X012444Y006378D01*
X012468Y006436D01*
X012489Y006496D01*
X012484Y006497D01*
X012464Y006438D01*
X012440Y006380D01*
X012412Y006324D01*
X012381Y006269D01*
X012347Y006217D01*
X012310Y006166D01*
X012270Y006118D01*
X012227Y006073D01*
X012182Y006030D01*
X012133Y005990D01*
X012083Y005952D01*
X012030Y005918D01*
X011976Y005888D01*
X011919Y005860D01*
X011862Y005836D01*
X011802Y005816D01*
X011742Y005799D01*
X011681Y005786D01*
X011619Y005777D01*
X011557Y005771D01*
X011494Y005769D01*
X011431Y005771D01*
X011369Y005777D01*
X011307Y005786D01*
X011246Y005799D01*
X011185Y005816D01*
X011126Y005836D01*
X011068Y005860D01*
X011012Y005888D01*
X010957Y005919D01*
X010905Y005953D01*
X010854Y005990D01*
X010857Y005994D01*
X010908Y005957D01*
X010960Y005923D01*
X011014Y005892D01*
X011070Y005865D01*
X011128Y005841D01*
X011187Y005821D01*
X011247Y005804D01*
X011308Y005791D01*
X011370Y005782D01*
X011432Y005776D01*
X011494Y005774D01*
X011556Y005776D01*
X011618Y005782D01*
X011680Y005791D01*
X011741Y005804D01*
X011801Y005821D01*
X011860Y005841D01*
X011917Y005865D01*
X011973Y005892D01*
X012028Y005923D01*
X012080Y005957D01*
X012130Y005994D01*
X012178Y006033D01*
X012224Y006076D01*
X012266Y006122D01*
X012306Y006169D01*
X012343Y006220D01*
X012377Y006272D01*
X012408Y006326D01*
X012435Y006382D01*
X012459Y006440D01*
X012479Y006499D01*
X012474Y006500D01*
X012454Y006442D01*
X012430Y006384D01*
X012403Y006329D01*
X012373Y006275D01*
X012339Y006222D01*
X012302Y006173D01*
X012263Y006125D01*
X012220Y006080D01*
X012175Y006037D01*
X012127Y005997D01*
X012077Y005961D01*
X012025Y005927D01*
X011971Y005897D01*
X011915Y005869D01*
X011858Y005846D01*
X011799Y005825D01*
X011740Y005809D01*
X011679Y005796D01*
X011618Y005786D01*
X011556Y005781D01*
X011494Y005779D01*
X011432Y005781D01*
X011370Y005786D01*
X011309Y005796D01*
X011248Y005809D01*
X011188Y005826D01*
X011130Y005846D01*
X011072Y005870D01*
X011017Y005897D01*
X010963Y005927D01*
X010911Y005961D01*
X010861Y005998D01*
D19*
X008994Y006932D03*
X009994Y007682D03*
X004994Y007432D03*
X003994Y008182D03*
D20*
X003994Y008682D03*
X004994Y008682D03*
X008994Y008182D03*
X009994Y008182D03*
X004994Y006932D03*
X003994Y006932D03*
X008994Y006432D03*
X009994Y006432D03*
D21*
X010428Y006317D02*
X010503Y006392D01*
X010578Y006392D01*
X010654Y006317D01*
X010654Y006092D01*
X010879Y006092D02*
X010879Y006317D01*
X010804Y006392D01*
X010729Y006392D01*
X010654Y006317D01*
X010428Y006317D02*
X010428Y006092D01*
X010879Y006092D01*
X010879Y006552D02*
X010578Y006552D01*
X010428Y006702D01*
X010578Y006852D01*
X010879Y006852D01*
X010654Y006852D02*
X010654Y006552D01*
X010428Y007012D02*
X010428Y007313D01*
X010428Y007163D02*
X010879Y007163D01*
X010804Y007473D02*
X010729Y007473D01*
X010654Y007548D01*
X010654Y007698D01*
X010729Y007773D01*
X010804Y007773D01*
X010879Y007698D01*
X010879Y007548D01*
X010804Y007473D01*
X010654Y007548D02*
X010578Y007473D01*
X010503Y007473D01*
X010428Y007548D01*
X010428Y007698D01*
X010503Y007773D01*
X010578Y007773D01*
X010654Y007698D01*
X010578Y007933D02*
X010428Y008083D01*
X010879Y008083D01*
X010879Y007933D02*
X010879Y008234D01*
X003519Y008226D02*
X003444Y008151D01*
X003369Y008151D01*
X003294Y008226D01*
X003294Y008376D01*
X003369Y008451D01*
X003444Y008451D01*
X003519Y008376D01*
X003519Y008226D01*
X003294Y008226D02*
X003218Y008151D01*
X003143Y008151D01*
X003068Y008226D01*
X003068Y008376D01*
X003143Y008451D01*
X003218Y008451D01*
X003294Y008376D01*
X003218Y008611D02*
X003068Y008761D01*
X003519Y008761D01*
X003519Y008611D02*
X003519Y008912D01*
X003068Y007991D02*
X003068Y007691D01*
X003068Y007841D02*
X003519Y007841D01*
X003519Y007530D02*
X003218Y007530D01*
X003068Y007380D01*
X003218Y007230D01*
X003519Y007230D01*
X003444Y007070D02*
X003519Y006995D01*
X003519Y006770D01*
X003068Y006770D01*
X003068Y006995D01*
X003143Y007070D01*
X003218Y007070D01*
X003294Y006995D01*
X003294Y006770D01*
X003294Y006995D02*
X003369Y007070D01*
X003444Y007070D01*
X003294Y007230D02*
X003294Y007530D01*
X022869Y008032D02*
X023169Y008032D01*
X023019Y008032D02*
X023019Y007582D01*
X023329Y007582D02*
X023629Y007582D01*
X023789Y007657D02*
X024090Y007957D01*
X024090Y007657D01*
X024015Y007582D01*
X023865Y007582D01*
X023789Y007657D01*
X023789Y007957D01*
X023865Y008032D01*
X024015Y008032D01*
X024090Y007957D01*
X024250Y008032D02*
X024550Y008032D01*
X024550Y007957D01*
X024250Y007657D01*
X024250Y007582D01*
X024710Y007807D02*
X025011Y007807D01*
X024935Y007582D02*
X024935Y008032D01*
X024710Y007807D01*
X023329Y008032D02*
X023329Y007582D01*
D22*
G36*
X036371Y004854D02*
X035878Y004674D01*
X035791Y004914D01*
X036284Y005094D01*
X036371Y004854D01*
G37*
G36*
X038116Y005760D02*
X038609Y005940D01*
X038696Y005700D01*
X038203Y005520D01*
X038116Y005760D01*
G37*
G36*
X038203Y010094D02*
X038696Y009914D01*
X038609Y009674D01*
X038116Y009854D01*
X038203Y010094D01*
G37*
G36*
X036284Y010520D02*
X035791Y010700D01*
X035878Y010940D01*
X036371Y010760D01*
X036284Y010520D01*
G37*
M02*
