G75*
%MOIN*%
%OFA0B0*%
%FSLAX24Y24*%
%IPPOS*%
%LPD*%
%AMOC8*
5,1,8,0,0,1.08239X$1,22.5*
%
%ADD10C,0.0010*%
%ADD11R,0.0700X0.0700*%
%ADD12OC8,0.0700*%
%ADD13R,0.1267X0.1267*%
%ADD14C,0.0690*%
%ADD15OC8,0.0520*%
%ADD16C,0.0520*%
%ADD17R,0.0518X0.0518*%
%ADD18R,0.0520X0.0520*%
%ADD19R,0.0571X0.0571*%
%ADD20C,0.0453*%
%ADD21C,0.0780*%
D10*
X007994Y004807D02*
X050120Y004807D01*
X050120Y012287D01*
X007994Y012287D01*
X007994Y004807D01*
D11*
X031738Y009541D03*
X042738Y009541D03*
D12*
X042738Y008557D03*
X042738Y007572D03*
X031738Y007572D03*
X031738Y008557D03*
D13*
X034494Y006785D03*
X045494Y006785D03*
X045494Y010328D03*
X034494Y010328D03*
D14*
X018803Y010557D03*
X017622Y010557D03*
X014275Y010557D03*
X013053Y010557D03*
X011872Y010557D03*
X008525Y010557D03*
X008525Y006557D03*
X011872Y006557D03*
X013053Y006557D03*
X014275Y006557D03*
X017622Y006557D03*
X018803Y006557D03*
D15*
X019744Y006557D03*
X020744Y006557D03*
X022744Y005557D03*
X018744Y005557D03*
X028744Y005557D03*
X029744Y006557D03*
X030744Y006557D03*
X037244Y006557D03*
X038244Y006557D03*
X039244Y006557D03*
X040244Y006557D03*
X041244Y006557D03*
X043744Y005557D03*
X047744Y005557D03*
X049394Y005457D03*
X048244Y006557D03*
X049394Y007207D03*
X049394Y009957D03*
X048244Y010557D03*
X048244Y011557D03*
X049394Y011707D03*
X044244Y011557D03*
X041244Y010557D03*
X040244Y010557D03*
X039244Y010557D03*
X038244Y010557D03*
X037244Y010557D03*
X030744Y010557D03*
X029744Y010557D03*
X020744Y010557D03*
X019744Y010557D03*
D16*
X021744Y010297D02*
X021744Y009817D01*
X022494Y009817D02*
X022494Y010297D01*
X022494Y007297D02*
X022494Y006817D01*
X021744Y006817D02*
X021744Y007297D01*
D17*
X024509Y006322D03*
X026478Y006322D03*
X026478Y008291D03*
X024509Y008291D03*
D18*
X028744Y006557D03*
X049394Y006457D03*
X049394Y008207D03*
X049394Y008957D03*
X049394Y010707D03*
D19*
X027187Y010059D03*
X023801Y010059D03*
D20*
X023978Y011307D03*
X024844Y011307D03*
X025710Y011307D03*
X026576Y011307D03*
X026143Y011740D03*
X027009Y011740D03*
X025277Y011740D03*
X024411Y011740D03*
D21*
X030494Y011607D03*
X031494Y011507D03*
X032494Y011607D03*
X033494Y011507D03*
X034494Y011607D03*
X035494Y011507D03*
X036494Y011607D03*
X037494Y011507D03*
X038494Y011607D03*
X039494Y011507D03*
X040494Y011607D03*
X035494Y005357D03*
X036494Y005257D03*
X034494Y005257D03*
X033494Y005357D03*
X032494Y005257D03*
X031494Y005357D03*
X030494Y005257D03*
M02*
