G75*
%MOIN*%
%OFA0B0*%
%FSLAX24Y24*%
%IPPOS*%
%LPD*%
%AMOC8*
5,1,8,0,0,1.08239X$1,22.5*
%
%ADD10C,0.0010*%
%ADD11R,0.0660X0.0660*%
%ADD12OC8,0.0660*%
%ADD13R,0.1227X0.1227*%
%ADD14C,0.0650*%
%ADD15OC8,0.0480*%
%ADD16C,0.0480*%
%ADD17R,0.0478X0.0478*%
%ADD18R,0.0480X0.0480*%
%ADD19R,0.0531X0.0531*%
%ADD20C,0.0413*%
%ADD21C,0.0740*%
%ADD22C,0.0180*%
%ADD23C,0.0120*%
%ADD24C,0.0240*%
D10*
X007994Y004807D02*
X050120Y004807D01*
X050120Y012287D01*
X007994Y012287D01*
X007994Y004807D01*
D11*
X031738Y009541D03*
X042738Y009541D03*
D12*
X042738Y008557D03*
X042738Y007572D03*
X031738Y007572D03*
X031738Y008557D03*
D13*
X034494Y006785D03*
X045494Y006785D03*
X045494Y010328D03*
X034494Y010328D03*
D14*
X018803Y010557D03*
X017622Y010557D03*
X014275Y010557D03*
X013053Y010557D03*
X011872Y010557D03*
X008525Y010557D03*
X008525Y006557D03*
X011872Y006557D03*
X013053Y006557D03*
X014275Y006557D03*
X017622Y006557D03*
X018803Y006557D03*
D15*
X019744Y006557D03*
X020744Y006557D03*
X022744Y005557D03*
X018744Y005557D03*
X028744Y005557D03*
X029744Y006557D03*
X030744Y006557D03*
X037244Y006557D03*
X038244Y006557D03*
X039244Y006557D03*
X040244Y006557D03*
X041244Y006557D03*
X043744Y005557D03*
X047744Y005557D03*
X049394Y005457D03*
X048244Y006557D03*
X049394Y007207D03*
X049394Y009957D03*
X048244Y010557D03*
X048244Y011557D03*
X049394Y011707D03*
X044244Y011557D03*
X041244Y010557D03*
X040244Y010557D03*
X039244Y010557D03*
X038244Y010557D03*
X037244Y010557D03*
X030744Y010557D03*
X029744Y010557D03*
X020744Y010557D03*
X019744Y010557D03*
D16*
X021744Y010297D02*
X021744Y009817D01*
X022494Y009817D02*
X022494Y010297D01*
X022494Y007297D02*
X022494Y006817D01*
X021744Y006817D02*
X021744Y007297D01*
D17*
X024509Y006322D03*
X026478Y006322D03*
X026478Y008291D03*
X024509Y008291D03*
D18*
X028744Y006557D03*
X049394Y006457D03*
X049394Y008207D03*
X049394Y008957D03*
X049394Y010707D03*
D19*
X027187Y010059D03*
X023801Y010059D03*
D20*
X024175Y011307D03*
X025041Y011307D03*
X025907Y011307D03*
X026773Y011307D03*
X026340Y011740D03*
X025474Y011740D03*
X024608Y011740D03*
X027206Y011740D03*
D21*
X030494Y011607D03*
X031494Y011507D03*
X032494Y011607D03*
X033494Y011507D03*
X034494Y011607D03*
X035494Y011507D03*
X036494Y011607D03*
X037494Y011507D03*
X038494Y011607D03*
X039494Y011507D03*
X040494Y011607D03*
X035494Y005357D03*
X036494Y005257D03*
X034494Y005257D03*
X033494Y005357D03*
X032494Y005257D03*
X031494Y005357D03*
X030494Y005257D03*
D22*
X039244Y006557D02*
X039274Y006567D01*
X039674Y006967D01*
X040794Y006967D01*
X041194Y006567D01*
X041244Y006557D01*
X040634Y006167D02*
X040244Y006557D01*
X040634Y006167D02*
X043114Y006167D01*
X043314Y005967D01*
X043354Y006007D01*
X047754Y006007D01*
X048234Y006487D01*
X048244Y006557D01*
X043744Y005557D02*
X043674Y005607D01*
X043314Y005967D01*
X039274Y009527D02*
X039034Y009287D01*
X031994Y009287D01*
X031754Y009527D01*
X031738Y009541D01*
X031674Y009607D01*
X030634Y009607D01*
X027187Y010059D02*
X027114Y010087D01*
X023834Y010087D01*
X023801Y010059D01*
X020744Y010557D02*
X020714Y010487D01*
X020394Y010167D01*
X019194Y010167D01*
X018874Y010487D01*
X018803Y010557D01*
X021674Y007047D02*
X021744Y007057D01*
X021674Y007047D02*
X021674Y006167D01*
X018794Y006167D01*
X018794Y005607D01*
X018744Y005557D01*
X018794Y006167D02*
X018794Y006487D01*
X018803Y006557D01*
X039274Y009527D02*
X042714Y009527D01*
X042738Y009541D01*
X044244Y011557D02*
X044234Y011607D01*
X040494Y011607D01*
D23*
X039914Y011047D02*
X039514Y011447D01*
X039494Y011507D01*
X039914Y011047D02*
X040634Y011047D01*
X040714Y011127D01*
X048954Y011127D01*
X049354Y010727D01*
X049394Y010707D01*
X048794Y010007D02*
X048244Y010557D01*
X048794Y010007D02*
X049354Y010007D01*
X049394Y009957D01*
X049754Y008567D02*
X045834Y008567D01*
X044394Y010007D01*
X040794Y010007D01*
X040244Y010557D01*
X039244Y010557D02*
X039194Y010567D01*
X038314Y010567D01*
X038244Y010557D01*
X038234Y010487D01*
X037274Y009527D01*
X032634Y009527D01*
X032154Y010007D01*
X027914Y010007D01*
X027434Y009527D01*
X022714Y009527D01*
X022554Y009367D01*
X015114Y009367D01*
X014314Y010167D01*
X014314Y010487D01*
X014275Y010557D01*
X018474Y011767D02*
X009354Y011767D01*
X008554Y010967D01*
X008554Y010567D01*
X008525Y010557D01*
X010314Y008727D02*
X008554Y006967D01*
X008554Y006567D01*
X008525Y006557D01*
X010314Y008727D02*
X026714Y008727D01*
X027354Y008087D01*
X037274Y008087D01*
X037914Y008087D02*
X037034Y008967D01*
X039194Y009047D02*
X042954Y009047D01*
X043674Y008327D01*
X049274Y008327D01*
X049394Y008207D01*
X049754Y008567D02*
X049754Y007207D01*
X049394Y007207D01*
X049354Y006487D02*
X049394Y006457D01*
X049354Y006487D02*
X047754Y008087D01*
X037914Y008087D01*
X034554Y008967D02*
X034474Y009047D01*
X026474Y009047D01*
X026234Y009287D01*
X026474Y008327D02*
X024554Y008327D01*
X024509Y008291D01*
X024474Y008247D01*
X023674Y008247D01*
X022554Y007127D01*
X022494Y007057D01*
X020744Y006557D02*
X020714Y006567D01*
X019754Y006567D01*
X019744Y006557D01*
X022744Y005557D02*
X023434Y006247D01*
X024474Y006247D01*
X024509Y006322D01*
X024554Y006327D01*
X026474Y006327D01*
X026478Y006322D01*
X026634Y006167D01*
X031114Y006167D01*
X031514Y006567D01*
X031514Y006807D02*
X031754Y006807D01*
X032554Y006007D01*
X032554Y005287D01*
X032494Y005257D01*
X031514Y006167D02*
X030634Y005287D01*
X030554Y005287D01*
X030494Y005257D01*
X032794Y007047D02*
X033834Y006007D01*
X035114Y006007D01*
X036074Y006967D01*
X037354Y006967D01*
X037674Y006647D01*
X037674Y006247D01*
X037514Y006247D01*
X037034Y005767D01*
X035914Y005767D01*
X035514Y005367D01*
X035494Y005357D01*
X036494Y005257D02*
X036554Y005287D01*
X037034Y005287D01*
X038234Y006487D01*
X038244Y006557D01*
X037244Y006557D02*
X037194Y006487D01*
X036714Y006007D01*
X035434Y006007D01*
X034714Y005287D01*
X034554Y005287D01*
X034494Y005257D01*
X031514Y006807D02*
X031354Y006967D01*
X029274Y006967D01*
X028634Y007607D01*
X026954Y007847D02*
X026554Y008247D01*
X026478Y008291D01*
X026474Y008327D01*
X026954Y007847D02*
X031434Y007847D01*
X031674Y007607D01*
X031738Y007572D01*
X031754Y007607D01*
X042714Y007607D01*
X042738Y007572D01*
X047744Y005557D02*
X047754Y005527D01*
X049354Y005527D01*
X049394Y005457D01*
X032794Y007047D02*
X031594Y007047D01*
X031434Y007207D01*
X031034Y007207D01*
X033034Y009847D02*
X032394Y010487D01*
X030794Y010487D01*
X030744Y010557D01*
X031834Y010967D02*
X032474Y011607D01*
X032494Y011607D01*
X030494Y011607D02*
X030474Y011607D01*
X030234Y011367D01*
X026794Y011367D01*
X026773Y011307D01*
X024634Y010967D02*
X031834Y010967D01*
X024634Y010967D02*
X024634Y011687D01*
X024608Y011740D01*
X019744Y010557D02*
X019674Y010567D01*
X018474Y011767D01*
X021754Y010087D02*
X021744Y010057D01*
X021754Y010087D02*
X022474Y010087D01*
X022494Y010057D01*
X048244Y011557D02*
X048314Y011607D01*
X048394Y011687D01*
X049354Y011687D01*
X049394Y011707D01*
D24*
X039194Y009047D03*
X037034Y008967D03*
X034554Y008967D03*
X033034Y009847D03*
X030634Y009607D03*
X026234Y009287D03*
X028634Y007607D03*
X031034Y007207D03*
X031514Y006567D03*
X031514Y006167D03*
X037274Y008087D03*
M02*
