G75*
%MOIN*%
%OFA0B0*%
%FSLAX24Y24*%
%IPPOS*%
%LPD*%
%AMOC8*
5,1,8,0,0,1.08239X$1,22.5*
%
%ADD10C,0.0010*%
%ADD11OC8,0.0600*%
%ADD12R,0.0650X0.0650*%
%ADD13C,0.0650*%
%ADD14OC8,0.0480*%
%ADD15C,0.0660*%
%ADD16C,0.0570*%
%ADD17C,0.0480*%
%ADD18C,0.0591*%
%ADD19C,0.0740*%
%ADD20OC8,0.0660*%
%ADD21C,0.0120*%
%ADD22C,0.0240*%
%ADD23C,0.0320*%
%ADD24C,0.0080*%
%ADD25C,0.0160*%
%ADD26C,0.0100*%
D10*
X001244Y004057D02*
X043370Y004057D01*
X043370Y011734D01*
X001244Y011734D01*
X001244Y004057D01*
D11*
X038494Y007307D03*
X039494Y007307D03*
X040494Y007307D03*
X041494Y007307D03*
X042494Y007307D03*
X042494Y008307D03*
X041494Y008307D03*
X040494Y008307D03*
X039494Y008307D03*
X038494Y008307D03*
D12*
X035994Y009057D03*
X034994Y006557D03*
D13*
X035994Y006557D03*
X034994Y009057D03*
D14*
X033744Y009557D03*
X029744Y008807D03*
X029744Y006807D03*
X033744Y005557D03*
X040494Y005557D03*
X042494Y005557D03*
X042744Y010057D03*
X040744Y010057D03*
X022744Y004557D03*
X018744Y004557D03*
X017994Y004557D03*
X015994Y004557D03*
X017244Y005557D03*
X018244Y005557D03*
X021244Y006507D03*
X020244Y006557D03*
X019244Y006557D03*
X016244Y006557D03*
X013994Y007307D03*
X012994Y007307D03*
X013494Y008057D03*
X016244Y008557D03*
X019244Y008557D03*
X020244Y008557D03*
X021244Y008507D03*
X018244Y009557D03*
X017244Y009557D03*
X007994Y009807D03*
X005994Y009807D03*
X005994Y005807D03*
X007994Y005807D03*
D15*
X038744Y004557D03*
X042744Y004557D03*
X042744Y011057D03*
X038744Y011057D03*
D16*
X014994Y010807D03*
X013994Y010807D03*
X012994Y010807D03*
X011994Y010807D03*
X010994Y010807D03*
X009994Y010807D03*
X008994Y010807D03*
X007994Y010807D03*
X006994Y010807D03*
X005994Y010807D03*
X004994Y010807D03*
X003994Y010807D03*
X002994Y010807D03*
X001994Y010807D03*
X014994Y005807D03*
X014994Y004807D03*
X013994Y004807D03*
X012994Y004807D03*
X011994Y004807D03*
X010994Y004807D03*
X009994Y004807D03*
X008994Y004807D03*
X007994Y004807D03*
X006994Y004807D03*
X005994Y004807D03*
X004994Y004807D03*
X003994Y004807D03*
X002994Y004807D03*
X001994Y004807D03*
D17*
X003994Y006067D02*
X003994Y006547D01*
X004994Y006547D02*
X004994Y006067D01*
X008994Y006047D02*
X008994Y005567D01*
X009994Y005567D02*
X009994Y006047D01*
X009994Y008567D02*
X009994Y009047D01*
X008994Y009047D02*
X008994Y008567D01*
X004994Y009067D02*
X004994Y009547D01*
X003994Y009547D02*
X003994Y009067D01*
X022494Y009067D02*
X022494Y009547D01*
X023494Y009547D02*
X023494Y009067D01*
X024494Y009067D02*
X024494Y009547D01*
X025494Y009547D02*
X025494Y009067D01*
X026494Y009067D02*
X026494Y009547D01*
X027494Y009547D02*
X027494Y009067D01*
X028494Y009067D02*
X028494Y009547D01*
X028494Y006547D02*
X028494Y006067D01*
X027494Y006067D02*
X027494Y006547D01*
X026494Y006547D02*
X026494Y006067D01*
X025494Y006067D02*
X025494Y006547D01*
X024494Y006547D02*
X024494Y006067D01*
X023494Y006067D02*
X023494Y006547D01*
X022494Y006547D02*
X022494Y006067D01*
D18*
X035364Y004623D03*
X039123Y005991D03*
X039123Y009623D03*
X035364Y010991D03*
D19*
X033744Y010807D03*
X032744Y010807D03*
X031744Y010807D03*
X030744Y010807D03*
X029744Y010807D03*
X028744Y010807D03*
X027744Y010807D03*
X026744Y010807D03*
X025744Y010807D03*
X024744Y010807D03*
X023744Y010807D03*
X023744Y004557D03*
X024744Y004557D03*
X025744Y004557D03*
X026744Y004557D03*
X027744Y004557D03*
X028744Y004557D03*
X029744Y004557D03*
D20*
X031744Y004557D03*
X032744Y005557D03*
X031744Y006557D03*
D21*
X029744Y006807D02*
X029724Y006857D01*
X029644Y006937D01*
X027004Y006937D01*
X015644Y009657D02*
X008675Y009657D01*
X008553Y009606D02*
X008418Y009471D01*
X008287Y009417D02*
X007901Y009417D01*
X007735Y009486D02*
X007146Y010074D01*
X006803Y010217D02*
X003826Y010217D01*
X003770Y010215D01*
X003714Y010209D01*
X003659Y010200D01*
X003604Y010187D01*
X003551Y010170D01*
X003499Y010149D01*
X003448Y010125D01*
X003399Y010097D01*
X003352Y010067D01*
X003307Y010033D01*
X003265Y009996D01*
X003225Y009956D01*
X003188Y009914D01*
X003154Y009869D01*
X003124Y009822D01*
X003096Y009773D01*
X003072Y009722D01*
X003051Y009670D01*
X003034Y009617D01*
X003021Y009562D01*
X003012Y009507D01*
X003006Y009451D01*
X003004Y009395D01*
X003004Y004857D01*
X002994Y004807D01*
X008553Y009607D02*
X008570Y009621D01*
X008589Y009634D01*
X008609Y009644D01*
X008630Y009651D01*
X008653Y009656D01*
X008675Y009657D01*
X008417Y009471D02*
X008399Y009455D01*
X008379Y009442D01*
X008357Y009431D01*
X008335Y009423D01*
X008311Y009419D01*
X008287Y009417D01*
X007901Y009417D02*
X007875Y009418D01*
X007848Y009423D01*
X007823Y009430D01*
X007799Y009440D01*
X007775Y009453D01*
X007754Y009468D01*
X007734Y009486D01*
X007146Y010074D02*
X007115Y010103D01*
X007081Y010128D01*
X007045Y010151D01*
X007008Y010171D01*
X006969Y010187D01*
X006929Y010199D01*
X006887Y010209D01*
X006845Y010214D01*
X006803Y010216D01*
D22*
X015644Y009657D03*
X021964Y009097D03*
X025884Y007657D03*
X027004Y006937D03*
X027724Y005657D03*
X027484Y005257D03*
X023404Y005257D03*
X022684Y005417D03*
X017644Y004297D03*
D23*
X021244Y006507D02*
X021244Y007307D01*
X013994Y007307D01*
X021244Y007307D02*
X024847Y007307D01*
X025097Y007203D02*
X025494Y006807D01*
X025494Y006307D01*
X025494Y006807D02*
X025830Y007143D01*
X026225Y007307D02*
X033870Y007307D01*
X034508Y007043D02*
X034994Y006557D01*
X035151Y006399D01*
X034507Y007042D02*
X034464Y007082D01*
X034418Y007120D01*
X034371Y007154D01*
X034321Y007185D01*
X034269Y007213D01*
X034215Y007237D01*
X034160Y007258D01*
X034103Y007275D01*
X034046Y007289D01*
X033988Y007298D01*
X033929Y007304D01*
X033870Y007306D01*
X033870Y008307D02*
X030554Y008307D01*
X030024Y008526D02*
X029744Y008807D01*
X029347Y008410D01*
X029097Y008307D02*
X026390Y008307D01*
X026140Y008410D02*
X025494Y009057D01*
X025494Y009307D01*
X026140Y008410D02*
X026165Y008386D01*
X026193Y008366D01*
X026223Y008348D01*
X026255Y008333D01*
X026287Y008321D01*
X026321Y008313D01*
X026355Y008308D01*
X026390Y008306D01*
X029097Y008306D02*
X029132Y008308D01*
X029166Y008313D01*
X029200Y008321D01*
X029232Y008333D01*
X029264Y008348D01*
X029294Y008366D01*
X029322Y008386D01*
X029347Y008410D01*
X030024Y008527D02*
X030063Y008490D01*
X030105Y008457D01*
X030149Y008426D01*
X030195Y008399D01*
X030242Y008375D01*
X030292Y008354D01*
X030343Y008337D01*
X030395Y008324D01*
X030447Y008315D01*
X030500Y008309D01*
X030554Y008307D01*
X033870Y008307D02*
X033929Y008309D01*
X033988Y008315D01*
X034046Y008324D01*
X034103Y008338D01*
X034160Y008355D01*
X034215Y008376D01*
X034269Y008400D01*
X034321Y008428D01*
X034371Y008459D01*
X034418Y008493D01*
X034464Y008531D01*
X034507Y008571D01*
X034508Y008571D02*
X034994Y009057D01*
X035179Y009242D01*
X035364Y009690D02*
X035364Y010991D01*
X035364Y009690D02*
X035362Y009645D01*
X035358Y009600D01*
X035350Y009555D01*
X035338Y009511D01*
X035324Y009468D01*
X035307Y009427D01*
X035286Y009386D01*
X035263Y009347D01*
X035238Y009310D01*
X035209Y009275D01*
X035178Y009242D01*
X038494Y008307D02*
X039140Y008953D01*
X039390Y009057D02*
X041451Y009057D01*
X041951Y009264D02*
X042744Y010057D01*
X042744Y011057D01*
X040744Y010057D02*
X039725Y010057D01*
X039330Y009893D02*
X039123Y009686D01*
X039123Y009623D01*
X039330Y009893D02*
X039362Y009923D01*
X039396Y009950D01*
X039433Y009975D01*
X039471Y009996D01*
X039511Y010014D01*
X039552Y010030D01*
X039595Y010042D01*
X039638Y010050D01*
X039681Y010055D01*
X039725Y010057D01*
X041451Y009057D02*
X041501Y009059D01*
X041552Y009064D01*
X041601Y009073D01*
X041650Y009086D01*
X041698Y009102D01*
X041745Y009121D01*
X041790Y009143D01*
X041833Y009169D01*
X041875Y009198D01*
X041914Y009230D01*
X041951Y009264D01*
X039390Y009057D02*
X039355Y009055D01*
X039321Y009050D01*
X039287Y009042D01*
X039255Y009030D01*
X039223Y009015D01*
X039193Y008997D01*
X039165Y008977D01*
X039140Y008953D01*
X038494Y008307D02*
X038494Y007307D01*
X042494Y007307D02*
X042494Y005557D01*
X042494Y004807D01*
X042744Y004557D01*
X040494Y005557D02*
X040217Y005833D01*
X039837Y005991D02*
X039123Y005991D01*
X039837Y005991D02*
X039879Y005989D01*
X039921Y005984D01*
X039962Y005976D01*
X040003Y005965D01*
X040043Y005950D01*
X040081Y005932D01*
X040118Y005912D01*
X040153Y005888D01*
X040186Y005862D01*
X040217Y005834D01*
X042494Y007307D02*
X042494Y008307D01*
X035364Y005885D02*
X035364Y004623D01*
X035364Y005885D02*
X035362Y005937D01*
X035357Y005988D01*
X035347Y006040D01*
X035335Y006090D01*
X035318Y006139D01*
X035298Y006187D01*
X035275Y006233D01*
X035249Y006278D01*
X035219Y006321D01*
X035186Y006361D01*
X035151Y006399D01*
X026225Y007307D02*
X026181Y007305D01*
X026138Y007300D01*
X026095Y007292D01*
X026052Y007280D01*
X026011Y007264D01*
X025971Y007246D01*
X025933Y007225D01*
X025896Y007200D01*
X025862Y007173D01*
X025830Y007143D01*
X025097Y007203D02*
X025072Y007227D01*
X025044Y007247D01*
X025014Y007265D01*
X024982Y007280D01*
X024950Y007292D01*
X024916Y007300D01*
X024882Y007305D01*
X024847Y007307D01*
D24*
X025564Y007977D02*
X025884Y007657D01*
X025564Y007977D02*
X015728Y007977D01*
X015301Y008163D02*
X014908Y008589D01*
X014526Y008757D02*
X010044Y008757D01*
X009994Y008807D01*
X009457Y008270D01*
X009328Y008217D02*
X003964Y008217D01*
X003964Y009257D01*
X003994Y009307D01*
X005994Y009807D02*
X006044Y009737D01*
X006415Y009366D01*
X006678Y009257D02*
X008358Y009257D01*
X008504Y009317D02*
X008552Y009365D01*
X008677Y009417D02*
X016689Y009417D01*
X016953Y009307D02*
X017098Y009163D01*
X017257Y009097D02*
X021964Y009097D01*
X022044Y008857D02*
X020678Y008857D01*
X020415Y008748D02*
X020284Y008617D01*
X020244Y008557D01*
X020415Y008748D02*
X020442Y008773D01*
X020471Y008794D01*
X020503Y008813D01*
X020536Y008829D01*
X020570Y008841D01*
X020605Y008850D01*
X020642Y008855D01*
X020678Y008857D01*
X022044Y008857D02*
X022494Y009307D01*
X022524Y009337D01*
X023484Y009337D01*
X023494Y009307D01*
X024494Y009307D02*
X023432Y008245D01*
X023170Y008137D02*
X019725Y008137D01*
X019586Y008194D02*
X019244Y008537D01*
X019244Y008557D01*
X019586Y008195D02*
X019605Y008178D01*
X019627Y008163D01*
X019650Y008152D01*
X019674Y008144D01*
X019699Y008139D01*
X019725Y008137D01*
X016953Y009307D02*
X016926Y009332D01*
X016897Y009354D01*
X016865Y009373D01*
X016832Y009389D01*
X016798Y009401D01*
X016762Y009410D01*
X016726Y009415D01*
X016689Y009417D01*
X017098Y009162D02*
X017120Y009142D01*
X017145Y009126D01*
X017171Y009113D01*
X017199Y009104D01*
X017228Y009098D01*
X017257Y009096D01*
X015728Y007977D02*
X015680Y007979D01*
X015633Y007985D01*
X015586Y007995D01*
X015540Y008008D01*
X015495Y008026D01*
X015452Y008047D01*
X015411Y008071D01*
X015372Y008099D01*
X015336Y008130D01*
X015302Y008164D01*
X014908Y008590D02*
X014878Y008620D01*
X014845Y008648D01*
X014810Y008673D01*
X014773Y008695D01*
X014735Y008713D01*
X014695Y008729D01*
X014653Y008741D01*
X014611Y008750D01*
X014569Y008755D01*
X014526Y008757D01*
X009458Y008270D02*
X009440Y008254D01*
X009420Y008241D01*
X009398Y008230D01*
X009376Y008222D01*
X009352Y008218D01*
X009328Y008216D01*
X008677Y009417D02*
X008654Y009415D01*
X008631Y009411D01*
X008609Y009403D01*
X008588Y009393D01*
X008569Y009380D01*
X008551Y009365D01*
X008504Y009317D02*
X008483Y009300D01*
X008461Y009285D01*
X008437Y009273D01*
X008411Y009264D01*
X008385Y009259D01*
X008358Y009257D01*
X006678Y009257D02*
X006642Y009259D01*
X006605Y009264D01*
X006570Y009273D01*
X006536Y009285D01*
X006503Y009301D01*
X006471Y009320D01*
X006442Y009341D01*
X006415Y009366D01*
X007994Y009807D02*
X008169Y009807D01*
X008347Y009880D02*
X008392Y009925D01*
X008517Y009977D02*
X027324Y009977D01*
X027484Y009817D01*
X027484Y009317D01*
X027494Y009307D01*
X028494Y009307D01*
X023432Y008246D02*
X023405Y008221D01*
X023376Y008200D01*
X023345Y008181D01*
X023312Y008165D01*
X023278Y008153D01*
X023242Y008144D01*
X023206Y008139D01*
X023170Y008137D01*
X022924Y006937D02*
X022364Y006937D01*
X022124Y006697D01*
X022124Y005849D01*
X022126Y005822D01*
X022132Y005795D01*
X022141Y005769D01*
X022154Y005745D01*
X022171Y005723D01*
X022190Y005704D01*
X022212Y005687D01*
X022236Y005674D01*
X022262Y005665D01*
X022289Y005659D01*
X022316Y005657D01*
X022838Y005657D01*
X022984Y005596D02*
X023034Y005547D01*
X023154Y005497D02*
X027453Y005497D01*
X027724Y005657D02*
X030477Y005657D01*
X031103Y005916D02*
X031744Y006557D01*
X031103Y005915D02*
X031061Y005876D01*
X031016Y005839D01*
X030969Y005805D01*
X030919Y005775D01*
X030868Y005747D01*
X030816Y005723D01*
X030761Y005703D01*
X030706Y005686D01*
X030650Y005673D01*
X030593Y005664D01*
X030535Y005658D01*
X030477Y005656D01*
X030776Y005257D02*
X028033Y005257D01*
X028055Y005097D02*
X027740Y005097D01*
X027576Y005165D02*
X027484Y005257D01*
X027641Y005419D02*
X027619Y005439D01*
X027595Y005456D01*
X027568Y005471D01*
X027541Y005482D01*
X027512Y005490D01*
X027483Y005495D01*
X027453Y005497D01*
X027724Y005657D02*
X023234Y005657D01*
X023154Y005497D02*
X023132Y005498D01*
X023110Y005503D01*
X023089Y005510D01*
X023069Y005520D01*
X023050Y005532D01*
X023033Y005547D01*
X023114Y005706D02*
X022524Y006297D01*
X022494Y006307D01*
X022924Y006937D02*
X023484Y006377D01*
X023494Y006307D01*
X023234Y005657D02*
X023212Y005658D01*
X023190Y005663D01*
X023169Y005670D01*
X023149Y005680D01*
X023131Y005692D01*
X023114Y005707D01*
X022984Y005597D02*
X022963Y005614D01*
X022941Y005629D01*
X022917Y005641D01*
X022891Y005650D01*
X022865Y005655D01*
X022838Y005657D01*
X022684Y005417D02*
X021901Y005417D01*
X021735Y005486D02*
X021004Y006217D01*
X012364Y006217D01*
X011964Y006617D01*
X006604Y006617D01*
X006604Y004951D01*
X006537Y004790D02*
X006124Y004377D01*
X005586Y004377D01*
X005275Y004505D02*
X005004Y004777D01*
X004994Y004807D01*
X005276Y004506D02*
X005304Y004480D01*
X005334Y004456D01*
X005367Y004436D01*
X005400Y004418D01*
X005436Y004403D01*
X005472Y004392D01*
X005510Y004384D01*
X005548Y004379D01*
X005586Y004377D01*
X006994Y004807D02*
X007004Y004777D01*
X007383Y004397D01*
X007819Y004217D02*
X017006Y004217D01*
X017275Y004328D02*
X018010Y005063D01*
X018285Y005177D02*
X023324Y005177D01*
X023404Y005257D01*
X023540Y005073D02*
X023521Y005056D01*
X023500Y005042D01*
X023478Y005031D01*
X023454Y005023D01*
X023429Y005018D01*
X023404Y005016D01*
X023404Y005017D02*
X022774Y005017D01*
X022620Y004953D02*
X021991Y004324D01*
X021731Y004217D02*
X017724Y004217D01*
X017644Y004297D01*
X017275Y004328D02*
X017247Y004303D01*
X017217Y004281D01*
X017185Y004262D01*
X017151Y004246D01*
X017116Y004233D01*
X017080Y004224D01*
X017043Y004219D01*
X017006Y004217D01*
X016044Y004617D02*
X015994Y004557D01*
X016044Y004617D02*
X016864Y005437D01*
X017008Y005497D02*
X017244Y005497D01*
X017244Y005557D01*
X017244Y005577D01*
X018204Y005577D01*
X018244Y005557D01*
X017008Y005496D02*
X016982Y005494D01*
X016956Y005489D01*
X016931Y005481D01*
X016907Y005469D01*
X016885Y005454D01*
X016865Y005437D01*
X018010Y005063D02*
X018038Y005089D01*
X018069Y005111D01*
X018102Y005131D01*
X018136Y005147D01*
X018172Y005160D01*
X018209Y005170D01*
X018247Y005175D01*
X018285Y005177D01*
X021731Y004216D02*
X021767Y004218D01*
X021803Y004223D01*
X021838Y004232D01*
X021872Y004244D01*
X021904Y004259D01*
X021935Y004278D01*
X021964Y004300D01*
X021991Y004324D01*
X022620Y004952D02*
X022641Y004971D01*
X022665Y004987D01*
X022691Y004999D01*
X022718Y005009D01*
X022746Y005014D01*
X022774Y005016D01*
X023540Y005073D02*
X023552Y005083D01*
X023566Y005091D01*
X023581Y005095D01*
X023597Y005097D01*
X025139Y005097D01*
X025318Y005023D02*
X025724Y004617D01*
X025744Y004557D01*
X025318Y005023D02*
X025297Y005042D01*
X025274Y005058D01*
X025249Y005072D01*
X025223Y005083D01*
X025195Y005091D01*
X025167Y005095D01*
X025139Y005097D01*
X027575Y005164D02*
X027598Y005144D01*
X027624Y005127D01*
X027651Y005114D01*
X027680Y005104D01*
X027710Y005098D01*
X027740Y005096D01*
X028309Y004992D02*
X028744Y004557D01*
X028308Y004992D02*
X028282Y005016D01*
X028254Y005037D01*
X028224Y005055D01*
X028192Y005070D01*
X028159Y005082D01*
X028125Y005090D01*
X028090Y005095D01*
X028055Y005097D01*
X028033Y005257D02*
X027990Y005259D01*
X027946Y005264D01*
X027904Y005272D01*
X027862Y005284D01*
X027821Y005299D01*
X027782Y005317D01*
X027744Y005338D01*
X027708Y005363D01*
X027674Y005389D01*
X027642Y005419D01*
X027564Y006297D02*
X027494Y006307D01*
X027564Y006297D02*
X028444Y006297D01*
X028494Y006307D01*
X032611Y004617D02*
X032655Y004619D01*
X032699Y004624D01*
X032742Y004633D01*
X032785Y004645D01*
X032826Y004660D01*
X032866Y004678D01*
X032905Y004700D01*
X032941Y004724D01*
X032976Y004752D01*
X033008Y004782D01*
X033008Y004781D02*
X033724Y005497D01*
X033744Y005557D01*
X031724Y004617D02*
X031301Y005039D01*
X031724Y004617D02*
X031744Y004557D01*
X031804Y004617D01*
X032611Y004617D01*
X031301Y005040D02*
X031262Y005076D01*
X031221Y005109D01*
X031177Y005139D01*
X031132Y005166D01*
X031084Y005190D01*
X031035Y005210D01*
X030985Y005227D01*
X030934Y005240D01*
X030882Y005249D01*
X030829Y005255D01*
X030776Y005257D01*
X021901Y005417D02*
X021875Y005418D01*
X021848Y005423D01*
X021823Y005430D01*
X021799Y005440D01*
X021775Y005453D01*
X021754Y005468D01*
X021734Y005486D01*
X009994Y005807D02*
X009964Y005817D01*
X009004Y005817D02*
X008994Y005807D01*
X008924Y005817D01*
X008044Y005817D02*
X007994Y005807D01*
X005994Y005807D02*
X005964Y005817D01*
X004994Y006307D02*
X004924Y006297D01*
X004044Y006297D02*
X003994Y006307D01*
X003644Y006625D02*
X003645Y006647D01*
X003650Y006670D01*
X003657Y006691D01*
X003667Y006711D01*
X003680Y006730D01*
X003694Y006747D01*
X003884Y006937D01*
X003900Y006939D01*
X003915Y006943D01*
X003928Y006950D01*
X003941Y006960D01*
X003951Y006973D01*
X003958Y006986D01*
X003962Y007001D01*
X003964Y007017D01*
X003964Y008217D01*
X003644Y006625D02*
X003644Y005080D01*
X003643Y005080D02*
X003645Y005053D01*
X003650Y005026D01*
X003658Y005001D01*
X003669Y004976D01*
X003683Y004953D01*
X003699Y004931D01*
X003718Y004912D01*
X003740Y004896D01*
X003763Y004882D01*
X003788Y004871D01*
X003813Y004863D01*
X003840Y004858D01*
X003867Y004856D01*
X003867Y004857D02*
X003964Y004857D01*
X003994Y004807D01*
X006536Y004790D02*
X006553Y004809D01*
X006568Y004830D01*
X006580Y004852D01*
X006590Y004876D01*
X006597Y004900D01*
X006602Y004925D01*
X006603Y004951D01*
X007383Y004398D02*
X007418Y004365D01*
X007456Y004335D01*
X007497Y004308D01*
X007539Y004284D01*
X007583Y004264D01*
X007628Y004247D01*
X007675Y004234D01*
X007722Y004225D01*
X007771Y004219D01*
X007819Y004217D01*
X008392Y009924D02*
X008409Y009939D01*
X008428Y009952D01*
X008449Y009963D01*
X008471Y009970D01*
X008494Y009974D01*
X008517Y009976D01*
X008347Y009880D02*
X008326Y009861D01*
X008303Y009845D01*
X008278Y009831D01*
X008252Y009820D01*
X008225Y009812D01*
X008197Y009808D01*
X008169Y009806D01*
D25*
X004994Y006307D02*
X005484Y005817D01*
X005964Y005817D01*
X005994Y005807D02*
X005994Y004807D01*
X007994Y004807D02*
X007994Y005807D01*
X008044Y005817D02*
X008924Y005817D01*
X009004Y005817D02*
X009964Y005817D01*
X004924Y006297D02*
X004044Y006297D01*
D26*
X007994Y010747D02*
X008981Y010194D01*
X009201Y010137D02*
X029996Y010137D01*
X030129Y010192D02*
X030744Y010807D01*
X030129Y010192D02*
X030110Y010176D01*
X030090Y010162D01*
X030068Y010151D01*
X030045Y010143D01*
X030021Y010139D01*
X029996Y010137D01*
X028744Y010807D02*
X028337Y010400D01*
X028087Y010297D02*
X010875Y010297D01*
X010515Y010387D02*
X009994Y010667D01*
X009994Y010807D01*
X009201Y010137D02*
X009163Y010139D01*
X009125Y010143D01*
X009088Y010152D01*
X009051Y010163D01*
X009016Y010177D01*
X008982Y010194D01*
X007994Y010747D02*
X007994Y010807D01*
X010515Y010387D02*
X010563Y010364D01*
X010613Y010344D01*
X010663Y010327D01*
X010715Y010314D01*
X010768Y010305D01*
X010821Y010299D01*
X010875Y010297D01*
X012994Y010807D02*
X012994Y011007D01*
X013334Y011347D01*
X013695Y011497D02*
X024903Y011497D01*
X025160Y011390D02*
X025744Y010807D01*
X025160Y011390D02*
X025134Y011414D01*
X025105Y011436D01*
X025075Y011454D01*
X025042Y011469D01*
X025009Y011481D01*
X024974Y011490D01*
X024939Y011495D01*
X024903Y011497D01*
X024547Y011206D02*
X024744Y010957D01*
X024744Y010807D01*
X024547Y011206D02*
X024524Y011232D01*
X024499Y011256D01*
X024472Y011277D01*
X024442Y011295D01*
X024411Y011310D01*
X024379Y011322D01*
X024346Y011330D01*
X024311Y011335D01*
X024277Y011337D01*
X014671Y011337D01*
X014419Y011232D02*
X013994Y010807D01*
X013695Y011497D02*
X013655Y011495D01*
X013615Y011491D01*
X013576Y011483D01*
X013537Y011472D01*
X013499Y011458D01*
X013463Y011441D01*
X013428Y011422D01*
X013395Y011399D01*
X013363Y011375D01*
X013334Y011347D01*
X014419Y011233D02*
X014445Y011256D01*
X014473Y011277D01*
X014503Y011295D01*
X014535Y011310D01*
X014568Y011322D01*
X014602Y011330D01*
X014636Y011335D01*
X014671Y011337D01*
X028087Y010297D02*
X028122Y010299D01*
X028156Y010304D01*
X028190Y010312D01*
X028222Y010324D01*
X028254Y010339D01*
X028284Y010357D01*
X028312Y010377D01*
X028337Y010401D01*
M02*
