G75*
%MOIN*%
%OFA0B0*%
%FSLAX24Y24*%
%IPPOS*%
%LPD*%
%AMOC8*
5,1,8,0,0,1.08239X$1,22.5*
%
%ADD10C,0.0010*%
%ADD11OC8,0.0600*%
%ADD12R,0.0650X0.0650*%
%ADD13C,0.0650*%
%ADD14OC8,0.0480*%
%ADD15C,0.0660*%
%ADD16C,0.0570*%
%ADD17C,0.0480*%
%ADD18C,0.0591*%
%ADD19C,0.0740*%
%ADD20OC8,0.0660*%
%ADD21C,0.0120*%
%ADD22C,0.0240*%
%ADD23C,0.0160*%
%ADD24C,0.0400*%
%ADD25C,0.0320*%
%ADD26C,0.0080*%
%ADD27C,0.0100*%
D10*
X001244Y004057D02*
X043370Y004057D01*
X043370Y011734D01*
X001244Y011734D01*
X001244Y004057D01*
D11*
X038494Y007307D03*
X039494Y007307D03*
X040494Y007307D03*
X041494Y007307D03*
X042494Y007307D03*
X042494Y008307D03*
X041494Y008307D03*
X040494Y008307D03*
X039494Y008307D03*
X038494Y008307D03*
D12*
X035994Y009057D03*
X034994Y006557D03*
D13*
X035994Y006557D03*
X034994Y009057D03*
D14*
X033744Y009557D03*
X029744Y008807D03*
X029744Y006807D03*
X033744Y005557D03*
X040494Y005557D03*
X042494Y005557D03*
X042744Y010057D03*
X040744Y010057D03*
X022744Y004557D03*
X018744Y004557D03*
X017994Y004557D03*
X015994Y004557D03*
X017244Y005557D03*
X018244Y005557D03*
X021244Y006507D03*
X020244Y006557D03*
X019244Y006557D03*
X016244Y006557D03*
X013994Y007307D03*
X012994Y007307D03*
X013494Y008057D03*
X016244Y008557D03*
X019244Y008557D03*
X020244Y008557D03*
X021244Y008507D03*
X018244Y009557D03*
X017244Y009557D03*
X007994Y009807D03*
X005994Y009807D03*
X005994Y005807D03*
X007994Y005807D03*
D15*
X038744Y004557D03*
X042744Y004557D03*
X042744Y011057D03*
X038744Y011057D03*
D16*
X014994Y010807D03*
X013994Y010807D03*
X012994Y010807D03*
X011994Y010807D03*
X010994Y010807D03*
X009994Y010807D03*
X008994Y010807D03*
X007994Y010807D03*
X006994Y010807D03*
X005994Y010807D03*
X004994Y010807D03*
X003994Y010807D03*
X002994Y010807D03*
X001994Y010807D03*
X014994Y005807D03*
X014994Y004807D03*
X013994Y004807D03*
X012994Y004807D03*
X011994Y004807D03*
X010994Y004807D03*
X009994Y004807D03*
X008994Y004807D03*
X007994Y004807D03*
X006994Y004807D03*
X005994Y004807D03*
X004994Y004807D03*
X003994Y004807D03*
X002994Y004807D03*
X001994Y004807D03*
D17*
X003994Y006067D02*
X003994Y006547D01*
X004994Y006547D02*
X004994Y006067D01*
X008994Y006047D02*
X008994Y005567D01*
X009994Y005567D02*
X009994Y006047D01*
X009994Y008567D02*
X009994Y009047D01*
X008994Y009047D02*
X008994Y008567D01*
X004994Y009067D02*
X004994Y009547D01*
X003994Y009547D02*
X003994Y009067D01*
X022494Y009067D02*
X022494Y009547D01*
X023494Y009547D02*
X023494Y009067D01*
X024494Y009067D02*
X024494Y009547D01*
X025494Y009547D02*
X025494Y009067D01*
X026494Y009067D02*
X026494Y009547D01*
X027494Y009547D02*
X027494Y009067D01*
X028494Y009067D02*
X028494Y009547D01*
X028494Y006547D02*
X028494Y006067D01*
X027494Y006067D02*
X027494Y006547D01*
X026494Y006547D02*
X026494Y006067D01*
X025494Y006067D02*
X025494Y006547D01*
X024494Y006547D02*
X024494Y006067D01*
X023494Y006067D02*
X023494Y006547D01*
X022494Y006547D02*
X022494Y006067D01*
D18*
X035364Y004623D03*
X039123Y005991D03*
X039123Y009623D03*
X035364Y010991D03*
D19*
X033744Y010807D03*
X032744Y010807D03*
X031744Y010807D03*
X030744Y010807D03*
X029744Y010807D03*
X028744Y010807D03*
X027744Y010807D03*
X026744Y010807D03*
X025744Y010807D03*
X024744Y010807D03*
X023744Y010807D03*
X023744Y004557D03*
X024744Y004557D03*
X025744Y004557D03*
X026744Y004557D03*
X027744Y004557D03*
X028744Y004557D03*
X029744Y004557D03*
D20*
X031744Y004557D03*
X032744Y005557D03*
X031744Y006557D03*
D21*
X029804Y006857D02*
X029744Y006807D01*
X027004Y006937D02*
X025936Y008004D01*
X025616Y008137D02*
X021614Y008137D01*
X021578Y008139D01*
X021542Y008144D01*
X021507Y008153D01*
X021472Y008165D01*
X021440Y008181D01*
X021408Y008199D01*
X021379Y008221D01*
X021352Y008245D01*
X021328Y008272D01*
X021306Y008301D01*
X021288Y008333D01*
X021272Y008365D01*
X021260Y008400D01*
X021251Y008435D01*
X021246Y008471D01*
X021244Y008507D01*
X021244Y008537D01*
X020755Y009025D01*
X020390Y009177D02*
X020153Y009177D01*
X020153Y009176D02*
X020109Y009174D01*
X020065Y009168D01*
X020021Y009159D01*
X019979Y009145D01*
X019938Y009128D01*
X019899Y009108D01*
X019861Y009084D01*
X019826Y009057D01*
X019793Y009027D01*
X019763Y008994D01*
X019736Y008959D01*
X019712Y008922D01*
X019692Y008882D01*
X019675Y008841D01*
X019661Y008799D01*
X019652Y008755D01*
X019646Y008711D01*
X019644Y008667D01*
X019644Y008137D01*
X016124Y008137D01*
X015884Y008377D01*
X015884Y009245D01*
X015883Y009245D02*
X015881Y009281D01*
X015877Y009317D01*
X015869Y009352D01*
X015858Y009387D01*
X015844Y009420D01*
X015828Y009452D01*
X015808Y009482D01*
X015786Y009511D01*
X015762Y009538D01*
X015644Y009657D01*
X020390Y009176D02*
X020430Y009174D01*
X020471Y009170D01*
X020510Y009162D01*
X020549Y009151D01*
X020587Y009137D01*
X020624Y009120D01*
X020660Y009100D01*
X020693Y009077D01*
X020725Y009052D01*
X020755Y009025D01*
X019644Y008137D02*
X019644Y007221D01*
X019642Y007178D01*
X019636Y007135D01*
X019627Y007093D01*
X019614Y007052D01*
X019598Y007012D01*
X019578Y006974D01*
X019555Y006938D01*
X019528Y006903D01*
X019499Y006872D01*
X019244Y006617D01*
X019244Y006557D01*
X019244Y005378D01*
X019243Y005378D02*
X019241Y005330D01*
X019236Y005281D01*
X019227Y005234D01*
X019215Y005187D01*
X019200Y005141D01*
X019182Y005096D01*
X019160Y005053D01*
X019135Y005011D01*
X019108Y004971D01*
X019077Y004933D01*
X019044Y004898D01*
X019045Y004898D02*
X018764Y004617D01*
X018744Y004557D01*
X025616Y008137D02*
X025655Y008135D01*
X025695Y008130D01*
X025733Y008122D01*
X025771Y008110D01*
X025807Y008095D01*
X025843Y008076D01*
X025876Y008055D01*
X025907Y008031D01*
X025936Y008004D01*
X033744Y009557D02*
X033804Y009577D01*
X035484Y009577D01*
X035964Y009097D02*
X035994Y009057D01*
X040444Y009337D02*
X040444Y008377D01*
X040494Y007307D02*
X040444Y007257D01*
X040444Y006297D01*
X038764Y004617D02*
X038744Y004557D01*
X033724Y010777D02*
X033744Y010807D01*
X038744Y011057D02*
X038764Y011017D01*
D22*
X025884Y007657D03*
X027004Y006937D03*
X027724Y005657D03*
X027484Y005257D03*
X023404Y005257D03*
X022684Y005417D03*
X017644Y004297D03*
X021964Y009097D03*
X015644Y009657D03*
D23*
X015406Y009763D02*
X008981Y009763D01*
X008964Y009755D02*
X009052Y009792D01*
X009100Y009797D01*
X015420Y009797D01*
X015384Y009708D01*
X015384Y009605D01*
X015423Y009509D01*
X015494Y009439D01*
X015494Y006277D01*
X015276Y006277D01*
X015123Y006213D01*
X015078Y006232D01*
X014909Y006232D01*
X014753Y006167D01*
X014633Y006047D01*
X014569Y005891D01*
X014569Y005722D01*
X014633Y005566D01*
X014753Y005446D01*
X014909Y005382D01*
X015078Y005382D01*
X015234Y005446D01*
X015354Y005566D01*
X015419Y005722D01*
X015419Y005837D01*
X015494Y005837D01*
X015494Y004397D01*
X015114Y004397D01*
X015234Y004446D01*
X015354Y004566D01*
X015419Y004722D01*
X015419Y004891D01*
X015354Y005047D01*
X015234Y005167D01*
X015078Y005232D01*
X014909Y005232D01*
X014753Y005167D01*
X014633Y005047D01*
X014569Y004891D01*
X014569Y004722D01*
X014633Y004566D01*
X014753Y004446D01*
X014873Y004397D01*
X014756Y004397D01*
X014719Y004400D01*
X014652Y004428D01*
X014623Y004452D01*
X014399Y004676D01*
X014419Y004722D01*
X014419Y004891D01*
X014354Y005047D01*
X014234Y005167D01*
X014078Y005232D01*
X013909Y005232D01*
X013753Y005167D01*
X013633Y005047D01*
X013569Y004891D01*
X013569Y004722D01*
X013633Y004566D01*
X013753Y004446D01*
X013909Y004382D01*
X014078Y004382D01*
X014153Y004413D01*
X014324Y004242D01*
X001429Y004242D01*
X001429Y011549D01*
X011267Y011549D01*
X011238Y011520D01*
X011238Y011520D01*
X010950Y011232D01*
X010909Y011232D01*
X010753Y011167D01*
X010633Y011047D01*
X010569Y010891D01*
X010569Y010722D01*
X010633Y010566D01*
X010713Y010487D01*
X010275Y010487D01*
X010354Y010566D01*
X010419Y010722D01*
X010419Y010891D01*
X010354Y011047D01*
X010234Y011167D01*
X010078Y011232D01*
X009909Y011232D01*
X009753Y011167D01*
X009633Y011047D01*
X009569Y010891D01*
X009569Y010722D01*
X009633Y010566D01*
X009713Y010487D01*
X009672Y010487D01*
X009605Y010494D01*
X009541Y010514D01*
X009469Y010546D01*
X009365Y010591D01*
X009419Y010722D01*
X009419Y010891D01*
X009354Y011047D01*
X009234Y011167D01*
X009078Y011232D01*
X008909Y011232D01*
X008753Y011167D01*
X008633Y011047D01*
X008569Y010891D01*
X008569Y010722D01*
X008633Y010566D01*
X008753Y010446D01*
X008844Y010409D01*
X008845Y010404D01*
X008885Y010387D01*
X008915Y010357D01*
X008954Y010357D01*
X009022Y010327D01*
X008395Y010327D01*
X008363Y010329D01*
X008299Y010344D01*
X008270Y010357D01*
X008259Y010362D01*
X008199Y010392D01*
X008156Y010414D01*
X008234Y010446D01*
X008354Y010566D01*
X008419Y010722D01*
X008419Y010891D01*
X008354Y011047D01*
X008234Y011167D01*
X008078Y011232D01*
X007909Y011232D01*
X007753Y011167D01*
X007633Y011047D01*
X007569Y010891D01*
X007569Y010722D01*
X007575Y010706D01*
X007419Y010785D01*
X007419Y010891D01*
X007354Y011047D01*
X007234Y011167D01*
X007078Y011232D01*
X006909Y011232D01*
X006753Y011167D01*
X006633Y011047D01*
X006569Y010891D01*
X006569Y010722D01*
X006633Y010566D01*
X006753Y010446D01*
X006909Y010382D01*
X007078Y010382D01*
X007234Y010446D01*
X007239Y010451D01*
X007811Y010162D01*
X007614Y009964D01*
X007614Y009649D01*
X007746Y009517D01*
X007625Y009517D01*
X007593Y009520D01*
X007536Y009544D01*
X007511Y009564D01*
X006399Y010676D01*
X006419Y010722D01*
X006419Y010891D01*
X006354Y011047D01*
X006234Y011167D01*
X006078Y011232D01*
X005909Y011232D01*
X005753Y011167D01*
X005633Y011047D01*
X005569Y010891D01*
X005569Y010722D01*
X005633Y010566D01*
X005753Y010446D01*
X005909Y010382D01*
X006078Y010382D01*
X006153Y010413D01*
X007204Y009362D01*
X007218Y009348D01*
X007309Y009256D01*
X007309Y009256D01*
X007330Y009236D01*
X007521Y009157D01*
X008271Y009157D01*
X008420Y009218D01*
X008424Y009222D01*
X008874Y009672D01*
X008913Y009711D01*
X008926Y009725D01*
X008964Y009755D01*
X008806Y009604D02*
X015384Y009604D01*
X015487Y009446D02*
X009125Y009446D01*
X009155Y009436D02*
X009092Y009456D01*
X009027Y009467D01*
X008994Y009467D01*
X008994Y008807D01*
X009414Y008807D01*
X009414Y009080D01*
X009403Y009145D01*
X009383Y009208D01*
X009353Y009267D01*
X009314Y009320D01*
X009267Y009367D01*
X009214Y009406D01*
X009155Y009436D01*
X008994Y009446D02*
X008994Y009446D01*
X008994Y009467D02*
X008961Y009467D01*
X008895Y009456D01*
X008832Y009436D01*
X008774Y009406D01*
X008720Y009367D01*
X008673Y009320D01*
X008634Y009267D01*
X008604Y009208D01*
X008584Y009145D01*
X008574Y009080D01*
X008574Y008807D01*
X008994Y008807D01*
X008994Y008807D01*
X008994Y008807D01*
X008994Y009467D01*
X008863Y009446D02*
X008647Y009446D01*
X008649Y009287D02*
X008489Y009287D01*
X008424Y009222D02*
X008424Y009222D01*
X008420Y009218D02*
X008420Y009218D01*
X008581Y009129D02*
X005414Y009129D01*
X005414Y009034D02*
X005414Y009307D01*
X005414Y009580D01*
X005403Y009645D01*
X005383Y009708D01*
X005353Y009767D01*
X005314Y009820D01*
X005267Y009867D01*
X005214Y009906D01*
X005155Y009936D01*
X005092Y009956D01*
X005027Y009967D01*
X004994Y009967D01*
X004994Y009307D01*
X005414Y009307D01*
X004994Y009307D01*
X004994Y009307D01*
X004994Y009307D01*
X004994Y009967D01*
X004961Y009967D01*
X004895Y009956D01*
X004832Y009936D01*
X004774Y009906D01*
X004720Y009867D01*
X004673Y009820D01*
X004634Y009767D01*
X004604Y009708D01*
X004584Y009645D01*
X004574Y009580D01*
X004574Y009307D01*
X004994Y009307D01*
X004994Y008647D01*
X005027Y008647D01*
X005092Y008657D01*
X005155Y008677D01*
X005214Y008707D01*
X005267Y008746D01*
X005314Y008793D01*
X005353Y008847D01*
X005383Y008905D01*
X005403Y008968D01*
X005414Y009034D01*
X005404Y008970D02*
X008574Y008970D01*
X008574Y008812D02*
X005328Y008812D01*
X005068Y008653D02*
X008574Y008653D01*
X008574Y008534D02*
X008584Y008468D01*
X008604Y008405D01*
X008634Y008347D01*
X008673Y008293D01*
X008720Y008246D01*
X008774Y008207D01*
X008832Y008177D01*
X008895Y008157D01*
X008961Y008147D01*
X008994Y008147D01*
X009027Y008147D01*
X009092Y008157D01*
X009155Y008177D01*
X009214Y008207D01*
X009267Y008246D01*
X009314Y008293D01*
X009353Y008347D01*
X009383Y008405D01*
X009403Y008468D01*
X009414Y008534D01*
X009414Y008807D01*
X008994Y008807D01*
X008994Y008147D01*
X008994Y008807D01*
X008994Y008807D01*
X008994Y008807D01*
X008574Y008807D01*
X008574Y008534D01*
X008580Y008495D02*
X001429Y008495D01*
X001429Y008653D02*
X004920Y008653D01*
X004895Y008657D02*
X004961Y008647D01*
X004994Y008647D01*
X004994Y009307D01*
X004994Y009307D01*
X004994Y009307D01*
X004574Y009307D01*
X004574Y009034D01*
X004584Y008968D01*
X004604Y008905D01*
X004634Y008847D01*
X004673Y008793D01*
X004720Y008746D01*
X004774Y008707D01*
X004832Y008677D01*
X004895Y008657D01*
X004994Y008653D02*
X004994Y008653D01*
X004994Y008812D02*
X004994Y008812D01*
X004994Y008970D02*
X004994Y008970D01*
X004994Y009129D02*
X004994Y009129D01*
X004994Y009287D02*
X004994Y009287D01*
X004994Y009446D02*
X004994Y009446D01*
X004994Y009604D02*
X004994Y009604D01*
X004994Y009763D02*
X004994Y009763D01*
X004994Y009921D02*
X004994Y009921D01*
X005184Y009921D02*
X005614Y009921D01*
X005614Y009964D02*
X005614Y009649D01*
X005836Y009427D01*
X006151Y009427D01*
X006374Y009649D01*
X006374Y009964D01*
X006151Y010187D01*
X005836Y010187D01*
X005614Y009964D01*
X005729Y010080D02*
X001429Y010080D01*
X001429Y010238D02*
X006328Y010238D01*
X006258Y010080D02*
X006486Y010080D01*
X006374Y009921D02*
X006645Y009921D01*
X006803Y009763D02*
X006374Y009763D01*
X006329Y009604D02*
X006962Y009604D01*
X007120Y009446D02*
X006170Y009446D01*
X005817Y009446D02*
X005414Y009446D01*
X005410Y009604D02*
X005659Y009604D01*
X005614Y009763D02*
X005355Y009763D01*
X004804Y009921D02*
X004083Y009921D01*
X004069Y009927D02*
X003918Y009927D01*
X003778Y009869D01*
X003672Y009762D01*
X003614Y009622D01*
X003614Y008991D01*
X003672Y008851D01*
X003778Y008745D01*
X003918Y008687D01*
X004069Y008687D01*
X004209Y008745D01*
X004316Y008851D01*
X004374Y008991D01*
X004374Y009622D01*
X004316Y009762D01*
X004209Y009869D01*
X004069Y009927D01*
X003905Y009921D02*
X001429Y009921D01*
X001429Y009763D02*
X003672Y009763D01*
X003614Y009604D02*
X001429Y009604D01*
X001429Y009446D02*
X003614Y009446D01*
X003614Y009287D02*
X001429Y009287D01*
X001429Y009129D02*
X003614Y009129D01*
X003622Y008970D02*
X001429Y008970D01*
X001429Y008812D02*
X003711Y008812D01*
X004276Y008812D02*
X004660Y008812D01*
X004584Y008970D02*
X004365Y008970D01*
X004374Y009129D02*
X004574Y009129D01*
X004574Y009287D02*
X004374Y009287D01*
X004374Y009446D02*
X004574Y009446D01*
X004578Y009604D02*
X004374Y009604D01*
X004315Y009763D02*
X004632Y009763D01*
X004909Y010382D02*
X005078Y010382D01*
X005234Y010446D01*
X005354Y010566D01*
X005419Y010722D01*
X005419Y010891D01*
X005354Y011047D01*
X005234Y011167D01*
X005078Y011232D01*
X004909Y011232D01*
X004753Y011167D01*
X004633Y011047D01*
X004569Y010891D01*
X004569Y010722D01*
X004633Y010566D01*
X004753Y010446D01*
X004909Y010382D01*
X004873Y010397D02*
X004114Y010397D01*
X004078Y010382D02*
X004234Y010446D01*
X004354Y010566D01*
X004419Y010722D01*
X004419Y010891D01*
X004354Y011047D01*
X004234Y011167D01*
X004078Y011232D01*
X003909Y011232D01*
X003753Y011167D01*
X003633Y011047D01*
X003569Y010891D01*
X003569Y010722D01*
X003633Y010566D01*
X003753Y010446D01*
X003909Y010382D01*
X004078Y010382D01*
X003873Y010397D02*
X003114Y010397D01*
X003078Y010382D02*
X003234Y010446D01*
X003354Y010566D01*
X003419Y010722D01*
X003419Y010891D01*
X003354Y011047D01*
X003234Y011167D01*
X003078Y011232D01*
X002909Y011232D01*
X002753Y011167D01*
X002633Y011047D01*
X002569Y010891D01*
X002569Y010722D01*
X002633Y010566D01*
X002753Y010446D01*
X002909Y010382D01*
X003078Y010382D01*
X002873Y010397D02*
X002213Y010397D01*
X002237Y010409D02*
X002172Y010376D01*
X002103Y010353D01*
X002030Y010342D01*
X002009Y010342D01*
X002009Y010792D01*
X002009Y010822D01*
X001979Y010822D01*
X001979Y011272D01*
X001957Y011272D01*
X001885Y011260D01*
X001815Y011238D01*
X001750Y011204D01*
X001691Y011161D01*
X001639Y011110D01*
X001596Y011050D01*
X001563Y010985D01*
X001540Y010916D01*
X001529Y010843D01*
X001529Y010822D01*
X001979Y010822D01*
X001979Y010792D01*
X001529Y010792D01*
X001529Y010770D01*
X001540Y010698D01*
X001563Y010628D01*
X001596Y010563D01*
X001639Y010504D01*
X001691Y010452D01*
X001750Y010409D01*
X001815Y010376D01*
X001885Y010353D01*
X001957Y010342D01*
X001979Y010342D01*
X001979Y010792D01*
X002009Y010792D01*
X002459Y010792D01*
X002459Y010770D01*
X002447Y010698D01*
X002425Y010628D01*
X002391Y010563D01*
X002348Y010504D01*
X002297Y010452D01*
X002237Y010409D01*
X002386Y010555D02*
X002644Y010555D01*
X002572Y010714D02*
X002450Y010714D01*
X002459Y010822D02*
X002459Y010843D01*
X002447Y010916D01*
X002425Y010985D01*
X002391Y011050D01*
X002348Y011110D01*
X002297Y011161D01*
X002237Y011204D01*
X002172Y011238D01*
X002103Y011260D01*
X002030Y011272D01*
X002009Y011272D01*
X002009Y010822D01*
X002459Y010822D01*
X002454Y010872D02*
X002569Y010872D01*
X002626Y011031D02*
X002401Y011031D01*
X002258Y011189D02*
X002807Y011189D01*
X003181Y011189D02*
X003807Y011189D01*
X003626Y011031D02*
X003361Y011031D01*
X003419Y010872D02*
X003569Y010872D01*
X003572Y010714D02*
X003415Y010714D01*
X003343Y010555D02*
X003644Y010555D01*
X004343Y010555D02*
X004644Y010555D01*
X004572Y010714D02*
X004415Y010714D01*
X004419Y010872D02*
X004569Y010872D01*
X004626Y011031D02*
X004361Y011031D01*
X004181Y011189D02*
X004807Y011189D01*
X005181Y011189D02*
X005807Y011189D01*
X005626Y011031D02*
X005361Y011031D01*
X005419Y010872D02*
X005569Y010872D01*
X005572Y010714D02*
X005415Y010714D01*
X005343Y010555D02*
X005644Y010555D01*
X005873Y010397D02*
X005114Y010397D01*
X006114Y010397D02*
X006169Y010397D01*
X006520Y010555D02*
X006644Y010555D01*
X006678Y010397D02*
X006873Y010397D01*
X006837Y010238D02*
X007660Y010238D01*
X007729Y010080D02*
X006995Y010080D01*
X007154Y009921D02*
X007614Y009921D01*
X007614Y009763D02*
X007312Y009763D01*
X007471Y009604D02*
X007659Y009604D01*
X007279Y009287D02*
X005414Y009287D01*
X007330Y009236D02*
X007330Y009236D01*
X008994Y009287D02*
X008994Y009287D01*
X008994Y009129D02*
X008994Y009129D01*
X008994Y008970D02*
X008994Y008970D01*
X008994Y008812D02*
X008994Y008812D01*
X008994Y008653D02*
X008994Y008653D01*
X008994Y008495D02*
X008994Y008495D01*
X008994Y008336D02*
X008994Y008336D01*
X008994Y008178D02*
X008994Y008178D01*
X009155Y008178D02*
X013074Y008178D01*
X013074Y008231D02*
X013074Y008057D01*
X013494Y008057D01*
X013914Y008057D01*
X013914Y008231D01*
X013668Y008477D01*
X013494Y008477D01*
X013494Y008057D01*
X013494Y008057D01*
X013494Y008057D01*
X013494Y008477D01*
X013320Y008477D01*
X013074Y008231D01*
X013179Y008336D02*
X010301Y008336D01*
X010316Y008351D02*
X010374Y008491D01*
X010374Y009122D01*
X010316Y009262D01*
X010209Y009369D01*
X010069Y009427D01*
X009918Y009427D01*
X009778Y009369D01*
X009672Y009262D01*
X009614Y009122D01*
X009614Y008491D01*
X009672Y008351D01*
X009778Y008245D01*
X009918Y008187D01*
X010069Y008187D01*
X010209Y008245D01*
X010316Y008351D01*
X010374Y008495D02*
X015494Y008495D01*
X015494Y008653D02*
X010374Y008653D01*
X010374Y008812D02*
X015494Y008812D01*
X015494Y008970D02*
X010374Y008970D01*
X010371Y009129D02*
X015494Y009129D01*
X015494Y009287D02*
X010291Y009287D01*
X009697Y009287D02*
X009338Y009287D01*
X009406Y009129D02*
X009616Y009129D01*
X009614Y008970D02*
X009414Y008970D01*
X009414Y008812D02*
X009614Y008812D01*
X009614Y008653D02*
X009414Y008653D01*
X009408Y008495D02*
X009614Y008495D01*
X009687Y008336D02*
X009345Y008336D01*
X008832Y008178D02*
X001429Y008178D01*
X001429Y008336D02*
X008642Y008336D01*
X012756Y007607D02*
X002554Y007607D01*
X002239Y007476D01*
X002239Y007476D01*
X002160Y007397D01*
X001903Y007140D01*
X001824Y007062D01*
X001824Y007062D01*
X001694Y006746D01*
X001694Y005108D01*
X001633Y005047D01*
X001569Y004891D01*
X001569Y004722D01*
X001633Y004566D01*
X001753Y004446D01*
X001909Y004382D01*
X002078Y004382D01*
X002234Y004446D01*
X002354Y004566D01*
X002419Y004722D01*
X002419Y004891D01*
X002354Y005047D01*
X002294Y005108D01*
X002294Y006575D01*
X002299Y006626D01*
X002337Y006719D01*
X002370Y006758D01*
X002500Y006889D01*
X002503Y006892D01*
X002542Y006931D01*
X002581Y006963D01*
X002675Y007002D01*
X002725Y007007D01*
X012756Y007007D01*
X012836Y006927D01*
X013151Y006927D01*
X013374Y007149D01*
X013374Y007464D01*
X013151Y007687D01*
X012836Y007687D01*
X012756Y007607D01*
X013074Y007883D02*
X013320Y007637D01*
X013494Y007637D01*
X013668Y007637D01*
X013914Y007883D01*
X013914Y008057D01*
X013494Y008057D01*
X013494Y007637D01*
X013494Y008057D01*
X013494Y008057D01*
X013494Y008057D01*
X013074Y008057D01*
X013074Y007883D01*
X013096Y007861D02*
X001429Y007861D01*
X001429Y008019D02*
X013074Y008019D01*
X013494Y008019D02*
X013494Y008019D01*
X013494Y007861D02*
X013494Y007861D01*
X013494Y007702D02*
X013494Y007702D01*
X013733Y007702D02*
X015494Y007702D01*
X015494Y007544D02*
X014294Y007544D01*
X014374Y007464D02*
X014151Y007687D01*
X013836Y007687D01*
X013614Y007464D01*
X013614Y007149D01*
X013836Y006927D01*
X014151Y006927D01*
X014374Y007149D01*
X014374Y007464D01*
X014374Y007385D02*
X015494Y007385D01*
X015494Y007227D02*
X014374Y007227D01*
X014293Y007068D02*
X015494Y007068D01*
X015494Y006910D02*
X005110Y006910D01*
X005069Y006927D02*
X004918Y006927D01*
X004778Y006869D01*
X004672Y006762D01*
X004614Y006622D01*
X004614Y005991D01*
X004672Y005851D01*
X004778Y005745D01*
X004918Y005687D01*
X005069Y005687D01*
X005209Y005745D01*
X005316Y005851D01*
X005374Y005991D01*
X005374Y006622D01*
X005316Y006762D01*
X005209Y006869D01*
X005069Y006927D01*
X004877Y006910D02*
X004110Y006910D01*
X004069Y006927D02*
X003918Y006927D01*
X003778Y006869D01*
X003672Y006762D01*
X003614Y006622D01*
X003614Y005991D01*
X003672Y005851D01*
X003778Y005745D01*
X003918Y005687D01*
X004069Y005687D01*
X004209Y005745D01*
X004316Y005851D01*
X004374Y005991D01*
X004374Y006622D01*
X004316Y006762D01*
X004209Y006869D01*
X004069Y006927D01*
X003877Y006910D02*
X002521Y006910D01*
X002500Y006889D02*
X002500Y006889D01*
X002364Y006751D02*
X003667Y006751D01*
X003614Y006593D02*
X002295Y006593D01*
X002294Y006434D02*
X003614Y006434D01*
X003614Y006276D02*
X002294Y006276D01*
X002294Y006117D02*
X003614Y006117D01*
X003627Y005959D02*
X002294Y005959D01*
X002294Y005800D02*
X003723Y005800D01*
X004265Y005800D02*
X004723Y005800D01*
X004627Y005959D02*
X004360Y005959D01*
X004374Y006117D02*
X004614Y006117D01*
X004614Y006276D02*
X004374Y006276D01*
X004374Y006434D02*
X004614Y006434D01*
X004614Y006593D02*
X004374Y006593D01*
X004320Y006751D02*
X004667Y006751D01*
X005320Y006751D02*
X015494Y006751D01*
X015494Y006593D02*
X005374Y006593D01*
X005374Y006434D02*
X015494Y006434D01*
X015620Y006056D02*
X015648Y006058D01*
X015676Y006062D01*
X015703Y006070D01*
X015729Y006081D01*
X015754Y006094D01*
X015776Y006111D01*
X015797Y006130D01*
X016204Y006537D01*
X015274Y006276D02*
X010302Y006276D01*
X010316Y006262D02*
X010209Y006369D01*
X010069Y006427D01*
X009918Y006427D01*
X009778Y006369D01*
X009672Y006262D01*
X009614Y006122D01*
X009614Y005491D01*
X009672Y005351D01*
X009778Y005245D01*
X009859Y005211D01*
X009753Y005167D01*
X009633Y005047D01*
X009569Y004891D01*
X009569Y004722D01*
X009633Y004566D01*
X009753Y004446D01*
X009909Y004382D01*
X010078Y004382D01*
X010234Y004446D01*
X010354Y004566D01*
X010419Y004722D01*
X010419Y004891D01*
X010354Y005047D01*
X010234Y005167D01*
X010128Y005211D01*
X010209Y005245D01*
X010316Y005351D01*
X010374Y005491D01*
X010374Y006122D01*
X010316Y006262D01*
X010374Y006117D02*
X014703Y006117D01*
X014597Y005959D02*
X010374Y005959D01*
X010374Y005800D02*
X014569Y005800D01*
X014602Y005642D02*
X010374Y005642D01*
X010370Y005483D02*
X014716Y005483D01*
X015271Y005483D02*
X015494Y005483D01*
X015494Y005325D02*
X010289Y005325D01*
X010235Y005166D02*
X010752Y005166D01*
X010753Y005167D02*
X010633Y005047D01*
X010569Y004891D01*
X010569Y004722D01*
X010633Y004566D01*
X010753Y004446D01*
X010909Y004382D01*
X011078Y004382D01*
X011234Y004446D01*
X011354Y004566D01*
X011419Y004722D01*
X011419Y004891D01*
X011354Y005047D01*
X011234Y005167D01*
X011078Y005232D01*
X010909Y005232D01*
X010753Y005167D01*
X010617Y005008D02*
X010370Y005008D01*
X010419Y004849D02*
X010569Y004849D01*
X010582Y004691D02*
X010406Y004691D01*
X010320Y004532D02*
X010667Y004532D01*
X011320Y004532D02*
X011667Y004532D01*
X011633Y004566D02*
X011753Y004446D01*
X011909Y004382D01*
X012078Y004382D01*
X012234Y004446D01*
X012354Y004566D01*
X012419Y004722D01*
X012419Y004891D01*
X012354Y005047D01*
X012234Y005167D01*
X012078Y005232D01*
X011909Y005232D01*
X011753Y005167D01*
X011633Y005047D01*
X011569Y004891D01*
X011569Y004722D01*
X011633Y004566D01*
X011582Y004691D02*
X011406Y004691D01*
X011419Y004849D02*
X011569Y004849D01*
X011617Y005008D02*
X011370Y005008D01*
X011235Y005166D02*
X011752Y005166D01*
X012235Y005166D02*
X012752Y005166D01*
X012753Y005167D02*
X012633Y005047D01*
X012569Y004891D01*
X012569Y004722D01*
X012633Y004566D01*
X012753Y004446D01*
X012909Y004382D01*
X013078Y004382D01*
X013234Y004446D01*
X013354Y004566D01*
X013419Y004722D01*
X013419Y004891D01*
X013354Y005047D01*
X013234Y005167D01*
X013078Y005232D01*
X012909Y005232D01*
X012753Y005167D01*
X012617Y005008D02*
X012370Y005008D01*
X012419Y004849D02*
X012569Y004849D01*
X012582Y004691D02*
X012406Y004691D01*
X012320Y004532D02*
X012667Y004532D01*
X013320Y004532D02*
X013667Y004532D01*
X013582Y004691D02*
X013406Y004691D01*
X013419Y004849D02*
X013569Y004849D01*
X013617Y005008D02*
X013370Y005008D01*
X013235Y005166D02*
X013752Y005166D01*
X014235Y005166D02*
X014752Y005166D01*
X014617Y005008D02*
X014370Y005008D01*
X014419Y004849D02*
X014569Y004849D01*
X014582Y004691D02*
X014406Y004691D01*
X014543Y004532D02*
X014667Y004532D01*
X014192Y004374D02*
X001429Y004374D01*
X001429Y004532D02*
X001667Y004532D01*
X001582Y004691D02*
X001429Y004691D01*
X001429Y004849D02*
X001569Y004849D01*
X001617Y005008D02*
X001429Y005008D01*
X001429Y005166D02*
X001694Y005166D01*
X001694Y005325D02*
X001429Y005325D01*
X001429Y005483D02*
X001694Y005483D01*
X001694Y005642D02*
X001429Y005642D01*
X001429Y005800D02*
X001694Y005800D01*
X001694Y005959D02*
X001429Y005959D01*
X001429Y006117D02*
X001694Y006117D01*
X001694Y006276D02*
X001429Y006276D01*
X001429Y006434D02*
X001694Y006434D01*
X001694Y006593D02*
X001429Y006593D01*
X001429Y006751D02*
X001696Y006751D01*
X001762Y006910D02*
X001429Y006910D01*
X001429Y007068D02*
X001831Y007068D01*
X001903Y007140D02*
X001903Y007140D01*
X001989Y007227D02*
X001429Y007227D01*
X001429Y007385D02*
X002148Y007385D01*
X002160Y007397D02*
X002160Y007397D01*
X002402Y007544D02*
X001429Y007544D01*
X001429Y007702D02*
X013254Y007702D01*
X013294Y007544D02*
X013693Y007544D01*
X013614Y007385D02*
X013374Y007385D01*
X013374Y007227D02*
X013614Y007227D01*
X013695Y007068D02*
X013293Y007068D01*
X013892Y007861D02*
X015494Y007861D01*
X015494Y008019D02*
X013914Y008019D01*
X013914Y008178D02*
X015494Y008178D01*
X015494Y008336D02*
X013808Y008336D01*
X013494Y008336D02*
X013494Y008336D01*
X013494Y008178D02*
X013494Y008178D01*
X009209Y006369D02*
X009069Y006427D01*
X008918Y006427D01*
X008778Y006369D01*
X008672Y006262D01*
X008614Y006122D01*
X008614Y005491D01*
X008672Y005351D01*
X008778Y005245D01*
X008859Y005211D01*
X008753Y005167D01*
X008633Y005047D01*
X008569Y004891D01*
X008569Y004722D01*
X008633Y004566D01*
X008753Y004446D01*
X008909Y004382D01*
X009078Y004382D01*
X009234Y004446D01*
X009354Y004566D01*
X009419Y004722D01*
X009419Y004891D01*
X009354Y005047D01*
X009234Y005167D01*
X009128Y005211D01*
X009209Y005245D01*
X009316Y005351D01*
X009374Y005491D01*
X009374Y006122D01*
X009316Y006262D01*
X009209Y006369D01*
X009302Y006276D02*
X009685Y006276D01*
X009614Y006117D02*
X009374Y006117D01*
X009374Y005959D02*
X009614Y005959D01*
X009614Y005800D02*
X009374Y005800D01*
X009374Y005642D02*
X009614Y005642D01*
X009617Y005483D02*
X009370Y005483D01*
X009289Y005325D02*
X009698Y005325D01*
X009752Y005166D02*
X009235Y005166D01*
X009370Y005008D02*
X009617Y005008D01*
X009569Y004849D02*
X009419Y004849D01*
X009406Y004691D02*
X009582Y004691D01*
X009667Y004532D02*
X009320Y004532D01*
X008667Y004532D02*
X008320Y004532D01*
X008354Y004566D02*
X008419Y004722D01*
X008419Y004891D01*
X008354Y005047D01*
X008234Y005167D01*
X008078Y005232D01*
X007909Y005232D01*
X007753Y005167D01*
X007633Y005047D01*
X007569Y004891D01*
X007569Y004722D01*
X007633Y004566D01*
X007753Y004446D01*
X007909Y004382D01*
X008078Y004382D01*
X008234Y004446D01*
X008354Y004566D01*
X008406Y004691D02*
X008582Y004691D01*
X008569Y004849D02*
X008419Y004849D01*
X008370Y005008D02*
X008617Y005008D01*
X008752Y005166D02*
X008235Y005166D01*
X008151Y005427D02*
X008374Y005649D01*
X008374Y005964D01*
X008151Y006187D01*
X007836Y006187D01*
X007614Y005964D01*
X007614Y005649D01*
X007836Y005427D01*
X008151Y005427D01*
X008208Y005483D02*
X008617Y005483D01*
X008614Y005642D02*
X008366Y005642D01*
X008374Y005800D02*
X008614Y005800D01*
X008614Y005959D02*
X008374Y005959D01*
X008221Y006117D02*
X008614Y006117D01*
X008685Y006276D02*
X005374Y006276D01*
X005374Y006117D02*
X005767Y006117D01*
X005836Y006187D02*
X005614Y005964D01*
X005614Y005649D01*
X005836Y005427D01*
X006151Y005427D01*
X006374Y005649D01*
X006374Y005964D01*
X006151Y006187D01*
X005836Y006187D01*
X005614Y005959D02*
X005360Y005959D01*
X005265Y005800D02*
X005614Y005800D01*
X005621Y005642D02*
X002294Y005642D01*
X002294Y005483D02*
X005780Y005483D01*
X006208Y005483D02*
X007780Y005483D01*
X007621Y005642D02*
X006366Y005642D01*
X006374Y005800D02*
X007614Y005800D01*
X007614Y005959D02*
X006374Y005959D01*
X006221Y006117D02*
X007767Y006117D01*
X008698Y005325D02*
X002294Y005325D01*
X002294Y005166D02*
X002752Y005166D01*
X002753Y005167D02*
X002633Y005047D01*
X002569Y004891D01*
X002569Y004722D01*
X002633Y004566D01*
X002753Y004446D01*
X002909Y004382D01*
X003078Y004382D01*
X003234Y004446D01*
X003354Y004566D01*
X003419Y004722D01*
X003419Y004891D01*
X003354Y005047D01*
X003234Y005167D01*
X003078Y005232D01*
X002909Y005232D01*
X002753Y005167D01*
X002617Y005008D02*
X002370Y005008D01*
X002419Y004849D02*
X002569Y004849D01*
X002582Y004691D02*
X002406Y004691D01*
X002320Y004532D02*
X002667Y004532D01*
X003320Y004532D02*
X003667Y004532D01*
X003633Y004566D02*
X003753Y004446D01*
X003909Y004382D01*
X004078Y004382D01*
X004234Y004446D01*
X004354Y004566D01*
X004419Y004722D01*
X004419Y004891D01*
X004354Y005047D01*
X004234Y005167D01*
X004078Y005232D01*
X003909Y005232D01*
X003753Y005167D01*
X003633Y005047D01*
X003569Y004891D01*
X003569Y004722D01*
X003633Y004566D01*
X003582Y004691D02*
X003406Y004691D01*
X003419Y004849D02*
X003569Y004849D01*
X003617Y005008D02*
X003370Y005008D01*
X003235Y005166D02*
X003752Y005166D01*
X004235Y005166D02*
X004752Y005166D01*
X004753Y005167D02*
X004633Y005047D01*
X004569Y004891D01*
X004569Y004722D01*
X004633Y004566D01*
X004753Y004446D01*
X004909Y004382D01*
X005078Y004382D01*
X005234Y004446D01*
X005354Y004566D01*
X005419Y004722D01*
X005419Y004891D01*
X005354Y005047D01*
X005234Y005167D01*
X005078Y005232D01*
X004909Y005232D01*
X004753Y005167D01*
X004617Y005008D02*
X004370Y005008D01*
X004419Y004849D02*
X004569Y004849D01*
X004582Y004691D02*
X004406Y004691D01*
X004320Y004532D02*
X004667Y004532D01*
X005320Y004532D02*
X005667Y004532D01*
X005633Y004566D02*
X005753Y004446D01*
X005909Y004382D01*
X006078Y004382D01*
X006234Y004446D01*
X006354Y004566D01*
X006419Y004722D01*
X006419Y004891D01*
X006354Y005047D01*
X006234Y005167D01*
X006078Y005232D01*
X005909Y005232D01*
X005753Y005167D01*
X005633Y005047D01*
X005569Y004891D01*
X005569Y004722D01*
X005633Y004566D01*
X005582Y004691D02*
X005406Y004691D01*
X005419Y004849D02*
X005569Y004849D01*
X005617Y005008D02*
X005370Y005008D01*
X005235Y005166D02*
X005752Y005166D01*
X006235Y005166D02*
X006752Y005166D01*
X006753Y005167D02*
X006633Y005047D01*
X006569Y004891D01*
X006569Y004722D01*
X006633Y004566D01*
X006753Y004446D01*
X006909Y004382D01*
X007078Y004382D01*
X007234Y004446D01*
X007354Y004566D01*
X007419Y004722D01*
X007419Y004891D01*
X007354Y005047D01*
X007234Y005167D01*
X007078Y005232D01*
X006909Y005232D01*
X006753Y005167D01*
X006617Y005008D02*
X006370Y005008D01*
X006419Y004849D02*
X006569Y004849D01*
X006582Y004691D02*
X006406Y004691D01*
X006320Y004532D02*
X006667Y004532D01*
X007320Y004532D02*
X007667Y004532D01*
X007582Y004691D02*
X007406Y004691D01*
X007419Y004849D02*
X007569Y004849D01*
X007617Y005008D02*
X007370Y005008D01*
X007235Y005166D02*
X007752Y005166D01*
X014994Y005807D02*
X015140Y005953D01*
X015390Y006057D02*
X015620Y006057D01*
X015494Y005800D02*
X015419Y005800D01*
X015390Y006057D02*
X015355Y006055D01*
X015321Y006050D01*
X015287Y006042D01*
X015255Y006030D01*
X015223Y006015D01*
X015193Y005997D01*
X015165Y005977D01*
X015140Y005953D01*
X015385Y005642D02*
X015494Y005642D01*
X015494Y005166D02*
X015235Y005166D01*
X015370Y005008D02*
X015494Y005008D01*
X015494Y004849D02*
X015419Y004849D01*
X015406Y004691D02*
X015494Y004691D01*
X015494Y004532D02*
X015320Y004532D01*
X033244Y004532D02*
X034931Y004532D01*
X034929Y004536D02*
X034995Y004376D01*
X035118Y004254D01*
X035147Y004242D01*
X033244Y004242D01*
X033244Y010577D01*
X033273Y010518D01*
X033324Y010448D01*
X033385Y010387D01*
X033455Y010336D01*
X033533Y010297D01*
X033615Y010270D01*
X033700Y010257D01*
X033724Y010257D01*
X033724Y010787D01*
X033764Y010787D01*
X033764Y010827D01*
X033724Y010827D01*
X033724Y011357D01*
X033700Y011357D01*
X033615Y011343D01*
X033533Y011316D01*
X033455Y011277D01*
X033385Y011226D01*
X033324Y011165D01*
X033273Y011095D01*
X033244Y011037D01*
X033244Y011549D01*
X038608Y011549D01*
X038548Y011529D01*
X038476Y011493D01*
X038411Y011446D01*
X038355Y011389D01*
X038308Y011324D01*
X038271Y011252D01*
X038246Y011176D01*
X038234Y011097D01*
X038234Y011087D01*
X038714Y011087D01*
X038714Y011027D01*
X038234Y011027D01*
X038234Y011017D01*
X038246Y010937D01*
X038271Y010861D01*
X038308Y010789D01*
X038355Y010724D01*
X038411Y010668D01*
X038476Y010621D01*
X038548Y010584D01*
X038624Y010559D01*
X038704Y010547D01*
X038714Y010547D01*
X038714Y011027D01*
X038774Y011027D01*
X038774Y011087D01*
X039254Y011087D01*
X039254Y011097D01*
X039241Y011176D01*
X039216Y011252D01*
X039180Y011324D01*
X039133Y011389D01*
X039076Y011446D01*
X039011Y011493D01*
X038939Y011529D01*
X038879Y011549D01*
X043185Y011549D01*
X043185Y011220D01*
X043142Y011323D01*
X043010Y011455D01*
X042837Y011527D01*
X042650Y011527D01*
X042477Y011455D01*
X042345Y011323D01*
X042274Y011150D01*
X042274Y010963D01*
X042345Y010790D01*
X042477Y010658D01*
X042650Y010587D01*
X042837Y010587D01*
X043010Y010658D01*
X043142Y010790D01*
X043185Y010893D01*
X043185Y004720D01*
X043142Y004823D01*
X043010Y004955D01*
X042837Y005027D01*
X042650Y005027D01*
X042477Y004955D01*
X042345Y004823D01*
X042274Y004650D01*
X042274Y004463D01*
X042345Y004290D01*
X042394Y004242D01*
X039145Y004242D01*
X039180Y004289D01*
X039216Y004361D01*
X039241Y004437D01*
X039254Y004517D01*
X039254Y004527D01*
X038774Y004527D01*
X038774Y004587D01*
X038714Y004587D01*
X038714Y005067D01*
X038704Y005067D01*
X038624Y005054D01*
X038548Y005029D01*
X038476Y004993D01*
X038411Y004946D01*
X038355Y004889D01*
X038308Y004824D01*
X038271Y004752D01*
X038246Y004676D01*
X038234Y004597D01*
X038234Y004587D01*
X038714Y004587D01*
X038714Y004527D01*
X038234Y004527D01*
X038234Y004517D01*
X038246Y004437D01*
X038271Y004361D01*
X038308Y004289D01*
X038342Y004242D01*
X035582Y004242D01*
X035611Y004254D01*
X035733Y004376D01*
X035800Y004536D01*
X035800Y004709D01*
X035733Y004869D01*
X035611Y004992D01*
X035451Y005058D01*
X035278Y005058D01*
X035118Y004992D01*
X034995Y004869D01*
X034929Y004709D01*
X034929Y004536D01*
X034929Y004691D02*
X033244Y004691D01*
X033244Y004849D02*
X034987Y004849D01*
X035156Y005008D02*
X033244Y005008D01*
X033244Y005166D02*
X043185Y005166D01*
X043185Y005008D02*
X042883Y005008D01*
X042604Y005008D02*
X038982Y005008D01*
X039011Y004993D02*
X038939Y005029D01*
X038863Y005054D01*
X038784Y005067D01*
X038774Y005067D01*
X038774Y004587D01*
X039254Y004587D01*
X039254Y004597D01*
X039241Y004676D01*
X039216Y004752D01*
X039180Y004824D01*
X039133Y004889D01*
X039076Y004946D01*
X039011Y004993D01*
X039162Y004849D02*
X042372Y004849D01*
X042290Y004691D02*
X039236Y004691D01*
X038774Y004691D02*
X038714Y004691D01*
X038714Y004849D02*
X038774Y004849D01*
X038774Y005008D02*
X038714Y005008D01*
X038505Y005008D02*
X035572Y005008D01*
X035742Y004849D02*
X038326Y004849D01*
X038251Y004691D02*
X035800Y004691D01*
X035798Y004532D02*
X038714Y004532D01*
X038774Y004532D02*
X042274Y004532D01*
X042311Y004374D02*
X039220Y004374D01*
X038267Y004374D02*
X035731Y004374D01*
X034998Y004374D02*
X033244Y004374D01*
X033586Y005177D02*
X033901Y005177D01*
X034124Y005399D01*
X034124Y005714D01*
X033901Y005937D01*
X033586Y005937D01*
X033364Y005714D01*
X033364Y005399D01*
X033586Y005177D01*
X033438Y005325D02*
X033244Y005325D01*
X033244Y005483D02*
X033364Y005483D01*
X033364Y005642D02*
X033244Y005642D01*
X033244Y005800D02*
X033450Y005800D01*
X033244Y005959D02*
X038688Y005959D01*
X038688Y005904D02*
X038754Y005744D01*
X038877Y005622D01*
X039037Y005555D01*
X039210Y005555D01*
X039370Y005622D01*
X039492Y005744D01*
X039558Y005904D01*
X039558Y006077D01*
X039492Y006237D01*
X039370Y006360D01*
X039210Y006426D01*
X039037Y006426D01*
X038877Y006360D01*
X038754Y006237D01*
X038688Y006077D01*
X038688Y005904D01*
X038731Y005800D02*
X034038Y005800D01*
X034124Y005642D02*
X038857Y005642D01*
X039390Y005642D02*
X040114Y005642D01*
X040114Y005714D02*
X040114Y005399D01*
X040336Y005177D01*
X040651Y005177D01*
X040874Y005399D01*
X040874Y005714D01*
X040651Y005937D01*
X040336Y005937D01*
X040114Y005714D01*
X040200Y005800D02*
X039515Y005800D01*
X039558Y005959D02*
X043185Y005959D01*
X043185Y006117D02*
X039542Y006117D01*
X039454Y006276D02*
X043185Y006276D01*
X043185Y006434D02*
X036485Y006434D01*
X036486Y006438D02*
X036499Y006517D01*
X036499Y006557D01*
X036499Y006596D01*
X036486Y006675D01*
X036462Y006751D01*
X036426Y006821D01*
X036379Y006886D01*
X036323Y006942D01*
X036258Y006989D01*
X036188Y007025D01*
X036112Y007049D01*
X036033Y007062D01*
X035994Y007062D01*
X035994Y006557D01*
X036499Y006557D01*
X035994Y006557D01*
X035994Y006557D01*
X035994Y006557D01*
X035994Y007062D01*
X035954Y007062D01*
X035875Y007049D01*
X035800Y007025D01*
X035729Y006989D01*
X035665Y006942D01*
X035609Y006886D01*
X035562Y006821D01*
X035526Y006751D01*
X035459Y006751D01*
X035526Y006751D02*
X035501Y006675D01*
X035489Y006596D01*
X035489Y006557D01*
X035994Y006557D01*
X035994Y006052D01*
X036033Y006052D01*
X036112Y006064D01*
X036188Y006089D01*
X036258Y006125D01*
X036323Y006171D01*
X036379Y006228D01*
X036426Y006292D01*
X036462Y006363D01*
X036486Y006438D01*
X036499Y006593D02*
X043185Y006593D01*
X043185Y006751D02*
X036461Y006751D01*
X036355Y006910D02*
X038268Y006910D01*
X038311Y006867D02*
X038054Y007124D01*
X038054Y007489D01*
X038311Y007747D01*
X038676Y007747D01*
X038934Y007489D01*
X038934Y007124D01*
X038676Y006867D01*
X038311Y006867D01*
X038719Y006910D02*
X039212Y006910D01*
X039295Y006827D02*
X039474Y006827D01*
X039474Y007287D01*
X039014Y007287D01*
X039014Y007108D01*
X039295Y006827D01*
X039474Y006910D02*
X039514Y006910D01*
X039514Y006827D02*
X039693Y006827D01*
X039974Y007108D01*
X039974Y007287D01*
X039514Y007287D01*
X039514Y007327D01*
X039974Y007327D01*
X039974Y007506D01*
X039693Y007787D01*
X039514Y007787D01*
X039514Y007327D01*
X039474Y007327D01*
X039474Y007787D01*
X039295Y007787D01*
X039014Y007506D01*
X039014Y007327D01*
X039474Y007327D01*
X039474Y007287D01*
X039514Y007287D01*
X039514Y006827D01*
X039776Y006910D02*
X040212Y006910D01*
X040295Y006827D02*
X040474Y006827D01*
X040474Y007287D01*
X040014Y007287D01*
X040014Y007108D01*
X040295Y006827D01*
X040474Y006910D02*
X040514Y006910D01*
X040514Y006827D02*
X040693Y006827D01*
X040974Y007108D01*
X040974Y007287D01*
X040514Y007287D01*
X040514Y007327D01*
X040974Y007327D01*
X040974Y007506D01*
X040693Y007787D01*
X040514Y007787D01*
X040514Y007327D01*
X040474Y007327D01*
X040474Y007787D01*
X040295Y007787D01*
X040014Y007506D01*
X040014Y007327D01*
X040474Y007327D01*
X040474Y007287D01*
X040514Y007287D01*
X040514Y006827D01*
X040776Y006910D02*
X041212Y006910D01*
X041295Y006827D02*
X041474Y006827D01*
X041474Y007287D01*
X041014Y007287D01*
X041014Y007108D01*
X041295Y006827D01*
X041474Y006910D02*
X041514Y006910D01*
X041514Y006827D02*
X041693Y006827D01*
X041974Y007108D01*
X041974Y007287D01*
X041514Y007287D01*
X041514Y007327D01*
X041974Y007327D01*
X041974Y007506D01*
X041693Y007787D01*
X041514Y007787D01*
X041514Y007327D01*
X041474Y007327D01*
X041474Y007787D01*
X041295Y007787D01*
X041014Y007506D01*
X041014Y007327D01*
X041474Y007327D01*
X041474Y007287D01*
X041514Y007287D01*
X041514Y006827D01*
X041776Y006910D02*
X042268Y006910D01*
X042311Y006867D02*
X042054Y007124D01*
X042054Y007489D01*
X042311Y007747D01*
X042676Y007747D01*
X042934Y007489D01*
X042934Y007124D01*
X042676Y006867D01*
X042311Y006867D01*
X042719Y006910D02*
X043185Y006910D01*
X043185Y007068D02*
X042877Y007068D01*
X042934Y007227D02*
X043185Y007227D01*
X043185Y007385D02*
X042934Y007385D01*
X042879Y007544D02*
X043185Y007544D01*
X043185Y007702D02*
X042720Y007702D01*
X042676Y007867D02*
X042311Y007867D01*
X042054Y008124D01*
X042054Y008489D01*
X042311Y008747D01*
X042676Y008747D01*
X042934Y008489D01*
X042934Y008124D01*
X042676Y007867D01*
X042828Y008019D02*
X043185Y008019D01*
X043185Y007861D02*
X041727Y007861D01*
X041693Y007827D02*
X041514Y007827D01*
X041514Y008287D01*
X041514Y008327D01*
X041974Y008327D01*
X041974Y008506D01*
X041693Y008787D01*
X041514Y008787D01*
X041514Y008327D01*
X041474Y008327D01*
X041474Y008787D01*
X041295Y008787D01*
X041014Y008506D01*
X041014Y008327D01*
X041474Y008327D01*
X041474Y008287D01*
X041014Y008287D01*
X041014Y008108D01*
X041295Y007827D01*
X041474Y007827D01*
X041474Y008287D01*
X041514Y008287D01*
X041974Y008287D01*
X041974Y008108D01*
X041693Y007827D01*
X041777Y007702D02*
X042267Y007702D01*
X042108Y007544D02*
X041936Y007544D01*
X041974Y007385D02*
X042054Y007385D01*
X042054Y007227D02*
X041974Y007227D01*
X041934Y007068D02*
X042110Y007068D01*
X041514Y007068D02*
X041474Y007068D01*
X041474Y007227D02*
X041514Y007227D01*
X041514Y007385D02*
X041474Y007385D01*
X041474Y007544D02*
X041514Y007544D01*
X041514Y007702D02*
X041474Y007702D01*
X041474Y007861D02*
X041514Y007861D01*
X041514Y008019D02*
X041474Y008019D01*
X041474Y008178D02*
X041514Y008178D01*
X041514Y008336D02*
X041474Y008336D01*
X041474Y008495D02*
X041514Y008495D01*
X041514Y008653D02*
X041474Y008653D01*
X041161Y008653D02*
X040826Y008653D01*
X040693Y008787D02*
X040514Y008787D01*
X040514Y008327D01*
X040974Y008327D01*
X040974Y008506D01*
X040693Y008787D01*
X040474Y008787D02*
X040295Y008787D01*
X040014Y008506D01*
X040014Y008327D01*
X040474Y008327D01*
X040474Y008787D01*
X040474Y008653D02*
X040514Y008653D01*
X040514Y008495D02*
X040474Y008495D01*
X040474Y008336D02*
X040514Y008336D01*
X040514Y008327D02*
X040474Y008327D01*
X040474Y008287D01*
X040014Y008287D01*
X040014Y008108D01*
X040295Y007827D01*
X040474Y007827D01*
X040474Y008287D01*
X040514Y008287D01*
X040514Y008327D01*
X040514Y008287D02*
X040974Y008287D01*
X040974Y008108D01*
X040693Y007827D01*
X040514Y007827D01*
X040514Y008287D01*
X040514Y008178D02*
X040474Y008178D01*
X040474Y008019D02*
X040514Y008019D01*
X040514Y007861D02*
X040474Y007861D01*
X040474Y007702D02*
X040514Y007702D01*
X040514Y007544D02*
X040474Y007544D01*
X040474Y007385D02*
X040514Y007385D01*
X040514Y007227D02*
X040474Y007227D01*
X040474Y007068D02*
X040514Y007068D01*
X040934Y007068D02*
X041053Y007068D01*
X041014Y007227D02*
X040974Y007227D01*
X040974Y007385D02*
X041014Y007385D01*
X041052Y007544D02*
X040936Y007544D01*
X040777Y007702D02*
X041210Y007702D01*
X041261Y007861D02*
X040727Y007861D01*
X040885Y008019D02*
X041102Y008019D01*
X041014Y008178D02*
X040974Y008178D01*
X040974Y008336D02*
X041014Y008336D01*
X041014Y008495D02*
X040974Y008495D01*
X041826Y008653D02*
X042218Y008653D01*
X042059Y008495D02*
X041974Y008495D01*
X041974Y008336D02*
X042054Y008336D01*
X042054Y008178D02*
X041974Y008178D01*
X041885Y008019D02*
X042159Y008019D01*
X042934Y008178D02*
X043185Y008178D01*
X043185Y008336D02*
X042934Y008336D01*
X042928Y008495D02*
X043185Y008495D01*
X043185Y008653D02*
X042769Y008653D01*
X043185Y008812D02*
X036499Y008812D01*
X036499Y008708D02*
X036499Y009057D01*
X036499Y009405D01*
X036486Y009451D01*
X036463Y009492D01*
X036429Y009526D01*
X036388Y009549D01*
X036342Y009562D01*
X035994Y009562D01*
X035994Y009057D01*
X036499Y009057D01*
X035994Y009057D01*
X035994Y009057D01*
X035994Y009057D01*
X035994Y009562D01*
X035645Y009562D01*
X035599Y009549D01*
X035558Y009526D01*
X035525Y009492D01*
X035501Y009451D01*
X035489Y009405D01*
X035489Y009057D01*
X035994Y009057D01*
X035994Y008552D01*
X036342Y008552D01*
X036388Y008564D01*
X036429Y008588D01*
X036463Y008621D01*
X036486Y008662D01*
X036499Y008708D01*
X036481Y008653D02*
X038218Y008653D01*
X038311Y008747D02*
X038054Y008489D01*
X038054Y008124D01*
X038311Y007867D01*
X038676Y007867D01*
X038934Y008124D01*
X038934Y008489D01*
X038676Y008747D01*
X038311Y008747D01*
X038059Y008495D02*
X033244Y008495D01*
X033244Y008653D02*
X034753Y008653D01*
X034730Y008662D02*
X034901Y008592D01*
X035086Y008592D01*
X035257Y008662D01*
X035388Y008793D01*
X035459Y008964D01*
X035459Y009149D01*
X035388Y009320D01*
X035257Y009451D01*
X035086Y009522D01*
X034901Y009522D01*
X034730Y009451D01*
X034599Y009320D01*
X034529Y009149D01*
X034529Y008964D01*
X034599Y008793D01*
X034730Y008662D01*
X034592Y008812D02*
X033244Y008812D01*
X033244Y008970D02*
X034529Y008970D01*
X034529Y009129D02*
X033244Y009129D01*
X033244Y009287D02*
X033419Y009287D01*
X033324Y009383D02*
X033570Y009137D01*
X033744Y009137D01*
X033918Y009137D01*
X034164Y009383D01*
X034164Y009557D01*
X034164Y009731D01*
X033918Y009977D01*
X033744Y009977D01*
X033744Y009557D01*
X033744Y009557D01*
X034164Y009557D01*
X033744Y009557D01*
X033744Y009557D01*
X033744Y009977D01*
X033570Y009977D01*
X033324Y009731D01*
X033324Y009557D01*
X033744Y009557D01*
X033744Y009557D01*
X033744Y009137D01*
X033744Y009557D01*
X033744Y009557D01*
X033324Y009557D01*
X033324Y009383D01*
X033324Y009446D02*
X033244Y009446D01*
X033244Y009604D02*
X033324Y009604D01*
X033356Y009763D02*
X033244Y009763D01*
X033244Y009921D02*
X033514Y009921D01*
X033744Y009921D02*
X033744Y009921D01*
X033744Y009763D02*
X033744Y009763D01*
X033744Y009604D02*
X033744Y009604D01*
X033744Y009446D02*
X033744Y009446D01*
X033744Y009287D02*
X033744Y009287D01*
X034068Y009287D02*
X034586Y009287D01*
X034725Y009446D02*
X034164Y009446D01*
X034164Y009604D02*
X038688Y009604D01*
X038688Y009536D02*
X038688Y009709D01*
X038754Y009869D01*
X038877Y009992D01*
X039037Y010058D01*
X039210Y010058D01*
X039370Y009992D01*
X039492Y009869D01*
X039558Y009709D01*
X039558Y009536D01*
X039492Y009376D01*
X039370Y009254D01*
X039210Y009187D01*
X039037Y009187D01*
X038877Y009254D01*
X038754Y009376D01*
X038688Y009536D01*
X038725Y009446D02*
X036488Y009446D01*
X036499Y009287D02*
X038843Y009287D01*
X039403Y009287D02*
X043185Y009287D01*
X043185Y009129D02*
X036499Y009129D01*
X036499Y008970D02*
X043185Y008970D01*
X043185Y009446D02*
X039521Y009446D01*
X039558Y009604D02*
X043185Y009604D01*
X043185Y009763D02*
X042987Y009763D01*
X042901Y009677D02*
X043124Y009899D01*
X043124Y010214D01*
X042901Y010437D01*
X042586Y010437D01*
X042364Y010214D01*
X042364Y009899D01*
X042586Y009677D01*
X042901Y009677D01*
X042500Y009763D02*
X040987Y009763D01*
X040901Y009677D02*
X041124Y009899D01*
X041124Y010214D01*
X040901Y010437D01*
X040586Y010437D01*
X040364Y010214D01*
X040364Y009899D01*
X040586Y009677D01*
X040901Y009677D01*
X040500Y009763D02*
X039536Y009763D01*
X039440Y009921D02*
X040364Y009921D01*
X040364Y010080D02*
X033244Y010080D01*
X033244Y010238D02*
X040388Y010238D01*
X040546Y010397D02*
X034112Y010397D01*
X034102Y010387D02*
X034163Y010448D01*
X034214Y010518D01*
X034253Y010596D01*
X034280Y010678D01*
X034294Y010763D01*
X034294Y010787D01*
X033764Y010787D01*
X033764Y010257D01*
X033787Y010257D01*
X033872Y010270D01*
X033955Y010297D01*
X034032Y010336D01*
X034102Y010387D01*
X033764Y010397D02*
X033724Y010397D01*
X033724Y010555D02*
X033764Y010555D01*
X033764Y010714D02*
X033724Y010714D01*
X033764Y010827D02*
X034294Y010827D01*
X034294Y010850D01*
X034280Y010935D01*
X034253Y011018D01*
X034214Y011095D01*
X034163Y011165D01*
X034102Y011226D01*
X034032Y011277D01*
X033955Y011316D01*
X033872Y011343D01*
X033787Y011357D01*
X033764Y011357D01*
X033764Y010827D01*
X033764Y010872D02*
X033724Y010872D01*
X033724Y011031D02*
X033764Y011031D01*
X033764Y011189D02*
X033724Y011189D01*
X033724Y011348D02*
X033764Y011348D01*
X033844Y011348D02*
X035106Y011348D01*
X035118Y011360D02*
X034995Y011237D01*
X034929Y011077D01*
X034929Y010904D01*
X034995Y010744D01*
X035118Y010622D01*
X035278Y010555D01*
X035451Y010555D01*
X035611Y010622D01*
X035733Y010744D01*
X035800Y010904D01*
X035800Y011077D01*
X035733Y011237D01*
X035611Y011360D01*
X035451Y011426D01*
X035278Y011426D01*
X035118Y011360D01*
X035623Y011348D02*
X038325Y011348D01*
X038251Y011189D02*
X035753Y011189D01*
X035800Y011031D02*
X038714Y011031D01*
X038774Y011031D02*
X042274Y011031D01*
X042290Y011189D02*
X039237Y011189D01*
X039254Y011027D02*
X038774Y011027D01*
X038774Y010547D01*
X038784Y010547D01*
X038863Y010559D01*
X038939Y010584D01*
X039011Y010621D01*
X039076Y010668D01*
X039133Y010724D01*
X039180Y010789D01*
X039216Y010861D01*
X039241Y010937D01*
X039254Y011017D01*
X039254Y011027D01*
X039220Y010872D02*
X042311Y010872D01*
X042422Y010714D02*
X039122Y010714D01*
X038838Y010555D02*
X043185Y010555D01*
X043185Y010397D02*
X042941Y010397D01*
X043100Y010238D02*
X043185Y010238D01*
X043185Y010080D02*
X043124Y010080D01*
X043124Y009921D02*
X043185Y009921D01*
X042364Y009921D02*
X041124Y009921D01*
X041124Y010080D02*
X042364Y010080D01*
X042388Y010238D02*
X041100Y010238D01*
X040941Y010397D02*
X042546Y010397D01*
X043065Y010714D02*
X043185Y010714D01*
X043176Y010872D02*
X043185Y010872D01*
X043185Y011348D02*
X043117Y011348D01*
X043185Y011506D02*
X042887Y011506D01*
X042601Y011506D02*
X038985Y011506D01*
X039163Y011348D02*
X042370Y011348D01*
X038774Y010872D02*
X038714Y010872D01*
X038714Y010714D02*
X038774Y010714D01*
X038774Y010555D02*
X038714Y010555D01*
X038650Y010555D02*
X034233Y010555D01*
X034286Y010714D02*
X035026Y010714D01*
X034942Y010872D02*
X034290Y010872D01*
X034247Y011031D02*
X034929Y011031D01*
X034975Y011189D02*
X034139Y011189D01*
X033644Y011348D02*
X033244Y011348D01*
X033244Y011506D02*
X038503Y011506D01*
X038267Y010872D02*
X035786Y010872D01*
X035703Y010714D02*
X038365Y010714D01*
X038806Y009921D02*
X033973Y009921D01*
X034132Y009763D02*
X038710Y009763D01*
X035994Y009446D02*
X035994Y009446D01*
X035994Y009287D02*
X035994Y009287D01*
X035994Y009129D02*
X035994Y009129D01*
X035994Y009057D02*
X035994Y009057D01*
X035994Y009057D01*
X035994Y008552D01*
X035645Y008552D01*
X035599Y008564D01*
X035558Y008588D01*
X035525Y008621D01*
X035501Y008662D01*
X035489Y008708D01*
X035489Y009057D01*
X035994Y009057D01*
X035994Y008970D02*
X035994Y008970D01*
X035994Y008812D02*
X035994Y008812D01*
X035994Y008653D02*
X035994Y008653D01*
X035506Y008653D02*
X035235Y008653D01*
X035396Y008812D02*
X035489Y008812D01*
X035489Y008970D02*
X035459Y008970D01*
X035459Y009129D02*
X035489Y009129D01*
X035489Y009287D02*
X035402Y009287D01*
X035500Y009446D02*
X035262Y009446D01*
X033376Y010397D02*
X033244Y010397D01*
X033244Y010555D02*
X033255Y010555D01*
X033244Y011189D02*
X033348Y011189D01*
X038769Y008653D02*
X039161Y008653D01*
X039295Y008787D02*
X039014Y008506D01*
X039014Y008327D01*
X039474Y008327D01*
X039474Y008787D01*
X039295Y008787D01*
X039514Y008787D02*
X039693Y008787D01*
X039974Y008506D01*
X039974Y008327D01*
X039514Y008327D01*
X039514Y008287D01*
X039974Y008287D01*
X039974Y008108D01*
X039693Y007827D01*
X039514Y007827D01*
X039514Y008287D01*
X039474Y008287D01*
X039014Y008287D01*
X039014Y008108D01*
X039295Y007827D01*
X039474Y007827D01*
X039474Y008287D01*
X039474Y008327D01*
X039514Y008327D01*
X039514Y008787D01*
X039514Y008653D02*
X039474Y008653D01*
X039474Y008495D02*
X039514Y008495D01*
X039514Y008336D02*
X039474Y008336D01*
X039474Y008178D02*
X039514Y008178D01*
X039514Y008019D02*
X039474Y008019D01*
X039474Y007861D02*
X039514Y007861D01*
X039514Y007702D02*
X039474Y007702D01*
X039474Y007544D02*
X039514Y007544D01*
X039514Y007385D02*
X039474Y007385D01*
X039474Y007227D02*
X039514Y007227D01*
X039514Y007068D02*
X039474Y007068D01*
X039053Y007068D02*
X038877Y007068D01*
X038934Y007227D02*
X039014Y007227D01*
X039014Y007385D02*
X038934Y007385D01*
X038879Y007544D02*
X039052Y007544D01*
X039210Y007702D02*
X038720Y007702D01*
X038267Y007702D02*
X033244Y007702D01*
X033244Y007544D02*
X038108Y007544D01*
X038054Y007385D02*
X033244Y007385D01*
X033244Y007227D02*
X038054Y007227D01*
X038110Y007068D02*
X033244Y007068D01*
X033244Y006910D02*
X034529Y006910D01*
X034529Y006940D02*
X034611Y007022D01*
X035377Y007022D01*
X035459Y006940D01*
X035459Y006174D01*
X035377Y006092D01*
X034611Y006092D01*
X034529Y006174D01*
X034529Y006940D01*
X034529Y006751D02*
X033244Y006751D01*
X033244Y006593D02*
X034529Y006593D01*
X034529Y006434D02*
X033244Y006434D01*
X033244Y006276D02*
X034529Y006276D01*
X034585Y006117D02*
X033244Y006117D01*
X035402Y006117D02*
X035744Y006117D01*
X035729Y006125D02*
X035800Y006089D01*
X035875Y006064D01*
X035954Y006052D01*
X035994Y006052D01*
X035994Y006557D01*
X035994Y006557D01*
X035994Y006557D01*
X035489Y006557D01*
X035489Y006517D01*
X035501Y006438D01*
X035526Y006363D01*
X035562Y006292D01*
X035609Y006228D01*
X035665Y006171D01*
X035729Y006125D01*
X035574Y006276D02*
X035459Y006276D01*
X035459Y006434D02*
X035503Y006434D01*
X035489Y006593D02*
X035459Y006593D01*
X035994Y006593D02*
X035994Y006593D01*
X035994Y006751D02*
X035994Y006751D01*
X035994Y006910D02*
X035994Y006910D01*
X035633Y006910D02*
X035459Y006910D01*
X035994Y006434D02*
X035994Y006434D01*
X035994Y006276D02*
X035994Y006276D01*
X035994Y006117D02*
X035994Y006117D01*
X036243Y006117D02*
X038704Y006117D01*
X038792Y006276D02*
X036414Y006276D01*
X034124Y005483D02*
X040114Y005483D01*
X040188Y005325D02*
X034049Y005325D01*
X039934Y007068D02*
X040053Y007068D01*
X040014Y007227D02*
X039974Y007227D01*
X039974Y007385D02*
X040014Y007385D01*
X040052Y007544D02*
X039936Y007544D01*
X039777Y007702D02*
X040210Y007702D01*
X040261Y007861D02*
X039727Y007861D01*
X039885Y008019D02*
X040102Y008019D01*
X040014Y008178D02*
X039974Y008178D01*
X039974Y008336D02*
X040014Y008336D01*
X040014Y008495D02*
X039974Y008495D01*
X039826Y008653D02*
X040161Y008653D01*
X039014Y008495D02*
X038928Y008495D01*
X038934Y008336D02*
X039014Y008336D01*
X039014Y008178D02*
X038934Y008178D01*
X038828Y008019D02*
X039102Y008019D01*
X039261Y007861D02*
X033244Y007861D01*
X033244Y008019D02*
X038159Y008019D01*
X038054Y008178D02*
X033244Y008178D01*
X033244Y008336D02*
X038054Y008336D01*
X042114Y005714D02*
X042336Y005937D01*
X042651Y005937D01*
X042874Y005714D01*
X042874Y005399D01*
X042651Y005177D01*
X042336Y005177D01*
X042114Y005399D01*
X042114Y005714D01*
X042114Y005642D02*
X040874Y005642D01*
X040874Y005483D02*
X042114Y005483D01*
X042188Y005325D02*
X040799Y005325D01*
X040788Y005800D02*
X042200Y005800D01*
X042788Y005800D02*
X043185Y005800D01*
X043185Y005642D02*
X042874Y005642D01*
X042874Y005483D02*
X043185Y005483D01*
X043185Y005325D02*
X042799Y005325D01*
X043116Y004849D02*
X043185Y004849D01*
X011225Y011506D02*
X001429Y011506D01*
X001429Y011348D02*
X011066Y011348D01*
X010807Y011189D02*
X010181Y011189D01*
X010361Y011031D02*
X010626Y011031D01*
X010569Y010872D02*
X010419Y010872D01*
X010415Y010714D02*
X010572Y010714D01*
X010644Y010555D02*
X010343Y010555D01*
X009644Y010555D02*
X009447Y010555D01*
X009469Y010546D02*
X009469Y010546D01*
X008863Y010397D02*
X008190Y010397D01*
X008199Y010392D02*
X008199Y010392D01*
X008343Y010555D02*
X008644Y010555D01*
X008572Y010714D02*
X008415Y010714D01*
X008419Y010872D02*
X008569Y010872D01*
X008626Y011031D02*
X008361Y011031D01*
X008181Y011189D02*
X008807Y011189D01*
X009181Y011189D02*
X009807Y011189D01*
X009626Y011031D02*
X009361Y011031D01*
X009419Y010872D02*
X009569Y010872D01*
X009572Y010714D02*
X009415Y010714D01*
X007807Y011189D02*
X007181Y011189D01*
X007361Y011031D02*
X007626Y011031D01*
X007569Y010872D02*
X007419Y010872D01*
X007561Y010714D02*
X007572Y010714D01*
X007345Y010397D02*
X007114Y010397D01*
X006572Y010714D02*
X006415Y010714D01*
X006419Y010872D02*
X006569Y010872D01*
X006626Y011031D02*
X006361Y011031D01*
X006181Y011189D02*
X006807Y011189D01*
X002009Y011189D02*
X001979Y011189D01*
X001979Y011031D02*
X002009Y011031D01*
X002009Y010872D02*
X001979Y010872D01*
X001979Y010714D02*
X002009Y010714D01*
X002009Y010555D02*
X001979Y010555D01*
X001979Y010397D02*
X002009Y010397D01*
X001774Y010397D02*
X001429Y010397D01*
X001429Y010555D02*
X001602Y010555D01*
X001538Y010714D02*
X001429Y010714D01*
X001429Y010872D02*
X001533Y010872D01*
X001586Y011031D02*
X001429Y011031D01*
X001429Y011189D02*
X001729Y011189D01*
D24*
X029856Y006856D02*
X029895Y006858D01*
X029935Y006863D01*
X029973Y006871D01*
X030011Y006883D01*
X030047Y006898D01*
X030083Y006917D01*
X030116Y006938D01*
X030147Y006962D01*
X030176Y006989D01*
X030503Y007315D01*
X029856Y006857D02*
X029804Y006857D01*
X030502Y007316D02*
X030558Y007369D01*
X030617Y007420D01*
X030677Y007468D01*
X030740Y007514D01*
X030805Y007556D01*
X030872Y007595D01*
X030940Y007631D01*
X031011Y007664D01*
X031082Y007694D01*
X031155Y007720D01*
X031229Y007743D01*
X031304Y007762D01*
X031380Y007778D01*
X031456Y007791D01*
X031533Y007800D01*
X031611Y007805D01*
X031688Y007807D01*
X033494Y007807D01*
D25*
X012994Y007307D02*
X002725Y007307D01*
X002330Y007143D02*
X002157Y006970D01*
X002330Y007143D02*
X002362Y007173D01*
X002396Y007200D01*
X002433Y007225D01*
X002471Y007246D01*
X002511Y007264D01*
X002552Y007280D01*
X002595Y007292D01*
X002638Y007300D01*
X002681Y007305D01*
X002725Y007307D01*
X002158Y006970D02*
X002128Y006938D01*
X002101Y006904D01*
X002076Y006867D01*
X002055Y006829D01*
X002037Y006789D01*
X002021Y006748D01*
X002009Y006705D01*
X002001Y006662D01*
X001996Y006619D01*
X001994Y006575D01*
X001994Y004807D01*
D26*
X013994Y004807D02*
X014044Y004777D01*
X014496Y004324D01*
X014756Y004217D02*
X017644Y004217D01*
X017644Y004297D01*
X017994Y004557D02*
X018044Y004537D01*
X018317Y004263D01*
X018429Y004217D02*
X019013Y004217D01*
X018429Y004217D02*
X018404Y004219D01*
X018380Y004225D01*
X018357Y004234D01*
X018336Y004247D01*
X018317Y004263D01*
X019013Y004217D02*
X019070Y004219D01*
X019127Y004224D01*
X019183Y004234D01*
X019238Y004247D01*
X019293Y004263D01*
X019346Y004283D01*
X019398Y004307D01*
X019448Y004334D01*
X019496Y004364D01*
X019543Y004397D01*
X019587Y004433D01*
X019628Y004472D01*
X019667Y004513D01*
X019703Y004557D01*
X019736Y004604D01*
X019766Y004652D01*
X019793Y004702D01*
X019817Y004754D01*
X019837Y004807D01*
X019853Y004862D01*
X019866Y004917D01*
X019876Y004973D01*
X019881Y005030D01*
X019883Y005087D01*
X019884Y005087D02*
X019884Y008054D01*
X019886Y008093D01*
X019892Y008131D01*
X019901Y008168D01*
X019914Y008205D01*
X019931Y008240D01*
X019950Y008273D01*
X019973Y008304D01*
X019999Y008333D01*
X019999Y008332D02*
X020204Y008537D01*
X020244Y008557D01*
X019244Y008557D02*
X019244Y008617D01*
X018284Y009577D01*
X018244Y009557D01*
X017244Y009577D02*
X017244Y009557D01*
X017244Y009577D02*
X016284Y008617D01*
X016244Y008557D01*
X021964Y009097D02*
X022531Y008529D01*
X023093Y008297D02*
X026348Y008297D01*
X025884Y007657D02*
X025884Y005490D01*
X025936Y005365D02*
X026744Y004557D01*
X027724Y004617D02*
X027744Y004557D01*
X027724Y004617D02*
X027724Y005657D01*
X027484Y005337D02*
X027484Y005257D01*
X027484Y005337D02*
X026524Y006297D01*
X026494Y006307D01*
X027244Y006617D02*
X027484Y006377D01*
X027494Y006307D01*
X027244Y006617D02*
X027244Y007401D01*
X027242Y007460D01*
X027236Y007518D01*
X027227Y007576D01*
X027213Y007633D01*
X027196Y007689D01*
X027176Y007744D01*
X027152Y007797D01*
X027124Y007849D01*
X027093Y007899D01*
X027059Y007946D01*
X027022Y007992D01*
X026982Y008035D01*
X026939Y008075D01*
X026893Y008112D01*
X026846Y008146D01*
X026796Y008177D01*
X026744Y008205D01*
X026691Y008229D01*
X026636Y008249D01*
X026580Y008266D01*
X026523Y008280D01*
X026465Y008289D01*
X026407Y008295D01*
X026348Y008297D01*
X026524Y009257D02*
X026494Y009307D01*
X026524Y009257D02*
X029565Y006215D01*
X029724Y005833D02*
X029724Y004617D01*
X029744Y004557D01*
X031804Y006457D02*
X032684Y005577D01*
X032744Y005557D01*
X031804Y006457D02*
X031804Y006537D01*
X031744Y006557D01*
X029723Y005833D02*
X029721Y005875D01*
X029716Y005918D01*
X029708Y005959D01*
X029697Y006000D01*
X029682Y006040D01*
X029664Y006079D01*
X029643Y006116D01*
X029620Y006151D01*
X029593Y006184D01*
X029565Y006216D01*
X025936Y005364D02*
X025921Y005382D01*
X025908Y005401D01*
X025898Y005422D01*
X025890Y005444D01*
X025886Y005467D01*
X025884Y005490D01*
X024744Y004557D02*
X024284Y005017D01*
X024282Y005046D01*
X024277Y005074D01*
X024268Y005102D01*
X024257Y005129D01*
X024242Y005153D01*
X024224Y005176D01*
X024203Y005197D01*
X024180Y005215D01*
X024156Y005230D01*
X024129Y005241D01*
X024101Y005250D01*
X024073Y005255D01*
X024044Y005257D01*
X023404Y005257D01*
X023484Y004617D02*
X022684Y005417D01*
X022556Y005657D02*
X022537Y005655D01*
X022518Y005650D01*
X022500Y005642D01*
X022484Y005631D01*
X022470Y005617D01*
X022459Y005601D01*
X022451Y005583D01*
X022446Y005564D01*
X022444Y005545D01*
X022444Y004617D01*
X022684Y004617D01*
X022744Y004557D01*
X022444Y004617D02*
X021330Y004617D01*
X023484Y004617D02*
X023724Y004617D01*
X023744Y004557D01*
X023737Y005657D02*
X022556Y005657D01*
X023737Y005656D02*
X023758Y005657D01*
X023779Y005662D01*
X023799Y005668D01*
X023818Y005678D01*
X023836Y005689D01*
X023852Y005703D01*
X023851Y005704D02*
X024444Y006297D01*
X024494Y006307D01*
X021330Y004616D02*
X021267Y004618D01*
X021204Y004624D01*
X021141Y004633D01*
X021079Y004646D01*
X021019Y004663D01*
X020959Y004684D01*
X020900Y004708D01*
X020843Y004736D01*
X020788Y004767D01*
X020735Y004801D01*
X020684Y004839D01*
X020636Y004879D01*
X020590Y004923D01*
X020546Y004969D01*
X020506Y005017D01*
X020468Y005068D01*
X020434Y005121D01*
X020403Y005176D01*
X020375Y005233D01*
X020351Y005292D01*
X020330Y005352D01*
X020313Y005412D01*
X020300Y005474D01*
X020291Y005537D01*
X020285Y005600D01*
X020283Y005663D01*
X020284Y005663D02*
X020284Y006537D01*
X020244Y006557D01*
X016244Y006557D02*
X016204Y006537D01*
X014756Y004216D02*
X014720Y004218D01*
X014684Y004223D01*
X014649Y004232D01*
X014615Y004244D01*
X014583Y004259D01*
X014552Y004278D01*
X014523Y004300D01*
X014496Y004324D01*
X022532Y008530D02*
X022569Y008494D01*
X022610Y008461D01*
X022652Y008431D01*
X022696Y008403D01*
X022742Y008379D01*
X022789Y008357D01*
X022838Y008339D01*
X022887Y008324D01*
X022938Y008312D01*
X022989Y008304D01*
X023041Y008299D01*
X023093Y008297D01*
X031760Y009977D02*
X009100Y009977D01*
X008799Y009852D02*
X008349Y009402D01*
X008191Y009337D02*
X007625Y009337D01*
X007384Y009436D02*
X006014Y010807D01*
X005994Y010807D01*
X007384Y009436D02*
X007409Y009413D01*
X007436Y009393D01*
X007464Y009376D01*
X007495Y009362D01*
X007526Y009351D01*
X007558Y009343D01*
X007592Y009338D01*
X007625Y009336D01*
X008191Y009336D02*
X008220Y009338D01*
X008249Y009344D01*
X008277Y009353D01*
X008303Y009366D01*
X008327Y009382D01*
X008349Y009402D01*
X008799Y009852D02*
X008826Y009877D01*
X008856Y009900D01*
X008887Y009920D01*
X008920Y009937D01*
X008954Y009951D01*
X008990Y009962D01*
X009026Y009971D01*
X009063Y009975D01*
X009100Y009977D01*
X031760Y009977D02*
X031796Y009979D01*
X031832Y009984D01*
X031868Y009993D01*
X031902Y010005D01*
X031935Y010021D01*
X031966Y010040D01*
X031995Y010061D01*
X032022Y010086D01*
X032022Y010085D02*
X032744Y010807D01*
D27*
X031744Y010807D02*
X031199Y010262D01*
X030897Y010137D02*
X008395Y010137D01*
X008184Y010187D02*
X006994Y010787D01*
X006994Y010807D01*
X008184Y010186D02*
X008217Y010171D01*
X008251Y010159D01*
X008286Y010149D01*
X008322Y010142D01*
X008358Y010137D01*
X008395Y010136D01*
X008994Y010547D02*
X008994Y010807D01*
X009465Y010339D02*
X009505Y010324D01*
X009546Y010312D01*
X009587Y010303D01*
X009629Y010298D01*
X009672Y010296D01*
X009672Y010297D02*
X029234Y010297D01*
X029239Y010298D01*
X029243Y010302D01*
X029244Y010307D01*
X029744Y010807D01*
X030897Y010136D02*
X030934Y010138D01*
X030971Y010143D01*
X031008Y010151D01*
X031043Y010162D01*
X031078Y010176D01*
X031111Y010193D01*
X031142Y010213D01*
X031172Y010236D01*
X031200Y010261D01*
X027744Y010807D02*
X027160Y011390D01*
X026903Y011497D02*
X011563Y011497D01*
X011428Y011441D02*
X010994Y011007D01*
X010994Y010807D01*
X011994Y010807D02*
X012419Y011232D01*
X012671Y011337D02*
X026066Y011337D01*
X026318Y011232D02*
X026744Y010807D01*
X026318Y011233D02*
X026292Y011256D01*
X026264Y011277D01*
X026234Y011295D01*
X026202Y011310D01*
X026169Y011322D01*
X026135Y011330D01*
X026101Y011335D01*
X026066Y011337D01*
X026903Y011497D02*
X026939Y011495D01*
X026974Y011490D01*
X027009Y011481D01*
X027042Y011469D01*
X027075Y011454D01*
X027105Y011436D01*
X027134Y011414D01*
X027160Y011390D01*
X023744Y010807D02*
X014994Y010807D01*
X012671Y011337D02*
X012636Y011335D01*
X012602Y011330D01*
X012568Y011322D01*
X012535Y011310D01*
X012503Y011295D01*
X012473Y011277D01*
X012445Y011256D01*
X012419Y011233D01*
X011563Y011496D02*
X011538Y011494D01*
X011514Y011490D01*
X011490Y011482D01*
X011468Y011471D01*
X011447Y011457D01*
X011429Y011440D01*
X009465Y010340D02*
X008994Y010547D01*
M02*
