G75*
%MOIN*%
%OFA0B0*%
%FSLAX24Y24*%
%IPPOS*%
%LPD*%
%AMOC8*
5,1,8,0,0,1.08239X$1,22.5*
%
%ADD10C,0.0010*%
%ADD11C,0.0000*%
%ADD12C,0.0030*%
D10*
X000847Y001846D02*
X051437Y001846D01*
X051437Y009721D01*
X000847Y009721D01*
X000847Y001846D01*
D11*
X020768Y004543D02*
X020770Y004628D01*
X020776Y004713D01*
X020786Y004797D01*
X020800Y004881D01*
X020818Y004964D01*
X020839Y005046D01*
X020865Y005127D01*
X020894Y005207D01*
X020927Y005285D01*
X020963Y005361D01*
X021004Y005436D01*
X021047Y005509D01*
X021094Y005580D01*
X021144Y005648D01*
X021198Y005714D01*
X021254Y005778D01*
X021314Y005838D01*
X021376Y005896D01*
X021440Y005951D01*
X021508Y006003D01*
X021577Y006052D01*
X021649Y006097D01*
X021723Y006139D01*
X021799Y006177D01*
X021876Y006212D01*
X021955Y006243D01*
X022036Y006271D01*
X022117Y006294D01*
X022200Y006314D01*
X022283Y006330D01*
X022367Y006342D01*
X022452Y006350D01*
X022537Y006354D01*
X022621Y006354D01*
X022706Y006350D01*
X022791Y006342D01*
X022875Y006330D01*
X022958Y006314D01*
X023041Y006294D01*
X023122Y006271D01*
X023203Y006243D01*
X023282Y006212D01*
X023359Y006177D01*
X023435Y006139D01*
X023509Y006097D01*
X023581Y006052D01*
X023650Y006003D01*
X023718Y005951D01*
X023782Y005896D01*
X023844Y005838D01*
X023904Y005778D01*
X023960Y005714D01*
X024014Y005648D01*
X024064Y005580D01*
X024111Y005509D01*
X024154Y005436D01*
X024195Y005361D01*
X024231Y005285D01*
X024264Y005207D01*
X024293Y005127D01*
X024319Y005046D01*
X024340Y004964D01*
X024358Y004881D01*
X024372Y004797D01*
X024382Y004713D01*
X024388Y004628D01*
X024390Y004543D01*
X024388Y004458D01*
X024382Y004373D01*
X024372Y004289D01*
X024358Y004205D01*
X024340Y004122D01*
X024319Y004040D01*
X024293Y003959D01*
X024264Y003879D01*
X024231Y003801D01*
X024195Y003725D01*
X024154Y003650D01*
X024111Y003577D01*
X024064Y003506D01*
X024014Y003438D01*
X023960Y003372D01*
X023904Y003308D01*
X023844Y003248D01*
X023782Y003190D01*
X023718Y003135D01*
X023650Y003083D01*
X023581Y003034D01*
X023509Y002989D01*
X023435Y002947D01*
X023359Y002909D01*
X023282Y002874D01*
X023203Y002843D01*
X023122Y002815D01*
X023041Y002792D01*
X022958Y002772D01*
X022875Y002756D01*
X022791Y002744D01*
X022706Y002736D01*
X022621Y002732D01*
X022537Y002732D01*
X022452Y002736D01*
X022367Y002744D01*
X022283Y002756D01*
X022200Y002772D01*
X022117Y002792D01*
X022036Y002815D01*
X021955Y002843D01*
X021876Y002874D01*
X021799Y002909D01*
X021723Y002947D01*
X021649Y002989D01*
X021577Y003034D01*
X021508Y003083D01*
X021440Y003135D01*
X021376Y003190D01*
X021314Y003248D01*
X021254Y003308D01*
X021198Y003372D01*
X021144Y003438D01*
X021094Y003506D01*
X021047Y003577D01*
X021004Y003650D01*
X020963Y003725D01*
X020927Y003801D01*
X020894Y003879D01*
X020865Y003959D01*
X020839Y004040D01*
X020818Y004122D01*
X020800Y004205D01*
X020786Y004289D01*
X020776Y004373D01*
X020770Y004458D01*
X020768Y004543D01*
X025219Y003293D02*
X025221Y003342D01*
X025227Y003391D01*
X025237Y003439D01*
X025250Y003486D01*
X025268Y003532D01*
X025289Y003576D01*
X025313Y003619D01*
X025341Y003659D01*
X025372Y003698D01*
X025406Y003733D01*
X025443Y003766D01*
X025482Y003795D01*
X025524Y003821D01*
X025567Y003844D01*
X025613Y003863D01*
X025659Y003879D01*
X025707Y003891D01*
X025755Y003899D01*
X025804Y003903D01*
X025854Y003903D01*
X025903Y003899D01*
X025951Y003891D01*
X025999Y003879D01*
X026045Y003863D01*
X026091Y003844D01*
X026134Y003821D01*
X026176Y003795D01*
X026215Y003766D01*
X026252Y003733D01*
X026286Y003698D01*
X026317Y003659D01*
X026345Y003619D01*
X026369Y003576D01*
X026390Y003532D01*
X026408Y003486D01*
X026421Y003439D01*
X026431Y003391D01*
X026437Y003342D01*
X026439Y003293D01*
X026437Y003244D01*
X026431Y003195D01*
X026421Y003147D01*
X026408Y003100D01*
X026390Y003054D01*
X026369Y003010D01*
X026345Y002967D01*
X026317Y002927D01*
X026286Y002888D01*
X026252Y002853D01*
X026215Y002820D01*
X026176Y002791D01*
X026134Y002765D01*
X026091Y002742D01*
X026045Y002723D01*
X025999Y002707D01*
X025951Y002695D01*
X025903Y002687D01*
X025854Y002683D01*
X025804Y002683D01*
X025755Y002687D01*
X025707Y002695D01*
X025659Y002707D01*
X025613Y002723D01*
X025567Y002742D01*
X025524Y002765D01*
X025482Y002791D01*
X025443Y002820D01*
X025406Y002853D01*
X025372Y002888D01*
X025341Y002927D01*
X025313Y002967D01*
X025289Y003010D01*
X025268Y003054D01*
X025250Y003100D01*
X025237Y003147D01*
X025227Y003195D01*
X025221Y003244D01*
X025219Y003293D01*
X045869Y003193D02*
X045871Y003242D01*
X045877Y003291D01*
X045887Y003339D01*
X045900Y003386D01*
X045918Y003432D01*
X045939Y003476D01*
X045963Y003519D01*
X045991Y003559D01*
X046022Y003598D01*
X046056Y003633D01*
X046093Y003666D01*
X046132Y003695D01*
X046174Y003721D01*
X046217Y003744D01*
X046263Y003763D01*
X046309Y003779D01*
X046357Y003791D01*
X046405Y003799D01*
X046454Y003803D01*
X046504Y003803D01*
X046553Y003799D01*
X046601Y003791D01*
X046649Y003779D01*
X046695Y003763D01*
X046741Y003744D01*
X046784Y003721D01*
X046826Y003695D01*
X046865Y003666D01*
X046902Y003633D01*
X046936Y003598D01*
X046967Y003559D01*
X046995Y003519D01*
X047019Y003476D01*
X047040Y003432D01*
X047058Y003386D01*
X047071Y003339D01*
X047081Y003291D01*
X047087Y003242D01*
X047089Y003193D01*
X047087Y003144D01*
X047081Y003095D01*
X047071Y003047D01*
X047058Y003000D01*
X047040Y002954D01*
X047019Y002910D01*
X046995Y002867D01*
X046967Y002827D01*
X046936Y002788D01*
X046902Y002753D01*
X046865Y002720D01*
X046826Y002691D01*
X046784Y002665D01*
X046741Y002642D01*
X046695Y002623D01*
X046649Y002607D01*
X046601Y002595D01*
X046553Y002587D01*
X046504Y002583D01*
X046454Y002583D01*
X046405Y002587D01*
X046357Y002595D01*
X046309Y002607D01*
X046263Y002623D01*
X046217Y002642D01*
X046174Y002665D01*
X046132Y002691D01*
X046093Y002720D01*
X046056Y002753D01*
X046022Y002788D01*
X045991Y002827D01*
X045963Y002867D01*
X045939Y002910D01*
X045918Y002954D01*
X045900Y003000D01*
X045887Y003047D01*
X045877Y003095D01*
X045871Y003144D01*
X045869Y003193D01*
X045869Y004943D02*
X045871Y004992D01*
X045877Y005041D01*
X045887Y005089D01*
X045900Y005136D01*
X045918Y005182D01*
X045939Y005226D01*
X045963Y005269D01*
X045991Y005309D01*
X046022Y005348D01*
X046056Y005383D01*
X046093Y005416D01*
X046132Y005445D01*
X046174Y005471D01*
X046217Y005494D01*
X046263Y005513D01*
X046309Y005529D01*
X046357Y005541D01*
X046405Y005549D01*
X046454Y005553D01*
X046504Y005553D01*
X046553Y005549D01*
X046601Y005541D01*
X046649Y005529D01*
X046695Y005513D01*
X046741Y005494D01*
X046784Y005471D01*
X046826Y005445D01*
X046865Y005416D01*
X046902Y005383D01*
X046936Y005348D01*
X046967Y005309D01*
X046995Y005269D01*
X047019Y005226D01*
X047040Y005182D01*
X047058Y005136D01*
X047071Y005089D01*
X047081Y005041D01*
X047087Y004992D01*
X047089Y004943D01*
X047087Y004894D01*
X047081Y004845D01*
X047071Y004797D01*
X047058Y004750D01*
X047040Y004704D01*
X047019Y004660D01*
X046995Y004617D01*
X046967Y004577D01*
X046936Y004538D01*
X046902Y004503D01*
X046865Y004470D01*
X046826Y004441D01*
X046784Y004415D01*
X046741Y004392D01*
X046695Y004373D01*
X046649Y004357D01*
X046601Y004345D01*
X046553Y004337D01*
X046504Y004333D01*
X046454Y004333D01*
X046405Y004337D01*
X046357Y004345D01*
X046309Y004357D01*
X046263Y004373D01*
X046217Y004392D01*
X046174Y004415D01*
X046132Y004441D01*
X046093Y004470D01*
X046056Y004503D01*
X046022Y004538D01*
X045991Y004577D01*
X045963Y004617D01*
X045939Y004660D01*
X045918Y004704D01*
X045900Y004750D01*
X045887Y004797D01*
X045877Y004845D01*
X045871Y004894D01*
X045869Y004943D01*
X045869Y006693D02*
X045871Y006742D01*
X045877Y006791D01*
X045887Y006839D01*
X045900Y006886D01*
X045918Y006932D01*
X045939Y006976D01*
X045963Y007019D01*
X045991Y007059D01*
X046022Y007098D01*
X046056Y007133D01*
X046093Y007166D01*
X046132Y007195D01*
X046174Y007221D01*
X046217Y007244D01*
X046263Y007263D01*
X046309Y007279D01*
X046357Y007291D01*
X046405Y007299D01*
X046454Y007303D01*
X046504Y007303D01*
X046553Y007299D01*
X046601Y007291D01*
X046649Y007279D01*
X046695Y007263D01*
X046741Y007244D01*
X046784Y007221D01*
X046826Y007195D01*
X046865Y007166D01*
X046902Y007133D01*
X046936Y007098D01*
X046967Y007059D01*
X046995Y007019D01*
X047019Y006976D01*
X047040Y006932D01*
X047058Y006886D01*
X047071Y006839D01*
X047081Y006791D01*
X047087Y006742D01*
X047089Y006693D01*
X047087Y006644D01*
X047081Y006595D01*
X047071Y006547D01*
X047058Y006500D01*
X047040Y006454D01*
X047019Y006410D01*
X046995Y006367D01*
X046967Y006327D01*
X046936Y006288D01*
X046902Y006253D01*
X046865Y006220D01*
X046826Y006191D01*
X046784Y006165D01*
X046741Y006142D01*
X046695Y006123D01*
X046649Y006107D01*
X046601Y006095D01*
X046553Y006087D01*
X046504Y006083D01*
X046454Y006083D01*
X046405Y006087D01*
X046357Y006095D01*
X046309Y006107D01*
X046263Y006123D01*
X046217Y006142D01*
X046174Y006165D01*
X046132Y006191D01*
X046093Y006220D01*
X046056Y006253D01*
X046022Y006288D01*
X045991Y006327D01*
X045963Y006367D01*
X045939Y006410D01*
X045918Y006454D01*
X045900Y006500D01*
X045887Y006547D01*
X045877Y006595D01*
X045871Y006644D01*
X045869Y006693D01*
X045869Y008443D02*
X045871Y008492D01*
X045877Y008541D01*
X045887Y008589D01*
X045900Y008636D01*
X045918Y008682D01*
X045939Y008726D01*
X045963Y008769D01*
X045991Y008809D01*
X046022Y008848D01*
X046056Y008883D01*
X046093Y008916D01*
X046132Y008945D01*
X046174Y008971D01*
X046217Y008994D01*
X046263Y009013D01*
X046309Y009029D01*
X046357Y009041D01*
X046405Y009049D01*
X046454Y009053D01*
X046504Y009053D01*
X046553Y009049D01*
X046601Y009041D01*
X046649Y009029D01*
X046695Y009013D01*
X046741Y008994D01*
X046784Y008971D01*
X046826Y008945D01*
X046865Y008916D01*
X046902Y008883D01*
X046936Y008848D01*
X046967Y008809D01*
X046995Y008769D01*
X047019Y008726D01*
X047040Y008682D01*
X047058Y008636D01*
X047071Y008589D01*
X047081Y008541D01*
X047087Y008492D01*
X047089Y008443D01*
X047087Y008394D01*
X047081Y008345D01*
X047071Y008297D01*
X047058Y008250D01*
X047040Y008204D01*
X047019Y008160D01*
X046995Y008117D01*
X046967Y008077D01*
X046936Y008038D01*
X046902Y008003D01*
X046865Y007970D01*
X046826Y007941D01*
X046784Y007915D01*
X046741Y007892D01*
X046695Y007873D01*
X046649Y007857D01*
X046601Y007845D01*
X046553Y007837D01*
X046504Y007833D01*
X046454Y007833D01*
X046405Y007837D01*
X046357Y007845D01*
X046309Y007857D01*
X046263Y007873D01*
X046217Y007892D01*
X046174Y007915D01*
X046132Y007941D01*
X046093Y007970D01*
X046056Y008003D01*
X046022Y008038D01*
X045991Y008077D01*
X045963Y008117D01*
X045939Y008160D01*
X045918Y008204D01*
X045900Y008250D01*
X045887Y008297D01*
X045877Y008345D01*
X045871Y008394D01*
X045869Y008443D01*
D12*
X038795Y007336D02*
X038795Y007274D01*
X038795Y007336D02*
X038425Y007336D01*
X038425Y007397D02*
X038425Y007274D01*
X038548Y007153D02*
X038548Y006906D01*
X038487Y006906D02*
X038610Y006906D01*
X038672Y006967D01*
X038672Y007091D01*
X038610Y007153D01*
X038548Y007153D01*
X038425Y007091D02*
X038425Y006967D01*
X038487Y006906D01*
X038425Y006784D02*
X038610Y006784D01*
X038672Y006723D01*
X038672Y006537D01*
X038425Y006537D01*
X038425Y006416D02*
X038425Y006231D01*
X038487Y006169D01*
X038548Y006231D01*
X038548Y006416D01*
X038610Y006416D02*
X038425Y006416D01*
X038610Y006416D02*
X038672Y006354D01*
X038672Y006231D01*
X038733Y006048D02*
X038610Y006048D01*
X038548Y005986D01*
X038548Y005801D01*
X038425Y005801D02*
X038795Y005801D01*
X038795Y005986D01*
X038733Y006048D01*
X037595Y006169D02*
X037225Y006169D01*
X037410Y006169D02*
X037410Y006416D01*
X037410Y006537D02*
X037472Y006599D01*
X037472Y006723D01*
X037410Y006784D01*
X037348Y006784D01*
X037348Y006537D01*
X037287Y006537D02*
X037410Y006537D01*
X037287Y006537D02*
X037225Y006599D01*
X037225Y006723D01*
X036872Y006600D02*
X036810Y006661D01*
X036625Y006661D01*
X036810Y006538D02*
X036872Y006600D01*
X036810Y006538D02*
X036625Y006538D01*
X036625Y006415D02*
X036872Y006415D01*
X036872Y006476D01*
X036810Y006538D01*
X037225Y006416D02*
X037595Y006416D01*
X036872Y006231D02*
X036872Y006108D01*
X036810Y006046D01*
X036687Y006046D01*
X036625Y006108D01*
X036625Y006231D01*
X036687Y006293D01*
X036810Y006293D01*
X036872Y006231D01*
X036395Y006047D02*
X036025Y006047D01*
X036210Y006109D02*
X036210Y005862D01*
X036395Y006047D01*
X036995Y005925D02*
X036995Y005678D01*
X036995Y005801D02*
X036625Y005801D01*
X036395Y005617D02*
X036025Y005617D01*
X036025Y005494D02*
X036025Y005741D01*
X036272Y005494D02*
X036395Y005617D01*
X037225Y005679D02*
X037410Y005679D01*
X037472Y005618D01*
X037472Y005432D01*
X037225Y005432D01*
X037225Y005310D02*
X037225Y005187D01*
X037225Y005249D02*
X037472Y005249D01*
X037472Y005187D01*
X037595Y005249D02*
X037657Y005249D01*
X037825Y005127D02*
X037825Y004880D01*
X037825Y005003D02*
X038195Y005003D01*
X038072Y004880D01*
X038425Y004880D02*
X038672Y004880D01*
X038672Y004819D01*
X038672Y004697D02*
X038672Y004512D01*
X038610Y004450D01*
X038548Y004512D01*
X038548Y004635D01*
X038487Y004697D01*
X038425Y004635D01*
X038425Y004450D01*
X038072Y004390D02*
X037825Y004267D01*
X038072Y004143D01*
X038010Y004022D02*
X037948Y004022D01*
X037948Y003775D01*
X037887Y003775D02*
X038010Y003775D01*
X038072Y003837D01*
X038072Y003960D01*
X038010Y004022D01*
X037825Y003960D02*
X037825Y003837D01*
X037887Y003775D01*
X038072Y003653D02*
X038072Y003592D01*
X037948Y003468D01*
X037825Y003468D02*
X038072Y003468D01*
X038425Y003407D02*
X038487Y003345D01*
X038610Y003345D01*
X038672Y003407D01*
X038672Y003530D01*
X038610Y003592D01*
X038487Y003592D01*
X038425Y003530D01*
X038425Y003407D01*
X038425Y003223D02*
X038425Y003100D01*
X038425Y003161D02*
X038672Y003161D01*
X038672Y003100D01*
X038672Y002978D02*
X038672Y002793D01*
X038610Y002731D01*
X038487Y002731D01*
X038425Y002793D01*
X038425Y002978D01*
X038795Y002978D01*
X038795Y003161D02*
X038857Y003161D01*
X038195Y002917D02*
X038133Y002978D01*
X038072Y002978D01*
X038010Y002917D01*
X038010Y002731D01*
X037887Y002610D02*
X037825Y002548D01*
X037825Y002425D01*
X037887Y002363D01*
X038133Y002363D01*
X038195Y002425D01*
X038195Y002548D01*
X038133Y002610D01*
X038195Y002731D02*
X038195Y002917D01*
X038010Y002917D02*
X037948Y002978D01*
X037887Y002978D01*
X037825Y002917D01*
X037825Y002731D01*
X038195Y002731D01*
X038425Y002610D02*
X038425Y002425D01*
X038487Y002363D01*
X038548Y002425D01*
X038548Y002610D01*
X038610Y002610D02*
X038425Y002610D01*
X038610Y002610D02*
X038672Y002548D01*
X038672Y002425D01*
X038733Y002242D02*
X038610Y002242D01*
X038548Y002180D01*
X038548Y001995D01*
X038425Y001995D02*
X038795Y001995D01*
X038795Y002180D01*
X038733Y002242D01*
X038548Y002118D02*
X038425Y002242D01*
X038195Y002180D02*
X038133Y002242D01*
X038010Y002242D01*
X037948Y002180D01*
X037948Y001995D01*
X037825Y001995D02*
X038195Y001995D01*
X038195Y002180D01*
X037595Y002180D02*
X037533Y002242D01*
X037287Y002242D01*
X037225Y002180D01*
X037225Y001995D01*
X037595Y001995D01*
X037595Y002180D01*
X037410Y002363D02*
X037472Y002425D01*
X037472Y002548D01*
X037410Y002610D01*
X037348Y002610D01*
X037348Y002363D01*
X037287Y002363D02*
X037410Y002363D01*
X037287Y002363D02*
X037225Y002425D01*
X037225Y002548D01*
X037225Y002731D02*
X037225Y002917D01*
X037287Y002978D01*
X037348Y002917D01*
X037348Y002793D01*
X037410Y002731D01*
X037472Y002793D01*
X037472Y002978D01*
X037472Y003100D02*
X037472Y003161D01*
X037225Y003161D01*
X037225Y003100D02*
X037225Y003223D01*
X037287Y003345D02*
X037225Y003407D01*
X037225Y003592D01*
X037163Y003592D02*
X037472Y003592D01*
X037472Y003407D01*
X037410Y003345D01*
X037287Y003345D01*
X037101Y003469D02*
X037101Y003530D01*
X037163Y003592D01*
X037225Y003714D02*
X037472Y003714D01*
X037472Y003899D01*
X037410Y003960D01*
X037225Y003960D01*
X037287Y004082D02*
X037410Y004082D01*
X037472Y004144D01*
X037472Y004267D01*
X037410Y004329D01*
X037348Y004329D01*
X037348Y004082D01*
X037287Y004082D02*
X037225Y004144D01*
X037225Y004267D01*
X037287Y004450D02*
X037410Y004450D01*
X037472Y004512D01*
X037472Y004697D01*
X037595Y004697D02*
X037225Y004697D01*
X037225Y004512D01*
X037287Y004450D01*
X036995Y004573D02*
X036625Y004573D01*
X036625Y004758D01*
X036687Y004820D01*
X036810Y004820D01*
X036872Y004758D01*
X036872Y004573D01*
X036395Y004819D02*
X036333Y004757D01*
X036395Y004819D02*
X036395Y004942D01*
X036333Y005004D01*
X036272Y005004D01*
X036025Y004757D01*
X036025Y005004D01*
X036087Y005125D02*
X036333Y005372D01*
X036087Y005372D01*
X036025Y005311D01*
X036025Y005187D01*
X036087Y005125D01*
X036333Y005125D01*
X036395Y005187D01*
X036395Y005311D01*
X036333Y005372D01*
X036563Y005188D02*
X036501Y005126D01*
X036501Y005065D01*
X036625Y005003D02*
X036625Y005188D01*
X036563Y005188D02*
X036872Y005188D01*
X036687Y004941D02*
X036625Y005003D01*
X036687Y004941D02*
X036872Y004941D01*
X035795Y004696D02*
X035672Y004820D01*
X035425Y004820D01*
X035610Y004820D02*
X035610Y004573D01*
X035672Y004573D02*
X035425Y004573D01*
X035487Y004452D02*
X035425Y004390D01*
X035425Y004266D01*
X035487Y004205D01*
X035610Y004266D02*
X035610Y004390D01*
X035548Y004452D01*
X035487Y004452D01*
X035672Y004573D02*
X035795Y004696D01*
X035733Y004452D02*
X035795Y004390D01*
X035795Y004266D01*
X035733Y004205D01*
X035672Y004205D01*
X035610Y004266D01*
X035257Y004389D02*
X035195Y004389D01*
X035072Y004389D02*
X035072Y004327D01*
X035072Y004389D02*
X034825Y004389D01*
X034825Y004327D02*
X034825Y004451D01*
X034825Y004573D02*
X035072Y004573D01*
X035072Y004758D01*
X035010Y004820D01*
X034825Y004820D01*
X034887Y004941D02*
X034825Y005003D01*
X034825Y005188D01*
X034763Y005188D02*
X035072Y005188D01*
X035072Y005003D01*
X035010Y004941D01*
X034887Y004941D01*
X034701Y005065D02*
X034701Y005126D01*
X034763Y005188D01*
X034825Y005310D02*
X034825Y005371D01*
X034887Y005371D01*
X034887Y005310D01*
X034825Y005310D01*
X034887Y005494D02*
X034825Y005556D01*
X034825Y005741D01*
X034887Y005862D02*
X034825Y005924D01*
X034825Y006047D01*
X034887Y006109D01*
X035010Y006109D01*
X035072Y006047D01*
X035072Y005924D01*
X035010Y005862D01*
X034887Y005862D01*
X035072Y005741D02*
X035072Y005556D01*
X035010Y005494D01*
X034887Y005494D01*
X034887Y006230D02*
X034887Y006292D01*
X034825Y006292D01*
X034825Y006230D01*
X034887Y006230D01*
X034887Y006415D02*
X034825Y006476D01*
X034825Y006661D01*
X035072Y006661D01*
X035195Y006783D02*
X034825Y006783D01*
X034948Y006783D02*
X035072Y006968D01*
X034948Y006783D02*
X034825Y006968D01*
X036625Y007151D02*
X036748Y007275D01*
X036625Y007398D01*
X036995Y007398D01*
X036995Y007520D02*
X036625Y007520D01*
X036810Y007520D02*
X036872Y007581D01*
X036872Y007705D01*
X036810Y007766D01*
X036625Y007766D01*
X036625Y007888D02*
X036625Y008011D01*
X036625Y007950D02*
X036872Y007950D01*
X036872Y007888D01*
X036995Y007950D02*
X037057Y007950D01*
X037348Y007828D02*
X037348Y007581D01*
X037287Y007581D02*
X037410Y007581D01*
X037472Y007643D01*
X037472Y007766D01*
X037410Y007828D01*
X037348Y007828D01*
X037225Y007766D02*
X037225Y007643D01*
X037287Y007581D01*
X037225Y007459D02*
X037410Y007459D01*
X037472Y007398D01*
X037472Y007213D01*
X037225Y007213D01*
X036995Y007151D02*
X036625Y007151D01*
X037225Y006906D02*
X037472Y006906D01*
X037472Y007029D02*
X037348Y006906D01*
X037472Y007029D02*
X037472Y007091D01*
X035072Y006415D02*
X034887Y006415D01*
X038425Y005311D02*
X038425Y005126D01*
X038487Y005064D01*
X038610Y005064D01*
X038672Y005126D01*
X038672Y005311D01*
X038425Y004942D02*
X038425Y004819D01*
X038795Y004880D02*
X038857Y004880D01*
X038672Y004329D02*
X038425Y004329D01*
X038425Y004144D01*
X038487Y004082D01*
X038672Y004082D01*
X038795Y003960D02*
X038425Y003960D01*
X038672Y003837D02*
X038795Y003960D01*
X038672Y003837D02*
X038795Y003714D01*
X038425Y003714D01*
X036872Y003653D02*
X036872Y003530D01*
X036810Y003468D01*
X036687Y003468D01*
X036625Y003530D01*
X036625Y003653D01*
X036687Y003715D01*
X036810Y003715D01*
X036872Y003653D01*
X036272Y003775D02*
X036272Y003899D01*
X036210Y003960D01*
X036148Y003960D01*
X036148Y003714D01*
X036087Y003714D02*
X036210Y003714D01*
X036272Y003775D01*
X036210Y003592D02*
X036087Y003592D01*
X036025Y003530D01*
X036025Y003345D01*
X036395Y003345D01*
X036272Y003345D02*
X036272Y003530D01*
X036210Y003592D01*
X036087Y003714D02*
X036025Y003775D01*
X036025Y003899D01*
X035795Y003715D02*
X035733Y003715D01*
X035610Y003592D01*
X035425Y003592D01*
X035610Y003592D02*
X035733Y003468D01*
X035795Y003468D01*
X035733Y003347D02*
X035672Y003347D01*
X035610Y003285D01*
X035610Y003100D01*
X035610Y002978D02*
X035610Y002731D01*
X035487Y002610D02*
X035425Y002548D01*
X035425Y002425D01*
X035487Y002363D01*
X035733Y002363D01*
X035795Y002425D01*
X035795Y002548D01*
X035733Y002610D01*
X036025Y002610D02*
X036025Y002425D01*
X036087Y002363D01*
X036210Y002363D01*
X036272Y002425D01*
X036272Y002610D01*
X036272Y002731D02*
X036272Y002855D01*
X036333Y002793D02*
X036087Y002793D01*
X036025Y002855D01*
X036087Y002977D02*
X036025Y003039D01*
X036025Y003162D01*
X036087Y003224D01*
X036210Y003224D01*
X036272Y003162D01*
X036272Y003039D01*
X036210Y002977D01*
X036087Y002977D01*
X035795Y003100D02*
X035425Y003100D01*
X035425Y003285D01*
X035487Y003347D01*
X035548Y003347D01*
X035610Y003285D01*
X035733Y003347D02*
X035795Y003285D01*
X035795Y003100D01*
X035257Y003161D02*
X035195Y003161D01*
X035072Y003161D02*
X034825Y003161D01*
X034825Y003100D02*
X034825Y003223D01*
X034887Y003345D02*
X034825Y003407D01*
X034825Y003592D01*
X034887Y003775D02*
X034825Y003837D01*
X034887Y003775D02*
X035133Y003775D01*
X035072Y003714D02*
X035072Y003837D01*
X035010Y003959D02*
X035072Y004021D01*
X035072Y004144D01*
X035010Y004206D01*
X034825Y004206D01*
X035610Y004083D02*
X035610Y003836D01*
X035195Y003959D02*
X034825Y003959D01*
X036025Y004082D02*
X036272Y004082D01*
X036272Y004205D02*
X036148Y004082D01*
X036272Y004205D02*
X036272Y004267D01*
X036625Y004083D02*
X036810Y004083D01*
X036872Y004022D01*
X036872Y003836D01*
X036625Y003836D01*
X035072Y003592D02*
X035072Y003407D01*
X035010Y003345D01*
X034887Y003345D01*
X035072Y003161D02*
X035072Y003100D01*
X035072Y002978D02*
X035072Y002793D01*
X035010Y002731D01*
X034948Y002793D01*
X034948Y002917D01*
X034887Y002978D01*
X034825Y002917D01*
X034825Y002731D01*
X034825Y002610D02*
X035072Y002610D01*
X034825Y002610D02*
X034825Y002425D01*
X034887Y002363D01*
X035072Y002363D01*
X035010Y002242D02*
X034825Y002242D01*
X034825Y002118D02*
X035010Y002118D01*
X035072Y002180D01*
X035010Y002242D01*
X035010Y002118D02*
X035072Y002057D01*
X035072Y001995D01*
X034825Y001995D01*
X035425Y002057D02*
X035425Y002180D01*
X035487Y002242D01*
X035733Y002242D02*
X035795Y002180D01*
X035795Y002057D01*
X035733Y001995D01*
X035487Y001995D01*
X035425Y002057D01*
X036025Y002057D02*
X036087Y001995D01*
X036333Y001995D01*
X036395Y002057D01*
X036395Y002180D01*
X036333Y002242D01*
X036087Y002242D01*
X036025Y002180D01*
X036025Y002057D01*
X036625Y001995D02*
X036625Y002242D01*
X036687Y002363D02*
X036625Y002425D01*
X036625Y002548D01*
X036687Y002610D01*
X036810Y002610D01*
X036872Y002548D01*
X036872Y002425D01*
X036810Y002363D01*
X036687Y002363D01*
X036625Y002731D02*
X036872Y002731D01*
X036872Y002917D01*
X036810Y002978D01*
X036625Y002978D01*
X036687Y003100D02*
X036625Y003161D01*
X036625Y003347D01*
X036995Y003347D01*
X036872Y003347D02*
X036872Y003161D01*
X036810Y003100D01*
X036687Y003100D01*
X037595Y003161D02*
X037657Y003161D01*
X036995Y001995D02*
X036625Y001995D01*
X036872Y008133D02*
X036872Y008257D01*
X036933Y008195D02*
X036687Y008195D01*
X036625Y008257D01*
X036687Y008379D02*
X036625Y008441D01*
X036687Y008502D01*
X036625Y008564D01*
X036687Y008626D01*
X036872Y008626D01*
X036810Y008747D02*
X036872Y008809D01*
X036872Y008932D01*
X036810Y008994D01*
X036748Y008994D01*
X036748Y008747D01*
X036687Y008747D02*
X036810Y008747D01*
X036687Y008747D02*
X036625Y008809D01*
X036625Y008932D01*
X036625Y009116D02*
X036625Y009239D01*
X036625Y009177D02*
X036995Y009177D01*
X036995Y009116D01*
X037225Y009177D02*
X037225Y009300D01*
X037225Y009239D02*
X037595Y009239D01*
X037595Y009177D01*
X037595Y008993D02*
X037225Y008993D01*
X037225Y008931D02*
X037225Y009055D01*
X037595Y008993D02*
X037595Y008931D01*
X037225Y008809D02*
X037225Y008686D01*
X037225Y008748D02*
X037472Y008748D01*
X037472Y008686D01*
X037410Y008564D02*
X037410Y008318D01*
X037225Y008318D02*
X037595Y008318D01*
X036872Y008379D02*
X036687Y008379D01*
X037225Y008564D02*
X037595Y008564D01*
X037595Y008748D02*
X037657Y008748D01*
X036995Y009361D02*
X036995Y009423D01*
X036625Y009423D01*
X036625Y009361D02*
X036625Y009485D01*
X037101Y009422D02*
X037225Y009546D01*
X037225Y009484D01*
X037287Y009484D01*
X037287Y009546D01*
X037225Y009546D01*
M02*
