G75*
%MOIN*%
%OFA0B0*%
%FSLAX24Y24*%
%IPPOS*%
%LPD*%
%AMOC8*
5,1,8,0,0,1.08239X$1,22.5*
%
%ADD10C,0.0010*%
%ADD11R,0.5315X0.1102*%
%ADD12C,0.0000*%
%ADD13C,0.0000*%
D10*
X001479Y002778D02*
X052070Y002778D01*
X052070Y010652D01*
X001479Y010652D01*
X001479Y002778D01*
D11*
X023074Y008841D03*
D12*
X021400Y005475D02*
X021402Y005560D01*
X021408Y005645D01*
X021418Y005729D01*
X021432Y005813D01*
X021450Y005896D01*
X021471Y005978D01*
X021497Y006059D01*
X021526Y006139D01*
X021559Y006217D01*
X021595Y006293D01*
X021636Y006368D01*
X021679Y006441D01*
X021726Y006512D01*
X021776Y006580D01*
X021830Y006646D01*
X021886Y006710D01*
X021946Y006770D01*
X022008Y006828D01*
X022072Y006883D01*
X022140Y006935D01*
X022209Y006984D01*
X022281Y007029D01*
X022355Y007071D01*
X022431Y007109D01*
X022508Y007144D01*
X022587Y007175D01*
X022668Y007203D01*
X022749Y007226D01*
X022832Y007246D01*
X022915Y007262D01*
X022999Y007274D01*
X023084Y007282D01*
X023169Y007286D01*
X023253Y007286D01*
X023338Y007282D01*
X023423Y007274D01*
X023507Y007262D01*
X023590Y007246D01*
X023673Y007226D01*
X023754Y007203D01*
X023835Y007175D01*
X023914Y007144D01*
X023991Y007109D01*
X024067Y007071D01*
X024141Y007029D01*
X024213Y006984D01*
X024282Y006935D01*
X024350Y006883D01*
X024414Y006828D01*
X024476Y006770D01*
X024536Y006710D01*
X024592Y006646D01*
X024646Y006580D01*
X024696Y006512D01*
X024743Y006441D01*
X024786Y006368D01*
X024827Y006293D01*
X024863Y006217D01*
X024896Y006139D01*
X024925Y006059D01*
X024951Y005978D01*
X024972Y005896D01*
X024990Y005813D01*
X025004Y005729D01*
X025014Y005645D01*
X025020Y005560D01*
X025022Y005475D01*
X025020Y005390D01*
X025014Y005305D01*
X025004Y005221D01*
X024990Y005137D01*
X024972Y005054D01*
X024951Y004972D01*
X024925Y004891D01*
X024896Y004811D01*
X024863Y004733D01*
X024827Y004657D01*
X024786Y004582D01*
X024743Y004509D01*
X024696Y004438D01*
X024646Y004370D01*
X024592Y004304D01*
X024536Y004240D01*
X024476Y004180D01*
X024414Y004122D01*
X024350Y004067D01*
X024282Y004015D01*
X024213Y003966D01*
X024141Y003921D01*
X024067Y003879D01*
X023991Y003841D01*
X023914Y003806D01*
X023835Y003775D01*
X023754Y003747D01*
X023673Y003724D01*
X023590Y003704D01*
X023507Y003688D01*
X023423Y003676D01*
X023338Y003668D01*
X023253Y003664D01*
X023169Y003664D01*
X023084Y003668D01*
X022999Y003676D01*
X022915Y003688D01*
X022832Y003704D01*
X022749Y003724D01*
X022668Y003747D01*
X022587Y003775D01*
X022508Y003806D01*
X022431Y003841D01*
X022355Y003879D01*
X022281Y003921D01*
X022209Y003966D01*
X022140Y004015D01*
X022072Y004067D01*
X022008Y004122D01*
X021946Y004180D01*
X021886Y004240D01*
X021830Y004304D01*
X021776Y004370D01*
X021726Y004438D01*
X021679Y004509D01*
X021636Y004582D01*
X021595Y004657D01*
X021559Y004733D01*
X021526Y004811D01*
X021497Y004891D01*
X021471Y004972D01*
X021450Y005054D01*
X021432Y005137D01*
X021418Y005221D01*
X021408Y005305D01*
X021402Y005390D01*
X021400Y005475D01*
X025851Y004225D02*
X025853Y004274D01*
X025859Y004323D01*
X025869Y004371D01*
X025882Y004418D01*
X025900Y004464D01*
X025921Y004508D01*
X025945Y004551D01*
X025973Y004591D01*
X026004Y004630D01*
X026038Y004665D01*
X026075Y004698D01*
X026114Y004727D01*
X026156Y004753D01*
X026199Y004776D01*
X026245Y004795D01*
X026291Y004811D01*
X026339Y004823D01*
X026387Y004831D01*
X026436Y004835D01*
X026486Y004835D01*
X026535Y004831D01*
X026583Y004823D01*
X026631Y004811D01*
X026677Y004795D01*
X026723Y004776D01*
X026766Y004753D01*
X026808Y004727D01*
X026847Y004698D01*
X026884Y004665D01*
X026918Y004630D01*
X026949Y004591D01*
X026977Y004551D01*
X027001Y004508D01*
X027022Y004464D01*
X027040Y004418D01*
X027053Y004371D01*
X027063Y004323D01*
X027069Y004274D01*
X027071Y004225D01*
X027069Y004176D01*
X027063Y004127D01*
X027053Y004079D01*
X027040Y004032D01*
X027022Y003986D01*
X027001Y003942D01*
X026977Y003899D01*
X026949Y003859D01*
X026918Y003820D01*
X026884Y003785D01*
X026847Y003752D01*
X026808Y003723D01*
X026766Y003697D01*
X026723Y003674D01*
X026677Y003655D01*
X026631Y003639D01*
X026583Y003627D01*
X026535Y003619D01*
X026486Y003615D01*
X026436Y003615D01*
X026387Y003619D01*
X026339Y003627D01*
X026291Y003639D01*
X026245Y003655D01*
X026199Y003674D01*
X026156Y003697D01*
X026114Y003723D01*
X026075Y003752D01*
X026038Y003785D01*
X026004Y003820D01*
X025973Y003859D01*
X025945Y003899D01*
X025921Y003942D01*
X025900Y003986D01*
X025882Y004032D01*
X025869Y004079D01*
X025859Y004127D01*
X025853Y004176D01*
X025851Y004225D01*
X046501Y004125D02*
X046503Y004174D01*
X046509Y004223D01*
X046519Y004271D01*
X046532Y004318D01*
X046550Y004364D01*
X046571Y004408D01*
X046595Y004451D01*
X046623Y004491D01*
X046654Y004530D01*
X046688Y004565D01*
X046725Y004598D01*
X046764Y004627D01*
X046806Y004653D01*
X046849Y004676D01*
X046895Y004695D01*
X046941Y004711D01*
X046989Y004723D01*
X047037Y004731D01*
X047086Y004735D01*
X047136Y004735D01*
X047185Y004731D01*
X047233Y004723D01*
X047281Y004711D01*
X047327Y004695D01*
X047373Y004676D01*
X047416Y004653D01*
X047458Y004627D01*
X047497Y004598D01*
X047534Y004565D01*
X047568Y004530D01*
X047599Y004491D01*
X047627Y004451D01*
X047651Y004408D01*
X047672Y004364D01*
X047690Y004318D01*
X047703Y004271D01*
X047713Y004223D01*
X047719Y004174D01*
X047721Y004125D01*
X047719Y004076D01*
X047713Y004027D01*
X047703Y003979D01*
X047690Y003932D01*
X047672Y003886D01*
X047651Y003842D01*
X047627Y003799D01*
X047599Y003759D01*
X047568Y003720D01*
X047534Y003685D01*
X047497Y003652D01*
X047458Y003623D01*
X047416Y003597D01*
X047373Y003574D01*
X047327Y003555D01*
X047281Y003539D01*
X047233Y003527D01*
X047185Y003519D01*
X047136Y003515D01*
X047086Y003515D01*
X047037Y003519D01*
X046989Y003527D01*
X046941Y003539D01*
X046895Y003555D01*
X046849Y003574D01*
X046806Y003597D01*
X046764Y003623D01*
X046725Y003652D01*
X046688Y003685D01*
X046654Y003720D01*
X046623Y003759D01*
X046595Y003799D01*
X046571Y003842D01*
X046550Y003886D01*
X046532Y003932D01*
X046519Y003979D01*
X046509Y004027D01*
X046503Y004076D01*
X046501Y004125D01*
X046501Y005875D02*
X046503Y005924D01*
X046509Y005973D01*
X046519Y006021D01*
X046532Y006068D01*
X046550Y006114D01*
X046571Y006158D01*
X046595Y006201D01*
X046623Y006241D01*
X046654Y006280D01*
X046688Y006315D01*
X046725Y006348D01*
X046764Y006377D01*
X046806Y006403D01*
X046849Y006426D01*
X046895Y006445D01*
X046941Y006461D01*
X046989Y006473D01*
X047037Y006481D01*
X047086Y006485D01*
X047136Y006485D01*
X047185Y006481D01*
X047233Y006473D01*
X047281Y006461D01*
X047327Y006445D01*
X047373Y006426D01*
X047416Y006403D01*
X047458Y006377D01*
X047497Y006348D01*
X047534Y006315D01*
X047568Y006280D01*
X047599Y006241D01*
X047627Y006201D01*
X047651Y006158D01*
X047672Y006114D01*
X047690Y006068D01*
X047703Y006021D01*
X047713Y005973D01*
X047719Y005924D01*
X047721Y005875D01*
X047719Y005826D01*
X047713Y005777D01*
X047703Y005729D01*
X047690Y005682D01*
X047672Y005636D01*
X047651Y005592D01*
X047627Y005549D01*
X047599Y005509D01*
X047568Y005470D01*
X047534Y005435D01*
X047497Y005402D01*
X047458Y005373D01*
X047416Y005347D01*
X047373Y005324D01*
X047327Y005305D01*
X047281Y005289D01*
X047233Y005277D01*
X047185Y005269D01*
X047136Y005265D01*
X047086Y005265D01*
X047037Y005269D01*
X046989Y005277D01*
X046941Y005289D01*
X046895Y005305D01*
X046849Y005324D01*
X046806Y005347D01*
X046764Y005373D01*
X046725Y005402D01*
X046688Y005435D01*
X046654Y005470D01*
X046623Y005509D01*
X046595Y005549D01*
X046571Y005592D01*
X046550Y005636D01*
X046532Y005682D01*
X046519Y005729D01*
X046509Y005777D01*
X046503Y005826D01*
X046501Y005875D01*
X046501Y007625D02*
X046503Y007674D01*
X046509Y007723D01*
X046519Y007771D01*
X046532Y007818D01*
X046550Y007864D01*
X046571Y007908D01*
X046595Y007951D01*
X046623Y007991D01*
X046654Y008030D01*
X046688Y008065D01*
X046725Y008098D01*
X046764Y008127D01*
X046806Y008153D01*
X046849Y008176D01*
X046895Y008195D01*
X046941Y008211D01*
X046989Y008223D01*
X047037Y008231D01*
X047086Y008235D01*
X047136Y008235D01*
X047185Y008231D01*
X047233Y008223D01*
X047281Y008211D01*
X047327Y008195D01*
X047373Y008176D01*
X047416Y008153D01*
X047458Y008127D01*
X047497Y008098D01*
X047534Y008065D01*
X047568Y008030D01*
X047599Y007991D01*
X047627Y007951D01*
X047651Y007908D01*
X047672Y007864D01*
X047690Y007818D01*
X047703Y007771D01*
X047713Y007723D01*
X047719Y007674D01*
X047721Y007625D01*
X047719Y007576D01*
X047713Y007527D01*
X047703Y007479D01*
X047690Y007432D01*
X047672Y007386D01*
X047651Y007342D01*
X047627Y007299D01*
X047599Y007259D01*
X047568Y007220D01*
X047534Y007185D01*
X047497Y007152D01*
X047458Y007123D01*
X047416Y007097D01*
X047373Y007074D01*
X047327Y007055D01*
X047281Y007039D01*
X047233Y007027D01*
X047185Y007019D01*
X047136Y007015D01*
X047086Y007015D01*
X047037Y007019D01*
X046989Y007027D01*
X046941Y007039D01*
X046895Y007055D01*
X046849Y007074D01*
X046806Y007097D01*
X046764Y007123D01*
X046725Y007152D01*
X046688Y007185D01*
X046654Y007220D01*
X046623Y007259D01*
X046595Y007299D01*
X046571Y007342D01*
X046550Y007386D01*
X046532Y007432D01*
X046519Y007479D01*
X046509Y007527D01*
X046503Y007576D01*
X046501Y007625D01*
X046501Y009375D02*
X046503Y009424D01*
X046509Y009473D01*
X046519Y009521D01*
X046532Y009568D01*
X046550Y009614D01*
X046571Y009658D01*
X046595Y009701D01*
X046623Y009741D01*
X046654Y009780D01*
X046688Y009815D01*
X046725Y009848D01*
X046764Y009877D01*
X046806Y009903D01*
X046849Y009926D01*
X046895Y009945D01*
X046941Y009961D01*
X046989Y009973D01*
X047037Y009981D01*
X047086Y009985D01*
X047136Y009985D01*
X047185Y009981D01*
X047233Y009973D01*
X047281Y009961D01*
X047327Y009945D01*
X047373Y009926D01*
X047416Y009903D01*
X047458Y009877D01*
X047497Y009848D01*
X047534Y009815D01*
X047568Y009780D01*
X047599Y009741D01*
X047627Y009701D01*
X047651Y009658D01*
X047672Y009614D01*
X047690Y009568D01*
X047703Y009521D01*
X047713Y009473D01*
X047719Y009424D01*
X047721Y009375D01*
X047719Y009326D01*
X047713Y009277D01*
X047703Y009229D01*
X047690Y009182D01*
X047672Y009136D01*
X047651Y009092D01*
X047627Y009049D01*
X047599Y009009D01*
X047568Y008970D01*
X047534Y008935D01*
X047497Y008902D01*
X047458Y008873D01*
X047416Y008847D01*
X047373Y008824D01*
X047327Y008805D01*
X047281Y008789D01*
X047233Y008777D01*
X047185Y008769D01*
X047136Y008765D01*
X047086Y008765D01*
X047037Y008769D01*
X046989Y008777D01*
X046941Y008789D01*
X046895Y008805D01*
X046849Y008824D01*
X046806Y008847D01*
X046764Y008873D01*
X046725Y008902D01*
X046688Y008935D01*
X046654Y008970D01*
X046623Y009009D01*
X046595Y009049D01*
X046571Y009092D01*
X046550Y009136D01*
X046532Y009182D01*
X046519Y009229D01*
X046509Y009277D01*
X046503Y009326D01*
X046501Y009375D01*
D13*
X025732Y009392D02*
X025732Y008290D01*
X020416Y008290D01*
X020416Y009393D01*
X025732Y009392D01*
M02*
