G75*
%MOIN*%
%OFA0B0*%
%FSLAX24Y24*%
%IPPOS*%
%LPD*%
%AMOC8*
5,1,8,0,0,1.08239X$1,22.5*
%
%ADD10C,0.0010*%
%ADD11C,0.0000*%
%ADD12C,0.0040*%
%ADD13C,0.0000*%
%ADD14R,0.0182X0.0008*%
%ADD15R,0.0122X0.0008*%
%ADD16R,0.0312X0.0008*%
%ADD17R,0.0205X0.0008*%
%ADD18R,0.0395X0.0008*%
%ADD19R,0.0258X0.0008*%
%ADD20R,0.0129X0.0008*%
%ADD21R,0.0137X0.0008*%
%ADD22R,0.0456X0.0008*%
%ADD23R,0.0304X0.0008*%
%ADD24R,0.0220X0.0008*%
%ADD25R,0.0228X0.0008*%
%ADD26R,0.0509X0.0008*%
%ADD27R,0.0342X0.0008*%
%ADD28R,0.0274X0.0008*%
%ADD29R,0.0296X0.0008*%
%ADD30R,0.0555X0.0008*%
%ADD31R,0.0372X0.0008*%
%ADD32R,0.0319X0.0008*%
%ADD33R,0.0342X0.0008*%
%ADD34R,0.0502X0.0008*%
%ADD35R,0.0410X0.0008*%
%ADD36R,0.0593X0.0008*%
%ADD37R,0.0403X0.0008*%
%ADD38R,0.0441X0.0008*%
%ADD39R,0.0357X0.0008*%
%ADD40R,0.0448X0.0008*%
%ADD41R,0.0479X0.0008*%
%ADD42R,0.0388X0.0008*%
%ADD43R,0.0502X0.0008*%
%ADD44R,0.0502X0.0008*%
%ADD45R,0.0410X0.0008*%
%ADD46R,0.0631X0.0008*%
%ADD47R,0.0433X0.0008*%
%ADD48R,0.0441X0.0008*%
%ADD49R,0.0388X0.0008*%
%ADD50R,0.0448X0.0008*%
%ADD51R,0.0479X0.0008*%
%ADD52R,0.0426X0.0008*%
%ADD53R,0.0494X0.0008*%
%ADD54R,0.0669X0.0008*%
%ADD55R,0.0464X0.0008*%
%ADD56R,0.0418X0.0008*%
%ADD57R,0.0426X0.0008*%
%ADD58R,0.0692X0.0008*%
%ADD59R,0.0448X0.0008*%
%ADD60R,0.0486X0.0008*%
%ADD61R,0.0494X0.0008*%
%ADD62R,0.0722X0.0008*%
%ADD63R,0.0471X0.0008*%
%ADD64R,0.0745X0.0008*%
%ADD65R,0.0524X0.0008*%
%ADD66R,0.0486X0.0008*%
%ADD67R,0.0540X0.0008*%
%ADD68R,0.0775X0.0008*%
%ADD69R,0.0509X0.0008*%
%ADD70R,0.0486X0.0008*%
%ADD71R,0.0790X0.0008*%
%ADD72R,0.0555X0.0008*%
%ADD73R,0.0532X0.0008*%
%ADD74R,0.0585X0.0008*%
%ADD75R,0.0486X0.0008*%
%ADD76R,0.0813X0.0008*%
%ADD77R,0.0578X0.0008*%
%ADD78R,0.0547X0.0008*%
%ADD79R,0.0608X0.0008*%
%ADD80R,0.0836X0.0008*%
%ADD81R,0.0593X0.0008*%
%ADD82R,0.0555X0.0008*%
%ADD83R,0.0623X0.0008*%
%ADD84R,0.0851X0.0008*%
%ADD85R,0.0608X0.0008*%
%ADD86R,0.0578X0.0008*%
%ADD87R,0.0646X0.0008*%
%ADD88R,0.0866X0.0008*%
%ADD89R,0.0661X0.0008*%
%ADD90R,0.0456X0.0008*%
%ADD91R,0.0882X0.0008*%
%ADD92R,0.0638X0.0008*%
%ADD93R,0.0608X0.0008*%
%ADD94R,0.0676X0.0008*%
%ADD95R,0.0897X0.0008*%
%ADD96R,0.0646X0.0008*%
%ADD97R,0.0692X0.0008*%
%ADD98R,0.0456X0.0008*%
%ADD99R,0.0912X0.0008*%
%ADD100R,0.0654X0.0008*%
%ADD101R,0.0631X0.0008*%
%ADD102R,0.0714X0.0008*%
%ADD103R,0.0927X0.0008*%
%ADD104R,0.0669X0.0008*%
%ADD105R,0.0730X0.0008*%
%ADD106R,0.0942X0.0008*%
%ADD107R,0.0684X0.0008*%
%ADD108R,0.0654X0.0008*%
%ADD109R,0.0737X0.0008*%
%ADD110R,0.0471X0.0008*%
%ADD111R,0.0958X0.0008*%
%ADD112R,0.0692X0.0008*%
%ADD113R,0.0661X0.0008*%
%ADD114R,0.0752X0.0008*%
%ADD115R,0.0973X0.0008*%
%ADD116R,0.0699X0.0008*%
%ADD117R,0.0768X0.0008*%
%ADD118R,0.0980X0.0008*%
%ADD119R,0.0714X0.0008*%
%ADD120R,0.0783X0.0008*%
%ADD121R,0.0988X0.0008*%
%ADD122R,0.0722X0.0008*%
%ADD123R,0.0699X0.0008*%
%ADD124R,0.1277X0.0008*%
%ADD125R,0.1003X0.0008*%
%ADD126R,0.0737X0.0008*%
%ADD127R,0.0707X0.0008*%
%ADD128R,0.1284X0.0008*%
%ADD129R,0.1011X0.0008*%
%ADD130R,0.0714X0.0008*%
%ADD131R,0.1284X0.0008*%
%ADD132R,0.1018X0.0008*%
%ADD133R,0.0745X0.0008*%
%ADD134R,0.1292X0.0008*%
%ADD135R,0.1034X0.0008*%
%ADD136R,0.0752X0.0008*%
%ADD137R,0.1034X0.0008*%
%ADD138R,0.1201X0.0008*%
%ADD139R,0.0737X0.0008*%
%ADD140R,0.1300X0.0008*%
%ADD141R,0.1049X0.0008*%
%ADD142R,0.1208X0.0008*%
%ADD143R,0.1292X0.0008*%
%ADD144R,0.0502X0.0008*%
%ADD145R,0.1056X0.0008*%
%ADD146R,0.1300X0.0008*%
%ADD147R,0.1064X0.0008*%
%ADD148R,0.1208X0.0008*%
%ADD149R,0.1072X0.0008*%
%ADD150R,0.1216X0.0008*%
%ADD151R,0.1307X0.0008*%
%ADD152R,0.1079X0.0008*%
%ADD153R,0.0517X0.0008*%
%ADD154R,0.1087X0.0008*%
%ADD155R,0.1216X0.0008*%
%ADD156R,0.1315X0.0008*%
%ADD157R,0.0517X0.0008*%
%ADD158R,0.1094X0.0008*%
%ADD159R,0.1224X0.0008*%
%ADD160R,0.1216X0.0008*%
%ADD161R,0.1315X0.0008*%
%ADD162R,0.1094X0.0008*%
%ADD163R,0.1224X0.0008*%
%ADD164R,0.1110X0.0008*%
%ADD165R,0.1322X0.0008*%
%ADD166R,0.1110X0.0008*%
%ADD167R,0.1231X0.0008*%
%ADD168R,0.1322X0.0008*%
%ADD169R,0.0532X0.0008*%
%ADD170R,0.1117X0.0008*%
%ADD171R,0.1231X0.0008*%
%ADD172R,0.1125X0.0008*%
%ADD173R,0.1330X0.0008*%
%ADD174R,0.1140X0.0008*%
%ADD175R,0.1322X0.0008*%
%ADD176R,0.1140X0.0008*%
%ADD177R,0.1239X0.0008*%
%ADD178R,0.1322X0.0008*%
%ADD179R,0.0547X0.0008*%
%ADD180R,0.0524X0.0008*%
%ADD181R,0.0524X0.0008*%
%ADD182R,0.1239X0.0008*%
%ADD183R,0.1330X0.0008*%
%ADD184R,0.0562X0.0008*%
%ADD185R,0.0562X0.0008*%
%ADD186R,0.0600X0.0008*%
%ADD187R,0.0540X0.0008*%
%ADD188R,0.0562X0.0008*%
%ADD189R,0.0616X0.0008*%
%ADD190R,0.0585X0.0008*%
%ADD191R,0.0479X0.0008*%
%ADD192R,0.0547X0.0008*%
%ADD193R,0.0540X0.0008*%
%ADD194R,0.0517X0.0008*%
%ADD195R,0.0570X0.0008*%
%ADD196R,0.0479X0.0008*%
%ADD197R,0.0517X0.0008*%
%ADD198R,0.0562X0.0008*%
%ADD199R,0.0578X0.0008*%
%ADD200R,0.0524X0.0008*%
%ADD201R,0.0471X0.0008*%
%ADD202R,0.0532X0.0008*%
%ADD203R,0.0471X0.0008*%
%ADD204R,0.0509X0.0008*%
%ADD205R,0.0509X0.0008*%
%ADD206R,0.0623X0.0008*%
%ADD207R,0.0623X0.0008*%
%ADD208R,0.0638X0.0008*%
%ADD209R,0.0669X0.0008*%
%ADD210R,0.0684X0.0008*%
%ADD211R,0.0684X0.0008*%
%ADD212R,0.0494X0.0008*%
%ADD213R,0.0699X0.0008*%
%ADD214R,0.0540X0.0008*%
%ADD215R,0.0730X0.0008*%
%ADD216R,0.0730X0.0008*%
%ADD217R,0.0570X0.0008*%
%ADD218R,0.0600X0.0008*%
%ADD219R,0.0365X0.0008*%
%ADD220R,0.0365X0.0008*%
%ADD221R,0.0669X0.0008*%
%ADD222R,0.1186X0.0008*%
%ADD223R,0.1178X0.0008*%
%ADD224R,0.0372X0.0008*%
%ADD225R,0.1163X0.0008*%
%ADD226R,0.1155X0.0008*%
%ADD227R,0.1148X0.0008*%
%ADD228R,0.0365X0.0008*%
%ADD229R,0.0372X0.0008*%
%ADD230R,0.1125X0.0008*%
%ADD231R,0.0372X0.0008*%
%ADD232R,0.1102X0.0008*%
%ADD233R,0.0380X0.0008*%
%ADD234R,0.1041X0.0008*%
%ADD235R,0.1026X0.0008*%
%ADD236R,0.0996X0.0008*%
%ADD237R,0.0380X0.0008*%
%ADD238R,0.0980X0.0008*%
%ADD239R,0.0965X0.0008*%
%ADD240R,0.0950X0.0008*%
%ADD241R,0.0927X0.0008*%
%ADD242R,0.0912X0.0008*%
%ADD243R,0.0889X0.0008*%
%ADD244R,0.0828X0.0008*%
%ADD245R,0.0806X0.0008*%
%ADD246R,0.0783X0.0008*%
%ADD247R,0.0388X0.0008*%
%ADD248R,0.0388X0.0008*%
%ADD249R,0.0638X0.0008*%
%ADD250R,0.0616X0.0008*%
%ADD251R,0.0395X0.0008*%
%ADD252R,0.0395X0.0008*%
%ADD253R,0.0494X0.0008*%
%ADD254R,0.0578X0.0008*%
%ADD255R,0.0023X0.0008*%
%ADD256R,0.0638X0.0008*%
%ADD257R,0.0076X0.0008*%
%ADD258R,0.0403X0.0008*%
%ADD259R,0.0395X0.0008*%
%ADD260R,0.0828X0.0008*%
%ADD261R,0.0403X0.0008*%
%ADD262R,0.0403X0.0008*%
%ADD263R,0.0464X0.0008*%
%ADD264R,0.0555X0.0008*%
%ADD265R,0.0585X0.0008*%
%ADD266R,0.0532X0.0008*%
%ADD267R,0.1216X0.0008*%
%ADD268R,0.1132X0.0008*%
%ADD269R,0.1117X0.0008*%
%ADD270R,0.1201X0.0008*%
%ADD271R,0.1208X0.0008*%
%ADD272R,0.1201X0.0008*%
%ADD273R,0.1193X0.0008*%
%ADD274R,0.1193X0.0008*%
%ADD275R,0.1186X0.0008*%
%ADD276R,0.1064X0.0008*%
%ADD277R,0.1186X0.0008*%
%ADD278R,0.1163X0.0008*%
%ADD279R,0.1155X0.0008*%
%ADD280R,0.0350X0.0008*%
%ADD281R,0.1011X0.0008*%
%ADD282R,0.1178X0.0008*%
%ADD283R,0.1125X0.0008*%
%ADD284R,0.0342X0.0008*%
%ADD285R,0.1003X0.0008*%
%ADD286R,0.1170X0.0008*%
%ADD287R,0.0334X0.0008*%
%ADD288R,0.0327X0.0008*%
%ADD289R,0.0676X0.0008*%
%ADD290R,0.0973X0.0008*%
%ADD291R,0.1079X0.0008*%
%ADD292R,0.0312X0.0008*%
%ADD293R,0.0958X0.0008*%
%ADD294R,0.1041X0.0008*%
%ADD295R,0.0296X0.0008*%
%ADD296R,0.0912X0.0008*%
%ADD297R,0.0289X0.0008*%
%ADD298R,0.0281X0.0008*%
%ADD299R,0.0988X0.0008*%
%ADD300R,0.0456X0.0008*%
%ADD301R,0.0866X0.0008*%
%ADD302R,0.0266X0.0008*%
%ADD303R,0.0851X0.0008*%
%ADD304R,0.0258X0.0008*%
%ADD305R,0.0935X0.0008*%
%ADD306R,0.0243X0.0008*%
%ADD307R,0.0806X0.0008*%
%ADD308R,0.0912X0.0008*%
%ADD309R,0.0236X0.0008*%
%ADD310R,0.0790X0.0008*%
%ADD311R,0.0859X0.0008*%
%ADD312R,0.0213X0.0008*%
%ADD313R,0.0844X0.0008*%
%ADD314R,0.0813X0.0008*%
%ADD315R,0.0190X0.0008*%
%ADD316R,0.0692X0.0008*%
%ADD317R,0.0783X0.0008*%
%ADD318R,0.0182X0.0008*%
%ADD319R,0.0167X0.0008*%
%ADD320R,0.0410X0.0008*%
%ADD321R,0.0707X0.0008*%
%ADD322R,0.0152X0.0008*%
%ADD323R,0.0137X0.0008*%
%ADD324R,0.0350X0.0008*%
%ADD325R,0.0114X0.0008*%
%ADD326R,0.0319X0.0008*%
%ADD327R,0.0091X0.0008*%
%ADD328R,0.0266X0.0008*%
%ADD329R,0.0068X0.0008*%
%ADD330R,0.0213X0.0008*%
%ADD331R,0.0441X0.0008*%
%ADD332R,0.0030X0.0008*%
%ADD333R,0.0859X0.0008*%
%ADD334R,0.0851X0.0008*%
%ADD335R,0.0129X0.0008*%
%ADD336R,0.0859X0.0008*%
%ADD337R,0.0851X0.0008*%
%ADD338R,0.0844X0.0008*%
%ADD339R,0.0836X0.0008*%
%ADD340R,0.0828X0.0008*%
%ADD341R,0.0828X0.0008*%
%ADD342R,0.0821X0.0008*%
%ADD343R,0.0821X0.0008*%
%ADD344R,0.0198X0.0008*%
%ADD345R,0.0798X0.0008*%
%ADD346R,0.0798X0.0008*%
%ADD347R,0.0775X0.0008*%
%ADD348R,0.0874X0.0008*%
%ADD349R,0.0920X0.0008*%
%ADD350R,0.0935X0.0008*%
%ADD351R,0.0965X0.0008*%
%ADD352R,0.0980X0.0008*%
%ADD353R,0.0996X0.0008*%
%ADD354R,0.0775X0.0008*%
%ADD355R,0.1034X0.0008*%
%ADD356R,0.1079X0.0008*%
%ADD357R,0.0768X0.0008*%
%ADD358R,0.1087X0.0008*%
%ADD359R,0.1094X0.0008*%
%ADD360R,0.0760X0.0008*%
%ADD361R,0.1132X0.0008*%
%ADD362R,0.0760X0.0008*%
%ADD363R,0.1148X0.0008*%
%ADD364R,0.1170X0.0008*%
%ADD365R,0.1178X0.0008*%
%ADD366R,0.0745X0.0008*%
%ADD367R,0.0547X0.0008*%
%ADD368R,0.0106X0.0008*%
%ADD369R,0.0198X0.0008*%
%ADD370R,0.0289X0.0008*%
%ADD371R,0.0327X0.0008*%
%ADD372R,0.0357X0.0008*%
%ADD373R,0.0418X0.0008*%
%ADD374R,0.0433X0.0008*%
%ADD375R,0.0585X0.0008*%
%ADD376R,0.0661X0.0008*%
%ADD377R,0.1155X0.0008*%
%ADD378R,0.1170X0.0008*%
%ADD379R,0.1178X0.0008*%
%ADD380R,0.1186X0.0008*%
%ADD381R,0.1201X0.0008*%
%ADD382R,0.1224X0.0008*%
%ADD383R,0.1224X0.0008*%
%ADD384R,0.1231X0.0008*%
%ADD385R,0.1231X0.0008*%
%ADD386R,0.1239X0.0008*%
%ADD387R,0.0600X0.0008*%
%ADD388R,0.1239X0.0008*%
%ADD389R,0.1208X0.0008*%
%ADD390R,0.0737X0.0008*%
%ADD391R,0.0752X0.0008*%
%ADD392R,0.0730X0.0008*%
%ADD393R,0.0699X0.0008*%
%ADD394R,0.0661X0.0008*%
%ADD395R,0.0616X0.0008*%
%ADD396R,0.0623X0.0008*%
%ADD397R,0.0418X0.0008*%
%ADD398R,0.0410X0.0008*%
%ADD399R,0.0274X0.0008*%
%ADD400R,0.0289X0.0008*%
%ADD401R,0.0220X0.0008*%
%ADD402R,0.0251X0.0008*%
%ADD403R,0.0129X0.0008*%
%ADD404R,0.0190X0.0008*%
%ADD405R,0.0114X0.0008*%
%ADD406R,0.1414X0.0008*%
%ADD407R,0.1414X0.0008*%
%ADD408R,0.0220X0.0008*%
%ADD409R,0.0357X0.0008*%
%ADD410R,0.0722X0.0008*%
%ADD411R,0.0882X0.0008*%
%ADD412R,0.0904X0.0008*%
%ADD413R,0.0646X0.0008*%
%ADD414R,0.0676X0.0008*%
%ADD415R,0.1026X0.0008*%
%ADD416R,0.1018X0.0008*%
%ADD417R,0.1018X0.0008*%
%ADD418R,0.1041X0.0008*%
%ADD419R,0.1056X0.0008*%
%ADD420R,0.1049X0.0008*%
%ADD421R,0.1102X0.0008*%
%ADD422R,0.1102X0.0008*%
%ADD423R,0.1117X0.0008*%
%ADD424R,0.1132X0.0008*%
%ADD425R,0.1125X0.0008*%
%ADD426R,0.0616X0.0008*%
%ADD427R,0.0593X0.0008*%
%ADD428R,0.0448X0.0008*%
%ADD429R,0.0426X0.0008*%
%ADD430R,0.0441X0.0008*%
%ADD431R,0.0426X0.0008*%
%ADD432R,0.0714X0.0008*%
%ADD433R,0.0752X0.0008*%
%ADD434R,0.0775X0.0008*%
%ADD435R,0.0889X0.0008*%
%ADD436R,0.0882X0.0008*%
%ADD437R,0.0874X0.0008*%
%ADD438R,0.0866X0.0008*%
%ADD439R,0.0798X0.0008*%
%ADD440R,0.0654X0.0008*%
%ADD441R,0.0608X0.0008*%
%ADD442R,0.0418X0.0008*%
%ADD443R,0.0433X0.0008*%
%ADD444R,0.0433X0.0008*%
%ADD445R,0.0464X0.0008*%
%ADD446R,0.1094X0.0008*%
%ADD447R,0.1034X0.0008*%
%ADD448R,0.0973X0.0008*%
%ADD449R,0.0965X0.0008*%
%ADD450R,0.0904X0.0008*%
%ADD451R,0.0821X0.0008*%
%ADD452R,0.0798X0.0008*%
D10*
X001479Y002778D02*
X052070Y002778D01*
X052070Y010652D01*
X001479Y010652D01*
X001479Y002778D01*
D11*
X021400Y005475D02*
X021402Y005560D01*
X021408Y005645D01*
X021418Y005729D01*
X021432Y005813D01*
X021450Y005896D01*
X021471Y005978D01*
X021497Y006059D01*
X021526Y006139D01*
X021559Y006217D01*
X021595Y006293D01*
X021636Y006368D01*
X021679Y006441D01*
X021726Y006512D01*
X021776Y006580D01*
X021830Y006646D01*
X021886Y006710D01*
X021946Y006770D01*
X022008Y006828D01*
X022072Y006883D01*
X022140Y006935D01*
X022209Y006984D01*
X022281Y007029D01*
X022355Y007071D01*
X022431Y007109D01*
X022508Y007144D01*
X022587Y007175D01*
X022668Y007203D01*
X022749Y007226D01*
X022832Y007246D01*
X022915Y007262D01*
X022999Y007274D01*
X023084Y007282D01*
X023169Y007286D01*
X023253Y007286D01*
X023338Y007282D01*
X023423Y007274D01*
X023507Y007262D01*
X023590Y007246D01*
X023673Y007226D01*
X023754Y007203D01*
X023835Y007175D01*
X023914Y007144D01*
X023991Y007109D01*
X024067Y007071D01*
X024141Y007029D01*
X024213Y006984D01*
X024282Y006935D01*
X024350Y006883D01*
X024414Y006828D01*
X024476Y006770D01*
X024536Y006710D01*
X024592Y006646D01*
X024646Y006580D01*
X024696Y006512D01*
X024743Y006441D01*
X024786Y006368D01*
X024827Y006293D01*
X024863Y006217D01*
X024896Y006139D01*
X024925Y006059D01*
X024951Y005978D01*
X024972Y005896D01*
X024990Y005813D01*
X025004Y005729D01*
X025014Y005645D01*
X025020Y005560D01*
X025022Y005475D01*
X025020Y005390D01*
X025014Y005305D01*
X025004Y005221D01*
X024990Y005137D01*
X024972Y005054D01*
X024951Y004972D01*
X024925Y004891D01*
X024896Y004811D01*
X024863Y004733D01*
X024827Y004657D01*
X024786Y004582D01*
X024743Y004509D01*
X024696Y004438D01*
X024646Y004370D01*
X024592Y004304D01*
X024536Y004240D01*
X024476Y004180D01*
X024414Y004122D01*
X024350Y004067D01*
X024282Y004015D01*
X024213Y003966D01*
X024141Y003921D01*
X024067Y003879D01*
X023991Y003841D01*
X023914Y003806D01*
X023835Y003775D01*
X023754Y003747D01*
X023673Y003724D01*
X023590Y003704D01*
X023507Y003688D01*
X023423Y003676D01*
X023338Y003668D01*
X023253Y003664D01*
X023169Y003664D01*
X023084Y003668D01*
X022999Y003676D01*
X022915Y003688D01*
X022832Y003704D01*
X022749Y003724D01*
X022668Y003747D01*
X022587Y003775D01*
X022508Y003806D01*
X022431Y003841D01*
X022355Y003879D01*
X022281Y003921D01*
X022209Y003966D01*
X022140Y004015D01*
X022072Y004067D01*
X022008Y004122D01*
X021946Y004180D01*
X021886Y004240D01*
X021830Y004304D01*
X021776Y004370D01*
X021726Y004438D01*
X021679Y004509D01*
X021636Y004582D01*
X021595Y004657D01*
X021559Y004733D01*
X021526Y004811D01*
X021497Y004891D01*
X021471Y004972D01*
X021450Y005054D01*
X021432Y005137D01*
X021418Y005221D01*
X021408Y005305D01*
X021402Y005390D01*
X021400Y005475D01*
X025851Y004225D02*
X025853Y004274D01*
X025859Y004323D01*
X025869Y004371D01*
X025882Y004418D01*
X025900Y004464D01*
X025921Y004508D01*
X025945Y004551D01*
X025973Y004591D01*
X026004Y004630D01*
X026038Y004665D01*
X026075Y004698D01*
X026114Y004727D01*
X026156Y004753D01*
X026199Y004776D01*
X026245Y004795D01*
X026291Y004811D01*
X026339Y004823D01*
X026387Y004831D01*
X026436Y004835D01*
X026486Y004835D01*
X026535Y004831D01*
X026583Y004823D01*
X026631Y004811D01*
X026677Y004795D01*
X026723Y004776D01*
X026766Y004753D01*
X026808Y004727D01*
X026847Y004698D01*
X026884Y004665D01*
X026918Y004630D01*
X026949Y004591D01*
X026977Y004551D01*
X027001Y004508D01*
X027022Y004464D01*
X027040Y004418D01*
X027053Y004371D01*
X027063Y004323D01*
X027069Y004274D01*
X027071Y004225D01*
X027069Y004176D01*
X027063Y004127D01*
X027053Y004079D01*
X027040Y004032D01*
X027022Y003986D01*
X027001Y003942D01*
X026977Y003899D01*
X026949Y003859D01*
X026918Y003820D01*
X026884Y003785D01*
X026847Y003752D01*
X026808Y003723D01*
X026766Y003697D01*
X026723Y003674D01*
X026677Y003655D01*
X026631Y003639D01*
X026583Y003627D01*
X026535Y003619D01*
X026486Y003615D01*
X026436Y003615D01*
X026387Y003619D01*
X026339Y003627D01*
X026291Y003639D01*
X026245Y003655D01*
X026199Y003674D01*
X026156Y003697D01*
X026114Y003723D01*
X026075Y003752D01*
X026038Y003785D01*
X026004Y003820D01*
X025973Y003859D01*
X025945Y003899D01*
X025921Y003942D01*
X025900Y003986D01*
X025882Y004032D01*
X025869Y004079D01*
X025859Y004127D01*
X025853Y004176D01*
X025851Y004225D01*
X046501Y004125D02*
X046503Y004174D01*
X046509Y004223D01*
X046519Y004271D01*
X046532Y004318D01*
X046550Y004364D01*
X046571Y004408D01*
X046595Y004451D01*
X046623Y004491D01*
X046654Y004530D01*
X046688Y004565D01*
X046725Y004598D01*
X046764Y004627D01*
X046806Y004653D01*
X046849Y004676D01*
X046895Y004695D01*
X046941Y004711D01*
X046989Y004723D01*
X047037Y004731D01*
X047086Y004735D01*
X047136Y004735D01*
X047185Y004731D01*
X047233Y004723D01*
X047281Y004711D01*
X047327Y004695D01*
X047373Y004676D01*
X047416Y004653D01*
X047458Y004627D01*
X047497Y004598D01*
X047534Y004565D01*
X047568Y004530D01*
X047599Y004491D01*
X047627Y004451D01*
X047651Y004408D01*
X047672Y004364D01*
X047690Y004318D01*
X047703Y004271D01*
X047713Y004223D01*
X047719Y004174D01*
X047721Y004125D01*
X047719Y004076D01*
X047713Y004027D01*
X047703Y003979D01*
X047690Y003932D01*
X047672Y003886D01*
X047651Y003842D01*
X047627Y003799D01*
X047599Y003759D01*
X047568Y003720D01*
X047534Y003685D01*
X047497Y003652D01*
X047458Y003623D01*
X047416Y003597D01*
X047373Y003574D01*
X047327Y003555D01*
X047281Y003539D01*
X047233Y003527D01*
X047185Y003519D01*
X047136Y003515D01*
X047086Y003515D01*
X047037Y003519D01*
X046989Y003527D01*
X046941Y003539D01*
X046895Y003555D01*
X046849Y003574D01*
X046806Y003597D01*
X046764Y003623D01*
X046725Y003652D01*
X046688Y003685D01*
X046654Y003720D01*
X046623Y003759D01*
X046595Y003799D01*
X046571Y003842D01*
X046550Y003886D01*
X046532Y003932D01*
X046519Y003979D01*
X046509Y004027D01*
X046503Y004076D01*
X046501Y004125D01*
X046501Y005875D02*
X046503Y005924D01*
X046509Y005973D01*
X046519Y006021D01*
X046532Y006068D01*
X046550Y006114D01*
X046571Y006158D01*
X046595Y006201D01*
X046623Y006241D01*
X046654Y006280D01*
X046688Y006315D01*
X046725Y006348D01*
X046764Y006377D01*
X046806Y006403D01*
X046849Y006426D01*
X046895Y006445D01*
X046941Y006461D01*
X046989Y006473D01*
X047037Y006481D01*
X047086Y006485D01*
X047136Y006485D01*
X047185Y006481D01*
X047233Y006473D01*
X047281Y006461D01*
X047327Y006445D01*
X047373Y006426D01*
X047416Y006403D01*
X047458Y006377D01*
X047497Y006348D01*
X047534Y006315D01*
X047568Y006280D01*
X047599Y006241D01*
X047627Y006201D01*
X047651Y006158D01*
X047672Y006114D01*
X047690Y006068D01*
X047703Y006021D01*
X047713Y005973D01*
X047719Y005924D01*
X047721Y005875D01*
X047719Y005826D01*
X047713Y005777D01*
X047703Y005729D01*
X047690Y005682D01*
X047672Y005636D01*
X047651Y005592D01*
X047627Y005549D01*
X047599Y005509D01*
X047568Y005470D01*
X047534Y005435D01*
X047497Y005402D01*
X047458Y005373D01*
X047416Y005347D01*
X047373Y005324D01*
X047327Y005305D01*
X047281Y005289D01*
X047233Y005277D01*
X047185Y005269D01*
X047136Y005265D01*
X047086Y005265D01*
X047037Y005269D01*
X046989Y005277D01*
X046941Y005289D01*
X046895Y005305D01*
X046849Y005324D01*
X046806Y005347D01*
X046764Y005373D01*
X046725Y005402D01*
X046688Y005435D01*
X046654Y005470D01*
X046623Y005509D01*
X046595Y005549D01*
X046571Y005592D01*
X046550Y005636D01*
X046532Y005682D01*
X046519Y005729D01*
X046509Y005777D01*
X046503Y005826D01*
X046501Y005875D01*
X046501Y007625D02*
X046503Y007674D01*
X046509Y007723D01*
X046519Y007771D01*
X046532Y007818D01*
X046550Y007864D01*
X046571Y007908D01*
X046595Y007951D01*
X046623Y007991D01*
X046654Y008030D01*
X046688Y008065D01*
X046725Y008098D01*
X046764Y008127D01*
X046806Y008153D01*
X046849Y008176D01*
X046895Y008195D01*
X046941Y008211D01*
X046989Y008223D01*
X047037Y008231D01*
X047086Y008235D01*
X047136Y008235D01*
X047185Y008231D01*
X047233Y008223D01*
X047281Y008211D01*
X047327Y008195D01*
X047373Y008176D01*
X047416Y008153D01*
X047458Y008127D01*
X047497Y008098D01*
X047534Y008065D01*
X047568Y008030D01*
X047599Y007991D01*
X047627Y007951D01*
X047651Y007908D01*
X047672Y007864D01*
X047690Y007818D01*
X047703Y007771D01*
X047713Y007723D01*
X047719Y007674D01*
X047721Y007625D01*
X047719Y007576D01*
X047713Y007527D01*
X047703Y007479D01*
X047690Y007432D01*
X047672Y007386D01*
X047651Y007342D01*
X047627Y007299D01*
X047599Y007259D01*
X047568Y007220D01*
X047534Y007185D01*
X047497Y007152D01*
X047458Y007123D01*
X047416Y007097D01*
X047373Y007074D01*
X047327Y007055D01*
X047281Y007039D01*
X047233Y007027D01*
X047185Y007019D01*
X047136Y007015D01*
X047086Y007015D01*
X047037Y007019D01*
X046989Y007027D01*
X046941Y007039D01*
X046895Y007055D01*
X046849Y007074D01*
X046806Y007097D01*
X046764Y007123D01*
X046725Y007152D01*
X046688Y007185D01*
X046654Y007220D01*
X046623Y007259D01*
X046595Y007299D01*
X046571Y007342D01*
X046550Y007386D01*
X046532Y007432D01*
X046519Y007479D01*
X046509Y007527D01*
X046503Y007576D01*
X046501Y007625D01*
X046501Y009375D02*
X046503Y009424D01*
X046509Y009473D01*
X046519Y009521D01*
X046532Y009568D01*
X046550Y009614D01*
X046571Y009658D01*
X046595Y009701D01*
X046623Y009741D01*
X046654Y009780D01*
X046688Y009815D01*
X046725Y009848D01*
X046764Y009877D01*
X046806Y009903D01*
X046849Y009926D01*
X046895Y009945D01*
X046941Y009961D01*
X046989Y009973D01*
X047037Y009981D01*
X047086Y009985D01*
X047136Y009985D01*
X047185Y009981D01*
X047233Y009973D01*
X047281Y009961D01*
X047327Y009945D01*
X047373Y009926D01*
X047416Y009903D01*
X047458Y009877D01*
X047497Y009848D01*
X047534Y009815D01*
X047568Y009780D01*
X047599Y009741D01*
X047627Y009701D01*
X047651Y009658D01*
X047672Y009614D01*
X047690Y009568D01*
X047703Y009521D01*
X047713Y009473D01*
X047719Y009424D01*
X047721Y009375D01*
X047719Y009326D01*
X047713Y009277D01*
X047703Y009229D01*
X047690Y009182D01*
X047672Y009136D01*
X047651Y009092D01*
X047627Y009049D01*
X047599Y009009D01*
X047568Y008970D01*
X047534Y008935D01*
X047497Y008902D01*
X047458Y008873D01*
X047416Y008847D01*
X047373Y008824D01*
X047327Y008805D01*
X047281Y008789D01*
X047233Y008777D01*
X047185Y008769D01*
X047136Y008765D01*
X047086Y008765D01*
X047037Y008769D01*
X046989Y008777D01*
X046941Y008789D01*
X046895Y008805D01*
X046849Y008824D01*
X046806Y008847D01*
X046764Y008873D01*
X046725Y008902D01*
X046688Y008935D01*
X046654Y008970D01*
X046623Y009009D01*
X046595Y009049D01*
X046571Y009092D01*
X046550Y009136D01*
X046532Y009182D01*
X046519Y009229D01*
X046509Y009277D01*
X046503Y009326D01*
X046501Y009375D01*
D12*
X021003Y007233D02*
X020931Y007233D01*
X020787Y007233D02*
X020498Y007233D01*
X020498Y007161D02*
X020498Y007305D01*
X020571Y007451D02*
X020498Y007523D01*
X020498Y007740D01*
X020787Y007740D02*
X020787Y007523D01*
X020715Y007451D01*
X020571Y007451D01*
X020787Y007233D02*
X020787Y007161D01*
X020787Y007015D02*
X020787Y006798D01*
X020715Y006726D01*
X020643Y006798D01*
X020643Y006943D01*
X020571Y007015D01*
X020498Y006943D01*
X020498Y006726D01*
X020498Y006580D02*
X020787Y006580D01*
X020498Y006580D02*
X020498Y006363D01*
X020571Y006291D01*
X020787Y006291D01*
X020931Y006145D02*
X020498Y006145D01*
X020223Y006072D02*
X020150Y006145D01*
X020006Y006145D01*
X019934Y006072D01*
X019934Y005856D01*
X019790Y005856D02*
X020223Y005856D01*
X020223Y006072D01*
X020787Y006000D02*
X020931Y006145D01*
X020223Y006363D02*
X020150Y006291D01*
X019862Y006291D01*
X019790Y006363D01*
X019790Y006507D01*
X019862Y006580D01*
X019790Y006726D02*
X019790Y006943D01*
X019862Y007015D01*
X019934Y007015D01*
X020006Y006943D01*
X020006Y006726D01*
X020150Y006580D02*
X020223Y006507D01*
X020223Y006363D01*
X019514Y006580D02*
X019081Y006580D01*
X019081Y006363D01*
X019153Y006291D01*
X019298Y006291D01*
X019370Y006363D01*
X019370Y006580D01*
X019790Y006726D02*
X020223Y006726D01*
X020223Y006943D01*
X020150Y007015D01*
X020078Y007015D01*
X020006Y006943D01*
X019370Y007161D02*
X019370Y007233D01*
X019081Y007233D01*
X019081Y007161D02*
X019081Y007305D01*
X019081Y007451D02*
X019370Y007451D01*
X019370Y007668D01*
X019298Y007740D01*
X019081Y007740D01*
X019790Y007596D02*
X020078Y007596D01*
X019934Y007596D02*
X020078Y007740D01*
X020078Y007813D01*
X020006Y007959D02*
X019862Y007959D01*
X019790Y008031D01*
X019790Y008175D01*
X019934Y008247D02*
X019934Y007959D01*
X020006Y007959D02*
X020078Y008031D01*
X020078Y008175D01*
X020006Y008247D01*
X019934Y008247D01*
X020078Y008394D02*
X019790Y008538D01*
X020078Y008682D01*
X018661Y008610D02*
X018661Y008466D01*
X018589Y008394D01*
X018445Y008394D01*
X018372Y008466D01*
X018372Y008610D01*
X018445Y008682D01*
X018589Y008682D01*
X018661Y008610D01*
X018097Y008756D02*
X018097Y008828D01*
X017664Y008828D01*
X017664Y008756D02*
X017664Y008900D01*
X017664Y009046D02*
X017664Y009190D01*
X017664Y009118D02*
X018097Y009118D01*
X018097Y009046D01*
X018372Y009117D02*
X018589Y009117D01*
X018661Y009045D01*
X018661Y008829D01*
X018372Y008829D01*
X017388Y008755D02*
X017172Y008539D01*
X017172Y008827D01*
X017388Y008755D02*
X016955Y008755D01*
X017808Y008610D02*
X017808Y008321D01*
X017736Y008321D02*
X017880Y008321D01*
X017952Y008393D01*
X017952Y008538D01*
X017880Y008610D01*
X017808Y008610D01*
X017664Y008538D02*
X017664Y008393D01*
X017736Y008321D01*
X017736Y008175D02*
X017952Y008175D01*
X017736Y008175D02*
X017664Y008103D01*
X017736Y008030D01*
X017664Y007958D01*
X017736Y007886D01*
X017952Y007886D01*
X018372Y007959D02*
X018372Y008247D01*
X017388Y008248D02*
X016955Y008248D01*
X016955Y008104D02*
X016955Y008392D01*
X017244Y008104D02*
X017388Y008248D01*
X017316Y007957D02*
X017027Y007957D01*
X016955Y007885D01*
X016955Y007741D01*
X017027Y007669D01*
X017316Y007957D01*
X017388Y007885D01*
X017388Y007741D01*
X017316Y007669D01*
X017027Y007669D01*
X016955Y007522D02*
X016955Y007234D01*
X017244Y007522D01*
X017316Y007522D01*
X017388Y007450D01*
X017388Y007306D01*
X017316Y007234D01*
X017664Y007306D02*
X017664Y007450D01*
X017664Y007378D02*
X017952Y007378D01*
X017952Y007306D01*
X018097Y007378D02*
X018169Y007378D01*
X018228Y007234D02*
X018372Y007378D01*
X018372Y007306D01*
X018445Y007306D01*
X018445Y007378D01*
X018372Y007378D01*
X017952Y007596D02*
X017952Y007740D01*
X018024Y007668D02*
X017736Y007668D01*
X017664Y007740D01*
X018372Y007959D02*
X018805Y007959D01*
X019514Y007233D02*
X019586Y007233D01*
X018805Y007016D02*
X018372Y007016D01*
X018372Y006944D02*
X018372Y007088D01*
X017952Y007088D02*
X017880Y007160D01*
X017664Y007160D01*
X017952Y007088D02*
X017952Y006943D01*
X017880Y006871D01*
X017664Y006871D02*
X018097Y006871D01*
X018097Y006725D02*
X017664Y006725D01*
X017808Y006580D01*
X017664Y006436D01*
X018097Y006436D01*
X018372Y006436D02*
X018661Y006436D01*
X018661Y006364D01*
X018805Y006436D02*
X018877Y006436D01*
X018805Y006654D02*
X018805Y006726D01*
X018372Y006726D01*
X018372Y006654D02*
X018372Y006798D01*
X018372Y006508D02*
X018372Y006364D01*
X018372Y006217D02*
X018805Y006217D01*
X018589Y006217D02*
X018589Y005929D01*
X018805Y005929D02*
X018372Y005929D01*
X017952Y005782D02*
X017880Y005855D01*
X017664Y005855D01*
X017664Y005710D02*
X017880Y005710D01*
X017952Y005782D01*
X017880Y005710D02*
X017952Y005638D01*
X017952Y005566D01*
X017664Y005566D01*
X017736Y005420D02*
X017880Y005420D01*
X017952Y005347D01*
X017952Y005203D01*
X017880Y005131D01*
X017736Y005131D01*
X017664Y005203D01*
X017664Y005347D01*
X017736Y005420D01*
X017388Y005566D02*
X016955Y005566D01*
X016955Y005782D01*
X017027Y005855D01*
X017172Y005855D01*
X017244Y005782D01*
X017244Y005566D01*
X017172Y005420D02*
X016955Y005420D01*
X016955Y005275D02*
X017172Y005275D01*
X017244Y005347D01*
X017172Y005420D01*
X017172Y005275D02*
X017244Y005203D01*
X017244Y005131D01*
X016955Y005131D01*
X017099Y004985D02*
X017099Y004696D01*
X017027Y004696D02*
X017172Y004696D01*
X017244Y004768D01*
X017244Y004912D01*
X017172Y004985D01*
X017099Y004985D01*
X016955Y004912D02*
X016955Y004768D01*
X017027Y004696D01*
X016955Y004550D02*
X016955Y004333D01*
X017027Y004261D01*
X017172Y004261D01*
X017244Y004333D01*
X017244Y004550D01*
X016679Y004696D02*
X016679Y004912D01*
X016607Y004985D01*
X016535Y004985D01*
X016463Y004912D01*
X016463Y004696D01*
X016463Y004550D02*
X016463Y004261D01*
X016607Y004115D02*
X016679Y004042D01*
X016679Y003898D01*
X016607Y003826D01*
X016319Y003826D01*
X016246Y003898D01*
X016246Y004042D01*
X016319Y004115D01*
X015826Y004115D02*
X015538Y004115D01*
X015538Y003898D01*
X015610Y003826D01*
X015826Y003826D01*
X015754Y003680D02*
X015538Y003680D01*
X015538Y003535D02*
X015754Y003535D01*
X015826Y003607D01*
X015754Y003680D01*
X015754Y003535D02*
X015826Y003463D01*
X015826Y003391D01*
X015538Y003391D01*
X016246Y003463D02*
X016246Y003607D01*
X016319Y003680D01*
X016607Y003680D02*
X016679Y003607D01*
X016679Y003463D01*
X016607Y003391D01*
X016319Y003391D01*
X016246Y003463D01*
X016955Y003391D02*
X016955Y003607D01*
X017027Y003680D01*
X017316Y003680D01*
X017388Y003607D01*
X017388Y003391D01*
X016955Y003391D01*
X017664Y003391D02*
X017664Y003607D01*
X017736Y003680D01*
X017880Y003680D01*
X017952Y003607D01*
X017952Y003391D01*
X018097Y003391D02*
X017664Y003391D01*
X018372Y003391D02*
X018805Y003391D01*
X018589Y003391D02*
X018589Y003680D01*
X018589Y003826D02*
X018661Y003898D01*
X018661Y004042D01*
X018589Y004115D01*
X018517Y004115D01*
X018517Y003826D01*
X018445Y003826D02*
X018589Y003826D01*
X018445Y003826D02*
X018372Y003898D01*
X018372Y004042D01*
X018372Y004261D02*
X018661Y004261D01*
X018517Y004261D02*
X018661Y004405D01*
X018661Y004477D01*
X018661Y004624D02*
X018372Y004624D01*
X018097Y004696D02*
X018097Y004985D01*
X018097Y004840D02*
X017664Y004840D01*
X018372Y004912D02*
X018589Y004912D01*
X018661Y004840D01*
X018661Y004624D01*
X019081Y004696D02*
X019081Y004840D01*
X019081Y004768D02*
X019370Y004768D01*
X019370Y004696D01*
X019370Y004550D02*
X019370Y004333D01*
X019298Y004261D01*
X019225Y004333D01*
X019225Y004477D01*
X019153Y004550D01*
X019081Y004477D01*
X019081Y004261D01*
X019225Y004115D02*
X019225Y003826D01*
X019153Y003826D02*
X019298Y003826D01*
X019370Y003898D01*
X019370Y004042D01*
X019298Y004115D01*
X019225Y004115D01*
X019081Y004042D02*
X019081Y003898D01*
X019153Y003826D01*
X019153Y003680D02*
X019442Y003680D01*
X019514Y003607D01*
X019514Y003391D01*
X019081Y003391D01*
X019081Y003607D01*
X019153Y003680D01*
X018805Y003680D02*
X018372Y003680D01*
X017952Y003826D02*
X017736Y003826D01*
X017664Y003898D01*
X017664Y004115D01*
X017592Y004115D02*
X017520Y004042D01*
X017520Y003970D01*
X017592Y004115D02*
X017952Y004115D01*
X017244Y004042D02*
X017244Y003898D01*
X017172Y003826D01*
X017027Y003826D01*
X016955Y003898D01*
X016955Y004042D01*
X017099Y004115D02*
X017099Y003826D01*
X017244Y004042D02*
X017172Y004115D01*
X017099Y004115D01*
X015826Y004333D02*
X015826Y004550D01*
X015826Y004696D02*
X015826Y004768D01*
X015538Y004768D01*
X015538Y004696D02*
X015538Y004840D01*
X015610Y004986D02*
X015538Y005058D01*
X015538Y005275D01*
X015826Y005275D02*
X015826Y005058D01*
X015754Y004986D01*
X015610Y004986D01*
X015971Y004768D02*
X016043Y004768D01*
X016246Y004696D02*
X016246Y004912D01*
X016319Y004985D01*
X016391Y004985D01*
X016463Y004912D01*
X016679Y004696D02*
X016246Y004696D01*
X015682Y004477D02*
X015682Y004333D01*
X015754Y004261D01*
X015826Y004333D01*
X015682Y004477D02*
X015610Y004550D01*
X015538Y004477D01*
X015538Y004261D01*
X018372Y005131D02*
X018445Y005059D01*
X018589Y005059D01*
X018661Y005131D01*
X018661Y005275D01*
X018589Y005347D01*
X018517Y005347D01*
X018517Y005059D01*
X018372Y005131D02*
X018372Y005275D01*
X018937Y005202D02*
X019009Y005275D01*
X019370Y005275D01*
X019370Y005058D01*
X019298Y004986D01*
X019153Y004986D01*
X019081Y005058D01*
X019081Y005275D01*
X019081Y005421D02*
X019370Y005421D01*
X019370Y005637D01*
X019298Y005710D01*
X019081Y005710D01*
X019153Y005856D02*
X019298Y005856D01*
X019370Y005928D01*
X019370Y006072D01*
X019298Y006145D01*
X019225Y006145D01*
X019225Y005856D01*
X019153Y005856D02*
X019081Y005928D01*
X019081Y006072D01*
X020498Y005856D02*
X020931Y005856D01*
X020787Y006000D01*
X020715Y005275D02*
X020787Y005202D01*
X020787Y005058D01*
X020715Y004986D01*
X020571Y004986D01*
X020498Y005058D01*
X020498Y005202D01*
X020571Y005275D01*
X020715Y005275D01*
X020223Y005203D02*
X019790Y005203D01*
X019790Y005131D02*
X019790Y005275D01*
X020223Y005203D02*
X020223Y005131D01*
X020006Y004985D02*
X019934Y004985D01*
X019934Y004696D01*
X019862Y004696D02*
X020006Y004696D01*
X020078Y004768D01*
X020078Y004912D01*
X020006Y004985D01*
X019790Y004912D02*
X019790Y004768D01*
X019862Y004696D01*
X019790Y004550D02*
X020006Y004550D01*
X020078Y004477D01*
X020078Y004261D01*
X019790Y004261D01*
X019790Y004115D02*
X019790Y003898D01*
X019862Y003826D01*
X019934Y003898D01*
X019934Y004115D01*
X020006Y004115D02*
X019790Y004115D01*
X020006Y004115D02*
X020078Y004042D01*
X020078Y003898D01*
X020498Y003898D02*
X020571Y003826D01*
X020643Y003898D01*
X020643Y004115D01*
X020715Y004115D02*
X020498Y004115D01*
X020498Y003898D01*
X020787Y003898D02*
X020787Y004042D01*
X020715Y004115D01*
X020715Y004261D02*
X020787Y004333D01*
X020787Y004550D01*
X020931Y004550D02*
X020498Y004550D01*
X020498Y004333D01*
X020571Y004261D01*
X020715Y004261D01*
X020787Y004696D02*
X020787Y004768D01*
X020498Y004768D01*
X020498Y004696D02*
X020498Y004840D01*
X020931Y004768D02*
X021003Y004768D01*
X019586Y004768D02*
X019514Y004768D01*
X018937Y005130D02*
X018937Y005202D01*
X016679Y005131D02*
X016607Y005131D01*
X016463Y005275D01*
X016246Y005275D01*
X016463Y005275D02*
X016607Y005420D01*
X016679Y005420D01*
X016463Y005566D02*
X016463Y005855D01*
X016535Y006001D02*
X016463Y006073D01*
X016463Y006217D01*
X016391Y006290D01*
X016319Y006290D01*
X016246Y006217D01*
X016246Y006073D01*
X016319Y006001D01*
X016535Y006001D02*
X016607Y006001D01*
X016679Y006073D01*
X016679Y006217D01*
X016607Y006290D01*
X016535Y006436D02*
X016679Y006580D01*
X016535Y006725D01*
X016246Y006725D01*
X016463Y006725D02*
X016463Y006436D01*
X016535Y006436D02*
X016246Y006436D01*
X015826Y006436D02*
X015826Y006652D01*
X015754Y006725D01*
X015538Y006725D01*
X015610Y006871D02*
X015538Y006943D01*
X015538Y007160D01*
X015466Y007160D02*
X015826Y007160D01*
X015826Y006943D01*
X015754Y006871D01*
X015610Y006871D01*
X015394Y007015D02*
X015394Y007088D01*
X015466Y007160D01*
X015538Y007306D02*
X015538Y007378D01*
X015610Y007378D01*
X015610Y007306D01*
X015538Y007306D01*
X015610Y007524D02*
X015538Y007596D01*
X015538Y007812D01*
X015610Y007959D02*
X015538Y008031D01*
X015538Y008175D01*
X015610Y008247D01*
X015754Y008247D01*
X015826Y008175D01*
X015826Y008031D01*
X015754Y007959D01*
X015610Y007959D01*
X015826Y007812D02*
X015826Y007596D01*
X015754Y007524D01*
X015610Y007524D01*
X015610Y008394D02*
X015610Y008466D01*
X015538Y008466D01*
X015538Y008394D01*
X015610Y008394D01*
X015610Y008611D02*
X015538Y008683D01*
X015538Y008900D01*
X015826Y008900D01*
X015682Y009046D02*
X015826Y009263D01*
X015682Y009046D02*
X015538Y009263D01*
X015538Y009046D02*
X015971Y009046D01*
X015826Y008611D02*
X015610Y008611D01*
X018372Y009336D02*
X018445Y009264D01*
X018589Y009264D01*
X018661Y009336D01*
X018661Y009552D01*
X018805Y009552D02*
X018372Y009552D01*
X018372Y009336D01*
X018445Y009699D02*
X018372Y009771D01*
X018372Y009915D01*
X018445Y009987D01*
X018589Y009987D01*
X018661Y009915D01*
X018661Y009771D01*
X018589Y009699D01*
X018445Y009699D01*
X019790Y009552D02*
X019790Y009264D01*
X020078Y009552D01*
X020150Y009552D01*
X020223Y009480D01*
X020223Y009336D01*
X020150Y009264D01*
X018661Y010134D02*
X018372Y010134D01*
X018661Y010134D02*
X018661Y010350D01*
X018589Y010422D01*
X018372Y010422D01*
X018805Y007016D02*
X018805Y006944D01*
X017244Y006652D02*
X017244Y006580D01*
X017099Y006436D01*
X016955Y006436D02*
X017244Y006436D01*
X017172Y006290D02*
X017099Y006290D01*
X017099Y006001D01*
X017027Y006001D02*
X017172Y006001D01*
X017244Y006073D01*
X017244Y006217D01*
X017172Y006290D01*
X016955Y006217D02*
X016955Y006073D01*
X017027Y006001D01*
X016043Y006218D02*
X015971Y006218D01*
X015826Y006218D02*
X015538Y006218D01*
X015538Y006146D02*
X015538Y006290D01*
X015538Y006436D02*
X015826Y006436D01*
X015826Y006218D02*
X015826Y006146D01*
X015754Y006000D02*
X015538Y006000D01*
X015754Y006000D02*
X015826Y005927D01*
X015826Y005783D01*
X015754Y005711D01*
X015826Y005565D02*
X015826Y005421D01*
X015898Y005493D02*
X015610Y005493D01*
X015538Y005565D01*
X015538Y005711D02*
X015971Y005711D01*
X019934Y003607D02*
X019934Y003391D01*
X019790Y003391D02*
X020223Y003391D01*
X020223Y003607D01*
X020150Y003680D01*
X020006Y003680D01*
X019934Y003607D01*
X020498Y003680D02*
X020643Y003535D01*
X020643Y003607D02*
X020643Y003391D01*
X020498Y003391D02*
X020931Y003391D01*
X020931Y003607D01*
X020859Y003680D01*
X020715Y003680D01*
X020643Y003607D01*
D13*
X020416Y008290D02*
X020416Y009393D01*
X025732Y009392D01*
X025732Y008290D01*
X020416Y008290D01*
D14*
X035314Y008159D03*
X035314Y009960D03*
X037358Y009960D03*
X038764Y004944D03*
X038764Y003143D03*
D15*
X037647Y003143D03*
D16*
X038768Y003151D03*
X032521Y004770D03*
X035318Y008167D03*
X035318Y009953D03*
D17*
X032468Y004861D03*
X037651Y003151D03*
D18*
X038764Y003158D03*
X040261Y004382D03*
X040239Y004519D03*
X040231Y004542D03*
X040208Y004648D03*
X040201Y004678D03*
X040201Y004709D03*
X040185Y004762D03*
X040178Y004815D03*
X040155Y004899D03*
X040155Y004922D03*
X040854Y004785D03*
X040778Y004405D03*
X040778Y004382D03*
X040771Y004352D03*
X040771Y009375D03*
X040778Y009398D03*
X040778Y009428D03*
X040261Y009398D03*
X040239Y009512D03*
X040239Y009535D03*
X040231Y009565D03*
X040208Y009672D03*
X040201Y009702D03*
X040201Y009725D03*
X040185Y009778D03*
X040178Y009808D03*
X040155Y009915D03*
X040862Y009839D03*
X040885Y009945D03*
D19*
X037647Y003158D03*
D20*
X036328Y003158D03*
D21*
X034250Y003158D03*
D22*
X034242Y003204D03*
X038764Y003166D03*
X039722Y004808D03*
X039722Y004823D03*
X039722Y004830D03*
X039722Y004846D03*
X039722Y004853D03*
X039722Y004861D03*
X039722Y004876D03*
X039722Y004884D03*
X039722Y004891D03*
X039722Y004906D03*
X039722Y004914D03*
X039722Y004929D03*
X041318Y004929D03*
X041318Y004914D03*
X041318Y004906D03*
X041318Y004891D03*
X041318Y004884D03*
X041318Y004876D03*
X041318Y004861D03*
X041318Y004853D03*
X041318Y004846D03*
X041318Y004830D03*
X041318Y004823D03*
X041318Y004808D03*
X037647Y004876D03*
X037001Y008539D03*
X037731Y008577D03*
X036986Y008729D03*
X034941Y009413D03*
X035314Y009938D03*
X037700Y009611D03*
X039722Y009824D03*
X039722Y009831D03*
X039722Y009846D03*
X039722Y009854D03*
X039722Y009869D03*
X039722Y009877D03*
X039722Y009884D03*
X039722Y009900D03*
X039722Y009907D03*
X039722Y009922D03*
X039722Y009930D03*
X039722Y009938D03*
X041318Y009938D03*
X041318Y009930D03*
X041318Y009922D03*
X041318Y009907D03*
X041318Y009900D03*
X041318Y009884D03*
X041318Y009877D03*
X041318Y009869D03*
X041318Y009854D03*
X041318Y009846D03*
X041318Y009831D03*
X041318Y009824D03*
D23*
X037366Y008167D03*
X038764Y004937D03*
X032517Y004777D03*
X037647Y003166D03*
D24*
X036328Y003166D03*
X039323Y007430D03*
D25*
X032479Y004846D03*
X034250Y003166D03*
D26*
X034238Y003219D03*
X034436Y003576D03*
X033608Y003683D03*
X033608Y003690D03*
X033608Y003706D03*
X033608Y003713D03*
X033608Y003721D03*
X035720Y003652D03*
X037651Y003219D03*
X037810Y003599D03*
X037810Y003607D03*
X037818Y003614D03*
X038441Y003516D03*
X039087Y003516D03*
X038768Y003174D03*
X033608Y004390D03*
X032939Y004291D03*
X032939Y004283D03*
X034368Y004557D03*
X034375Y004549D03*
X035675Y005454D03*
X035629Y006221D03*
X035629Y006966D03*
X035629Y006974D03*
X036359Y007004D03*
X039201Y007027D03*
X039931Y006951D03*
X038966Y008250D03*
X039102Y008592D03*
X037681Y008501D03*
X035318Y008190D03*
X034991Y008524D03*
X034998Y009596D03*
X035318Y009930D03*
D27*
X037651Y003174D03*
D28*
X036325Y003174D03*
X032502Y004808D03*
X038977Y008190D03*
D29*
X037354Y009953D03*
X034246Y003174D03*
D30*
X034238Y003234D03*
X038768Y003181D03*
X035652Y006160D03*
X035652Y007027D03*
X039908Y007027D03*
X035318Y008197D03*
D31*
X040311Y009109D03*
X040311Y009117D03*
X040311Y009124D03*
X040311Y009140D03*
X040303Y009162D03*
X040303Y009170D03*
X040326Y009056D03*
X040326Y009041D03*
X040326Y009033D03*
X040714Y009033D03*
X040714Y009041D03*
X040714Y009056D03*
X040729Y009117D03*
X040729Y009124D03*
X040729Y009140D03*
X040736Y009170D03*
X040736Y004154D03*
X040729Y004124D03*
X040729Y004116D03*
X040729Y004101D03*
X040714Y004040D03*
X040714Y004032D03*
X040714Y004017D03*
X040326Y004017D03*
X040326Y004032D03*
X040326Y004040D03*
X040311Y004093D03*
X040311Y004101D03*
X040311Y004116D03*
X040311Y004124D03*
X040303Y004146D03*
X040303Y004154D03*
X037651Y003181D03*
D32*
X036325Y003181D03*
X032525Y004754D03*
D33*
X032536Y004724D03*
X034246Y003181D03*
D34*
X034394Y003865D03*
X037822Y003645D03*
X039745Y003318D03*
X039745Y003295D03*
X039745Y003265D03*
X039745Y003242D03*
X039745Y003212D03*
X039745Y003189D03*
X041295Y003189D03*
X041295Y003212D03*
X041295Y003242D03*
X041295Y003265D03*
X041295Y003295D03*
X041295Y003318D03*
X036378Y006229D03*
X035625Y006252D03*
X035625Y006928D03*
X039197Y007012D03*
X039935Y006928D03*
X039745Y008205D03*
X039745Y008235D03*
X039745Y008258D03*
X039745Y008288D03*
X039745Y008319D03*
X039745Y008342D03*
X041295Y008342D03*
X041295Y008319D03*
X041295Y008288D03*
X041295Y008258D03*
X041295Y008235D03*
X041295Y008205D03*
D35*
X040520Y008205D03*
X040520Y003189D03*
D36*
X038764Y003189D03*
X040520Y003622D03*
X040520Y003645D03*
X038764Y004899D03*
X037647Y004815D03*
X033649Y003538D03*
X035671Y007042D03*
X035314Y008205D03*
X037366Y008205D03*
X038962Y008288D03*
X040520Y008638D03*
X035314Y009915D03*
D37*
X040797Y009535D03*
X040797Y009512D03*
X040805Y009565D03*
X040812Y009588D03*
X040828Y009672D03*
X040835Y009702D03*
X040835Y009725D03*
X040843Y009755D03*
X040850Y009778D03*
X040858Y009808D03*
X040866Y009862D03*
X040881Y009915D03*
X040881Y004922D03*
X040881Y004899D03*
X040866Y004838D03*
X040858Y004815D03*
X040850Y004762D03*
X040843Y004732D03*
X040835Y004709D03*
X040835Y004678D03*
X040828Y004648D03*
X040812Y004595D03*
X040812Y004572D03*
X040805Y004542D03*
X040797Y004519D03*
X040782Y004435D03*
X037651Y003189D03*
D38*
X037039Y003189D03*
X037039Y003212D03*
X037039Y003242D03*
X037039Y003265D03*
X037039Y003295D03*
X037039Y003318D03*
X037039Y003348D03*
X040520Y003265D03*
X040520Y003242D03*
X032973Y004678D03*
X032973Y004709D03*
X032973Y004732D03*
X032973Y004762D03*
X032973Y004785D03*
X032973Y004815D03*
X032973Y004838D03*
X032973Y004868D03*
X032973Y004899D03*
X040520Y008258D03*
X040520Y008288D03*
X037746Y008638D03*
X036993Y008562D03*
X037731Y009512D03*
X037723Y009565D03*
D39*
X032544Y004709D03*
X036321Y003189D03*
D40*
X035690Y003189D03*
X035690Y003212D03*
X035690Y003242D03*
X035690Y003265D03*
X035690Y003295D03*
X035690Y003318D03*
X035690Y003348D03*
X035690Y003379D03*
X037780Y007232D03*
X037780Y007255D03*
X037780Y007285D03*
X037780Y007308D03*
X037780Y007338D03*
X037780Y007369D03*
X037780Y007392D03*
X037370Y008182D03*
X038342Y008205D03*
X038342Y008235D03*
X038342Y008258D03*
X038342Y008288D03*
X038342Y008319D03*
X038342Y008342D03*
X038342Y008372D03*
X038342Y008395D03*
X037727Y009482D03*
X037020Y009618D03*
D41*
X035690Y009428D03*
X035667Y009535D03*
X034976Y009565D03*
X035690Y008722D03*
X035690Y008699D03*
X035667Y008585D03*
X034960Y008585D03*
X034953Y008615D03*
X036997Y008752D03*
X039733Y008942D03*
X039733Y008965D03*
X039733Y008995D03*
X039733Y009018D03*
X039733Y009048D03*
X039733Y009079D03*
X039733Y009102D03*
X039733Y009132D03*
X039733Y009155D03*
X039733Y009185D03*
X039733Y009208D03*
X041306Y009208D03*
X041306Y009185D03*
X041306Y009155D03*
X041306Y009132D03*
X041306Y009102D03*
X041306Y009079D03*
X041306Y009048D03*
X041306Y009018D03*
X041306Y008995D03*
X041306Y008965D03*
X041306Y008942D03*
X039946Y007962D03*
X039946Y007939D03*
X039946Y007908D03*
X039946Y007878D03*
X039946Y007855D03*
X039946Y007825D03*
X039946Y007802D03*
X039946Y007772D03*
X039946Y007749D03*
X039946Y007718D03*
X039946Y007688D03*
X039946Y007665D03*
X039946Y007635D03*
X039946Y007612D03*
X039946Y007582D03*
X039946Y007559D03*
X039946Y007528D03*
X039946Y007498D03*
X039946Y007475D03*
X039946Y007445D03*
X039946Y007422D03*
X039946Y007392D03*
X039946Y007369D03*
X039946Y007338D03*
X039946Y007308D03*
X039946Y007285D03*
X039946Y007255D03*
X038487Y007255D03*
X038487Y007232D03*
X038487Y007202D03*
X038487Y007179D03*
X038487Y007148D03*
X038487Y007118D03*
X038487Y007095D03*
X038487Y007065D03*
X038487Y007042D03*
X038487Y007012D03*
X038487Y006989D03*
X038487Y006958D03*
X038487Y006928D03*
X038487Y006905D03*
X038487Y006875D03*
X038487Y006852D03*
X038487Y006822D03*
X038487Y006799D03*
X038487Y006768D03*
X038487Y006738D03*
X038487Y006715D03*
X038487Y006685D03*
X038487Y006662D03*
X038487Y006632D03*
X038487Y006609D03*
X038487Y006578D03*
X038487Y006548D03*
X038487Y006525D03*
X038487Y006495D03*
X038487Y006472D03*
X038487Y006442D03*
X038487Y006419D03*
X038487Y006388D03*
X038487Y006358D03*
X038487Y006335D03*
X038487Y006305D03*
X038487Y006282D03*
X038487Y006252D03*
X038487Y006229D03*
X038487Y006198D03*
X038487Y006168D03*
X038487Y006145D03*
X038487Y006115D03*
X038487Y006092D03*
X038487Y006062D03*
X038487Y006039D03*
X038487Y006008D03*
X038487Y005978D03*
X038487Y005955D03*
X038487Y005925D03*
X038487Y005902D03*
X038487Y005872D03*
X038487Y005849D03*
X038487Y005818D03*
X038487Y005788D03*
X038487Y005765D03*
X038487Y005735D03*
X038487Y005712D03*
X039946Y005712D03*
X039946Y005735D03*
X039946Y005765D03*
X039946Y005788D03*
X039946Y005818D03*
X039946Y005849D03*
X039946Y005872D03*
X039946Y005902D03*
X039946Y005925D03*
X039946Y005955D03*
X039946Y005978D03*
X039946Y006008D03*
X039946Y006039D03*
X039946Y006062D03*
X039946Y006092D03*
X039946Y006115D03*
X039946Y006145D03*
X039946Y006168D03*
X039946Y006198D03*
X039946Y006229D03*
X039946Y006252D03*
X039946Y006282D03*
X039946Y006305D03*
X039946Y006335D03*
X039946Y006358D03*
X039946Y006388D03*
X039946Y006419D03*
X039946Y006442D03*
X039946Y006472D03*
X039946Y006495D03*
X039946Y006525D03*
X039946Y006548D03*
X039946Y006578D03*
X039946Y006609D03*
X039946Y006632D03*
X039946Y006662D03*
X039946Y006685D03*
X039946Y006715D03*
X039946Y006738D03*
X039946Y006768D03*
X039946Y006799D03*
X039946Y006822D03*
X038487Y007285D03*
X038487Y007308D03*
X038487Y007338D03*
X038487Y007369D03*
X038487Y007392D03*
X038487Y007582D03*
X038487Y007612D03*
X038487Y007635D03*
X038487Y007665D03*
X038487Y007688D03*
X038487Y007718D03*
X038487Y007749D03*
X038487Y007772D03*
X038487Y007802D03*
X038487Y007825D03*
X038487Y007855D03*
X038487Y007878D03*
X038487Y007908D03*
X038487Y007939D03*
X038487Y007962D03*
X038487Y007992D03*
X036207Y007369D03*
X036389Y006875D03*
X036397Y006738D03*
X036397Y006715D03*
X036397Y006685D03*
X036397Y006662D03*
X036397Y006632D03*
X036397Y006609D03*
X036397Y006578D03*
X036397Y006548D03*
X036397Y006525D03*
X036397Y006495D03*
X036397Y006472D03*
X036997Y006472D03*
X036997Y006495D03*
X036997Y006525D03*
X036997Y006548D03*
X036997Y006578D03*
X036997Y006609D03*
X036997Y006632D03*
X036997Y006662D03*
X036997Y006685D03*
X036997Y006715D03*
X036997Y006738D03*
X036997Y006768D03*
X036997Y006799D03*
X036997Y006822D03*
X036997Y006852D03*
X036997Y006875D03*
X036997Y006442D03*
X036997Y006419D03*
X036997Y006388D03*
X036997Y006358D03*
X036997Y006335D03*
X036997Y006305D03*
X036997Y006282D03*
X036997Y006252D03*
X036997Y006229D03*
X036997Y006198D03*
X036997Y006168D03*
X036997Y006145D03*
X036997Y006115D03*
X036997Y006092D03*
X036997Y006062D03*
X036997Y006039D03*
X036997Y006008D03*
X036997Y005978D03*
X036997Y005955D03*
X036997Y005925D03*
X036997Y005902D03*
X036997Y005872D03*
X036997Y005849D03*
X036997Y005818D03*
X036997Y005788D03*
X036997Y005765D03*
X036997Y005735D03*
X036997Y005712D03*
X036397Y005545D03*
X036389Y005522D03*
X035637Y005522D03*
X035614Y005712D03*
X035614Y005735D03*
X035614Y005765D03*
X035614Y005788D03*
X035614Y005818D03*
X035614Y005849D03*
X035614Y005872D03*
X035614Y005902D03*
X035614Y006419D03*
X035614Y006442D03*
X035614Y006472D03*
X035614Y006495D03*
X035614Y006525D03*
X035614Y006548D03*
X035614Y006578D03*
X035614Y006609D03*
X035614Y006632D03*
X035614Y006662D03*
X035614Y006685D03*
X035614Y006715D03*
X035614Y006738D03*
X035614Y006768D03*
X035036Y005469D03*
X035036Y005438D03*
X035036Y005408D03*
X035036Y005385D03*
X035036Y005355D03*
X035036Y005332D03*
X035036Y005302D03*
X035036Y005279D03*
X035036Y005248D03*
X035036Y005218D03*
X035036Y005195D03*
X035036Y005165D03*
X035036Y005142D03*
X035036Y005112D03*
X035036Y005089D03*
X035036Y005058D03*
X035036Y005028D03*
X035036Y005005D03*
X035036Y004975D03*
X035036Y004952D03*
X035036Y004922D03*
X035036Y004899D03*
X035036Y004868D03*
X035036Y004838D03*
X035036Y004815D03*
X035036Y004785D03*
X035036Y004762D03*
X035036Y004732D03*
X035036Y004709D03*
X035036Y004678D03*
X035036Y004648D03*
X035036Y004625D03*
X035036Y004595D03*
X035036Y004572D03*
X035036Y004542D03*
X035036Y004519D03*
X035036Y004488D03*
X035036Y004458D03*
X035036Y004435D03*
X035036Y004405D03*
X035036Y004382D03*
X035036Y004352D03*
X035036Y004329D03*
X035036Y004298D03*
X035036Y004268D03*
X035036Y004245D03*
X035036Y004215D03*
X035036Y004192D03*
X035036Y004162D03*
X035036Y004139D03*
X035036Y004108D03*
X035036Y004078D03*
X035036Y004055D03*
X035036Y004025D03*
X035036Y004002D03*
X035036Y003972D03*
X035036Y003949D03*
X035036Y003918D03*
X035036Y003888D03*
X035036Y003865D03*
X035036Y003835D03*
X035036Y003812D03*
X035036Y003782D03*
X035036Y003759D03*
X035036Y003728D03*
X035036Y003698D03*
X035036Y003675D03*
X035036Y003645D03*
X035036Y003622D03*
X035036Y003592D03*
X035036Y003569D03*
X035036Y003538D03*
X035036Y003508D03*
X035036Y003485D03*
X035036Y003455D03*
X035036Y003432D03*
X035036Y003402D03*
X035036Y003379D03*
X035036Y003348D03*
X035036Y003318D03*
X035036Y003295D03*
X035036Y003265D03*
X035036Y003242D03*
X035036Y003212D03*
X035036Y003189D03*
X036473Y003728D03*
X036473Y003759D03*
X036473Y003782D03*
X036473Y003812D03*
X036473Y003835D03*
X036473Y003865D03*
X036473Y003888D03*
X036473Y003918D03*
X036473Y003949D03*
X036473Y003972D03*
X036473Y004002D03*
X036473Y004025D03*
X036473Y004055D03*
X036473Y004078D03*
X036473Y004108D03*
X036473Y004139D03*
X036473Y004162D03*
X036473Y004192D03*
X036473Y004215D03*
X036473Y004245D03*
X036473Y004268D03*
X036473Y004298D03*
X036473Y004329D03*
X036473Y004352D03*
X036473Y004382D03*
X036473Y004405D03*
X036473Y004435D03*
X036473Y004458D03*
X036473Y004488D03*
X036473Y004519D03*
X036473Y004542D03*
X036473Y004572D03*
X036473Y004595D03*
X036473Y004625D03*
X036473Y004648D03*
X036473Y004678D03*
X036473Y004709D03*
X036473Y004732D03*
X036473Y004762D03*
X036473Y004785D03*
X036473Y004815D03*
X036473Y004838D03*
X036473Y004868D03*
X036473Y004899D03*
X037651Y004868D03*
X038411Y004519D03*
X038403Y004488D03*
X038396Y004458D03*
X038380Y004352D03*
X038380Y004329D03*
X038373Y004245D03*
X038373Y004215D03*
X037833Y004215D03*
X038373Y003888D03*
X038373Y003865D03*
X038373Y003835D03*
X038380Y003782D03*
X038380Y003759D03*
X038380Y003728D03*
X038403Y003592D03*
X038411Y003569D03*
X039140Y003675D03*
X039140Y003698D03*
X039156Y003835D03*
X039156Y003865D03*
X039733Y003949D03*
X039733Y003972D03*
X039733Y004002D03*
X039733Y004025D03*
X039733Y004055D03*
X039733Y004078D03*
X039733Y004108D03*
X039733Y004139D03*
X039733Y004162D03*
X039733Y004192D03*
X039156Y004215D03*
X039156Y004245D03*
X039140Y004382D03*
X039140Y004405D03*
X039133Y004458D03*
X041306Y004192D03*
X041306Y004162D03*
X041306Y004139D03*
X041306Y004108D03*
X041306Y004078D03*
X041306Y004055D03*
X041306Y004025D03*
X041306Y004002D03*
X041306Y003972D03*
X041306Y003949D03*
X037651Y003212D03*
X034436Y003782D03*
X032954Y003782D03*
X032954Y003759D03*
X032954Y003728D03*
X032954Y003698D03*
X032954Y003675D03*
X032954Y003645D03*
X032954Y003622D03*
X032954Y003592D03*
X032954Y003569D03*
X032954Y003538D03*
X032954Y003508D03*
X032954Y003485D03*
X032954Y003455D03*
X032954Y003432D03*
X032954Y003402D03*
X032954Y003379D03*
X032954Y003348D03*
X032954Y003318D03*
X032954Y003295D03*
X032954Y003265D03*
X032954Y003242D03*
X032954Y003212D03*
X032954Y003189D03*
X032954Y003812D03*
X032954Y003835D03*
X032954Y003865D03*
X032954Y003888D03*
X032954Y003918D03*
X032954Y003949D03*
X032954Y003972D03*
X032954Y004002D03*
X032954Y004025D03*
X032954Y004055D03*
X032954Y004078D03*
X032954Y004108D03*
X034406Y004382D03*
X034406Y004405D03*
X034406Y004435D03*
D42*
X034246Y003189D03*
X040258Y004405D03*
X040273Y004329D03*
X040759Y004298D03*
X040767Y004329D03*
X040759Y009292D03*
X040759Y009322D03*
X040767Y009345D03*
X040280Y009292D03*
X040273Y009345D03*
X040258Y009428D03*
X040174Y009839D03*
D43*
X037700Y009398D03*
X035641Y008532D03*
X034987Y008532D03*
X037153Y007369D03*
X037016Y007012D03*
X036370Y006989D03*
X037753Y006928D03*
X036370Y005469D03*
X034379Y004542D03*
X033604Y004405D03*
X032943Y004268D03*
X033604Y004002D03*
X033604Y003972D03*
X033604Y003949D03*
X033604Y003918D03*
X033604Y003888D03*
X033604Y003865D03*
X033604Y003835D03*
X033604Y003812D03*
X033604Y003782D03*
X033604Y003759D03*
X034440Y003592D03*
X033543Y003189D03*
X035717Y003675D03*
X037069Y003645D03*
X037807Y004458D03*
X040520Y003402D03*
X040520Y008425D03*
D44*
X039745Y008334D03*
X039745Y008326D03*
X039745Y008311D03*
X039745Y008304D03*
X039745Y008296D03*
X039745Y008281D03*
X039745Y008273D03*
X039745Y008266D03*
X039745Y008250D03*
X039745Y008243D03*
X039745Y008228D03*
X039745Y008220D03*
X039745Y008212D03*
X041295Y008212D03*
X041295Y008220D03*
X041295Y008228D03*
X041295Y008243D03*
X041295Y008250D03*
X041295Y008266D03*
X041295Y008273D03*
X041295Y008281D03*
X041295Y008296D03*
X041295Y008304D03*
X041295Y008311D03*
X041295Y008326D03*
X041295Y008334D03*
X037009Y008767D03*
X037009Y006996D03*
X035625Y006951D03*
X035625Y006943D03*
X035625Y006936D03*
X035625Y006259D03*
X035625Y006244D03*
X035625Y006236D03*
X036378Y006236D03*
X036378Y006244D03*
X035671Y005461D03*
X038437Y004564D03*
X039091Y004564D03*
X038764Y004914D03*
X037814Y004428D03*
X037814Y004420D03*
X037822Y003660D03*
X037822Y003652D03*
X037822Y003637D03*
X037822Y003630D03*
X036461Y003607D03*
X039091Y003523D03*
X039099Y003531D03*
X039745Y003326D03*
X039745Y003310D03*
X039745Y003303D03*
X039745Y003288D03*
X039745Y003280D03*
X039745Y003272D03*
X039745Y003257D03*
X039745Y003250D03*
X039745Y003234D03*
X039745Y003227D03*
X039745Y003219D03*
X039745Y003204D03*
X039745Y003196D03*
X041295Y003196D03*
X041295Y003204D03*
X041295Y003219D03*
X041295Y003227D03*
X041295Y003234D03*
X041295Y003250D03*
X041295Y003257D03*
X041295Y003272D03*
X041295Y003280D03*
X041295Y003288D03*
X041295Y003303D03*
X041295Y003310D03*
X041295Y003326D03*
X033611Y004526D03*
X033611Y004534D03*
X039935Y006936D03*
X039935Y006943D03*
X039197Y007019D03*
D45*
X040520Y008212D03*
X040520Y003196D03*
D46*
X038768Y003196D03*
X034246Y003987D03*
X033668Y004283D03*
X033668Y003523D03*
X036199Y007300D03*
X039338Y007300D03*
X035318Y008212D03*
X038958Y008311D03*
X035318Y009907D03*
D47*
X036997Y009573D03*
X036997Y009558D03*
X037727Y009542D03*
X037727Y009527D03*
X037750Y008691D03*
X037750Y008684D03*
X037750Y008676D03*
X037750Y008661D03*
X036990Y008570D03*
X036982Y008592D03*
X036982Y008600D03*
X036974Y008630D03*
X036974Y008646D03*
X036974Y008653D03*
X036974Y008661D03*
X036974Y008676D03*
X036207Y007384D03*
X035591Y007384D03*
X035591Y007376D03*
X035591Y007361D03*
X035591Y007354D03*
X035591Y007346D03*
X035591Y007331D03*
X035591Y007323D03*
X035591Y007316D03*
X035591Y007300D03*
X035591Y007293D03*
X035591Y007278D03*
X035591Y007270D03*
X035591Y007262D03*
X035591Y007247D03*
X035591Y007240D03*
X035591Y007224D03*
X035591Y007399D03*
X035591Y007407D03*
X037651Y003196D03*
D48*
X037039Y003196D03*
X037039Y003204D03*
X037039Y003219D03*
X037039Y003227D03*
X037039Y003234D03*
X037039Y003250D03*
X037039Y003257D03*
X037039Y003272D03*
X037039Y003280D03*
X037039Y003288D03*
X037039Y003303D03*
X037039Y003310D03*
X037039Y003326D03*
X037039Y003333D03*
X037039Y003341D03*
X037039Y003356D03*
X037039Y003364D03*
X037039Y003371D03*
X040520Y003272D03*
X040520Y003257D03*
X040520Y003250D03*
X037647Y004884D03*
X032973Y004884D03*
X032973Y004891D03*
X032973Y004876D03*
X032973Y004861D03*
X032973Y004853D03*
X032973Y004846D03*
X032973Y004830D03*
X032973Y004823D03*
X032973Y004808D03*
X032973Y004800D03*
X032973Y004792D03*
X032973Y004777D03*
X032973Y004770D03*
X032973Y004754D03*
X032973Y004747D03*
X032973Y004739D03*
X032973Y004724D03*
X032973Y004716D03*
X032973Y004701D03*
X032973Y004694D03*
X032973Y004686D03*
X032973Y004671D03*
X040520Y008266D03*
X040520Y008273D03*
X040520Y008281D03*
X037746Y008630D03*
X037746Y008646D03*
X037746Y008653D03*
X036993Y008554D03*
X036986Y008577D03*
X037009Y009596D03*
X037016Y009611D03*
X037715Y009580D03*
X037715Y009573D03*
X037723Y009558D03*
X037723Y009550D03*
X037731Y009520D03*
X037731Y009504D03*
X037731Y009497D03*
X037731Y009489D03*
D49*
X040159Y009907D03*
X040250Y009466D03*
X040258Y009421D03*
X040258Y009413D03*
X040273Y009360D03*
X040273Y009352D03*
X040273Y009337D03*
X040273Y009330D03*
X040280Y009307D03*
X040280Y009299D03*
X040744Y009223D03*
X040744Y009216D03*
X040759Y009299D03*
X040759Y009307D03*
X040759Y009314D03*
X040767Y009352D03*
X040767Y009360D03*
X038973Y008212D03*
X037370Y008174D03*
X035318Y008174D03*
X036207Y007399D03*
X036207Y005803D03*
X040159Y004891D03*
X040174Y004823D03*
X040250Y004450D03*
X040258Y004412D03*
X040258Y004397D03*
X040273Y004344D03*
X040273Y004336D03*
X040273Y004321D03*
X040273Y004314D03*
X040280Y004291D03*
X040280Y004283D03*
X040280Y004276D03*
X040744Y004207D03*
X040744Y004200D03*
X040759Y004276D03*
X040759Y004283D03*
X040759Y004291D03*
X040759Y004306D03*
X040767Y004336D03*
X040767Y004344D03*
X036321Y003196D03*
D50*
X035690Y003196D03*
X035690Y003204D03*
X035690Y003219D03*
X035690Y003227D03*
X035690Y003234D03*
X035690Y003250D03*
X035690Y003257D03*
X035690Y003272D03*
X035690Y003280D03*
X035690Y003288D03*
X035690Y003303D03*
X035690Y003310D03*
X035690Y003326D03*
X035690Y003333D03*
X035690Y003341D03*
X035690Y003356D03*
X035690Y003364D03*
X035690Y003371D03*
X035690Y003386D03*
X037780Y007217D03*
X037780Y007224D03*
X037780Y007240D03*
X037780Y007247D03*
X037780Y007262D03*
X037780Y007270D03*
X037780Y007278D03*
X037780Y007293D03*
X037780Y007300D03*
X037780Y007316D03*
X037780Y007323D03*
X037780Y007331D03*
X037780Y007346D03*
X037780Y007354D03*
X037780Y007361D03*
X037780Y007376D03*
X037780Y007384D03*
X037780Y007399D03*
X037780Y007407D03*
X037149Y007384D03*
X039330Y007384D03*
X038973Y008228D03*
X038342Y008228D03*
X038342Y008220D03*
X038342Y008212D03*
X038342Y008243D03*
X038342Y008250D03*
X038342Y008266D03*
X038342Y008273D03*
X038342Y008281D03*
X038342Y008296D03*
X038342Y008304D03*
X038342Y008311D03*
X038342Y008326D03*
X038342Y008334D03*
X038342Y008349D03*
X038342Y008357D03*
X038342Y008364D03*
X038342Y008380D03*
X038342Y008387D03*
X038342Y008402D03*
X037727Y008570D03*
X036997Y008547D03*
X037727Y009466D03*
X037727Y009474D03*
X037012Y009603D03*
D51*
X037043Y009641D03*
X037689Y009626D03*
X035690Y009436D03*
X035690Y009421D03*
X035690Y009413D03*
X035690Y009406D03*
X035682Y009466D03*
X035682Y009474D03*
X035667Y009527D03*
X035660Y009550D03*
X035690Y008714D03*
X035690Y008706D03*
X035690Y008691D03*
X035690Y008684D03*
X035682Y008653D03*
X035682Y008646D03*
X035667Y008592D03*
X035660Y008570D03*
X034960Y008577D03*
X034960Y008592D03*
X034953Y008600D03*
X034953Y008608D03*
X037020Y008516D03*
X037704Y008524D03*
X038487Y007984D03*
X038487Y007977D03*
X038487Y007969D03*
X038487Y007954D03*
X038487Y007946D03*
X038487Y007931D03*
X038487Y007924D03*
X038487Y007916D03*
X038487Y007901D03*
X038487Y007893D03*
X038487Y007886D03*
X038487Y007870D03*
X038487Y007863D03*
X038487Y007848D03*
X038487Y007840D03*
X038487Y007832D03*
X038487Y007817D03*
X038487Y007810D03*
X038487Y007794D03*
X038487Y007787D03*
X038487Y007779D03*
X038487Y007764D03*
X038487Y007756D03*
X038487Y007741D03*
X038487Y007734D03*
X038487Y007726D03*
X038487Y007711D03*
X038487Y007703D03*
X038487Y007696D03*
X038487Y007680D03*
X038487Y007673D03*
X038487Y007658D03*
X038487Y007650D03*
X038487Y007642D03*
X038487Y007627D03*
X038487Y007620D03*
X038487Y007604D03*
X038487Y007597D03*
X038487Y007589D03*
X038487Y007407D03*
X038487Y007399D03*
X038487Y007384D03*
X038487Y007376D03*
X038487Y007361D03*
X038487Y007354D03*
X038487Y007346D03*
X038487Y007331D03*
X038487Y007323D03*
X038487Y007316D03*
X038487Y007300D03*
X038487Y007293D03*
X038487Y007278D03*
X038487Y007270D03*
X038487Y007262D03*
X038487Y007247D03*
X038487Y007240D03*
X038487Y007224D03*
X038487Y007217D03*
X038487Y007209D03*
X038487Y007194D03*
X038487Y007186D03*
X038487Y007171D03*
X038487Y007164D03*
X038487Y007156D03*
X038487Y007141D03*
X038487Y007133D03*
X038487Y007126D03*
X038487Y007110D03*
X038487Y007103D03*
X038487Y007088D03*
X038487Y007080D03*
X038487Y007072D03*
X038487Y007057D03*
X038487Y007050D03*
X038487Y007034D03*
X038487Y007027D03*
X038487Y007019D03*
X038487Y007004D03*
X038487Y006996D03*
X038487Y006981D03*
X038487Y006974D03*
X038487Y006966D03*
X038487Y006951D03*
X038487Y006943D03*
X038487Y006936D03*
X038487Y006920D03*
X038487Y006913D03*
X038487Y006898D03*
X038487Y006890D03*
X038487Y006882D03*
X038487Y006867D03*
X038487Y006860D03*
X038487Y006844D03*
X038487Y006837D03*
X038487Y006829D03*
X038487Y006814D03*
X038487Y006806D03*
X038487Y006791D03*
X038487Y006784D03*
X038487Y006776D03*
X038487Y006761D03*
X038487Y006753D03*
X038487Y006746D03*
X038487Y006730D03*
X038487Y006723D03*
X038487Y006708D03*
X038487Y006700D03*
X038487Y006692D03*
X038487Y006677D03*
X038487Y006670D03*
X038487Y006654D03*
X038487Y006647D03*
X038487Y006639D03*
X038487Y006624D03*
X038487Y006616D03*
X038487Y006601D03*
X038487Y006594D03*
X038487Y006586D03*
X038487Y006571D03*
X038487Y006563D03*
X038487Y006556D03*
X038487Y006540D03*
X038487Y006533D03*
X038487Y006518D03*
X038487Y006510D03*
X038487Y006502D03*
X038487Y006487D03*
X038487Y006480D03*
X038487Y006464D03*
X038487Y006457D03*
X038487Y006449D03*
X038487Y006434D03*
X038487Y006426D03*
X038487Y006411D03*
X038487Y006404D03*
X038487Y006396D03*
X038487Y006381D03*
X038487Y006373D03*
X038487Y006366D03*
X038487Y006350D03*
X038487Y006343D03*
X038487Y006328D03*
X038487Y006320D03*
X038487Y006312D03*
X038487Y006297D03*
X038487Y006290D03*
X038487Y006274D03*
X038487Y006267D03*
X038487Y006259D03*
X038487Y006244D03*
X038487Y006236D03*
X038487Y006221D03*
X038487Y006214D03*
X038487Y006206D03*
X038487Y006191D03*
X038487Y006183D03*
X038487Y006176D03*
X038487Y006160D03*
X038487Y006153D03*
X038487Y006138D03*
X038487Y006130D03*
X038487Y006122D03*
X038487Y006107D03*
X038487Y006100D03*
X038487Y006084D03*
X038487Y006077D03*
X038487Y006069D03*
X038487Y006054D03*
X038487Y006046D03*
X038487Y006031D03*
X038487Y006024D03*
X038487Y006016D03*
X038487Y006001D03*
X038487Y005993D03*
X038487Y005986D03*
X038487Y005970D03*
X038487Y005963D03*
X038487Y005948D03*
X038487Y005940D03*
X038487Y005932D03*
X038487Y005917D03*
X038487Y005910D03*
X038487Y005894D03*
X038487Y005887D03*
X038487Y005879D03*
X038487Y005864D03*
X038487Y005856D03*
X038487Y005841D03*
X038487Y005834D03*
X038487Y005826D03*
X038487Y005811D03*
X038487Y005803D03*
X038487Y005796D03*
X038487Y005780D03*
X038487Y005773D03*
X038487Y005758D03*
X038487Y005750D03*
X038487Y005742D03*
X038487Y005727D03*
X038487Y005720D03*
X038487Y005704D03*
X038487Y005697D03*
X039946Y005697D03*
X039946Y005704D03*
X039946Y005720D03*
X039946Y005727D03*
X039946Y005742D03*
X039946Y005750D03*
X039946Y005758D03*
X039946Y005773D03*
X039946Y005780D03*
X039946Y005796D03*
X039946Y005803D03*
X039946Y005811D03*
X039946Y005826D03*
X039946Y005834D03*
X039946Y005841D03*
X039946Y005856D03*
X039946Y005864D03*
X039946Y005879D03*
X039946Y005887D03*
X039946Y005894D03*
X039946Y005910D03*
X039946Y005917D03*
X039946Y005932D03*
X039946Y005940D03*
X039946Y005948D03*
X039946Y005963D03*
X039946Y005970D03*
X039946Y005986D03*
X039946Y005993D03*
X039946Y006001D03*
X039946Y006016D03*
X039946Y006024D03*
X039946Y006031D03*
X039946Y006046D03*
X039946Y006054D03*
X039946Y006069D03*
X039946Y006077D03*
X039946Y006084D03*
X039946Y006100D03*
X039946Y006107D03*
X039946Y006122D03*
X039946Y006130D03*
X039946Y006138D03*
X039946Y006153D03*
X039946Y006160D03*
X039946Y006176D03*
X039946Y006183D03*
X039946Y006191D03*
X039946Y006206D03*
X039946Y006214D03*
X039946Y006221D03*
X039946Y006236D03*
X039946Y006244D03*
X039946Y006259D03*
X039946Y006267D03*
X039946Y006274D03*
X039946Y006290D03*
X039946Y006297D03*
X039946Y006312D03*
X039946Y006320D03*
X039946Y006328D03*
X039946Y006343D03*
X039946Y006350D03*
X039946Y006366D03*
X039946Y006373D03*
X039946Y006381D03*
X039946Y006396D03*
X039946Y006404D03*
X039946Y006411D03*
X039946Y006426D03*
X039946Y006434D03*
X039946Y006449D03*
X039946Y006457D03*
X039946Y006464D03*
X039946Y006480D03*
X039946Y006487D03*
X039946Y006502D03*
X039946Y006510D03*
X039946Y006518D03*
X039946Y006533D03*
X039946Y006540D03*
X039946Y006556D03*
X039946Y006563D03*
X039946Y006571D03*
X039946Y006586D03*
X039946Y006594D03*
X039946Y006601D03*
X039946Y006616D03*
X039946Y006624D03*
X039946Y006639D03*
X039946Y006647D03*
X039946Y006654D03*
X039946Y006670D03*
X039946Y006677D03*
X039946Y006692D03*
X039946Y006700D03*
X039946Y006708D03*
X039946Y006723D03*
X039946Y006730D03*
X039946Y006746D03*
X039946Y006753D03*
X039946Y006761D03*
X039946Y006776D03*
X039946Y006784D03*
X039946Y006791D03*
X039946Y006806D03*
X039946Y006814D03*
X039946Y006829D03*
X039946Y006837D03*
X039946Y007240D03*
X039946Y007247D03*
X039946Y007262D03*
X039946Y007270D03*
X039946Y007278D03*
X039946Y007293D03*
X039946Y007300D03*
X039946Y007316D03*
X039946Y007323D03*
X039946Y007331D03*
X039946Y007346D03*
X039946Y007354D03*
X039946Y007361D03*
X039946Y007376D03*
X039946Y007384D03*
X039946Y007399D03*
X039946Y007407D03*
X039946Y007414D03*
X039946Y007430D03*
X039946Y007437D03*
X039946Y007452D03*
X039946Y007460D03*
X039946Y007468D03*
X039946Y007483D03*
X039946Y007490D03*
X039946Y007506D03*
X039946Y007513D03*
X039946Y007521D03*
X039946Y007536D03*
X039946Y007544D03*
X039946Y007551D03*
X039946Y007566D03*
X039946Y007574D03*
X039946Y007589D03*
X039946Y007597D03*
X039946Y007604D03*
X039946Y007620D03*
X039946Y007627D03*
X039946Y007642D03*
X039946Y007650D03*
X039946Y007658D03*
X039946Y007673D03*
X039946Y007680D03*
X039946Y007696D03*
X039946Y007703D03*
X039946Y007711D03*
X039946Y007726D03*
X039946Y007734D03*
X039946Y007741D03*
X039946Y007756D03*
X039946Y007764D03*
X039946Y007779D03*
X039946Y007787D03*
X039946Y007794D03*
X039946Y007810D03*
X039946Y007817D03*
X039946Y007832D03*
X039946Y007840D03*
X039946Y007848D03*
X039946Y007863D03*
X039946Y007870D03*
X039946Y007886D03*
X039946Y007893D03*
X039946Y007901D03*
X039946Y007916D03*
X039946Y007924D03*
X039946Y007931D03*
X039946Y007946D03*
X039946Y007954D03*
X039946Y007969D03*
X039946Y007977D03*
X039733Y008950D03*
X039733Y008957D03*
X039733Y008972D03*
X039733Y008980D03*
X039733Y008988D03*
X039733Y009003D03*
X039733Y009010D03*
X039733Y009026D03*
X039733Y009033D03*
X039733Y009041D03*
X039733Y009056D03*
X039733Y009064D03*
X039733Y009071D03*
X039733Y009086D03*
X039733Y009094D03*
X039733Y009109D03*
X039733Y009117D03*
X039733Y009124D03*
X039733Y009140D03*
X039733Y009147D03*
X039733Y009162D03*
X039733Y009170D03*
X039733Y009178D03*
X039733Y009193D03*
X039733Y009200D03*
X039733Y009216D03*
X039733Y009223D03*
X041306Y009223D03*
X041306Y009216D03*
X041306Y009200D03*
X041306Y009193D03*
X041306Y009178D03*
X041306Y009170D03*
X041306Y009162D03*
X041306Y009147D03*
X041306Y009140D03*
X041306Y009124D03*
X041306Y009117D03*
X041306Y009109D03*
X041306Y009094D03*
X041306Y009086D03*
X041306Y009071D03*
X041306Y009064D03*
X041306Y009056D03*
X041306Y009041D03*
X041306Y009033D03*
X041306Y009026D03*
X041306Y009010D03*
X041306Y009003D03*
X041306Y008988D03*
X041306Y008980D03*
X041306Y008972D03*
X041306Y008957D03*
X041306Y008950D03*
X036997Y006882D03*
X036997Y006867D03*
X036997Y006860D03*
X036997Y006844D03*
X036997Y006837D03*
X036997Y006829D03*
X036997Y006814D03*
X036997Y006806D03*
X036997Y006791D03*
X036997Y006784D03*
X036997Y006776D03*
X036997Y006761D03*
X036997Y006753D03*
X036997Y006746D03*
X036997Y006730D03*
X036997Y006723D03*
X036997Y006708D03*
X036997Y006700D03*
X036997Y006692D03*
X036997Y006677D03*
X036997Y006670D03*
X036997Y006654D03*
X036997Y006647D03*
X036997Y006639D03*
X036997Y006624D03*
X036997Y006616D03*
X036997Y006601D03*
X036997Y006594D03*
X036997Y006586D03*
X036997Y006571D03*
X036997Y006563D03*
X036997Y006556D03*
X036997Y006540D03*
X036997Y006533D03*
X036997Y006518D03*
X036997Y006510D03*
X036997Y006502D03*
X036997Y006487D03*
X036997Y006480D03*
X036997Y006464D03*
X036997Y006457D03*
X036997Y006449D03*
X036997Y006434D03*
X036997Y006426D03*
X036997Y006411D03*
X036997Y006404D03*
X036997Y006396D03*
X036997Y006381D03*
X036997Y006373D03*
X036997Y006366D03*
X036997Y006350D03*
X036997Y006343D03*
X036997Y006328D03*
X036997Y006320D03*
X036997Y006312D03*
X036997Y006297D03*
X036997Y006290D03*
X036997Y006274D03*
X036997Y006267D03*
X036997Y006259D03*
X036997Y006244D03*
X036997Y006236D03*
X036997Y006221D03*
X036997Y006214D03*
X036997Y006206D03*
X036997Y006191D03*
X036997Y006183D03*
X036997Y006176D03*
X036997Y006160D03*
X036997Y006153D03*
X036997Y006138D03*
X036997Y006130D03*
X036997Y006122D03*
X036997Y006107D03*
X036997Y006100D03*
X036997Y006084D03*
X036997Y006077D03*
X036997Y006069D03*
X036997Y006054D03*
X036997Y006046D03*
X036997Y006031D03*
X036997Y006024D03*
X036997Y006016D03*
X036997Y006001D03*
X036997Y005993D03*
X036997Y005986D03*
X036997Y005970D03*
X036997Y005963D03*
X036997Y005948D03*
X036997Y005940D03*
X036997Y005932D03*
X036997Y005917D03*
X036997Y005910D03*
X036997Y005894D03*
X036997Y005887D03*
X036997Y005879D03*
X036997Y005864D03*
X036997Y005856D03*
X036997Y005841D03*
X036997Y005834D03*
X036997Y005826D03*
X036997Y005811D03*
X036997Y005803D03*
X036997Y005796D03*
X036997Y005780D03*
X036997Y005773D03*
X036997Y005758D03*
X036997Y005750D03*
X036997Y005742D03*
X036997Y005727D03*
X036997Y005720D03*
X036997Y005704D03*
X036997Y005697D03*
X036397Y005552D03*
X036389Y005514D03*
X036389Y005507D03*
X035637Y005530D03*
X035629Y005560D03*
X035614Y005720D03*
X035614Y005727D03*
X035614Y005742D03*
X035614Y005750D03*
X035614Y005758D03*
X035614Y005773D03*
X035614Y005780D03*
X035614Y005796D03*
X035614Y005803D03*
X035614Y005811D03*
X035614Y005826D03*
X035614Y005834D03*
X035614Y005841D03*
X035614Y005856D03*
X035614Y005864D03*
X035614Y005879D03*
X035614Y005887D03*
X035614Y005894D03*
X035614Y005910D03*
X035614Y006404D03*
X035614Y006411D03*
X035614Y006426D03*
X035614Y006434D03*
X035614Y006449D03*
X035614Y006457D03*
X035614Y006464D03*
X035614Y006480D03*
X035614Y006487D03*
X035614Y006502D03*
X035614Y006510D03*
X035614Y006518D03*
X035614Y006533D03*
X035614Y006540D03*
X035614Y006556D03*
X035614Y006563D03*
X035614Y006571D03*
X035614Y006586D03*
X035614Y006594D03*
X035614Y006601D03*
X035614Y006616D03*
X035614Y006624D03*
X035614Y006639D03*
X035614Y006647D03*
X035614Y006654D03*
X035614Y006670D03*
X035614Y006677D03*
X035614Y006692D03*
X035614Y006700D03*
X035614Y006708D03*
X035614Y006723D03*
X035614Y006730D03*
X035614Y006746D03*
X035614Y006753D03*
X035614Y006761D03*
X035614Y006776D03*
X035614Y006784D03*
X036389Y006860D03*
X036389Y006867D03*
X036389Y006882D03*
X036389Y006890D03*
X036389Y006898D03*
X036397Y006753D03*
X036397Y006746D03*
X036397Y006730D03*
X036397Y006723D03*
X036397Y006708D03*
X036397Y006700D03*
X036397Y006692D03*
X036397Y006677D03*
X036397Y006670D03*
X036397Y006654D03*
X036397Y006647D03*
X036397Y006639D03*
X036397Y006624D03*
X036397Y006616D03*
X036397Y006601D03*
X036397Y006594D03*
X036397Y006586D03*
X036397Y006571D03*
X036397Y006563D03*
X036397Y006556D03*
X036397Y006540D03*
X036397Y006533D03*
X036397Y006518D03*
X036397Y006510D03*
X036397Y006502D03*
X036397Y006487D03*
X036397Y006480D03*
X036397Y006464D03*
X036397Y006457D03*
X036397Y006449D03*
X035036Y005461D03*
X035036Y005454D03*
X035036Y005446D03*
X035036Y005431D03*
X035036Y005423D03*
X035036Y005416D03*
X035036Y005400D03*
X035036Y005393D03*
X035036Y005378D03*
X035036Y005370D03*
X035036Y005362D03*
X035036Y005347D03*
X035036Y005340D03*
X035036Y005324D03*
X035036Y005317D03*
X035036Y005309D03*
X035036Y005294D03*
X035036Y005286D03*
X035036Y005271D03*
X035036Y005264D03*
X035036Y005256D03*
X035036Y005241D03*
X035036Y005233D03*
X035036Y005226D03*
X035036Y005210D03*
X035036Y005203D03*
X035036Y005188D03*
X035036Y005180D03*
X035036Y005172D03*
X035036Y005157D03*
X035036Y005150D03*
X035036Y005134D03*
X035036Y005127D03*
X035036Y005119D03*
X035036Y005104D03*
X035036Y005096D03*
X035036Y005081D03*
X035036Y005074D03*
X035036Y005066D03*
X035036Y005051D03*
X035036Y005043D03*
X035036Y005036D03*
X035036Y005020D03*
X035036Y005013D03*
X035036Y004998D03*
X035036Y004990D03*
X035036Y004982D03*
X035036Y004967D03*
X035036Y004960D03*
X035036Y004944D03*
X035036Y004937D03*
X035036Y004929D03*
X035036Y004914D03*
X035036Y004906D03*
X035036Y004891D03*
X035036Y004884D03*
X035036Y004876D03*
X035036Y004861D03*
X035036Y004853D03*
X035036Y004846D03*
X035036Y004830D03*
X035036Y004823D03*
X035036Y004808D03*
X035036Y004800D03*
X035036Y004792D03*
X035036Y004777D03*
X035036Y004770D03*
X035036Y004754D03*
X035036Y004747D03*
X035036Y004739D03*
X035036Y004724D03*
X035036Y004716D03*
X035036Y004701D03*
X035036Y004694D03*
X035036Y004686D03*
X035036Y004671D03*
X035036Y004663D03*
X035036Y004656D03*
X035036Y004640D03*
X035036Y004633D03*
X035036Y004618D03*
X035036Y004610D03*
X035036Y004602D03*
X035036Y004587D03*
X035036Y004580D03*
X035036Y004564D03*
X035036Y004557D03*
X035036Y004549D03*
X035036Y004534D03*
X035036Y004526D03*
X035036Y004511D03*
X035036Y004504D03*
X035036Y004496D03*
X035036Y004481D03*
X035036Y004473D03*
X035036Y004466D03*
X035036Y004450D03*
X035036Y004443D03*
X035036Y004428D03*
X035036Y004420D03*
X035036Y004412D03*
X035036Y004397D03*
X035036Y004390D03*
X035036Y004374D03*
X035036Y004367D03*
X035036Y004359D03*
X035036Y004344D03*
X035036Y004336D03*
X035036Y004321D03*
X035036Y004314D03*
X035036Y004306D03*
X035036Y004291D03*
X035036Y004283D03*
X035036Y004276D03*
X035036Y004260D03*
X035036Y004253D03*
X035036Y004238D03*
X035036Y004230D03*
X035036Y004222D03*
X035036Y004207D03*
X035036Y004200D03*
X035036Y004184D03*
X035036Y004177D03*
X035036Y004169D03*
X035036Y004154D03*
X035036Y004146D03*
X035036Y004131D03*
X035036Y004124D03*
X035036Y004116D03*
X035036Y004101D03*
X035036Y004093D03*
X035036Y004086D03*
X035036Y004070D03*
X035036Y004063D03*
X035036Y004048D03*
X035036Y004040D03*
X035036Y004032D03*
X035036Y004017D03*
X035036Y004010D03*
X035036Y003994D03*
X035036Y003987D03*
X035036Y003979D03*
X035036Y003964D03*
X035036Y003956D03*
X035036Y003941D03*
X035036Y003934D03*
X035036Y003926D03*
X035036Y003911D03*
X035036Y003903D03*
X035036Y003896D03*
X035036Y003880D03*
X035036Y003873D03*
X035036Y003858D03*
X035036Y003850D03*
X035036Y003842D03*
X035036Y003827D03*
X035036Y003820D03*
X035036Y003804D03*
X035036Y003797D03*
X035036Y003789D03*
X035036Y003774D03*
X035036Y003766D03*
X035036Y003751D03*
X035036Y003744D03*
X035036Y003736D03*
X035036Y003721D03*
X035036Y003713D03*
X035036Y003706D03*
X035036Y003690D03*
X035036Y003683D03*
X035036Y003668D03*
X035036Y003660D03*
X035036Y003652D03*
X035036Y003637D03*
X035036Y003630D03*
X035036Y003614D03*
X035036Y003607D03*
X035036Y003599D03*
X035036Y003584D03*
X035036Y003576D03*
X035036Y003561D03*
X035036Y003554D03*
X035036Y003546D03*
X035036Y003531D03*
X035036Y003523D03*
X035036Y003516D03*
X035036Y003500D03*
X035036Y003493D03*
X035036Y003478D03*
X035036Y003470D03*
X035036Y003462D03*
X035036Y003447D03*
X035036Y003440D03*
X035036Y003424D03*
X035036Y003417D03*
X035036Y003409D03*
X035036Y003394D03*
X035036Y003386D03*
X035036Y003371D03*
X035036Y003364D03*
X035036Y003356D03*
X035036Y003341D03*
X035036Y003333D03*
X035036Y003326D03*
X035036Y003310D03*
X035036Y003303D03*
X035036Y003288D03*
X035036Y003280D03*
X035036Y003272D03*
X035036Y003257D03*
X035036Y003250D03*
X035036Y003234D03*
X035036Y003227D03*
X035036Y003219D03*
X035036Y003204D03*
X035036Y003196D03*
X033577Y003326D03*
X033577Y003333D03*
X033570Y003288D03*
X032954Y003288D03*
X032954Y003280D03*
X032954Y003272D03*
X032954Y003257D03*
X032954Y003250D03*
X032954Y003234D03*
X032954Y003227D03*
X032954Y003219D03*
X032954Y003204D03*
X032954Y003196D03*
X032954Y003303D03*
X032954Y003310D03*
X032954Y003326D03*
X032954Y003333D03*
X032954Y003341D03*
X032954Y003356D03*
X032954Y003364D03*
X032954Y003371D03*
X032954Y003386D03*
X032954Y003394D03*
X032954Y003409D03*
X032954Y003417D03*
X032954Y003424D03*
X032954Y003440D03*
X032954Y003447D03*
X032954Y003462D03*
X032954Y003470D03*
X032954Y003478D03*
X032954Y003493D03*
X032954Y003500D03*
X032954Y003516D03*
X032954Y003523D03*
X032954Y003531D03*
X032954Y003546D03*
X032954Y003554D03*
X032954Y003561D03*
X032954Y003576D03*
X032954Y003584D03*
X032954Y003599D03*
X032954Y003607D03*
X032954Y003614D03*
X032954Y003630D03*
X032954Y003637D03*
X032954Y003652D03*
X032954Y003660D03*
X032954Y003668D03*
X032954Y003683D03*
X032954Y003690D03*
X032954Y003706D03*
X032954Y003713D03*
X032954Y003721D03*
X032954Y003736D03*
X032954Y003744D03*
X032954Y003751D03*
X032954Y003766D03*
X032954Y003774D03*
X032954Y003789D03*
X032954Y003797D03*
X032954Y003804D03*
X032954Y003820D03*
X032954Y003827D03*
X032954Y003842D03*
X032954Y003850D03*
X032954Y003858D03*
X032954Y003873D03*
X032954Y003880D03*
X032954Y003896D03*
X032954Y003903D03*
X032954Y003911D03*
X032954Y003926D03*
X032954Y003934D03*
X032954Y003941D03*
X032954Y003956D03*
X032954Y003964D03*
X032954Y003979D03*
X032954Y003987D03*
X032954Y003994D03*
X032954Y004010D03*
X032954Y004017D03*
X032954Y004032D03*
X032954Y004040D03*
X032954Y004048D03*
X032954Y004063D03*
X032954Y004070D03*
X032954Y004086D03*
X032954Y004093D03*
X032954Y004101D03*
X032954Y004116D03*
X032954Y004124D03*
X032954Y004131D03*
X034406Y004374D03*
X034406Y004390D03*
X034406Y004397D03*
X034406Y004412D03*
X034406Y004420D03*
X034406Y004428D03*
X034406Y004443D03*
X036473Y004443D03*
X036473Y004450D03*
X036473Y004466D03*
X036473Y004473D03*
X036473Y004481D03*
X036473Y004496D03*
X036473Y004504D03*
X036473Y004511D03*
X036473Y004526D03*
X036473Y004534D03*
X036473Y004549D03*
X036473Y004557D03*
X036473Y004564D03*
X036473Y004580D03*
X036473Y004587D03*
X036473Y004602D03*
X036473Y004610D03*
X036473Y004618D03*
X036473Y004633D03*
X036473Y004640D03*
X036473Y004656D03*
X036473Y004663D03*
X036473Y004671D03*
X036473Y004686D03*
X036473Y004694D03*
X036473Y004701D03*
X036473Y004716D03*
X036473Y004724D03*
X036473Y004739D03*
X036473Y004747D03*
X036473Y004754D03*
X036473Y004770D03*
X036473Y004777D03*
X036473Y004792D03*
X036473Y004800D03*
X036473Y004808D03*
X036473Y004823D03*
X036473Y004830D03*
X036473Y004846D03*
X036473Y004853D03*
X036473Y004861D03*
X036473Y004876D03*
X036473Y004884D03*
X036473Y004891D03*
X036473Y004428D03*
X036473Y004420D03*
X036473Y004412D03*
X036473Y004397D03*
X036473Y004390D03*
X036473Y004374D03*
X036473Y004367D03*
X036473Y004359D03*
X036473Y004344D03*
X036473Y004336D03*
X036473Y004321D03*
X036473Y004314D03*
X036473Y004306D03*
X036473Y004291D03*
X036473Y004283D03*
X036473Y004276D03*
X036473Y004260D03*
X036473Y004253D03*
X036473Y004238D03*
X036473Y004230D03*
X036473Y004222D03*
X036473Y004207D03*
X036473Y004200D03*
X036473Y004184D03*
X036473Y004177D03*
X036473Y004169D03*
X036473Y004154D03*
X036473Y004146D03*
X036473Y004131D03*
X036473Y004124D03*
X036473Y004116D03*
X036473Y004101D03*
X036473Y004093D03*
X036473Y004086D03*
X036473Y004070D03*
X036473Y004063D03*
X036473Y004048D03*
X036473Y004040D03*
X036473Y004032D03*
X036473Y004017D03*
X036473Y004010D03*
X036473Y003994D03*
X036473Y003987D03*
X036473Y003979D03*
X036473Y003964D03*
X036473Y003956D03*
X036473Y003941D03*
X036473Y003934D03*
X036473Y003926D03*
X036473Y003911D03*
X036473Y003903D03*
X036473Y003896D03*
X036473Y003880D03*
X036473Y003873D03*
X036473Y003858D03*
X036473Y003850D03*
X036473Y003842D03*
X036473Y003827D03*
X036473Y003820D03*
X036473Y003804D03*
X036473Y003797D03*
X036473Y003789D03*
X036473Y003774D03*
X036473Y003766D03*
X036473Y003751D03*
X036473Y003744D03*
X036473Y003736D03*
X036473Y003721D03*
X036473Y003713D03*
X038373Y003827D03*
X038373Y003842D03*
X038373Y003850D03*
X038373Y003858D03*
X038373Y003873D03*
X038373Y003880D03*
X038380Y003774D03*
X038380Y003766D03*
X038380Y003751D03*
X038380Y003744D03*
X038380Y003736D03*
X038380Y003721D03*
X038396Y003637D03*
X038396Y003630D03*
X038403Y003599D03*
X038411Y003576D03*
X039110Y003554D03*
X039133Y003630D03*
X039133Y003637D03*
X039140Y003668D03*
X039140Y003683D03*
X039140Y003690D03*
X039140Y003706D03*
X039156Y003827D03*
X039156Y003842D03*
X039156Y003850D03*
X039156Y003858D03*
X039156Y003873D03*
X039156Y003880D03*
X039733Y003926D03*
X039733Y003934D03*
X039733Y003941D03*
X039733Y003956D03*
X039733Y003964D03*
X039733Y003979D03*
X039733Y003987D03*
X039733Y003994D03*
X039733Y004010D03*
X039733Y004017D03*
X039733Y004032D03*
X039733Y004040D03*
X039733Y004048D03*
X039733Y004063D03*
X039733Y004070D03*
X039733Y004086D03*
X039733Y004093D03*
X039733Y004101D03*
X039733Y004116D03*
X039733Y004124D03*
X039733Y004131D03*
X039733Y004146D03*
X039733Y004154D03*
X039733Y004169D03*
X039733Y004177D03*
X039733Y004184D03*
X039733Y004200D03*
X039733Y004207D03*
X039156Y004207D03*
X039156Y004200D03*
X039156Y004222D03*
X039156Y004230D03*
X039156Y004238D03*
X039156Y004253D03*
X039140Y004390D03*
X039140Y004397D03*
X039140Y004412D03*
X039133Y004443D03*
X039133Y004450D03*
X039110Y004534D03*
X038411Y004511D03*
X038403Y004496D03*
X038396Y004450D03*
X038380Y004367D03*
X038380Y004359D03*
X038380Y004344D03*
X038380Y004336D03*
X038380Y004321D03*
X038380Y004314D03*
X038380Y004306D03*
X038373Y004260D03*
X038373Y004253D03*
X038373Y004238D03*
X038373Y004230D03*
X038373Y004222D03*
X038373Y004207D03*
X038373Y004200D03*
X041306Y004200D03*
X041306Y004207D03*
X041306Y004184D03*
X041306Y004177D03*
X041306Y004169D03*
X041306Y004154D03*
X041306Y004146D03*
X041306Y004131D03*
X041306Y004124D03*
X041306Y004116D03*
X041306Y004101D03*
X041306Y004093D03*
X041306Y004086D03*
X041306Y004070D03*
X041306Y004063D03*
X041306Y004048D03*
X041306Y004040D03*
X041306Y004032D03*
X041306Y004017D03*
X041306Y004010D03*
X041306Y003994D03*
X041306Y003987D03*
X041306Y003979D03*
X041306Y003964D03*
X041306Y003956D03*
X041306Y003941D03*
X041306Y003934D03*
X041306Y003926D03*
X034444Y003751D03*
X034444Y003744D03*
X034436Y003774D03*
X034436Y003789D03*
D52*
X034242Y003196D03*
X040520Y003204D03*
X040520Y003219D03*
X040520Y003227D03*
X040520Y003234D03*
X036043Y005134D03*
X040520Y008220D03*
X040520Y008228D03*
X040520Y008243D03*
X040520Y008250D03*
X037753Y008706D03*
X037753Y008714D03*
X037753Y008729D03*
X037753Y008737D03*
X037753Y008744D03*
X036986Y009489D03*
X036986Y009497D03*
X036986Y009504D03*
X036986Y009520D03*
X036993Y009527D03*
X036993Y009542D03*
X036993Y009550D03*
D53*
X037704Y009406D03*
X037354Y009930D03*
X035652Y009573D03*
X035644Y009580D03*
X034983Y009580D03*
X038365Y008714D03*
X038365Y008706D03*
X037696Y008516D03*
X039110Y008608D03*
X039118Y008630D03*
X039118Y008646D03*
X039118Y008653D03*
X039741Y008630D03*
X039741Y008623D03*
X039741Y008608D03*
X039741Y008600D03*
X039741Y008592D03*
X039741Y008577D03*
X039741Y008570D03*
X039741Y008554D03*
X039741Y008547D03*
X039741Y008539D03*
X039741Y008524D03*
X039741Y008516D03*
X039741Y008501D03*
X039741Y008494D03*
X039741Y008486D03*
X039741Y008471D03*
X039741Y008463D03*
X039741Y008456D03*
X039741Y008440D03*
X039741Y008433D03*
X039741Y008418D03*
X039741Y008410D03*
X039741Y008402D03*
X039741Y008387D03*
X039741Y008380D03*
X039741Y008364D03*
X039741Y008357D03*
X039741Y008349D03*
X041299Y008349D03*
X041299Y008357D03*
X041299Y008364D03*
X041299Y008380D03*
X041299Y008387D03*
X041299Y008402D03*
X041299Y008410D03*
X041299Y008418D03*
X041299Y008433D03*
X041299Y008440D03*
X041299Y008456D03*
X041299Y008463D03*
X041299Y008471D03*
X041299Y008486D03*
X041299Y008494D03*
X041299Y008501D03*
X041299Y008516D03*
X041299Y008524D03*
X041299Y008539D03*
X041299Y008547D03*
X041299Y008554D03*
X041299Y008570D03*
X041299Y008577D03*
X041299Y008592D03*
X041299Y008600D03*
X041299Y008608D03*
X041299Y008623D03*
X041299Y008630D03*
X035652Y008547D03*
X035644Y008539D03*
X034976Y008547D03*
X036374Y006974D03*
X036374Y006966D03*
X037012Y007004D03*
X037757Y006920D03*
X037757Y006913D03*
X037757Y006898D03*
X039186Y006966D03*
X039186Y006974D03*
X039186Y006981D03*
X039194Y007004D03*
X036374Y006221D03*
X036374Y005476D03*
X038426Y004557D03*
X038426Y004549D03*
X039102Y004549D03*
X037826Y004344D03*
X037826Y004336D03*
X037066Y004412D03*
X037066Y004420D03*
X037066Y004428D03*
X037833Y003820D03*
X037833Y003804D03*
X037833Y003797D03*
X037833Y003789D03*
X037833Y003774D03*
X037833Y003766D03*
X037833Y003751D03*
X037826Y003713D03*
X037826Y003706D03*
X037826Y003690D03*
X037826Y003683D03*
X037826Y003668D03*
X037066Y003668D03*
X037066Y003660D03*
X037066Y003683D03*
X037066Y003690D03*
X036465Y003637D03*
X036465Y003630D03*
X036465Y003614D03*
X036458Y003599D03*
X035713Y003683D03*
X035713Y003690D03*
X035713Y003706D03*
X034444Y003614D03*
X034444Y003607D03*
X034444Y003599D03*
X034406Y003842D03*
X034406Y003850D03*
X032946Y004222D03*
X032946Y004230D03*
X032946Y004238D03*
X033600Y004420D03*
X033600Y004428D03*
X033600Y004443D03*
X033600Y004450D03*
X033608Y004496D03*
X033608Y004504D03*
X033608Y004511D03*
X034383Y004526D03*
X034383Y004534D03*
X034390Y004511D03*
X038434Y003523D03*
X039741Y003523D03*
X039741Y003516D03*
X039741Y003531D03*
X039741Y003546D03*
X039741Y003554D03*
X039741Y003561D03*
X039741Y003576D03*
X039741Y003584D03*
X039741Y003599D03*
X039741Y003607D03*
X039741Y003614D03*
X039741Y003500D03*
X039741Y003493D03*
X039741Y003478D03*
X039741Y003470D03*
X039741Y003462D03*
X039741Y003447D03*
X039741Y003440D03*
X039741Y003424D03*
X039741Y003417D03*
X039741Y003409D03*
X039741Y003394D03*
X039741Y003386D03*
X039741Y003371D03*
X039741Y003364D03*
X039741Y003356D03*
X039741Y003341D03*
X039741Y003333D03*
X041299Y003333D03*
X041299Y003341D03*
X041299Y003356D03*
X041299Y003364D03*
X041299Y003371D03*
X041299Y003386D03*
X041299Y003394D03*
X041299Y003409D03*
X041299Y003417D03*
X041299Y003424D03*
X041299Y003440D03*
X041299Y003447D03*
X041299Y003462D03*
X041299Y003470D03*
X041299Y003478D03*
X041299Y003493D03*
X041299Y003500D03*
X041299Y003516D03*
X041299Y003523D03*
X041299Y003531D03*
X041299Y003546D03*
X041299Y003554D03*
X041299Y003561D03*
X041299Y003576D03*
X041299Y003584D03*
X041299Y003599D03*
X041299Y003607D03*
X041299Y003614D03*
X033562Y003250D03*
X033554Y003227D03*
X033554Y003219D03*
X033547Y003204D03*
X033547Y003196D03*
D54*
X038764Y003204D03*
X039342Y007270D03*
X037168Y007278D03*
X037115Y008866D03*
D55*
X036990Y008737D03*
X037719Y008554D03*
X037719Y008547D03*
X037012Y008524D03*
X034938Y008706D03*
X034938Y009276D03*
X034938Y009284D03*
X034938Y009299D03*
X034938Y009307D03*
X034938Y009314D03*
X034938Y009330D03*
X034938Y009337D03*
X034938Y009352D03*
X034938Y009360D03*
X034938Y009368D03*
X034938Y009383D03*
X034938Y009390D03*
X034938Y009406D03*
X034945Y009421D03*
X034945Y009436D03*
X034945Y009444D03*
X034945Y009451D03*
X034945Y009466D03*
X034953Y009489D03*
X034953Y009497D03*
X034953Y009504D03*
X034960Y009527D03*
X037028Y009626D03*
X037719Y009444D03*
X039726Y009527D03*
X039726Y009542D03*
X039726Y009550D03*
X039726Y009558D03*
X039726Y009573D03*
X039726Y009580D03*
X039726Y009596D03*
X039726Y009603D03*
X039726Y009611D03*
X039726Y009626D03*
X039726Y009634D03*
X039726Y009641D03*
X039726Y009656D03*
X039726Y009664D03*
X039726Y009679D03*
X039726Y009687D03*
X039726Y009694D03*
X039726Y009710D03*
X039726Y009717D03*
X039726Y009732D03*
X039726Y009740D03*
X039726Y009748D03*
X039726Y009763D03*
X039726Y009770D03*
X039726Y009786D03*
X039726Y009793D03*
X039726Y009801D03*
X039726Y009816D03*
X041314Y009816D03*
X041314Y009801D03*
X041314Y009793D03*
X041314Y009786D03*
X041314Y009770D03*
X041314Y009763D03*
X041314Y009748D03*
X041314Y009740D03*
X041314Y009732D03*
X041314Y009717D03*
X041314Y009710D03*
X041314Y009694D03*
X041314Y009687D03*
X041314Y009679D03*
X041314Y009664D03*
X041314Y009656D03*
X041314Y009641D03*
X041314Y009634D03*
X041314Y009626D03*
X041314Y009611D03*
X041314Y009603D03*
X041314Y009596D03*
X041314Y009580D03*
X041314Y009573D03*
X041314Y009558D03*
X041314Y009550D03*
X041314Y009542D03*
X041314Y009527D03*
X036207Y007376D03*
X036207Y005826D03*
X039726Y004800D03*
X039726Y004792D03*
X039726Y004777D03*
X039726Y004770D03*
X039726Y004754D03*
X039726Y004747D03*
X039726Y004739D03*
X039726Y004724D03*
X039726Y004716D03*
X039726Y004701D03*
X039726Y004694D03*
X039726Y004686D03*
X039726Y004671D03*
X039726Y004663D03*
X039726Y004656D03*
X039726Y004640D03*
X039726Y004633D03*
X039726Y004618D03*
X039726Y004610D03*
X039726Y004602D03*
X039726Y004587D03*
X039726Y004580D03*
X039726Y004564D03*
X039726Y004557D03*
X039726Y004549D03*
X039726Y004534D03*
X039726Y004526D03*
X039726Y004511D03*
X041314Y004511D03*
X041314Y004526D03*
X041314Y004534D03*
X041314Y004549D03*
X041314Y004557D03*
X041314Y004564D03*
X041314Y004580D03*
X041314Y004587D03*
X041314Y004602D03*
X041314Y004610D03*
X041314Y004618D03*
X041314Y004633D03*
X041314Y004640D03*
X041314Y004656D03*
X041314Y004663D03*
X041314Y004671D03*
X041314Y004686D03*
X041314Y004694D03*
X041314Y004701D03*
X041314Y004716D03*
X041314Y004724D03*
X041314Y004739D03*
X041314Y004747D03*
X041314Y004754D03*
X041314Y004770D03*
X041314Y004777D03*
X041314Y004792D03*
X041314Y004800D03*
X037651Y003204D03*
D56*
X036321Y003204D03*
X036982Y009421D03*
X036982Y009436D03*
X036982Y009444D03*
X036982Y009451D03*
X036982Y009466D03*
X036982Y009474D03*
D57*
X036986Y009482D03*
X036986Y009512D03*
X036993Y009535D03*
X037753Y008722D03*
X040520Y008235D03*
X040520Y003212D03*
D58*
X038768Y003212D03*
X039346Y007255D03*
X035318Y009892D03*
D59*
X037712Y009588D03*
X037734Y008585D03*
X036321Y003212D03*
D60*
X036469Y003645D03*
X036469Y003675D03*
X036469Y003698D03*
X037062Y003698D03*
X037062Y003728D03*
X037829Y003728D03*
X037837Y003835D03*
X037837Y003865D03*
X037837Y003888D03*
X037837Y003918D03*
X037837Y003949D03*
X037837Y003972D03*
X037837Y004002D03*
X037837Y004025D03*
X037837Y004055D03*
X037837Y004078D03*
X037837Y004108D03*
X037837Y004139D03*
X037837Y004162D03*
X037837Y004192D03*
X037829Y004245D03*
X037829Y004268D03*
X037829Y004298D03*
X037822Y004352D03*
X038377Y004298D03*
X038377Y004268D03*
X038369Y004192D03*
X038369Y004162D03*
X038369Y004139D03*
X038369Y004108D03*
X038369Y004078D03*
X038369Y004055D03*
X038369Y004025D03*
X038369Y004002D03*
X038369Y003972D03*
X038369Y003949D03*
X038369Y003918D03*
X038377Y003812D03*
X039152Y003812D03*
X039159Y003888D03*
X039159Y003918D03*
X039159Y003949D03*
X039159Y003972D03*
X039159Y004002D03*
X039159Y004025D03*
X039159Y004055D03*
X039159Y004078D03*
X039159Y004108D03*
X039159Y004139D03*
X039159Y004162D03*
X039159Y004192D03*
X039152Y004268D03*
X039152Y004298D03*
X039106Y004542D03*
X038422Y004542D03*
X037062Y004405D03*
X037062Y004382D03*
X035709Y003759D03*
X035709Y003728D03*
X034447Y003622D03*
X034425Y003812D03*
X032950Y004139D03*
X032950Y004162D03*
X032950Y004192D03*
X033604Y004488D03*
X034387Y004519D03*
X034394Y004488D03*
X036385Y005492D03*
X036385Y006282D03*
X036385Y006305D03*
X036385Y006335D03*
X036393Y006358D03*
X036393Y006388D03*
X036393Y006419D03*
X036393Y006442D03*
X035618Y006388D03*
X035618Y006358D03*
X035618Y006335D03*
X035618Y006799D03*
X035618Y006822D03*
X035618Y006852D03*
X035618Y006875D03*
X036378Y006958D03*
X037001Y006928D03*
X037001Y006905D03*
X037761Y006875D03*
X037761Y006852D03*
X039182Y006905D03*
X039182Y006928D03*
X039942Y006875D03*
X039942Y006852D03*
X040520Y008372D03*
X040520Y008395D03*
X041303Y008668D03*
X041303Y008699D03*
X041303Y008722D03*
X041303Y008752D03*
X041303Y008775D03*
X041303Y008805D03*
X041303Y008828D03*
X041303Y008858D03*
X041303Y008889D03*
X041303Y008912D03*
X039737Y008912D03*
X039737Y008889D03*
X039737Y008858D03*
X039737Y008828D03*
X039737Y008805D03*
X039737Y008775D03*
X039737Y008752D03*
X039737Y008722D03*
X039737Y008699D03*
X039737Y008668D03*
X035709Y008912D03*
X035709Y008942D03*
X035709Y008965D03*
X035709Y008995D03*
X035709Y009018D03*
X035709Y009048D03*
X035709Y009079D03*
X035709Y009102D03*
X035709Y009132D03*
X035709Y009155D03*
X035709Y009185D03*
X035709Y009208D03*
X035656Y009565D03*
X035656Y008562D03*
X034972Y008562D03*
X039737Y003918D03*
X039737Y003888D03*
X039737Y003865D03*
X039737Y003835D03*
X039737Y003812D03*
X039737Y003782D03*
X039737Y003759D03*
X039737Y003728D03*
X039737Y003698D03*
X039737Y003675D03*
X039737Y003645D03*
X040520Y003379D03*
X041303Y003645D03*
X041303Y003675D03*
X041303Y003698D03*
X041303Y003728D03*
X041303Y003759D03*
X041303Y003782D03*
X041303Y003812D03*
X041303Y003835D03*
X041303Y003865D03*
X041303Y003888D03*
X041303Y003918D03*
X034242Y003212D03*
X033573Y003295D03*
X033573Y003318D03*
X033566Y003265D03*
D61*
X033554Y003212D03*
X034413Y003835D03*
X035713Y003698D03*
X036458Y003592D03*
X036465Y003622D03*
X037066Y003675D03*
X037826Y003675D03*
X037826Y003698D03*
X037833Y003759D03*
X037833Y003782D03*
X037833Y003812D03*
X038426Y003538D03*
X039102Y003538D03*
X039741Y003538D03*
X039741Y003508D03*
X039741Y003485D03*
X039741Y003455D03*
X039741Y003432D03*
X039741Y003402D03*
X039741Y003379D03*
X039741Y003348D03*
X039741Y003569D03*
X039741Y003592D03*
X039741Y003622D03*
X041299Y003622D03*
X041299Y003592D03*
X041299Y003569D03*
X041299Y003538D03*
X041299Y003508D03*
X041299Y003485D03*
X041299Y003455D03*
X041299Y003432D03*
X041299Y003402D03*
X041299Y003379D03*
X041299Y003348D03*
X037826Y004329D03*
X037810Y004435D03*
X037066Y004435D03*
X036040Y005142D03*
X035660Y005469D03*
X033608Y004519D03*
X033600Y004458D03*
X033600Y004435D03*
X032946Y004245D03*
X032946Y004215D03*
X037757Y006905D03*
X039186Y006958D03*
X039186Y006989D03*
X039330Y007369D03*
X039741Y008372D03*
X039741Y008395D03*
X039741Y008425D03*
X039741Y008448D03*
X039741Y008478D03*
X039741Y008509D03*
X039741Y008532D03*
X039741Y008562D03*
X039741Y008585D03*
X039741Y008615D03*
X039741Y008638D03*
X039118Y008638D03*
X039110Y008615D03*
X038365Y008699D03*
X038365Y008722D03*
X037689Y008509D03*
X041299Y008509D03*
X041299Y008532D03*
X041299Y008562D03*
X041299Y008585D03*
X041299Y008615D03*
X041299Y008638D03*
X041299Y008478D03*
X041299Y008448D03*
X041299Y008425D03*
X041299Y008395D03*
X041299Y008372D03*
D62*
X037552Y009261D03*
X037172Y007240D03*
X033714Y004238D03*
X036298Y003364D03*
X038768Y003219D03*
D63*
X038407Y003584D03*
X038399Y003607D03*
X038399Y003614D03*
X039137Y003652D03*
X039137Y003660D03*
X040520Y003341D03*
X040520Y003333D03*
X040520Y003326D03*
X041310Y004222D03*
X041310Y004230D03*
X041310Y004238D03*
X041310Y004253D03*
X041310Y004260D03*
X041310Y004276D03*
X041310Y004283D03*
X041310Y004291D03*
X041310Y004306D03*
X041310Y004314D03*
X041310Y004321D03*
X041310Y004336D03*
X041310Y004344D03*
X041310Y004359D03*
X041310Y004367D03*
X041310Y004374D03*
X041310Y004390D03*
X041310Y004397D03*
X041310Y004412D03*
X041310Y004420D03*
X041310Y004428D03*
X041310Y004443D03*
X041310Y004450D03*
X041310Y004466D03*
X041310Y004473D03*
X041310Y004481D03*
X041310Y004496D03*
X041310Y004504D03*
X039729Y004504D03*
X039729Y004496D03*
X039729Y004481D03*
X039729Y004473D03*
X039729Y004466D03*
X039729Y004450D03*
X039729Y004443D03*
X039729Y004428D03*
X039729Y004420D03*
X039729Y004412D03*
X039729Y004397D03*
X039729Y004390D03*
X039729Y004374D03*
X039729Y004367D03*
X039729Y004359D03*
X039729Y004344D03*
X039729Y004336D03*
X039729Y004321D03*
X039729Y004314D03*
X039729Y004306D03*
X039729Y004291D03*
X039729Y004283D03*
X039729Y004276D03*
X039729Y004260D03*
X039729Y004253D03*
X039729Y004238D03*
X039729Y004230D03*
X039729Y004222D03*
X039137Y004420D03*
X039137Y004428D03*
X038407Y004504D03*
X038399Y004481D03*
X038399Y004473D03*
X038399Y004466D03*
X036393Y005530D03*
X036393Y005537D03*
X035633Y005537D03*
X035633Y005552D03*
X036393Y006761D03*
X036393Y006776D03*
X036393Y006784D03*
X036393Y006791D03*
X036393Y006806D03*
X036393Y006814D03*
X036393Y006829D03*
X036393Y006837D03*
X036393Y006844D03*
X037153Y007376D03*
X040520Y008334D03*
X040520Y008349D03*
X040520Y008357D03*
X040520Y008364D03*
X036993Y008744D03*
X035686Y008676D03*
X035686Y008661D03*
X035686Y009444D03*
X035686Y009451D03*
X034957Y009520D03*
X039729Y009520D03*
X039729Y009504D03*
X039729Y009497D03*
X039729Y009489D03*
X039729Y009474D03*
X039729Y009466D03*
X039729Y009451D03*
X039729Y009444D03*
X039729Y009436D03*
X039729Y009421D03*
X039729Y009413D03*
X039729Y009406D03*
X039729Y009390D03*
X039729Y009383D03*
X039729Y009368D03*
X039729Y009360D03*
X039729Y009352D03*
X039729Y009337D03*
X039729Y009330D03*
X039729Y009314D03*
X039729Y009307D03*
X039729Y009299D03*
X039729Y009284D03*
X039729Y009276D03*
X039729Y009261D03*
X039729Y009254D03*
X039729Y009246D03*
X039729Y009231D03*
X041310Y009231D03*
X041310Y009246D03*
X041310Y009254D03*
X041310Y009261D03*
X041310Y009276D03*
X041310Y009284D03*
X041310Y009299D03*
X041310Y009307D03*
X041310Y009314D03*
X041310Y009330D03*
X041310Y009337D03*
X041310Y009352D03*
X041310Y009360D03*
X041310Y009368D03*
X041310Y009383D03*
X041310Y009390D03*
X041310Y009406D03*
X041310Y009413D03*
X041310Y009421D03*
X041310Y009436D03*
X041310Y009444D03*
X041310Y009451D03*
X041310Y009466D03*
X041310Y009474D03*
X041310Y009489D03*
X041310Y009497D03*
X041310Y009504D03*
X041310Y009520D03*
X034440Y003766D03*
X036317Y003219D03*
D64*
X036294Y003386D03*
X038764Y003227D03*
X033725Y004230D03*
X033991Y004884D03*
X038764Y004861D03*
D65*
X038449Y004580D03*
X037788Y004496D03*
X035728Y003614D03*
X036442Y003561D03*
X037651Y003227D03*
X034428Y003561D03*
X034421Y003546D03*
X033615Y003630D03*
X033615Y003637D03*
X033615Y004359D03*
X033615Y004367D03*
X033630Y004564D03*
X032931Y004321D03*
X035682Y005446D03*
X036351Y005446D03*
X036359Y006176D03*
X036351Y007019D03*
X037742Y006981D03*
X037050Y008494D03*
X037028Y008790D03*
X038380Y008630D03*
X039095Y008577D03*
X035629Y009596D03*
X034998Y008516D03*
D66*
X034972Y008554D03*
X034964Y008570D03*
X035656Y008554D03*
X035663Y008577D03*
X035709Y008904D03*
X035709Y008919D03*
X035709Y008927D03*
X035709Y008934D03*
X035709Y008950D03*
X035709Y008957D03*
X035709Y008972D03*
X035709Y008980D03*
X035709Y008988D03*
X035709Y009003D03*
X035709Y009010D03*
X035709Y009026D03*
X035709Y009033D03*
X035709Y009041D03*
X035709Y009056D03*
X035709Y009064D03*
X035709Y009071D03*
X035709Y009086D03*
X035709Y009094D03*
X035709Y009109D03*
X035709Y009117D03*
X035709Y009124D03*
X035709Y009140D03*
X035709Y009147D03*
X035709Y009162D03*
X035709Y009170D03*
X035709Y009178D03*
X035709Y009193D03*
X035709Y009200D03*
X035709Y009216D03*
X035663Y009542D03*
X035656Y009558D03*
X034979Y009573D03*
X034972Y009558D03*
X037677Y009634D03*
X037708Y009413D03*
X039737Y008934D03*
X039737Y008927D03*
X039737Y008919D03*
X039737Y008904D03*
X039737Y008896D03*
X039737Y008881D03*
X039737Y008874D03*
X039737Y008866D03*
X039737Y008851D03*
X039737Y008843D03*
X039737Y008836D03*
X039737Y008820D03*
X039737Y008813D03*
X039737Y008798D03*
X039737Y008790D03*
X039737Y008782D03*
X039737Y008767D03*
X039737Y008760D03*
X039737Y008744D03*
X039737Y008737D03*
X039737Y008729D03*
X039737Y008714D03*
X039737Y008706D03*
X039737Y008691D03*
X039737Y008684D03*
X039737Y008676D03*
X039737Y008661D03*
X039737Y008653D03*
X039737Y008646D03*
X040520Y008402D03*
X040520Y008387D03*
X040520Y008380D03*
X041303Y008646D03*
X041303Y008653D03*
X041303Y008661D03*
X041303Y008676D03*
X041303Y008684D03*
X041303Y008691D03*
X041303Y008706D03*
X041303Y008714D03*
X041303Y008729D03*
X041303Y008737D03*
X041303Y008744D03*
X041303Y008760D03*
X041303Y008767D03*
X041303Y008782D03*
X041303Y008790D03*
X041303Y008798D03*
X041303Y008813D03*
X041303Y008820D03*
X041303Y008836D03*
X041303Y008843D03*
X041303Y008851D03*
X041303Y008866D03*
X041303Y008874D03*
X041303Y008881D03*
X041303Y008896D03*
X041303Y008904D03*
X041303Y008919D03*
X041303Y008927D03*
X041303Y008934D03*
X038969Y008243D03*
X037001Y008760D03*
X037001Y006951D03*
X037001Y006943D03*
X037001Y006936D03*
X037001Y006920D03*
X037001Y006913D03*
X037001Y006898D03*
X037001Y006890D03*
X036378Y006943D03*
X036378Y006951D03*
X035618Y006867D03*
X035618Y006860D03*
X035618Y006844D03*
X035618Y006837D03*
X035618Y006829D03*
X035618Y006814D03*
X035618Y006806D03*
X035618Y006791D03*
X036393Y006434D03*
X036393Y006426D03*
X036393Y006411D03*
X036393Y006404D03*
X036393Y006396D03*
X036393Y006381D03*
X036393Y006373D03*
X036393Y006366D03*
X036393Y006350D03*
X036393Y006343D03*
X036385Y006328D03*
X036385Y006320D03*
X036385Y006312D03*
X036385Y006297D03*
X036385Y006290D03*
X035618Y006320D03*
X035618Y006328D03*
X035618Y006343D03*
X035618Y006350D03*
X035618Y006366D03*
X035618Y006373D03*
X035618Y006381D03*
X035618Y006396D03*
X036203Y005834D03*
X036385Y005499D03*
X036378Y005484D03*
X035656Y005484D03*
X035656Y005476D03*
X034394Y004504D03*
X034394Y004496D03*
X034402Y004450D03*
X033604Y004466D03*
X033604Y004473D03*
X033604Y004481D03*
X032950Y004207D03*
X032950Y004200D03*
X032950Y004184D03*
X032950Y004177D03*
X032950Y004169D03*
X032950Y004154D03*
X032950Y004146D03*
X034417Y003827D03*
X034417Y003820D03*
X034447Y003637D03*
X034447Y003630D03*
X033573Y003310D03*
X033573Y003303D03*
X033566Y003280D03*
X033566Y003272D03*
X033566Y003257D03*
X035709Y003713D03*
X035709Y003721D03*
X035709Y003736D03*
X035709Y003744D03*
X035709Y003751D03*
X036469Y003706D03*
X036469Y003690D03*
X036469Y003683D03*
X036469Y003668D03*
X036469Y003660D03*
X036469Y003652D03*
X037062Y003706D03*
X037062Y003713D03*
X037062Y003721D03*
X037062Y003736D03*
X037062Y003744D03*
X037829Y003744D03*
X037829Y003736D03*
X037829Y003721D03*
X037837Y003827D03*
X037837Y003842D03*
X037837Y003850D03*
X037837Y003858D03*
X037837Y003873D03*
X037837Y003880D03*
X037837Y003896D03*
X037837Y003903D03*
X037837Y003911D03*
X037837Y003926D03*
X037837Y003934D03*
X037837Y003941D03*
X037837Y003956D03*
X037837Y003964D03*
X037837Y003979D03*
X037837Y003987D03*
X037837Y003994D03*
X037837Y004010D03*
X037837Y004017D03*
X037837Y004032D03*
X037837Y004040D03*
X037837Y004048D03*
X037837Y004063D03*
X037837Y004070D03*
X037837Y004086D03*
X037837Y004093D03*
X037837Y004101D03*
X037837Y004116D03*
X037837Y004124D03*
X037837Y004131D03*
X037837Y004146D03*
X037837Y004154D03*
X037837Y004169D03*
X037837Y004177D03*
X037837Y004184D03*
X037837Y004200D03*
X037837Y004207D03*
X037829Y004222D03*
X037829Y004230D03*
X037829Y004238D03*
X037829Y004253D03*
X037829Y004260D03*
X037829Y004276D03*
X037829Y004283D03*
X037829Y004291D03*
X037829Y004306D03*
X037829Y004314D03*
X037829Y004321D03*
X037822Y004359D03*
X037822Y004367D03*
X037822Y004374D03*
X038377Y004291D03*
X038377Y004283D03*
X038377Y004276D03*
X038369Y004184D03*
X038369Y004177D03*
X038369Y004169D03*
X038369Y004154D03*
X038369Y004146D03*
X038369Y004131D03*
X038369Y004124D03*
X038369Y004116D03*
X038369Y004101D03*
X038369Y004093D03*
X038369Y004086D03*
X038369Y004070D03*
X038369Y004063D03*
X038369Y004048D03*
X038369Y004040D03*
X038369Y004032D03*
X038369Y004017D03*
X038369Y004010D03*
X038369Y003994D03*
X038369Y003987D03*
X038369Y003979D03*
X038369Y003964D03*
X038369Y003956D03*
X038369Y003941D03*
X038369Y003934D03*
X038369Y003926D03*
X038369Y003911D03*
X038369Y003903D03*
X038369Y003896D03*
X038377Y003820D03*
X038377Y003804D03*
X038377Y003797D03*
X038377Y003789D03*
X038415Y003561D03*
X038422Y003546D03*
X038430Y003531D03*
X039106Y003546D03*
X039114Y003561D03*
X039737Y003630D03*
X039737Y003637D03*
X039737Y003652D03*
X039737Y003660D03*
X039737Y003668D03*
X039737Y003683D03*
X039737Y003690D03*
X039737Y003706D03*
X039737Y003713D03*
X039737Y003721D03*
X039737Y003736D03*
X039737Y003744D03*
X039737Y003751D03*
X039737Y003766D03*
X039737Y003774D03*
X039737Y003789D03*
X039737Y003797D03*
X039737Y003804D03*
X039737Y003820D03*
X039737Y003827D03*
X039737Y003842D03*
X039737Y003850D03*
X039737Y003858D03*
X039737Y003873D03*
X039737Y003880D03*
X039737Y003896D03*
X039737Y003903D03*
X039737Y003911D03*
X039159Y003911D03*
X039159Y003903D03*
X039159Y003896D03*
X039159Y003926D03*
X039159Y003934D03*
X039159Y003941D03*
X039159Y003956D03*
X039159Y003964D03*
X039159Y003979D03*
X039159Y003987D03*
X039159Y003994D03*
X039159Y004010D03*
X039159Y004017D03*
X039159Y004032D03*
X039159Y004040D03*
X039159Y004048D03*
X039159Y004063D03*
X039159Y004070D03*
X039159Y004086D03*
X039159Y004093D03*
X039159Y004101D03*
X039159Y004116D03*
X039159Y004124D03*
X039159Y004131D03*
X039159Y004146D03*
X039159Y004154D03*
X039159Y004169D03*
X039159Y004177D03*
X039159Y004184D03*
X039152Y004260D03*
X039152Y004276D03*
X039152Y004283D03*
X039152Y004291D03*
X039114Y004526D03*
X038415Y004526D03*
X037062Y004397D03*
X037062Y004390D03*
X037062Y004374D03*
X039152Y003820D03*
X039152Y003804D03*
X039152Y003797D03*
X039152Y003789D03*
X040520Y003386D03*
X040520Y003371D03*
X040520Y003364D03*
X040520Y003356D03*
X041303Y003630D03*
X041303Y003637D03*
X041303Y003652D03*
X041303Y003660D03*
X041303Y003668D03*
X041303Y003683D03*
X041303Y003690D03*
X041303Y003706D03*
X041303Y003713D03*
X041303Y003721D03*
X041303Y003736D03*
X041303Y003744D03*
X041303Y003751D03*
X041303Y003766D03*
X041303Y003774D03*
X041303Y003789D03*
X041303Y003797D03*
X041303Y003804D03*
X041303Y003820D03*
X041303Y003827D03*
X041303Y003842D03*
X041303Y003850D03*
X041303Y003858D03*
X041303Y003873D03*
X041303Y003880D03*
X041303Y003896D03*
X041303Y003903D03*
X041303Y003911D03*
X036317Y003227D03*
X037761Y006844D03*
X037761Y006860D03*
X037761Y006867D03*
X037761Y006882D03*
X037761Y006890D03*
X039182Y006890D03*
X039182Y006898D03*
X039182Y006913D03*
X039182Y006920D03*
X039182Y006936D03*
X039182Y006943D03*
X039182Y006951D03*
X039942Y006890D03*
X039942Y006882D03*
X039942Y006867D03*
X039942Y006860D03*
X039942Y006844D03*
D67*
X039916Y007004D03*
X039216Y007050D03*
X037734Y007004D03*
X037035Y007050D03*
X036207Y007346D03*
X037666Y008494D03*
X037035Y008798D03*
X039087Y008570D03*
X035614Y009603D03*
X037354Y009922D03*
X036344Y006153D03*
X035644Y006176D03*
X034352Y004580D03*
X033623Y004344D03*
X034337Y003926D03*
X033623Y003599D03*
X034238Y003227D03*
X035736Y003599D03*
X037088Y003576D03*
X037795Y003561D03*
X037651Y003234D03*
X038464Y003500D03*
X039064Y003500D03*
X037780Y004511D03*
X037088Y004504D03*
X038464Y004587D03*
X039064Y004587D03*
D68*
X039881Y005294D03*
X039881Y005309D03*
X039881Y005317D03*
X041158Y005324D03*
X041158Y005340D03*
X041158Y005347D03*
X038764Y003234D03*
X037191Y008934D03*
X037518Y009231D03*
X039881Y010310D03*
X039881Y010318D03*
X039881Y010333D03*
X041158Y010340D03*
X041158Y010356D03*
X041158Y010363D03*
X041158Y010371D03*
D69*
X037696Y009390D03*
X038373Y008661D03*
X035637Y008524D03*
X037020Y007027D03*
X037750Y006951D03*
X036366Y006191D03*
X036366Y005461D03*
X033623Y004549D03*
X034383Y003880D03*
X036450Y003576D03*
X037073Y003614D03*
X036313Y003234D03*
X037073Y004466D03*
X037803Y004466D03*
D70*
X033558Y003234D03*
X039121Y008661D03*
X039121Y008676D03*
X039121Y008684D03*
X039121Y008691D03*
X039121Y008706D03*
X039121Y008714D03*
X038361Y008729D03*
X038361Y008737D03*
X038361Y008744D03*
X038361Y008760D03*
X038361Y008767D03*
X035701Y008813D03*
X035701Y008820D03*
X035701Y008836D03*
X035701Y008843D03*
X035701Y009284D03*
X035701Y009299D03*
X035701Y009307D03*
X035701Y009314D03*
D71*
X037199Y008942D03*
X037366Y008258D03*
X035314Y008258D03*
X035314Y009862D03*
X039889Y010242D03*
X041151Y010272D03*
X041151Y010295D03*
X041151Y005279D03*
X039889Y005248D03*
X039889Y005218D03*
X038764Y003242D03*
D72*
X037651Y003242D03*
D73*
X037799Y003569D03*
X036317Y003242D03*
X033619Y003622D03*
X033619Y004352D03*
X036203Y005849D03*
X040520Y003485D03*
X038969Y008258D03*
X040520Y008478D03*
X040520Y008509D03*
D74*
X037354Y009915D03*
X033661Y004595D03*
X034238Y003242D03*
D75*
X033558Y003242D03*
X035648Y005492D03*
X039121Y008668D03*
X039121Y008699D03*
X039121Y008722D03*
X038361Y008752D03*
X038361Y008775D03*
X035701Y008805D03*
X035701Y008828D03*
X035701Y009292D03*
D76*
X037218Y008957D03*
X037484Y009200D03*
X035318Y009854D03*
X039900Y010128D03*
X039900Y010143D03*
X039900Y010150D03*
X041139Y010166D03*
X041139Y010173D03*
X041139Y010181D03*
X037362Y008266D03*
X035318Y008266D03*
X039900Y005134D03*
X039900Y005127D03*
X039900Y005119D03*
X041139Y005150D03*
X041139Y005157D03*
X041139Y005172D03*
X038768Y003250D03*
D77*
X037647Y003250D03*
X037107Y003546D03*
X035755Y003561D03*
X034295Y003956D03*
X033642Y004314D03*
X033642Y003554D03*
X037761Y004526D03*
X037647Y004823D03*
X039334Y007331D03*
X038962Y008281D03*
X038407Y008577D03*
X037647Y009337D03*
D78*
X037670Y009360D03*
X035314Y009922D03*
X038392Y008600D03*
X038969Y008266D03*
X040520Y008516D03*
X040520Y008524D03*
X040520Y008539D03*
X040520Y008547D03*
X037366Y008197D03*
X039334Y007346D03*
X039912Y007019D03*
X037731Y007019D03*
X036340Y007034D03*
X036203Y005856D03*
X038764Y004906D03*
X034341Y004587D03*
X033627Y004336D03*
X032920Y004359D03*
X033627Y003584D03*
X034409Y003531D03*
X035739Y003584D03*
X036317Y003250D03*
X040520Y003500D03*
X040520Y003516D03*
X040520Y003523D03*
X040520Y003531D03*
D79*
X034235Y003250D03*
X036195Y005887D03*
X038962Y008296D03*
D80*
X037244Y008980D03*
X037457Y009178D03*
X039912Y010021D03*
X039912Y010036D03*
X039912Y010044D03*
X041128Y010059D03*
X041128Y010067D03*
X041128Y010074D03*
X036036Y005210D03*
X038764Y004830D03*
X039912Y005013D03*
X039912Y005020D03*
X041128Y005036D03*
X041128Y005043D03*
X041128Y005051D03*
X041128Y005066D03*
X038764Y003257D03*
D81*
X037647Y003257D03*
X036309Y003272D03*
X035762Y003554D03*
X034387Y003516D03*
X033649Y004306D03*
X032897Y004390D03*
X040520Y003637D03*
X040520Y003630D03*
X040520Y003614D03*
X039889Y007050D03*
X039334Y007323D03*
X037708Y007050D03*
X036203Y007323D03*
X040520Y008630D03*
X040520Y008646D03*
X040520Y008653D03*
X040520Y008661D03*
X037639Y009330D03*
D82*
X038396Y008592D03*
X038966Y008273D03*
X037157Y007346D03*
X037043Y007057D03*
X037727Y007027D03*
X039224Y007057D03*
X036040Y005150D03*
X033646Y004587D03*
X032916Y004367D03*
X034330Y003934D03*
X033630Y003576D03*
X035743Y003576D03*
X036427Y003546D03*
X037096Y003561D03*
X036313Y003257D03*
X037096Y004511D03*
D83*
X037647Y004792D03*
X038764Y004891D03*
X036195Y005894D03*
X033991Y004906D03*
X034257Y003979D03*
X034235Y003257D03*
X036309Y003288D03*
X037647Y003272D03*
X037366Y008212D03*
X038962Y008304D03*
X037085Y008843D03*
X037624Y009314D03*
D84*
X035314Y009839D03*
X036036Y005218D03*
X033779Y004192D03*
X038764Y003265D03*
D85*
X037647Y003265D03*
X040520Y003675D03*
X034273Y003972D03*
X040520Y008668D03*
D86*
X040520Y008615D03*
X039897Y007042D03*
X035663Y006145D03*
X037776Y003538D03*
X036309Y003265D03*
X040520Y003592D03*
D87*
X034231Y003265D03*
X036040Y005165D03*
D88*
X033786Y004184D03*
X038764Y003272D03*
X037275Y009010D03*
X035314Y009831D03*
D89*
X039346Y007278D03*
X038760Y004884D03*
X037643Y004770D03*
X034231Y003272D03*
D90*
X040520Y003280D03*
X040520Y003288D03*
X040520Y003303D03*
X040520Y003310D03*
X040520Y008296D03*
X040520Y008304D03*
X040520Y008311D03*
X040520Y008326D03*
X037723Y009451D03*
D91*
X037389Y009117D03*
X037381Y009109D03*
X037305Y009041D03*
X037297Y009033D03*
X038764Y004808D03*
X038764Y003280D03*
D92*
X037647Y003280D03*
X040520Y003721D03*
X040520Y003736D03*
X040520Y003744D03*
X040520Y003751D03*
X037161Y007300D03*
X040520Y008737D03*
X040520Y008744D03*
X040520Y008760D03*
X040520Y008767D03*
X037609Y009307D03*
D93*
X037077Y008836D03*
X040520Y008691D03*
X040520Y008684D03*
X040520Y008676D03*
X037161Y007316D03*
X036203Y007316D03*
X037647Y004808D03*
X040520Y003668D03*
X040520Y003660D03*
X040520Y003652D03*
X036309Y003280D03*
X033657Y003531D03*
X032889Y004397D03*
D94*
X033691Y004260D03*
X034231Y003280D03*
X036306Y003326D03*
X036040Y005172D03*
X036199Y007278D03*
X039346Y007262D03*
X037582Y009284D03*
D95*
X035314Y009816D03*
X035314Y008304D03*
X036036Y005233D03*
X038764Y004800D03*
X038764Y003288D03*
D96*
X037651Y003288D03*
X036306Y003303D03*
X034231Y003994D03*
X036199Y007293D03*
X037164Y007293D03*
X037354Y009900D03*
D97*
X035318Y008228D03*
X037172Y007262D03*
X039346Y007247D03*
X033699Y004253D03*
X034231Y003288D03*
D98*
X040520Y003295D03*
X040520Y008319D03*
X037723Y008562D03*
X037723Y009459D03*
D99*
X038764Y003295D03*
D100*
X037647Y003295D03*
X040520Y003759D03*
X040520Y003782D03*
X033680Y004268D03*
X039342Y007285D03*
X040520Y008775D03*
X040520Y008805D03*
X037100Y008858D03*
D101*
X036306Y003295D03*
D102*
X034227Y003295D03*
X040520Y003918D03*
X038764Y004868D03*
X037366Y008235D03*
X038954Y008372D03*
X040520Y008942D03*
X037563Y009269D03*
D103*
X035314Y009801D03*
X038764Y003303D03*
D104*
X037647Y003303D03*
X040520Y003797D03*
X040520Y003804D03*
X040520Y003820D03*
X040520Y003827D03*
X040520Y008813D03*
X040520Y008820D03*
X040520Y008836D03*
X040520Y008843D03*
D105*
X036195Y007240D03*
X036294Y003371D03*
X034227Y003303D03*
D106*
X038764Y003310D03*
X038764Y004777D03*
X035314Y008326D03*
X035314Y009793D03*
D107*
X037123Y008874D03*
X038954Y008349D03*
X037366Y008228D03*
X037168Y007270D03*
X036195Y007270D03*
X036302Y003333D03*
X037647Y003310D03*
D108*
X036309Y003310D03*
X033680Y003516D03*
X037647Y004777D03*
X040520Y003789D03*
X040520Y003774D03*
X040520Y003766D03*
X037366Y008220D03*
X038962Y008326D03*
X040520Y008782D03*
X040520Y008790D03*
X040520Y008798D03*
D109*
X037643Y003356D03*
X034223Y003310D03*
D110*
X034440Y003759D03*
X038399Y003622D03*
X039137Y003645D03*
X040520Y003348D03*
X040520Y003318D03*
X041310Y004215D03*
X041310Y004245D03*
X041310Y004268D03*
X041310Y004298D03*
X041310Y004329D03*
X041310Y004352D03*
X041310Y004382D03*
X041310Y004405D03*
X041310Y004435D03*
X041310Y004458D03*
X041310Y004488D03*
X039729Y004488D03*
X039729Y004458D03*
X039729Y004435D03*
X039729Y004405D03*
X039729Y004382D03*
X039729Y004352D03*
X039729Y004329D03*
X039729Y004298D03*
X039729Y004268D03*
X039729Y004245D03*
X039729Y004215D03*
X039137Y004435D03*
X035633Y005545D03*
X036393Y006768D03*
X036393Y006799D03*
X036393Y006822D03*
X036393Y006852D03*
X038969Y008235D03*
X040520Y008342D03*
X041310Y009238D03*
X041310Y009269D03*
X041310Y009292D03*
X041310Y009322D03*
X041310Y009345D03*
X041310Y009375D03*
X041310Y009398D03*
X041310Y009428D03*
X041310Y009459D03*
X041310Y009482D03*
X041310Y009512D03*
X039729Y009512D03*
X039729Y009482D03*
X039729Y009459D03*
X039729Y009428D03*
X039729Y009398D03*
X039729Y009375D03*
X039729Y009345D03*
X039729Y009322D03*
X039729Y009292D03*
X039729Y009269D03*
X039729Y009238D03*
X035686Y009459D03*
X034957Y009512D03*
X035686Y008668D03*
D111*
X038764Y003318D03*
D112*
X037643Y003318D03*
D113*
X036306Y003318D03*
X036199Y007285D03*
D114*
X039870Y005408D03*
X041170Y005438D03*
X034223Y003318D03*
X039870Y010432D03*
X041170Y010462D03*
D115*
X035314Y009770D03*
X038764Y004754D03*
X038764Y003326D03*
D116*
X037647Y003326D03*
X040520Y003873D03*
X040520Y003880D03*
X040520Y003896D03*
X036195Y007262D03*
X038954Y008357D03*
X040520Y008896D03*
X040520Y008904D03*
X037571Y009276D03*
X037130Y008881D03*
D117*
X037362Y008250D03*
X035318Y008250D03*
X035318Y009869D03*
X039878Y010340D03*
X039878Y010356D03*
X039878Y010363D03*
X039878Y010371D03*
X041162Y010386D03*
X041162Y010394D03*
X041162Y010401D03*
X041162Y005393D03*
X041162Y005378D03*
X041162Y005370D03*
X041162Y005362D03*
X039878Y005347D03*
X039878Y005340D03*
X039878Y005324D03*
X038760Y004853D03*
X033737Y004222D03*
X034223Y003326D03*
D118*
X038768Y003333D03*
D119*
X037647Y003333D03*
X040520Y003903D03*
X040520Y003911D03*
X040520Y003926D03*
X040520Y003934D03*
X036036Y005180D03*
X036195Y007247D03*
X040520Y008919D03*
X040520Y008927D03*
X040520Y008934D03*
X040520Y008950D03*
X035314Y009884D03*
D120*
X037506Y009223D03*
X034223Y003333D03*
D121*
X038764Y003341D03*
X038764Y004747D03*
X037358Y009763D03*
D122*
X037149Y008896D03*
X038950Y008380D03*
X037643Y003341D03*
D123*
X036302Y003341D03*
D124*
X033976Y003341D03*
D125*
X038764Y003348D03*
X037358Y009755D03*
X035314Y009755D03*
D126*
X037643Y003348D03*
D127*
X036298Y003348D03*
X033706Y004245D03*
X036199Y007255D03*
D128*
X033980Y003348D03*
D129*
X033858Y004124D03*
X033988Y004800D03*
X036032Y005286D03*
X038768Y003356D03*
X037362Y008364D03*
X037354Y009748D03*
X035318Y009748D03*
D130*
X036302Y003356D03*
D131*
X033980Y003356D03*
D132*
X038764Y003364D03*
X038764Y004724D03*
X037358Y009740D03*
D133*
X035314Y009877D03*
X039866Y010454D03*
X039866Y010470D03*
X039866Y010477D03*
X040520Y009003D03*
X038947Y008402D03*
X037366Y008243D03*
X035314Y008243D03*
X037176Y007217D03*
X039866Y005461D03*
X039866Y005454D03*
X039866Y005446D03*
X036036Y005188D03*
X040520Y003987D03*
X040520Y003979D03*
X037639Y003364D03*
D134*
X033984Y003364D03*
X033984Y003371D03*
D135*
X038764Y003371D03*
X038764Y004716D03*
X035314Y008387D03*
X035314Y009732D03*
D136*
X037537Y009246D03*
X039870Y010416D03*
X039870Y010424D03*
X039870Y010439D03*
X039870Y010447D03*
X041170Y010454D03*
X041170Y010470D03*
X041170Y010477D03*
X041170Y005461D03*
X041170Y005454D03*
X041170Y005446D03*
X039870Y005431D03*
X039870Y005423D03*
X039870Y005416D03*
X039870Y005400D03*
X037643Y003371D03*
D137*
X038764Y003379D03*
X038764Y004709D03*
X035314Y009725D03*
D138*
X037419Y003379D03*
D139*
X036298Y003379D03*
X039862Y005469D03*
X036192Y007232D03*
X038950Y008395D03*
X039862Y010485D03*
D140*
X033995Y003402D03*
X033988Y003379D03*
D141*
X038764Y003386D03*
X038764Y004694D03*
X038764Y004701D03*
X036028Y005309D03*
X035314Y008402D03*
X035314Y009717D03*
X037358Y009717D03*
D142*
X038722Y008433D03*
X038722Y008418D03*
X038722Y008410D03*
X037400Y007194D03*
X037400Y007186D03*
X037423Y004640D03*
X037423Y004633D03*
X037423Y003394D03*
X037423Y003386D03*
X036070Y003394D03*
X036070Y003409D03*
X036070Y003417D03*
D143*
X033991Y003386D03*
D144*
X034440Y003584D03*
X033604Y003736D03*
X033604Y003744D03*
X033604Y003751D03*
X033604Y003766D03*
X033604Y003774D03*
X033604Y003789D03*
X033604Y003797D03*
X033604Y003804D03*
X033604Y003820D03*
X033604Y003827D03*
X033604Y003842D03*
X033604Y003850D03*
X033604Y003858D03*
X033604Y003873D03*
X033604Y003880D03*
X033604Y003896D03*
X033604Y003903D03*
X033604Y003911D03*
X033604Y003926D03*
X033604Y003934D03*
X033604Y003941D03*
X033604Y003956D03*
X033604Y003964D03*
X033604Y003979D03*
X033604Y003987D03*
X033604Y003994D03*
X034387Y003873D03*
X033604Y004397D03*
X033604Y004412D03*
X032943Y004276D03*
X032943Y004260D03*
X032943Y004253D03*
X035717Y003668D03*
X035717Y003660D03*
X036454Y003584D03*
X037069Y003630D03*
X037069Y003637D03*
X037069Y003652D03*
X037069Y004443D03*
X037069Y004450D03*
X037807Y004450D03*
X037807Y004443D03*
X037647Y004861D03*
X036203Y005841D03*
X036370Y006206D03*
X036370Y006214D03*
X037753Y006936D03*
X037753Y006943D03*
X037016Y007019D03*
X036370Y006981D03*
X036363Y006996D03*
X036203Y007361D03*
X037366Y008190D03*
X037039Y008501D03*
X038369Y008676D03*
X038369Y008684D03*
X038369Y008691D03*
X039106Y008600D03*
X039114Y008623D03*
X040520Y008433D03*
X040520Y008418D03*
X040520Y008410D03*
X039190Y006996D03*
X034979Y008539D03*
X037670Y009641D03*
X040520Y003417D03*
X040520Y003409D03*
X040520Y003394D03*
D145*
X038768Y003394D03*
X033881Y004101D03*
X033988Y004777D03*
X037362Y008402D03*
X037362Y009710D03*
X035318Y009710D03*
D146*
X033995Y003394D03*
D147*
X038764Y003402D03*
X038764Y004678D03*
X037358Y009702D03*
X035314Y009702D03*
D148*
X038722Y008425D03*
X037400Y007202D03*
X037423Y004648D03*
X037423Y004625D03*
X037423Y003402D03*
X036070Y003402D03*
D149*
X033889Y004093D03*
X033988Y004770D03*
X038768Y003409D03*
X037362Y008410D03*
X037362Y009694D03*
X035318Y009694D03*
D150*
X038726Y008456D03*
X038726Y008440D03*
X037396Y007171D03*
X037396Y007164D03*
X037396Y007156D03*
X037427Y004618D03*
X037427Y004610D03*
X037427Y004602D03*
X037427Y004587D03*
X037427Y003424D03*
X037427Y003417D03*
X037427Y003409D03*
D151*
X033999Y003409D03*
X033999Y003417D03*
D152*
X033893Y004086D03*
X038764Y004663D03*
X038764Y004671D03*
X038764Y003417D03*
X037366Y008418D03*
X035314Y008433D03*
X035314Y009679D03*
X035314Y009687D03*
D153*
X040520Y008471D03*
X040520Y008463D03*
X040520Y008456D03*
X040520Y008440D03*
X040520Y003447D03*
X040520Y003440D03*
X040520Y003424D03*
D154*
X038768Y003424D03*
X033988Y004754D03*
X037362Y009679D03*
D155*
X035983Y007164D03*
X035983Y007156D03*
X039577Y007156D03*
X039577Y007164D03*
X039577Y007171D03*
X035983Y006046D03*
X035983Y006031D03*
X033991Y004640D03*
X033991Y004633D03*
X036074Y003440D03*
X036074Y003424D03*
D156*
X034003Y003424D03*
X034003Y003440D03*
D157*
X040520Y003432D03*
X040520Y003455D03*
X040520Y008448D03*
D158*
X035314Y008448D03*
X035314Y009672D03*
X038764Y004648D03*
X038764Y003432D03*
X033900Y004078D03*
D159*
X036078Y003455D03*
X037430Y003432D03*
X037430Y004572D03*
X037392Y007148D03*
X039574Y007148D03*
X038730Y008478D03*
D160*
X039577Y007179D03*
X035983Y007148D03*
X035983Y006039D03*
X033991Y004648D03*
X036074Y003432D03*
D161*
X034003Y003432D03*
D162*
X038764Y003440D03*
X038764Y004656D03*
X035314Y008440D03*
X035314Y009664D03*
D163*
X038730Y008494D03*
X038730Y008486D03*
X038730Y008471D03*
X038730Y008463D03*
X039574Y007141D03*
X039574Y007133D03*
X039574Y007126D03*
X037392Y007126D03*
X037392Y007133D03*
X037392Y007141D03*
X037430Y004580D03*
X037430Y004564D03*
X037430Y004557D03*
X037430Y004549D03*
X036078Y003478D03*
X036078Y003470D03*
X036078Y003462D03*
X036078Y003447D03*
X037430Y003447D03*
X037430Y003440D03*
D164*
X038764Y003447D03*
X038764Y004633D03*
X038764Y004640D03*
X035314Y008463D03*
X037358Y009656D03*
D165*
X034007Y003470D03*
X034007Y003462D03*
X034007Y003447D03*
D166*
X038764Y003455D03*
X035314Y009649D03*
D167*
X038734Y008532D03*
X038734Y008509D03*
X037389Y007118D03*
X037389Y007095D03*
X037434Y004542D03*
X033991Y004625D03*
X036081Y003508D03*
X036081Y003485D03*
X037434Y003485D03*
X037434Y003455D03*
D168*
X034007Y003455D03*
D169*
X033619Y003607D03*
X033619Y003614D03*
X034356Y003911D03*
X032927Y004336D03*
X032927Y004344D03*
X037647Y004846D03*
X037784Y004504D03*
X040520Y003493D03*
X040520Y003478D03*
X040520Y003470D03*
X040520Y003462D03*
X036347Y006160D03*
X035641Y006183D03*
X035641Y007004D03*
X036347Y007027D03*
X037153Y007354D03*
X039919Y006996D03*
X040520Y008486D03*
X040520Y008494D03*
X040520Y008501D03*
X037677Y009368D03*
X035010Y009603D03*
D170*
X035318Y009641D03*
X037362Y008463D03*
X037362Y008456D03*
X036024Y005362D03*
X033988Y004739D03*
X033912Y004063D03*
X038768Y003462D03*
D171*
X037434Y003462D03*
X037434Y003470D03*
X037434Y003478D03*
X036081Y003493D03*
X036081Y003500D03*
X036081Y003516D03*
X036081Y003523D03*
X037434Y004534D03*
X033991Y004610D03*
X033991Y004618D03*
X037389Y007080D03*
X037389Y007088D03*
X037389Y007103D03*
X037389Y007110D03*
X038734Y008501D03*
X038734Y008516D03*
X038734Y008524D03*
X038734Y008539D03*
D172*
X038764Y004618D03*
X038764Y004610D03*
X038764Y003478D03*
X038764Y003470D03*
D173*
X034010Y003478D03*
D174*
X038764Y003485D03*
X038764Y004595D03*
D175*
X034014Y003485D03*
D176*
X033923Y004048D03*
X038764Y003493D03*
X036021Y005378D03*
X035314Y008501D03*
X035314Y009611D03*
D177*
X038738Y008554D03*
X038738Y008547D03*
X037385Y007072D03*
X033995Y004602D03*
X036085Y003531D03*
X037438Y003531D03*
X037438Y003523D03*
X037438Y003516D03*
X037438Y003500D03*
X037438Y003493D03*
D178*
X034014Y003493D03*
X034014Y003500D03*
D179*
X033627Y003592D03*
X037647Y004838D03*
X040520Y003508D03*
X040520Y008532D03*
D180*
X039923Y006989D03*
X034360Y004572D03*
X039080Y003508D03*
D181*
X038449Y003508D03*
X037081Y003592D03*
X035728Y003622D03*
X033615Y003645D03*
X032931Y004329D03*
X037081Y004488D03*
X037795Y004488D03*
X037742Y006989D03*
X037028Y007042D03*
X039209Y007042D03*
X038380Y008638D03*
X037681Y009375D03*
D182*
X037385Y007065D03*
X037438Y003508D03*
X036085Y003538D03*
D183*
X034018Y003508D03*
D184*
X034402Y003523D03*
X034318Y003941D03*
X032912Y004374D03*
X037647Y004830D03*
X037784Y003546D03*
X035656Y006153D03*
X037662Y009352D03*
D185*
X038399Y008585D03*
X040520Y008585D03*
X040520Y008562D03*
X037100Y004519D03*
X040520Y003569D03*
X040520Y003538D03*
D186*
X037119Y003538D03*
X033653Y004298D03*
X037066Y008828D03*
D187*
X035614Y008509D03*
X035014Y008509D03*
X035644Y007012D03*
X037734Y007012D03*
X039916Y007012D03*
X035644Y006168D03*
X032924Y004352D03*
X034413Y003538D03*
X035736Y003592D03*
X037088Y003569D03*
D188*
X037100Y003554D03*
X040520Y003554D03*
X040520Y003561D03*
X040520Y003546D03*
X036203Y005864D03*
X040520Y008554D03*
X040520Y008570D03*
X040520Y008577D03*
D189*
X037696Y007057D03*
X035774Y003546D03*
D190*
X033646Y003546D03*
X037157Y007331D03*
D191*
X037765Y006837D03*
X037765Y006829D03*
X037765Y006814D03*
X037765Y006806D03*
X037765Y006791D03*
X037765Y006784D03*
X037765Y006776D03*
X037765Y006761D03*
X037765Y006753D03*
X037765Y006746D03*
X037765Y006730D03*
X037765Y006723D03*
X037765Y006708D03*
X037765Y006700D03*
X037765Y006692D03*
X037765Y006677D03*
X037765Y006670D03*
X037765Y006654D03*
X037765Y006647D03*
X037765Y006639D03*
X037765Y006624D03*
X037765Y006616D03*
X037765Y006601D03*
X037765Y006594D03*
X037765Y006586D03*
X037765Y006571D03*
X037765Y006563D03*
X037765Y006556D03*
X037765Y006540D03*
X037765Y006533D03*
X037765Y006518D03*
X037765Y006510D03*
X037765Y006502D03*
X037765Y006487D03*
X037765Y006480D03*
X037765Y006464D03*
X037765Y006457D03*
X037765Y006449D03*
X037765Y006434D03*
X037765Y006426D03*
X037765Y006411D03*
X037765Y006404D03*
X037765Y006396D03*
X037765Y006381D03*
X037765Y006373D03*
X037765Y006366D03*
X037765Y006350D03*
X037765Y006343D03*
X037765Y006328D03*
X037765Y006320D03*
X037765Y006312D03*
X037765Y006297D03*
X037765Y006290D03*
X037765Y006274D03*
X037765Y006267D03*
X037765Y006259D03*
X037765Y006244D03*
X037765Y006236D03*
X037765Y006221D03*
X037765Y006214D03*
X037765Y006206D03*
X037765Y006191D03*
X037765Y006183D03*
X037765Y006176D03*
X037765Y006160D03*
X037765Y006153D03*
X037765Y006138D03*
X037765Y006130D03*
X037765Y006122D03*
X037765Y006107D03*
X037765Y006100D03*
X037765Y006084D03*
X037765Y006077D03*
X037765Y006069D03*
X037765Y006054D03*
X037765Y006046D03*
X037765Y006031D03*
X037765Y006024D03*
X037765Y006016D03*
X037765Y006001D03*
X037765Y005993D03*
X037765Y005986D03*
X037765Y005970D03*
X037765Y005963D03*
X037765Y005948D03*
X037765Y005940D03*
X037765Y005932D03*
X037765Y005917D03*
X037765Y005910D03*
X037765Y005894D03*
X037765Y005887D03*
X037765Y005879D03*
X037765Y005864D03*
X037765Y005856D03*
X037765Y005841D03*
X037765Y005834D03*
X037765Y005826D03*
X037765Y005811D03*
X037765Y005803D03*
X037765Y005796D03*
X037765Y005780D03*
X037765Y005773D03*
X037765Y005758D03*
X037765Y005750D03*
X037765Y005742D03*
X037765Y005727D03*
X037765Y005720D03*
X037765Y005704D03*
X037765Y005697D03*
X037058Y005461D03*
X037058Y005454D03*
X037058Y005446D03*
X037058Y005431D03*
X037058Y005423D03*
X037058Y005416D03*
X037058Y005400D03*
X037058Y005393D03*
X037058Y005378D03*
X037058Y005370D03*
X037058Y005362D03*
X037058Y005347D03*
X037058Y005340D03*
X037058Y005324D03*
X037058Y005317D03*
X037058Y005309D03*
X037058Y005294D03*
X037058Y005286D03*
X037058Y005271D03*
X037058Y005264D03*
X037058Y005256D03*
X037058Y005241D03*
X037058Y005233D03*
X037058Y005226D03*
X037058Y005210D03*
X037058Y005203D03*
X037058Y005188D03*
X037058Y005180D03*
X037058Y005172D03*
X037058Y005157D03*
X037058Y005150D03*
X037058Y005134D03*
X037058Y005127D03*
X037058Y005119D03*
X037058Y005104D03*
X037058Y005096D03*
X037058Y005081D03*
X037058Y005074D03*
X037058Y005066D03*
X037058Y005051D03*
X037058Y005043D03*
X037058Y005036D03*
X037058Y005020D03*
X037058Y005013D03*
X037058Y004998D03*
X037058Y004990D03*
X037058Y004982D03*
X037058Y004967D03*
X037058Y004960D03*
X037058Y004944D03*
X037058Y004937D03*
X037058Y004929D03*
X037058Y004914D03*
X037058Y004906D03*
X037058Y004891D03*
X037058Y004884D03*
X037058Y004876D03*
X037058Y004861D03*
X037058Y004853D03*
X037058Y004846D03*
X037058Y004830D03*
X037058Y004823D03*
X037058Y004808D03*
X037058Y004800D03*
X037058Y004792D03*
X037058Y004777D03*
X037058Y004770D03*
X037058Y004754D03*
X035705Y004754D03*
X035705Y004747D03*
X035705Y004739D03*
X035705Y004724D03*
X035705Y004716D03*
X035705Y004701D03*
X035705Y004694D03*
X035705Y004686D03*
X035705Y004671D03*
X035705Y004663D03*
X035705Y004656D03*
X035705Y004640D03*
X035705Y004633D03*
X035705Y004618D03*
X035705Y004610D03*
X035705Y004602D03*
X035705Y004587D03*
X035705Y004580D03*
X035705Y004564D03*
X035705Y004557D03*
X035705Y004549D03*
X035705Y004534D03*
X035705Y004526D03*
X035705Y004511D03*
X035705Y004504D03*
X035705Y004496D03*
X035705Y004481D03*
X035705Y004473D03*
X035705Y004466D03*
X035705Y004450D03*
X035705Y004443D03*
X035705Y004428D03*
X035705Y004420D03*
X035705Y004412D03*
X035705Y004397D03*
X035705Y004390D03*
X035705Y004374D03*
X035705Y004367D03*
X035705Y004359D03*
X035705Y004344D03*
X035705Y004336D03*
X035705Y004321D03*
X035705Y004314D03*
X035705Y004306D03*
X035705Y004291D03*
X035705Y004283D03*
X035705Y004276D03*
X035705Y004260D03*
X035705Y004253D03*
X035705Y004238D03*
X035705Y004230D03*
X035705Y004222D03*
X035705Y004207D03*
X035705Y004200D03*
X035705Y004184D03*
X035705Y004177D03*
X035705Y004169D03*
X035705Y004154D03*
X035705Y004146D03*
X035705Y004131D03*
X035705Y004124D03*
X035705Y004116D03*
X035705Y004101D03*
X035705Y004093D03*
X035705Y004086D03*
X035705Y004070D03*
X035705Y004063D03*
X035705Y004048D03*
X035705Y004040D03*
X035705Y004032D03*
X035705Y004017D03*
X035705Y004010D03*
X035705Y003994D03*
X035705Y003987D03*
X035705Y003979D03*
X035705Y003964D03*
X035705Y003956D03*
X035705Y003941D03*
X035705Y003934D03*
X035705Y003926D03*
X035705Y003911D03*
X035705Y003903D03*
X035705Y003896D03*
X035705Y003880D03*
X035705Y003873D03*
X035705Y003858D03*
X035705Y003850D03*
X035705Y003842D03*
X035705Y003827D03*
X035705Y003820D03*
X035705Y003804D03*
X035705Y003797D03*
X035705Y003789D03*
X035705Y003774D03*
X035705Y003766D03*
X037058Y003766D03*
X037058Y003774D03*
X037058Y003789D03*
X037058Y003797D03*
X037058Y003804D03*
X037058Y003820D03*
X037058Y003827D03*
X037058Y003842D03*
X037058Y003850D03*
X037058Y003751D03*
X038388Y003690D03*
X038388Y003683D03*
X038388Y003668D03*
X038418Y003554D03*
X039118Y003576D03*
X039125Y003599D03*
X039148Y003721D03*
X039148Y003736D03*
X039148Y003744D03*
X039148Y003751D03*
X039148Y003766D03*
X039148Y003774D03*
X039148Y004306D03*
X039148Y004314D03*
X039148Y004321D03*
X039148Y004336D03*
X039148Y004344D03*
X039148Y004359D03*
X039148Y004367D03*
X039125Y004481D03*
X039118Y004511D03*
X038418Y004534D03*
X038388Y004420D03*
X038388Y004412D03*
X038388Y004397D03*
X038388Y004390D03*
X037058Y004367D03*
X037058Y004359D03*
X037058Y004344D03*
X037058Y004336D03*
X037058Y004321D03*
X035705Y004770D03*
X035705Y004777D03*
X035705Y004792D03*
X035705Y004800D03*
X035705Y004808D03*
X035705Y004823D03*
X035705Y004830D03*
X035705Y004846D03*
X035705Y004853D03*
X035705Y004861D03*
X035705Y004876D03*
X035705Y004884D03*
X035705Y004891D03*
X034398Y004481D03*
X034398Y004473D03*
X034398Y004466D03*
X034428Y003804D03*
X034428Y003797D03*
X034451Y003706D03*
X034451Y003690D03*
X034451Y003683D03*
X034451Y003668D03*
X034451Y003660D03*
X034451Y003652D03*
X035644Y005499D03*
X035644Y005507D03*
X035622Y005613D03*
X039178Y005697D03*
X039178Y005704D03*
X039178Y005720D03*
X039178Y005727D03*
X039178Y005742D03*
X039178Y005750D03*
X039178Y005758D03*
X039178Y005773D03*
X039178Y005780D03*
X039178Y005796D03*
X039178Y005803D03*
X039178Y005811D03*
X039178Y005826D03*
X039178Y005834D03*
X039178Y005841D03*
X039178Y005856D03*
X039178Y005864D03*
X039178Y005879D03*
X039178Y005887D03*
X039178Y005894D03*
X039178Y005910D03*
X039178Y005917D03*
X039178Y005932D03*
X039178Y005940D03*
X039178Y005948D03*
X039178Y005963D03*
X039178Y005970D03*
X039178Y005986D03*
X039178Y005993D03*
X039178Y006001D03*
X039178Y006016D03*
X039178Y006024D03*
X039178Y006031D03*
X039178Y006046D03*
X039178Y006054D03*
X039178Y006069D03*
X039178Y006077D03*
X039178Y006084D03*
X039178Y006100D03*
X039178Y006107D03*
X039178Y006122D03*
X039178Y006130D03*
X039178Y006138D03*
X039178Y006153D03*
X039178Y006160D03*
X039178Y006176D03*
X039178Y006183D03*
X039178Y006191D03*
X039178Y006206D03*
X039178Y006214D03*
X039178Y006221D03*
X039178Y006236D03*
X039178Y006244D03*
X039178Y006259D03*
X039178Y006267D03*
X039178Y006274D03*
X039178Y006290D03*
X039178Y006297D03*
X039178Y006312D03*
X039178Y006320D03*
X039178Y006328D03*
X039178Y006343D03*
X039178Y006350D03*
X039178Y006366D03*
X039178Y006373D03*
X039178Y006381D03*
X039178Y006396D03*
X039178Y006404D03*
X039178Y006411D03*
X039178Y006426D03*
X039178Y006434D03*
X039178Y006449D03*
X039178Y006457D03*
X039178Y006464D03*
X039178Y006480D03*
X039178Y006487D03*
X039178Y006502D03*
X039178Y006510D03*
X039178Y006518D03*
X039178Y006533D03*
X039178Y006540D03*
X039178Y006556D03*
X039178Y006563D03*
X039178Y006571D03*
X039178Y006586D03*
X039178Y006594D03*
X039178Y006601D03*
X039178Y006616D03*
X039178Y006624D03*
X039178Y006639D03*
X039178Y006647D03*
X039178Y006654D03*
X039178Y006670D03*
X039178Y006677D03*
X039178Y006692D03*
X039178Y006700D03*
X039178Y006708D03*
X039178Y006723D03*
X039178Y006730D03*
X039178Y006746D03*
X039178Y006753D03*
X039178Y006761D03*
X039178Y006776D03*
X039178Y006784D03*
X039178Y006791D03*
X039178Y006806D03*
X039178Y006814D03*
X039178Y006829D03*
X039178Y006837D03*
X039178Y006844D03*
X039178Y006860D03*
X039178Y006867D03*
X039178Y006882D03*
X036382Y006913D03*
X036382Y006920D03*
X036382Y006936D03*
X036382Y008212D03*
X036382Y008220D03*
X036382Y008228D03*
X036382Y008243D03*
X036382Y008250D03*
X036382Y008266D03*
X036382Y008273D03*
X036382Y008281D03*
X036382Y008296D03*
X036382Y008304D03*
X036382Y008311D03*
X036382Y008326D03*
X036382Y008334D03*
X036382Y008349D03*
X036382Y008357D03*
X036382Y008364D03*
X036382Y008380D03*
X036382Y008387D03*
X036382Y008402D03*
X036382Y008410D03*
X036382Y008418D03*
X036382Y008433D03*
X036382Y008440D03*
X036382Y008456D03*
X036382Y008463D03*
X036382Y008471D03*
X036382Y008486D03*
X036382Y008494D03*
X036382Y008501D03*
X036382Y008516D03*
X036382Y008524D03*
X036382Y008539D03*
X036382Y008547D03*
X036382Y008554D03*
X036382Y008570D03*
X036382Y008577D03*
X036382Y008592D03*
X036382Y008600D03*
X036382Y008608D03*
X036382Y008623D03*
X036382Y008630D03*
X036382Y008646D03*
X036382Y008653D03*
X036382Y008661D03*
X036382Y008676D03*
X036382Y008684D03*
X036382Y008691D03*
X036382Y008706D03*
X036382Y008714D03*
X036382Y008729D03*
X036382Y008737D03*
X036382Y008744D03*
X036382Y008760D03*
X036382Y008767D03*
X036382Y008782D03*
X036382Y008790D03*
X036382Y008798D03*
X036382Y008813D03*
X036382Y008820D03*
X036382Y008836D03*
X036382Y008843D03*
X036382Y008851D03*
X036382Y008866D03*
X036382Y008874D03*
X036382Y008881D03*
X036382Y008896D03*
X036382Y008904D03*
X036382Y008919D03*
X036382Y008927D03*
X036382Y008934D03*
X036382Y008950D03*
X036382Y008957D03*
X036382Y008972D03*
X036382Y008980D03*
X036382Y008988D03*
X036382Y009003D03*
X036382Y009010D03*
X036382Y009026D03*
X036382Y009033D03*
X036382Y009041D03*
X036382Y009056D03*
X036382Y009064D03*
X036382Y009071D03*
X036382Y009086D03*
X036382Y009094D03*
X036382Y009109D03*
X036382Y009117D03*
X036382Y009124D03*
X036382Y009140D03*
X036382Y009147D03*
X036382Y009162D03*
X036382Y009170D03*
X036382Y009178D03*
X036382Y009193D03*
X036382Y009200D03*
X036382Y009216D03*
X036382Y009223D03*
X036382Y009231D03*
X036382Y009246D03*
X036382Y009254D03*
X036382Y009261D03*
X036382Y009276D03*
X036382Y009284D03*
X036382Y009299D03*
X036382Y009307D03*
X036382Y009314D03*
X036382Y009330D03*
X036382Y009337D03*
X036382Y009352D03*
X036382Y009360D03*
X036382Y009368D03*
X036382Y009383D03*
X036382Y009390D03*
X036382Y009406D03*
X036382Y009413D03*
X036382Y009421D03*
X036382Y009436D03*
X036382Y009444D03*
X036382Y009451D03*
X036382Y009466D03*
X036382Y009474D03*
X036382Y009489D03*
X036382Y009497D03*
X036382Y009504D03*
X036382Y009520D03*
X036382Y009527D03*
X036382Y009542D03*
X036382Y009550D03*
X036382Y009558D03*
X036382Y009573D03*
X036382Y009580D03*
X036382Y009596D03*
X036382Y009603D03*
X036382Y009611D03*
X036382Y009626D03*
X036382Y009634D03*
X036382Y009641D03*
X036382Y009656D03*
X036382Y009664D03*
X036382Y009679D03*
X036382Y009687D03*
X036382Y009694D03*
X036382Y009710D03*
X036382Y009717D03*
X036382Y009732D03*
X036382Y009740D03*
X036382Y009748D03*
X036382Y009763D03*
X036382Y009770D03*
X036382Y009786D03*
X036382Y009793D03*
X036382Y009801D03*
X036382Y009816D03*
X036382Y009824D03*
X036382Y009831D03*
X036382Y009846D03*
X036382Y009854D03*
X036382Y009869D03*
X036382Y009877D03*
X036382Y009884D03*
X036382Y009900D03*
X036382Y009907D03*
X036382Y010090D03*
X036382Y010097D03*
X036382Y010112D03*
X036382Y010120D03*
X036382Y010128D03*
X036382Y010143D03*
X036382Y010150D03*
X036382Y010166D03*
X036382Y010173D03*
X036382Y010181D03*
X036382Y010196D03*
X036382Y010204D03*
X036382Y010211D03*
X036382Y010226D03*
X036382Y010234D03*
X036382Y010249D03*
X036382Y010257D03*
X036382Y010264D03*
X036382Y010280D03*
X036382Y010287D03*
X036382Y010302D03*
X036382Y010310D03*
X036382Y010318D03*
X036382Y010333D03*
X036382Y010340D03*
X036382Y010356D03*
X036382Y010363D03*
X036382Y010371D03*
X036382Y010386D03*
X036382Y010394D03*
X036382Y010401D03*
X036382Y010416D03*
X036382Y010424D03*
X036382Y010439D03*
X036382Y010447D03*
X036382Y010454D03*
X036382Y010470D03*
X036382Y010477D03*
X036382Y010492D03*
X036382Y010500D03*
X038358Y009907D03*
X038358Y009900D03*
X038358Y009884D03*
X038358Y009877D03*
X038358Y009869D03*
X038358Y009854D03*
X038358Y009846D03*
X038358Y009831D03*
X038358Y009824D03*
X038358Y009816D03*
X038358Y009801D03*
X038358Y009793D03*
X038358Y009786D03*
X038358Y009770D03*
X038358Y009763D03*
X038358Y009748D03*
X038358Y009740D03*
X038358Y009732D03*
X038358Y009717D03*
X038358Y009710D03*
X038358Y009694D03*
X038358Y009687D03*
X038358Y009679D03*
X038358Y009664D03*
X038358Y009656D03*
X038358Y009641D03*
X038358Y009634D03*
X038358Y009626D03*
X038358Y009611D03*
X038358Y009603D03*
X038358Y009596D03*
X038358Y009580D03*
X038358Y009573D03*
X038358Y009558D03*
X038358Y009550D03*
X038358Y009542D03*
X038358Y009527D03*
X038358Y009520D03*
X038358Y009504D03*
X038358Y009497D03*
X038358Y009489D03*
X038358Y009474D03*
X038358Y009466D03*
X038358Y009451D03*
X038358Y009444D03*
X038358Y009436D03*
X038358Y009421D03*
X038358Y009413D03*
X038358Y009406D03*
X038358Y009390D03*
X038358Y009383D03*
X038358Y009368D03*
X038358Y009360D03*
X038358Y009352D03*
X038358Y009337D03*
X038358Y009330D03*
X038358Y009314D03*
X038358Y009307D03*
X038358Y009299D03*
X038358Y009284D03*
X038358Y009276D03*
X038358Y009261D03*
X038358Y009254D03*
X038358Y009246D03*
X038358Y009231D03*
X038358Y009223D03*
X038358Y009216D03*
X038358Y009200D03*
X038358Y009193D03*
X038358Y009178D03*
X038358Y009170D03*
X038358Y009162D03*
X038358Y009147D03*
X038358Y009140D03*
X038358Y009124D03*
X038358Y009117D03*
X038358Y009109D03*
X038358Y009094D03*
X038358Y009086D03*
X038358Y009071D03*
X038358Y009064D03*
X038358Y009056D03*
X038358Y009041D03*
X038358Y009033D03*
X038358Y009026D03*
X038358Y009010D03*
X038358Y009003D03*
X038358Y008988D03*
X038358Y008980D03*
X038358Y008972D03*
X038358Y008957D03*
X038358Y008950D03*
X038358Y008934D03*
X038358Y008927D03*
X038358Y008919D03*
X038358Y008904D03*
X038358Y008896D03*
X038358Y008881D03*
X038358Y008874D03*
X038358Y008866D03*
X038358Y008851D03*
X038358Y008843D03*
X038358Y008836D03*
X038358Y008820D03*
X038358Y008813D03*
X038358Y008798D03*
X038358Y008790D03*
X038358Y008782D03*
X039125Y008782D03*
X039125Y008790D03*
X039125Y008798D03*
X039125Y008813D03*
X039125Y008820D03*
X039125Y008836D03*
X039125Y008843D03*
X039125Y008851D03*
X039125Y008866D03*
X039125Y008874D03*
X039125Y008881D03*
X039125Y008896D03*
X039125Y008904D03*
X039125Y008919D03*
X039125Y008927D03*
X039125Y008934D03*
X039125Y008950D03*
X039125Y008957D03*
X039125Y008972D03*
X039125Y008980D03*
X039125Y008988D03*
X039125Y009003D03*
X039125Y009010D03*
X039125Y009026D03*
X039125Y009033D03*
X039125Y009041D03*
X039125Y009056D03*
X039125Y009064D03*
X039125Y009071D03*
X039125Y009086D03*
X039125Y009094D03*
X039125Y009109D03*
X039125Y009117D03*
X039125Y009124D03*
X039125Y009140D03*
X039125Y009147D03*
X039125Y009162D03*
X039125Y009170D03*
X039125Y009178D03*
X039125Y009193D03*
X039125Y009200D03*
X039125Y009216D03*
X039125Y009223D03*
X039125Y009231D03*
X039125Y009246D03*
X039125Y009254D03*
X039125Y009261D03*
X039125Y009276D03*
X039125Y009284D03*
X039125Y009299D03*
X039125Y009307D03*
X039125Y009314D03*
X039125Y009330D03*
X039125Y009337D03*
X039125Y009352D03*
X039125Y009360D03*
X039125Y009368D03*
X039125Y009383D03*
X039125Y009390D03*
X039125Y009406D03*
X039125Y009413D03*
X039125Y009421D03*
X039125Y009436D03*
X039125Y009444D03*
X039125Y009451D03*
X039125Y009466D03*
X039125Y009474D03*
X039125Y009489D03*
X039125Y009497D03*
X039125Y009504D03*
X039125Y009520D03*
X039125Y009527D03*
X039125Y009542D03*
X039125Y009550D03*
X039125Y009558D03*
X039125Y009573D03*
X039125Y009580D03*
X039125Y009596D03*
X039125Y009603D03*
X039125Y009611D03*
X039125Y009626D03*
X039125Y009634D03*
X039125Y009641D03*
X039125Y009656D03*
X039125Y009664D03*
X039125Y009679D03*
X039125Y009687D03*
X039125Y009694D03*
X039125Y009710D03*
X039125Y009717D03*
X039125Y009732D03*
X039125Y009740D03*
X039125Y009748D03*
X039125Y009763D03*
X039125Y009770D03*
X039125Y009786D03*
X039125Y009793D03*
X039125Y009801D03*
X039125Y009816D03*
X039125Y009824D03*
X039125Y009831D03*
X039125Y009846D03*
X039125Y009854D03*
X039125Y009869D03*
X039125Y009877D03*
X039125Y009884D03*
X039125Y009900D03*
X039125Y009907D03*
X037712Y009421D03*
X035705Y009276D03*
X035705Y009261D03*
X035705Y009254D03*
X035705Y009246D03*
X035705Y009231D03*
X035705Y009223D03*
X035698Y009330D03*
X035698Y009337D03*
X035698Y009352D03*
X035698Y009360D03*
X035698Y009368D03*
X035698Y009383D03*
X035675Y009504D03*
X034968Y009550D03*
X035705Y008896D03*
X035705Y008881D03*
X035705Y008874D03*
X035705Y008866D03*
X035705Y008851D03*
X035698Y008798D03*
X035698Y008790D03*
X035698Y008782D03*
X035698Y008767D03*
X035698Y008760D03*
X035698Y008744D03*
X035698Y008737D03*
X035675Y008608D03*
X034945Y008646D03*
X039125Y008729D03*
X039125Y008737D03*
X039125Y008744D03*
X039125Y008760D03*
X039125Y008767D03*
D192*
X035648Y007019D03*
X037791Y003554D03*
D193*
X036435Y003554D03*
X033638Y004580D03*
X040995Y005697D03*
X040995Y005704D03*
X040995Y005720D03*
X040995Y005727D03*
X040995Y005742D03*
X040995Y005750D03*
X040995Y005758D03*
X040995Y005773D03*
X040995Y005780D03*
X040995Y005796D03*
X040995Y005803D03*
X040995Y005811D03*
X040995Y005826D03*
X040995Y005834D03*
X040995Y005841D03*
X040995Y005856D03*
X040995Y005864D03*
X040995Y005879D03*
X040995Y005887D03*
X040995Y005894D03*
X040995Y005910D03*
X040995Y005917D03*
X040995Y005932D03*
X040995Y005940D03*
X040995Y005948D03*
X040995Y005963D03*
X040995Y005970D03*
X040995Y005986D03*
X040995Y005993D03*
X040995Y006001D03*
X040995Y006016D03*
X040995Y006024D03*
X040995Y006031D03*
X040995Y006046D03*
X040995Y006054D03*
X040995Y006069D03*
X040995Y006077D03*
X040995Y006084D03*
X040995Y006100D03*
X040995Y006107D03*
X040995Y006122D03*
X040995Y006130D03*
X040995Y006138D03*
X040995Y006153D03*
X040995Y006160D03*
X040995Y006176D03*
X040995Y006183D03*
X040995Y006191D03*
X040995Y006206D03*
X040995Y006214D03*
X040995Y006221D03*
X040995Y006236D03*
X040995Y006244D03*
X040995Y006259D03*
X040995Y006267D03*
X040995Y006274D03*
X040995Y006290D03*
X040995Y006297D03*
X040995Y006312D03*
X040995Y006320D03*
X040995Y006328D03*
X040995Y006343D03*
X040995Y006350D03*
X040995Y006366D03*
X040995Y006373D03*
X040995Y006381D03*
X040995Y006396D03*
X040995Y006404D03*
X040995Y006411D03*
X040995Y006426D03*
X040995Y006434D03*
X040995Y006449D03*
X040995Y006457D03*
X040995Y006464D03*
X040995Y006480D03*
X040995Y006487D03*
X040995Y006502D03*
X040995Y006510D03*
X040995Y006518D03*
X040995Y006533D03*
X040995Y006540D03*
X040995Y006556D03*
X040995Y006563D03*
X040995Y006571D03*
X040995Y006586D03*
X040995Y006594D03*
X040995Y006601D03*
X040995Y006616D03*
X040995Y006624D03*
X040995Y006639D03*
X040995Y006647D03*
X040995Y006654D03*
X040995Y006670D03*
X040995Y006677D03*
X040995Y006692D03*
X040995Y006700D03*
X040995Y006708D03*
X040995Y006723D03*
X040995Y006730D03*
X040995Y006746D03*
X040995Y006753D03*
X040995Y006761D03*
X040995Y006776D03*
X040995Y006784D03*
X040995Y006791D03*
X040995Y006806D03*
X040995Y006814D03*
X040995Y006829D03*
X040995Y006837D03*
X040995Y006844D03*
X040995Y006860D03*
X040995Y006867D03*
X040995Y006882D03*
X040995Y006890D03*
X040995Y006898D03*
X040995Y006913D03*
X040995Y006920D03*
X040995Y006936D03*
X040995Y006943D03*
X040995Y006951D03*
X040995Y006966D03*
X040995Y006974D03*
X040995Y006981D03*
X040995Y006996D03*
X040995Y007004D03*
X040995Y007019D03*
X040995Y007027D03*
X040995Y007034D03*
X040995Y007050D03*
X040995Y007057D03*
X040995Y007072D03*
X040995Y007080D03*
X040995Y007088D03*
X040995Y007103D03*
X040995Y007110D03*
X040995Y007126D03*
X040995Y007133D03*
X040995Y007141D03*
X040995Y007156D03*
X040995Y007164D03*
X040995Y007171D03*
X040995Y007186D03*
X040995Y007194D03*
X040995Y007209D03*
X040995Y007217D03*
X040995Y007224D03*
X040995Y007240D03*
X040995Y007247D03*
X040995Y007262D03*
X040995Y007270D03*
X040995Y007278D03*
X040995Y007293D03*
X040995Y007300D03*
X040995Y007316D03*
X040995Y007323D03*
X040995Y007331D03*
X040995Y007346D03*
X040995Y007354D03*
X040995Y007361D03*
X040995Y007376D03*
X040995Y007384D03*
X040995Y007399D03*
X040995Y007407D03*
X040995Y007414D03*
X040995Y007430D03*
X040995Y007437D03*
X040995Y007452D03*
X040995Y007460D03*
X040995Y007468D03*
X040995Y007483D03*
X040995Y007490D03*
X040995Y007506D03*
X040995Y007513D03*
X040995Y007521D03*
X040995Y007536D03*
X038388Y008608D03*
D194*
X038377Y008646D03*
X038377Y008653D03*
X037024Y008782D03*
X035625Y008516D03*
X037685Y009383D03*
X037153Y007361D03*
X037024Y007034D03*
X037746Y006974D03*
X037746Y006966D03*
X039205Y007034D03*
X039927Y006974D03*
X039927Y006966D03*
X039334Y007361D03*
X035633Y006981D03*
X035633Y006214D03*
X035633Y006206D03*
X036363Y006183D03*
X036363Y005454D03*
X037647Y004853D03*
X037799Y004481D03*
X037799Y004473D03*
X037077Y004473D03*
X037077Y004481D03*
X034364Y004564D03*
X033627Y004557D03*
X033611Y004374D03*
X032935Y004314D03*
X032935Y004306D03*
X034371Y003896D03*
X033611Y003668D03*
X033611Y003660D03*
X033611Y003652D03*
X034425Y003554D03*
X035724Y003630D03*
X035724Y003637D03*
X037077Y003607D03*
X037077Y003599D03*
X037807Y003584D03*
D195*
X033638Y003561D03*
X033638Y004321D03*
X033988Y004914D03*
X036328Y006138D03*
X035660Y007034D03*
X036207Y007331D03*
X037719Y007034D03*
X039900Y007034D03*
X037050Y008813D03*
D196*
X036382Y008805D03*
X036382Y008828D03*
X036382Y008858D03*
X036382Y008889D03*
X036382Y008912D03*
X036382Y008942D03*
X036382Y008965D03*
X036382Y008995D03*
X036382Y009018D03*
X036382Y009048D03*
X036382Y009079D03*
X036382Y009102D03*
X036382Y009132D03*
X036382Y009155D03*
X036382Y009185D03*
X036382Y009208D03*
X036382Y009238D03*
X036382Y009269D03*
X036382Y009292D03*
X036382Y009322D03*
X036382Y009345D03*
X036382Y009375D03*
X036382Y009398D03*
X036382Y009428D03*
X036382Y009459D03*
X036382Y009482D03*
X036382Y009512D03*
X036382Y009535D03*
X036382Y009565D03*
X036382Y009588D03*
X036382Y009618D03*
X036382Y009649D03*
X036382Y009672D03*
X036382Y009702D03*
X036382Y009725D03*
X036382Y009755D03*
X036382Y009778D03*
X036382Y009808D03*
X036382Y009839D03*
X036382Y009862D03*
X036382Y009892D03*
X036382Y009915D03*
X036382Y010105D03*
X036382Y010135D03*
X036382Y010158D03*
X036382Y010188D03*
X036382Y010219D03*
X036382Y010242D03*
X036382Y010272D03*
X036382Y010295D03*
X036382Y010325D03*
X036382Y010348D03*
X036382Y010378D03*
X036382Y010409D03*
X036382Y010432D03*
X036382Y010462D03*
X036382Y010485D03*
X038358Y009915D03*
X038358Y009892D03*
X038358Y009862D03*
X038358Y009839D03*
X038358Y009808D03*
X038358Y009778D03*
X038358Y009755D03*
X038358Y009725D03*
X038358Y009702D03*
X038358Y009672D03*
X038358Y009649D03*
X038358Y009618D03*
X038358Y009588D03*
X038358Y009565D03*
X038358Y009535D03*
X038358Y009512D03*
X038358Y009482D03*
X038358Y009459D03*
X038358Y009428D03*
X038358Y009398D03*
X038358Y009375D03*
X038358Y009345D03*
X038358Y009322D03*
X038358Y009292D03*
X038358Y009269D03*
X038358Y009238D03*
X038358Y009208D03*
X038358Y009185D03*
X038358Y009155D03*
X038358Y009132D03*
X038358Y009102D03*
X038358Y009079D03*
X038358Y009048D03*
X038358Y009018D03*
X038358Y008995D03*
X038358Y008965D03*
X038358Y008942D03*
X038358Y008912D03*
X038358Y008889D03*
X038358Y008858D03*
X038358Y008828D03*
X038358Y008805D03*
X039125Y008805D03*
X039125Y008828D03*
X039125Y008858D03*
X039125Y008889D03*
X039125Y008912D03*
X039125Y008942D03*
X039125Y008965D03*
X039125Y008995D03*
X039125Y009018D03*
X039125Y009048D03*
X039125Y009079D03*
X039125Y009102D03*
X039125Y009132D03*
X039125Y009155D03*
X039125Y009185D03*
X039125Y009208D03*
X039125Y009238D03*
X039125Y009269D03*
X039125Y009292D03*
X039125Y009322D03*
X039125Y009345D03*
X039125Y009375D03*
X039125Y009398D03*
X039125Y009428D03*
X039125Y009459D03*
X039125Y009482D03*
X039125Y009512D03*
X039125Y009535D03*
X039125Y009565D03*
X039125Y009588D03*
X039125Y009618D03*
X039125Y009649D03*
X039125Y009672D03*
X039125Y009702D03*
X039125Y009725D03*
X039125Y009755D03*
X039125Y009778D03*
X039125Y009808D03*
X039125Y009839D03*
X039125Y009862D03*
X039125Y009892D03*
X039125Y009915D03*
X035698Y009375D03*
X035698Y009345D03*
X035698Y009322D03*
X035705Y009269D03*
X035705Y009238D03*
X035675Y009512D03*
X035705Y008889D03*
X035705Y008858D03*
X035698Y008775D03*
X035698Y008752D03*
X035675Y008615D03*
X036382Y008615D03*
X036382Y008638D03*
X036382Y008668D03*
X036382Y008699D03*
X036382Y008722D03*
X036382Y008752D03*
X036382Y008775D03*
X036382Y008585D03*
X036382Y008562D03*
X036382Y008532D03*
X036382Y008509D03*
X036382Y008478D03*
X036382Y008448D03*
X036382Y008425D03*
X036382Y008395D03*
X036382Y008372D03*
X036382Y008342D03*
X036382Y008319D03*
X036382Y008288D03*
X036382Y008258D03*
X036382Y008235D03*
X036382Y008205D03*
X037028Y008509D03*
X039125Y008752D03*
X039125Y008775D03*
X039178Y006875D03*
X039178Y006852D03*
X039178Y006822D03*
X039178Y006799D03*
X039178Y006768D03*
X039178Y006738D03*
X039178Y006715D03*
X039178Y006685D03*
X039178Y006662D03*
X039178Y006632D03*
X039178Y006609D03*
X039178Y006578D03*
X039178Y006548D03*
X039178Y006525D03*
X039178Y006495D03*
X039178Y006472D03*
X039178Y006442D03*
X039178Y006419D03*
X039178Y006388D03*
X039178Y006358D03*
X039178Y006335D03*
X039178Y006305D03*
X039178Y006282D03*
X039178Y006252D03*
X039178Y006229D03*
X039178Y006198D03*
X039178Y006168D03*
X039178Y006145D03*
X039178Y006115D03*
X039178Y006092D03*
X039178Y006062D03*
X039178Y006039D03*
X039178Y006008D03*
X039178Y005978D03*
X039178Y005955D03*
X039178Y005925D03*
X039178Y005902D03*
X039178Y005872D03*
X039178Y005849D03*
X039178Y005818D03*
X039178Y005788D03*
X039178Y005765D03*
X039178Y005735D03*
X039178Y005712D03*
X037765Y005712D03*
X037765Y005735D03*
X037765Y005765D03*
X037765Y005788D03*
X037765Y005818D03*
X037765Y005849D03*
X037765Y005872D03*
X037765Y005902D03*
X037765Y005925D03*
X037765Y005955D03*
X037765Y005978D03*
X037765Y006008D03*
X037765Y006039D03*
X037765Y006062D03*
X037765Y006092D03*
X037765Y006115D03*
X037765Y006145D03*
X037765Y006168D03*
X037765Y006198D03*
X037765Y006229D03*
X037765Y006252D03*
X037765Y006282D03*
X037765Y006305D03*
X037765Y006335D03*
X037765Y006358D03*
X037765Y006388D03*
X037765Y006419D03*
X037765Y006442D03*
X037765Y006472D03*
X037765Y006495D03*
X037765Y006525D03*
X037765Y006548D03*
X037765Y006578D03*
X037765Y006609D03*
X037765Y006632D03*
X037765Y006662D03*
X037765Y006685D03*
X037765Y006715D03*
X037765Y006738D03*
X037765Y006768D03*
X037765Y006799D03*
X037765Y006822D03*
X036382Y006928D03*
X037058Y005469D03*
X037058Y005438D03*
X037058Y005408D03*
X037058Y005385D03*
X037058Y005355D03*
X037058Y005332D03*
X037058Y005302D03*
X037058Y005279D03*
X037058Y005248D03*
X037058Y005218D03*
X037058Y005195D03*
X037058Y005165D03*
X037058Y005142D03*
X037058Y005112D03*
X037058Y005089D03*
X037058Y005058D03*
X037058Y005028D03*
X037058Y005005D03*
X037058Y004975D03*
X037058Y004952D03*
X037058Y004922D03*
X037058Y004899D03*
X037058Y004868D03*
X037058Y004838D03*
X037058Y004815D03*
X037058Y004785D03*
X037058Y004762D03*
X035705Y004762D03*
X035705Y004785D03*
X035705Y004815D03*
X035705Y004838D03*
X035705Y004868D03*
X035705Y004899D03*
X035705Y004732D03*
X035705Y004709D03*
X035705Y004678D03*
X035705Y004648D03*
X035705Y004625D03*
X035705Y004595D03*
X035705Y004572D03*
X035705Y004542D03*
X035705Y004519D03*
X035705Y004488D03*
X035705Y004458D03*
X035705Y004435D03*
X035705Y004405D03*
X035705Y004382D03*
X035705Y004352D03*
X035705Y004329D03*
X035705Y004298D03*
X035705Y004268D03*
X035705Y004245D03*
X035705Y004215D03*
X035705Y004192D03*
X035705Y004162D03*
X035705Y004139D03*
X035705Y004108D03*
X035705Y004078D03*
X035705Y004055D03*
X035705Y004025D03*
X035705Y004002D03*
X035705Y003972D03*
X035705Y003949D03*
X035705Y003918D03*
X035705Y003888D03*
X035705Y003865D03*
X035705Y003835D03*
X035705Y003812D03*
X035705Y003782D03*
X037058Y003782D03*
X037058Y003759D03*
X037058Y003812D03*
X037058Y003835D03*
X038388Y003698D03*
X038388Y003675D03*
X039118Y003569D03*
X039125Y003592D03*
X039148Y003728D03*
X039148Y003759D03*
X039148Y003782D03*
X039148Y004329D03*
X039148Y004352D03*
X039125Y004488D03*
X039118Y004519D03*
X038388Y004405D03*
X037058Y004352D03*
X037058Y004329D03*
X034398Y004458D03*
X034451Y003698D03*
X034451Y003675D03*
X034451Y003645D03*
D197*
X034432Y003569D03*
X033611Y003675D03*
X036446Y003569D03*
X037807Y003592D03*
X033991Y004922D03*
X035633Y006198D03*
X035633Y006989D03*
X036355Y007012D03*
X039099Y008585D03*
X037655Y009649D03*
D198*
X039334Y007338D03*
X033634Y004329D03*
X033634Y003569D03*
X035747Y003569D03*
D199*
X040520Y003576D03*
X040520Y003584D03*
X040520Y003599D03*
X040520Y003607D03*
X040520Y008592D03*
X040520Y008600D03*
X040520Y008608D03*
X040520Y008623D03*
D200*
X036207Y007354D03*
X035637Y006996D03*
X035637Y006191D03*
X039923Y006981D03*
X039080Y004580D03*
X037803Y003576D03*
X034360Y003903D03*
D201*
X034447Y003736D03*
X034447Y003721D03*
X034447Y003713D03*
X037054Y003858D03*
X037054Y003873D03*
X037054Y003880D03*
X037054Y003896D03*
X037054Y003903D03*
X037054Y003911D03*
X037054Y003926D03*
X037054Y003934D03*
X037054Y003941D03*
X037054Y003956D03*
X037054Y003964D03*
X037054Y003979D03*
X037054Y003987D03*
X037054Y003994D03*
X037054Y004010D03*
X037054Y004017D03*
X037054Y004032D03*
X037054Y004040D03*
X037054Y004048D03*
X037054Y004063D03*
X037054Y004070D03*
X037054Y004086D03*
X037054Y004093D03*
X037054Y004101D03*
X037054Y004116D03*
X037054Y004124D03*
X037054Y004131D03*
X037054Y004146D03*
X037054Y004154D03*
X037054Y004169D03*
X037054Y004177D03*
X037054Y004184D03*
X037054Y004200D03*
X037054Y004207D03*
X037054Y004222D03*
X037054Y004230D03*
X037054Y004238D03*
X037054Y004253D03*
X037054Y004260D03*
X037054Y004276D03*
X037054Y004283D03*
X037054Y004291D03*
X037054Y004306D03*
X037054Y004314D03*
X038384Y004374D03*
X038392Y004428D03*
X038392Y004443D03*
X039121Y004496D03*
X039121Y004504D03*
X039129Y004473D03*
X039129Y004466D03*
X039144Y004374D03*
X039144Y003713D03*
X039129Y003614D03*
X039129Y003607D03*
X039121Y003584D03*
X038392Y003652D03*
X038392Y003660D03*
X038384Y003706D03*
X038384Y003713D03*
X036401Y005560D03*
X036401Y005568D03*
X036401Y005583D03*
X036401Y005590D03*
X036401Y005606D03*
X036401Y005613D03*
X035641Y005514D03*
X035625Y005568D03*
X035625Y005583D03*
X035625Y005590D03*
X035625Y005606D03*
X035618Y005621D03*
X035618Y005636D03*
X035618Y005644D03*
X035618Y005651D03*
X035618Y005666D03*
X035618Y005674D03*
X035618Y005689D03*
X035618Y005697D03*
X035618Y005704D03*
X039334Y007376D03*
X037715Y008539D03*
X035694Y008729D03*
X035679Y008630D03*
X035679Y008623D03*
X035671Y008600D03*
X034949Y008623D03*
X034949Y008630D03*
X034941Y008653D03*
X034941Y008661D03*
X034941Y008676D03*
X034941Y008684D03*
X034941Y008691D03*
X034934Y008714D03*
X034934Y008729D03*
X034934Y008737D03*
X034934Y008744D03*
X034934Y008760D03*
X034934Y008767D03*
X034934Y008782D03*
X034934Y008790D03*
X034934Y008798D03*
X034934Y008813D03*
X034934Y008820D03*
X034934Y008836D03*
X034934Y008843D03*
X034934Y008851D03*
X034934Y008866D03*
X034934Y008874D03*
X034949Y009474D03*
X034964Y009542D03*
X035671Y009520D03*
X035679Y009497D03*
X035679Y009489D03*
X035694Y009390D03*
X037031Y009634D03*
X037715Y009436D03*
D202*
X038384Y008623D03*
X039334Y007354D03*
X037738Y006996D03*
X037085Y004496D03*
X035732Y003607D03*
X037085Y003584D03*
D203*
X037054Y003865D03*
X037054Y003888D03*
X037054Y003918D03*
X037054Y003949D03*
X037054Y003972D03*
X037054Y004002D03*
X037054Y004025D03*
X037054Y004055D03*
X037054Y004078D03*
X037054Y004108D03*
X037054Y004139D03*
X037054Y004162D03*
X037054Y004192D03*
X037054Y004215D03*
X037054Y004245D03*
X037054Y004268D03*
X037054Y004298D03*
X038384Y004382D03*
X038392Y004435D03*
X038392Y003645D03*
X039129Y003622D03*
X034447Y003728D03*
X035625Y005575D03*
X035625Y005598D03*
X035618Y005628D03*
X035618Y005659D03*
X035618Y005682D03*
X036401Y005598D03*
X036401Y005575D03*
X036385Y006905D03*
X037708Y008532D03*
X035679Y008638D03*
X034949Y008638D03*
X034941Y008668D03*
X034941Y008699D03*
X034934Y008722D03*
X034934Y008752D03*
X034934Y008775D03*
X034934Y008805D03*
X034934Y008828D03*
X034934Y008858D03*
X035694Y009398D03*
X035679Y009482D03*
X034964Y009535D03*
X037715Y009428D03*
D204*
X037058Y009649D03*
X034991Y009588D03*
X037012Y008775D03*
X035629Y006958D03*
X035629Y006229D03*
X039931Y006958D03*
X039087Y004572D03*
X038441Y004572D03*
X037818Y003622D03*
X035720Y003645D03*
X034375Y003888D03*
X033608Y003728D03*
X033608Y003698D03*
X033608Y004382D03*
X033615Y004542D03*
X032939Y004298D03*
D205*
X037073Y004458D03*
X037073Y003622D03*
X036366Y006198D03*
X037750Y006958D03*
X038373Y008668D03*
X035637Y009588D03*
D206*
X040520Y008729D03*
X040520Y008714D03*
X040520Y008706D03*
X040520Y003713D03*
X040520Y003706D03*
X040520Y003690D03*
X040520Y003683D03*
D207*
X040520Y003698D03*
X040520Y008699D03*
X040520Y008722D03*
D208*
X040520Y008752D03*
X037647Y004785D03*
X040520Y003728D03*
D209*
X040520Y003812D03*
X037647Y004762D03*
X040520Y008828D03*
D210*
X040520Y008858D03*
X040520Y003865D03*
X040520Y003835D03*
D211*
X040520Y003842D03*
X040520Y003850D03*
X040520Y003858D03*
X040520Y008851D03*
X040520Y008866D03*
X040520Y008874D03*
X040520Y008881D03*
D212*
X037005Y006981D03*
X037005Y006974D03*
X037005Y006966D03*
X035622Y006920D03*
X035622Y006913D03*
X035622Y006898D03*
X035622Y006890D03*
X035622Y006882D03*
X035622Y006312D03*
X035622Y006297D03*
X035622Y006290D03*
X035622Y006274D03*
X035622Y006267D03*
X036382Y006267D03*
X036382Y006274D03*
X036382Y006259D03*
X039938Y006898D03*
X039938Y006913D03*
X039938Y006920D03*
X039095Y004557D03*
X037818Y004412D03*
X037818Y004397D03*
X037818Y004390D03*
X034398Y003858D03*
D213*
X040520Y003888D03*
X040520Y008889D03*
X040520Y008912D03*
D214*
X038388Y008615D03*
X040995Y007528D03*
X040995Y007498D03*
X040995Y007475D03*
X040995Y007445D03*
X040995Y007422D03*
X040995Y007392D03*
X040995Y007369D03*
X040995Y007338D03*
X040995Y007308D03*
X040995Y007285D03*
X040995Y007255D03*
X040995Y007232D03*
X040995Y007202D03*
X040995Y007179D03*
X040995Y007148D03*
X040995Y007118D03*
X040995Y007095D03*
X040995Y007065D03*
X040995Y007042D03*
X040995Y007012D03*
X040995Y006989D03*
X040995Y006958D03*
X040995Y006928D03*
X040995Y006905D03*
X040995Y006875D03*
X040995Y006852D03*
X040995Y006822D03*
X040995Y006799D03*
X040995Y006768D03*
X040995Y006738D03*
X040995Y006715D03*
X040995Y006685D03*
X040995Y006662D03*
X040995Y006632D03*
X040995Y006609D03*
X040995Y006578D03*
X040995Y006548D03*
X040995Y006525D03*
X040995Y006495D03*
X040995Y006472D03*
X040995Y006442D03*
X040995Y006419D03*
X040995Y006388D03*
X040995Y006358D03*
X040995Y006335D03*
X040995Y006305D03*
X040995Y006282D03*
X040995Y006252D03*
X040995Y006229D03*
X040995Y006198D03*
X040995Y006168D03*
X040995Y006145D03*
X040995Y006115D03*
X040995Y006092D03*
X040995Y006062D03*
X040995Y006039D03*
X040995Y006008D03*
X040995Y005978D03*
X040995Y005955D03*
X040995Y005925D03*
X040995Y005902D03*
X040995Y005872D03*
X040995Y005849D03*
X040995Y005818D03*
X040995Y005788D03*
X040995Y005765D03*
X040995Y005735D03*
X040995Y005712D03*
X034345Y003918D03*
D215*
X040520Y003941D03*
X040520Y003956D03*
X040520Y003964D03*
X038947Y008387D03*
X040520Y008957D03*
X040520Y008972D03*
X040520Y008980D03*
X040520Y008988D03*
D216*
X040520Y008965D03*
X040520Y003972D03*
X040520Y003949D03*
D217*
X034307Y003949D03*
X036328Y007042D03*
X037157Y007338D03*
X037658Y009345D03*
D218*
X037157Y007323D03*
X036199Y005879D03*
X036040Y005157D03*
X034284Y003964D03*
D219*
X040330Y003994D03*
X040330Y004010D03*
X040710Y004010D03*
X040710Y003994D03*
X039327Y007407D03*
X040330Y009010D03*
X040330Y009026D03*
X040710Y009026D03*
X040710Y009010D03*
D220*
X040710Y009018D03*
X040330Y009018D03*
X040330Y004002D03*
X040710Y004002D03*
D221*
X034212Y004002D03*
X033991Y004899D03*
X037594Y009292D03*
D222*
X035967Y005970D03*
X036021Y005431D03*
X033946Y004010D03*
D223*
X033942Y004017D03*
X033988Y004686D03*
X033988Y004694D03*
X037408Y004724D03*
D224*
X040311Y004108D03*
X040326Y004025D03*
X040714Y004025D03*
X040729Y004108D03*
X040714Y009048D03*
X040729Y009132D03*
X040326Y009048D03*
X040311Y009132D03*
D225*
X033934Y004025D03*
D226*
X033931Y004032D03*
X036021Y005393D03*
X036021Y005400D03*
X035952Y005917D03*
D227*
X033988Y004716D03*
X033927Y004040D03*
D228*
X032547Y004694D03*
X032547Y004701D03*
X040322Y004048D03*
X040717Y004048D03*
X037145Y007407D03*
X040322Y009064D03*
X040717Y009064D03*
D229*
X040721Y009079D03*
X040721Y009102D03*
X040318Y009102D03*
X040318Y009079D03*
X040318Y004078D03*
X040318Y004055D03*
X040721Y004055D03*
X040721Y004078D03*
D230*
X033915Y004055D03*
D231*
X032551Y004686D03*
X040318Y004086D03*
X040318Y004070D03*
X040318Y004063D03*
X040721Y004063D03*
X040721Y004070D03*
X040721Y004086D03*
X040721Y009071D03*
X040721Y009086D03*
X040721Y009094D03*
X040318Y009094D03*
X040318Y009086D03*
X040318Y009071D03*
D232*
X037362Y009664D03*
X035318Y009656D03*
X037362Y008440D03*
X037362Y008433D03*
X036024Y005347D03*
X033988Y004747D03*
X033904Y004070D03*
D233*
X032555Y004671D03*
X040277Y004306D03*
X040284Y004260D03*
X040284Y004253D03*
X040292Y004230D03*
X040292Y004222D03*
X040292Y004207D03*
X040292Y004200D03*
X040299Y004184D03*
X040299Y004177D03*
X040299Y004169D03*
X040307Y004131D03*
X040725Y004093D03*
X040733Y004131D03*
X040733Y004146D03*
X040740Y004169D03*
X040740Y004177D03*
X040740Y004184D03*
X040748Y004222D03*
X040748Y004230D03*
X040725Y009109D03*
X040733Y009147D03*
X040733Y009162D03*
X040740Y009178D03*
X040740Y009193D03*
X040740Y009200D03*
X040748Y009231D03*
X040748Y009246D03*
X040755Y009284D03*
X040299Y009200D03*
X040299Y009193D03*
X040299Y009178D03*
X040307Y009147D03*
X040292Y009216D03*
X040292Y009223D03*
X040292Y009231D03*
X040292Y009246D03*
X040284Y009261D03*
X040284Y009276D03*
X040284Y009284D03*
X040277Y009314D03*
D234*
X033874Y004108D03*
D235*
X033866Y004116D03*
X033988Y004792D03*
X036032Y005294D03*
X037362Y008380D03*
D236*
X037362Y008357D03*
X033851Y004131D03*
D237*
X032555Y004678D03*
X037647Y004899D03*
X040277Y004298D03*
X040284Y004268D03*
X040284Y004245D03*
X040292Y004215D03*
X040299Y004192D03*
X040299Y004162D03*
X040307Y004139D03*
X040733Y004139D03*
X040740Y004162D03*
X040740Y004192D03*
X040748Y004215D03*
X040755Y004268D03*
X040733Y009155D03*
X040740Y009185D03*
X040740Y009208D03*
X040748Y009238D03*
X040307Y009155D03*
X040299Y009185D03*
X040299Y009208D03*
X040292Y009238D03*
X040284Y009269D03*
X040277Y009322D03*
X037358Y009945D03*
D238*
X037362Y008342D03*
X033843Y004139D03*
D239*
X033836Y004146D03*
D240*
X033828Y004154D03*
X033988Y004823D03*
X036032Y005256D03*
X037362Y008326D03*
X037354Y009786D03*
D241*
X035314Y008319D03*
X038764Y004785D03*
X033817Y004162D03*
D242*
X033809Y004169D03*
X035314Y008311D03*
D243*
X037362Y008296D03*
X037324Y009056D03*
X037332Y009064D03*
X037339Y009071D03*
X037354Y009086D03*
X037362Y009094D03*
X037354Y009816D03*
X033988Y004846D03*
X033798Y004177D03*
D244*
X033767Y004200D03*
X032779Y004412D03*
X032779Y004420D03*
X032779Y004428D03*
X032779Y004443D03*
X032779Y004450D03*
X032779Y004466D03*
X032779Y004473D03*
X032779Y004481D03*
X032779Y004496D03*
X032779Y004504D03*
X032779Y004511D03*
X032779Y004526D03*
X032779Y004534D03*
X032779Y004549D03*
X032779Y004557D03*
X032779Y004564D03*
X032779Y004580D03*
X032779Y004587D03*
X032779Y004602D03*
X032779Y004610D03*
X032779Y004618D03*
X032779Y004633D03*
X032779Y004640D03*
X032779Y004656D03*
X032779Y004663D03*
X037233Y008972D03*
D245*
X039897Y010166D03*
X039897Y010173D03*
X039897Y010181D03*
X041143Y010196D03*
X041143Y010204D03*
X041143Y010211D03*
X041143Y010226D03*
X041143Y005210D03*
X041143Y005203D03*
X041143Y005188D03*
X041143Y005180D03*
X039897Y005172D03*
X039897Y005157D03*
X039897Y005150D03*
X036036Y005203D03*
X033756Y004207D03*
D246*
X033744Y004215D03*
X039885Y005279D03*
X041154Y005302D03*
X037354Y009862D03*
X039885Y010272D03*
X039885Y010295D03*
X041154Y010325D03*
D247*
X040182Y009801D03*
X040265Y009390D03*
X040265Y009383D03*
X040265Y009368D03*
X040288Y009254D03*
X040752Y009254D03*
X040752Y009261D03*
X040752Y009276D03*
X040151Y004929D03*
X040265Y004374D03*
X040265Y004367D03*
X040265Y004359D03*
X040288Y004238D03*
X040752Y004238D03*
X040752Y004253D03*
X040752Y004260D03*
D248*
X040752Y004245D03*
X040265Y004352D03*
X040182Y004785D03*
X040752Y009269D03*
X040265Y009375D03*
X040151Y009945D03*
D249*
X037092Y008851D03*
X039342Y007293D03*
X033672Y004276D03*
D250*
X033661Y004291D03*
X037651Y004800D03*
X039878Y007057D03*
X037354Y009907D03*
D251*
X040163Y009900D03*
X040163Y009884D03*
X040163Y009877D03*
X040170Y009869D03*
X040170Y009854D03*
X040170Y009846D03*
X040193Y009763D03*
X040193Y009748D03*
X040193Y009740D03*
X040193Y009732D03*
X040216Y009641D03*
X040216Y009634D03*
X040216Y009626D03*
X040223Y009611D03*
X040223Y009603D03*
X040223Y009596D03*
X040246Y009504D03*
X040246Y009497D03*
X040246Y009489D03*
X040246Y009474D03*
X040254Y009451D03*
X040254Y009444D03*
X040254Y009436D03*
X040763Y009337D03*
X040763Y009330D03*
X040786Y009466D03*
X040847Y009763D03*
X040877Y009907D03*
X039327Y007399D03*
X040163Y004884D03*
X040163Y004876D03*
X040163Y004861D03*
X040170Y004853D03*
X040170Y004846D03*
X040170Y004830D03*
X040193Y004747D03*
X040193Y004739D03*
X040193Y004724D03*
X040193Y004716D03*
X040216Y004633D03*
X040216Y004618D03*
X040216Y004610D03*
X040223Y004587D03*
X040223Y004580D03*
X040246Y004481D03*
X040246Y004473D03*
X040246Y004466D03*
X040254Y004443D03*
X040254Y004428D03*
X040254Y004420D03*
X040763Y004321D03*
X040763Y004314D03*
X040786Y004443D03*
X040786Y004450D03*
X040847Y004747D03*
X040877Y004891D03*
D252*
X040885Y004929D03*
X040862Y004823D03*
X040201Y004701D03*
X040201Y004694D03*
X040201Y004686D03*
X040208Y004671D03*
X040208Y004663D03*
X040208Y004656D03*
X040208Y004640D03*
X040231Y004564D03*
X040231Y004557D03*
X040231Y004549D03*
X040231Y004534D03*
X040239Y004526D03*
X040239Y004511D03*
X040239Y004504D03*
X040239Y004496D03*
X040261Y004390D03*
X040771Y004374D03*
X040771Y004367D03*
X040771Y004359D03*
X040778Y004390D03*
X040778Y004397D03*
X040778Y004412D03*
X040185Y004754D03*
X040185Y004770D03*
X040185Y004777D03*
X040178Y004792D03*
X040178Y004800D03*
X040178Y004808D03*
X040155Y004906D03*
X040155Y004914D03*
X038764Y004929D03*
X037145Y007399D03*
X040261Y009406D03*
X040239Y009520D03*
X040239Y009527D03*
X040239Y009542D03*
X040231Y009550D03*
X040231Y009558D03*
X040231Y009573D03*
X040231Y009580D03*
X040208Y009656D03*
X040208Y009664D03*
X040208Y009679D03*
X040208Y009687D03*
X040201Y009694D03*
X040201Y009710D03*
X040201Y009717D03*
X040185Y009770D03*
X040185Y009786D03*
X040185Y009793D03*
X040178Y009816D03*
X040178Y009824D03*
X040178Y009831D03*
X040155Y009922D03*
X040155Y009930D03*
X040155Y009938D03*
X040854Y009801D03*
X040778Y009421D03*
X040778Y009413D03*
X040778Y009406D03*
X040771Y009390D03*
X040771Y009383D03*
X040771Y009368D03*
D253*
X037005Y006989D03*
X037005Y006958D03*
X035622Y006905D03*
X035622Y006305D03*
X035622Y006282D03*
X036382Y006252D03*
X039938Y006905D03*
X037818Y004405D03*
X037818Y004382D03*
D254*
X034326Y004595D03*
X032905Y004382D03*
X037715Y007042D03*
D255*
X032376Y004397D03*
D256*
X032874Y004405D03*
X036195Y005902D03*
D257*
X032403Y004405D03*
D258*
X040782Y004420D03*
X040782Y004428D03*
X040797Y004496D03*
X040797Y004504D03*
X040797Y004511D03*
X040797Y004526D03*
X040805Y004534D03*
X040805Y004549D03*
X040805Y004557D03*
X040805Y004564D03*
X040812Y004580D03*
X040812Y004587D03*
X040828Y004640D03*
X040828Y004656D03*
X040828Y004663D03*
X040828Y004671D03*
X040835Y004686D03*
X040835Y004694D03*
X040835Y004701D03*
X040843Y004716D03*
X040843Y004724D03*
X040843Y004739D03*
X040850Y004754D03*
X040850Y004770D03*
X040850Y004777D03*
X040858Y004792D03*
X040858Y004800D03*
X040858Y004808D03*
X040866Y004830D03*
X040866Y004846D03*
X040866Y004853D03*
X040881Y004906D03*
X040881Y004914D03*
X040782Y009436D03*
X040782Y009444D03*
X040782Y009451D03*
X040797Y009520D03*
X040797Y009527D03*
X040797Y009542D03*
X040805Y009550D03*
X040805Y009558D03*
X040805Y009573D03*
X040805Y009580D03*
X040812Y009596D03*
X040812Y009603D03*
X040812Y009611D03*
X040828Y009656D03*
X040828Y009664D03*
X040828Y009679D03*
X040828Y009687D03*
X040835Y009694D03*
X040835Y009710D03*
X040835Y009717D03*
X040843Y009732D03*
X040843Y009740D03*
X040843Y009748D03*
X040850Y009770D03*
X040850Y009786D03*
X040850Y009793D03*
X040858Y009816D03*
X040858Y009824D03*
X040858Y009831D03*
X040866Y009846D03*
X040866Y009854D03*
X040866Y009869D03*
X040881Y009922D03*
X040881Y009930D03*
X040881Y009938D03*
D259*
X040193Y009755D03*
X040216Y009649D03*
X040223Y009588D03*
X040246Y009482D03*
X040254Y009459D03*
X040786Y009459D03*
X040170Y009862D03*
X040163Y009892D03*
X035314Y009945D03*
X040163Y004868D03*
X040170Y004838D03*
X040193Y004732D03*
X040216Y004625D03*
X040223Y004595D03*
X040223Y004572D03*
X040246Y004488D03*
X040246Y004458D03*
X040254Y004435D03*
D260*
X032779Y004435D03*
X032779Y004458D03*
X032779Y004488D03*
X032779Y004519D03*
X032779Y004542D03*
X032779Y004572D03*
X032779Y004595D03*
X032779Y004625D03*
X032779Y004648D03*
D261*
X040790Y004488D03*
X040790Y004458D03*
X040820Y004625D03*
X040873Y004868D03*
X040790Y009482D03*
X040820Y009618D03*
X040820Y009649D03*
X040220Y009618D03*
X040873Y009892D03*
D262*
X040873Y009884D03*
X040873Y009877D03*
X040873Y009900D03*
X040820Y009641D03*
X040820Y009634D03*
X040820Y009626D03*
X040790Y009504D03*
X040790Y009497D03*
X040790Y009489D03*
X040790Y009474D03*
X040873Y004884D03*
X040873Y004876D03*
X040873Y004861D03*
X040820Y004633D03*
X040820Y004618D03*
X040820Y004610D03*
X040820Y004602D03*
X040790Y004481D03*
X040790Y004473D03*
X040790Y004466D03*
X040220Y004602D03*
D263*
X039726Y004595D03*
X039726Y004572D03*
X039726Y004542D03*
X039726Y004519D03*
X039726Y004625D03*
X039726Y004648D03*
X039726Y004678D03*
X039726Y004709D03*
X039726Y004732D03*
X039726Y004762D03*
X039726Y004785D03*
X041314Y004785D03*
X041314Y004762D03*
X041314Y004732D03*
X041314Y004709D03*
X041314Y004678D03*
X041314Y004648D03*
X041314Y004625D03*
X041314Y004595D03*
X041314Y004572D03*
X041314Y004542D03*
X041314Y004519D03*
X034938Y009292D03*
X034938Y009322D03*
X034938Y009345D03*
X034938Y009375D03*
X034938Y009398D03*
X034945Y009428D03*
X034945Y009459D03*
X034953Y009482D03*
X039726Y009535D03*
X039726Y009565D03*
X039726Y009588D03*
X039726Y009618D03*
X039726Y009649D03*
X039726Y009672D03*
X039726Y009702D03*
X039726Y009725D03*
X039726Y009755D03*
X039726Y009778D03*
X039726Y009808D03*
X041314Y009808D03*
X041314Y009778D03*
X041314Y009755D03*
X041314Y009725D03*
X041314Y009702D03*
X041314Y009672D03*
X041314Y009649D03*
X041314Y009618D03*
X041314Y009588D03*
X041314Y009565D03*
X041314Y009535D03*
D264*
X039080Y008562D03*
X037043Y008805D03*
X036207Y007338D03*
X036336Y006145D03*
X036336Y005438D03*
X037772Y004519D03*
D265*
X037111Y004526D03*
X037058Y008820D03*
D266*
X036355Y006168D03*
X033634Y004572D03*
D267*
X037427Y004595D03*
X037396Y007179D03*
X038726Y008448D03*
D268*
X037362Y008471D03*
X037362Y008486D03*
X035310Y008494D03*
X033988Y004724D03*
X038760Y004602D03*
D269*
X038760Y004625D03*
X036024Y005355D03*
D270*
X037419Y004671D03*
X037419Y004663D03*
X037419Y004656D03*
X037404Y007209D03*
D271*
X035979Y007186D03*
X035979Y007171D03*
X039581Y007186D03*
X039581Y007194D03*
X035979Y006024D03*
X035979Y006016D03*
X033988Y004656D03*
D272*
X033991Y004663D03*
X035975Y006001D03*
X035975Y007194D03*
X035975Y007209D03*
X039585Y007209D03*
X039585Y007217D03*
X039585Y007224D03*
D273*
X035971Y007217D03*
X035971Y005993D03*
X035971Y005986D03*
X037415Y004694D03*
X037415Y004686D03*
X033988Y004671D03*
D274*
X037415Y004678D03*
X039589Y007232D03*
D275*
X037411Y004709D03*
X033991Y004678D03*
D276*
X036028Y005317D03*
X038764Y004686D03*
X035314Y008410D03*
X035314Y008418D03*
D277*
X037411Y004716D03*
X037411Y004701D03*
D278*
X033988Y004701D03*
X035956Y005932D03*
D279*
X033984Y004709D03*
D280*
X032540Y004716D03*
D281*
X038760Y004732D03*
D282*
X037408Y004732D03*
D283*
X033984Y004732D03*
X035314Y008478D03*
D284*
X032536Y004732D03*
D285*
X038764Y004739D03*
X035314Y008364D03*
D286*
X036021Y005416D03*
X037404Y004747D03*
X037404Y004739D03*
D287*
X036043Y005127D03*
X032532Y004739D03*
D288*
X032528Y004747D03*
X039330Y007414D03*
D289*
X037643Y004754D03*
D290*
X038764Y004762D03*
X033984Y004815D03*
X035314Y008342D03*
D291*
X035314Y008425D03*
X033984Y004762D03*
D292*
X032521Y004762D03*
D293*
X038764Y004770D03*
X035314Y008334D03*
X035314Y009786D03*
D294*
X033988Y004785D03*
D295*
X032513Y004785D03*
D296*
X038764Y004792D03*
D297*
X032509Y004792D03*
D298*
X032506Y004800D03*
D299*
X033984Y004808D03*
X035314Y008357D03*
X037366Y008349D03*
X035314Y009763D03*
D300*
X036986Y008722D03*
X037009Y008532D03*
X035314Y008182D03*
X039722Y009839D03*
X039722Y009862D03*
X039722Y009892D03*
X039722Y009915D03*
X039722Y009945D03*
X041318Y009945D03*
X041318Y009915D03*
X041318Y009892D03*
X041318Y009862D03*
X041318Y009839D03*
X041318Y004922D03*
X041318Y004899D03*
X041318Y004868D03*
X041318Y004838D03*
X041318Y004815D03*
X039722Y004815D03*
X039722Y004838D03*
X039722Y004868D03*
X039722Y004899D03*
X039722Y004922D03*
X038764Y004922D03*
D301*
X038764Y004815D03*
X037366Y008288D03*
X035314Y008288D03*
X037282Y009018D03*
D302*
X032498Y004815D03*
D303*
X038764Y004823D03*
X037366Y008281D03*
X035314Y008281D03*
D304*
X032494Y004823D03*
D305*
X033988Y004830D03*
X037354Y009793D03*
D306*
X036211Y005773D03*
X032487Y004830D03*
D307*
X038764Y004838D03*
X039897Y005165D03*
X041143Y005195D03*
X041143Y010219D03*
X039897Y010188D03*
D308*
X035314Y009808D03*
X033984Y004838D03*
D309*
X032483Y004838D03*
D310*
X038764Y004846D03*
X039889Y005226D03*
X039889Y005233D03*
X039889Y005241D03*
X041151Y005256D03*
X041151Y005264D03*
X041151Y005271D03*
X041151Y005286D03*
X037503Y009216D03*
X039889Y010234D03*
X039889Y010249D03*
X039889Y010257D03*
X039889Y010264D03*
X041151Y010280D03*
X041151Y010287D03*
X041151Y010302D03*
D311*
X037354Y009831D03*
X033988Y004853D03*
D312*
X033991Y004944D03*
X032471Y004853D03*
D313*
X033988Y004861D03*
X039916Y004967D03*
X039916Y004982D03*
X039916Y004990D03*
X039916Y004998D03*
X041124Y005013D03*
X041124Y005020D03*
X037248Y008988D03*
X037438Y009162D03*
X037446Y009170D03*
X039916Y009983D03*
X039916Y009991D03*
X039916Y010006D03*
X039916Y010014D03*
X041124Y010021D03*
X041124Y010036D03*
X041124Y010044D03*
D314*
X041139Y010188D03*
X039900Y010158D03*
X039900Y010135D03*
X039900Y005142D03*
X039900Y005112D03*
X041139Y005165D03*
X033988Y004868D03*
D315*
X032460Y004868D03*
D316*
X038760Y004876D03*
D317*
X039885Y005256D03*
X039885Y005264D03*
X039885Y005271D03*
X039885Y005286D03*
X041154Y005294D03*
X041154Y005309D03*
X041154Y005317D03*
X033988Y004876D03*
X039885Y010280D03*
X039885Y010287D03*
X039885Y010302D03*
X041154Y010310D03*
X041154Y010318D03*
X041154Y010333D03*
D318*
X037373Y008159D03*
X032456Y004876D03*
D319*
X032449Y004884D03*
D320*
X037647Y004891D03*
D321*
X033988Y004891D03*
X037172Y007247D03*
X039346Y007240D03*
X038950Y008364D03*
X037354Y009884D03*
D322*
X032441Y004891D03*
D323*
X032433Y004899D03*
D324*
X033991Y004937D03*
X037647Y004906D03*
D325*
X032422Y004906D03*
D326*
X037647Y004914D03*
X037145Y007414D03*
X036211Y007414D03*
X038977Y008197D03*
D327*
X032411Y004914D03*
D328*
X037643Y004922D03*
D329*
X032399Y004922D03*
D330*
X037639Y004929D03*
D331*
X033991Y004929D03*
X037738Y008608D03*
X037738Y008623D03*
X036978Y008684D03*
X036978Y008691D03*
X037358Y009938D03*
D332*
X032380Y004929D03*
D333*
X041116Y004937D03*
X041116Y004944D03*
X041116Y004960D03*
X037263Y009003D03*
X037423Y009147D03*
X041116Y009953D03*
X041116Y009960D03*
X041116Y009976D03*
D334*
X041120Y009983D03*
X041120Y009991D03*
X041120Y010006D03*
X041120Y010014D03*
X039919Y009976D03*
X039919Y009960D03*
X039919Y009953D03*
X039919Y004960D03*
X039919Y004944D03*
X039919Y004937D03*
X041120Y004967D03*
X041120Y004982D03*
X041120Y004990D03*
X041120Y004998D03*
D335*
X037636Y004937D03*
X037142Y007437D03*
X038981Y008174D03*
D336*
X037430Y009155D03*
X041116Y009968D03*
X041116Y004952D03*
D337*
X041120Y004975D03*
X039919Y004952D03*
X037259Y008995D03*
X039919Y009968D03*
X041120Y009998D03*
D338*
X041124Y010029D03*
X039916Y009998D03*
X037354Y009839D03*
X039916Y004975D03*
X041124Y005005D03*
X041124Y005028D03*
D339*
X041128Y005058D03*
X039912Y005028D03*
X039912Y005005D03*
X039912Y010029D03*
X041128Y010052D03*
X041128Y010082D03*
D340*
X041132Y010090D03*
X041132Y010097D03*
X041132Y010112D03*
X041132Y010120D03*
X039908Y010074D03*
X039908Y010067D03*
X039908Y010059D03*
X035318Y009846D03*
X035318Y008273D03*
X037362Y008273D03*
X041132Y005104D03*
X041132Y005096D03*
X041132Y005081D03*
X041132Y005074D03*
X039908Y005066D03*
X039908Y005051D03*
X039908Y005043D03*
X039908Y005036D03*
D341*
X039908Y005058D03*
X041132Y005089D03*
X037461Y009185D03*
X039908Y010052D03*
X039908Y010082D03*
X041132Y010105D03*
D342*
X041135Y010128D03*
X041135Y010143D03*
X041135Y010150D03*
X039904Y010120D03*
X039904Y010112D03*
X039904Y010097D03*
X039904Y010090D03*
X037472Y009193D03*
X039904Y005104D03*
X039904Y005096D03*
X039904Y005081D03*
X039904Y005074D03*
X041135Y005119D03*
X041135Y005127D03*
X041135Y005134D03*
D343*
X041135Y005142D03*
X041135Y005112D03*
X039904Y005089D03*
X037229Y008965D03*
X039904Y010105D03*
X041135Y010135D03*
X041135Y010158D03*
D344*
X036043Y005119D03*
D345*
X039893Y005180D03*
X039893Y005188D03*
X039893Y005203D03*
X039893Y005210D03*
X041147Y005226D03*
X041147Y005233D03*
X041147Y005241D03*
X037210Y008950D03*
X039893Y010196D03*
X039893Y010204D03*
X039893Y010211D03*
X039893Y010226D03*
X041147Y010234D03*
X041147Y010249D03*
X041147Y010257D03*
X041147Y010264D03*
D346*
X041147Y010242D03*
X039893Y010219D03*
X041147Y005248D03*
X041147Y005218D03*
X039893Y005195D03*
D347*
X036036Y005195D03*
D348*
X036032Y005226D03*
X037294Y009026D03*
X037354Y009824D03*
D349*
X037354Y009801D03*
X037362Y008311D03*
X036032Y005241D03*
D350*
X036032Y005248D03*
X037362Y008319D03*
D351*
X037362Y008334D03*
X036032Y005264D03*
D352*
X036032Y005271D03*
X035318Y008349D03*
D353*
X036032Y005279D03*
D354*
X039881Y005302D03*
X041158Y005332D03*
X041158Y005355D03*
X041158Y010348D03*
X039881Y010325D03*
D355*
X037358Y009725D03*
X036028Y005302D03*
D356*
X036028Y005324D03*
X037358Y009687D03*
D357*
X039878Y010348D03*
X041162Y010378D03*
X041162Y010409D03*
X041162Y005385D03*
X039878Y005355D03*
X039878Y005332D03*
D358*
X036024Y005332D03*
X037362Y008425D03*
D359*
X036028Y005340D03*
D360*
X039874Y005362D03*
X039874Y005370D03*
X039874Y005378D03*
X039874Y005393D03*
X041166Y005400D03*
X041166Y005416D03*
X041166Y005423D03*
X041166Y005431D03*
X037176Y008919D03*
X039874Y010386D03*
X039874Y010394D03*
X039874Y010401D03*
X041166Y010416D03*
X041166Y010424D03*
X041166Y010439D03*
X041166Y010447D03*
D361*
X036024Y005370D03*
D362*
X039874Y005385D03*
X041166Y005408D03*
X037525Y009238D03*
X039874Y010378D03*
X039874Y010409D03*
X041166Y010432D03*
D363*
X036024Y005385D03*
D364*
X036021Y005408D03*
D365*
X036017Y005423D03*
X035964Y005963D03*
D366*
X039866Y005438D03*
X041173Y005469D03*
X040520Y008995D03*
X039866Y010462D03*
X041173Y010485D03*
D367*
X035701Y005438D03*
D368*
X036211Y005758D03*
D369*
X036211Y005765D03*
D370*
X036211Y005780D03*
D371*
X036207Y005788D03*
D372*
X036207Y005796D03*
X036207Y007407D03*
D373*
X038973Y008220D03*
X036207Y005811D03*
D374*
X036207Y005818D03*
X035591Y007232D03*
X035591Y007255D03*
X035591Y007285D03*
X035591Y007308D03*
X035591Y007338D03*
X035591Y007369D03*
X035591Y007392D03*
X036982Y008585D03*
X036974Y008638D03*
X036974Y008668D03*
X037750Y008668D03*
X037750Y008699D03*
X037727Y009535D03*
X036997Y009565D03*
D375*
X036199Y005872D03*
D376*
X036192Y005910D03*
X035318Y008220D03*
X038958Y008334D03*
X035318Y009900D03*
D377*
X035952Y005925D03*
D378*
X035960Y005940D03*
X035960Y005948D03*
D379*
X035964Y005955D03*
D380*
X035967Y005978D03*
D381*
X035975Y006008D03*
X035975Y007202D03*
D382*
X035986Y007141D03*
X035986Y007133D03*
X035986Y007126D03*
X035986Y007110D03*
X035986Y006077D03*
X035986Y006069D03*
X035986Y006054D03*
D383*
X035986Y006062D03*
X035986Y007118D03*
D384*
X035990Y007103D03*
X035990Y007088D03*
X035990Y007080D03*
X035990Y007072D03*
X035990Y007057D03*
X035990Y006107D03*
X035990Y006100D03*
X035990Y006084D03*
X039570Y007080D03*
X039570Y007088D03*
X039570Y007103D03*
X039570Y007110D03*
D385*
X039570Y007118D03*
X039570Y007095D03*
X035990Y007095D03*
X035990Y007065D03*
X035990Y006115D03*
X035990Y006092D03*
D386*
X035994Y006122D03*
X035994Y006130D03*
X035994Y007050D03*
X039566Y007072D03*
D387*
X039338Y007316D03*
X035675Y006138D03*
D388*
X039566Y007065D03*
D389*
X039581Y007202D03*
X035979Y007179D03*
D390*
X037172Y007224D03*
X037157Y008904D03*
X037544Y009254D03*
X037354Y009877D03*
D391*
X037354Y009869D03*
X036192Y007224D03*
D392*
X037176Y007232D03*
D393*
X037168Y007255D03*
D394*
X037164Y007285D03*
D395*
X039338Y007308D03*
D396*
X037161Y007308D03*
X036203Y007308D03*
D397*
X037149Y007392D03*
X039330Y007392D03*
D398*
X036211Y007392D03*
D399*
X037145Y007422D03*
X039327Y007422D03*
D400*
X036211Y007422D03*
D401*
X037142Y007430D03*
D402*
X036214Y007430D03*
D403*
X039323Y007437D03*
D404*
X036214Y007437D03*
D405*
X036214Y007445D03*
D406*
X040983Y007544D03*
X040983Y007551D03*
X040983Y007566D03*
X040983Y007574D03*
X040983Y007589D03*
X040983Y007597D03*
X040983Y007604D03*
X040983Y007620D03*
X040983Y007627D03*
X040983Y007642D03*
X040983Y007650D03*
X040983Y007658D03*
X040983Y007673D03*
X040983Y007680D03*
X040983Y007696D03*
X040983Y007703D03*
X040983Y007711D03*
X040983Y007726D03*
X040983Y007734D03*
X040983Y007741D03*
X040983Y007756D03*
X040983Y007764D03*
X040983Y007779D03*
X040983Y007787D03*
X040983Y007794D03*
X040983Y007810D03*
X040983Y007817D03*
X040983Y007832D03*
X040983Y007840D03*
X040983Y007848D03*
X040983Y007863D03*
X040983Y007870D03*
X040983Y007886D03*
X040983Y007893D03*
X040983Y007901D03*
X040983Y007916D03*
X040983Y007924D03*
X040983Y007931D03*
X040983Y007946D03*
X040983Y007954D03*
X040983Y007969D03*
X040983Y007977D03*
D407*
X040983Y007962D03*
X040983Y007939D03*
X040983Y007908D03*
X040983Y007878D03*
X040983Y007855D03*
X040983Y007825D03*
X040983Y007802D03*
X040983Y007772D03*
X040983Y007749D03*
X040983Y007718D03*
X040983Y007688D03*
X040983Y007665D03*
X040983Y007635D03*
X040983Y007612D03*
X040983Y007582D03*
X040983Y007559D03*
D408*
X038981Y008182D03*
D409*
X038973Y008205D03*
D410*
X035318Y008235D03*
D411*
X035314Y008296D03*
X037396Y009124D03*
X035314Y009824D03*
D412*
X037362Y008304D03*
D413*
X038958Y008319D03*
D414*
X038958Y008342D03*
X037354Y009892D03*
D415*
X037362Y008372D03*
D416*
X035314Y008372D03*
D417*
X035314Y008380D03*
X035314Y009740D03*
D418*
X037362Y008387D03*
D419*
X037362Y008395D03*
D420*
X035314Y008395D03*
D421*
X037362Y008448D03*
D422*
X035310Y008456D03*
D423*
X035310Y008471D03*
D424*
X037362Y008478D03*
X035318Y009618D03*
D425*
X035314Y009626D03*
X035314Y009634D03*
X035314Y008486D03*
D426*
X038426Y008562D03*
D427*
X038415Y008570D03*
D428*
X037734Y008592D03*
X037734Y008600D03*
X036982Y008706D03*
X036982Y008714D03*
X037712Y009596D03*
X037704Y009603D03*
D429*
X036978Y008623D03*
X036978Y008608D03*
D430*
X036978Y008699D03*
X037738Y008615D03*
D431*
X036978Y008615D03*
D432*
X037138Y008889D03*
D433*
X037164Y008912D03*
D434*
X037183Y008927D03*
D435*
X037316Y009048D03*
X037347Y009079D03*
D436*
X037373Y009102D03*
D437*
X037408Y009132D03*
D438*
X037411Y009140D03*
D439*
X037491Y009208D03*
D440*
X037601Y009299D03*
D441*
X037632Y009322D03*
D442*
X036982Y009428D03*
X036982Y009459D03*
D443*
X037005Y009580D03*
D444*
X037005Y009588D03*
D445*
X037696Y009618D03*
D446*
X037358Y009672D03*
D447*
X037358Y009732D03*
D448*
X037358Y009770D03*
D449*
X037354Y009778D03*
X035318Y009778D03*
D450*
X037354Y009808D03*
D451*
X037358Y009846D03*
D452*
X037354Y009854D03*
M02*
