%
M48
M72
T01C0.0130
T02C0.0276
T03C0.0320
T04C0.0354
T05C0.0380
T06C0.0400
T07C0.0440
T08C0.1260
%
T01
X14430Y3430
X8930Y3680
X5430Y3680
X6930Y4555
X21680Y4555
X23430Y5055
X25430Y4555
X25930Y4180
X25430Y3680
X29430Y4930
X26430Y5055
X23680Y1930
T02
X35930Y3430
X36930Y3430
X36930Y5680
X35930Y5680
T03
X34680Y5430
X32680Y5430
X31180Y5930
X30180Y5930
X28930Y5930
X27930Y5930
X26930Y5930
X25930Y5930
X24930Y5930
X23930Y5930
X22930Y5930
X19680Y5930
X17680Y5930
X15680Y5930
X13430Y5930
X12180Y5180
X10180Y4930
X9680Y4180
X10680Y4180
X12180Y3180
X13430Y2930
X15680Y2930
X16680Y3180
X17680Y2930
X18680Y3180
X19680Y2930
X20680Y3180
X21680Y3180
X22930Y2930
X23930Y2930
X24930Y2930
X25930Y2930
X26930Y2930
X27930Y2930
X28930Y2930
X30180Y2930
X31180Y3930
X21680Y5180
X20680Y5180
X18680Y5180
X16680Y5180
X8430Y5930
X7430Y5930
X6430Y6430
X5430Y6430
X4430Y5930
X3430Y5930
X3430Y2930
X4430Y2930
X5430Y2430
X6430Y2430
X7430Y2930
X8430Y2930
X33680Y6430
X40180Y7680
X42180Y7680
X42180Y1430
X40180Y1430
T04
X38930Y1430
X34930Y1430
X34930Y7680
X38930Y7680
T05
X1430Y1430
X2430Y1430
X3430Y1430
X4430Y1430
X5430Y1430
X6430Y1430
X7430Y1430
X8430Y1430
X9430Y1430
X10430Y1430
X11430Y1430
X12430Y1430
X13430Y1430
X14430Y1430
X14430Y2430
X14430Y7430
X13430Y7430
X12430Y7430
X11430Y7430
X10430Y7430
X9430Y7430
X8430Y7430
X7430Y7430
X6430Y7430
X5430Y7430
X4430Y7430
X3430Y7430
X2430Y7430
X1430Y7430
T06
X23180Y7430
X24180Y7430
X25180Y7430
X26180Y7430
X27180Y7430
X28180Y7430
X29180Y7430
X30180Y7430
X31180Y7430
X32180Y7430
X33180Y7430
X38930Y5380
X37930Y5280
X39930Y5280
X40930Y5380
X41930Y5280
X40930Y4380
X39930Y4280
X38930Y4380
X37930Y4280
X41930Y4280
X29180Y1180
X28180Y1180
X27180Y1180
X26180Y1180
X25180Y1180
X24180Y1180
X23180Y1180
T07
X38180Y2680
X42180Y2680
X42180Y6430
X38180Y6430
T08
X32430Y2180
M30
