G75*
%MOIN*%
%OFA0B0*%
%FSLAX25Y25*%
%IPPOS*%
%LPD*%
%AMOC8*
5,1,8,0,0,1.08239X$1,22.5*
%
%ADD10OC8,0.07400*%
%ADD11R,0.06500X0.06500*%
%ADD12C,0.06500*%
%ADD13OC8,0.04800*%
%ADD14C,0.06600*%
%ADD15C,0.05700*%
%ADD16C,0.04800*%
%ADD17C,0.05906*%
%ADD18C,0.07400*%
%ADD19OC8,0.06600*%
%ADD20C,0.01600*%
%ADD21C,0.02500*%
%ADD22C,0.01200*%
%ADD23C,0.00800*%
D10*
X0379300Y0042800D03*
X0389300Y0043800D03*
X0399300Y0042800D03*
X0409300Y0043800D03*
X0419300Y0042800D03*
X0419300Y0052800D03*
X0409300Y0053800D03*
X0399300Y0052800D03*
X0389300Y0053800D03*
X0379300Y0052800D03*
D11*
X0369300Y0056800D03*
X0359300Y0034300D03*
D12*
X0369300Y0034300D03*
X0359300Y0056800D03*
D13*
X0311800Y0059300D03*
X0301800Y0059300D03*
X0216800Y0051800D03*
X0206800Y0051800D03*
X0186800Y0051800D03*
X0166800Y0051800D03*
X0121800Y0051800D03*
X0101800Y0049300D03*
X0096800Y0041800D03*
X0106800Y0041800D03*
X0121800Y0031800D03*
X0134300Y0029300D03*
X0156800Y0029300D03*
X0166800Y0031800D03*
X0176800Y0029300D03*
X0186800Y0031800D03*
X0196800Y0029300D03*
X0206800Y0031800D03*
X0216800Y0031800D03*
X0301800Y0029300D03*
X0311800Y0039300D03*
X0196800Y0059300D03*
X0176800Y0059300D03*
X0156800Y0059300D03*
X0134300Y0059300D03*
X0064300Y0064300D03*
X0054300Y0064300D03*
X0054300Y0024300D03*
X0064300Y0024300D03*
X0401800Y0014300D03*
X0421800Y0014300D03*
X0421800Y0076800D03*
X0401800Y0076800D03*
D14*
X0381800Y0064300D03*
X0421800Y0064300D03*
X0421800Y0026800D03*
X0381800Y0026800D03*
D15*
X0144300Y0024300D03*
X0144300Y0014300D03*
X0134300Y0014300D03*
X0124300Y0014300D03*
X0114300Y0014300D03*
X0104300Y0014300D03*
X0094300Y0014300D03*
X0084300Y0014300D03*
X0074300Y0014300D03*
X0064300Y0014300D03*
X0054300Y0014300D03*
X0044300Y0014300D03*
X0034300Y0014300D03*
X0024300Y0014300D03*
X0014300Y0014300D03*
X0014300Y0074300D03*
X0024300Y0074300D03*
X0034300Y0074300D03*
X0044300Y0074300D03*
X0054300Y0074300D03*
X0064300Y0074300D03*
X0074300Y0074300D03*
X0084300Y0074300D03*
X0094300Y0074300D03*
X0104300Y0074300D03*
X0114300Y0074300D03*
X0124300Y0074300D03*
X0134300Y0074300D03*
X0144300Y0074300D03*
D16*
X0084300Y0061700D02*
X0084300Y0056900D01*
X0074300Y0056900D02*
X0074300Y0061700D01*
X0044300Y0061700D02*
X0044300Y0056900D01*
X0034300Y0056900D02*
X0034300Y0061700D01*
X0034300Y0031700D02*
X0034300Y0026900D01*
X0044300Y0026900D02*
X0044300Y0031700D01*
X0074300Y0031700D02*
X0074300Y0026900D01*
X0084300Y0026900D02*
X0084300Y0031700D01*
X0229300Y0031700D02*
X0229300Y0026900D01*
X0239300Y0026900D02*
X0239300Y0031700D01*
X0249300Y0031700D02*
X0249300Y0026900D01*
X0259300Y0026900D02*
X0259300Y0031700D01*
X0269300Y0031700D02*
X0269300Y0026900D01*
X0279300Y0026900D02*
X0279300Y0031700D01*
X0289300Y0031700D02*
X0289300Y0026900D01*
X0289300Y0056900D02*
X0289300Y0061700D01*
X0279300Y0061700D02*
X0279300Y0056900D01*
X0269300Y0056900D02*
X0269300Y0061700D01*
X0259300Y0061700D02*
X0259300Y0056900D01*
X0249300Y0056900D02*
X0249300Y0061700D01*
X0239300Y0061700D02*
X0239300Y0056900D01*
X0229300Y0056900D02*
X0229300Y0061700D01*
D17*
X0349300Y0076800D03*
X0389300Y0076800D03*
X0389300Y0014300D03*
X0349300Y0014300D03*
D18*
X0291800Y0011800D03*
X0281800Y0011800D03*
X0271800Y0011800D03*
X0261800Y0011800D03*
X0251800Y0011800D03*
X0241800Y0011800D03*
X0231800Y0011800D03*
X0231800Y0074300D03*
X0241800Y0074300D03*
X0251800Y0074300D03*
X0261800Y0074300D03*
X0271800Y0074300D03*
X0281800Y0074300D03*
X0291800Y0074300D03*
X0301800Y0074300D03*
X0311800Y0074300D03*
X0321800Y0074300D03*
X0331800Y0074300D03*
D19*
X0336800Y0064300D03*
X0326800Y0054300D03*
X0346800Y0054300D03*
D20*
X0008650Y0081722D02*
X0008650Y0008650D01*
X0227738Y0008650D01*
X0227476Y0008911D01*
X0226700Y0010786D01*
X0226700Y0012814D01*
X0227476Y0014689D01*
X0228911Y0016124D01*
X0230786Y0016900D01*
X0232814Y0016900D01*
X0234689Y0016124D01*
X0236124Y0014689D01*
X0236800Y0013056D01*
X0237476Y0014689D01*
X0237617Y0014829D01*
X0236403Y0016650D01*
X0236273Y0016650D01*
X0235299Y0017053D01*
X0234553Y0017799D01*
X0234150Y0018773D01*
X0234150Y0019827D01*
X0234222Y0020000D01*
X0203554Y0020000D01*
X0198054Y0025500D01*
X0195226Y0025500D01*
X0193000Y0027726D01*
X0193000Y0030874D01*
X0195226Y0033100D01*
X0198374Y0033100D01*
X0200600Y0030874D01*
X0200600Y0028046D01*
X0205046Y0023600D01*
X0227337Y0023600D01*
X0227147Y0023679D01*
X0226079Y0024747D01*
X0225500Y0026144D01*
X0225500Y0032456D01*
X0226079Y0033853D01*
X0227147Y0034921D01*
X0228544Y0035500D01*
X0230056Y0035500D01*
X0231453Y0034921D01*
X0231914Y0034460D01*
X0232500Y0035046D01*
X0232500Y0048602D01*
X0232053Y0049049D01*
X0231650Y0050023D01*
X0231650Y0051077D01*
X0232053Y0052051D01*
X0232799Y0052797D01*
X0233773Y0053200D01*
X0234827Y0053200D01*
X0235801Y0052797D01*
X0236547Y0052051D01*
X0236950Y0051077D01*
X0236950Y0050023D01*
X0236547Y0049049D01*
X0236100Y0048602D01*
X0236100Y0033874D01*
X0237147Y0034921D01*
X0238544Y0035500D01*
X0240056Y0035500D01*
X0241453Y0034921D01*
X0242521Y0033853D01*
X0243100Y0032456D01*
X0243100Y0026144D01*
X0242747Y0025293D01*
X0245500Y0028046D01*
X0245500Y0032456D01*
X0246079Y0033853D01*
X0247147Y0034921D01*
X0248544Y0035500D01*
X0250056Y0035500D01*
X0251453Y0034921D01*
X0252500Y0033874D01*
X0252500Y0034852D01*
X0252053Y0035299D01*
X0251650Y0036273D01*
X0251650Y0037327D01*
X0252053Y0038301D01*
X0252799Y0039047D01*
X0253773Y0039450D01*
X0254827Y0039450D01*
X0255801Y0039047D01*
X0256547Y0038301D01*
X0256950Y0037327D01*
X0256950Y0036273D01*
X0256547Y0035299D01*
X0256100Y0034852D01*
X0256100Y0033874D01*
X0257100Y0034874D01*
X0257100Y0040252D01*
X0257053Y0040299D01*
X0256650Y0041273D01*
X0256650Y0042327D01*
X0257053Y0043301D01*
X0257799Y0044047D01*
X0258773Y0044450D01*
X0259827Y0044450D01*
X0260801Y0044047D01*
X0261547Y0043301D01*
X0261950Y0042327D01*
X0261950Y0041273D01*
X0261547Y0040299D01*
X0261500Y0040252D01*
X0261500Y0034874D01*
X0262500Y0033874D01*
X0262500Y0048602D01*
X0262053Y0049049D01*
X0261650Y0050023D01*
X0261650Y0051077D01*
X0262053Y0052051D01*
X0262799Y0052797D01*
X0263773Y0053200D01*
X0264827Y0053200D01*
X0265801Y0052797D01*
X0266547Y0052051D01*
X0266950Y0051077D01*
X0266950Y0050023D01*
X0266547Y0049049D01*
X0266100Y0048602D01*
X0266100Y0033874D01*
X0267147Y0034921D01*
X0268544Y0035500D01*
X0270056Y0035500D01*
X0271453Y0034921D01*
X0272521Y0033853D01*
X0273100Y0032456D01*
X0273100Y0028046D01*
X0275853Y0025293D01*
X0275500Y0026144D01*
X0275500Y0032456D01*
X0276079Y0033853D01*
X0277147Y0034921D01*
X0278544Y0035500D01*
X0280056Y0035500D01*
X0281453Y0034921D01*
X0282500Y0033874D01*
X0282500Y0043554D01*
X0271914Y0054140D01*
X0271453Y0053679D01*
X0270056Y0053100D01*
X0268544Y0053100D01*
X0267147Y0053679D01*
X0266079Y0054747D01*
X0265500Y0056144D01*
X0265500Y0062456D01*
X0266079Y0063853D01*
X0267147Y0064921D01*
X0268544Y0065500D01*
X0270056Y0065500D01*
X0271453Y0064921D01*
X0272521Y0063853D01*
X0273100Y0062456D01*
X0273100Y0058046D01*
X0275853Y0055293D01*
X0275500Y0056144D01*
X0275500Y0062456D01*
X0276079Y0063853D01*
X0277147Y0064921D01*
X0278544Y0065500D01*
X0280056Y0065500D01*
X0281453Y0064921D01*
X0282521Y0063853D01*
X0283100Y0062456D01*
X0283100Y0056144D01*
X0282521Y0054747D01*
X0281453Y0053679D01*
X0280056Y0053100D01*
X0278544Y0053100D01*
X0277693Y0053453D01*
X0286100Y0045046D01*
X0286100Y0033874D01*
X0287147Y0034921D01*
X0288544Y0035500D01*
X0290056Y0035500D01*
X0291453Y0034921D01*
X0292521Y0033853D01*
X0293100Y0032456D01*
X0293100Y0026144D01*
X0292521Y0024747D01*
X0291453Y0023679D01*
X0290056Y0023100D01*
X0288544Y0023100D01*
X0287147Y0023679D01*
X0286100Y0024726D01*
X0286100Y0022546D01*
X0291746Y0016900D01*
X0292814Y0016900D01*
X0294689Y0016124D01*
X0296124Y0014689D01*
X0296900Y0012814D01*
X0296900Y0010786D01*
X0296124Y0008911D01*
X0295862Y0008650D01*
X0319308Y0008650D01*
X0319122Y0008720D01*
X0318770Y0008796D01*
X0318724Y0008868D01*
X0317961Y0009153D01*
X0317879Y0009129D01*
X0317563Y0009301D01*
X0317226Y0009427D01*
X0317191Y0009504D01*
X0316476Y0009895D01*
X0316391Y0009883D01*
X0316103Y0010098D01*
X0315787Y0010271D01*
X0315763Y0010353D01*
X0315111Y0010841D01*
X0315026Y0010841D01*
X0314771Y0011095D01*
X0314483Y0011311D01*
X0314471Y0011395D01*
X0313895Y0011971D01*
X0313811Y0011983D01*
X0313595Y0012271D01*
X0313341Y0012526D01*
X0313341Y0012611D01*
X0312853Y0013263D01*
X0312771Y0013287D01*
X0312598Y0013603D01*
X0312383Y0013891D01*
X0312395Y0013976D01*
X0312004Y0014691D01*
X0311927Y0014726D01*
X0311801Y0015063D01*
X0311629Y0015379D01*
X0311653Y0015461D01*
X0311368Y0016224D01*
X0311296Y0016270D01*
X0311220Y0016622D01*
X0311094Y0016959D01*
X0311129Y0017037D01*
X0310956Y0017832D01*
X0310892Y0017888D01*
X0310866Y0018247D01*
X0310790Y0018599D01*
X0310836Y0018671D01*
X0310781Y0019441D01*
X0310750Y0019472D01*
X0310750Y0019869D01*
X0310722Y0020266D01*
X0310750Y0020298D01*
X0310750Y0023302D01*
X0310722Y0023334D01*
X0310750Y0023731D01*
X0310750Y0024128D01*
X0310781Y0024159D01*
X0310836Y0024929D01*
X0310790Y0025001D01*
X0310866Y0025353D01*
X0310892Y0025712D01*
X0310956Y0025768D01*
X0311129Y0026563D01*
X0311094Y0026641D01*
X0311220Y0026978D01*
X0311296Y0027330D01*
X0311368Y0027376D01*
X0311653Y0028139D01*
X0311629Y0028221D01*
X0311801Y0028537D01*
X0311927Y0028874D01*
X0312004Y0028909D01*
X0312395Y0029624D01*
X0312383Y0029709D01*
X0312598Y0029997D01*
X0312771Y0030313D01*
X0312853Y0030337D01*
X0313341Y0030989D01*
X0313341Y0031074D01*
X0313595Y0031329D01*
X0313811Y0031617D01*
X0313895Y0031629D01*
X0314471Y0032205D01*
X0314483Y0032289D01*
X0314771Y0032505D01*
X0315026Y0032759D01*
X0315111Y0032759D01*
X0315763Y0033247D01*
X0315787Y0033329D01*
X0316103Y0033502D01*
X0316391Y0033717D01*
X0316476Y0033705D01*
X0317191Y0034096D01*
X0317226Y0034173D01*
X0317563Y0034299D01*
X0317879Y0034471D01*
X0317961Y0034447D01*
X0318724Y0034732D01*
X0318770Y0034804D01*
X0319122Y0034880D01*
X0319459Y0035006D01*
X0319537Y0034971D01*
X0320332Y0035144D01*
X0320388Y0035208D01*
X0320747Y0035234D01*
X0321099Y0035310D01*
X0321171Y0035264D01*
X0321941Y0035319D01*
X0321972Y0035350D01*
X0322369Y0035350D01*
X0322766Y0035378D01*
X0322798Y0035350D01*
X0325228Y0035350D01*
X0325261Y0035378D01*
X0325657Y0035350D01*
X0326055Y0035350D01*
X0326085Y0035319D01*
X0326937Y0035258D01*
X0327009Y0035305D01*
X0327361Y0035228D01*
X0327720Y0035202D01*
X0327775Y0035138D01*
X0328651Y0034947D01*
X0328729Y0034983D01*
X0329066Y0034857D01*
X0329418Y0034781D01*
X0329464Y0034709D01*
X0330304Y0034396D01*
X0330386Y0034420D01*
X0330701Y0034247D01*
X0331039Y0034121D01*
X0331074Y0034044D01*
X0331861Y0033614D01*
X0331945Y0033626D01*
X0332233Y0033411D01*
X0332549Y0033238D01*
X0332573Y0033156D01*
X0333291Y0032619D01*
X0333376Y0032619D01*
X0333631Y0032365D01*
X0333919Y0032149D01*
X0333931Y0032065D01*
X0334565Y0031431D01*
X0334649Y0031419D01*
X0334865Y0031131D01*
X0335119Y0030876D01*
X0335119Y0030791D01*
X0335656Y0030073D01*
X0335738Y0030049D01*
X0335911Y0029733D01*
X0336126Y0029445D01*
X0336114Y0029361D01*
X0336544Y0028574D01*
X0336621Y0028539D01*
X0336747Y0028201D01*
X0336920Y0027886D01*
X0336896Y0027804D01*
X0337209Y0026964D01*
X0337281Y0026918D01*
X0337357Y0026566D01*
X0337483Y0026229D01*
X0337447Y0026151D01*
X0337638Y0025275D01*
X0337702Y0025220D01*
X0337728Y0024861D01*
X0337805Y0024509D01*
X0337758Y0024437D01*
X0337819Y0023585D01*
X0337850Y0023555D01*
X0337850Y0023157D01*
X0337878Y0022761D01*
X0337850Y0022728D01*
X0337850Y0020298D01*
X0337878Y0020266D01*
X0337850Y0019869D01*
X0337850Y0019472D01*
X0337819Y0019441D01*
X0337764Y0018671D01*
X0337810Y0018599D01*
X0337734Y0018247D01*
X0337708Y0017888D01*
X0337644Y0017832D01*
X0337471Y0017037D01*
X0337506Y0016959D01*
X0337380Y0016622D01*
X0337304Y0016270D01*
X0337232Y0016224D01*
X0336947Y0015461D01*
X0336971Y0015379D01*
X0336799Y0015063D01*
X0336673Y0014726D01*
X0336596Y0014691D01*
X0336205Y0013976D01*
X0336217Y0013891D01*
X0336002Y0013603D01*
X0335829Y0013287D01*
X0335747Y0013263D01*
X0335259Y0012611D01*
X0335259Y0012526D01*
X0335005Y0012271D01*
X0334789Y0011983D01*
X0334705Y0011971D01*
X0334129Y0011395D01*
X0334117Y0011311D01*
X0333829Y0011095D01*
X0333574Y0010841D01*
X0333489Y0010841D01*
X0332837Y0010353D01*
X0332813Y0010271D01*
X0332497Y0010098D01*
X0332209Y0009883D01*
X0332124Y0009895D01*
X0331409Y0009504D01*
X0331374Y0009427D01*
X0331037Y0009301D01*
X0330721Y0009129D01*
X0330639Y0009153D01*
X0329876Y0008868D01*
X0329830Y0008796D01*
X0329478Y0008720D01*
X0329292Y0008650D01*
X0426210Y0008650D01*
X0426210Y0025165D01*
X0425784Y0024138D01*
X0424462Y0022816D01*
X0422735Y0022100D01*
X0420865Y0022100D01*
X0419138Y0022816D01*
X0417816Y0024138D01*
X0417100Y0025865D01*
X0417100Y0027735D01*
X0417816Y0029462D01*
X0419138Y0030784D01*
X0420865Y0031500D01*
X0422735Y0031500D01*
X0424462Y0030784D01*
X0425784Y0029462D01*
X0426210Y0028435D01*
X0426210Y0062665D01*
X0425784Y0061638D01*
X0424462Y0060316D01*
X0422735Y0059600D01*
X0420865Y0059600D01*
X0419138Y0060316D01*
X0417816Y0061638D01*
X0417100Y0063365D01*
X0417100Y0065235D01*
X0417816Y0066962D01*
X0419138Y0068284D01*
X0420865Y0069000D01*
X0422735Y0069000D01*
X0424462Y0068284D01*
X0425784Y0066962D01*
X0426210Y0065935D01*
X0426210Y0081722D01*
X0256924Y0081722D01*
X0259697Y0078949D01*
X0260786Y0079400D01*
X0262814Y0079400D01*
X0264689Y0078624D01*
X0266124Y0077189D01*
X0266800Y0075556D01*
X0267476Y0077189D01*
X0268911Y0078624D01*
X0270786Y0079400D01*
X0272814Y0079400D01*
X0274689Y0078624D01*
X0276124Y0077189D01*
X0276800Y0075556D01*
X0277476Y0077189D01*
X0278911Y0078624D01*
X0280786Y0079400D01*
X0282814Y0079400D01*
X0284689Y0078624D01*
X0286124Y0077189D01*
X0286800Y0075556D01*
X0287476Y0077189D01*
X0288911Y0078624D01*
X0290786Y0079400D01*
X0292814Y0079400D01*
X0294689Y0078624D01*
X0296124Y0077189D01*
X0296800Y0075556D01*
X0297476Y0077189D01*
X0298911Y0078624D01*
X0300786Y0079400D01*
X0302814Y0079400D01*
X0304689Y0078624D01*
X0306124Y0077189D01*
X0306800Y0075556D01*
X0307476Y0077189D01*
X0308911Y0078624D01*
X0310786Y0079400D01*
X0312814Y0079400D01*
X0314689Y0078624D01*
X0316124Y0077189D01*
X0316800Y0075556D01*
X0317476Y0077189D01*
X0318911Y0078624D01*
X0320786Y0079400D01*
X0322814Y0079400D01*
X0324689Y0078624D01*
X0326124Y0077189D01*
X0326590Y0076063D01*
X0326703Y0076411D01*
X0327096Y0077183D01*
X0327605Y0077883D01*
X0328217Y0078495D01*
X0328917Y0079004D01*
X0329689Y0079397D01*
X0330512Y0079665D01*
X0331367Y0079800D01*
X0331600Y0079800D01*
X0331600Y0074500D01*
X0332000Y0074500D01*
X0332000Y0079800D01*
X0332233Y0079800D01*
X0333088Y0079665D01*
X0333911Y0079397D01*
X0334683Y0079004D01*
X0335383Y0078495D01*
X0335995Y0077883D01*
X0336504Y0077183D01*
X0336897Y0076411D01*
X0337165Y0075588D01*
X0337300Y0074733D01*
X0337300Y0074500D01*
X0332000Y0074500D01*
X0332000Y0074100D01*
X0337300Y0074100D01*
X0337300Y0073867D01*
X0337165Y0073012D01*
X0336897Y0072189D01*
X0336504Y0071417D01*
X0335995Y0070717D01*
X0335383Y0070105D01*
X0334683Y0069596D01*
X0333911Y0069203D01*
X0333088Y0068935D01*
X0332233Y0068800D01*
X0332000Y0068800D01*
X0332000Y0074100D01*
X0331600Y0074100D01*
X0331600Y0068800D01*
X0331367Y0068800D01*
X0330512Y0068935D01*
X0329689Y0069203D01*
X0328917Y0069596D01*
X0328217Y0070105D01*
X0327605Y0070717D01*
X0327096Y0071417D01*
X0326703Y0072189D01*
X0326590Y0072537D01*
X0326124Y0071411D01*
X0324689Y0069976D01*
X0322814Y0069200D01*
X0320786Y0069200D01*
X0318911Y0069976D01*
X0317476Y0071411D01*
X0316800Y0073044D01*
X0316124Y0071411D01*
X0314689Y0069976D01*
X0312814Y0069200D01*
X0310786Y0069200D01*
X0308911Y0069976D01*
X0307476Y0071411D01*
X0306800Y0073044D01*
X0306124Y0071411D01*
X0304689Y0069976D01*
X0302814Y0069200D01*
X0300786Y0069200D01*
X0299697Y0069651D01*
X0296100Y0066054D01*
X0296100Y0051248D01*
X0296547Y0050801D01*
X0296950Y0049827D01*
X0296950Y0048773D01*
X0296547Y0047799D01*
X0295801Y0047053D01*
X0294827Y0046650D01*
X0293773Y0046650D01*
X0292799Y0047053D01*
X0292053Y0047799D01*
X0291650Y0048773D01*
X0291650Y0049827D01*
X0292053Y0050801D01*
X0292500Y0051248D01*
X0292500Y0054726D01*
X0291453Y0053679D01*
X0290056Y0053100D01*
X0288544Y0053100D01*
X0287147Y0053679D01*
X0286079Y0054747D01*
X0285500Y0056144D01*
X0285500Y0062456D01*
X0286079Y0063853D01*
X0287147Y0064921D01*
X0288544Y0065500D01*
X0290056Y0065500D01*
X0291453Y0064921D01*
X0292500Y0063874D01*
X0292500Y0067546D01*
X0297151Y0072197D01*
X0296800Y0073044D01*
X0296124Y0071411D01*
X0294689Y0069976D01*
X0292814Y0069200D01*
X0290786Y0069200D01*
X0288911Y0069976D01*
X0287476Y0071411D01*
X0286800Y0073044D01*
X0286124Y0071411D01*
X0284689Y0069976D01*
X0282814Y0069200D01*
X0280786Y0069200D01*
X0278911Y0069976D01*
X0277476Y0071411D01*
X0276800Y0073044D01*
X0276124Y0071411D01*
X0274689Y0069976D01*
X0272814Y0069200D01*
X0270786Y0069200D01*
X0268911Y0069976D01*
X0267476Y0071411D01*
X0266800Y0073044D01*
X0266124Y0071411D01*
X0264689Y0069976D01*
X0262814Y0069200D01*
X0260786Y0069200D01*
X0258911Y0069976D01*
X0257476Y0071411D01*
X0256800Y0073044D01*
X0256124Y0071411D01*
X0254689Y0069976D01*
X0252814Y0069200D01*
X0250786Y0069200D01*
X0249697Y0069651D01*
X0247546Y0067500D01*
X0243646Y0067500D01*
X0246686Y0064460D01*
X0247147Y0064921D01*
X0248544Y0065500D01*
X0250056Y0065500D01*
X0251453Y0064921D01*
X0252521Y0063853D01*
X0253100Y0062456D01*
X0253100Y0056211D01*
X0253389Y0056500D01*
X0255500Y0058611D01*
X0255500Y0062456D01*
X0256079Y0063853D01*
X0257147Y0064921D01*
X0258544Y0065500D01*
X0260056Y0065500D01*
X0261453Y0064921D01*
X0262521Y0063853D01*
X0263100Y0062456D01*
X0263100Y0056144D01*
X0262521Y0054747D01*
X0261453Y0053679D01*
X0260056Y0053100D01*
X0258544Y0053100D01*
X0257147Y0053679D01*
X0256969Y0053857D01*
X0256500Y0053389D01*
X0256500Y0047098D01*
X0256547Y0047051D01*
X0256950Y0046077D01*
X0256950Y0045023D01*
X0256547Y0044049D01*
X0255801Y0043303D01*
X0254827Y0042900D01*
X0253773Y0042900D01*
X0252799Y0043303D01*
X0252053Y0044049D01*
X0251650Y0045023D01*
X0251650Y0046077D01*
X0252053Y0047051D01*
X0252100Y0047098D01*
X0252100Y0054326D01*
X0251453Y0053679D01*
X0250056Y0053100D01*
X0248544Y0053100D01*
X0247147Y0053679D01*
X0246079Y0054747D01*
X0245500Y0056144D01*
X0245500Y0060554D01*
X0242747Y0063307D01*
X0243100Y0062456D01*
X0243100Y0056144D01*
X0242521Y0054747D01*
X0241453Y0053679D01*
X0240056Y0053100D01*
X0238544Y0053100D01*
X0237147Y0053679D01*
X0236079Y0054747D01*
X0235500Y0056144D01*
X0235500Y0062456D01*
X0236079Y0063853D01*
X0237147Y0064921D01*
X0237337Y0065000D01*
X0231263Y0065000D01*
X0231453Y0064921D01*
X0232521Y0063853D01*
X0233100Y0062456D01*
X0233100Y0056144D01*
X0232521Y0054747D01*
X0231453Y0053679D01*
X0230056Y0053100D01*
X0228544Y0053100D01*
X0227147Y0053679D01*
X0226079Y0054747D01*
X0225500Y0056144D01*
X0225500Y0057500D01*
X0215046Y0057500D01*
X0210600Y0053054D01*
X0210600Y0050226D01*
X0208374Y0048000D01*
X0205226Y0048000D01*
X0203000Y0050226D01*
X0203000Y0053374D01*
X0205226Y0055600D01*
X0208054Y0055600D01*
X0213554Y0061100D01*
X0225500Y0061100D01*
X0225500Y0062456D01*
X0226079Y0063853D01*
X0227147Y0064921D01*
X0227337Y0065000D01*
X0185046Y0065000D01*
X0180600Y0060554D01*
X0180600Y0057726D01*
X0178374Y0055500D01*
X0175226Y0055500D01*
X0173000Y0057726D01*
X0173000Y0060874D01*
X0175226Y0063100D01*
X0178054Y0063100D01*
X0182454Y0067500D01*
X0128554Y0067500D01*
X0127500Y0068554D01*
X0125753Y0070302D01*
X0125145Y0070050D01*
X0123455Y0070050D01*
X0121893Y0070697D01*
X0120697Y0071893D01*
X0120050Y0073455D01*
X0120050Y0075145D01*
X0120697Y0076707D01*
X0121893Y0077903D01*
X0123455Y0078550D01*
X0125145Y0078550D01*
X0126707Y0077903D01*
X0127903Y0076707D01*
X0128550Y0075145D01*
X0128550Y0073455D01*
X0128298Y0072847D01*
X0130046Y0071100D01*
X0131490Y0071100D01*
X0130697Y0071893D01*
X0130050Y0073455D01*
X0130050Y0075145D01*
X0130697Y0076707D01*
X0131893Y0077903D01*
X0133455Y0078550D01*
X0135145Y0078550D01*
X0135753Y0078298D01*
X0137454Y0080000D01*
X0122546Y0080000D01*
X0118298Y0075753D01*
X0118550Y0075145D01*
X0118550Y0073455D01*
X0117903Y0071893D01*
X0116707Y0070697D01*
X0115145Y0070050D01*
X0113455Y0070050D01*
X0111893Y0070697D01*
X0110697Y0071893D01*
X0110050Y0073455D01*
X0110050Y0075145D01*
X0110697Y0076707D01*
X0111893Y0077903D01*
X0113455Y0078550D01*
X0115145Y0078550D01*
X0115753Y0078298D01*
X0119176Y0081722D01*
X0008650Y0081722D01*
X0008650Y0080332D02*
X0117786Y0080332D01*
X0116187Y0078733D02*
X0015704Y0078733D01*
X0015389Y0078835D02*
X0014666Y0078950D01*
X0014450Y0078950D01*
X0014450Y0074450D01*
X0014150Y0074450D01*
X0014150Y0078950D01*
X0013934Y0078950D01*
X0013211Y0078835D01*
X0012515Y0078609D01*
X0011863Y0078277D01*
X0011271Y0077847D01*
X0010753Y0077329D01*
X0010323Y0076737D01*
X0009991Y0076085D01*
X0009764Y0075389D01*
X0009650Y0074666D01*
X0009650Y0074450D01*
X0014150Y0074450D01*
X0014150Y0074150D01*
X0009650Y0074150D01*
X0009650Y0073934D01*
X0009764Y0073211D01*
X0009991Y0072515D01*
X0010323Y0071863D01*
X0010753Y0071271D01*
X0011271Y0070753D01*
X0011863Y0070323D01*
X0012515Y0069991D01*
X0013211Y0069764D01*
X0013934Y0069650D01*
X0014150Y0069650D01*
X0014150Y0074150D01*
X0014450Y0074150D01*
X0014450Y0074450D01*
X0018950Y0074450D01*
X0018950Y0074666D01*
X0018835Y0075389D01*
X0018609Y0076085D01*
X0018277Y0076737D01*
X0017847Y0077329D01*
X0017329Y0077847D01*
X0016737Y0078277D01*
X0016085Y0078609D01*
X0015389Y0078835D01*
X0014450Y0078733D02*
X0014150Y0078733D01*
X0012896Y0078733D02*
X0008650Y0078733D01*
X0008650Y0077134D02*
X0010612Y0077134D01*
X0014150Y0077134D02*
X0014450Y0077134D01*
X0017988Y0077134D02*
X0021124Y0077134D01*
X0020697Y0076707D02*
X0020050Y0075145D01*
X0020050Y0073455D01*
X0020697Y0071893D01*
X0021893Y0070697D01*
X0023455Y0070050D01*
X0025145Y0070050D01*
X0026707Y0070697D01*
X0027903Y0071893D01*
X0028550Y0073455D01*
X0028550Y0075145D01*
X0027903Y0076707D01*
X0026707Y0077903D01*
X0025145Y0078550D01*
X0023455Y0078550D01*
X0021893Y0077903D01*
X0020697Y0076707D01*
X0027476Y0077134D02*
X0031124Y0077134D01*
X0030697Y0076707D02*
X0030050Y0075145D01*
X0030050Y0073455D01*
X0030697Y0071893D01*
X0031893Y0070697D01*
X0033455Y0070050D01*
X0035145Y0070050D01*
X0036707Y0070697D01*
X0037903Y0071893D01*
X0038550Y0073455D01*
X0038550Y0075145D01*
X0037903Y0076707D01*
X0036707Y0077903D01*
X0035145Y0078550D01*
X0033455Y0078550D01*
X0031893Y0077903D01*
X0030697Y0076707D01*
X0037476Y0077134D02*
X0041124Y0077134D01*
X0040697Y0076707D02*
X0040050Y0075145D01*
X0040050Y0073455D01*
X0040697Y0071893D01*
X0041893Y0070697D01*
X0043455Y0070050D01*
X0045145Y0070050D01*
X0046707Y0070697D01*
X0047903Y0071893D01*
X0048550Y0073455D01*
X0048550Y0075145D01*
X0047903Y0076707D01*
X0046707Y0077903D01*
X0045145Y0078550D01*
X0043455Y0078550D01*
X0041893Y0077903D01*
X0040697Y0076707D01*
X0047476Y0077134D02*
X0051124Y0077134D01*
X0050697Y0076707D02*
X0051893Y0077903D01*
X0053455Y0078550D01*
X0055145Y0078550D01*
X0056707Y0077903D01*
X0057903Y0076707D01*
X0058550Y0075145D01*
X0058550Y0073455D01*
X0057903Y0071893D01*
X0056707Y0070697D01*
X0055145Y0070050D01*
X0053455Y0070050D01*
X0051893Y0070697D01*
X0050697Y0071893D01*
X0050050Y0073455D01*
X0050050Y0075145D01*
X0050697Y0076707D01*
X0050212Y0075536D02*
X0048388Y0075536D01*
X0048550Y0073937D02*
X0050050Y0073937D01*
X0040212Y0075536D02*
X0038388Y0075536D01*
X0038550Y0073937D02*
X0040050Y0073937D01*
X0040512Y0072339D02*
X0038088Y0072339D01*
X0030512Y0072339D02*
X0028088Y0072339D01*
X0020512Y0072339D02*
X0018520Y0072339D01*
X0018609Y0072515D02*
X0018835Y0073211D01*
X0018950Y0073934D01*
X0018950Y0074150D01*
X0014450Y0074150D01*
X0014450Y0069650D01*
X0014666Y0069650D01*
X0015389Y0069764D01*
X0016085Y0069991D01*
X0016737Y0070323D01*
X0017329Y0070753D01*
X0017847Y0071271D01*
X0018277Y0071863D01*
X0018609Y0072515D01*
X0014450Y0072339D02*
X0014150Y0072339D01*
X0010080Y0072339D02*
X0008650Y0072339D01*
X0008650Y0073937D02*
X0009650Y0073937D01*
X0009812Y0075536D02*
X0008650Y0075536D01*
X0014150Y0075536D02*
X0014450Y0075536D01*
X0014450Y0073937D02*
X0014150Y0073937D01*
X0018950Y0073937D02*
X0020050Y0073937D01*
X0020212Y0075536D02*
X0018788Y0075536D01*
X0028388Y0075536D02*
X0030212Y0075536D01*
X0030050Y0073937D02*
X0028550Y0073937D01*
X0048088Y0072339D02*
X0050512Y0072339D01*
X0051849Y0070740D02*
X0046751Y0070740D01*
X0041849Y0070740D02*
X0036751Y0070740D01*
X0031849Y0070740D02*
X0026751Y0070740D01*
X0021849Y0070740D02*
X0017312Y0070740D01*
X0014450Y0070740D02*
X0014150Y0070740D01*
X0011288Y0070740D02*
X0008650Y0070740D01*
X0008650Y0069142D02*
X0067500Y0069142D01*
X0067500Y0070046D02*
X0067500Y0066474D01*
X0065874Y0068100D01*
X0062726Y0068100D01*
X0060500Y0065874D01*
X0060500Y0062726D01*
X0062726Y0060500D01*
X0065874Y0060500D01*
X0067500Y0062126D01*
X0067500Y0047498D01*
X0067053Y0047051D01*
X0066650Y0046077D01*
X0066650Y0045023D01*
X0067053Y0044049D01*
X0067799Y0043303D01*
X0068773Y0042900D01*
X0069827Y0042900D01*
X0070801Y0043303D01*
X0071547Y0044049D01*
X0071950Y0045023D01*
X0071950Y0046077D01*
X0071547Y0047051D01*
X0071100Y0047498D01*
X0071100Y0054160D01*
X0071564Y0053696D01*
X0072099Y0053308D01*
X0072688Y0053008D01*
X0073316Y0052803D01*
X0073969Y0052700D01*
X0074300Y0052700D01*
X0074631Y0052700D01*
X0075284Y0052803D01*
X0075912Y0053008D01*
X0076501Y0053308D01*
X0077036Y0053696D01*
X0077504Y0054164D01*
X0077892Y0054699D01*
X0078192Y0055288D01*
X0078397Y0055916D01*
X0078500Y0056569D01*
X0078500Y0059300D01*
X0078500Y0062031D01*
X0078397Y0062684D01*
X0078192Y0063312D01*
X0077892Y0063901D01*
X0077504Y0064436D01*
X0077036Y0064904D01*
X0076501Y0065292D01*
X0075912Y0065592D01*
X0075284Y0065797D01*
X0074631Y0065900D01*
X0074300Y0065900D01*
X0074300Y0059300D01*
X0078500Y0059300D01*
X0074300Y0059300D01*
X0074300Y0059300D01*
X0074300Y0059300D01*
X0074300Y0052700D01*
X0074300Y0059300D01*
X0074300Y0059300D01*
X0074300Y0065900D01*
X0073969Y0065900D01*
X0073316Y0065797D01*
X0072688Y0065592D01*
X0072099Y0065292D01*
X0071564Y0064904D01*
X0071100Y0064440D01*
X0071100Y0068554D01*
X0072847Y0070302D01*
X0073455Y0070050D01*
X0075145Y0070050D01*
X0076707Y0070697D01*
X0077903Y0071893D01*
X0078550Y0073455D01*
X0078550Y0075145D01*
X0077903Y0076707D01*
X0076707Y0077903D01*
X0075145Y0078550D01*
X0073455Y0078550D01*
X0071893Y0077903D01*
X0070697Y0076707D01*
X0070050Y0075145D01*
X0070050Y0073455D01*
X0070302Y0072847D01*
X0068554Y0071100D01*
X0067500Y0070046D01*
X0068195Y0070740D02*
X0066751Y0070740D01*
X0066707Y0070697D02*
X0067903Y0071893D01*
X0068550Y0073455D01*
X0068550Y0075145D01*
X0067903Y0076707D01*
X0066707Y0077903D01*
X0065145Y0078550D01*
X0063455Y0078550D01*
X0061893Y0077903D01*
X0060697Y0076707D01*
X0060050Y0075145D01*
X0060050Y0073455D01*
X0060697Y0071893D01*
X0061893Y0070697D01*
X0063455Y0070050D01*
X0065145Y0070050D01*
X0066707Y0070697D01*
X0061849Y0070740D02*
X0056751Y0070740D01*
X0058088Y0072339D02*
X0060512Y0072339D01*
X0060050Y0073937D02*
X0058550Y0073937D01*
X0058388Y0075536D02*
X0060212Y0075536D01*
X0061124Y0077134D02*
X0057476Y0077134D01*
X0067476Y0077134D02*
X0071124Y0077134D01*
X0077476Y0077134D02*
X0081124Y0077134D01*
X0080697Y0076707D02*
X0080050Y0075145D01*
X0080050Y0073455D01*
X0080697Y0071893D01*
X0081893Y0070697D01*
X0083455Y0070050D01*
X0085145Y0070050D01*
X0086707Y0070697D01*
X0087903Y0071893D01*
X0088550Y0073455D01*
X0088550Y0075145D01*
X0087903Y0076707D01*
X0086707Y0077903D01*
X0085145Y0078550D01*
X0083455Y0078550D01*
X0081893Y0077903D01*
X0080697Y0076707D01*
X0087476Y0077134D02*
X0091124Y0077134D01*
X0090697Y0076707D02*
X0090050Y0075145D01*
X0090050Y0073455D01*
X0090697Y0071893D01*
X0091893Y0070697D01*
X0093455Y0070050D01*
X0095145Y0070050D01*
X0096707Y0070697D01*
X0097903Y0071893D01*
X0098550Y0073455D01*
X0098550Y0075145D01*
X0097903Y0076707D01*
X0096707Y0077903D01*
X0095145Y0078550D01*
X0093455Y0078550D01*
X0091893Y0077903D01*
X0090697Y0076707D01*
X0097476Y0077134D02*
X0101124Y0077134D01*
X0100697Y0076707D02*
X0100050Y0075145D01*
X0100050Y0073455D01*
X0100697Y0071893D01*
X0101893Y0070697D01*
X0103455Y0070050D01*
X0105145Y0070050D01*
X0106707Y0070697D01*
X0107903Y0071893D01*
X0108550Y0073455D01*
X0108550Y0075145D01*
X0107903Y0076707D01*
X0106707Y0077903D01*
X0105145Y0078550D01*
X0103455Y0078550D01*
X0101893Y0077903D01*
X0100697Y0076707D01*
X0100212Y0075536D02*
X0098388Y0075536D01*
X0098550Y0073937D02*
X0100050Y0073937D01*
X0100512Y0072339D02*
X0098088Y0072339D01*
X0090512Y0072339D02*
X0088088Y0072339D01*
X0080512Y0072339D02*
X0078088Y0072339D01*
X0069793Y0072339D02*
X0068088Y0072339D01*
X0068550Y0073937D02*
X0070050Y0073937D01*
X0070212Y0075536D02*
X0068388Y0075536D01*
X0078388Y0075536D02*
X0080212Y0075536D01*
X0080050Y0073937D02*
X0078550Y0073937D01*
X0088388Y0075536D02*
X0090212Y0075536D01*
X0090050Y0073937D02*
X0088550Y0073937D01*
X0086751Y0070740D02*
X0091849Y0070740D01*
X0096751Y0070740D02*
X0101849Y0070740D01*
X0106751Y0070740D02*
X0111849Y0070740D01*
X0116751Y0070740D02*
X0121849Y0070740D01*
X0120512Y0072339D02*
X0118088Y0072339D01*
X0110512Y0072339D02*
X0108088Y0072339D01*
X0108550Y0073937D02*
X0110050Y0073937D01*
X0110212Y0075536D02*
X0108388Y0075536D01*
X0118388Y0075536D02*
X0120212Y0075536D01*
X0120050Y0073937D02*
X0118550Y0073937D01*
X0128388Y0075536D02*
X0130212Y0075536D01*
X0130050Y0073937D02*
X0128550Y0073937D01*
X0128807Y0072339D02*
X0130512Y0072339D01*
X0126912Y0069142D02*
X0071688Y0069142D01*
X0071100Y0067543D02*
X0128511Y0067543D01*
X0132726Y0063100D02*
X0130500Y0060874D01*
X0130500Y0057726D01*
X0132726Y0055500D01*
X0135874Y0055500D01*
X0138100Y0057726D01*
X0138100Y0060874D01*
X0135874Y0063100D01*
X0132726Y0063100D01*
X0132374Y0062748D02*
X0087979Y0062748D01*
X0088100Y0062456D02*
X0088100Y0058046D01*
X0090046Y0056100D01*
X0091100Y0055046D01*
X0091100Y0038748D01*
X0091547Y0038301D01*
X0091950Y0037327D01*
X0091950Y0036273D01*
X0091547Y0035299D01*
X0090801Y0034553D01*
X0089827Y0034150D01*
X0088773Y0034150D01*
X0087799Y0034553D01*
X0087053Y0035299D01*
X0086650Y0036273D01*
X0086650Y0037327D01*
X0087053Y0038301D01*
X0087500Y0038748D01*
X0087500Y0053554D01*
X0086914Y0054140D01*
X0086453Y0053679D01*
X0085056Y0053100D01*
X0083544Y0053100D01*
X0082147Y0053679D01*
X0081079Y0054747D01*
X0080500Y0056144D01*
X0080500Y0062456D01*
X0081079Y0063853D01*
X0082147Y0064921D01*
X0083544Y0065500D01*
X0085056Y0065500D01*
X0086453Y0064921D01*
X0087521Y0063853D01*
X0088100Y0062456D01*
X0088100Y0061149D02*
X0130775Y0061149D01*
X0136226Y0062748D02*
X0154874Y0062748D01*
X0155226Y0063100D02*
X0153000Y0060874D01*
X0153000Y0057726D01*
X0155226Y0055500D01*
X0158374Y0055500D01*
X0160600Y0057726D01*
X0160600Y0060874D01*
X0158374Y0063100D01*
X0155226Y0063100D01*
X0158726Y0062748D02*
X0174874Y0062748D01*
X0173275Y0061149D02*
X0160325Y0061149D01*
X0153275Y0061149D02*
X0137825Y0061149D01*
X0138100Y0059551D02*
X0153000Y0059551D01*
X0160600Y0059551D02*
X0173000Y0059551D01*
X0180600Y0059551D02*
X0192600Y0059551D01*
X0192600Y0059300D02*
X0196800Y0059300D01*
X0196800Y0059300D01*
X0196800Y0063500D01*
X0198540Y0063500D01*
X0201000Y0061040D01*
X0201000Y0059300D01*
X0196800Y0059300D01*
X0196800Y0059300D01*
X0196800Y0059300D01*
X0196800Y0063500D01*
X0195060Y0063500D01*
X0192600Y0061040D01*
X0192600Y0059300D01*
X0192600Y0057560D01*
X0195060Y0055100D01*
X0196800Y0055100D01*
X0198540Y0055100D01*
X0201000Y0057560D01*
X0201000Y0059300D01*
X0196800Y0059300D01*
X0196800Y0055100D01*
X0196800Y0059300D01*
X0196800Y0059300D01*
X0192600Y0059300D01*
X0196800Y0059551D02*
X0196800Y0059551D01*
X0201000Y0059551D02*
X0212005Y0059551D01*
X0210407Y0057952D02*
X0201000Y0057952D01*
X0196800Y0057952D02*
X0196800Y0057952D01*
X0192600Y0057952D02*
X0180600Y0057952D01*
X0173000Y0057952D02*
X0160600Y0057952D01*
X0153000Y0057952D02*
X0138100Y0057952D01*
X0130500Y0057952D02*
X0088193Y0057952D01*
X0080500Y0057952D02*
X0078500Y0057952D01*
X0074300Y0057952D02*
X0074300Y0057952D01*
X0074300Y0056354D02*
X0074300Y0056354D01*
X0074300Y0054755D02*
X0074300Y0054755D01*
X0077921Y0054755D02*
X0081075Y0054755D01*
X0080500Y0056354D02*
X0078466Y0056354D01*
X0067500Y0056354D02*
X0056100Y0056354D01*
X0056100Y0054755D02*
X0067500Y0054755D01*
X0067500Y0053157D02*
X0056100Y0053157D01*
X0052500Y0053157D02*
X0046205Y0053157D01*
X0045912Y0053008D02*
X0046501Y0053308D01*
X0047036Y0053696D01*
X0047504Y0054164D01*
X0047892Y0054699D01*
X0048192Y0055288D01*
X0048397Y0055916D01*
X0048500Y0056569D01*
X0048500Y0059300D01*
X0048500Y0062031D01*
X0048397Y0062684D01*
X0048192Y0063312D01*
X0047892Y0063901D01*
X0047504Y0064436D01*
X0047036Y0064904D01*
X0046501Y0065292D01*
X0045912Y0065592D01*
X0045284Y0065797D01*
X0044631Y0065900D01*
X0044300Y0065900D01*
X0044300Y0059300D01*
X0048500Y0059300D01*
X0044300Y0059300D01*
X0044300Y0059300D01*
X0044300Y0059300D01*
X0044300Y0052700D01*
X0044631Y0052700D01*
X0045284Y0052803D01*
X0045912Y0053008D01*
X0044300Y0053157D02*
X0044300Y0053157D01*
X0044300Y0052700D02*
X0044300Y0059300D01*
X0044300Y0059300D01*
X0044300Y0059300D01*
X0040100Y0059300D01*
X0040100Y0062031D01*
X0040203Y0062684D01*
X0040408Y0063312D01*
X0040708Y0063901D01*
X0041096Y0064436D01*
X0041564Y0064904D01*
X0042099Y0065292D01*
X0042688Y0065592D01*
X0043316Y0065797D01*
X0043969Y0065900D01*
X0044300Y0065900D01*
X0044300Y0059300D01*
X0040100Y0059300D01*
X0040100Y0056569D01*
X0040203Y0055916D01*
X0040408Y0055288D01*
X0040708Y0054699D01*
X0041096Y0054164D01*
X0041564Y0053696D01*
X0042099Y0053308D01*
X0042688Y0053008D01*
X0043316Y0052803D01*
X0043969Y0052700D01*
X0044300Y0052700D01*
X0042395Y0053157D02*
X0035193Y0053157D01*
X0035056Y0053100D02*
X0036453Y0053679D01*
X0037521Y0054747D01*
X0038100Y0056144D01*
X0038100Y0062456D01*
X0037521Y0063853D01*
X0036453Y0064921D01*
X0035056Y0065500D01*
X0033544Y0065500D01*
X0032147Y0064921D01*
X0031079Y0063853D01*
X0030500Y0062456D01*
X0030500Y0058328D01*
X0027300Y0055128D01*
X0027300Y0018472D01*
X0028472Y0017300D01*
X0030219Y0015553D01*
X0030050Y0015145D01*
X0030050Y0013455D01*
X0030697Y0011893D01*
X0031893Y0010697D01*
X0033455Y0010050D01*
X0035145Y0010050D01*
X0036707Y0010697D01*
X0037903Y0011893D01*
X0038550Y0013455D01*
X0038550Y0015145D01*
X0037903Y0016707D01*
X0036707Y0017903D01*
X0035145Y0018550D01*
X0033455Y0018550D01*
X0033047Y0018381D01*
X0031300Y0020128D01*
X0031300Y0024526D01*
X0032147Y0023679D01*
X0033544Y0023100D01*
X0035056Y0023100D01*
X0036453Y0023679D01*
X0037521Y0024747D01*
X0038100Y0026144D01*
X0038100Y0032456D01*
X0037521Y0033853D01*
X0036453Y0034921D01*
X0035056Y0035500D01*
X0033544Y0035500D01*
X0032147Y0034921D01*
X0031300Y0034074D01*
X0031300Y0053472D01*
X0031827Y0053999D01*
X0032147Y0053679D01*
X0033544Y0053100D01*
X0035056Y0053100D01*
X0033407Y0053157D02*
X0031300Y0053157D01*
X0027300Y0053157D02*
X0008650Y0053157D01*
X0008650Y0054755D02*
X0027300Y0054755D01*
X0028525Y0056354D02*
X0008650Y0056354D01*
X0008650Y0057952D02*
X0030124Y0057952D01*
X0038100Y0057952D02*
X0040100Y0057952D01*
X0044300Y0057952D02*
X0044300Y0057952D01*
X0048500Y0057952D02*
X0052500Y0057952D01*
X0056100Y0057952D02*
X0067500Y0057952D01*
X0067500Y0059551D02*
X0056100Y0059551D01*
X0056100Y0060726D02*
X0058100Y0062726D01*
X0058100Y0065874D01*
X0055874Y0068100D01*
X0052726Y0068100D01*
X0050500Y0065874D01*
X0050500Y0062726D01*
X0052500Y0060726D01*
X0052500Y0038748D01*
X0052053Y0038301D01*
X0051650Y0037327D01*
X0051650Y0036273D01*
X0052053Y0035299D01*
X0052799Y0034553D01*
X0053773Y0034150D01*
X0054827Y0034150D01*
X0055801Y0034553D01*
X0056547Y0035299D01*
X0056950Y0036273D01*
X0056950Y0037327D01*
X0056547Y0038301D01*
X0056100Y0038748D01*
X0056100Y0060726D01*
X0056523Y0061149D02*
X0062077Y0061149D01*
X0060500Y0062748D02*
X0058100Y0062748D01*
X0052077Y0061149D02*
X0048500Y0061149D01*
X0048376Y0062748D02*
X0050500Y0062748D01*
X0044300Y0062748D02*
X0044300Y0062748D01*
X0044300Y0061149D02*
X0044300Y0061149D01*
X0040100Y0061149D02*
X0038100Y0061149D01*
X0037979Y0062748D02*
X0040224Y0062748D01*
X0041031Y0064346D02*
X0037028Y0064346D01*
X0031572Y0064346D02*
X0008650Y0064346D01*
X0008650Y0062748D02*
X0030621Y0062748D01*
X0030500Y0061149D02*
X0008650Y0061149D01*
X0008650Y0059551D02*
X0030500Y0059551D01*
X0038100Y0059551D02*
X0040100Y0059551D01*
X0044300Y0059551D02*
X0044300Y0059551D01*
X0048500Y0059551D02*
X0052500Y0059551D01*
X0066523Y0061149D02*
X0067500Y0061149D01*
X0074300Y0061149D02*
X0074300Y0061149D01*
X0074300Y0062748D02*
X0074300Y0062748D01*
X0078376Y0062748D02*
X0080621Y0062748D01*
X0080500Y0061149D02*
X0078500Y0061149D01*
X0078500Y0059551D02*
X0080500Y0059551D01*
X0074300Y0059551D02*
X0074300Y0059551D01*
X0088100Y0059551D02*
X0130500Y0059551D01*
X0131872Y0056354D02*
X0089792Y0056354D01*
X0091100Y0054755D02*
X0119381Y0054755D01*
X0120226Y0055600D02*
X0118000Y0053374D01*
X0118000Y0050226D01*
X0120226Y0048000D01*
X0123374Y0048000D01*
X0125600Y0050226D01*
X0125600Y0053374D01*
X0123374Y0055600D01*
X0120226Y0055600D01*
X0124219Y0054755D02*
X0164381Y0054755D01*
X0165226Y0055600D02*
X0163000Y0053374D01*
X0163000Y0050226D01*
X0165226Y0048000D01*
X0168374Y0048000D01*
X0170600Y0050226D01*
X0170600Y0053374D01*
X0168374Y0055600D01*
X0165226Y0055600D01*
X0169219Y0054755D02*
X0184381Y0054755D01*
X0185226Y0055600D02*
X0183000Y0053374D01*
X0183000Y0050226D01*
X0185226Y0048000D01*
X0188374Y0048000D01*
X0190600Y0050226D01*
X0190600Y0053374D01*
X0188374Y0055600D01*
X0185226Y0055600D01*
X0189219Y0054755D02*
X0204381Y0054755D01*
X0208808Y0056354D02*
X0199794Y0056354D01*
X0196800Y0056354D02*
X0196800Y0056354D01*
X0193806Y0056354D02*
X0179228Y0056354D01*
X0174372Y0056354D02*
X0159228Y0056354D01*
X0154372Y0056354D02*
X0136728Y0056354D01*
X0125600Y0053157D02*
X0163000Y0053157D01*
X0163000Y0051558D02*
X0125600Y0051558D01*
X0125334Y0049960D02*
X0163266Y0049960D01*
X0164865Y0048361D02*
X0123735Y0048361D01*
X0119865Y0048361D02*
X0106000Y0048361D01*
X0106000Y0047560D02*
X0106000Y0049300D01*
X0106000Y0051040D01*
X0103540Y0053500D01*
X0101800Y0053500D01*
X0101800Y0049300D01*
X0106000Y0049300D01*
X0101800Y0049300D01*
X0101800Y0049300D01*
X0101800Y0049300D01*
X0101800Y0045100D01*
X0103540Y0045100D01*
X0106000Y0047560D01*
X0105202Y0046763D02*
X0214434Y0046763D01*
X0214553Y0047051D02*
X0214150Y0046077D01*
X0214150Y0045023D01*
X0214553Y0044049D01*
X0215299Y0043303D01*
X0216273Y0042900D01*
X0217327Y0042900D01*
X0218301Y0043303D01*
X0219047Y0044049D01*
X0219450Y0045023D01*
X0219450Y0046077D01*
X0219047Y0047051D01*
X0219000Y0047098D01*
X0219000Y0048626D01*
X0220600Y0050226D01*
X0220600Y0053374D01*
X0218374Y0055600D01*
X0215226Y0055600D01*
X0213000Y0053374D01*
X0213000Y0050226D01*
X0214600Y0048626D01*
X0214600Y0047098D01*
X0214553Y0047051D01*
X0216800Y0045550D02*
X0216800Y0051800D01*
X0220600Y0051558D02*
X0231849Y0051558D01*
X0236751Y0051558D02*
X0252100Y0051558D01*
X0256500Y0051558D02*
X0261849Y0051558D01*
X0266751Y0051558D02*
X0274496Y0051558D01*
X0279587Y0051558D02*
X0292500Y0051558D01*
X0296100Y0051558D02*
X0322895Y0051558D01*
X0322100Y0052353D02*
X0324853Y0049600D01*
X0328747Y0049600D01*
X0331500Y0052353D01*
X0331500Y0056247D01*
X0328747Y0059000D01*
X0324853Y0059000D01*
X0322100Y0056247D01*
X0322100Y0052353D01*
X0322100Y0053157D02*
X0296100Y0053157D01*
X0292500Y0053157D02*
X0290193Y0053157D01*
X0288407Y0053157D02*
X0280193Y0053157D01*
X0278407Y0053157D02*
X0277989Y0053157D01*
X0272898Y0053157D02*
X0270193Y0053157D01*
X0268407Y0053157D02*
X0264931Y0053157D01*
X0263669Y0053157D02*
X0260193Y0053157D01*
X0258407Y0053157D02*
X0256500Y0053157D01*
X0254300Y0054300D02*
X0254300Y0045550D01*
X0251934Y0046763D02*
X0236100Y0046763D01*
X0232500Y0046763D02*
X0219166Y0046763D01*
X0219000Y0048361D02*
X0232500Y0048361D01*
X0231676Y0049960D02*
X0220334Y0049960D01*
X0214600Y0048361D02*
X0208735Y0048361D01*
X0210334Y0049960D02*
X0213266Y0049960D01*
X0204865Y0048361D02*
X0188735Y0048361D01*
X0190334Y0049960D02*
X0203266Y0049960D01*
X0203000Y0051558D02*
X0190600Y0051558D01*
X0183000Y0051558D02*
X0170600Y0051558D01*
X0170600Y0053157D02*
X0183000Y0053157D01*
X0190600Y0053157D02*
X0203000Y0053157D01*
X0210702Y0053157D02*
X0213000Y0053157D01*
X0213000Y0051558D02*
X0210600Y0051558D01*
X0220600Y0053157D02*
X0228407Y0053157D01*
X0230193Y0053157D02*
X0233669Y0053157D01*
X0234931Y0053157D02*
X0238407Y0053157D01*
X0240193Y0053157D02*
X0248407Y0053157D01*
X0250193Y0053157D02*
X0252100Y0053157D01*
X0254300Y0054300D02*
X0259300Y0059300D01*
X0263100Y0059551D02*
X0265500Y0059551D01*
X0255500Y0059551D02*
X0253100Y0059551D01*
X0245500Y0059551D02*
X0243100Y0059551D01*
X0235500Y0059551D02*
X0233100Y0059551D01*
X0233100Y0061149D02*
X0235500Y0061149D01*
X0235621Y0062748D02*
X0232979Y0062748D01*
X0242979Y0062748D02*
X0243307Y0062748D01*
X0243100Y0061149D02*
X0244905Y0061149D01*
X0253100Y0061149D02*
X0255500Y0061149D01*
X0255621Y0062748D02*
X0252979Y0062748D01*
X0252028Y0064346D02*
X0256572Y0064346D01*
X0262028Y0064346D02*
X0266572Y0064346D01*
X0272028Y0064346D02*
X0276572Y0064346D01*
X0282028Y0064346D02*
X0286572Y0064346D01*
X0292028Y0064346D02*
X0292500Y0064346D01*
X0296100Y0064346D02*
X0332100Y0064346D01*
X0332100Y0062748D02*
X0314292Y0062748D01*
X0313540Y0063500D02*
X0316000Y0061040D01*
X0316000Y0059300D01*
X0311800Y0059300D01*
X0311800Y0059300D01*
X0311800Y0063500D01*
X0313540Y0063500D01*
X0311800Y0063500D02*
X0310060Y0063500D01*
X0307600Y0061040D01*
X0307600Y0059300D01*
X0311800Y0059300D01*
X0311800Y0059300D01*
X0311800Y0059300D01*
X0311800Y0063500D01*
X0311800Y0062748D02*
X0311800Y0062748D01*
X0311800Y0061149D02*
X0311800Y0061149D01*
X0309308Y0062748D02*
X0304292Y0062748D01*
X0303540Y0063500D02*
X0301800Y0063500D01*
X0301800Y0059300D01*
X0301800Y0059300D01*
X0306000Y0059300D01*
X0306000Y0061040D01*
X0303540Y0063500D01*
X0301800Y0063500D02*
X0300060Y0063500D01*
X0297600Y0061040D01*
X0297600Y0059300D01*
X0301800Y0059300D01*
X0301800Y0059300D01*
X0301800Y0059300D01*
X0301800Y0063500D01*
X0301800Y0062748D02*
X0301800Y0062748D01*
X0301800Y0061149D02*
X0301800Y0061149D01*
X0299308Y0062748D02*
X0296100Y0062748D01*
X0296100Y0061149D02*
X0297710Y0061149D01*
X0297600Y0059551D02*
X0296100Y0059551D01*
X0297600Y0059300D02*
X0297600Y0057560D01*
X0300060Y0055100D01*
X0301800Y0055100D01*
X0303540Y0055100D01*
X0306000Y0057560D01*
X0306000Y0059300D01*
X0301800Y0059300D01*
X0301800Y0055100D01*
X0301800Y0059300D01*
X0301800Y0059300D01*
X0297600Y0059300D01*
X0301800Y0059551D02*
X0301800Y0059551D01*
X0306000Y0059551D02*
X0307600Y0059551D01*
X0307600Y0059300D02*
X0307600Y0057560D01*
X0310060Y0055100D01*
X0311800Y0055100D01*
X0313540Y0055100D01*
X0316000Y0057560D01*
X0316000Y0059300D01*
X0311800Y0059300D01*
X0311800Y0055100D01*
X0311800Y0059300D01*
X0311800Y0059300D01*
X0307600Y0059300D01*
X0311800Y0059551D02*
X0311800Y0059551D01*
X0316000Y0059551D02*
X0355475Y0059551D01*
X0355358Y0059434D02*
X0354650Y0057725D01*
X0354650Y0055875D01*
X0355358Y0054166D01*
X0356666Y0052858D01*
X0358375Y0052150D01*
X0360225Y0052150D01*
X0361934Y0052858D01*
X0363242Y0054166D01*
X0363950Y0055875D01*
X0363950Y0057725D01*
X0363242Y0059434D01*
X0361934Y0060742D01*
X0360225Y0061450D01*
X0358375Y0061450D01*
X0356666Y0060742D01*
X0355358Y0059434D01*
X0351500Y0056247D02*
X0348747Y0059000D01*
X0344853Y0059000D01*
X0342100Y0056247D01*
X0342100Y0052353D01*
X0342666Y0051788D01*
X0338400Y0046100D01*
X0308554Y0046100D01*
X0307500Y0045046D01*
X0300000Y0037546D01*
X0300000Y0032874D01*
X0298000Y0030874D01*
X0298000Y0027726D01*
X0300226Y0025500D01*
X0303374Y0025500D01*
X0305600Y0027726D01*
X0305600Y0030874D01*
X0303600Y0032874D01*
X0303600Y0036054D01*
X0308000Y0040454D01*
X0308000Y0037726D01*
X0310226Y0035500D01*
X0313374Y0035500D01*
X0315600Y0037726D01*
X0315600Y0040874D01*
X0313974Y0042500D01*
X0338700Y0042500D01*
X0338816Y0042413D01*
X0339428Y0042500D01*
X0340046Y0042500D01*
X0340149Y0042603D01*
X0340293Y0042624D01*
X0340663Y0043118D01*
X0341100Y0043554D01*
X0341100Y0043700D01*
X0345525Y0049600D01*
X0348747Y0049600D01*
X0351500Y0052353D01*
X0351500Y0056247D01*
X0351393Y0056354D02*
X0354650Y0056354D01*
X0355114Y0054755D02*
X0351500Y0054755D01*
X0351500Y0053157D02*
X0356367Y0053157D01*
X0362233Y0053157D02*
X0364292Y0053157D01*
X0364250Y0053313D02*
X0364373Y0052855D01*
X0364610Y0052445D01*
X0364945Y0052110D01*
X0365355Y0051873D01*
X0365813Y0051750D01*
X0369300Y0051750D01*
X0372787Y0051750D01*
X0373245Y0051873D01*
X0373655Y0052110D01*
X0373990Y0052445D01*
X0374200Y0052808D01*
X0374200Y0050688D01*
X0377088Y0047800D01*
X0374200Y0044912D01*
X0374200Y0040688D01*
X0377188Y0037700D01*
X0381412Y0037700D01*
X0384400Y0040688D01*
X0384400Y0040922D01*
X0387022Y0038300D01*
X0389100Y0038300D01*
X0389100Y0043600D01*
X0389500Y0043600D01*
X0389500Y0038300D01*
X0391578Y0038300D01*
X0393800Y0040522D01*
X0393800Y0040522D01*
X0397022Y0037300D01*
X0399100Y0037300D01*
X0399100Y0042600D01*
X0399500Y0042600D01*
X0399500Y0037300D01*
X0401578Y0037300D01*
X0404800Y0040522D01*
X0407022Y0038300D01*
X0409100Y0038300D01*
X0409100Y0043600D01*
X0409500Y0043600D01*
X0409500Y0038300D01*
X0411578Y0038300D01*
X0414200Y0040922D01*
X0414200Y0040688D01*
X0417188Y0037700D01*
X0421412Y0037700D01*
X0424400Y0040688D01*
X0424400Y0044912D01*
X0421512Y0047800D01*
X0424400Y0050688D01*
X0424400Y0054912D01*
X0421412Y0057900D01*
X0417188Y0057900D01*
X0414800Y0055512D01*
X0414800Y0056078D01*
X0411578Y0059300D01*
X0409500Y0059300D01*
X0409500Y0054000D01*
X0409100Y0054000D01*
X0409100Y0059300D01*
X0407022Y0059300D01*
X0403800Y0056078D01*
X0401578Y0058300D01*
X0399500Y0058300D01*
X0399500Y0053000D01*
X0399100Y0053000D01*
X0399100Y0058300D01*
X0397022Y0058300D01*
X0394800Y0056078D01*
X0394800Y0056078D01*
X0391578Y0059300D01*
X0389500Y0059300D01*
X0389500Y0054000D01*
X0389100Y0054000D01*
X0389100Y0059300D01*
X0387022Y0059300D01*
X0383800Y0056078D01*
X0383800Y0055512D01*
X0381412Y0057900D01*
X0377188Y0057900D01*
X0374350Y0055062D01*
X0374350Y0056800D01*
X0374350Y0060287D01*
X0374227Y0060745D01*
X0373990Y0061155D01*
X0373655Y0061490D01*
X0373245Y0061727D01*
X0372787Y0061850D01*
X0369300Y0061850D01*
X0369300Y0056800D01*
X0374350Y0056800D01*
X0369300Y0056800D01*
X0369300Y0056800D01*
X0369300Y0056800D01*
X0369300Y0051750D01*
X0369300Y0056800D01*
X0369300Y0056800D01*
X0369300Y0056800D01*
X0364250Y0056800D01*
X0364250Y0060287D01*
X0364373Y0060745D01*
X0364610Y0061155D01*
X0364945Y0061490D01*
X0365355Y0061727D01*
X0365813Y0061850D01*
X0369300Y0061850D01*
X0369300Y0056800D01*
X0364250Y0056800D01*
X0364250Y0053313D01*
X0369300Y0053157D02*
X0369300Y0053157D01*
X0369300Y0054755D02*
X0369300Y0054755D01*
X0369300Y0056354D02*
X0369300Y0056354D01*
X0374350Y0056354D02*
X0375641Y0056354D01*
X0382959Y0056354D02*
X0384076Y0056354D01*
X0389100Y0056354D02*
X0389500Y0056354D01*
X0389500Y0054755D02*
X0389100Y0054755D01*
X0394524Y0056354D02*
X0395076Y0056354D01*
X0399100Y0056354D02*
X0399500Y0056354D01*
X0399500Y0054755D02*
X0399100Y0054755D01*
X0403524Y0056354D02*
X0404076Y0056354D01*
X0403800Y0056078D02*
X0403800Y0056078D01*
X0409100Y0056354D02*
X0409500Y0056354D01*
X0409500Y0054755D02*
X0409100Y0054755D01*
X0414524Y0056354D02*
X0415641Y0056354D01*
X0422959Y0056354D02*
X0426210Y0056354D01*
X0426210Y0054755D02*
X0424400Y0054755D01*
X0424400Y0053157D02*
X0426210Y0053157D01*
X0426210Y0051558D02*
X0424400Y0051558D01*
X0423672Y0049960D02*
X0426210Y0049960D01*
X0426210Y0048361D02*
X0422074Y0048361D01*
X0422550Y0046763D02*
X0426210Y0046763D01*
X0426210Y0045164D02*
X0424148Y0045164D01*
X0424400Y0043566D02*
X0426210Y0043566D01*
X0426210Y0041967D02*
X0424400Y0041967D01*
X0424081Y0040369D02*
X0426210Y0040369D01*
X0426210Y0038770D02*
X0422483Y0038770D01*
X0416117Y0038770D02*
X0412048Y0038770D01*
X0409500Y0038770D02*
X0409100Y0038770D01*
X0406552Y0038770D02*
X0403048Y0038770D01*
X0399500Y0038770D02*
X0399100Y0038770D01*
X0395552Y0038770D02*
X0392048Y0038770D01*
X0389500Y0038770D02*
X0389100Y0038770D01*
X0386552Y0038770D02*
X0382483Y0038770D01*
X0376117Y0038770D02*
X0371650Y0038770D01*
X0371947Y0038619D02*
X0371239Y0038980D01*
X0370483Y0039226D01*
X0369697Y0039350D01*
X0369300Y0039350D01*
X0369300Y0034300D01*
X0374350Y0034300D01*
X0374350Y0034697D01*
X0374226Y0035483D01*
X0373980Y0036239D01*
X0373619Y0036947D01*
X0373152Y0037590D01*
X0372590Y0038152D01*
X0371947Y0038619D01*
X0369300Y0038770D02*
X0369300Y0038770D01*
X0369300Y0039350D02*
X0368903Y0039350D01*
X0368117Y0039226D01*
X0367361Y0038980D01*
X0366653Y0038619D01*
X0366010Y0038152D01*
X0365448Y0037590D01*
X0364981Y0036947D01*
X0364620Y0036239D01*
X0364374Y0035483D01*
X0364250Y0034697D01*
X0364250Y0034300D01*
X0369300Y0034300D01*
X0369300Y0034300D01*
X0369300Y0034300D01*
X0374350Y0034300D01*
X0374350Y0033903D01*
X0374226Y0033117D01*
X0373980Y0032361D01*
X0373619Y0031653D01*
X0373152Y0031010D01*
X0372590Y0030448D01*
X0371947Y0029981D01*
X0371239Y0029620D01*
X0370483Y0029374D01*
X0369697Y0029250D01*
X0369300Y0029250D01*
X0369300Y0034300D01*
X0369300Y0034300D01*
X0369300Y0034300D01*
X0369300Y0039350D01*
X0366950Y0038770D02*
X0363310Y0038770D01*
X0363130Y0038950D02*
X0355470Y0038950D01*
X0354650Y0038130D01*
X0354650Y0030470D01*
X0355470Y0029650D01*
X0363130Y0029650D01*
X0363950Y0030470D01*
X0363950Y0038130D01*
X0363130Y0038950D01*
X0363950Y0037172D02*
X0365144Y0037172D01*
X0364404Y0035573D02*
X0363950Y0035573D01*
X0369300Y0035573D02*
X0369300Y0035573D01*
X0369300Y0037172D02*
X0369300Y0037172D01*
X0373456Y0037172D02*
X0426210Y0037172D01*
X0426210Y0035573D02*
X0374196Y0035573D01*
X0374350Y0033975D02*
X0426210Y0033975D01*
X0426210Y0032376D02*
X0373985Y0032376D01*
X0369300Y0032376D02*
X0369300Y0032376D01*
X0366010Y0030448D02*
X0365448Y0031010D01*
X0364981Y0031653D01*
X0364620Y0032361D01*
X0364374Y0033117D01*
X0364250Y0033903D01*
X0364250Y0034300D01*
X0369300Y0034300D01*
X0369300Y0029250D01*
X0368903Y0029250D01*
X0368117Y0029374D01*
X0367361Y0029620D01*
X0366653Y0029981D01*
X0366010Y0030448D01*
X0365681Y0030778D02*
X0363950Y0030778D01*
X0369300Y0030778D02*
X0369300Y0030778D01*
X0372919Y0030778D02*
X0378598Y0030778D01*
X0378478Y0030690D02*
X0377910Y0030122D01*
X0377438Y0029473D01*
X0377074Y0028758D01*
X0376826Y0027994D01*
X0376700Y0027201D01*
X0376700Y0027100D01*
X0381500Y0027100D01*
X0381500Y0031900D01*
X0381399Y0031900D01*
X0380606Y0031774D01*
X0379842Y0031526D01*
X0379127Y0031162D01*
X0378478Y0030690D01*
X0377288Y0029179D02*
X0336213Y0029179D01*
X0335129Y0030778D02*
X0354650Y0030778D01*
X0354650Y0032376D02*
X0333619Y0032376D01*
X0331200Y0033975D02*
X0354650Y0033975D01*
X0354650Y0035573D02*
X0313447Y0035573D01*
X0315046Y0037172D02*
X0354650Y0037172D01*
X0355290Y0038770D02*
X0315600Y0038770D01*
X0308000Y0038770D02*
X0306316Y0038770D01*
X0301225Y0038770D02*
X0286100Y0038770D01*
X0282500Y0038770D02*
X0266100Y0038770D01*
X0262500Y0038770D02*
X0261500Y0038770D01*
X0257100Y0038770D02*
X0256077Y0038770D01*
X0252523Y0038770D02*
X0236100Y0038770D01*
X0232500Y0038770D02*
X0109144Y0038770D01*
X0108374Y0038000D02*
X0105226Y0038000D01*
X0103000Y0040226D01*
X0103000Y0043374D01*
X0105226Y0045600D01*
X0108374Y0045600D01*
X0110600Y0043374D01*
X0110600Y0040226D01*
X0108374Y0038000D01*
X0104456Y0038770D02*
X0099144Y0038770D01*
X0098374Y0038000D02*
X0095226Y0038000D01*
X0093000Y0040226D01*
X0093000Y0043374D01*
X0095226Y0045600D01*
X0098374Y0045600D01*
X0100600Y0043374D01*
X0100600Y0040226D01*
X0098374Y0038000D01*
X0094456Y0038770D02*
X0091100Y0038770D01*
X0087500Y0038770D02*
X0056100Y0038770D01*
X0052500Y0038770D02*
X0031300Y0038770D01*
X0027300Y0038770D02*
X0008650Y0038770D01*
X0008650Y0037172D02*
X0027300Y0037172D01*
X0027300Y0035573D02*
X0008650Y0035573D01*
X0008650Y0033975D02*
X0027300Y0033975D01*
X0027300Y0032376D02*
X0008650Y0032376D01*
X0008650Y0030778D02*
X0027300Y0030778D01*
X0027300Y0029179D02*
X0008650Y0029179D01*
X0008650Y0027581D02*
X0027300Y0027581D01*
X0027300Y0025982D02*
X0008650Y0025982D01*
X0008650Y0024384D02*
X0027300Y0024384D01*
X0027300Y0022785D02*
X0008650Y0022785D01*
X0008650Y0021187D02*
X0027300Y0021187D01*
X0031300Y0021187D02*
X0052039Y0021187D01*
X0052300Y0020926D02*
X0050500Y0022726D01*
X0050500Y0025874D01*
X0052726Y0028100D01*
X0055874Y0028100D01*
X0058100Y0025874D01*
X0058100Y0022726D01*
X0056300Y0020926D01*
X0056300Y0018072D01*
X0056707Y0017903D01*
X0057903Y0016707D01*
X0058550Y0015145D01*
X0058550Y0013455D01*
X0057903Y0011893D01*
X0056707Y0010697D01*
X0055145Y0010050D01*
X0053455Y0010050D01*
X0051893Y0010697D01*
X0050697Y0011893D01*
X0050050Y0013455D01*
X0050050Y0015145D01*
X0050697Y0016707D01*
X0051893Y0017903D01*
X0052300Y0018072D01*
X0052300Y0020926D01*
X0052300Y0019588D02*
X0031840Y0019588D01*
X0027300Y0019588D02*
X0008650Y0019588D01*
X0011893Y0017903D02*
X0013455Y0018550D01*
X0015145Y0018550D01*
X0016707Y0017903D01*
X0017903Y0016707D01*
X0018550Y0015145D01*
X0018550Y0013455D01*
X0017903Y0011893D01*
X0016707Y0010697D01*
X0015145Y0010050D01*
X0013455Y0010050D01*
X0011893Y0010697D01*
X0010697Y0011893D01*
X0010050Y0013455D01*
X0010050Y0015145D01*
X0010697Y0016707D01*
X0011893Y0017903D01*
X0012102Y0017990D02*
X0008650Y0017990D01*
X0016498Y0017990D02*
X0021467Y0017990D01*
X0021271Y0017847D02*
X0020753Y0017329D01*
X0020323Y0016737D01*
X0019991Y0016085D01*
X0019764Y0015389D01*
X0019650Y0014666D01*
X0019650Y0014450D01*
X0024150Y0014450D01*
X0024150Y0018950D01*
X0023934Y0018950D01*
X0023211Y0018835D01*
X0022515Y0018609D01*
X0021863Y0018277D01*
X0021271Y0017847D01*
X0024150Y0017990D02*
X0024450Y0017990D01*
X0024450Y0018950D02*
X0024450Y0014450D01*
X0024150Y0014450D01*
X0024150Y0014150D01*
X0019650Y0014150D01*
X0019650Y0013934D01*
X0019764Y0013211D01*
X0019991Y0012515D01*
X0020323Y0011863D01*
X0020753Y0011271D01*
X0021271Y0010753D01*
X0021863Y0010323D01*
X0022515Y0009991D01*
X0023211Y0009764D01*
X0023934Y0009650D01*
X0024150Y0009650D01*
X0024150Y0014150D01*
X0024450Y0014150D01*
X0024450Y0014450D01*
X0028950Y0014450D01*
X0028950Y0014666D01*
X0028835Y0015389D01*
X0028609Y0016085D01*
X0028277Y0016737D01*
X0027847Y0017329D01*
X0027329Y0017847D01*
X0026737Y0018277D01*
X0026085Y0018609D01*
X0025389Y0018835D01*
X0024666Y0018950D01*
X0024450Y0018950D01*
X0027133Y0017990D02*
X0027782Y0017990D01*
X0028453Y0016391D02*
X0029380Y0016391D01*
X0028930Y0014793D02*
X0030050Y0014793D01*
X0028950Y0014150D02*
X0024450Y0014150D01*
X0024450Y0009650D01*
X0024666Y0009650D01*
X0025389Y0009764D01*
X0026085Y0009991D01*
X0026737Y0010323D01*
X0027329Y0010753D01*
X0027847Y0011271D01*
X0028277Y0011863D01*
X0028609Y0012515D01*
X0028835Y0013211D01*
X0028950Y0013934D01*
X0028950Y0014150D01*
X0028830Y0013194D02*
X0030158Y0013194D01*
X0024450Y0013194D02*
X0024150Y0013194D01*
X0019770Y0013194D02*
X0018442Y0013194D01*
X0018550Y0014793D02*
X0019670Y0014793D01*
X0020147Y0016391D02*
X0018034Y0016391D01*
X0024150Y0016391D02*
X0024450Y0016391D01*
X0024450Y0014793D02*
X0024150Y0014793D01*
X0038034Y0016391D02*
X0040566Y0016391D01*
X0040697Y0016707D02*
X0040050Y0015145D01*
X0040050Y0013455D01*
X0040697Y0011893D01*
X0041893Y0010697D01*
X0043455Y0010050D01*
X0045145Y0010050D01*
X0046707Y0010697D01*
X0047903Y0011893D01*
X0048550Y0013455D01*
X0048550Y0015145D01*
X0047903Y0016707D01*
X0046707Y0017903D01*
X0045145Y0018550D01*
X0043455Y0018550D01*
X0041893Y0017903D01*
X0040697Y0016707D01*
X0042102Y0017990D02*
X0036498Y0017990D01*
X0046498Y0017990D02*
X0052102Y0017990D01*
X0056498Y0017990D02*
X0062102Y0017990D01*
X0061893Y0017903D02*
X0060697Y0016707D01*
X0060050Y0015145D01*
X0060050Y0013455D01*
X0060697Y0011893D01*
X0061893Y0010697D01*
X0063455Y0010050D01*
X0065145Y0010050D01*
X0066707Y0010697D01*
X0067903Y0011893D01*
X0068550Y0013455D01*
X0068550Y0015145D01*
X0067903Y0016707D01*
X0066707Y0017903D01*
X0065145Y0018550D01*
X0063455Y0018550D01*
X0061893Y0017903D01*
X0066498Y0017990D02*
X0072102Y0017990D01*
X0072300Y0018072D02*
X0071893Y0017903D01*
X0070697Y0016707D01*
X0070050Y0015145D01*
X0070050Y0013455D01*
X0070697Y0011893D01*
X0071893Y0010697D01*
X0073455Y0010050D01*
X0075145Y0010050D01*
X0076707Y0010697D01*
X0077903Y0011893D01*
X0078550Y0013455D01*
X0078550Y0015145D01*
X0077903Y0016707D01*
X0076707Y0017903D01*
X0076300Y0018072D01*
X0076300Y0023615D01*
X0076453Y0023679D01*
X0077521Y0024747D01*
X0078100Y0026144D01*
X0078100Y0032456D01*
X0077521Y0033853D01*
X0076453Y0034921D01*
X0075056Y0035500D01*
X0073544Y0035500D01*
X0072147Y0034921D01*
X0071079Y0033853D01*
X0070500Y0032456D01*
X0070500Y0026144D01*
X0071079Y0024747D01*
X0072147Y0023679D01*
X0072300Y0023615D01*
X0072300Y0018072D01*
X0076498Y0017990D02*
X0082102Y0017990D01*
X0081893Y0017903D02*
X0080697Y0016707D01*
X0080050Y0015145D01*
X0080050Y0013455D01*
X0080697Y0011893D01*
X0081893Y0010697D01*
X0083455Y0010050D01*
X0085145Y0010050D01*
X0086707Y0010697D01*
X0087903Y0011893D01*
X0088550Y0013455D01*
X0088550Y0015145D01*
X0087903Y0016707D01*
X0086707Y0017903D01*
X0085145Y0018550D01*
X0083455Y0018550D01*
X0081893Y0017903D01*
X0086498Y0017990D02*
X0092102Y0017990D01*
X0091893Y0017903D02*
X0090697Y0016707D01*
X0090050Y0015145D01*
X0090050Y0013455D01*
X0090697Y0011893D01*
X0091893Y0010697D01*
X0093455Y0010050D01*
X0095145Y0010050D01*
X0096707Y0010697D01*
X0097903Y0011893D01*
X0098550Y0013455D01*
X0098550Y0015145D01*
X0097903Y0016707D01*
X0096707Y0017903D01*
X0095145Y0018550D01*
X0093455Y0018550D01*
X0091893Y0017903D01*
X0096498Y0017990D02*
X0102102Y0017990D01*
X0101893Y0017903D02*
X0100697Y0016707D01*
X0100050Y0015145D01*
X0100050Y0013455D01*
X0100697Y0011893D01*
X0101893Y0010697D01*
X0103455Y0010050D01*
X0105145Y0010050D01*
X0106707Y0010697D01*
X0107903Y0011893D01*
X0108550Y0013455D01*
X0108550Y0015145D01*
X0107903Y0016707D01*
X0106707Y0017903D01*
X0105145Y0018550D01*
X0103455Y0018550D01*
X0101893Y0017903D01*
X0106498Y0017990D02*
X0112102Y0017990D01*
X0111893Y0017903D02*
X0110697Y0016707D01*
X0110050Y0015145D01*
X0110050Y0013455D01*
X0110697Y0011893D01*
X0111893Y0010697D01*
X0113455Y0010050D01*
X0115145Y0010050D01*
X0116707Y0010697D01*
X0117903Y0011893D01*
X0118550Y0013455D01*
X0118550Y0015145D01*
X0117903Y0016707D01*
X0116707Y0017903D01*
X0115145Y0018550D01*
X0113455Y0018550D01*
X0111893Y0017903D01*
X0116498Y0017990D02*
X0122102Y0017990D01*
X0121893Y0017903D02*
X0120697Y0016707D01*
X0120050Y0015145D01*
X0120050Y0013455D01*
X0120697Y0011893D01*
X0121893Y0010697D01*
X0123455Y0010050D01*
X0125145Y0010050D01*
X0126707Y0010697D01*
X0127903Y0011893D01*
X0128550Y0013455D01*
X0128550Y0015145D01*
X0127903Y0016707D01*
X0126707Y0017903D01*
X0125145Y0018550D01*
X0123455Y0018550D01*
X0121893Y0017903D01*
X0126498Y0017990D02*
X0132102Y0017990D01*
X0131893Y0017903D02*
X0130697Y0016707D01*
X0130050Y0015145D01*
X0130050Y0013455D01*
X0130697Y0011893D01*
X0131893Y0010697D01*
X0133455Y0010050D01*
X0135145Y0010050D01*
X0136707Y0010697D01*
X0137903Y0011893D01*
X0138550Y0013455D01*
X0138550Y0015145D01*
X0137903Y0016707D01*
X0136707Y0017903D01*
X0135145Y0018550D01*
X0133455Y0018550D01*
X0131893Y0017903D01*
X0136498Y0017990D02*
X0142102Y0017990D01*
X0141893Y0017903D02*
X0140697Y0016707D01*
X0140050Y0015145D01*
X0140050Y0013455D01*
X0140697Y0011893D01*
X0141893Y0010697D01*
X0143455Y0010050D01*
X0145145Y0010050D01*
X0146707Y0010697D01*
X0147903Y0011893D01*
X0148550Y0013455D01*
X0148550Y0015145D01*
X0147903Y0016707D01*
X0146707Y0017903D01*
X0145145Y0018550D01*
X0143455Y0018550D01*
X0141893Y0017903D01*
X0146498Y0017990D02*
X0234474Y0017990D01*
X0234150Y0019588D02*
X0076300Y0019588D01*
X0072300Y0019588D02*
X0056300Y0019588D01*
X0056561Y0021187D02*
X0062039Y0021187D01*
X0062726Y0020500D02*
X0060500Y0022726D01*
X0060500Y0025874D01*
X0062726Y0028100D01*
X0065874Y0028100D01*
X0068100Y0025874D01*
X0068100Y0022726D01*
X0065874Y0020500D01*
X0062726Y0020500D01*
X0066561Y0021187D02*
X0072300Y0021187D01*
X0076300Y0021187D02*
X0141403Y0021187D01*
X0141893Y0020697D02*
X0140697Y0021893D01*
X0140050Y0023455D01*
X0140050Y0025145D01*
X0140697Y0026707D01*
X0141893Y0027903D01*
X0142500Y0028155D01*
X0142500Y0032352D01*
X0142053Y0032799D01*
X0141650Y0033773D01*
X0141650Y0034827D01*
X0142053Y0035801D01*
X0142799Y0036547D01*
X0143773Y0036950D01*
X0144827Y0036950D01*
X0145801Y0036547D01*
X0146547Y0035801D01*
X0146950Y0034827D01*
X0146950Y0033773D01*
X0146547Y0032799D01*
X0146100Y0032352D01*
X0146100Y0028155D01*
X0146707Y0027903D01*
X0147903Y0026707D01*
X0148550Y0025145D01*
X0148550Y0023455D01*
X0147903Y0021893D01*
X0146707Y0020697D01*
X0145145Y0020050D01*
X0143455Y0020050D01*
X0141893Y0020697D01*
X0147197Y0021187D02*
X0202368Y0021187D01*
X0200769Y0022785D02*
X0148273Y0022785D01*
X0148550Y0024384D02*
X0199171Y0024384D01*
X0204262Y0024384D02*
X0226442Y0024384D01*
X0225567Y0025982D02*
X0202663Y0025982D01*
X0194744Y0025982D02*
X0179422Y0025982D01*
X0178540Y0025100D02*
X0181000Y0027560D01*
X0181000Y0029300D01*
X0181000Y0031040D01*
X0178540Y0033500D01*
X0176800Y0033500D01*
X0176800Y0029300D01*
X0176800Y0029300D01*
X0181000Y0029300D01*
X0176800Y0029300D01*
X0176800Y0029300D01*
X0176800Y0029300D01*
X0172600Y0029300D01*
X0172600Y0031040D01*
X0175060Y0033500D01*
X0176800Y0033500D01*
X0176800Y0029300D01*
X0176800Y0025100D01*
X0178540Y0025100D01*
X0176800Y0025100D02*
X0176800Y0029300D01*
X0176800Y0029300D01*
X0172600Y0029300D01*
X0172600Y0027560D01*
X0175060Y0025100D01*
X0176800Y0025100D01*
X0176800Y0025982D02*
X0176800Y0025982D01*
X0174178Y0025982D02*
X0158856Y0025982D01*
X0158374Y0025500D02*
X0155226Y0025500D01*
X0153000Y0027726D01*
X0153000Y0030874D01*
X0155226Y0033100D01*
X0158374Y0033100D01*
X0160600Y0030874D01*
X0160600Y0027726D01*
X0158374Y0025500D01*
X0154744Y0025982D02*
X0148203Y0025982D01*
X0147030Y0027581D02*
X0153145Y0027581D01*
X0160455Y0027581D02*
X0172600Y0027581D01*
X0171000Y0030060D02*
X0168540Y0027600D01*
X0166800Y0027600D01*
X0166800Y0031800D01*
X0166800Y0031800D01*
X0166800Y0036000D01*
X0168540Y0036000D01*
X0171000Y0033540D01*
X0171000Y0031800D01*
X0166800Y0031800D01*
X0166800Y0031800D01*
X0166800Y0031800D01*
X0162600Y0031800D01*
X0162600Y0033540D01*
X0165060Y0036000D01*
X0166800Y0036000D01*
X0166800Y0031800D01*
X0171000Y0031800D01*
X0171000Y0030060D01*
X0171000Y0030778D02*
X0172600Y0030778D01*
X0172600Y0029179D02*
X0170119Y0029179D01*
X0166800Y0029179D02*
X0166800Y0029179D01*
X0166800Y0030778D02*
X0166800Y0030778D01*
X0166800Y0031800D02*
X0166800Y0031800D01*
X0162600Y0031800D01*
X0162600Y0030060D01*
X0165060Y0027600D01*
X0166800Y0027600D01*
X0166800Y0031800D01*
X0166800Y0032376D02*
X0166800Y0032376D01*
X0171000Y0032376D02*
X0173936Y0032376D01*
X0176800Y0032376D02*
X0176800Y0032376D01*
X0179663Y0032376D02*
X0183000Y0032376D01*
X0183000Y0033374D02*
X0183000Y0030226D01*
X0185226Y0028000D01*
X0188374Y0028000D01*
X0190600Y0030226D01*
X0190600Y0033374D01*
X0188374Y0035600D01*
X0185226Y0035600D01*
X0183000Y0033374D01*
X0183601Y0033975D02*
X0170565Y0033975D01*
X0166800Y0033975D02*
X0166800Y0033975D01*
X0163035Y0033975D02*
X0146950Y0033975D01*
X0141650Y0033975D02*
X0124999Y0033975D01*
X0125600Y0033374D02*
X0123374Y0035600D01*
X0120226Y0035600D01*
X0118000Y0033374D01*
X0118000Y0030226D01*
X0120226Y0028000D01*
X0123374Y0028000D01*
X0125600Y0030226D01*
X0125600Y0033374D01*
X0125600Y0032376D02*
X0132002Y0032376D01*
X0132726Y0033100D02*
X0130500Y0030874D01*
X0130500Y0027726D01*
X0132726Y0025500D01*
X0135874Y0025500D01*
X0138100Y0027726D01*
X0138100Y0030874D01*
X0135874Y0033100D01*
X0132726Y0033100D01*
X0136598Y0032376D02*
X0142476Y0032376D01*
X0146124Y0032376D02*
X0154502Y0032376D01*
X0159098Y0032376D02*
X0162600Y0032376D01*
X0162600Y0030778D02*
X0160600Y0030778D01*
X0160600Y0029179D02*
X0163481Y0029179D01*
X0153000Y0029179D02*
X0146100Y0029179D01*
X0146100Y0030778D02*
X0153000Y0030778D01*
X0142500Y0030778D02*
X0138100Y0030778D01*
X0138100Y0029179D02*
X0142500Y0029179D01*
X0141570Y0027581D02*
X0137955Y0027581D01*
X0130645Y0027581D02*
X0088100Y0027581D01*
X0080500Y0027581D02*
X0078100Y0027581D01*
X0070500Y0027581D02*
X0066393Y0027581D01*
X0062207Y0027581D02*
X0056393Y0027581D01*
X0052207Y0027581D02*
X0048100Y0027581D01*
X0040500Y0027581D02*
X0038100Y0027581D01*
X0038100Y0029179D02*
X0040500Y0029179D01*
X0040500Y0030778D02*
X0038100Y0030778D01*
X0038100Y0032376D02*
X0040500Y0032376D01*
X0040500Y0032456D02*
X0041079Y0033853D01*
X0042147Y0034921D01*
X0043544Y0035500D01*
X0045056Y0035500D01*
X0046453Y0034921D01*
X0047521Y0033853D01*
X0048100Y0032456D01*
X0048100Y0026144D01*
X0047521Y0024747D01*
X0046453Y0023679D01*
X0045056Y0023100D01*
X0043544Y0023100D01*
X0042147Y0023679D01*
X0041079Y0024747D01*
X0040500Y0026144D01*
X0040500Y0032456D01*
X0048100Y0032376D02*
X0070500Y0032376D01*
X0078100Y0032376D02*
X0080500Y0032376D01*
X0080500Y0032456D02*
X0080500Y0026144D01*
X0081079Y0024747D01*
X0082147Y0023679D01*
X0083544Y0023100D01*
X0085056Y0023100D01*
X0086453Y0023679D01*
X0087521Y0024747D01*
X0088100Y0026144D01*
X0088100Y0032456D01*
X0087521Y0033853D01*
X0086453Y0034921D01*
X0085056Y0035500D01*
X0083544Y0035500D01*
X0082147Y0034921D01*
X0081079Y0033853D01*
X0080500Y0032456D01*
X0088100Y0032376D02*
X0118000Y0032376D01*
X0118000Y0030778D02*
X0088100Y0030778D01*
X0088100Y0029179D02*
X0119047Y0029179D01*
X0124553Y0029179D02*
X0130500Y0029179D01*
X0130500Y0030778D02*
X0125600Y0030778D01*
X0118601Y0033975D02*
X0087399Y0033975D01*
X0081201Y0033975D02*
X0077399Y0033975D01*
X0071201Y0033975D02*
X0047399Y0033975D01*
X0041201Y0033975D02*
X0037399Y0033975D01*
X0031300Y0035573D02*
X0051940Y0035573D01*
X0051650Y0037172D02*
X0031300Y0037172D01*
X0031300Y0040369D02*
X0052500Y0040369D01*
X0056100Y0040369D02*
X0087500Y0040369D01*
X0091100Y0040369D02*
X0093000Y0040369D01*
X0100600Y0040369D02*
X0103000Y0040369D01*
X0110600Y0040369D02*
X0232500Y0040369D01*
X0236100Y0040369D02*
X0257024Y0040369D01*
X0259300Y0041800D02*
X0259300Y0029300D01*
X0245500Y0029179D02*
X0243100Y0029179D01*
X0243100Y0030778D02*
X0245500Y0030778D01*
X0245500Y0032376D02*
X0243100Y0032376D01*
X0242399Y0033975D02*
X0246201Y0033975D01*
X0252399Y0033975D02*
X0252500Y0033975D01*
X0256100Y0033975D02*
X0256201Y0033975D01*
X0262399Y0033975D02*
X0262500Y0033975D01*
X0266100Y0033975D02*
X0266201Y0033975D01*
X0272399Y0033975D02*
X0276201Y0033975D01*
X0282399Y0033975D02*
X0282500Y0033975D01*
X0286100Y0033975D02*
X0286201Y0033975D01*
X0292399Y0033975D02*
X0300000Y0033975D01*
X0303600Y0033975D02*
X0316969Y0033975D01*
X0314599Y0032376D02*
X0304098Y0032376D01*
X0299502Y0032376D02*
X0293100Y0032376D01*
X0293100Y0030778D02*
X0298000Y0030778D01*
X0298000Y0029179D02*
X0293100Y0029179D01*
X0293100Y0027581D02*
X0298145Y0027581D01*
X0299744Y0025982D02*
X0293033Y0025982D01*
X0292158Y0024384D02*
X0310797Y0024384D01*
X0310750Y0022785D02*
X0286100Y0022785D01*
X0286100Y0024384D02*
X0286442Y0024384D01*
X0275567Y0025982D02*
X0275163Y0025982D01*
X0275500Y0027581D02*
X0273565Y0027581D01*
X0273100Y0029179D02*
X0275500Y0029179D01*
X0275500Y0030778D02*
X0273100Y0030778D01*
X0273100Y0032376D02*
X0275500Y0032376D01*
X0282500Y0035573D02*
X0266100Y0035573D01*
X0266100Y0037172D02*
X0282500Y0037172D01*
X0286100Y0037172D02*
X0300000Y0037172D01*
X0300000Y0035573D02*
X0286100Y0035573D01*
X0303600Y0035573D02*
X0310153Y0035573D01*
X0308554Y0037172D02*
X0304717Y0037172D01*
X0302823Y0040369D02*
X0286100Y0040369D01*
X0282500Y0040369D02*
X0266100Y0040369D01*
X0262500Y0040369D02*
X0261575Y0040369D01*
X0261950Y0041967D02*
X0262500Y0041967D01*
X0262500Y0043566D02*
X0261282Y0043566D01*
X0257318Y0043566D02*
X0256063Y0043566D01*
X0256650Y0041967D02*
X0236100Y0041967D01*
X0236100Y0043566D02*
X0252537Y0043566D01*
X0251650Y0045164D02*
X0236100Y0045164D01*
X0232500Y0045164D02*
X0219450Y0045164D01*
X0214150Y0045164D02*
X0108810Y0045164D01*
X0104790Y0045164D02*
X0103604Y0045164D01*
X0101800Y0045164D02*
X0101800Y0045164D01*
X0101800Y0045100D02*
X0101800Y0049300D01*
X0101800Y0049300D01*
X0101800Y0049300D01*
X0097600Y0049300D01*
X0097600Y0051040D01*
X0100060Y0053500D01*
X0101800Y0053500D01*
X0101800Y0049300D01*
X0097600Y0049300D01*
X0097600Y0047560D01*
X0100060Y0045100D01*
X0101800Y0045100D01*
X0099996Y0045164D02*
X0098810Y0045164D01*
X0094790Y0045164D02*
X0091100Y0045164D01*
X0087500Y0045164D02*
X0071950Y0045164D01*
X0066650Y0045164D02*
X0056100Y0045164D01*
X0052500Y0045164D02*
X0031300Y0045164D01*
X0027300Y0045164D02*
X0008650Y0045164D01*
X0008650Y0043566D02*
X0027300Y0043566D01*
X0027300Y0041967D02*
X0008650Y0041967D01*
X0008650Y0040369D02*
X0027300Y0040369D01*
X0031300Y0041967D02*
X0052500Y0041967D01*
X0052500Y0043566D02*
X0031300Y0043566D01*
X0031300Y0046763D02*
X0052500Y0046763D01*
X0056100Y0046763D02*
X0066934Y0046763D01*
X0071666Y0046763D02*
X0087500Y0046763D01*
X0091100Y0046763D02*
X0098398Y0046763D01*
X0101800Y0046763D02*
X0101800Y0046763D01*
X0101800Y0048361D02*
X0101800Y0048361D01*
X0101800Y0049960D02*
X0101800Y0049960D01*
X0106000Y0049960D02*
X0118266Y0049960D01*
X0118000Y0051558D02*
X0105481Y0051558D01*
X0101800Y0051558D02*
X0101800Y0051558D01*
X0098119Y0051558D02*
X0091100Y0051558D01*
X0087500Y0051558D02*
X0071100Y0051558D01*
X0067500Y0051558D02*
X0056100Y0051558D01*
X0052500Y0051558D02*
X0031300Y0051558D01*
X0027300Y0051558D02*
X0008650Y0051558D01*
X0008650Y0049960D02*
X0027300Y0049960D01*
X0027300Y0048361D02*
X0008650Y0048361D01*
X0008650Y0046763D02*
X0027300Y0046763D01*
X0031300Y0048361D02*
X0052500Y0048361D01*
X0052500Y0049960D02*
X0031300Y0049960D01*
X0056100Y0049960D02*
X0067500Y0049960D01*
X0067500Y0048361D02*
X0056100Y0048361D01*
X0071100Y0048361D02*
X0087500Y0048361D01*
X0087500Y0049960D02*
X0071100Y0049960D01*
X0071100Y0053157D02*
X0072395Y0053157D01*
X0074300Y0053157D02*
X0074300Y0053157D01*
X0076205Y0053157D02*
X0083407Y0053157D01*
X0085193Y0053157D02*
X0087500Y0053157D01*
X0091100Y0053157D02*
X0099717Y0053157D01*
X0101800Y0053157D02*
X0101800Y0053157D01*
X0103883Y0053157D02*
X0118000Y0053157D01*
X0097600Y0049960D02*
X0091100Y0049960D01*
X0091100Y0048361D02*
X0097600Y0048361D01*
X0100408Y0043566D02*
X0103192Y0043566D01*
X0103000Y0041967D02*
X0100600Y0041967D01*
X0093192Y0043566D02*
X0091100Y0043566D01*
X0091100Y0041967D02*
X0093000Y0041967D01*
X0087500Y0041967D02*
X0056100Y0041967D01*
X0056100Y0043566D02*
X0067537Y0043566D01*
X0071063Y0043566D02*
X0087500Y0043566D01*
X0110408Y0043566D02*
X0215037Y0043566D01*
X0218563Y0043566D02*
X0232500Y0043566D01*
X0232500Y0041967D02*
X0110600Y0041967D01*
X0091950Y0037172D02*
X0232500Y0037172D01*
X0232500Y0035573D02*
X0218966Y0035573D01*
X0218540Y0036000D02*
X0216800Y0036000D01*
X0216800Y0031800D01*
X0216800Y0031800D01*
X0221000Y0031800D01*
X0221000Y0033540D01*
X0218540Y0036000D01*
X0216800Y0036000D02*
X0215060Y0036000D01*
X0212600Y0033540D01*
X0212600Y0031800D01*
X0216800Y0031800D01*
X0216800Y0031800D01*
X0216800Y0031800D01*
X0216800Y0036000D01*
X0216800Y0035573D02*
X0216800Y0035573D01*
X0214634Y0035573D02*
X0208401Y0035573D01*
X0208374Y0035600D02*
X0205226Y0035600D01*
X0203000Y0033374D01*
X0203000Y0030226D01*
X0205226Y0028000D01*
X0208374Y0028000D01*
X0210600Y0030226D01*
X0210600Y0033374D01*
X0208374Y0035600D01*
X0205199Y0035573D02*
X0188401Y0035573D01*
X0185199Y0035573D02*
X0168966Y0035573D01*
X0166800Y0035573D02*
X0166800Y0035573D01*
X0164634Y0035573D02*
X0146641Y0035573D01*
X0141959Y0035573D02*
X0123401Y0035573D01*
X0120199Y0035573D02*
X0091660Y0035573D01*
X0086940Y0035573D02*
X0056660Y0035573D01*
X0056950Y0037172D02*
X0086650Y0037172D01*
X0080500Y0030778D02*
X0078100Y0030778D01*
X0078100Y0029179D02*
X0080500Y0029179D01*
X0070500Y0029179D02*
X0048100Y0029179D01*
X0048100Y0030778D02*
X0070500Y0030778D01*
X0070567Y0025982D02*
X0067992Y0025982D01*
X0078033Y0025982D02*
X0080567Y0025982D01*
X0088033Y0025982D02*
X0132244Y0025982D01*
X0136356Y0025982D02*
X0140397Y0025982D01*
X0140050Y0024384D02*
X0087158Y0024384D01*
X0081442Y0024384D02*
X0077158Y0024384D01*
X0076300Y0022785D02*
X0140327Y0022785D01*
X0176800Y0027581D02*
X0176800Y0027581D01*
X0181000Y0027581D02*
X0193145Y0027581D01*
X0201065Y0027581D02*
X0225500Y0027581D01*
X0221000Y0030060D02*
X0218540Y0027600D01*
X0216800Y0027600D01*
X0216800Y0031800D01*
X0221000Y0031800D01*
X0221000Y0030060D01*
X0221000Y0030778D02*
X0225500Y0030778D01*
X0225500Y0029179D02*
X0220119Y0029179D01*
X0216800Y0029179D02*
X0216800Y0029179D01*
X0216800Y0030778D02*
X0216800Y0030778D01*
X0216800Y0031800D02*
X0216800Y0031800D01*
X0212600Y0031800D01*
X0212600Y0030060D01*
X0215060Y0027600D01*
X0216800Y0027600D01*
X0216800Y0031800D01*
X0216800Y0032376D02*
X0216800Y0032376D01*
X0221000Y0032376D02*
X0225500Y0032376D01*
X0226201Y0033975D02*
X0220565Y0033975D01*
X0216800Y0033975D02*
X0216800Y0033975D01*
X0213035Y0033975D02*
X0209999Y0033975D01*
X0203601Y0033975D02*
X0189999Y0033975D01*
X0190600Y0032376D02*
X0194502Y0032376D01*
X0199098Y0032376D02*
X0203000Y0032376D01*
X0203000Y0030778D02*
X0200600Y0030778D01*
X0200600Y0029179D02*
X0204047Y0029179D01*
X0209553Y0029179D02*
X0213481Y0029179D01*
X0212600Y0030778D02*
X0210600Y0030778D01*
X0210600Y0032376D02*
X0212600Y0032376D01*
X0193000Y0030778D02*
X0190600Y0030778D01*
X0189553Y0029179D02*
X0193000Y0029179D01*
X0184047Y0029179D02*
X0181000Y0029179D01*
X0181000Y0030778D02*
X0183000Y0030778D01*
X0176800Y0030778D02*
X0176800Y0030778D01*
X0176800Y0029179D02*
X0176800Y0029179D01*
X0236100Y0033975D02*
X0236201Y0033975D01*
X0236100Y0035573D02*
X0251940Y0035573D01*
X0251650Y0037172D02*
X0236100Y0037172D01*
X0256660Y0035573D02*
X0257100Y0035573D01*
X0257100Y0037172D02*
X0256950Y0037172D01*
X0261500Y0037172D02*
X0262500Y0037172D01*
X0262500Y0035573D02*
X0261500Y0035573D01*
X0266100Y0041967D02*
X0282500Y0041967D01*
X0282489Y0043566D02*
X0266100Y0043566D01*
X0266100Y0045164D02*
X0280890Y0045164D01*
X0285981Y0045164D02*
X0307619Y0045164D01*
X0306020Y0043566D02*
X0286100Y0043566D01*
X0286100Y0041967D02*
X0304422Y0041967D01*
X0307914Y0040369D02*
X0308000Y0040369D01*
X0315600Y0040369D02*
X0374519Y0040369D01*
X0384081Y0040369D02*
X0384953Y0040369D01*
X0389100Y0040369D02*
X0389500Y0040369D01*
X0393647Y0040369D02*
X0393953Y0040369D01*
X0399100Y0040369D02*
X0399500Y0040369D01*
X0404647Y0040369D02*
X0404953Y0040369D01*
X0404800Y0040522D02*
X0404800Y0040522D01*
X0409100Y0040369D02*
X0409500Y0040369D01*
X0413647Y0040369D02*
X0414519Y0040369D01*
X0409500Y0041967D02*
X0409100Y0041967D01*
X0409100Y0043566D02*
X0409500Y0043566D01*
X0409500Y0044000D02*
X0409100Y0044000D01*
X0409100Y0049300D01*
X0409100Y0053600D01*
X0409500Y0053600D01*
X0409500Y0044000D01*
X0409500Y0045164D02*
X0409100Y0045164D01*
X0409100Y0046763D02*
X0409500Y0046763D01*
X0409500Y0048361D02*
X0409100Y0048361D01*
X0409100Y0049960D02*
X0409500Y0049960D01*
X0409500Y0051558D02*
X0409100Y0051558D01*
X0409100Y0053157D02*
X0409500Y0053157D01*
X0399500Y0053157D02*
X0399100Y0053157D01*
X0399100Y0052600D02*
X0399500Y0052600D01*
X0399500Y0043000D01*
X0399100Y0043000D01*
X0399100Y0048300D01*
X0399100Y0052600D01*
X0399100Y0051558D02*
X0399500Y0051558D01*
X0399500Y0049960D02*
X0399100Y0049960D01*
X0399100Y0048361D02*
X0399500Y0048361D01*
X0399500Y0046763D02*
X0399100Y0046763D01*
X0399100Y0045164D02*
X0399500Y0045164D01*
X0399500Y0043566D02*
X0399100Y0043566D01*
X0399100Y0041967D02*
X0399500Y0041967D01*
X0389500Y0041967D02*
X0389100Y0041967D01*
X0389100Y0043566D02*
X0389500Y0043566D01*
X0389500Y0044000D02*
X0389100Y0044000D01*
X0389100Y0049300D01*
X0389100Y0053600D01*
X0389500Y0053600D01*
X0389500Y0044000D01*
X0389500Y0045164D02*
X0389100Y0045164D01*
X0389100Y0046763D02*
X0389500Y0046763D01*
X0389500Y0048361D02*
X0389100Y0048361D01*
X0389100Y0049960D02*
X0389500Y0049960D01*
X0389500Y0051558D02*
X0389100Y0051558D01*
X0389100Y0053157D02*
X0389500Y0053157D01*
X0374200Y0051558D02*
X0350705Y0051558D01*
X0349107Y0049960D02*
X0374928Y0049960D01*
X0376526Y0048361D02*
X0344596Y0048361D01*
X0341295Y0049960D02*
X0329107Y0049960D01*
X0324493Y0049960D02*
X0296895Y0049960D01*
X0296780Y0048361D02*
X0340096Y0048361D01*
X0338897Y0046763D02*
X0295099Y0046763D01*
X0293501Y0046763D02*
X0284383Y0046763D01*
X0279292Y0046763D02*
X0266100Y0046763D01*
X0262500Y0046763D02*
X0256666Y0046763D01*
X0256500Y0048361D02*
X0262500Y0048361D01*
X0261676Y0049960D02*
X0256500Y0049960D01*
X0252100Y0049960D02*
X0236924Y0049960D01*
X0236100Y0048361D02*
X0252100Y0048361D01*
X0266100Y0048361D02*
X0277693Y0048361D01*
X0276095Y0049960D02*
X0266924Y0049960D01*
X0281186Y0049960D02*
X0291705Y0049960D01*
X0291820Y0048361D02*
X0282784Y0048361D01*
X0262500Y0045164D02*
X0256950Y0045164D01*
X0314507Y0041967D02*
X0374200Y0041967D01*
X0374200Y0043566D02*
X0341100Y0043566D01*
X0342198Y0045164D02*
X0374452Y0045164D01*
X0376050Y0046763D02*
X0343397Y0046763D01*
X0342494Y0051558D02*
X0330705Y0051558D01*
X0331500Y0053157D02*
X0342100Y0053157D01*
X0342100Y0054755D02*
X0331500Y0054755D01*
X0331393Y0056354D02*
X0342207Y0056354D01*
X0343806Y0057952D02*
X0329794Y0057952D01*
X0323806Y0057952D02*
X0316000Y0057952D01*
X0311800Y0057952D02*
X0311800Y0057952D01*
X0307600Y0057952D02*
X0306000Y0057952D01*
X0301800Y0057952D02*
X0301800Y0057952D01*
X0297600Y0057952D02*
X0296100Y0057952D01*
X0296100Y0056354D02*
X0298806Y0056354D01*
X0301800Y0056354D02*
X0301800Y0056354D01*
X0304794Y0056354D02*
X0308806Y0056354D01*
X0311800Y0056354D02*
X0311800Y0056354D01*
X0314794Y0056354D02*
X0322207Y0056354D01*
X0322100Y0054755D02*
X0296100Y0054755D01*
X0286075Y0054755D02*
X0282525Y0054755D01*
X0283100Y0056354D02*
X0285500Y0056354D01*
X0285500Y0057952D02*
X0283100Y0057952D01*
X0283100Y0059551D02*
X0285500Y0059551D01*
X0285500Y0061149D02*
X0283100Y0061149D01*
X0282979Y0062748D02*
X0285621Y0062748D01*
X0275621Y0062748D02*
X0272979Y0062748D01*
X0273100Y0061149D02*
X0275500Y0061149D01*
X0275500Y0059551D02*
X0273100Y0059551D01*
X0273193Y0057952D02*
X0275500Y0057952D01*
X0275500Y0056354D02*
X0274792Y0056354D01*
X0266075Y0054755D02*
X0262525Y0054755D01*
X0263100Y0056354D02*
X0265500Y0056354D01*
X0265500Y0057952D02*
X0263100Y0057952D01*
X0254841Y0057952D02*
X0253100Y0057952D01*
X0245500Y0057952D02*
X0243100Y0057952D01*
X0235500Y0057952D02*
X0233100Y0057952D01*
X0233100Y0056354D02*
X0235500Y0056354D01*
X0236075Y0054755D02*
X0232525Y0054755D01*
X0242525Y0054755D02*
X0246075Y0054755D01*
X0245500Y0056354D02*
X0243100Y0056354D01*
X0253100Y0056354D02*
X0253243Y0056354D01*
X0226075Y0054755D02*
X0219219Y0054755D01*
X0214381Y0054755D02*
X0212301Y0054755D01*
X0213899Y0056354D02*
X0225500Y0056354D01*
X0225500Y0061149D02*
X0200890Y0061149D01*
X0199292Y0062748D02*
X0225621Y0062748D01*
X0226572Y0064346D02*
X0184392Y0064346D01*
X0179301Y0064346D02*
X0087028Y0064346D01*
X0081572Y0064346D02*
X0077569Y0064346D01*
X0074300Y0064346D02*
X0074300Y0064346D01*
X0071100Y0065945D02*
X0180899Y0065945D01*
X0182793Y0062748D02*
X0194308Y0062748D01*
X0192710Y0061149D02*
X0181195Y0061149D01*
X0196800Y0061149D02*
X0196800Y0061149D01*
X0196800Y0062748D02*
X0196800Y0062748D01*
X0232028Y0064346D02*
X0236572Y0064346D01*
X0245201Y0065945D02*
X0292500Y0065945D01*
X0296100Y0065945D02*
X0332100Y0065945D01*
X0332100Y0066247D02*
X0332100Y0062353D01*
X0334853Y0059600D01*
X0338747Y0059600D01*
X0341500Y0062353D01*
X0341500Y0066247D01*
X0338747Y0069000D01*
X0334853Y0069000D01*
X0332100Y0066247D01*
X0333397Y0067543D02*
X0297589Y0067543D01*
X0299188Y0069142D02*
X0329877Y0069142D01*
X0331600Y0069142D02*
X0332000Y0069142D01*
X0333723Y0069142D02*
X0380198Y0069142D01*
X0379842Y0069026D02*
X0379127Y0068662D01*
X0378478Y0068190D01*
X0377910Y0067622D01*
X0377438Y0066973D01*
X0377074Y0066258D01*
X0376826Y0065494D01*
X0376700Y0064701D01*
X0376700Y0064600D01*
X0381500Y0064600D01*
X0381500Y0069400D01*
X0381399Y0069400D01*
X0380606Y0069274D01*
X0379842Y0069026D01*
X0381500Y0069142D02*
X0382100Y0069142D01*
X0382100Y0069400D02*
X0382201Y0069400D01*
X0382994Y0069274D01*
X0383758Y0069026D01*
X0384473Y0068662D01*
X0385122Y0068190D01*
X0385690Y0067622D01*
X0386162Y0066973D01*
X0386526Y0066258D01*
X0386774Y0065494D01*
X0386900Y0064701D01*
X0386900Y0064600D01*
X0382100Y0064600D01*
X0382100Y0064000D01*
X0386900Y0064000D01*
X0386900Y0063899D01*
X0386774Y0063106D01*
X0386526Y0062342D01*
X0386162Y0061627D01*
X0385690Y0060978D01*
X0385122Y0060410D01*
X0384473Y0059938D01*
X0383758Y0059574D01*
X0382994Y0059326D01*
X0382201Y0059200D01*
X0382100Y0059200D01*
X0382100Y0064000D01*
X0381500Y0064000D01*
X0381500Y0059200D01*
X0381399Y0059200D01*
X0380606Y0059326D01*
X0379842Y0059574D01*
X0379127Y0059938D01*
X0378478Y0060410D01*
X0377910Y0060978D01*
X0377438Y0061627D01*
X0377074Y0062342D01*
X0376826Y0063106D01*
X0376700Y0063899D01*
X0376700Y0064000D01*
X0381500Y0064000D01*
X0381500Y0064600D01*
X0382100Y0064600D01*
X0382100Y0069400D01*
X0383402Y0069142D02*
X0426210Y0069142D01*
X0426210Y0067543D02*
X0425203Y0067543D01*
X0426206Y0065945D02*
X0426210Y0065945D01*
X0418397Y0067543D02*
X0385747Y0067543D01*
X0382100Y0067543D02*
X0381500Y0067543D01*
X0377853Y0067543D02*
X0340203Y0067543D01*
X0341500Y0065945D02*
X0376972Y0065945D01*
X0381500Y0065945D02*
X0382100Y0065945D01*
X0386628Y0065945D02*
X0417394Y0065945D01*
X0417100Y0064346D02*
X0382100Y0064346D01*
X0381500Y0064346D02*
X0341500Y0064346D01*
X0341500Y0062748D02*
X0376942Y0062748D01*
X0377785Y0061149D02*
X0373994Y0061149D01*
X0369300Y0061149D02*
X0369300Y0061149D01*
X0364606Y0061149D02*
X0360951Y0061149D01*
X0357649Y0061149D02*
X0340296Y0061149D01*
X0333304Y0061149D02*
X0315890Y0061149D01*
X0307710Y0061149D02*
X0305890Y0061149D01*
X0292500Y0067543D02*
X0247589Y0067543D01*
X0249188Y0069142D02*
X0294096Y0069142D01*
X0295453Y0070740D02*
X0295695Y0070740D01*
X0296508Y0072339D02*
X0297092Y0072339D01*
X0305453Y0070740D02*
X0308147Y0070740D01*
X0315453Y0070740D02*
X0318147Y0070740D01*
X0325453Y0070740D02*
X0327588Y0070740D01*
X0331600Y0070740D02*
X0332000Y0070740D01*
X0336012Y0070740D02*
X0426210Y0070740D01*
X0426210Y0072339D02*
X0336946Y0072339D01*
X0332000Y0072339D02*
X0331600Y0072339D01*
X0326654Y0072339D02*
X0326508Y0072339D01*
X0317092Y0072339D02*
X0316508Y0072339D01*
X0307092Y0072339D02*
X0306508Y0072339D01*
X0288147Y0070740D02*
X0285453Y0070740D01*
X0278147Y0070740D02*
X0275453Y0070740D01*
X0268147Y0070740D02*
X0265453Y0070740D01*
X0258147Y0070740D02*
X0255453Y0070740D01*
X0256508Y0072339D02*
X0257092Y0072339D01*
X0266508Y0072339D02*
X0267092Y0072339D01*
X0276508Y0072339D02*
X0277092Y0072339D01*
X0286508Y0072339D02*
X0287092Y0072339D01*
X0287454Y0077134D02*
X0286146Y0077134D01*
X0277454Y0077134D02*
X0276146Y0077134D01*
X0267454Y0077134D02*
X0266146Y0077134D01*
X0264425Y0078733D02*
X0269175Y0078733D01*
X0274425Y0078733D02*
X0279175Y0078733D01*
X0284425Y0078733D02*
X0289175Y0078733D01*
X0294425Y0078733D02*
X0299175Y0078733D01*
X0304425Y0078733D02*
X0309175Y0078733D01*
X0314425Y0078733D02*
X0319175Y0078733D01*
X0324425Y0078733D02*
X0328544Y0078733D01*
X0331600Y0078733D02*
X0332000Y0078733D01*
X0335056Y0078733D02*
X0345389Y0078733D01*
X0345610Y0079266D02*
X0344947Y0077666D01*
X0344947Y0075934D01*
X0345610Y0074334D01*
X0346834Y0073110D01*
X0348434Y0072447D01*
X0350166Y0072447D01*
X0351766Y0073110D01*
X0352990Y0074334D01*
X0353653Y0075934D01*
X0353653Y0077666D01*
X0352990Y0079266D01*
X0351766Y0080490D01*
X0350166Y0081153D01*
X0348434Y0081153D01*
X0346834Y0080490D01*
X0345610Y0079266D01*
X0346676Y0080332D02*
X0258314Y0080332D01*
X0296146Y0077134D02*
X0297454Y0077134D01*
X0306146Y0077134D02*
X0307454Y0077134D01*
X0316146Y0077134D02*
X0317454Y0077134D01*
X0326146Y0077134D02*
X0327071Y0077134D01*
X0331600Y0077134D02*
X0332000Y0077134D01*
X0336529Y0077134D02*
X0344947Y0077134D01*
X0353653Y0077134D02*
X0384947Y0077134D01*
X0384947Y0077666D02*
X0384947Y0075934D01*
X0385610Y0074334D01*
X0386834Y0073110D01*
X0388434Y0072447D01*
X0390166Y0072447D01*
X0391766Y0073110D01*
X0392990Y0074334D01*
X0393653Y0075934D01*
X0393653Y0077666D01*
X0392990Y0079266D01*
X0391766Y0080490D01*
X0390166Y0081153D01*
X0388434Y0081153D01*
X0386834Y0080490D01*
X0385610Y0079266D01*
X0384947Y0077666D01*
X0385389Y0078733D02*
X0353211Y0078733D01*
X0351924Y0080332D02*
X0386676Y0080332D01*
X0391924Y0080332D02*
X0399958Y0080332D01*
X0400226Y0080600D02*
X0398000Y0078374D01*
X0398000Y0075226D01*
X0400226Y0073000D01*
X0403374Y0073000D01*
X0405600Y0075226D01*
X0405600Y0078374D01*
X0403374Y0080600D01*
X0400226Y0080600D01*
X0403642Y0080332D02*
X0419958Y0080332D01*
X0420226Y0080600D02*
X0418000Y0078374D01*
X0418000Y0075226D01*
X0420226Y0073000D01*
X0423374Y0073000D01*
X0425600Y0075226D01*
X0425600Y0078374D01*
X0423374Y0080600D01*
X0420226Y0080600D01*
X0423642Y0080332D02*
X0426210Y0080332D01*
X0426210Y0078733D02*
X0425241Y0078733D01*
X0425600Y0077134D02*
X0426210Y0077134D01*
X0426210Y0075536D02*
X0425600Y0075536D01*
X0426210Y0073937D02*
X0424311Y0073937D01*
X0419289Y0073937D02*
X0404311Y0073937D01*
X0405600Y0075536D02*
X0418000Y0075536D01*
X0418000Y0077134D02*
X0405600Y0077134D01*
X0398000Y0077134D02*
X0393653Y0077134D01*
X0393488Y0075536D02*
X0398000Y0075536D01*
X0399289Y0073937D02*
X0392593Y0073937D01*
X0386007Y0073937D02*
X0352593Y0073937D01*
X0353488Y0075536D02*
X0385112Y0075536D01*
X0393211Y0078733D02*
X0398359Y0078733D01*
X0405241Y0078733D02*
X0418359Y0078733D01*
X0346007Y0073937D02*
X0337300Y0073937D01*
X0337173Y0075536D02*
X0345112Y0075536D01*
X0332000Y0075536D02*
X0331600Y0075536D01*
X0331600Y0073937D02*
X0332000Y0073937D01*
X0381500Y0062748D02*
X0382100Y0062748D01*
X0382100Y0061149D02*
X0381500Y0061149D01*
X0385815Y0061149D02*
X0418304Y0061149D01*
X0417356Y0062748D02*
X0386658Y0062748D01*
X0383688Y0059551D02*
X0426210Y0059551D01*
X0426210Y0061149D02*
X0425296Y0061149D01*
X0426210Y0057952D02*
X0412926Y0057952D01*
X0409500Y0057952D02*
X0409100Y0057952D01*
X0405674Y0057952D02*
X0401926Y0057952D01*
X0399500Y0057952D02*
X0399100Y0057952D01*
X0396674Y0057952D02*
X0392926Y0057952D01*
X0389500Y0057952D02*
X0389100Y0057952D01*
X0385674Y0057952D02*
X0374350Y0057952D01*
X0369300Y0057952D02*
X0369300Y0057952D01*
X0364250Y0057952D02*
X0363856Y0057952D01*
X0363950Y0056354D02*
X0364250Y0056354D01*
X0364250Y0054755D02*
X0363486Y0054755D01*
X0354744Y0057952D02*
X0349794Y0057952D01*
X0363125Y0059551D02*
X0364250Y0059551D01*
X0369300Y0059551D02*
X0369300Y0059551D01*
X0374350Y0059551D02*
X0379912Y0059551D01*
X0381500Y0059551D02*
X0382100Y0059551D01*
X0265621Y0062748D02*
X0262979Y0062748D01*
X0263100Y0061149D02*
X0265500Y0061149D01*
X0184865Y0048361D02*
X0168735Y0048361D01*
X0170334Y0049960D02*
X0183266Y0049960D01*
X0067500Y0067543D02*
X0066431Y0067543D01*
X0062169Y0067543D02*
X0056431Y0067543D01*
X0052169Y0067543D02*
X0008650Y0067543D01*
X0008650Y0065945D02*
X0050571Y0065945D01*
X0050500Y0064346D02*
X0047569Y0064346D01*
X0044300Y0064346D02*
X0044300Y0064346D01*
X0058100Y0064346D02*
X0060500Y0064346D01*
X0060571Y0065945D02*
X0058029Y0065945D01*
X0076751Y0070740D02*
X0081849Y0070740D01*
X0107476Y0077134D02*
X0111124Y0077134D01*
X0119680Y0077134D02*
X0121124Y0077134D01*
X0127476Y0077134D02*
X0131124Y0077134D01*
X0136187Y0078733D02*
X0121279Y0078733D01*
X0052500Y0056354D02*
X0048466Y0056354D01*
X0047921Y0054755D02*
X0052500Y0054755D01*
X0044300Y0054755D02*
X0044300Y0054755D01*
X0044300Y0056354D02*
X0044300Y0056354D01*
X0040679Y0054755D02*
X0037525Y0054755D01*
X0038100Y0056354D02*
X0040134Y0056354D01*
X0040567Y0025982D02*
X0038033Y0025982D01*
X0037158Y0024384D02*
X0041442Y0024384D01*
X0047158Y0024384D02*
X0050500Y0024384D01*
X0050500Y0022785D02*
X0031300Y0022785D01*
X0031300Y0024384D02*
X0031442Y0024384D01*
X0048033Y0025982D02*
X0050608Y0025982D01*
X0057992Y0025982D02*
X0060608Y0025982D01*
X0060500Y0024384D02*
X0058100Y0024384D01*
X0058100Y0022785D02*
X0060500Y0022785D01*
X0068100Y0022785D02*
X0072300Y0022785D01*
X0071442Y0024384D02*
X0068100Y0024384D01*
X0068034Y0016391D02*
X0070566Y0016391D01*
X0070050Y0014793D02*
X0068550Y0014793D01*
X0078034Y0016391D02*
X0080566Y0016391D01*
X0080050Y0014793D02*
X0078550Y0014793D01*
X0078442Y0013194D02*
X0080158Y0013194D01*
X0088442Y0013194D02*
X0090158Y0013194D01*
X0090050Y0014793D02*
X0088550Y0014793D01*
X0088034Y0016391D02*
X0090566Y0016391D01*
X0098034Y0016391D02*
X0100566Y0016391D01*
X0100050Y0014793D02*
X0098550Y0014793D01*
X0098442Y0013194D02*
X0100158Y0013194D01*
X0100994Y0011596D02*
X0097606Y0011596D01*
X0090994Y0011596D02*
X0087606Y0011596D01*
X0080994Y0011596D02*
X0077606Y0011596D01*
X0070994Y0011596D02*
X0067606Y0011596D01*
X0060994Y0011596D02*
X0057606Y0011596D01*
X0050994Y0011596D02*
X0047606Y0011596D01*
X0040994Y0011596D02*
X0037606Y0011596D01*
X0030994Y0011596D02*
X0028083Y0011596D01*
X0024450Y0011596D02*
X0024150Y0011596D01*
X0020517Y0011596D02*
X0017606Y0011596D01*
X0022503Y0009997D02*
X0008650Y0009997D01*
X0008650Y0011596D02*
X0010994Y0011596D01*
X0010158Y0013194D02*
X0008650Y0013194D01*
X0008650Y0014793D02*
X0010050Y0014793D01*
X0010566Y0016391D02*
X0008650Y0016391D01*
X0038550Y0014793D02*
X0040050Y0014793D01*
X0048034Y0016391D02*
X0050566Y0016391D01*
X0050050Y0014793D02*
X0048550Y0014793D01*
X0048442Y0013194D02*
X0050158Y0013194D01*
X0040158Y0013194D02*
X0038442Y0013194D01*
X0026097Y0009997D02*
X0227027Y0009997D01*
X0226700Y0011596D02*
X0147606Y0011596D01*
X0148442Y0013194D02*
X0226857Y0013194D01*
X0236743Y0013194D02*
X0236857Y0013194D01*
X0237580Y0014793D02*
X0236020Y0014793D01*
X0236576Y0016391D02*
X0234043Y0016391D01*
X0229557Y0016391D02*
X0148034Y0016391D01*
X0148550Y0014793D02*
X0227580Y0014793D01*
X0287459Y0021187D02*
X0310750Y0021187D01*
X0310750Y0019588D02*
X0289057Y0019588D01*
X0290656Y0017990D02*
X0310884Y0017990D01*
X0311270Y0016391D02*
X0294043Y0016391D01*
X0296020Y0014793D02*
X0311902Y0014793D01*
X0312904Y0013194D02*
X0296743Y0013194D01*
X0296900Y0011596D02*
X0314271Y0011596D01*
X0316238Y0009997D02*
X0296573Y0009997D01*
X0332362Y0009997D02*
X0348314Y0009997D01*
X0348434Y0009947D02*
X0350166Y0009947D01*
X0351766Y0010610D01*
X0352990Y0011834D01*
X0353653Y0013434D01*
X0353653Y0015166D01*
X0352990Y0016766D01*
X0351766Y0017990D01*
X0350166Y0018653D01*
X0348434Y0018653D01*
X0346834Y0017990D01*
X0345610Y0016766D01*
X0344947Y0015166D01*
X0344947Y0013434D01*
X0345610Y0011834D01*
X0346834Y0010610D01*
X0348434Y0009947D01*
X0350286Y0009997D02*
X0388314Y0009997D01*
X0388434Y0009947D02*
X0390166Y0009947D01*
X0391766Y0010610D01*
X0392990Y0011834D01*
X0393653Y0013434D01*
X0393653Y0015166D01*
X0392990Y0016766D01*
X0391766Y0017990D01*
X0390166Y0018653D01*
X0388434Y0018653D01*
X0386834Y0017990D01*
X0385610Y0016766D01*
X0384947Y0015166D01*
X0384947Y0013434D01*
X0385610Y0011834D01*
X0386834Y0010610D01*
X0388434Y0009947D01*
X0390286Y0009997D02*
X0426210Y0009997D01*
X0425600Y0012726D02*
X0423374Y0010500D01*
X0420226Y0010500D01*
X0418000Y0012726D01*
X0418000Y0015874D01*
X0420226Y0018100D01*
X0423374Y0018100D01*
X0425600Y0015874D01*
X0425600Y0012726D01*
X0425600Y0013194D02*
X0426210Y0013194D01*
X0426210Y0011596D02*
X0424470Y0011596D01*
X0419130Y0011596D02*
X0404470Y0011596D01*
X0403374Y0010500D02*
X0400226Y0010500D01*
X0398000Y0012726D01*
X0398000Y0015874D01*
X0400226Y0018100D01*
X0403374Y0018100D01*
X0405600Y0015874D01*
X0405600Y0012726D01*
X0403374Y0010500D01*
X0399130Y0011596D02*
X0392751Y0011596D01*
X0385849Y0011596D02*
X0352751Y0011596D01*
X0345849Y0011596D02*
X0334329Y0011596D01*
X0335696Y0013194D02*
X0345047Y0013194D01*
X0353553Y0013194D02*
X0385047Y0013194D01*
X0393553Y0013194D02*
X0398000Y0013194D01*
X0405600Y0013194D02*
X0418000Y0013194D01*
X0418000Y0014793D02*
X0405600Y0014793D01*
X0405083Y0016391D02*
X0418517Y0016391D01*
X0425083Y0016391D02*
X0426210Y0016391D01*
X0426210Y0014793D02*
X0425600Y0014793D01*
X0426210Y0017990D02*
X0423484Y0017990D01*
X0420116Y0017990D02*
X0403484Y0017990D01*
X0400116Y0017990D02*
X0391766Y0017990D01*
X0386834Y0017990D02*
X0351766Y0017990D01*
X0346834Y0017990D02*
X0337716Y0017990D01*
X0337850Y0019588D02*
X0426210Y0019588D01*
X0426210Y0021187D02*
X0337850Y0021187D01*
X0337877Y0022785D02*
X0378649Y0022785D01*
X0378478Y0022910D02*
X0379127Y0022438D01*
X0379842Y0022074D01*
X0380606Y0021826D01*
X0381399Y0021700D01*
X0381500Y0021700D01*
X0381500Y0026500D01*
X0382100Y0026500D01*
X0382100Y0027100D01*
X0386900Y0027100D01*
X0386900Y0027201D01*
X0386774Y0027994D01*
X0386526Y0028758D01*
X0386162Y0029473D01*
X0385690Y0030122D01*
X0385122Y0030690D01*
X0384473Y0031162D01*
X0383758Y0031526D01*
X0382994Y0031774D01*
X0382201Y0031900D01*
X0382100Y0031900D01*
X0382100Y0027100D01*
X0381500Y0027100D01*
X0381500Y0026500D01*
X0376700Y0026500D01*
X0376700Y0026399D01*
X0376826Y0025606D01*
X0377074Y0024842D01*
X0377438Y0024127D01*
X0377910Y0023478D01*
X0378478Y0022910D01*
X0377307Y0024384D02*
X0337762Y0024384D01*
X0337484Y0025982D02*
X0376766Y0025982D01*
X0381500Y0025982D02*
X0382100Y0025982D01*
X0382100Y0026500D02*
X0382100Y0021700D01*
X0382201Y0021700D01*
X0382994Y0021826D01*
X0383758Y0022074D01*
X0384473Y0022438D01*
X0385122Y0022910D01*
X0385690Y0023478D01*
X0386162Y0024127D01*
X0386526Y0024842D01*
X0386774Y0025606D01*
X0386900Y0026399D01*
X0386900Y0026500D01*
X0382100Y0026500D01*
X0382100Y0027581D02*
X0381500Y0027581D01*
X0376760Y0027581D02*
X0336979Y0027581D01*
X0313183Y0030778D02*
X0305600Y0030778D01*
X0305600Y0029179D02*
X0312152Y0029179D01*
X0311444Y0027581D02*
X0305455Y0027581D01*
X0303856Y0025982D02*
X0311003Y0025982D01*
X0363950Y0032376D02*
X0364615Y0032376D01*
X0364250Y0033975D02*
X0363950Y0033975D01*
X0369300Y0033975D02*
X0369300Y0033975D01*
X0381500Y0030778D02*
X0382100Y0030778D01*
X0382100Y0029179D02*
X0381500Y0029179D01*
X0385002Y0030778D02*
X0419131Y0030778D01*
X0417698Y0029179D02*
X0386312Y0029179D01*
X0386840Y0027581D02*
X0417100Y0027581D01*
X0417100Y0025982D02*
X0386834Y0025982D01*
X0386293Y0024384D02*
X0417714Y0024384D01*
X0419211Y0022785D02*
X0384951Y0022785D01*
X0382100Y0022785D02*
X0381500Y0022785D01*
X0381500Y0024384D02*
X0382100Y0024384D01*
X0424389Y0022785D02*
X0426210Y0022785D01*
X0426210Y0024384D02*
X0425886Y0024384D01*
X0425902Y0029179D02*
X0426210Y0029179D01*
X0426210Y0030778D02*
X0424469Y0030778D01*
X0398517Y0016391D02*
X0393145Y0016391D01*
X0393653Y0014793D02*
X0398000Y0014793D01*
X0385455Y0016391D02*
X0353145Y0016391D01*
X0353653Y0014793D02*
X0384947Y0014793D01*
X0345455Y0016391D02*
X0337330Y0016391D01*
X0336698Y0014793D02*
X0344947Y0014793D01*
X0245035Y0027581D02*
X0243100Y0027581D01*
X0243033Y0025982D02*
X0243437Y0025982D01*
X0140566Y0016391D02*
X0138034Y0016391D01*
X0138550Y0014793D02*
X0140050Y0014793D01*
X0130566Y0016391D02*
X0128034Y0016391D01*
X0128550Y0014793D02*
X0130050Y0014793D01*
X0120566Y0016391D02*
X0118034Y0016391D01*
X0118550Y0014793D02*
X0120050Y0014793D01*
X0120158Y0013194D02*
X0118442Y0013194D01*
X0110158Y0013194D02*
X0108442Y0013194D01*
X0108550Y0014793D02*
X0110050Y0014793D01*
X0110566Y0016391D02*
X0108034Y0016391D01*
X0128442Y0013194D02*
X0130158Y0013194D01*
X0138442Y0013194D02*
X0140158Y0013194D01*
X0140994Y0011596D02*
X0137606Y0011596D01*
X0130994Y0011596D02*
X0127606Y0011596D01*
X0120994Y0011596D02*
X0117606Y0011596D01*
X0110994Y0011596D02*
X0107606Y0011596D01*
X0070158Y0013194D02*
X0068442Y0013194D01*
X0060158Y0013194D02*
X0058442Y0013194D01*
X0058550Y0014793D02*
X0060050Y0014793D01*
X0060566Y0016391D02*
X0058034Y0016391D01*
X0024450Y0009997D02*
X0024150Y0009997D01*
D21*
X0144300Y0034300D03*
X0089300Y0036800D03*
X0054300Y0036800D03*
X0069300Y0045550D03*
X0216800Y0045550D03*
X0234300Y0050550D03*
X0254300Y0045550D03*
X0259300Y0041800D03*
X0254300Y0036800D03*
X0294300Y0049300D03*
X0264300Y0050550D03*
X0236800Y0019300D03*
D22*
X0074300Y0014300D02*
X0074300Y0029300D01*
X0054300Y0024300D02*
X0054300Y0014300D01*
X0034300Y0014300D02*
X0029300Y0019300D01*
X0029300Y0054300D01*
X0034300Y0059300D01*
D23*
X0054300Y0064300D02*
X0054300Y0036800D01*
X0089300Y0036800D02*
X0089300Y0054300D01*
X0084300Y0059300D01*
X0069300Y0069300D02*
X0069300Y0045550D01*
X0144300Y0034300D02*
X0144300Y0024300D01*
X0196800Y0029300D02*
X0204300Y0021800D01*
X0241800Y0021800D01*
X0249300Y0029300D01*
X0269300Y0029300D02*
X0281800Y0016800D01*
X0281800Y0011800D01*
X0271800Y0011800D02*
X0271800Y0016800D01*
X0264300Y0024300D01*
X0264300Y0050550D01*
X0234300Y0050550D02*
X0234300Y0034300D01*
X0229300Y0029300D01*
X0254300Y0024300D02*
X0261800Y0016800D01*
X0261800Y0011800D01*
X0241800Y0011800D02*
X0236800Y0019300D01*
X0254300Y0024300D02*
X0254300Y0036800D01*
X0269300Y0059300D02*
X0284300Y0044300D01*
X0284300Y0021800D01*
X0291800Y0014300D01*
X0291800Y0011800D01*
X0301800Y0029300D02*
X0301800Y0036800D01*
X0309300Y0044300D01*
X0339300Y0044300D01*
X0346800Y0054300D01*
X0294300Y0049300D02*
X0294300Y0066800D01*
X0301800Y0074300D01*
X0261800Y0074300D02*
X0254300Y0081800D01*
X0121800Y0081800D01*
X0114300Y0074300D01*
X0124300Y0074300D02*
X0129300Y0069300D01*
X0246800Y0069300D01*
X0251800Y0074300D01*
X0241800Y0074300D02*
X0236800Y0079300D01*
X0139300Y0079300D01*
X0134300Y0074300D01*
X0176800Y0059300D02*
X0184300Y0066800D01*
X0241800Y0066800D01*
X0249300Y0059300D01*
X0229300Y0059300D02*
X0214300Y0059300D01*
X0206800Y0051800D01*
X0074300Y0074300D02*
X0069300Y0069300D01*
M02*
