%
M48
M72
T01C0.0120
T02C0.0276
T03C0.0319
T04C0.0320
T05C0.0354
T06C0.0400
T07C0.0433
T08C0.0827
%
T01
X37274Y8087
X37034Y8967
X39194Y9047
X34554Y8967
X33034Y9847
X30634Y9607
X26234Y9287
X28634Y7607
X31034Y7207
X31514Y6567
X31514Y6167
T02
X27009Y11740
X26143Y11740
X25277Y11740
X24411Y11740
X23978Y11307
X24844Y11307
X25710Y11307
X26576Y11307
T03
X26478Y6322
X24509Y6322
X24509Y8291
X26478Y8291
T04
X49394Y5457
X47744Y5557
X48244Y6557
X49394Y6457
X49394Y7207
X49394Y8207
X49394Y8957
X49394Y9957
X49394Y10707
X48244Y10557
X48244Y11557
X49394Y11707
X44244Y11557
X41244Y10557
X40244Y10557
X39244Y10557
X38244Y10557
X37244Y10557
X30744Y10557
X29744Y10557
X22494Y10057
X21744Y10057
X20744Y10557
X19744Y10557
X21744Y7057
X22494Y7057
X20744Y6557
X19744Y6557
X18744Y5557
X22744Y5557
X28744Y5557
X28744Y6557
X29744Y6557
X30744Y6557
X37244Y6557
X38244Y6557
X39244Y6557
X40244Y6557
X41244Y6557
X43744Y5557
T05
X27187Y10059
X23801Y10059
T06
X36494Y5257
X35494Y5357
X34494Y5257
X33494Y5357
X32494Y5257
X31494Y5357
X30494Y5257
X31494Y11507
X30494Y11607
X32494Y11607
X33494Y11507
X34494Y11607
X35494Y11507
X36494Y11607
X37494Y11507
X38494Y11607
X39494Y11507
X40494Y11607
T07
X42738Y7572
X42738Y8557
X42738Y9541
X31738Y9541
X31738Y8557
X31738Y7572
X18803Y6557
X17622Y6557
X14275Y6557
X13053Y6557
X11872Y6557
X8525Y6557
X8525Y10557
X11872Y10557
X13053Y10557
X14275Y10557
X17622Y10557
X18803Y10557
T08
X45494Y6785
X34494Y6785
X34494Y10328
X45494Y10328
M30
