G75*
%MOIN*%
%OFA0B0*%
%FSLAX25Y25*%
%IPPOS*%
%LPD*%
%AMOC8*
5,1,8,0,0,1.08239X$1,22.5*
%
%ADD10R,0.06600X0.06600*%
%ADD11OC8,0.06600*%
%ADD12R,0.12268X0.12268*%
%ADD13C,0.06496*%
%ADD14OC8,0.05200*%
%ADD15R,0.05200X0.05200*%
%ADD16C,0.05200*%
%ADD17R,0.05937X0.05937*%
%ADD18R,0.05543X0.05543*%
%ADD19C,0.04756*%
%ADD20C,0.07400*%
%ADD21R,0.04756X0.04756*%
%ADD22C,0.00800*%
%ADD23C,0.02500*%
%ADD24C,0.01600*%
D10*
X0317378Y0064425D03*
X0427378Y0064425D03*
D11*
X0427378Y0054582D03*
X0427378Y0044740D03*
X0317378Y0044740D03*
X0317378Y0054582D03*
D12*
X0344937Y0036866D03*
X0454937Y0036866D03*
X0454937Y0072299D03*
X0344937Y0072299D03*
D13*
X0188028Y0074582D03*
X0176217Y0074582D03*
X0142752Y0074582D03*
X0130528Y0074582D03*
X0118717Y0074582D03*
X0085252Y0074582D03*
X0085252Y0034582D03*
X0118717Y0034582D03*
X0130528Y0034582D03*
X0142752Y0034582D03*
X0176217Y0034582D03*
X0188028Y0034582D03*
D14*
X0197437Y0034582D03*
X0207437Y0034582D03*
X0192437Y0024582D03*
X0222437Y0024582D03*
X0282437Y0029582D03*
X0284937Y0047082D03*
X0294937Y0047082D03*
X0372437Y0042082D03*
X0382437Y0059582D03*
X0392437Y0059582D03*
X0404937Y0059582D03*
X0417437Y0059582D03*
X0417437Y0069582D03*
X0404937Y0069582D03*
X0392437Y0069582D03*
X0382437Y0069582D03*
X0372437Y0072082D03*
X0294937Y0077082D03*
X0284937Y0077082D03*
X0207437Y0064582D03*
X0197437Y0064582D03*
X0187437Y0064582D03*
X0187437Y0044582D03*
X0442437Y0024582D03*
X0472437Y0024582D03*
X0493937Y0023582D03*
X0482437Y0039582D03*
X0493937Y0041082D03*
X0493937Y0068582D03*
X0482437Y0069582D03*
X0479937Y0084582D03*
X0493937Y0086082D03*
X0449937Y0084582D03*
D15*
X0493937Y0076082D03*
X0493937Y0058582D03*
X0493937Y0051082D03*
X0493937Y0033582D03*
X0292437Y0029582D03*
X0224937Y0034582D03*
X0217437Y0064582D03*
D16*
X0224937Y0064582D03*
X0217437Y0034582D03*
D17*
X0245094Y0032240D03*
X0264780Y0032240D03*
X0264780Y0051925D03*
X0245094Y0051925D03*
D18*
X0238008Y0069602D03*
X0271866Y0069602D03*
D19*
X0265764Y0082082D03*
X0257102Y0082082D03*
X0248441Y0082082D03*
X0239780Y0082082D03*
X0244110Y0086413D03*
X0252772Y0086413D03*
X0261433Y0086413D03*
X0270094Y0086413D03*
X0207437Y0086019D03*
D20*
X0304937Y0084582D03*
X0314937Y0084582D03*
X0324937Y0084582D03*
X0334937Y0084582D03*
X0344937Y0084582D03*
X0354937Y0084582D03*
X0364937Y0084582D03*
X0374937Y0084582D03*
X0384937Y0084582D03*
X0394937Y0084582D03*
X0404937Y0084582D03*
X0364937Y0022082D03*
X0354937Y0022082D03*
X0344937Y0022082D03*
X0334937Y0022082D03*
X0324937Y0022082D03*
X0314937Y0022082D03*
X0304937Y0022082D03*
D21*
X0207437Y0078145D03*
D22*
X0257102Y0082082D02*
X0257102Y0037417D01*
X0257437Y0037082D01*
X0264937Y0039582D02*
X0264937Y0032397D01*
X0264780Y0032240D01*
X0282437Y0029582D02*
X0282437Y0044582D01*
X0284937Y0047082D01*
X0292437Y0029582D02*
X0304937Y0042082D01*
X0304937Y0074582D01*
X0314937Y0084582D01*
X0259937Y0064582D02*
X0259937Y0044582D01*
X0264937Y0039582D01*
X0314937Y0034582D02*
X0314937Y0022082D01*
X0324937Y0022082D02*
X0324937Y0037082D01*
X0322437Y0042082D02*
X0314937Y0034582D01*
X0322437Y0042082D02*
X0322437Y0049582D01*
X0317437Y0054582D01*
X0317378Y0054582D01*
X0354937Y0049582D02*
X0354937Y0022082D01*
X0354937Y0049582D02*
X0364937Y0059582D01*
X0382437Y0059582D01*
D23*
X0354937Y0049582D03*
X0334937Y0054582D03*
X0259937Y0064582D03*
X0257437Y0037082D03*
X0324937Y0037082D03*
D24*
X0081787Y0031474D02*
X0081787Y0018932D01*
X0300875Y0018932D01*
X0300613Y0019193D01*
X0299837Y0021068D01*
X0299837Y0023097D01*
X0300613Y0024971D01*
X0302048Y0026406D01*
X0303923Y0027182D01*
X0305951Y0027182D01*
X0307826Y0026406D01*
X0309261Y0024971D01*
X0309937Y0023338D01*
X0310613Y0024971D01*
X0312048Y0026406D01*
X0313137Y0026857D01*
X0313137Y0035328D01*
X0314191Y0036382D01*
X0317849Y0040040D01*
X0315431Y0040040D01*
X0312678Y0042793D01*
X0312678Y0046687D01*
X0315431Y0049440D01*
X0319325Y0049440D01*
X0320637Y0048128D01*
X0320637Y0048837D01*
X0319458Y0050016D01*
X0319325Y0049882D01*
X0315431Y0049882D01*
X0312678Y0052636D01*
X0312678Y0056529D01*
X0315431Y0059282D01*
X0319325Y0059282D01*
X0322078Y0056529D01*
X0322078Y0052636D01*
X0322004Y0052561D01*
X0323183Y0051382D01*
X0324237Y0050328D01*
X0324237Y0041337D01*
X0316737Y0033837D01*
X0316737Y0026857D01*
X0317826Y0026406D01*
X0319261Y0024971D01*
X0319937Y0023338D01*
X0320613Y0024971D01*
X0322048Y0026406D01*
X0323137Y0026857D01*
X0323137Y0035135D01*
X0322690Y0035581D01*
X0322287Y0036555D01*
X0322287Y0037610D01*
X0322690Y0038583D01*
X0323436Y0039329D01*
X0324410Y0039732D01*
X0325464Y0039732D01*
X0326438Y0039329D01*
X0327184Y0038583D01*
X0327587Y0037610D01*
X0327587Y0036555D01*
X0327184Y0035581D01*
X0326737Y0035135D01*
X0326737Y0026857D01*
X0327826Y0026406D01*
X0329261Y0024971D01*
X0329937Y0023338D01*
X0330613Y0024971D01*
X0332048Y0026406D01*
X0332737Y0026691D01*
X0332737Y0053035D01*
X0332690Y0053081D01*
X0332287Y0054055D01*
X0332287Y0055110D01*
X0332690Y0056083D01*
X0333436Y0056829D01*
X0334410Y0057232D01*
X0335464Y0057232D01*
X0336438Y0056829D01*
X0337184Y0056083D01*
X0337587Y0055110D01*
X0337587Y0054055D01*
X0337184Y0053081D01*
X0337137Y0053035D01*
X0337137Y0026691D01*
X0337826Y0026406D01*
X0339261Y0024971D01*
X0339937Y0023338D01*
X0340613Y0024971D01*
X0342048Y0026406D01*
X0343923Y0027182D01*
X0345951Y0027182D01*
X0347826Y0026406D01*
X0349261Y0024971D01*
X0349937Y0023338D01*
X0350613Y0024971D01*
X0352048Y0026406D01*
X0353137Y0026857D01*
X0353137Y0047635D01*
X0352690Y0048081D01*
X0352287Y0049055D01*
X0352287Y0050110D01*
X0352690Y0051083D01*
X0353436Y0051829D01*
X0354410Y0052232D01*
X0355041Y0052232D01*
X0364191Y0061382D01*
X0378580Y0061382D01*
X0380780Y0063582D01*
X0384094Y0063582D01*
X0386437Y0061239D01*
X0386437Y0057926D01*
X0384094Y0055582D01*
X0380780Y0055582D01*
X0378580Y0057782D01*
X0365683Y0057782D01*
X0357587Y0049687D01*
X0357587Y0049055D01*
X0357184Y0048081D01*
X0356737Y0047635D01*
X0356737Y0026857D01*
X0357826Y0026406D01*
X0359261Y0024971D01*
X0359937Y0023338D01*
X0360613Y0024971D01*
X0362048Y0026406D01*
X0362737Y0026691D01*
X0362737Y0027994D01*
X0372826Y0038082D01*
X0370780Y0038082D01*
X0368437Y0040426D01*
X0368437Y0043739D01*
X0370780Y0046082D01*
X0374094Y0046082D01*
X0376437Y0043739D01*
X0376437Y0041694D01*
X0390237Y0055494D01*
X0390237Y0056126D01*
X0388437Y0057926D01*
X0388437Y0061239D01*
X0390780Y0063582D01*
X0394094Y0063582D01*
X0396437Y0061239D01*
X0396437Y0057926D01*
X0394637Y0056126D01*
X0394637Y0053671D01*
X0393348Y0052382D01*
X0367505Y0026539D01*
X0367826Y0026406D01*
X0369261Y0024971D01*
X0370037Y0023097D01*
X0370037Y0021068D01*
X0369261Y0019193D01*
X0368999Y0018932D01*
X0392445Y0018932D01*
X0392259Y0019002D01*
X0391907Y0019078D01*
X0391861Y0019150D01*
X0391098Y0019435D01*
X0391016Y0019411D01*
X0390700Y0019583D01*
X0390363Y0019709D01*
X0390328Y0019787D01*
X0389613Y0020177D01*
X0389528Y0020165D01*
X0389240Y0020381D01*
X0388924Y0020553D01*
X0388900Y0020635D01*
X0388248Y0021123D01*
X0388163Y0021123D01*
X0387908Y0021377D01*
X0387620Y0021593D01*
X0387608Y0021678D01*
X0387032Y0022254D01*
X0386948Y0022266D01*
X0386732Y0022554D01*
X0386478Y0022808D01*
X0386478Y0022894D01*
X0385990Y0023546D01*
X0385908Y0023570D01*
X0385735Y0023885D01*
X0385520Y0024174D01*
X0385532Y0024258D01*
X0385141Y0024973D01*
X0385064Y0025008D01*
X0384938Y0025346D01*
X0384766Y0025661D01*
X0384790Y0025743D01*
X0384505Y0026506D01*
X0384433Y0026553D01*
X0384357Y0026904D01*
X0384231Y0027241D01*
X0384266Y0027319D01*
X0384093Y0028115D01*
X0384029Y0028171D01*
X0384003Y0028530D01*
X0383927Y0028881D01*
X0383973Y0028953D01*
X0383918Y0029723D01*
X0383887Y0029754D01*
X0383887Y0030152D01*
X0383859Y0030548D01*
X0383887Y0030581D01*
X0383887Y0033584D01*
X0383859Y0033617D01*
X0383887Y0034013D01*
X0383887Y0034411D01*
X0383918Y0034441D01*
X0383973Y0035212D01*
X0383927Y0035283D01*
X0384003Y0035635D01*
X0384029Y0035994D01*
X0384093Y0036050D01*
X0384266Y0036846D01*
X0384231Y0036923D01*
X0384357Y0037261D01*
X0384433Y0037612D01*
X0384505Y0037658D01*
X0384790Y0038421D01*
X0384766Y0038503D01*
X0384938Y0038819D01*
X0385064Y0039156D01*
X0385141Y0039192D01*
X0385532Y0039907D01*
X0385520Y0039991D01*
X0385735Y0040279D01*
X0385908Y0040595D01*
X0385990Y0040619D01*
X0386478Y0041271D01*
X0386478Y0041357D01*
X0386732Y0041611D01*
X0386948Y0041899D01*
X0387032Y0041911D01*
X0387608Y0042487D01*
X0387620Y0042572D01*
X0387908Y0042787D01*
X0388163Y0043042D01*
X0388248Y0043042D01*
X0388900Y0043530D01*
X0388924Y0043612D01*
X0389240Y0043784D01*
X0389528Y0044000D01*
X0389613Y0043988D01*
X0390328Y0044378D01*
X0390363Y0044456D01*
X0390700Y0044581D01*
X0391016Y0044754D01*
X0391098Y0044730D01*
X0391861Y0045014D01*
X0391907Y0045086D01*
X0392259Y0045163D01*
X0392596Y0045289D01*
X0392674Y0045253D01*
X0393469Y0045426D01*
X0393525Y0045491D01*
X0393884Y0045516D01*
X0394236Y0045593D01*
X0394308Y0045547D01*
X0395078Y0045602D01*
X0395109Y0045632D01*
X0395506Y0045632D01*
X0395903Y0045661D01*
X0395935Y0045632D01*
X0398365Y0045632D01*
X0398398Y0045661D01*
X0398794Y0045632D01*
X0399192Y0045632D01*
X0399222Y0045602D01*
X0400074Y0045541D01*
X0400146Y0045587D01*
X0400498Y0045511D01*
X0400857Y0045485D01*
X0400912Y0045420D01*
X0401788Y0045230D01*
X0401866Y0045265D01*
X0402203Y0045140D01*
X0402555Y0045063D01*
X0402601Y0044991D01*
X0403441Y0044678D01*
X0403523Y0044702D01*
X0403838Y0044530D01*
X0404176Y0044404D01*
X0404211Y0044326D01*
X0404998Y0043897D01*
X0405082Y0043909D01*
X0405370Y0043693D01*
X0405686Y0043521D01*
X0405710Y0043439D01*
X0406428Y0042902D01*
X0406513Y0042902D01*
X0406768Y0042647D01*
X0407056Y0042432D01*
X0407068Y0042347D01*
X0407702Y0041713D01*
X0407786Y0041701D01*
X0408002Y0041413D01*
X0408256Y0041159D01*
X0408256Y0041073D01*
X0408793Y0040356D01*
X0408875Y0040332D01*
X0409048Y0040016D01*
X0409263Y0039728D01*
X0409251Y0039643D01*
X0409681Y0038856D01*
X0409758Y0038821D01*
X0409884Y0038484D01*
X0410057Y0038168D01*
X0410033Y0038086D01*
X0410346Y0037246D01*
X0410418Y0037200D01*
X0410494Y0036848D01*
X0410620Y0036511D01*
X0410584Y0036434D01*
X0410775Y0035558D01*
X0410839Y0035502D01*
X0410865Y0035143D01*
X0410942Y0034791D01*
X0410895Y0034720D01*
X0410956Y0033868D01*
X0410987Y0033837D01*
X0410987Y0033439D01*
X0411015Y0033043D01*
X0410987Y0033010D01*
X0410987Y0030581D01*
X0411015Y0030548D01*
X0410987Y0030152D01*
X0410987Y0029754D01*
X0410956Y0029723D01*
X0410901Y0028953D01*
X0410947Y0028881D01*
X0410871Y0028530D01*
X0410845Y0028171D01*
X0410781Y0028115D01*
X0410608Y0027319D01*
X0410643Y0027241D01*
X0410517Y0026904D01*
X0410441Y0026553D01*
X0410369Y0026506D01*
X0410084Y0025743D01*
X0410108Y0025661D01*
X0409936Y0025346D01*
X0409810Y0025008D01*
X0409733Y0024973D01*
X0409342Y0024258D01*
X0409354Y0024174D01*
X0409139Y0023885D01*
X0408966Y0023570D01*
X0408884Y0023546D01*
X0408396Y0022894D01*
X0408396Y0022808D01*
X0408142Y0022554D01*
X0407926Y0022266D01*
X0407842Y0022254D01*
X0407266Y0021678D01*
X0407254Y0021593D01*
X0406966Y0021377D01*
X0406711Y0021123D01*
X0406626Y0021123D01*
X0405974Y0020635D01*
X0405950Y0020553D01*
X0405634Y0020381D01*
X0405346Y0020165D01*
X0405261Y0020177D01*
X0404546Y0019787D01*
X0404511Y0019709D01*
X0404174Y0019583D01*
X0403858Y0019411D01*
X0403776Y0019435D01*
X0403013Y0019150D01*
X0402967Y0019078D01*
X0402615Y0019002D01*
X0402429Y0018932D01*
X0499347Y0018932D01*
X0499347Y0092004D01*
X0081787Y0092004D01*
X0081787Y0077691D01*
X0082619Y0078523D01*
X0084327Y0079230D01*
X0086177Y0079230D01*
X0087885Y0078523D01*
X0089192Y0077215D01*
X0089900Y0075507D01*
X0089900Y0073658D01*
X0089192Y0071949D01*
X0087885Y0070642D01*
X0086177Y0069934D01*
X0084327Y0069934D01*
X0082619Y0070642D01*
X0081787Y0071474D01*
X0081787Y0037691D01*
X0082619Y0038523D01*
X0084327Y0039230D01*
X0086177Y0039230D01*
X0087885Y0038523D01*
X0089192Y0037215D01*
X0089900Y0035507D01*
X0089900Y0033658D01*
X0089192Y0031949D01*
X0087885Y0030642D01*
X0086177Y0029934D01*
X0084327Y0029934D01*
X0082619Y0030642D01*
X0081787Y0031474D01*
X0081787Y0031469D02*
X0081792Y0031469D01*
X0081787Y0029870D02*
X0128694Y0029870D01*
X0128590Y0029904D02*
X0129345Y0029659D01*
X0130130Y0029534D01*
X0130245Y0029534D01*
X0130245Y0034300D01*
X0125480Y0034300D01*
X0125480Y0034185D01*
X0125604Y0033400D01*
X0125849Y0032645D01*
X0126210Y0031937D01*
X0126677Y0031294D01*
X0127239Y0030732D01*
X0127882Y0030265D01*
X0128590Y0029904D01*
X0130245Y0029870D02*
X0130810Y0029870D01*
X0130810Y0029534D02*
X0130925Y0029534D01*
X0131710Y0029659D01*
X0132465Y0029904D01*
X0133173Y0030265D01*
X0133816Y0030732D01*
X0134378Y0031294D01*
X0134845Y0031937D01*
X0135206Y0032645D01*
X0135451Y0033400D01*
X0135576Y0034185D01*
X0135576Y0034300D01*
X0130810Y0034300D01*
X0130810Y0034865D01*
X0130245Y0034865D01*
X0130245Y0039630D01*
X0130130Y0039630D01*
X0129345Y0039506D01*
X0128590Y0039261D01*
X0127882Y0038900D01*
X0127239Y0038433D01*
X0126677Y0037871D01*
X0126210Y0037228D01*
X0125849Y0036520D01*
X0125604Y0035764D01*
X0125480Y0034980D01*
X0125480Y0034865D01*
X0130245Y0034865D01*
X0130245Y0034300D01*
X0130810Y0034300D01*
X0130810Y0029534D01*
X0132362Y0029870D02*
X0186194Y0029870D01*
X0186090Y0029904D02*
X0186845Y0029659D01*
X0187630Y0029534D01*
X0187745Y0029534D01*
X0187745Y0034300D01*
X0182980Y0034300D01*
X0182980Y0034185D01*
X0183104Y0033400D01*
X0183349Y0032645D01*
X0183710Y0031937D01*
X0184177Y0031294D01*
X0184739Y0030732D01*
X0185382Y0030265D01*
X0186090Y0029904D01*
X0187745Y0029870D02*
X0188310Y0029870D01*
X0188310Y0029534D02*
X0188425Y0029534D01*
X0189210Y0029659D01*
X0189965Y0029904D01*
X0190673Y0030265D01*
X0191316Y0030732D01*
X0191878Y0031294D01*
X0192345Y0031937D01*
X0192706Y0032645D01*
X0192951Y0033400D01*
X0193076Y0034185D01*
X0193076Y0034300D01*
X0188310Y0034300D01*
X0188310Y0034865D01*
X0187745Y0034865D01*
X0187745Y0039630D01*
X0187630Y0039630D01*
X0186845Y0039506D01*
X0186090Y0039261D01*
X0185382Y0038900D01*
X0184739Y0038433D01*
X0184177Y0037871D01*
X0183710Y0037228D01*
X0183349Y0036520D01*
X0183104Y0035764D01*
X0182980Y0034980D01*
X0182980Y0034865D01*
X0187745Y0034865D01*
X0187745Y0034300D01*
X0188310Y0034300D01*
X0188310Y0029534D01*
X0189862Y0029870D02*
X0240726Y0029870D01*
X0240726Y0028691D02*
X0241546Y0027871D01*
X0248643Y0027871D01*
X0249463Y0028691D01*
X0249463Y0035788D01*
X0248643Y0036608D01*
X0241546Y0036608D01*
X0240726Y0035788D01*
X0240726Y0028691D01*
X0241145Y0028272D02*
X0224404Y0028272D01*
X0224094Y0028582D02*
X0220780Y0028582D01*
X0218437Y0026239D01*
X0218437Y0022926D01*
X0220780Y0020582D01*
X0224094Y0020582D01*
X0226437Y0022926D01*
X0226437Y0026239D01*
X0224094Y0028582D01*
X0221757Y0030582D02*
X0228117Y0030582D01*
X0228937Y0031402D01*
X0228937Y0037762D01*
X0228117Y0038582D01*
X0221757Y0038582D01*
X0220937Y0037762D01*
X0220937Y0037251D01*
X0220793Y0037449D01*
X0220303Y0037939D01*
X0219743Y0038346D01*
X0219126Y0038660D01*
X0218467Y0038874D01*
X0217783Y0038982D01*
X0217437Y0038982D01*
X0217091Y0038982D01*
X0216407Y0038874D01*
X0215748Y0038660D01*
X0215131Y0038346D01*
X0214571Y0037939D01*
X0214081Y0037449D01*
X0213674Y0036888D01*
X0213359Y0036271D01*
X0213145Y0035613D01*
X0213037Y0034929D01*
X0213037Y0034582D01*
X0213037Y0034236D01*
X0213145Y0033552D01*
X0213359Y0032893D01*
X0213674Y0032276D01*
X0214081Y0031716D01*
X0214571Y0031226D01*
X0215131Y0030819D01*
X0215748Y0030505D01*
X0216407Y0030291D01*
X0217091Y0030182D01*
X0217437Y0030182D01*
X0217437Y0034582D01*
X0217437Y0030182D01*
X0217783Y0030182D01*
X0218467Y0030291D01*
X0219126Y0030505D01*
X0219743Y0030819D01*
X0220303Y0031226D01*
X0220793Y0031716D01*
X0220937Y0031914D01*
X0220937Y0031402D01*
X0221757Y0030582D01*
X0220937Y0031469D02*
X0220546Y0031469D01*
X0217437Y0031469D02*
X0217437Y0031469D01*
X0214328Y0031469D02*
X0209980Y0031469D01*
X0209094Y0030582D02*
X0211437Y0032926D01*
X0211437Y0036239D01*
X0209637Y0038039D01*
X0209637Y0053671D01*
X0216548Y0060582D01*
X0220617Y0060582D01*
X0221437Y0061402D01*
X0221437Y0062580D01*
X0221546Y0062317D01*
X0222671Y0061191D01*
X0224141Y0060582D01*
X0225733Y0060582D01*
X0227203Y0061191D01*
X0228328Y0062317D01*
X0228937Y0063787D01*
X0228937Y0065378D01*
X0228328Y0066848D01*
X0227203Y0067973D01*
X0225733Y0068582D01*
X0224141Y0068582D01*
X0222671Y0067973D01*
X0221546Y0066848D01*
X0221437Y0066585D01*
X0221437Y0067762D01*
X0220617Y0068582D01*
X0214257Y0068582D01*
X0213437Y0067762D01*
X0213437Y0063694D01*
X0206526Y0056782D01*
X0205237Y0055494D01*
X0205237Y0038039D01*
X0203437Y0036239D01*
X0203437Y0032926D01*
X0205780Y0030582D01*
X0209094Y0030582D01*
X0204894Y0031469D02*
X0199980Y0031469D01*
X0199094Y0030582D02*
X0201437Y0032926D01*
X0201437Y0036239D01*
X0199094Y0038582D01*
X0195780Y0038582D01*
X0193437Y0036239D01*
X0193437Y0032926D01*
X0195780Y0030582D01*
X0199094Y0030582D01*
X0194894Y0031469D02*
X0192005Y0031469D01*
X0188310Y0031469D02*
X0187745Y0031469D01*
X0184050Y0031469D02*
X0179676Y0031469D01*
X0180157Y0031949D02*
X0178849Y0030642D01*
X0177141Y0029934D01*
X0175292Y0029934D01*
X0173584Y0030642D01*
X0172276Y0031949D01*
X0171569Y0033658D01*
X0171569Y0035507D01*
X0172276Y0037215D01*
X0173584Y0038523D01*
X0175292Y0039230D01*
X0177141Y0039230D01*
X0178849Y0038523D01*
X0180157Y0037215D01*
X0180865Y0035507D01*
X0180865Y0033658D01*
X0180157Y0031949D01*
X0180620Y0033068D02*
X0183212Y0033068D01*
X0180865Y0034666D02*
X0187745Y0034666D01*
X0188310Y0034666D02*
X0193437Y0034666D01*
X0193076Y0034865D02*
X0193076Y0034980D01*
X0192951Y0035764D01*
X0192706Y0036520D01*
X0192345Y0037228D01*
X0191878Y0037871D01*
X0191316Y0038433D01*
X0190673Y0038900D01*
X0189965Y0039261D01*
X0189210Y0039506D01*
X0188425Y0039630D01*
X0188310Y0039630D01*
X0188310Y0034865D01*
X0193076Y0034865D01*
X0192843Y0033068D02*
X0193437Y0033068D01*
X0188310Y0033068D02*
X0187745Y0033068D01*
X0172757Y0031469D02*
X0146212Y0031469D01*
X0146692Y0031949D02*
X0145385Y0030642D01*
X0143677Y0029934D01*
X0141827Y0029934D01*
X0140119Y0030642D01*
X0138812Y0031949D01*
X0138104Y0033658D01*
X0138104Y0035507D01*
X0138812Y0037215D01*
X0140119Y0038523D01*
X0141827Y0039230D01*
X0143677Y0039230D01*
X0145385Y0038523D01*
X0146692Y0037215D01*
X0147400Y0035507D01*
X0147400Y0033658D01*
X0146692Y0031949D01*
X0147155Y0033068D02*
X0171813Y0033068D01*
X0171569Y0034666D02*
X0147400Y0034666D01*
X0147086Y0036265D02*
X0171882Y0036265D01*
X0172924Y0037863D02*
X0146045Y0037863D01*
X0139459Y0037863D02*
X0134384Y0037863D01*
X0134378Y0037871D02*
X0133816Y0038433D01*
X0133173Y0038900D01*
X0132465Y0039261D01*
X0131710Y0039506D01*
X0130925Y0039630D01*
X0130810Y0039630D01*
X0130810Y0034865D01*
X0135576Y0034865D01*
X0135576Y0034980D01*
X0135451Y0035764D01*
X0135206Y0036520D01*
X0134845Y0037228D01*
X0134378Y0037871D01*
X0135289Y0036265D02*
X0138418Y0036265D01*
X0138104Y0034666D02*
X0130810Y0034666D01*
X0130245Y0034666D02*
X0123365Y0034666D01*
X0123365Y0035507D02*
X0123365Y0033658D01*
X0122657Y0031949D01*
X0121349Y0030642D01*
X0119641Y0029934D01*
X0117792Y0029934D01*
X0116084Y0030642D01*
X0114776Y0031949D01*
X0114069Y0033658D01*
X0114069Y0035507D01*
X0114776Y0037215D01*
X0116084Y0038523D01*
X0117792Y0039230D01*
X0119641Y0039230D01*
X0121349Y0038523D01*
X0122657Y0037215D01*
X0123365Y0035507D01*
X0123051Y0036265D02*
X0125766Y0036265D01*
X0126671Y0037863D02*
X0122009Y0037863D01*
X0129208Y0039462D02*
X0081787Y0039462D01*
X0081787Y0037863D02*
X0081959Y0037863D01*
X0088545Y0037863D02*
X0115424Y0037863D01*
X0114382Y0036265D02*
X0089586Y0036265D01*
X0089900Y0034666D02*
X0114069Y0034666D01*
X0114313Y0033068D02*
X0089655Y0033068D01*
X0088712Y0031469D02*
X0115257Y0031469D01*
X0122176Y0031469D02*
X0126550Y0031469D01*
X0130245Y0031469D02*
X0130810Y0031469D01*
X0134505Y0031469D02*
X0139292Y0031469D01*
X0138348Y0033068D02*
X0135343Y0033068D01*
X0130810Y0033068D02*
X0130245Y0033068D01*
X0125712Y0033068D02*
X0123120Y0033068D01*
X0130245Y0036265D02*
X0130810Y0036265D01*
X0130810Y0037863D02*
X0130245Y0037863D01*
X0130245Y0039462D02*
X0130810Y0039462D01*
X0131847Y0039462D02*
X0186708Y0039462D01*
X0187437Y0040182D02*
X0187437Y0044582D01*
X0187437Y0040182D01*
X0185614Y0040182D01*
X0183037Y0042760D01*
X0183037Y0044582D01*
X0187437Y0044582D01*
X0187437Y0044582D01*
X0187437Y0044582D01*
X0187437Y0044582D01*
X0191837Y0044582D01*
X0191837Y0042760D01*
X0189260Y0040182D01*
X0187437Y0040182D01*
X0187745Y0039462D02*
X0188310Y0039462D01*
X0189347Y0039462D02*
X0205237Y0039462D01*
X0205061Y0037863D02*
X0199813Y0037863D01*
X0201412Y0036265D02*
X0203462Y0036265D01*
X0209813Y0037863D02*
X0214495Y0037863D01*
X0213357Y0036265D02*
X0211412Y0036265D01*
X0217437Y0036265D02*
X0217437Y0036265D01*
X0217437Y0037863D02*
X0217437Y0037863D01*
X0217437Y0038982D02*
X0217437Y0034583D01*
X0217437Y0034583D01*
X0217437Y0038982D01*
X0220379Y0037863D02*
X0221038Y0037863D01*
X0228836Y0037863D02*
X0254892Y0037863D01*
X0254787Y0037610D02*
X0254787Y0036555D01*
X0255190Y0035581D01*
X0255936Y0034836D01*
X0256910Y0034432D01*
X0257964Y0034432D01*
X0258938Y0034836D01*
X0259684Y0035581D01*
X0260087Y0036555D01*
X0260087Y0037610D01*
X0259684Y0038583D01*
X0258938Y0039329D01*
X0258902Y0039344D01*
X0258902Y0043071D01*
X0263137Y0038837D01*
X0263137Y0036608D01*
X0261231Y0036608D01*
X0260411Y0035788D01*
X0260411Y0028691D01*
X0261231Y0027871D01*
X0268328Y0027871D01*
X0269148Y0028691D01*
X0269148Y0035788D01*
X0268328Y0036608D01*
X0266737Y0036608D01*
X0266737Y0040328D01*
X0265683Y0041382D01*
X0261737Y0045328D01*
X0261737Y0047556D01*
X0268328Y0047556D01*
X0269148Y0048377D01*
X0269148Y0055473D01*
X0268328Y0056293D01*
X0261737Y0056293D01*
X0261737Y0062635D01*
X0262184Y0063081D01*
X0262587Y0064055D01*
X0262587Y0065110D01*
X0262184Y0066083D01*
X0261438Y0066829D01*
X0260464Y0067232D01*
X0259410Y0067232D01*
X0258902Y0067022D01*
X0258902Y0078739D01*
X0259242Y0078880D01*
X0260305Y0079942D01*
X0260880Y0081331D01*
X0260880Y0082271D01*
X0261104Y0082235D01*
X0261433Y0082235D01*
X0261433Y0086413D01*
X0261433Y0086413D01*
X0257255Y0086413D01*
X0257255Y0086084D01*
X0257291Y0085860D01*
X0256550Y0085860D01*
X0256550Y0087165D01*
X0255974Y0088553D01*
X0254912Y0089616D01*
X0253523Y0090191D01*
X0252020Y0090191D01*
X0250632Y0089616D01*
X0249569Y0088553D01*
X0248994Y0087165D01*
X0248994Y0085860D01*
X0247888Y0085860D01*
X0247888Y0087165D01*
X0247313Y0088553D01*
X0246250Y0089616D01*
X0244862Y0090191D01*
X0243359Y0090191D01*
X0241970Y0089616D01*
X0240907Y0088553D01*
X0240332Y0087165D01*
X0240332Y0085860D01*
X0239028Y0085860D01*
X0237639Y0085285D01*
X0236577Y0084222D01*
X0236002Y0082834D01*
X0236002Y0081331D01*
X0236577Y0079942D01*
X0237639Y0078880D01*
X0239028Y0078304D01*
X0240531Y0078304D01*
X0241920Y0078880D01*
X0242982Y0079942D01*
X0243557Y0081331D01*
X0243557Y0082635D01*
X0244663Y0082635D01*
X0244663Y0081331D01*
X0245238Y0079942D01*
X0246301Y0078880D01*
X0247689Y0078304D01*
X0249192Y0078304D01*
X0250572Y0078876D01*
X0250572Y0060513D01*
X0246352Y0056293D01*
X0241546Y0056293D01*
X0240726Y0055473D01*
X0240726Y0048377D01*
X0241546Y0047556D01*
X0248643Y0047556D01*
X0249463Y0048377D01*
X0249463Y0053182D01*
X0254972Y0058691D01*
X0254972Y0078876D01*
X0255302Y0078739D01*
X0255302Y0038695D01*
X0255190Y0038583D01*
X0254787Y0037610D01*
X0254907Y0036265D02*
X0248987Y0036265D01*
X0241202Y0036265D02*
X0228937Y0036265D01*
X0228937Y0034666D02*
X0240726Y0034666D01*
X0240726Y0033068D02*
X0228937Y0033068D01*
X0228937Y0031469D02*
X0240726Y0031469D01*
X0249463Y0031469D02*
X0260411Y0031469D01*
X0260411Y0029870D02*
X0249463Y0029870D01*
X0249043Y0028272D02*
X0260831Y0028272D01*
X0268729Y0028272D02*
X0278437Y0028272D01*
X0278437Y0027926D02*
X0280780Y0025582D01*
X0284094Y0025582D01*
X0286437Y0027926D01*
X0286437Y0031239D01*
X0284237Y0033439D01*
X0284237Y0043082D01*
X0286594Y0043082D01*
X0288937Y0045426D01*
X0288937Y0048739D01*
X0286594Y0051082D01*
X0283280Y0051082D01*
X0280937Y0048739D01*
X0280937Y0045628D01*
X0280637Y0045328D01*
X0280637Y0033439D01*
X0278437Y0031239D01*
X0278437Y0027926D01*
X0279689Y0026673D02*
X0226003Y0026673D01*
X0220470Y0028272D02*
X0194970Y0028272D01*
X0194260Y0028982D02*
X0192437Y0028982D01*
X0190614Y0028982D01*
X0188037Y0026405D01*
X0188037Y0024582D01*
X0188037Y0022760D01*
X0190614Y0020182D01*
X0192437Y0020182D01*
X0194260Y0020182D01*
X0196837Y0022760D01*
X0196837Y0024582D01*
X0192437Y0024582D01*
X0192437Y0020182D01*
X0192437Y0024582D01*
X0192437Y0024582D01*
X0188037Y0024582D01*
X0192437Y0024582D01*
X0192437Y0024582D01*
X0192437Y0024582D01*
X0196837Y0024582D01*
X0196837Y0026405D01*
X0194260Y0028982D01*
X0192437Y0028982D02*
X0192437Y0024583D01*
X0192437Y0028982D01*
X0192437Y0028272D02*
X0192437Y0028272D01*
X0192437Y0026673D02*
X0192437Y0026673D01*
X0189904Y0028272D02*
X0081787Y0028272D01*
X0081787Y0026673D02*
X0188306Y0026673D01*
X0196568Y0026673D02*
X0218871Y0026673D01*
X0218437Y0025075D02*
X0196837Y0025075D01*
X0196837Y0023476D02*
X0218437Y0023476D01*
X0226437Y0023476D02*
X0299994Y0023476D01*
X0300717Y0025075D02*
X0226437Y0025075D01*
X0225389Y0021878D02*
X0299837Y0021878D01*
X0300164Y0020279D02*
X0194357Y0020279D01*
X0192437Y0020279D02*
X0192437Y0020279D01*
X0192437Y0021878D02*
X0192437Y0021878D01*
X0190517Y0020279D02*
X0081787Y0020279D01*
X0081787Y0021878D02*
X0188919Y0021878D01*
X0195955Y0021878D02*
X0219485Y0021878D01*
X0192437Y0023476D02*
X0192437Y0023476D01*
X0192437Y0024583D02*
X0192437Y0024583D01*
X0192437Y0025075D02*
X0192437Y0025075D01*
X0188037Y0025075D02*
X0081787Y0025075D01*
X0081787Y0023476D02*
X0188037Y0023476D01*
X0201437Y0033068D02*
X0203437Y0033068D01*
X0203437Y0034666D02*
X0201437Y0034666D01*
X0207437Y0034582D02*
X0207437Y0054582D01*
X0217437Y0064582D01*
X0213437Y0065038D02*
X0211837Y0065038D01*
X0211837Y0064582D02*
X0207437Y0064582D01*
X0207437Y0060182D01*
X0207437Y0064582D01*
X0207437Y0064582D01*
X0203037Y0064582D01*
X0203037Y0062760D01*
X0205614Y0060182D01*
X0207437Y0060182D01*
X0209260Y0060182D01*
X0211837Y0062760D01*
X0211837Y0064582D01*
X0207437Y0064582D01*
X0207437Y0064582D01*
X0207437Y0064582D01*
X0203037Y0064582D01*
X0203037Y0066405D01*
X0205614Y0068982D01*
X0207437Y0068982D01*
X0207437Y0064583D01*
X0207437Y0064583D01*
X0207437Y0068982D01*
X0209260Y0068982D01*
X0211837Y0066405D01*
X0211837Y0064582D01*
X0211837Y0063439D02*
X0213183Y0063439D01*
X0211584Y0061841D02*
X0210918Y0061841D01*
X0207437Y0061841D02*
X0207437Y0061841D01*
X0207437Y0063439D02*
X0207437Y0063439D01*
X0203956Y0061841D02*
X0200352Y0061841D01*
X0201437Y0062926D02*
X0199094Y0060582D01*
X0195780Y0060582D01*
X0193437Y0062926D01*
X0193437Y0066239D01*
X0195780Y0068582D01*
X0199094Y0068582D01*
X0201437Y0066239D01*
X0201437Y0062926D01*
X0201437Y0063439D02*
X0203037Y0063439D01*
X0194522Y0061841D02*
X0190352Y0061841D01*
X0191437Y0062926D02*
X0189094Y0060582D01*
X0185780Y0060582D01*
X0183437Y0062926D01*
X0183437Y0066239D01*
X0185780Y0068582D01*
X0189094Y0068582D01*
X0191437Y0066239D01*
X0191437Y0062926D01*
X0191437Y0063439D02*
X0193437Y0063439D01*
X0184522Y0061841D02*
X0081787Y0061841D01*
X0081787Y0063439D02*
X0183437Y0063439D01*
X0183437Y0065038D02*
X0081787Y0065038D01*
X0081787Y0066636D02*
X0183834Y0066636D01*
X0191040Y0066636D02*
X0193834Y0066636D01*
X0193437Y0065038D02*
X0191437Y0065038D01*
X0201040Y0066636D02*
X0203268Y0066636D01*
X0203037Y0065038D02*
X0201437Y0065038D01*
X0207437Y0065038D02*
X0207437Y0065038D01*
X0207437Y0066636D02*
X0207437Y0066636D01*
X0211606Y0066636D02*
X0213437Y0066636D01*
X0213909Y0068235D02*
X0210007Y0068235D01*
X0207437Y0068235D02*
X0207437Y0068235D01*
X0204867Y0068235D02*
X0199441Y0068235D01*
X0195433Y0068235D02*
X0189441Y0068235D01*
X0189210Y0069659D02*
X0189965Y0069904D01*
X0190673Y0070265D01*
X0191316Y0070732D01*
X0191878Y0071294D01*
X0192345Y0071937D01*
X0192706Y0072645D01*
X0192951Y0073400D01*
X0193076Y0074185D01*
X0193076Y0074300D01*
X0188310Y0074300D01*
X0188310Y0074865D01*
X0187745Y0074865D01*
X0187745Y0079630D01*
X0187630Y0079630D01*
X0186845Y0079506D01*
X0186090Y0079261D01*
X0185382Y0078900D01*
X0184739Y0078433D01*
X0184177Y0077871D01*
X0183710Y0077228D01*
X0183349Y0076520D01*
X0183104Y0075764D01*
X0182980Y0074980D01*
X0182980Y0074865D01*
X0187745Y0074865D01*
X0187745Y0074300D01*
X0182980Y0074300D01*
X0182980Y0074185D01*
X0183104Y0073400D01*
X0183349Y0072645D01*
X0183710Y0071937D01*
X0184177Y0071294D01*
X0184739Y0070732D01*
X0185382Y0070265D01*
X0186090Y0069904D01*
X0186845Y0069659D01*
X0187630Y0069534D01*
X0187745Y0069534D01*
X0187745Y0074300D01*
X0188310Y0074300D01*
X0188310Y0069534D01*
X0188425Y0069534D01*
X0189210Y0069659D01*
X0189747Y0069833D02*
X0233436Y0069833D01*
X0233436Y0069688D02*
X0237922Y0069688D01*
X0237922Y0074174D01*
X0234999Y0074174D01*
X0234541Y0074051D01*
X0234131Y0073814D01*
X0233796Y0073479D01*
X0233559Y0073069D01*
X0233436Y0072611D01*
X0233436Y0069688D01*
X0233436Y0069516D02*
X0233436Y0066593D01*
X0233559Y0066136D01*
X0233796Y0065725D01*
X0234131Y0065390D01*
X0234541Y0065153D01*
X0234999Y0065030D01*
X0237922Y0065030D01*
X0237922Y0069516D01*
X0238094Y0069516D01*
X0238094Y0069688D01*
X0242580Y0069688D01*
X0242580Y0072611D01*
X0242457Y0073069D01*
X0242220Y0073479D01*
X0241885Y0073814D01*
X0241474Y0074051D01*
X0241016Y0074174D01*
X0238094Y0074174D01*
X0238094Y0069688D01*
X0237922Y0069688D01*
X0237922Y0069516D01*
X0233436Y0069516D01*
X0233436Y0068235D02*
X0226572Y0068235D01*
X0223302Y0068235D02*
X0220965Y0068235D01*
X0221437Y0066636D02*
X0221458Y0066636D01*
X0228416Y0066636D02*
X0233436Y0066636D01*
X0234972Y0065038D02*
X0228937Y0065038D01*
X0237922Y0065038D02*
X0238094Y0065038D01*
X0238094Y0065030D02*
X0241016Y0065030D01*
X0241474Y0065153D01*
X0241885Y0065390D01*
X0242220Y0065725D01*
X0242457Y0066136D01*
X0242580Y0066593D01*
X0242580Y0069516D01*
X0238094Y0069516D01*
X0238094Y0065030D01*
X0238094Y0066636D02*
X0237922Y0066636D01*
X0241044Y0065038D02*
X0250572Y0065038D01*
X0250572Y0066636D02*
X0242580Y0066636D01*
X0242580Y0068235D02*
X0250572Y0068235D01*
X0250572Y0069833D02*
X0242580Y0069833D01*
X0238094Y0069833D02*
X0237922Y0069833D01*
X0237922Y0068235D02*
X0238094Y0068235D01*
X0238094Y0071432D02*
X0237922Y0071432D01*
X0237922Y0073030D02*
X0238094Y0073030D01*
X0242467Y0073030D02*
X0250572Y0073030D01*
X0250572Y0071432D02*
X0242580Y0071432D01*
X0233436Y0071432D02*
X0191978Y0071432D01*
X0192831Y0073030D02*
X0233549Y0073030D01*
X0250572Y0074629D02*
X0210656Y0074629D01*
X0210395Y0074367D02*
X0211215Y0075188D01*
X0211215Y0081103D01*
X0210395Y0081923D01*
X0208283Y0081923D01*
X0208415Y0081944D01*
X0209041Y0082148D01*
X0209627Y0082446D01*
X0210159Y0082833D01*
X0210624Y0083298D01*
X0211010Y0083830D01*
X0211309Y0084416D01*
X0211512Y0085041D01*
X0211615Y0085691D01*
X0211615Y0086019D01*
X0207437Y0086019D01*
X0203259Y0086019D01*
X0203259Y0085691D01*
X0203362Y0085041D01*
X0203565Y0084416D01*
X0203864Y0083830D01*
X0204250Y0083298D01*
X0204715Y0082833D01*
X0205247Y0082446D01*
X0205833Y0082148D01*
X0206459Y0081944D01*
X0206591Y0081923D01*
X0204479Y0081923D01*
X0203659Y0081103D01*
X0203659Y0075188D01*
X0204479Y0074367D01*
X0210395Y0074367D01*
X0211215Y0076227D02*
X0250572Y0076227D01*
X0250572Y0077826D02*
X0211215Y0077826D01*
X0211215Y0079424D02*
X0237095Y0079424D01*
X0236129Y0081023D02*
X0211215Y0081023D01*
X0209868Y0082621D02*
X0236002Y0082621D01*
X0236576Y0084220D02*
X0211209Y0084220D01*
X0205006Y0082621D02*
X0081787Y0082621D01*
X0081787Y0084220D02*
X0203665Y0084220D01*
X0203259Y0085818D02*
X0081787Y0085818D01*
X0081787Y0087417D02*
X0203498Y0087417D01*
X0203565Y0087623D02*
X0203362Y0086998D01*
X0203259Y0086348D01*
X0203259Y0086019D01*
X0207437Y0086019D01*
X0207437Y0086019D01*
X0207437Y0086019D01*
X0211615Y0086019D01*
X0211615Y0086348D01*
X0211512Y0086998D01*
X0211309Y0087623D01*
X0211010Y0088209D01*
X0210624Y0088741D01*
X0210159Y0089206D01*
X0209627Y0089593D01*
X0209041Y0089891D01*
X0208415Y0090094D01*
X0207766Y0090197D01*
X0207437Y0090197D01*
X0207437Y0086020D01*
X0207437Y0090197D01*
X0207108Y0090197D01*
X0206459Y0090094D01*
X0205833Y0089891D01*
X0205247Y0089593D01*
X0204715Y0089206D01*
X0204250Y0088741D01*
X0203864Y0088209D01*
X0203565Y0087623D01*
X0207437Y0087417D02*
X0207437Y0087417D01*
X0207437Y0086020D02*
X0207437Y0086020D01*
X0211376Y0087417D02*
X0240437Y0087417D01*
X0238927Y0085818D02*
X0211615Y0085818D01*
X0210349Y0089015D02*
X0241370Y0089015D01*
X0246851Y0089015D02*
X0250031Y0089015D01*
X0255512Y0089015D02*
X0258160Y0089015D01*
X0258246Y0089135D02*
X0257860Y0088603D01*
X0257561Y0088017D01*
X0257358Y0087391D01*
X0257255Y0086742D01*
X0257255Y0086413D01*
X0261433Y0086413D01*
X0261433Y0086413D01*
X0261433Y0082235D01*
X0261762Y0082235D01*
X0261986Y0082271D01*
X0261986Y0081331D01*
X0262561Y0079942D01*
X0263624Y0078880D01*
X0265012Y0078304D01*
X0266515Y0078304D01*
X0267904Y0078880D01*
X0268967Y0079942D01*
X0269542Y0081331D01*
X0269542Y0082635D01*
X0270846Y0082635D01*
X0272235Y0083210D01*
X0273297Y0084273D01*
X0273872Y0085662D01*
X0273872Y0087165D01*
X0273297Y0088553D01*
X0272235Y0089616D01*
X0270846Y0090191D01*
X0269343Y0090191D01*
X0267954Y0089616D01*
X0266892Y0088553D01*
X0266317Y0087165D01*
X0266317Y0085860D01*
X0265576Y0085860D01*
X0265611Y0086084D01*
X0265611Y0086413D01*
X0261433Y0086413D01*
X0261433Y0086413D01*
X0261433Y0090591D01*
X0261104Y0090591D01*
X0260455Y0090488D01*
X0259829Y0090285D01*
X0259243Y0089986D01*
X0258711Y0089600D01*
X0258246Y0089135D01*
X0261433Y0089015D02*
X0261433Y0089015D01*
X0261433Y0090591D02*
X0261433Y0086413D01*
X0261433Y0086413D01*
X0265611Y0086413D01*
X0265611Y0086742D01*
X0265508Y0087391D01*
X0265305Y0088017D01*
X0265006Y0088603D01*
X0264620Y0089135D01*
X0264155Y0089600D01*
X0263623Y0089986D01*
X0263037Y0090285D01*
X0262411Y0090488D01*
X0261762Y0090591D01*
X0261433Y0090591D01*
X0264707Y0089015D02*
X0267354Y0089015D01*
X0272835Y0089015D02*
X0302312Y0089015D01*
X0302048Y0088906D02*
X0300613Y0087471D01*
X0299837Y0085597D01*
X0299837Y0083568D01*
X0300613Y0081693D01*
X0302048Y0080259D01*
X0303923Y0079482D01*
X0305951Y0079482D01*
X0307826Y0080259D01*
X0309261Y0081693D01*
X0309937Y0083327D01*
X0310288Y0082479D01*
X0304191Y0076382D01*
X0303137Y0075328D01*
X0303137Y0042828D01*
X0293891Y0033582D01*
X0289257Y0033582D01*
X0288437Y0032762D01*
X0288437Y0026402D01*
X0289257Y0025582D01*
X0295617Y0025582D01*
X0296437Y0026402D01*
X0296437Y0031037D01*
X0306737Y0041337D01*
X0306737Y0073837D01*
X0312834Y0079933D01*
X0313923Y0079482D01*
X0315951Y0079482D01*
X0317826Y0080259D01*
X0319261Y0081693D01*
X0319937Y0083327D01*
X0320613Y0081693D01*
X0322048Y0080259D01*
X0323923Y0079482D01*
X0325951Y0079482D01*
X0327826Y0080259D01*
X0329261Y0081693D01*
X0329937Y0083327D01*
X0330613Y0081693D01*
X0332048Y0080259D01*
X0333923Y0079482D01*
X0335951Y0079482D01*
X0337826Y0080259D01*
X0339261Y0081693D01*
X0339937Y0083327D01*
X0340613Y0081693D01*
X0342048Y0080259D01*
X0343077Y0079833D01*
X0338223Y0079833D01*
X0337403Y0079013D01*
X0337403Y0065585D01*
X0338223Y0064765D01*
X0351651Y0064765D01*
X0352471Y0065585D01*
X0352471Y0079013D01*
X0351651Y0079833D01*
X0346797Y0079833D01*
X0347826Y0080259D01*
X0349261Y0081693D01*
X0349937Y0083327D01*
X0350613Y0081693D01*
X0352048Y0080259D01*
X0353923Y0079482D01*
X0355951Y0079482D01*
X0357826Y0080259D01*
X0359261Y0081693D01*
X0359937Y0083327D01*
X0360613Y0081693D01*
X0362048Y0080259D01*
X0363923Y0079482D01*
X0365951Y0079482D01*
X0367826Y0080259D01*
X0369261Y0081693D01*
X0369937Y0083327D01*
X0370613Y0081693D01*
X0372048Y0080259D01*
X0373923Y0079482D01*
X0375951Y0079482D01*
X0377826Y0080259D01*
X0379261Y0081693D01*
X0379937Y0083327D01*
X0380613Y0081693D01*
X0382048Y0080259D01*
X0383923Y0079482D01*
X0385951Y0079482D01*
X0387826Y0080259D01*
X0389261Y0081693D01*
X0389937Y0083327D01*
X0390613Y0081693D01*
X0392048Y0080259D01*
X0393923Y0079482D01*
X0395951Y0079482D01*
X0397826Y0080259D01*
X0399261Y0081693D01*
X0399727Y0082819D01*
X0399840Y0082471D01*
X0400233Y0081700D01*
X0400742Y0080999D01*
X0401354Y0080387D01*
X0402054Y0079878D01*
X0402826Y0079485D01*
X0403649Y0079218D01*
X0404504Y0079082D01*
X0404737Y0079082D01*
X0404737Y0084382D01*
X0405137Y0084382D01*
X0405137Y0079082D01*
X0405370Y0079082D01*
X0406225Y0079218D01*
X0407048Y0079485D01*
X0407820Y0079878D01*
X0408520Y0080387D01*
X0409132Y0080999D01*
X0409641Y0081700D01*
X0410034Y0082471D01*
X0410302Y0083294D01*
X0410437Y0084150D01*
X0410437Y0084382D01*
X0405137Y0084382D01*
X0405137Y0084782D01*
X0410437Y0084782D01*
X0410437Y0085015D01*
X0410302Y0085870D01*
X0410034Y0086694D01*
X0409641Y0087465D01*
X0409132Y0088165D01*
X0408520Y0088778D01*
X0407820Y0089286D01*
X0407048Y0089679D01*
X0406225Y0089947D01*
X0405370Y0090082D01*
X0405137Y0090082D01*
X0405137Y0084782D01*
X0404737Y0084782D01*
X0404737Y0090082D01*
X0404504Y0090082D01*
X0403649Y0089947D01*
X0402826Y0089679D01*
X0402054Y0089286D01*
X0401354Y0088778D01*
X0400742Y0088165D01*
X0400233Y0087465D01*
X0399840Y0086694D01*
X0399727Y0086346D01*
X0399261Y0087471D01*
X0397826Y0088906D01*
X0395951Y0089682D01*
X0393923Y0089682D01*
X0392048Y0088906D01*
X0390613Y0087471D01*
X0389937Y0085838D01*
X0389261Y0087471D01*
X0387826Y0088906D01*
X0385951Y0089682D01*
X0383923Y0089682D01*
X0382048Y0088906D01*
X0380613Y0087471D01*
X0379937Y0085838D01*
X0379261Y0087471D01*
X0377826Y0088906D01*
X0375951Y0089682D01*
X0373923Y0089682D01*
X0372048Y0088906D01*
X0370613Y0087471D01*
X0369937Y0085838D01*
X0369261Y0087471D01*
X0367826Y0088906D01*
X0365951Y0089682D01*
X0363923Y0089682D01*
X0362048Y0088906D01*
X0360613Y0087471D01*
X0359937Y0085838D01*
X0359261Y0087471D01*
X0357826Y0088906D01*
X0355951Y0089682D01*
X0353923Y0089682D01*
X0352048Y0088906D01*
X0350613Y0087471D01*
X0349937Y0085838D01*
X0349261Y0087471D01*
X0347826Y0088906D01*
X0345951Y0089682D01*
X0343923Y0089682D01*
X0342048Y0088906D01*
X0340613Y0087471D01*
X0339937Y0085838D01*
X0339261Y0087471D01*
X0337826Y0088906D01*
X0335951Y0089682D01*
X0333923Y0089682D01*
X0332048Y0088906D01*
X0330613Y0087471D01*
X0329937Y0085838D01*
X0329261Y0087471D01*
X0327826Y0088906D01*
X0325951Y0089682D01*
X0323923Y0089682D01*
X0322048Y0088906D01*
X0320613Y0087471D01*
X0319937Y0085838D01*
X0319261Y0087471D01*
X0317826Y0088906D01*
X0315951Y0089682D01*
X0313923Y0089682D01*
X0312048Y0088906D01*
X0310613Y0087471D01*
X0309937Y0085838D01*
X0309261Y0087471D01*
X0307826Y0088906D01*
X0305951Y0089682D01*
X0303923Y0089682D01*
X0302048Y0088906D01*
X0307562Y0089015D02*
X0312312Y0089015D01*
X0317562Y0089015D02*
X0322312Y0089015D01*
X0327562Y0089015D02*
X0332312Y0089015D01*
X0337562Y0089015D02*
X0342312Y0089015D01*
X0347562Y0089015D02*
X0352312Y0089015D01*
X0357562Y0089015D02*
X0362312Y0089015D01*
X0367562Y0089015D02*
X0372312Y0089015D01*
X0377562Y0089015D02*
X0382312Y0089015D01*
X0387562Y0089015D02*
X0392312Y0089015D01*
X0397562Y0089015D02*
X0401681Y0089015D01*
X0404737Y0089015D02*
X0405137Y0089015D01*
X0408193Y0089015D02*
X0491213Y0089015D01*
X0492280Y0090082D02*
X0489937Y0087739D01*
X0489937Y0084426D01*
X0492280Y0082082D01*
X0495594Y0082082D01*
X0497937Y0084426D01*
X0497937Y0087739D01*
X0495594Y0090082D01*
X0492280Y0090082D01*
X0496661Y0089015D02*
X0499347Y0089015D01*
X0499347Y0090614D02*
X0081787Y0090614D01*
X0081787Y0089015D02*
X0204525Y0089015D01*
X0207437Y0089015D02*
X0207437Y0089015D01*
X0243557Y0082621D02*
X0244663Y0082621D01*
X0244791Y0081023D02*
X0243430Y0081023D01*
X0242464Y0079424D02*
X0245756Y0079424D01*
X0254972Y0077826D02*
X0255302Y0077826D01*
X0255302Y0076227D02*
X0254972Y0076227D01*
X0254972Y0074629D02*
X0255302Y0074629D01*
X0258902Y0074629D02*
X0281168Y0074629D01*
X0280537Y0075260D02*
X0283114Y0072682D01*
X0284937Y0072682D01*
X0284937Y0077082D01*
X0284937Y0072682D01*
X0286760Y0072682D01*
X0289337Y0075260D01*
X0289337Y0077082D01*
X0284937Y0077082D01*
X0284937Y0077082D01*
X0280537Y0077082D01*
X0280537Y0075260D01*
X0280537Y0076227D02*
X0258902Y0076227D01*
X0258902Y0077826D02*
X0280537Y0077826D01*
X0280537Y0077082D02*
X0284937Y0077082D01*
X0284937Y0077082D01*
X0284937Y0077082D01*
X0289337Y0077082D01*
X0289337Y0078905D01*
X0286760Y0081482D01*
X0284937Y0081482D01*
X0283114Y0081482D01*
X0280537Y0078905D01*
X0280537Y0077082D01*
X0284937Y0077083D02*
X0284937Y0081482D01*
X0284937Y0077083D01*
X0284937Y0077083D01*
X0284937Y0077826D02*
X0284937Y0077826D01*
X0284937Y0076227D02*
X0284937Y0076227D01*
X0284937Y0074629D02*
X0284937Y0074629D01*
X0288706Y0074629D02*
X0291168Y0074629D01*
X0290537Y0075260D02*
X0293114Y0072682D01*
X0294937Y0072682D01*
X0294937Y0077082D01*
X0294937Y0072682D01*
X0296760Y0072682D01*
X0299337Y0075260D01*
X0299337Y0077082D01*
X0294937Y0077082D01*
X0294937Y0077082D01*
X0290537Y0077082D01*
X0290537Y0075260D01*
X0290537Y0076227D02*
X0289337Y0076227D01*
X0290537Y0077082D02*
X0294937Y0077082D01*
X0294937Y0077082D01*
X0294937Y0077082D01*
X0299337Y0077082D01*
X0299337Y0078905D01*
X0296760Y0081482D01*
X0294937Y0081482D01*
X0293114Y0081482D01*
X0290537Y0078905D01*
X0290537Y0077082D01*
X0290537Y0077826D02*
X0289337Y0077826D01*
X0294937Y0077826D02*
X0294937Y0077826D01*
X0294937Y0077083D02*
X0294937Y0081482D01*
X0294937Y0077083D01*
X0294937Y0077083D01*
X0294937Y0076227D02*
X0294937Y0076227D01*
X0294937Y0074629D02*
X0294937Y0074629D01*
X0298706Y0074629D02*
X0303137Y0074629D01*
X0304036Y0076227D02*
X0299337Y0076227D01*
X0299337Y0077826D02*
X0305635Y0077826D01*
X0309127Y0076227D02*
X0337403Y0076227D01*
X0337403Y0074629D02*
X0307529Y0074629D01*
X0306737Y0073030D02*
X0337403Y0073030D01*
X0337403Y0071432D02*
X0306737Y0071432D01*
X0303137Y0071432D02*
X0276438Y0071432D01*
X0276438Y0072611D02*
X0276315Y0073069D01*
X0276078Y0073479D01*
X0275743Y0073814D01*
X0275333Y0074051D01*
X0274875Y0074174D01*
X0271952Y0074174D01*
X0271952Y0069688D01*
X0271780Y0069688D01*
X0271780Y0069516D01*
X0267294Y0069516D01*
X0267294Y0066593D01*
X0267417Y0066136D01*
X0267654Y0065725D01*
X0267989Y0065390D01*
X0268400Y0065153D01*
X0268858Y0065030D01*
X0271780Y0065030D01*
X0271780Y0069516D01*
X0271952Y0069516D01*
X0271952Y0065030D01*
X0274875Y0065030D01*
X0275333Y0065153D01*
X0275743Y0065390D01*
X0276078Y0065725D01*
X0276315Y0066136D01*
X0276438Y0066593D01*
X0276438Y0069516D01*
X0271952Y0069516D01*
X0271952Y0069688D01*
X0276438Y0069688D01*
X0276438Y0072611D01*
X0276325Y0073030D02*
X0282767Y0073030D01*
X0284937Y0073030D02*
X0284937Y0073030D01*
X0287107Y0073030D02*
X0292767Y0073030D01*
X0294937Y0073030D02*
X0294937Y0073030D01*
X0297107Y0073030D02*
X0303137Y0073030D01*
X0303137Y0069833D02*
X0276438Y0069833D01*
X0276438Y0068235D02*
X0303137Y0068235D01*
X0306737Y0068235D02*
X0312351Y0068235D01*
X0312401Y0068420D02*
X0312278Y0067962D01*
X0312278Y0064708D01*
X0317095Y0064708D01*
X0317095Y0069525D01*
X0313841Y0069525D01*
X0313383Y0069402D01*
X0312973Y0069165D01*
X0312638Y0068830D01*
X0312401Y0068420D01*
X0317095Y0068235D02*
X0317661Y0068235D01*
X0317661Y0069525D02*
X0317661Y0064708D01*
X0317095Y0064708D01*
X0317095Y0064142D01*
X0312278Y0064142D01*
X0312278Y0060888D01*
X0312401Y0060430D01*
X0312638Y0060020D01*
X0312973Y0059685D01*
X0313383Y0059448D01*
X0313841Y0059325D01*
X0317095Y0059325D01*
X0317095Y0064142D01*
X0317661Y0064142D01*
X0317661Y0064708D01*
X0322478Y0064708D01*
X0322478Y0067962D01*
X0322355Y0068420D01*
X0322118Y0068830D01*
X0321783Y0069165D01*
X0321373Y0069402D01*
X0320915Y0069525D01*
X0317661Y0069525D01*
X0322405Y0068235D02*
X0337403Y0068235D01*
X0337403Y0069833D02*
X0306737Y0069833D01*
X0306737Y0066636D02*
X0312278Y0066636D01*
X0312278Y0065038D02*
X0306737Y0065038D01*
X0303137Y0065038D02*
X0274902Y0065038D01*
X0276438Y0066636D02*
X0303137Y0066636D01*
X0303137Y0063439D02*
X0262332Y0063439D01*
X0261737Y0061841D02*
X0303137Y0061841D01*
X0306737Y0061841D02*
X0312278Y0061841D01*
X0312278Y0063439D02*
X0306737Y0063439D01*
X0317095Y0063439D02*
X0317661Y0063439D01*
X0317661Y0064142D02*
X0317661Y0059325D01*
X0320915Y0059325D01*
X0321373Y0059448D01*
X0321783Y0059685D01*
X0322118Y0060020D01*
X0322355Y0060430D01*
X0322478Y0060888D01*
X0322478Y0064142D01*
X0317661Y0064142D01*
X0317661Y0065038D02*
X0317095Y0065038D01*
X0317095Y0066636D02*
X0317661Y0066636D01*
X0322478Y0066636D02*
X0337403Y0066636D01*
X0337951Y0065038D02*
X0322478Y0065038D01*
X0322478Y0063439D02*
X0380637Y0063439D01*
X0379038Y0061841D02*
X0322478Y0061841D01*
X0317661Y0061841D02*
X0317095Y0061841D01*
X0317095Y0060242D02*
X0317661Y0060242D01*
X0319963Y0058644D02*
X0361453Y0058644D01*
X0363051Y0060242D02*
X0322247Y0060242D01*
X0321562Y0057045D02*
X0333958Y0057045D01*
X0335916Y0057045D02*
X0359854Y0057045D01*
X0364945Y0057045D02*
X0379317Y0057045D01*
X0385557Y0057045D02*
X0389317Y0057045D01*
X0388437Y0058644D02*
X0386437Y0058644D01*
X0386437Y0060242D02*
X0388437Y0060242D01*
X0392437Y0059582D02*
X0392437Y0054582D01*
X0364937Y0027082D01*
X0364937Y0022082D01*
X0370037Y0021878D02*
X0387408Y0021878D01*
X0389375Y0020279D02*
X0369710Y0020279D01*
X0369880Y0023476D02*
X0386041Y0023476D01*
X0385039Y0025075D02*
X0369157Y0025075D01*
X0360717Y0025075D02*
X0359157Y0025075D01*
X0359880Y0023476D02*
X0359994Y0023476D01*
X0350717Y0025075D02*
X0349157Y0025075D01*
X0349880Y0023476D02*
X0349994Y0023476D01*
X0340717Y0025075D02*
X0339157Y0025075D01*
X0339880Y0023476D02*
X0339994Y0023476D01*
X0334937Y0022082D02*
X0334937Y0054582D01*
X0332427Y0055447D02*
X0322078Y0055447D01*
X0322078Y0053848D02*
X0332373Y0053848D01*
X0337501Y0053848D02*
X0356657Y0053848D01*
X0358256Y0055447D02*
X0337447Y0055447D01*
X0337137Y0052250D02*
X0355059Y0052250D01*
X0352511Y0050651D02*
X0337137Y0050651D01*
X0332737Y0050651D02*
X0323914Y0050651D01*
X0322315Y0052250D02*
X0332737Y0052250D01*
X0332737Y0049053D02*
X0324237Y0049053D01*
X0324237Y0047454D02*
X0332737Y0047454D01*
X0337137Y0047454D02*
X0353137Y0047454D01*
X0352288Y0049053D02*
X0337137Y0049053D01*
X0337137Y0045856D02*
X0353137Y0045856D01*
X0353137Y0044257D02*
X0351793Y0044257D01*
X0351651Y0044400D02*
X0338223Y0044400D01*
X0337403Y0043580D01*
X0337403Y0030152D01*
X0338223Y0029332D01*
X0351651Y0029332D01*
X0352471Y0030152D01*
X0352471Y0043580D01*
X0351651Y0044400D01*
X0356737Y0044257D02*
X0368955Y0044257D01*
X0370553Y0045856D02*
X0356737Y0045856D01*
X0356737Y0047454D02*
X0382197Y0047454D01*
X0383796Y0049053D02*
X0357586Y0049053D01*
X0358551Y0050651D02*
X0385394Y0050651D01*
X0386993Y0052250D02*
X0360150Y0052250D01*
X0361748Y0053848D02*
X0388592Y0053848D01*
X0390190Y0055447D02*
X0363347Y0055447D01*
X0391617Y0050651D02*
X0424662Y0050651D01*
X0425431Y0049882D02*
X0429325Y0049882D01*
X0432078Y0052636D01*
X0432078Y0056529D01*
X0429325Y0059282D01*
X0425431Y0059282D01*
X0422678Y0056529D01*
X0422678Y0052636D01*
X0425431Y0049882D01*
X0425431Y0049440D02*
X0422678Y0046687D01*
X0422678Y0042793D01*
X0425431Y0040040D01*
X0429325Y0040040D01*
X0432078Y0042793D01*
X0432078Y0046687D01*
X0429325Y0049440D01*
X0425431Y0049440D01*
X0425044Y0049053D02*
X0390018Y0049053D01*
X0388420Y0047454D02*
X0423445Y0047454D01*
X0429712Y0049053D02*
X0489937Y0049053D01*
X0489937Y0047902D02*
X0490757Y0047082D01*
X0497117Y0047082D01*
X0497937Y0047902D01*
X0497937Y0054262D01*
X0497367Y0054832D01*
X0497937Y0055402D01*
X0497937Y0061762D01*
X0497117Y0062582D01*
X0490757Y0062582D01*
X0489937Y0061762D01*
X0489937Y0055402D01*
X0490507Y0054832D01*
X0489937Y0054262D01*
X0489937Y0047902D01*
X0490385Y0047454D02*
X0431310Y0047454D01*
X0432078Y0045856D02*
X0499347Y0045856D01*
X0499347Y0044257D02*
X0496419Y0044257D01*
X0495594Y0045082D02*
X0492280Y0045082D01*
X0489937Y0042739D01*
X0489937Y0039426D01*
X0491780Y0037582D01*
X0490757Y0037582D01*
X0489937Y0036762D01*
X0489937Y0030402D01*
X0490757Y0029582D01*
X0497117Y0029582D01*
X0497937Y0030402D01*
X0497937Y0036762D01*
X0497117Y0037582D01*
X0496094Y0037582D01*
X0497937Y0039426D01*
X0497937Y0042739D01*
X0495594Y0045082D01*
X0491455Y0044257D02*
X0461793Y0044257D01*
X0461651Y0044400D02*
X0448223Y0044400D01*
X0447403Y0043580D01*
X0447403Y0030152D01*
X0448223Y0029332D01*
X0461651Y0029332D01*
X0462471Y0030152D01*
X0462471Y0043580D01*
X0461651Y0044400D01*
X0462471Y0042659D02*
X0479291Y0042659D01*
X0478037Y0041405D02*
X0478037Y0039582D01*
X0478037Y0037760D01*
X0480614Y0035182D01*
X0482437Y0035182D01*
X0482437Y0039582D01*
X0482437Y0035182D01*
X0484260Y0035182D01*
X0486837Y0037760D01*
X0486837Y0039582D01*
X0482437Y0039582D01*
X0482437Y0039582D01*
X0478037Y0039582D01*
X0482437Y0039582D01*
X0482437Y0039582D01*
X0482437Y0039582D01*
X0486837Y0039582D01*
X0486837Y0041405D01*
X0484260Y0043982D01*
X0482437Y0043982D01*
X0480614Y0043982D01*
X0478037Y0041405D01*
X0478037Y0041060D02*
X0462471Y0041060D01*
X0462471Y0039462D02*
X0478037Y0039462D01*
X0478037Y0037863D02*
X0462471Y0037863D01*
X0462471Y0036265D02*
X0479532Y0036265D01*
X0482437Y0036265D02*
X0482437Y0036265D01*
X0482437Y0037863D02*
X0482437Y0037863D01*
X0482437Y0039462D02*
X0482437Y0039462D01*
X0482437Y0039583D02*
X0482437Y0043982D01*
X0482437Y0039583D01*
X0482437Y0039583D01*
X0482437Y0041060D02*
X0482437Y0041060D01*
X0482437Y0042659D02*
X0482437Y0042659D01*
X0485583Y0042659D02*
X0489937Y0042659D01*
X0489937Y0041060D02*
X0486837Y0041060D01*
X0486837Y0039462D02*
X0489937Y0039462D01*
X0491500Y0037863D02*
X0486837Y0037863D01*
X0485342Y0036265D02*
X0489937Y0036265D01*
X0496374Y0037863D02*
X0499347Y0037863D01*
X0499347Y0036265D02*
X0497937Y0036265D01*
X0497937Y0034666D02*
X0499347Y0034666D01*
X0499347Y0033068D02*
X0497937Y0033068D01*
X0489937Y0033068D02*
X0462471Y0033068D01*
X0462471Y0034666D02*
X0489937Y0034666D01*
X0489937Y0031469D02*
X0462471Y0031469D01*
X0462189Y0029870D02*
X0490469Y0029870D01*
X0497405Y0029870D02*
X0499347Y0029870D01*
X0499347Y0031469D02*
X0497937Y0031469D01*
X0499347Y0028272D02*
X0474404Y0028272D01*
X0474094Y0028582D02*
X0470780Y0028582D01*
X0468437Y0026239D01*
X0468437Y0022926D01*
X0470780Y0020582D01*
X0474094Y0020582D01*
X0476437Y0022926D01*
X0476437Y0026239D01*
X0474094Y0028582D01*
X0470470Y0028272D02*
X0444970Y0028272D01*
X0444260Y0028982D02*
X0442437Y0028982D01*
X0440614Y0028982D01*
X0438037Y0026405D01*
X0438037Y0024582D01*
X0438037Y0022760D01*
X0440614Y0020182D01*
X0442437Y0020182D01*
X0444260Y0020182D01*
X0446837Y0022760D01*
X0446837Y0024582D01*
X0442437Y0024582D01*
X0442437Y0020182D01*
X0442437Y0024582D01*
X0442437Y0024582D01*
X0438037Y0024582D01*
X0442437Y0024582D01*
X0442437Y0024582D01*
X0442437Y0024582D01*
X0446837Y0024582D01*
X0446837Y0026405D01*
X0444260Y0028982D01*
X0442437Y0028982D02*
X0442437Y0024583D01*
X0442437Y0028982D01*
X0442437Y0028272D02*
X0442437Y0028272D01*
X0442437Y0026673D02*
X0442437Y0026673D01*
X0439904Y0028272D02*
X0410853Y0028272D01*
X0410467Y0026673D02*
X0438306Y0026673D01*
X0446568Y0026673D02*
X0468871Y0026673D01*
X0476003Y0026673D02*
X0491371Y0026673D01*
X0492280Y0027582D02*
X0489937Y0025239D01*
X0489937Y0021926D01*
X0492280Y0019582D01*
X0495594Y0019582D01*
X0497937Y0021926D01*
X0497937Y0025239D01*
X0495594Y0027582D01*
X0492280Y0027582D01*
X0496503Y0026673D02*
X0499347Y0026673D01*
X0499347Y0025075D02*
X0497937Y0025075D01*
X0497937Y0023476D02*
X0499347Y0023476D01*
X0499347Y0021878D02*
X0497889Y0021878D01*
X0499347Y0020279D02*
X0496291Y0020279D01*
X0491583Y0020279D02*
X0444357Y0020279D01*
X0442437Y0020279D02*
X0442437Y0020279D01*
X0442437Y0021878D02*
X0442437Y0021878D01*
X0440517Y0020279D02*
X0405499Y0020279D01*
X0407466Y0021878D02*
X0438919Y0021878D01*
X0445955Y0021878D02*
X0469485Y0021878D01*
X0475389Y0021878D02*
X0489985Y0021878D01*
X0489937Y0023476D02*
X0476437Y0023476D01*
X0476437Y0025075D02*
X0489937Y0025075D01*
X0468437Y0025075D02*
X0446837Y0025075D01*
X0446837Y0023476D02*
X0468437Y0023476D01*
X0442437Y0023476D02*
X0442437Y0023476D01*
X0442437Y0024583D02*
X0442437Y0024583D01*
X0442437Y0025075D02*
X0442437Y0025075D01*
X0438037Y0025075D02*
X0409835Y0025075D01*
X0408833Y0023476D02*
X0438037Y0023476D01*
X0447685Y0029870D02*
X0410987Y0029870D01*
X0410987Y0031469D02*
X0447403Y0031469D01*
X0447403Y0033068D02*
X0411014Y0033068D01*
X0410899Y0034666D02*
X0447403Y0034666D01*
X0447403Y0036265D02*
X0410621Y0036265D01*
X0410116Y0037863D02*
X0447403Y0037863D01*
X0447403Y0039462D02*
X0409350Y0039462D01*
X0408266Y0041060D02*
X0424411Y0041060D01*
X0422812Y0042659D02*
X0406756Y0042659D01*
X0404337Y0044257D02*
X0422678Y0044257D01*
X0422678Y0045856D02*
X0386821Y0045856D01*
X0385223Y0044257D02*
X0390106Y0044257D01*
X0387736Y0042659D02*
X0383624Y0042659D01*
X0382026Y0041060D02*
X0386320Y0041060D01*
X0377402Y0042659D02*
X0376437Y0042659D01*
X0375919Y0044257D02*
X0379000Y0044257D01*
X0380599Y0045856D02*
X0374321Y0045856D01*
X0368437Y0042659D02*
X0356737Y0042659D01*
X0356737Y0041060D02*
X0368437Y0041060D01*
X0369401Y0039462D02*
X0356737Y0039462D01*
X0356737Y0037863D02*
X0372606Y0037863D01*
X0371008Y0036265D02*
X0356737Y0036265D01*
X0353137Y0036265D02*
X0352471Y0036265D01*
X0352471Y0037863D02*
X0353137Y0037863D01*
X0353137Y0039462D02*
X0352471Y0039462D01*
X0352471Y0041060D02*
X0353137Y0041060D01*
X0353137Y0042659D02*
X0352471Y0042659D01*
X0338081Y0044257D02*
X0337137Y0044257D01*
X0332737Y0044257D02*
X0324237Y0044257D01*
X0324237Y0045856D02*
X0332737Y0045856D01*
X0332737Y0042659D02*
X0324237Y0042659D01*
X0323960Y0041060D02*
X0332737Y0041060D01*
X0337137Y0041060D02*
X0337403Y0041060D01*
X0337403Y0042659D02*
X0337137Y0042659D01*
X0337137Y0039462D02*
X0337403Y0039462D01*
X0337403Y0037863D02*
X0337137Y0037863D01*
X0337137Y0036265D02*
X0337403Y0036265D01*
X0332737Y0036265D02*
X0327467Y0036265D01*
X0327482Y0037863D02*
X0332737Y0037863D01*
X0332737Y0039462D02*
X0326118Y0039462D01*
X0323756Y0039462D02*
X0322362Y0039462D01*
X0322392Y0037863D02*
X0320763Y0037863D01*
X0319165Y0036265D02*
X0322407Y0036265D01*
X0315672Y0037863D02*
X0303263Y0037863D01*
X0301665Y0036265D02*
X0314074Y0036265D01*
X0313137Y0034666D02*
X0300066Y0034666D01*
X0298468Y0033068D02*
X0313137Y0033068D01*
X0316737Y0033068D02*
X0323137Y0033068D01*
X0323137Y0034666D02*
X0317566Y0034666D01*
X0326737Y0034666D02*
X0332737Y0034666D01*
X0332737Y0033068D02*
X0326737Y0033068D01*
X0337137Y0033068D02*
X0337403Y0033068D01*
X0337403Y0034666D02*
X0337137Y0034666D01*
X0337137Y0031469D02*
X0337403Y0031469D01*
X0337137Y0029870D02*
X0337685Y0029870D01*
X0332737Y0029870D02*
X0326737Y0029870D01*
X0326737Y0031469D02*
X0332737Y0031469D01*
X0323137Y0031469D02*
X0316737Y0031469D01*
X0316737Y0029870D02*
X0323137Y0029870D01*
X0323137Y0028272D02*
X0316737Y0028272D01*
X0317180Y0026673D02*
X0322694Y0026673D01*
X0326737Y0028272D02*
X0332737Y0028272D01*
X0332694Y0026673D02*
X0327180Y0026673D01*
X0337180Y0026673D02*
X0342694Y0026673D01*
X0347180Y0026673D02*
X0352694Y0026673D01*
X0353137Y0028272D02*
X0337137Y0028272D01*
X0330717Y0025075D02*
X0329157Y0025075D01*
X0329880Y0023476D02*
X0329994Y0023476D01*
X0320717Y0025075D02*
X0319157Y0025075D01*
X0319880Y0023476D02*
X0319994Y0023476D01*
X0310717Y0025075D02*
X0309157Y0025075D01*
X0309880Y0023476D02*
X0309994Y0023476D01*
X0312694Y0026673D02*
X0307180Y0026673D01*
X0302694Y0026673D02*
X0296437Y0026673D01*
X0296437Y0028272D02*
X0313137Y0028272D01*
X0313137Y0029870D02*
X0296437Y0029870D01*
X0296869Y0031469D02*
X0313137Y0031469D01*
X0294975Y0034666D02*
X0284237Y0034666D01*
X0284609Y0033068D02*
X0288742Y0033068D01*
X0288437Y0031469D02*
X0286207Y0031469D01*
X0286437Y0029870D02*
X0288437Y0029870D01*
X0288437Y0028272D02*
X0286437Y0028272D01*
X0285185Y0026673D02*
X0288437Y0026673D01*
X0278437Y0029870D02*
X0269148Y0029870D01*
X0269148Y0031469D02*
X0278667Y0031469D01*
X0280265Y0033068D02*
X0269148Y0033068D01*
X0269148Y0034666D02*
X0280637Y0034666D01*
X0280637Y0036265D02*
X0268672Y0036265D01*
X0266737Y0037863D02*
X0280637Y0037863D01*
X0280637Y0039462D02*
X0266737Y0039462D01*
X0263137Y0037863D02*
X0259982Y0037863D01*
X0259967Y0036265D02*
X0260887Y0036265D01*
X0260411Y0034666D02*
X0258528Y0034666D01*
X0256346Y0034666D02*
X0249463Y0034666D01*
X0249463Y0033068D02*
X0260411Y0033068D01*
X0284237Y0036265D02*
X0296574Y0036265D01*
X0298172Y0037863D02*
X0284237Y0037863D01*
X0284237Y0039462D02*
X0299771Y0039462D01*
X0304862Y0039462D02*
X0317271Y0039462D01*
X0314411Y0041060D02*
X0306460Y0041060D01*
X0306737Y0042659D02*
X0312812Y0042659D01*
X0312678Y0044257D02*
X0306737Y0044257D01*
X0306737Y0045856D02*
X0312678Y0045856D01*
X0313445Y0047454D02*
X0306737Y0047454D01*
X0306737Y0049053D02*
X0315044Y0049053D01*
X0319712Y0049053D02*
X0320421Y0049053D01*
X0314662Y0050651D02*
X0306737Y0050651D01*
X0306737Y0052250D02*
X0313064Y0052250D01*
X0312678Y0053848D02*
X0306737Y0053848D01*
X0306737Y0055447D02*
X0312678Y0055447D01*
X0313194Y0057045D02*
X0306737Y0057045D01*
X0306737Y0058644D02*
X0314792Y0058644D01*
X0312509Y0060242D02*
X0306737Y0060242D01*
X0303137Y0060242D02*
X0261737Y0060242D01*
X0261737Y0058644D02*
X0303137Y0058644D01*
X0303137Y0057045D02*
X0261737Y0057045D01*
X0255302Y0057045D02*
X0253326Y0057045D01*
X0254925Y0058644D02*
X0255302Y0058644D01*
X0255302Y0060242D02*
X0254972Y0060242D01*
X0252772Y0059602D02*
X0245094Y0051925D01*
X0240726Y0052250D02*
X0209637Y0052250D01*
X0209637Y0050651D02*
X0240726Y0050651D01*
X0240726Y0049053D02*
X0209637Y0049053D01*
X0209637Y0047454D02*
X0255302Y0047454D01*
X0255302Y0049053D02*
X0249463Y0049053D01*
X0249463Y0050651D02*
X0255302Y0050651D01*
X0255302Y0052250D02*
X0249463Y0052250D01*
X0250129Y0053848D02*
X0255302Y0053848D01*
X0255302Y0055447D02*
X0251728Y0055447D01*
X0247103Y0057045D02*
X0213011Y0057045D01*
X0214610Y0058644D02*
X0248702Y0058644D01*
X0250301Y0060242D02*
X0216208Y0060242D01*
X0221437Y0061841D02*
X0222022Y0061841D01*
X0227852Y0061841D02*
X0250572Y0061841D01*
X0250572Y0063439D02*
X0228793Y0063439D01*
X0209986Y0060242D02*
X0209319Y0060242D01*
X0208387Y0058644D02*
X0081787Y0058644D01*
X0081787Y0060242D02*
X0205555Y0060242D01*
X0207437Y0060242D02*
X0207437Y0060242D01*
X0206789Y0057045D02*
X0081787Y0057045D01*
X0081787Y0055447D02*
X0205237Y0055447D01*
X0205237Y0053848D02*
X0081787Y0053848D01*
X0081787Y0052250D02*
X0205237Y0052250D01*
X0205237Y0050651D02*
X0081787Y0050651D01*
X0081787Y0049053D02*
X0205237Y0049053D01*
X0205237Y0047454D02*
X0190788Y0047454D01*
X0191837Y0046405D02*
X0189260Y0048982D01*
X0187437Y0048982D01*
X0185614Y0048982D01*
X0183037Y0046405D01*
X0183037Y0044582D01*
X0187437Y0044582D01*
X0191837Y0044582D01*
X0191837Y0046405D01*
X0191837Y0045856D02*
X0205237Y0045856D01*
X0205237Y0044257D02*
X0191837Y0044257D01*
X0187437Y0044257D02*
X0187437Y0044257D01*
X0187437Y0044583D02*
X0187437Y0048982D01*
X0187437Y0044583D01*
X0187437Y0044583D01*
X0187437Y0045856D02*
X0187437Y0045856D01*
X0183037Y0045856D02*
X0081787Y0045856D01*
X0081787Y0044257D02*
X0183037Y0044257D01*
X0183138Y0042659D02*
X0081787Y0042659D01*
X0081787Y0041060D02*
X0184737Y0041060D01*
X0187437Y0041060D02*
X0187437Y0041060D01*
X0187437Y0042659D02*
X0187437Y0042659D01*
X0190137Y0041060D02*
X0205237Y0041060D01*
X0205237Y0042659D02*
X0191736Y0042659D01*
X0209637Y0042659D02*
X0255302Y0042659D01*
X0255302Y0041060D02*
X0209637Y0041060D01*
X0209637Y0039462D02*
X0255302Y0039462D01*
X0258902Y0039462D02*
X0262512Y0039462D01*
X0260914Y0041060D02*
X0258902Y0041060D01*
X0258902Y0042659D02*
X0259315Y0042659D01*
X0264406Y0042659D02*
X0280637Y0042659D01*
X0280637Y0041060D02*
X0266005Y0041060D01*
X0262808Y0044257D02*
X0280637Y0044257D01*
X0280937Y0045856D02*
X0261737Y0045856D01*
X0255302Y0045856D02*
X0209637Y0045856D01*
X0209637Y0044257D02*
X0255302Y0044257D01*
X0261737Y0047454D02*
X0280937Y0047454D01*
X0281250Y0049053D02*
X0269148Y0049053D01*
X0269148Y0050651D02*
X0282849Y0050651D01*
X0287025Y0050651D02*
X0292849Y0050651D01*
X0293280Y0051082D02*
X0290937Y0048739D01*
X0290937Y0045426D01*
X0293280Y0043082D01*
X0296594Y0043082D01*
X0298937Y0045426D01*
X0298937Y0048739D01*
X0296594Y0051082D01*
X0293280Y0051082D01*
X0297025Y0050651D02*
X0303137Y0050651D01*
X0303137Y0052250D02*
X0269148Y0052250D01*
X0269148Y0053848D02*
X0303137Y0053848D01*
X0303137Y0055447D02*
X0269148Y0055447D01*
X0252772Y0059602D02*
X0252772Y0086413D01*
X0256445Y0087417D02*
X0257366Y0087417D01*
X0261433Y0087417D02*
X0261433Y0087417D01*
X0261433Y0085818D02*
X0261433Y0085818D01*
X0265500Y0087417D02*
X0266421Y0087417D01*
X0273768Y0087417D02*
X0300591Y0087417D01*
X0299929Y0085818D02*
X0273872Y0085818D01*
X0273244Y0084220D02*
X0299837Y0084220D01*
X0300229Y0082621D02*
X0269542Y0082621D01*
X0261433Y0082621D02*
X0261433Y0082621D01*
X0261433Y0084220D02*
X0261433Y0084220D01*
X0260753Y0081023D02*
X0262113Y0081023D01*
X0263079Y0079424D02*
X0259787Y0079424D01*
X0268449Y0079424D02*
X0281056Y0079424D01*
X0282655Y0081023D02*
X0269414Y0081023D01*
X0284937Y0081023D02*
X0284937Y0081023D01*
X0284937Y0079424D02*
X0284937Y0079424D01*
X0287219Y0081023D02*
X0292655Y0081023D01*
X0291056Y0079424D02*
X0288818Y0079424D01*
X0294937Y0079424D02*
X0294937Y0079424D01*
X0294937Y0081023D02*
X0294937Y0081023D01*
X0297219Y0081023D02*
X0301284Y0081023D01*
X0298818Y0079424D02*
X0307233Y0079424D01*
X0308590Y0081023D02*
X0308832Y0081023D01*
X0312325Y0079424D02*
X0337815Y0079424D01*
X0338590Y0081023D02*
X0341284Y0081023D01*
X0348590Y0081023D02*
X0351284Y0081023D01*
X0352059Y0079424D02*
X0403014Y0079424D01*
X0404737Y0079424D02*
X0405137Y0079424D01*
X0405137Y0081023D02*
X0404737Y0081023D01*
X0406860Y0079424D02*
X0447815Y0079424D01*
X0448223Y0079833D02*
X0447403Y0079013D01*
X0447403Y0065585D01*
X0448223Y0064765D01*
X0461651Y0064765D01*
X0462471Y0065585D01*
X0462471Y0079013D01*
X0461651Y0079833D01*
X0448223Y0079833D01*
X0448114Y0080182D02*
X0449937Y0080182D01*
X0451760Y0080182D01*
X0454337Y0082760D01*
X0454337Y0084582D01*
X0449937Y0084582D01*
X0449937Y0080182D01*
X0449937Y0084582D01*
X0449937Y0084582D01*
X0445537Y0084582D01*
X0445537Y0082760D01*
X0448114Y0080182D01*
X0447274Y0081023D02*
X0409149Y0081023D01*
X0400725Y0081023D02*
X0398590Y0081023D01*
X0399645Y0082621D02*
X0399791Y0082621D01*
X0404737Y0082621D02*
X0405137Y0082621D01*
X0405137Y0084220D02*
X0404737Y0084220D01*
X0410083Y0082621D02*
X0445676Y0082621D01*
X0445537Y0084220D02*
X0410437Y0084220D01*
X0410310Y0085818D02*
X0445537Y0085818D01*
X0445537Y0086405D02*
X0445537Y0084582D01*
X0449937Y0084582D01*
X0449937Y0084582D01*
X0449937Y0084582D01*
X0454337Y0084582D01*
X0454337Y0086405D01*
X0451760Y0088982D01*
X0449937Y0088982D01*
X0448114Y0088982D01*
X0445537Y0086405D01*
X0446549Y0087417D02*
X0409666Y0087417D01*
X0405137Y0087417D02*
X0404737Y0087417D01*
X0404737Y0085818D02*
X0405137Y0085818D01*
X0400208Y0087417D02*
X0399283Y0087417D01*
X0390591Y0087417D02*
X0389283Y0087417D01*
X0380591Y0087417D02*
X0379283Y0087417D01*
X0370591Y0087417D02*
X0369283Y0087417D01*
X0360591Y0087417D02*
X0359283Y0087417D01*
X0350591Y0087417D02*
X0349283Y0087417D01*
X0340591Y0087417D02*
X0339283Y0087417D01*
X0330591Y0087417D02*
X0329283Y0087417D01*
X0320591Y0087417D02*
X0319283Y0087417D01*
X0310591Y0087417D02*
X0309283Y0087417D01*
X0309645Y0082621D02*
X0310229Y0082621D01*
X0319645Y0082621D02*
X0320229Y0082621D01*
X0321284Y0081023D02*
X0318590Y0081023D01*
X0328590Y0081023D02*
X0331284Y0081023D01*
X0330229Y0082621D02*
X0329645Y0082621D01*
X0339645Y0082621D02*
X0340229Y0082621D01*
X0349645Y0082621D02*
X0350229Y0082621D01*
X0359645Y0082621D02*
X0360229Y0082621D01*
X0369645Y0082621D02*
X0370229Y0082621D01*
X0371284Y0081023D02*
X0368590Y0081023D01*
X0361284Y0081023D02*
X0358590Y0081023D01*
X0352471Y0077826D02*
X0447403Y0077826D01*
X0447403Y0076227D02*
X0352471Y0076227D01*
X0352471Y0074629D02*
X0369327Y0074629D01*
X0368437Y0073739D02*
X0368437Y0070426D01*
X0370780Y0068082D01*
X0374094Y0068082D01*
X0376437Y0070426D01*
X0376437Y0073739D01*
X0374094Y0076082D01*
X0370780Y0076082D01*
X0368437Y0073739D01*
X0368437Y0073030D02*
X0352471Y0073030D01*
X0352471Y0071432D02*
X0368437Y0071432D01*
X0369029Y0069833D02*
X0352471Y0069833D01*
X0352471Y0068235D02*
X0370628Y0068235D01*
X0374246Y0068235D02*
X0378437Y0068235D01*
X0378437Y0067926D02*
X0380780Y0065582D01*
X0384094Y0065582D01*
X0386437Y0067926D01*
X0386437Y0071239D01*
X0384094Y0073582D01*
X0380780Y0073582D01*
X0378437Y0071239D01*
X0378437Y0067926D01*
X0379726Y0066636D02*
X0352471Y0066636D01*
X0351923Y0065038D02*
X0422278Y0065038D01*
X0422278Y0064708D02*
X0427095Y0064708D01*
X0427095Y0069525D01*
X0423841Y0069525D01*
X0423383Y0069402D01*
X0422973Y0069165D01*
X0422638Y0068830D01*
X0422401Y0068420D01*
X0422278Y0067962D01*
X0422278Y0064708D01*
X0422278Y0064142D02*
X0422278Y0060888D01*
X0422401Y0060430D01*
X0422638Y0060020D01*
X0422973Y0059685D01*
X0423383Y0059448D01*
X0423841Y0059325D01*
X0427095Y0059325D01*
X0427095Y0064142D01*
X0422278Y0064142D01*
X0422278Y0063439D02*
X0419237Y0063439D01*
X0419094Y0063582D02*
X0415780Y0063582D01*
X0413437Y0061239D01*
X0413437Y0057926D01*
X0415780Y0055582D01*
X0419094Y0055582D01*
X0421437Y0057926D01*
X0421437Y0061239D01*
X0419094Y0063582D01*
X0420836Y0061841D02*
X0422278Y0061841D01*
X0427095Y0061841D02*
X0427661Y0061841D01*
X0427661Y0063439D02*
X0427095Y0063439D01*
X0427095Y0064142D02*
X0427661Y0064142D01*
X0427661Y0064708D01*
X0427095Y0064708D01*
X0427095Y0064142D01*
X0427661Y0064142D02*
X0427661Y0059325D01*
X0430915Y0059325D01*
X0431373Y0059448D01*
X0431783Y0059685D01*
X0432118Y0060020D01*
X0432355Y0060430D01*
X0432478Y0060888D01*
X0432478Y0064142D01*
X0427661Y0064142D01*
X0427661Y0064708D02*
X0432478Y0064708D01*
X0432478Y0067962D01*
X0432355Y0068420D01*
X0432118Y0068830D01*
X0431783Y0069165D01*
X0431373Y0069402D01*
X0430915Y0069525D01*
X0427661Y0069525D01*
X0427661Y0064708D01*
X0427661Y0065038D02*
X0427095Y0065038D01*
X0427095Y0066636D02*
X0427661Y0066636D01*
X0432478Y0066636D02*
X0447403Y0066636D01*
X0447951Y0065038D02*
X0432478Y0065038D01*
X0432478Y0063439D02*
X0499347Y0063439D01*
X0499347Y0061841D02*
X0497859Y0061841D01*
X0490015Y0061841D02*
X0432478Y0061841D01*
X0432247Y0060242D02*
X0489937Y0060242D01*
X0489937Y0058644D02*
X0429963Y0058644D01*
X0431562Y0057045D02*
X0489937Y0057045D01*
X0497937Y0057045D02*
X0499347Y0057045D01*
X0499347Y0058644D02*
X0497937Y0058644D01*
X0497937Y0060242D02*
X0499347Y0060242D01*
X0499347Y0055447D02*
X0497937Y0055447D01*
X0497937Y0053848D02*
X0499347Y0053848D01*
X0499347Y0052250D02*
X0497937Y0052250D01*
X0497937Y0050651D02*
X0499347Y0050651D01*
X0499347Y0049053D02*
X0497937Y0049053D01*
X0497489Y0047454D02*
X0499347Y0047454D01*
X0489937Y0050651D02*
X0430093Y0050651D01*
X0431692Y0052250D02*
X0489937Y0052250D01*
X0489937Y0053848D02*
X0432078Y0053848D01*
X0432078Y0055447D02*
X0489937Y0055447D01*
X0492280Y0064582D02*
X0495594Y0064582D01*
X0497937Y0066926D01*
X0497937Y0070239D01*
X0496094Y0072082D01*
X0497117Y0072082D01*
X0497937Y0072902D01*
X0497937Y0079262D01*
X0497117Y0080082D01*
X0490757Y0080082D01*
X0489937Y0079262D01*
X0489937Y0072902D01*
X0490757Y0072082D01*
X0491780Y0072082D01*
X0489937Y0070239D01*
X0489937Y0066926D01*
X0492280Y0064582D01*
X0491825Y0065038D02*
X0461923Y0065038D01*
X0462471Y0066636D02*
X0479726Y0066636D01*
X0480780Y0065582D02*
X0484094Y0065582D01*
X0486437Y0067926D01*
X0486437Y0071239D01*
X0484094Y0073582D01*
X0480780Y0073582D01*
X0478437Y0071239D01*
X0478437Y0067926D01*
X0480780Y0065582D01*
X0485148Y0066636D02*
X0490226Y0066636D01*
X0496049Y0065038D02*
X0499347Y0065038D01*
X0499347Y0066636D02*
X0497648Y0066636D01*
X0497937Y0068235D02*
X0499347Y0068235D01*
X0499347Y0069833D02*
X0497937Y0069833D01*
X0489937Y0069833D02*
X0486437Y0069833D01*
X0486437Y0068235D02*
X0489937Y0068235D01*
X0478437Y0068235D02*
X0462471Y0068235D01*
X0462471Y0069833D02*
X0478437Y0069833D01*
X0478630Y0071432D02*
X0462471Y0071432D01*
X0462471Y0073030D02*
X0480228Y0073030D01*
X0484646Y0073030D02*
X0489937Y0073030D01*
X0491130Y0071432D02*
X0486244Y0071432D01*
X0496744Y0071432D02*
X0499347Y0071432D01*
X0499347Y0073030D02*
X0497937Y0073030D01*
X0497937Y0074629D02*
X0499347Y0074629D01*
X0499347Y0076227D02*
X0497937Y0076227D01*
X0497937Y0077826D02*
X0499347Y0077826D01*
X0499347Y0079424D02*
X0497775Y0079424D01*
X0499347Y0081023D02*
X0482034Y0081023D01*
X0481594Y0080582D02*
X0483937Y0082926D01*
X0483937Y0086239D01*
X0481594Y0088582D01*
X0478280Y0088582D01*
X0475937Y0086239D01*
X0475937Y0082926D01*
X0478280Y0080582D01*
X0481594Y0080582D01*
X0477840Y0081023D02*
X0452600Y0081023D01*
X0449937Y0081023D02*
X0449937Y0081023D01*
X0449937Y0082621D02*
X0449937Y0082621D01*
X0449937Y0084220D02*
X0449937Y0084220D01*
X0449937Y0084583D02*
X0449937Y0088982D01*
X0449937Y0084583D01*
X0449937Y0084583D01*
X0449937Y0085818D02*
X0449937Y0085818D01*
X0449937Y0087417D02*
X0449937Y0087417D01*
X0453325Y0087417D02*
X0477115Y0087417D01*
X0475937Y0085818D02*
X0454337Y0085818D01*
X0454337Y0084220D02*
X0475937Y0084220D01*
X0476241Y0082621D02*
X0454198Y0082621D01*
X0462059Y0079424D02*
X0490099Y0079424D01*
X0489937Y0077826D02*
X0462471Y0077826D01*
X0462471Y0076227D02*
X0489937Y0076227D01*
X0489937Y0074629D02*
X0462471Y0074629D01*
X0447403Y0074629D02*
X0375547Y0074629D01*
X0376437Y0073030D02*
X0380228Y0073030D01*
X0378630Y0071432D02*
X0376437Y0071432D01*
X0384646Y0073030D02*
X0389662Y0073030D01*
X0390614Y0073982D02*
X0388037Y0071405D01*
X0388037Y0069582D01*
X0388037Y0067760D01*
X0390614Y0065182D01*
X0392437Y0065182D01*
X0392437Y0069582D01*
X0392437Y0065182D01*
X0394260Y0065182D01*
X0396837Y0067760D01*
X0396837Y0069582D01*
X0392437Y0069582D01*
X0392437Y0069582D01*
X0388037Y0069582D01*
X0392437Y0069582D01*
X0392437Y0069582D01*
X0392437Y0069582D01*
X0396837Y0069582D01*
X0396837Y0071405D01*
X0394260Y0073982D01*
X0392437Y0073982D01*
X0390614Y0073982D01*
X0392437Y0073982D02*
X0392437Y0069583D01*
X0392437Y0069583D01*
X0392437Y0073982D01*
X0392437Y0073030D02*
X0392437Y0073030D01*
X0392437Y0071432D02*
X0392437Y0071432D01*
X0395212Y0073030D02*
X0402728Y0073030D01*
X0403280Y0073582D02*
X0400937Y0071239D01*
X0400937Y0067926D01*
X0403280Y0065582D01*
X0406594Y0065582D01*
X0408937Y0067926D01*
X0408937Y0071239D01*
X0406594Y0073582D01*
X0403280Y0073582D01*
X0407146Y0073030D02*
X0414662Y0073030D01*
X0415614Y0073982D02*
X0413037Y0071405D01*
X0413037Y0069582D01*
X0413037Y0067760D01*
X0415614Y0065182D01*
X0417437Y0065182D01*
X0417437Y0069582D01*
X0417437Y0065182D01*
X0419260Y0065182D01*
X0421837Y0067760D01*
X0421837Y0069582D01*
X0417437Y0069582D01*
X0417437Y0069582D01*
X0413037Y0069582D01*
X0417437Y0069582D01*
X0417437Y0069582D01*
X0417437Y0069582D01*
X0421837Y0069582D01*
X0421837Y0071405D01*
X0419260Y0073982D01*
X0417437Y0073982D01*
X0415614Y0073982D01*
X0417437Y0073982D02*
X0417437Y0069583D01*
X0417437Y0069583D01*
X0417437Y0073982D01*
X0417437Y0073030D02*
X0417437Y0073030D01*
X0417437Y0071432D02*
X0417437Y0071432D01*
X0420212Y0073030D02*
X0447403Y0073030D01*
X0447403Y0071432D02*
X0421810Y0071432D01*
X0421837Y0069833D02*
X0447403Y0069833D01*
X0447403Y0068235D02*
X0432405Y0068235D01*
X0427661Y0068235D02*
X0427095Y0068235D01*
X0422351Y0068235D02*
X0421837Y0068235D01*
X0417437Y0068235D02*
X0417437Y0068235D01*
X0417437Y0069833D02*
X0417437Y0069833D01*
X0413037Y0069833D02*
X0408937Y0069833D01*
X0408937Y0068235D02*
X0413037Y0068235D01*
X0414161Y0066636D02*
X0407648Y0066636D01*
X0402226Y0066636D02*
X0395713Y0066636D01*
X0392437Y0066636D02*
X0392437Y0066636D01*
X0389161Y0066636D02*
X0385148Y0066636D01*
X0386437Y0068235D02*
X0388037Y0068235D01*
X0388037Y0069833D02*
X0386437Y0069833D01*
X0392437Y0069833D02*
X0392437Y0069833D01*
X0392437Y0068235D02*
X0392437Y0068235D01*
X0396837Y0068235D02*
X0400937Y0068235D01*
X0400937Y0069833D02*
X0396837Y0069833D01*
X0396810Y0071432D02*
X0401130Y0071432D01*
X0408744Y0071432D02*
X0413064Y0071432D01*
X0388064Y0071432D02*
X0386244Y0071432D01*
X0378437Y0069833D02*
X0375845Y0069833D01*
X0384237Y0063439D02*
X0390637Y0063439D01*
X0389038Y0061841D02*
X0385836Y0061841D01*
X0394237Y0063439D02*
X0403137Y0063439D01*
X0403280Y0063582D02*
X0400937Y0061239D01*
X0400937Y0057926D01*
X0403280Y0055582D01*
X0406594Y0055582D01*
X0408937Y0057926D01*
X0408937Y0061239D01*
X0406594Y0063582D01*
X0403280Y0063582D01*
X0401538Y0061841D02*
X0395836Y0061841D01*
X0396437Y0060242D02*
X0400937Y0060242D01*
X0400937Y0058644D02*
X0396437Y0058644D01*
X0395557Y0057045D02*
X0401817Y0057045D01*
X0408057Y0057045D02*
X0414317Y0057045D01*
X0413437Y0058644D02*
X0408937Y0058644D01*
X0408937Y0060242D02*
X0413437Y0060242D01*
X0414038Y0061841D02*
X0408336Y0061841D01*
X0406737Y0063439D02*
X0415637Y0063439D01*
X0417437Y0066636D02*
X0417437Y0066636D01*
X0420713Y0066636D02*
X0422278Y0066636D01*
X0422509Y0060242D02*
X0421437Y0060242D01*
X0421437Y0058644D02*
X0424792Y0058644D01*
X0423194Y0057045D02*
X0420557Y0057045D01*
X0422678Y0055447D02*
X0394637Y0055447D01*
X0394637Y0053848D02*
X0422678Y0053848D01*
X0423064Y0052250D02*
X0393216Y0052250D01*
X0427095Y0060242D02*
X0427661Y0060242D01*
X0432078Y0044257D02*
X0448081Y0044257D01*
X0447403Y0042659D02*
X0431943Y0042659D01*
X0430345Y0041060D02*
X0447403Y0041060D01*
X0497937Y0041060D02*
X0499347Y0041060D01*
X0499347Y0042659D02*
X0497937Y0042659D01*
X0497937Y0039462D02*
X0499347Y0039462D01*
X0385289Y0039462D02*
X0380427Y0039462D01*
X0378829Y0037863D02*
X0384581Y0037863D01*
X0384140Y0036265D02*
X0377230Y0036265D01*
X0375632Y0034666D02*
X0383934Y0034666D01*
X0383887Y0033068D02*
X0374033Y0033068D01*
X0369409Y0034666D02*
X0356737Y0034666D01*
X0356737Y0033068D02*
X0367811Y0033068D01*
X0366212Y0031469D02*
X0356737Y0031469D01*
X0356737Y0029870D02*
X0364614Y0029870D01*
X0370836Y0029870D02*
X0383887Y0029870D01*
X0383887Y0031469D02*
X0372435Y0031469D01*
X0369238Y0028272D02*
X0384021Y0028272D01*
X0384407Y0026673D02*
X0367639Y0026673D01*
X0363015Y0028272D02*
X0356737Y0028272D01*
X0357180Y0026673D02*
X0362694Y0026673D01*
X0353137Y0029870D02*
X0352189Y0029870D01*
X0352471Y0031469D02*
X0353137Y0031469D01*
X0353137Y0033068D02*
X0352471Y0033068D01*
X0352471Y0034666D02*
X0353137Y0034666D01*
X0302968Y0042659D02*
X0284237Y0042659D01*
X0284237Y0041060D02*
X0301369Y0041060D01*
X0303137Y0044257D02*
X0297769Y0044257D01*
X0298937Y0045856D02*
X0303137Y0045856D01*
X0303137Y0047454D02*
X0298937Y0047454D01*
X0298624Y0049053D02*
X0303137Y0049053D01*
X0291250Y0049053D02*
X0288624Y0049053D01*
X0288937Y0047454D02*
X0290937Y0047454D01*
X0290937Y0045856D02*
X0288937Y0045856D01*
X0287769Y0044257D02*
X0292105Y0044257D01*
X0240726Y0053848D02*
X0209814Y0053848D01*
X0211413Y0055447D02*
X0240726Y0055447D01*
X0254972Y0061841D02*
X0255302Y0061841D01*
X0255302Y0063439D02*
X0254972Y0063439D01*
X0254972Y0065038D02*
X0255302Y0065038D01*
X0255302Y0066636D02*
X0254972Y0066636D01*
X0261631Y0066636D02*
X0267294Y0066636D01*
X0268830Y0065038D02*
X0262587Y0065038D01*
X0271780Y0065038D02*
X0271952Y0065038D01*
X0271952Y0066636D02*
X0271780Y0066636D01*
X0271780Y0068235D02*
X0271952Y0068235D01*
X0271780Y0069688D02*
X0267294Y0069688D01*
X0267294Y0072611D01*
X0267417Y0073069D01*
X0267654Y0073479D01*
X0267989Y0073814D01*
X0268400Y0074051D01*
X0268858Y0074174D01*
X0271780Y0074174D01*
X0271780Y0069688D01*
X0271780Y0069833D02*
X0271952Y0069833D01*
X0267294Y0069833D02*
X0258902Y0069833D01*
X0258902Y0068235D02*
X0267294Y0068235D01*
X0255302Y0068235D02*
X0254972Y0068235D01*
X0254972Y0069833D02*
X0255302Y0069833D01*
X0255302Y0071432D02*
X0254972Y0071432D01*
X0254972Y0073030D02*
X0255302Y0073030D01*
X0258902Y0073030D02*
X0267407Y0073030D01*
X0267294Y0071432D02*
X0258902Y0071432D01*
X0271780Y0071432D02*
X0271952Y0071432D01*
X0271952Y0073030D02*
X0271780Y0073030D01*
X0310726Y0077826D02*
X0337403Y0077826D01*
X0378590Y0081023D02*
X0381284Y0081023D01*
X0380229Y0082621D02*
X0379645Y0082621D01*
X0388590Y0081023D02*
X0391284Y0081023D01*
X0390229Y0082621D02*
X0389645Y0082621D01*
X0482759Y0087417D02*
X0489937Y0087417D01*
X0489937Y0085818D02*
X0483937Y0085818D01*
X0483937Y0084220D02*
X0490143Y0084220D01*
X0491741Y0082621D02*
X0483633Y0082621D01*
X0496133Y0082621D02*
X0499347Y0082621D01*
X0499347Y0084220D02*
X0497731Y0084220D01*
X0497937Y0085818D02*
X0499347Y0085818D01*
X0499347Y0087417D02*
X0497937Y0087417D01*
X0249098Y0087417D02*
X0247784Y0087417D01*
X0203659Y0081023D02*
X0081787Y0081023D01*
X0081787Y0079424D02*
X0129094Y0079424D01*
X0129345Y0079506D02*
X0128590Y0079261D01*
X0127882Y0078900D01*
X0127239Y0078433D01*
X0126677Y0077871D01*
X0126210Y0077228D01*
X0125849Y0076520D01*
X0125604Y0075764D01*
X0125480Y0074980D01*
X0125480Y0074865D01*
X0130245Y0074865D01*
X0130245Y0079630D01*
X0130130Y0079630D01*
X0129345Y0079506D01*
X0130245Y0079424D02*
X0130810Y0079424D01*
X0130810Y0079630D02*
X0130810Y0074865D01*
X0130245Y0074865D01*
X0130245Y0074300D01*
X0125480Y0074300D01*
X0125480Y0074185D01*
X0125604Y0073400D01*
X0125849Y0072645D01*
X0126210Y0071937D01*
X0126677Y0071294D01*
X0127239Y0070732D01*
X0127882Y0070265D01*
X0128590Y0069904D01*
X0129345Y0069659D01*
X0130130Y0069534D01*
X0130245Y0069534D01*
X0130245Y0074300D01*
X0130810Y0074300D01*
X0130810Y0074865D01*
X0135576Y0074865D01*
X0135576Y0074980D01*
X0135451Y0075764D01*
X0135206Y0076520D01*
X0134845Y0077228D01*
X0134378Y0077871D01*
X0133816Y0078433D01*
X0133173Y0078900D01*
X0132465Y0079261D01*
X0131710Y0079506D01*
X0130925Y0079630D01*
X0130810Y0079630D01*
X0131961Y0079424D02*
X0186594Y0079424D01*
X0187745Y0079424D02*
X0188310Y0079424D01*
X0188310Y0079630D02*
X0188310Y0074865D01*
X0193076Y0074865D01*
X0193076Y0074980D01*
X0192951Y0075764D01*
X0192706Y0076520D01*
X0192345Y0077228D01*
X0191878Y0077871D01*
X0191316Y0078433D01*
X0190673Y0078900D01*
X0189965Y0079261D01*
X0189210Y0079506D01*
X0188425Y0079630D01*
X0188310Y0079630D01*
X0189461Y0079424D02*
X0203659Y0079424D01*
X0203659Y0077826D02*
X0191911Y0077826D01*
X0192801Y0076227D02*
X0203659Y0076227D01*
X0204218Y0074629D02*
X0188310Y0074629D01*
X0187745Y0074629D02*
X0180865Y0074629D01*
X0180865Y0075507D02*
X0180157Y0077215D01*
X0178849Y0078523D01*
X0177141Y0079230D01*
X0175292Y0079230D01*
X0173584Y0078523D01*
X0172276Y0077215D01*
X0171569Y0075507D01*
X0171569Y0073658D01*
X0172276Y0071949D01*
X0173584Y0070642D01*
X0175292Y0069934D01*
X0177141Y0069934D01*
X0178849Y0070642D01*
X0180157Y0071949D01*
X0180865Y0073658D01*
X0180865Y0075507D01*
X0180566Y0076227D02*
X0183254Y0076227D01*
X0184144Y0077826D02*
X0179546Y0077826D01*
X0172887Y0077826D02*
X0146082Y0077826D01*
X0146692Y0077215D02*
X0145385Y0078523D01*
X0143677Y0079230D01*
X0141827Y0079230D01*
X0140119Y0078523D01*
X0138812Y0077215D01*
X0138104Y0075507D01*
X0138104Y0073658D01*
X0138812Y0071949D01*
X0140119Y0070642D01*
X0141827Y0069934D01*
X0143677Y0069934D01*
X0145385Y0070642D01*
X0146692Y0071949D01*
X0147400Y0073658D01*
X0147400Y0075507D01*
X0146692Y0077215D01*
X0147102Y0076227D02*
X0171867Y0076227D01*
X0171569Y0074629D02*
X0147400Y0074629D01*
X0138402Y0076227D02*
X0135301Y0076227D01*
X0134411Y0077826D02*
X0139422Y0077826D01*
X0138104Y0074629D02*
X0130810Y0074629D01*
X0130810Y0074300D02*
X0135576Y0074300D01*
X0135576Y0074185D01*
X0135451Y0073400D01*
X0135206Y0072645D01*
X0134845Y0071937D01*
X0134378Y0071294D01*
X0133816Y0070732D01*
X0133173Y0070265D01*
X0132465Y0069904D01*
X0131710Y0069659D01*
X0130925Y0069534D01*
X0130810Y0069534D01*
X0130810Y0074300D01*
X0130245Y0074629D02*
X0123365Y0074629D01*
X0123365Y0075507D02*
X0122657Y0077215D01*
X0121349Y0078523D01*
X0119641Y0079230D01*
X0117792Y0079230D01*
X0116084Y0078523D01*
X0114776Y0077215D01*
X0114069Y0075507D01*
X0114069Y0073658D01*
X0114776Y0071949D01*
X0116084Y0070642D01*
X0117792Y0069934D01*
X0119641Y0069934D01*
X0121349Y0070642D01*
X0122657Y0071949D01*
X0123365Y0073658D01*
X0123365Y0075507D01*
X0123066Y0076227D02*
X0125754Y0076227D01*
X0126644Y0077826D02*
X0122046Y0077826D01*
X0130245Y0077826D02*
X0130810Y0077826D01*
X0130810Y0076227D02*
X0130245Y0076227D01*
X0130245Y0073030D02*
X0130810Y0073030D01*
X0130810Y0071432D02*
X0130245Y0071432D01*
X0126577Y0071432D02*
X0122139Y0071432D01*
X0123105Y0073030D02*
X0125724Y0073030D01*
X0134478Y0071432D02*
X0139329Y0071432D01*
X0138364Y0073030D02*
X0135331Y0073030D01*
X0146175Y0071432D02*
X0172794Y0071432D01*
X0171828Y0073030D02*
X0147140Y0073030D01*
X0132247Y0069833D02*
X0186308Y0069833D01*
X0187745Y0069833D02*
X0188310Y0069833D01*
X0185433Y0068235D02*
X0081787Y0068235D01*
X0081787Y0069833D02*
X0128808Y0069833D01*
X0130245Y0069833D02*
X0130810Y0069833D01*
X0115294Y0071432D02*
X0088675Y0071432D01*
X0089640Y0073030D02*
X0114328Y0073030D01*
X0114069Y0074629D02*
X0089900Y0074629D01*
X0089602Y0076227D02*
X0114367Y0076227D01*
X0115387Y0077826D02*
X0088582Y0077826D01*
X0081922Y0077826D02*
X0081787Y0077826D01*
X0081787Y0071432D02*
X0081829Y0071432D01*
X0179639Y0071432D02*
X0184077Y0071432D01*
X0183224Y0073030D02*
X0180605Y0073030D01*
X0187745Y0073030D02*
X0188310Y0073030D01*
X0188310Y0071432D02*
X0187745Y0071432D01*
X0187745Y0076227D02*
X0188310Y0076227D01*
X0188310Y0077826D02*
X0187745Y0077826D01*
X0187437Y0047454D02*
X0187437Y0047454D01*
X0184086Y0047454D02*
X0081787Y0047454D01*
X0179509Y0037863D02*
X0184171Y0037863D01*
X0183266Y0036265D02*
X0180551Y0036265D01*
X0187745Y0036265D02*
X0188310Y0036265D01*
X0188310Y0037863D02*
X0187745Y0037863D01*
X0191884Y0037863D02*
X0195061Y0037863D01*
X0193462Y0036265D02*
X0192789Y0036265D01*
X0211437Y0034666D02*
X0213037Y0034666D01*
X0213037Y0034582D02*
X0217437Y0034582D01*
X0217437Y0034582D01*
X0213037Y0034582D01*
X0213303Y0033068D02*
X0211437Y0033068D01*
X0217437Y0033068D02*
X0217437Y0033068D01*
X0217437Y0034582D02*
X0217437Y0034582D01*
X0217437Y0034666D02*
X0217437Y0034666D01*
M02*
