G75*
%MOIN*%
%OFA0B0*%
%FSLAX25Y25*%
%IPPOS*%
%LPD*%
%AMOC8*
5,1,8,0,0,1.08239X$1,22.5*
%
%ADD10C,0.00100*%
%ADD11C,0.00000*%
D10*
X0079937Y0017082D02*
X0501197Y0017082D01*
X0501197Y0093854D01*
X0079937Y0093854D01*
X0079937Y0017082D01*
D11*
X0391138Y0032082D02*
X0391140Y0032240D01*
X0391146Y0032398D01*
X0391156Y0032556D01*
X0391170Y0032714D01*
X0391188Y0032871D01*
X0391209Y0033028D01*
X0391235Y0033184D01*
X0391265Y0033340D01*
X0391298Y0033495D01*
X0391336Y0033648D01*
X0391377Y0033801D01*
X0391422Y0033953D01*
X0391471Y0034104D01*
X0391524Y0034253D01*
X0391580Y0034401D01*
X0391640Y0034547D01*
X0391704Y0034692D01*
X0391772Y0034835D01*
X0391843Y0034977D01*
X0391917Y0035117D01*
X0391995Y0035254D01*
X0392077Y0035390D01*
X0392161Y0035524D01*
X0392250Y0035655D01*
X0392341Y0035784D01*
X0392436Y0035911D01*
X0392533Y0036036D01*
X0392634Y0036158D01*
X0392738Y0036277D01*
X0392845Y0036394D01*
X0392955Y0036508D01*
X0393068Y0036619D01*
X0393183Y0036728D01*
X0393301Y0036833D01*
X0393422Y0036935D01*
X0393545Y0037035D01*
X0393671Y0037131D01*
X0393799Y0037224D01*
X0393929Y0037314D01*
X0394062Y0037400D01*
X0394197Y0037484D01*
X0394333Y0037563D01*
X0394472Y0037640D01*
X0394613Y0037712D01*
X0394755Y0037782D01*
X0394899Y0037847D01*
X0395045Y0037909D01*
X0395192Y0037967D01*
X0395341Y0038022D01*
X0395491Y0038073D01*
X0395642Y0038120D01*
X0395794Y0038163D01*
X0395947Y0038202D01*
X0396102Y0038238D01*
X0396257Y0038269D01*
X0396413Y0038297D01*
X0396569Y0038321D01*
X0396726Y0038341D01*
X0396884Y0038357D01*
X0397041Y0038369D01*
X0397200Y0038377D01*
X0397358Y0038381D01*
X0397516Y0038381D01*
X0397674Y0038377D01*
X0397833Y0038369D01*
X0397990Y0038357D01*
X0398148Y0038341D01*
X0398305Y0038321D01*
X0398461Y0038297D01*
X0398617Y0038269D01*
X0398772Y0038238D01*
X0398927Y0038202D01*
X0399080Y0038163D01*
X0399232Y0038120D01*
X0399383Y0038073D01*
X0399533Y0038022D01*
X0399682Y0037967D01*
X0399829Y0037909D01*
X0399975Y0037847D01*
X0400119Y0037782D01*
X0400261Y0037712D01*
X0400402Y0037640D01*
X0400541Y0037563D01*
X0400677Y0037484D01*
X0400812Y0037400D01*
X0400945Y0037314D01*
X0401075Y0037224D01*
X0401203Y0037131D01*
X0401329Y0037035D01*
X0401452Y0036935D01*
X0401573Y0036833D01*
X0401691Y0036728D01*
X0401806Y0036619D01*
X0401919Y0036508D01*
X0402029Y0036394D01*
X0402136Y0036277D01*
X0402240Y0036158D01*
X0402341Y0036036D01*
X0402438Y0035911D01*
X0402533Y0035784D01*
X0402624Y0035655D01*
X0402713Y0035524D01*
X0402797Y0035390D01*
X0402879Y0035254D01*
X0402957Y0035117D01*
X0403031Y0034977D01*
X0403102Y0034835D01*
X0403170Y0034692D01*
X0403234Y0034547D01*
X0403294Y0034401D01*
X0403350Y0034253D01*
X0403403Y0034104D01*
X0403452Y0033953D01*
X0403497Y0033801D01*
X0403538Y0033648D01*
X0403576Y0033495D01*
X0403609Y0033340D01*
X0403639Y0033184D01*
X0403665Y0033028D01*
X0403686Y0032871D01*
X0403704Y0032714D01*
X0403718Y0032556D01*
X0403728Y0032398D01*
X0403734Y0032240D01*
X0403736Y0032082D01*
X0403734Y0031924D01*
X0403728Y0031766D01*
X0403718Y0031608D01*
X0403704Y0031450D01*
X0403686Y0031293D01*
X0403665Y0031136D01*
X0403639Y0030980D01*
X0403609Y0030824D01*
X0403576Y0030669D01*
X0403538Y0030516D01*
X0403497Y0030363D01*
X0403452Y0030211D01*
X0403403Y0030060D01*
X0403350Y0029911D01*
X0403294Y0029763D01*
X0403234Y0029617D01*
X0403170Y0029472D01*
X0403102Y0029329D01*
X0403031Y0029187D01*
X0402957Y0029047D01*
X0402879Y0028910D01*
X0402797Y0028774D01*
X0402713Y0028640D01*
X0402624Y0028509D01*
X0402533Y0028380D01*
X0402438Y0028253D01*
X0402341Y0028128D01*
X0402240Y0028006D01*
X0402136Y0027887D01*
X0402029Y0027770D01*
X0401919Y0027656D01*
X0401806Y0027545D01*
X0401691Y0027436D01*
X0401573Y0027331D01*
X0401452Y0027229D01*
X0401329Y0027129D01*
X0401203Y0027033D01*
X0401075Y0026940D01*
X0400945Y0026850D01*
X0400812Y0026764D01*
X0400677Y0026680D01*
X0400541Y0026601D01*
X0400402Y0026524D01*
X0400261Y0026452D01*
X0400119Y0026382D01*
X0399975Y0026317D01*
X0399829Y0026255D01*
X0399682Y0026197D01*
X0399533Y0026142D01*
X0399383Y0026091D01*
X0399232Y0026044D01*
X0399080Y0026001D01*
X0398927Y0025962D01*
X0398772Y0025926D01*
X0398617Y0025895D01*
X0398461Y0025867D01*
X0398305Y0025843D01*
X0398148Y0025823D01*
X0397990Y0025807D01*
X0397833Y0025795D01*
X0397674Y0025787D01*
X0397516Y0025783D01*
X0397358Y0025783D01*
X0397200Y0025787D01*
X0397041Y0025795D01*
X0396884Y0025807D01*
X0396726Y0025823D01*
X0396569Y0025843D01*
X0396413Y0025867D01*
X0396257Y0025895D01*
X0396102Y0025926D01*
X0395947Y0025962D01*
X0395794Y0026001D01*
X0395642Y0026044D01*
X0395491Y0026091D01*
X0395341Y0026142D01*
X0395192Y0026197D01*
X0395045Y0026255D01*
X0394899Y0026317D01*
X0394755Y0026382D01*
X0394613Y0026452D01*
X0394472Y0026524D01*
X0394333Y0026601D01*
X0394197Y0026680D01*
X0394062Y0026764D01*
X0393929Y0026850D01*
X0393799Y0026940D01*
X0393671Y0027033D01*
X0393545Y0027129D01*
X0393422Y0027229D01*
X0393301Y0027331D01*
X0393183Y0027436D01*
X0393068Y0027545D01*
X0392955Y0027656D01*
X0392845Y0027770D01*
X0392738Y0027887D01*
X0392634Y0028006D01*
X0392533Y0028128D01*
X0392436Y0028253D01*
X0392341Y0028380D01*
X0392250Y0028509D01*
X0392161Y0028640D01*
X0392077Y0028774D01*
X0391995Y0028910D01*
X0391917Y0029047D01*
X0391843Y0029187D01*
X0391772Y0029329D01*
X0391704Y0029472D01*
X0391640Y0029617D01*
X0391580Y0029763D01*
X0391524Y0029911D01*
X0391471Y0030060D01*
X0391422Y0030211D01*
X0391377Y0030363D01*
X0391336Y0030516D01*
X0391298Y0030669D01*
X0391265Y0030824D01*
X0391235Y0030980D01*
X0391209Y0031136D01*
X0391188Y0031293D01*
X0391170Y0031450D01*
X0391156Y0031608D01*
X0391146Y0031766D01*
X0391140Y0031924D01*
X0391138Y0032082D01*
M02*
