G75*
%MOIN*%
%OFA0B0*%
%FSLAX24Y24*%
%IPPOS*%
%LPD*%
%AMOC8*
5,1,8,0,0,1.08239X$1,22.5*
%
%ADD10C,0.0010*%
%ADD11C,0.0000*%
%ADD12C,0.2762*%
%ADD13C,0.3195*%
%ADD14C,0.1660*%
%ADD15C,0.0160*%
D10*
X000847Y001846D02*
X051437Y001846D01*
X051437Y009721D01*
X000847Y009721D01*
X000847Y001846D01*
D11*
X020768Y004543D02*
X020770Y004628D01*
X020776Y004713D01*
X020786Y004797D01*
X020800Y004881D01*
X020818Y004964D01*
X020839Y005046D01*
X020865Y005127D01*
X020894Y005207D01*
X020927Y005285D01*
X020963Y005361D01*
X021004Y005436D01*
X021047Y005509D01*
X021094Y005580D01*
X021144Y005648D01*
X021198Y005714D01*
X021254Y005778D01*
X021314Y005838D01*
X021376Y005896D01*
X021440Y005951D01*
X021508Y006003D01*
X021577Y006052D01*
X021649Y006097D01*
X021723Y006139D01*
X021799Y006177D01*
X021876Y006212D01*
X021955Y006243D01*
X022036Y006271D01*
X022117Y006294D01*
X022200Y006314D01*
X022283Y006330D01*
X022367Y006342D01*
X022452Y006350D01*
X022537Y006354D01*
X022621Y006354D01*
X022706Y006350D01*
X022791Y006342D01*
X022875Y006330D01*
X022958Y006314D01*
X023041Y006294D01*
X023122Y006271D01*
X023203Y006243D01*
X023282Y006212D01*
X023359Y006177D01*
X023435Y006139D01*
X023509Y006097D01*
X023581Y006052D01*
X023650Y006003D01*
X023718Y005951D01*
X023782Y005896D01*
X023844Y005838D01*
X023904Y005778D01*
X023960Y005714D01*
X024014Y005648D01*
X024064Y005580D01*
X024111Y005509D01*
X024154Y005436D01*
X024195Y005361D01*
X024231Y005285D01*
X024264Y005207D01*
X024293Y005127D01*
X024319Y005046D01*
X024340Y004964D01*
X024358Y004881D01*
X024372Y004797D01*
X024382Y004713D01*
X024388Y004628D01*
X024390Y004543D01*
X024388Y004458D01*
X024382Y004373D01*
X024372Y004289D01*
X024358Y004205D01*
X024340Y004122D01*
X024319Y004040D01*
X024293Y003959D01*
X024264Y003879D01*
X024231Y003801D01*
X024195Y003725D01*
X024154Y003650D01*
X024111Y003577D01*
X024064Y003506D01*
X024014Y003438D01*
X023960Y003372D01*
X023904Y003308D01*
X023844Y003248D01*
X023782Y003190D01*
X023718Y003135D01*
X023650Y003083D01*
X023581Y003034D01*
X023509Y002989D01*
X023435Y002947D01*
X023359Y002909D01*
X023282Y002874D01*
X023203Y002843D01*
X023122Y002815D01*
X023041Y002792D01*
X022958Y002772D01*
X022875Y002756D01*
X022791Y002744D01*
X022706Y002736D01*
X022621Y002732D01*
X022537Y002732D01*
X022452Y002736D01*
X022367Y002744D01*
X022283Y002756D01*
X022200Y002772D01*
X022117Y002792D01*
X022036Y002815D01*
X021955Y002843D01*
X021876Y002874D01*
X021799Y002909D01*
X021723Y002947D01*
X021649Y002989D01*
X021577Y003034D01*
X021508Y003083D01*
X021440Y003135D01*
X021376Y003190D01*
X021314Y003248D01*
X021254Y003308D01*
X021198Y003372D01*
X021144Y003438D01*
X021094Y003506D01*
X021047Y003577D01*
X021004Y003650D01*
X020963Y003725D01*
X020927Y003801D01*
X020894Y003879D01*
X020865Y003959D01*
X020839Y004040D01*
X020818Y004122D01*
X020800Y004205D01*
X020786Y004289D01*
X020776Y004373D01*
X020770Y004458D01*
X020768Y004543D01*
X025219Y003293D02*
X025221Y003342D01*
X025227Y003391D01*
X025237Y003439D01*
X025250Y003486D01*
X025268Y003532D01*
X025289Y003576D01*
X025313Y003619D01*
X025341Y003659D01*
X025372Y003698D01*
X025406Y003733D01*
X025443Y003766D01*
X025482Y003795D01*
X025524Y003821D01*
X025567Y003844D01*
X025613Y003863D01*
X025659Y003879D01*
X025707Y003891D01*
X025755Y003899D01*
X025804Y003903D01*
X025854Y003903D01*
X025903Y003899D01*
X025951Y003891D01*
X025999Y003879D01*
X026045Y003863D01*
X026091Y003844D01*
X026134Y003821D01*
X026176Y003795D01*
X026215Y003766D01*
X026252Y003733D01*
X026286Y003698D01*
X026317Y003659D01*
X026345Y003619D01*
X026369Y003576D01*
X026390Y003532D01*
X026408Y003486D01*
X026421Y003439D01*
X026431Y003391D01*
X026437Y003342D01*
X026439Y003293D01*
X026437Y003244D01*
X026431Y003195D01*
X026421Y003147D01*
X026408Y003100D01*
X026390Y003054D01*
X026369Y003010D01*
X026345Y002967D01*
X026317Y002927D01*
X026286Y002888D01*
X026252Y002853D01*
X026215Y002820D01*
X026176Y002791D01*
X026134Y002765D01*
X026091Y002742D01*
X026045Y002723D01*
X025999Y002707D01*
X025951Y002695D01*
X025903Y002687D01*
X025854Y002683D01*
X025804Y002683D01*
X025755Y002687D01*
X025707Y002695D01*
X025659Y002707D01*
X025613Y002723D01*
X025567Y002742D01*
X025524Y002765D01*
X025482Y002791D01*
X025443Y002820D01*
X025406Y002853D01*
X025372Y002888D01*
X025341Y002927D01*
X025313Y002967D01*
X025289Y003010D01*
X025268Y003054D01*
X025250Y003100D01*
X025237Y003147D01*
X025227Y003195D01*
X025221Y003244D01*
X025219Y003293D01*
X045869Y003193D02*
X045871Y003242D01*
X045877Y003291D01*
X045887Y003339D01*
X045900Y003386D01*
X045918Y003432D01*
X045939Y003476D01*
X045963Y003519D01*
X045991Y003559D01*
X046022Y003598D01*
X046056Y003633D01*
X046093Y003666D01*
X046132Y003695D01*
X046174Y003721D01*
X046217Y003744D01*
X046263Y003763D01*
X046309Y003779D01*
X046357Y003791D01*
X046405Y003799D01*
X046454Y003803D01*
X046504Y003803D01*
X046553Y003799D01*
X046601Y003791D01*
X046649Y003779D01*
X046695Y003763D01*
X046741Y003744D01*
X046784Y003721D01*
X046826Y003695D01*
X046865Y003666D01*
X046902Y003633D01*
X046936Y003598D01*
X046967Y003559D01*
X046995Y003519D01*
X047019Y003476D01*
X047040Y003432D01*
X047058Y003386D01*
X047071Y003339D01*
X047081Y003291D01*
X047087Y003242D01*
X047089Y003193D01*
X047087Y003144D01*
X047081Y003095D01*
X047071Y003047D01*
X047058Y003000D01*
X047040Y002954D01*
X047019Y002910D01*
X046995Y002867D01*
X046967Y002827D01*
X046936Y002788D01*
X046902Y002753D01*
X046865Y002720D01*
X046826Y002691D01*
X046784Y002665D01*
X046741Y002642D01*
X046695Y002623D01*
X046649Y002607D01*
X046601Y002595D01*
X046553Y002587D01*
X046504Y002583D01*
X046454Y002583D01*
X046405Y002587D01*
X046357Y002595D01*
X046309Y002607D01*
X046263Y002623D01*
X046217Y002642D01*
X046174Y002665D01*
X046132Y002691D01*
X046093Y002720D01*
X046056Y002753D01*
X046022Y002788D01*
X045991Y002827D01*
X045963Y002867D01*
X045939Y002910D01*
X045918Y002954D01*
X045900Y003000D01*
X045887Y003047D01*
X045877Y003095D01*
X045871Y003144D01*
X045869Y003193D01*
X045869Y004943D02*
X045871Y004992D01*
X045877Y005041D01*
X045887Y005089D01*
X045900Y005136D01*
X045918Y005182D01*
X045939Y005226D01*
X045963Y005269D01*
X045991Y005309D01*
X046022Y005348D01*
X046056Y005383D01*
X046093Y005416D01*
X046132Y005445D01*
X046174Y005471D01*
X046217Y005494D01*
X046263Y005513D01*
X046309Y005529D01*
X046357Y005541D01*
X046405Y005549D01*
X046454Y005553D01*
X046504Y005553D01*
X046553Y005549D01*
X046601Y005541D01*
X046649Y005529D01*
X046695Y005513D01*
X046741Y005494D01*
X046784Y005471D01*
X046826Y005445D01*
X046865Y005416D01*
X046902Y005383D01*
X046936Y005348D01*
X046967Y005309D01*
X046995Y005269D01*
X047019Y005226D01*
X047040Y005182D01*
X047058Y005136D01*
X047071Y005089D01*
X047081Y005041D01*
X047087Y004992D01*
X047089Y004943D01*
X047087Y004894D01*
X047081Y004845D01*
X047071Y004797D01*
X047058Y004750D01*
X047040Y004704D01*
X047019Y004660D01*
X046995Y004617D01*
X046967Y004577D01*
X046936Y004538D01*
X046902Y004503D01*
X046865Y004470D01*
X046826Y004441D01*
X046784Y004415D01*
X046741Y004392D01*
X046695Y004373D01*
X046649Y004357D01*
X046601Y004345D01*
X046553Y004337D01*
X046504Y004333D01*
X046454Y004333D01*
X046405Y004337D01*
X046357Y004345D01*
X046309Y004357D01*
X046263Y004373D01*
X046217Y004392D01*
X046174Y004415D01*
X046132Y004441D01*
X046093Y004470D01*
X046056Y004503D01*
X046022Y004538D01*
X045991Y004577D01*
X045963Y004617D01*
X045939Y004660D01*
X045918Y004704D01*
X045900Y004750D01*
X045887Y004797D01*
X045877Y004845D01*
X045871Y004894D01*
X045869Y004943D01*
X045869Y006693D02*
X045871Y006742D01*
X045877Y006791D01*
X045887Y006839D01*
X045900Y006886D01*
X045918Y006932D01*
X045939Y006976D01*
X045963Y007019D01*
X045991Y007059D01*
X046022Y007098D01*
X046056Y007133D01*
X046093Y007166D01*
X046132Y007195D01*
X046174Y007221D01*
X046217Y007244D01*
X046263Y007263D01*
X046309Y007279D01*
X046357Y007291D01*
X046405Y007299D01*
X046454Y007303D01*
X046504Y007303D01*
X046553Y007299D01*
X046601Y007291D01*
X046649Y007279D01*
X046695Y007263D01*
X046741Y007244D01*
X046784Y007221D01*
X046826Y007195D01*
X046865Y007166D01*
X046902Y007133D01*
X046936Y007098D01*
X046967Y007059D01*
X046995Y007019D01*
X047019Y006976D01*
X047040Y006932D01*
X047058Y006886D01*
X047071Y006839D01*
X047081Y006791D01*
X047087Y006742D01*
X047089Y006693D01*
X047087Y006644D01*
X047081Y006595D01*
X047071Y006547D01*
X047058Y006500D01*
X047040Y006454D01*
X047019Y006410D01*
X046995Y006367D01*
X046967Y006327D01*
X046936Y006288D01*
X046902Y006253D01*
X046865Y006220D01*
X046826Y006191D01*
X046784Y006165D01*
X046741Y006142D01*
X046695Y006123D01*
X046649Y006107D01*
X046601Y006095D01*
X046553Y006087D01*
X046504Y006083D01*
X046454Y006083D01*
X046405Y006087D01*
X046357Y006095D01*
X046309Y006107D01*
X046263Y006123D01*
X046217Y006142D01*
X046174Y006165D01*
X046132Y006191D01*
X046093Y006220D01*
X046056Y006253D01*
X046022Y006288D01*
X045991Y006327D01*
X045963Y006367D01*
X045939Y006410D01*
X045918Y006454D01*
X045900Y006500D01*
X045887Y006547D01*
X045877Y006595D01*
X045871Y006644D01*
X045869Y006693D01*
X045869Y008443D02*
X045871Y008492D01*
X045877Y008541D01*
X045887Y008589D01*
X045900Y008636D01*
X045918Y008682D01*
X045939Y008726D01*
X045963Y008769D01*
X045991Y008809D01*
X046022Y008848D01*
X046056Y008883D01*
X046093Y008916D01*
X046132Y008945D01*
X046174Y008971D01*
X046217Y008994D01*
X046263Y009013D01*
X046309Y009029D01*
X046357Y009041D01*
X046405Y009049D01*
X046454Y009053D01*
X046504Y009053D01*
X046553Y009049D01*
X046601Y009041D01*
X046649Y009029D01*
X046695Y009013D01*
X046741Y008994D01*
X046784Y008971D01*
X046826Y008945D01*
X046865Y008916D01*
X046902Y008883D01*
X046936Y008848D01*
X046967Y008809D01*
X046995Y008769D01*
X047019Y008726D01*
X047040Y008682D01*
X047058Y008636D01*
X047071Y008589D01*
X047081Y008541D01*
X047087Y008492D01*
X047089Y008443D01*
X047087Y008394D01*
X047081Y008345D01*
X047071Y008297D01*
X047058Y008250D01*
X047040Y008204D01*
X047019Y008160D01*
X046995Y008117D01*
X046967Y008077D01*
X046936Y008038D01*
X046902Y008003D01*
X046865Y007970D01*
X046826Y007941D01*
X046784Y007915D01*
X046741Y007892D01*
X046695Y007873D01*
X046649Y007857D01*
X046601Y007845D01*
X046553Y007837D01*
X046504Y007833D01*
X046454Y007833D01*
X046405Y007837D01*
X046357Y007845D01*
X046309Y007857D01*
X046263Y007873D01*
X046217Y007892D01*
X046174Y007915D01*
X046132Y007941D01*
X046093Y007970D01*
X046056Y008003D01*
X046022Y008038D01*
X045991Y008077D01*
X045963Y008117D01*
X045939Y008160D01*
X045918Y008204D01*
X045900Y008250D01*
X045887Y008297D01*
X045877Y008345D01*
X045871Y008394D01*
X045869Y008443D01*
D12*
X013329Y007793D03*
X007579Y007793D03*
X007579Y003793D03*
X013329Y003793D03*
D13*
X031579Y005793D03*
X042579Y005793D03*
D14*
X050256Y006768D03*
X002028Y006768D03*
D15*
X001032Y006760D02*
X045689Y006760D01*
X045689Y006851D02*
X045689Y006536D01*
X045809Y006246D01*
X046031Y006023D01*
X046322Y005903D01*
X046636Y005903D01*
X046927Y006023D01*
X047149Y006246D01*
X047269Y006536D01*
X047269Y006851D01*
X047149Y007141D01*
X046927Y007363D01*
X046636Y007484D01*
X046322Y007484D01*
X046031Y007363D01*
X045809Y007141D01*
X045689Y006851D01*
X045717Y006919D02*
X001032Y006919D01*
X001032Y007077D02*
X045782Y007077D01*
X045903Y007236D02*
X001032Y007236D01*
X001032Y007394D02*
X046105Y007394D01*
X046852Y007394D02*
X051252Y007394D01*
X051252Y007553D02*
X001032Y007553D01*
X001032Y007711D02*
X046182Y007711D01*
X046322Y007653D02*
X046636Y007653D01*
X046927Y007773D01*
X047149Y007996D01*
X047269Y008286D01*
X047269Y008601D01*
X047149Y008891D01*
X046927Y009113D01*
X046636Y009234D01*
X046322Y009234D01*
X046031Y009113D01*
X045809Y008891D01*
X045689Y008601D01*
X045689Y008286D01*
X045809Y007996D01*
X046031Y007773D01*
X046322Y007653D01*
X046776Y007711D02*
X051252Y007711D01*
X051252Y007870D02*
X047023Y007870D01*
X047162Y008028D02*
X051252Y008028D01*
X051252Y008187D02*
X047228Y008187D01*
X047269Y008345D02*
X051252Y008345D01*
X051252Y008504D02*
X047269Y008504D01*
X047244Y008662D02*
X051252Y008662D01*
X051252Y008821D02*
X047178Y008821D01*
X047061Y008979D02*
X051252Y008979D01*
X051252Y009138D02*
X046868Y009138D01*
X046090Y009138D02*
X001032Y009138D01*
X001032Y008979D02*
X045897Y008979D01*
X045780Y008821D02*
X001032Y008821D01*
X001032Y008662D02*
X045714Y008662D01*
X045689Y008504D02*
X001032Y008504D01*
X001032Y008345D02*
X045689Y008345D01*
X045730Y008187D02*
X001032Y008187D01*
X001032Y008028D02*
X045796Y008028D01*
X045935Y007870D02*
X001032Y007870D01*
X001032Y006602D02*
X045689Y006602D01*
X045727Y006443D02*
X023182Y006443D01*
X023347Y006399D02*
X022841Y006534D01*
X022317Y006534D01*
X021810Y006399D01*
X021356Y006137D01*
X020986Y005766D01*
X020724Y005312D01*
X020588Y004805D01*
X020588Y004281D01*
X020724Y003775D01*
X020986Y003321D01*
X021356Y002950D01*
X021810Y002688D01*
X022317Y002552D01*
X022841Y002552D01*
X023347Y002688D01*
X023801Y002950D01*
X024172Y003321D01*
X024434Y003775D01*
X024570Y004281D01*
X024570Y004805D01*
X024434Y005312D01*
X024172Y005766D01*
X023801Y006137D01*
X023347Y006399D01*
X023545Y006285D02*
X045793Y006285D01*
X045929Y006126D02*
X023812Y006126D01*
X023970Y005968D02*
X046166Y005968D01*
X046792Y005968D02*
X051252Y005968D01*
X051252Y005809D02*
X024129Y005809D01*
X024239Y005651D02*
X046121Y005651D01*
X046031Y005613D02*
X046322Y005734D01*
X046636Y005734D01*
X046927Y005613D01*
X047149Y005391D01*
X047269Y005101D01*
X047269Y004786D01*
X047149Y004496D01*
X046927Y004273D01*
X046636Y004153D01*
X046322Y004153D01*
X046031Y004273D01*
X045809Y004496D01*
X045689Y004786D01*
X045689Y005101D01*
X045809Y005391D01*
X046031Y005613D01*
X045910Y005492D02*
X024330Y005492D01*
X024422Y005334D02*
X045785Y005334D01*
X045719Y005175D02*
X024471Y005175D01*
X024513Y005017D02*
X045689Y005017D01*
X045689Y004858D02*
X024556Y004858D01*
X024570Y004700D02*
X045725Y004700D01*
X045790Y004541D02*
X024570Y004541D01*
X024570Y004383D02*
X045922Y004383D01*
X046151Y004224D02*
X024555Y004224D01*
X024512Y004066D02*
X025628Y004066D01*
X025672Y004084D02*
X025381Y003963D01*
X025159Y003741D01*
X025039Y003451D01*
X025039Y003136D01*
X025159Y002846D01*
X025381Y002623D01*
X025672Y002503D01*
X025986Y002503D01*
X026277Y002623D01*
X026499Y002846D01*
X026619Y003136D01*
X026619Y003451D01*
X026499Y003741D01*
X026277Y003963D01*
X025986Y004084D01*
X025672Y004084D01*
X026030Y004066D02*
X051252Y004066D01*
X051252Y003907D02*
X046821Y003907D01*
X046927Y003863D02*
X046636Y003984D01*
X046322Y003984D01*
X046031Y003863D01*
X045809Y003641D01*
X045689Y003351D01*
X045689Y003036D01*
X045809Y002746D01*
X046031Y002523D01*
X046322Y002403D01*
X046636Y002403D01*
X046927Y002523D01*
X047149Y002746D01*
X047269Y003036D01*
X047269Y003351D01*
X047149Y003641D01*
X046927Y003863D01*
X047041Y003749D02*
X051252Y003749D01*
X051252Y003590D02*
X047170Y003590D01*
X047236Y003432D02*
X051252Y003432D01*
X051252Y003273D02*
X047269Y003273D01*
X047269Y003115D02*
X051252Y003115D01*
X051252Y002956D02*
X047236Y002956D01*
X047170Y002798D02*
X051252Y002798D01*
X051252Y002639D02*
X047042Y002639D01*
X046823Y002481D02*
X051252Y002481D01*
X051252Y002322D02*
X001032Y002322D01*
X001032Y002164D02*
X051252Y002164D01*
X051252Y002031D02*
X051252Y009536D01*
X001032Y009536D01*
X001032Y002031D01*
X051252Y002031D01*
X046135Y002481D02*
X001032Y002481D01*
X001032Y002639D02*
X021993Y002639D01*
X021621Y002798D02*
X001032Y002798D01*
X001032Y002956D02*
X021350Y002956D01*
X021192Y003115D02*
X001032Y003115D01*
X001032Y003273D02*
X021033Y003273D01*
X020922Y003432D02*
X001032Y003432D01*
X001032Y003590D02*
X020830Y003590D01*
X020739Y003749D02*
X001032Y003749D01*
X001032Y003907D02*
X020688Y003907D01*
X020646Y004066D02*
X001032Y004066D01*
X001032Y004224D02*
X020603Y004224D01*
X020588Y004383D02*
X001032Y004383D01*
X001032Y004541D02*
X020588Y004541D01*
X020588Y004700D02*
X001032Y004700D01*
X001032Y004858D02*
X020602Y004858D01*
X020644Y005017D02*
X001032Y005017D01*
X001032Y005175D02*
X020687Y005175D01*
X020736Y005334D02*
X001032Y005334D01*
X001032Y005492D02*
X020828Y005492D01*
X020919Y005651D02*
X001032Y005651D01*
X001032Y005809D02*
X021029Y005809D01*
X021187Y005968D02*
X001032Y005968D01*
X001032Y006126D02*
X021346Y006126D01*
X021613Y006285D02*
X001032Y006285D01*
X001032Y006443D02*
X021976Y006443D01*
X024470Y003907D02*
X025325Y003907D01*
X025166Y003749D02*
X024419Y003749D01*
X024328Y003590D02*
X025096Y003590D01*
X025039Y003432D02*
X024236Y003432D01*
X024124Y003273D02*
X025039Y003273D01*
X025048Y003115D02*
X023966Y003115D01*
X023807Y002956D02*
X025113Y002956D01*
X025207Y002798D02*
X023537Y002798D01*
X023164Y002639D02*
X025366Y002639D01*
X026292Y002639D02*
X045916Y002639D01*
X045788Y002798D02*
X026451Y002798D01*
X026544Y002956D02*
X045722Y002956D01*
X045689Y003115D02*
X026610Y003115D01*
X026619Y003273D02*
X045689Y003273D01*
X045722Y003432D02*
X026619Y003432D01*
X026561Y003590D02*
X045788Y003590D01*
X045916Y003749D02*
X026491Y003749D01*
X026333Y003907D02*
X046137Y003907D01*
X046807Y004224D02*
X051252Y004224D01*
X051252Y004383D02*
X047036Y004383D01*
X047168Y004541D02*
X051252Y004541D01*
X051252Y004700D02*
X047233Y004700D01*
X047269Y004858D02*
X051252Y004858D01*
X051252Y005017D02*
X047269Y005017D01*
X047238Y005175D02*
X051252Y005175D01*
X051252Y005334D02*
X047173Y005334D01*
X047048Y005492D02*
X051252Y005492D01*
X051252Y005651D02*
X046837Y005651D01*
X047029Y006126D02*
X051252Y006126D01*
X051252Y006285D02*
X047165Y006285D01*
X047231Y006443D02*
X051252Y006443D01*
X051252Y006602D02*
X047269Y006602D01*
X047269Y006760D02*
X051252Y006760D01*
X051252Y006919D02*
X047241Y006919D01*
X047175Y007077D02*
X051252Y007077D01*
X051252Y007236D02*
X047054Y007236D01*
X051252Y009296D02*
X001032Y009296D01*
X001032Y009455D02*
X051252Y009455D01*
M02*
